%TF.GenerationSoftware,KiCad,Pcbnew,5.1.7-a382d34a8~88~ubuntu20.04.1*%
%TF.CreationDate,2021-03-24T20:19:51+01:00*%
%TF.ProjectId,launchpad,6c61756e-6368-4706-9164-2e6b69636164,rev?*%
%TF.SameCoordinates,Original*%
%TF.FileFunction,Copper,L1,Top*%
%TF.FilePolarity,Positive*%
%FSLAX46Y46*%
G04 Gerber Fmt 4.6, Leading zero omitted, Abs format (unit mm)*
G04 Created by KiCad (PCBNEW 5.1.7-a382d34a8~88~ubuntu20.04.1) date 2021-03-24 20:19:51*
%MOMM*%
%LPD*%
G01*
G04 APERTURE LIST*
%TA.AperFunction,ComponentPad*%
%ADD10O,1.700000X1.700000*%
%TD*%
%TA.AperFunction,ComponentPad*%
%ADD11R,1.700000X1.700000*%
%TD*%
%TA.AperFunction,ComponentPad*%
%ADD12C,2.200000*%
%TD*%
%TA.AperFunction,ComponentPad*%
%ADD13C,4.400000*%
%TD*%
%TA.AperFunction,SMDPad,CuDef*%
%ADD14R,1.450000X0.600000*%
%TD*%
%TA.AperFunction,SMDPad,CuDef*%
%ADD15R,1.450000X0.300000*%
%TD*%
%TA.AperFunction,ComponentPad*%
%ADD16O,2.100000X1.050000*%
%TD*%
%TA.AperFunction,SMDPad,CuDef*%
%ADD17R,5.200000X5.200000*%
%TD*%
%TA.AperFunction,SMDPad,CuDef*%
%ADD18C,0.100000*%
%TD*%
%TA.AperFunction,ViaPad*%
%ADD19C,0.800000*%
%TD*%
%TA.AperFunction,Conductor*%
%ADD20C,0.250000*%
%TD*%
%TA.AperFunction,Conductor*%
%ADD21C,0.300000*%
%TD*%
%TA.AperFunction,Conductor*%
%ADD22C,0.254000*%
%TD*%
%TA.AperFunction,Conductor*%
%ADD23C,0.100000*%
%TD*%
G04 APERTURE END LIST*
D10*
%TO.P,J2,6*%
%TO.N,GND*%
X186636660Y-62931040D03*
%TO.P,J2,5*%
%TO.N,RESET*%
X184096660Y-62931040D03*
%TO.P,J2,4*%
%TO.N,MOSI*%
X186636660Y-60391040D03*
%TO.P,J2,3*%
%TO.N,SCLK*%
X184096660Y-60391040D03*
%TO.P,J2,2*%
%TO.N,+5V*%
X186636660Y-57851040D03*
D11*
%TO.P,J2,1*%
%TO.N,MISO*%
X184096660Y-57851040D03*
%TD*%
D12*
%TO.P,SW0,2*%
%TO.N,GND*%
X111760000Y-59055000D03*
%TO.P,SW0,1*%
%TO.N,BTN0*%
X118110000Y-56515000D03*
%TD*%
D13*
%TO.P,H3,1*%
%TO.N,GND*%
X174058580Y-58070161D03*
%TD*%
%TO.P,H2,1*%
%TO.N,GND*%
X125064520Y-58070161D03*
%TD*%
%TO.P,H1,1*%
%TO.N,GND*%
X125064520Y-84825840D03*
%TD*%
D12*
%TO.P,SW6,2*%
%TO.N,GND*%
X168910000Y-68580000D03*
%TO.P,SW6,1*%
%TO.N,BTN6*%
X175260000Y-66040000D03*
%TD*%
D14*
%TO.P,J1,A1B12*%
%TO.N,GND*%
X185405000Y-74370000D03*
%TO.P,J1,A4B9*%
%TO.N,/VBUS*%
X185405000Y-73570000D03*
D15*
%TO.P,J1,A6*%
%TO.N,USB_D+*%
X185405000Y-71370000D03*
%TO.P,J1,B7*%
%TO.N,USB_D-*%
X185405000Y-71870000D03*
%TO.P,J1,A5*%
%TO.N,Net-(J1-PadA5)*%
X185405000Y-72370000D03*
%TO.P,J1,B8*%
%TO.N,Net-(J1-PadB8)*%
X185405000Y-72870000D03*
%TO.P,J1,A7*%
%TO.N,USB_D-*%
X185405000Y-70870000D03*
%TO.P,J1,B6*%
%TO.N,USB_D+*%
X185405000Y-70370000D03*
%TO.P,J1,A8*%
%TO.N,Net-(J1-PadA8)*%
X185405000Y-69870000D03*
%TO.P,J1,B5*%
%TO.N,Net-(J1-PadB5)*%
X185405000Y-69370000D03*
D14*
%TO.P,J1,B4A9*%
%TO.N,/VBUS*%
X185405000Y-68670000D03*
%TO.P,J1,B1A12*%
%TO.N,GND*%
X185405000Y-67870000D03*
D16*
%TO.P,J1,S1*%
X186320000Y-75440000D03*
%TO.P,J1,S2*%
X186320000Y-66800000D03*
%TO.P,J1,S3*%
X190500000Y-75440000D03*
%TO.P,J1,S4*%
X190500000Y-66800000D03*
%TD*%
%TO.P,D2,1*%
%TO.N,GND*%
%TA.AperFunction,SMDPad,CuDef*%
G36*
G01*
X187113270Y-77954120D02*
X187625770Y-77954120D01*
G75*
G02*
X187844520Y-78172870I0J-218750D01*
G01*
X187844520Y-78610370D01*
G75*
G02*
X187625770Y-78829120I-218750J0D01*
G01*
X187113270Y-78829120D01*
G75*
G02*
X186894520Y-78610370I0J218750D01*
G01*
X186894520Y-78172870D01*
G75*
G02*
X187113270Y-77954120I218750J0D01*
G01*
G37*
%TD.AperFunction*%
%TO.P,D2,2*%
%TO.N,Net-(D2-Pad2)*%
%TA.AperFunction,SMDPad,CuDef*%
G36*
G01*
X187113270Y-79529120D02*
X187625770Y-79529120D01*
G75*
G02*
X187844520Y-79747870I0J-218750D01*
G01*
X187844520Y-80185370D01*
G75*
G02*
X187625770Y-80404120I-218750J0D01*
G01*
X187113270Y-80404120D01*
G75*
G02*
X186894520Y-80185370I0J218750D01*
G01*
X186894520Y-79747870D01*
G75*
G02*
X187113270Y-79529120I218750J0D01*
G01*
G37*
%TD.AperFunction*%
%TD*%
%TO.P,C1,1*%
%TO.N,Net-(C1-Pad1)*%
%TA.AperFunction,SMDPad,CuDef*%
G36*
G01*
X185434520Y-84577240D02*
X185434520Y-84077240D01*
G75*
G02*
X185659520Y-83852240I225000J0D01*
G01*
X186109520Y-83852240D01*
G75*
G02*
X186334520Y-84077240I0J-225000D01*
G01*
X186334520Y-84577240D01*
G75*
G02*
X186109520Y-84802240I-225000J0D01*
G01*
X185659520Y-84802240D01*
G75*
G02*
X185434520Y-84577240I0J225000D01*
G01*
G37*
%TD.AperFunction*%
%TO.P,C1,2*%
%TO.N,GND*%
%TA.AperFunction,SMDPad,CuDef*%
G36*
G01*
X186984520Y-84577240D02*
X186984520Y-84077240D01*
G75*
G02*
X187209520Y-83852240I225000J0D01*
G01*
X187659520Y-83852240D01*
G75*
G02*
X187884520Y-84077240I0J-225000D01*
G01*
X187884520Y-84577240D01*
G75*
G02*
X187659520Y-84802240I-225000J0D01*
G01*
X187209520Y-84802240D01*
G75*
G02*
X186984520Y-84577240I0J225000D01*
G01*
G37*
%TD.AperFunction*%
%TD*%
%TO.P,C2,1*%
%TO.N,Net-(C2-Pad1)*%
%TA.AperFunction,SMDPad,CuDef*%
G36*
G01*
X177844260Y-80421900D02*
X177344260Y-80421900D01*
G75*
G02*
X177119260Y-80196900I0J225000D01*
G01*
X177119260Y-79746900D01*
G75*
G02*
X177344260Y-79521900I225000J0D01*
G01*
X177844260Y-79521900D01*
G75*
G02*
X178069260Y-79746900I0J-225000D01*
G01*
X178069260Y-80196900D01*
G75*
G02*
X177844260Y-80421900I-225000J0D01*
G01*
G37*
%TD.AperFunction*%
%TO.P,C2,2*%
%TO.N,GND*%
%TA.AperFunction,SMDPad,CuDef*%
G36*
G01*
X177844260Y-78871900D02*
X177344260Y-78871900D01*
G75*
G02*
X177119260Y-78646900I0J225000D01*
G01*
X177119260Y-78196900D01*
G75*
G02*
X177344260Y-77971900I225000J0D01*
G01*
X177844260Y-77971900D01*
G75*
G02*
X178069260Y-78196900I0J-225000D01*
G01*
X178069260Y-78646900D01*
G75*
G02*
X177844260Y-78871900I-225000J0D01*
G01*
G37*
%TD.AperFunction*%
%TD*%
%TO.P,C3,2*%
%TO.N,GND*%
%TA.AperFunction,SMDPad,CuDef*%
G36*
G01*
X172938260Y-82297460D02*
X172938260Y-82797460D01*
G75*
G02*
X172713260Y-83022460I-225000J0D01*
G01*
X172263260Y-83022460D01*
G75*
G02*
X172038260Y-82797460I0J225000D01*
G01*
X172038260Y-82297460D01*
G75*
G02*
X172263260Y-82072460I225000J0D01*
G01*
X172713260Y-82072460D01*
G75*
G02*
X172938260Y-82297460I0J-225000D01*
G01*
G37*
%TD.AperFunction*%
%TO.P,C3,1*%
%TO.N,+5V*%
%TA.AperFunction,SMDPad,CuDef*%
G36*
G01*
X174488260Y-82297460D02*
X174488260Y-82797460D01*
G75*
G02*
X174263260Y-83022460I-225000J0D01*
G01*
X173813260Y-83022460D01*
G75*
G02*
X173588260Y-82797460I0J225000D01*
G01*
X173588260Y-82297460D01*
G75*
G02*
X173813260Y-82072460I225000J0D01*
G01*
X174263260Y-82072460D01*
G75*
G02*
X174488260Y-82297460I0J-225000D01*
G01*
G37*
%TD.AperFunction*%
%TD*%
%TO.P,C4,2*%
%TO.N,GND*%
%TA.AperFunction,SMDPad,CuDef*%
G36*
G01*
X186984520Y-87681120D02*
X186984520Y-87181120D01*
G75*
G02*
X187209520Y-86956120I225000J0D01*
G01*
X187659520Y-86956120D01*
G75*
G02*
X187884520Y-87181120I0J-225000D01*
G01*
X187884520Y-87681120D01*
G75*
G02*
X187659520Y-87906120I-225000J0D01*
G01*
X187209520Y-87906120D01*
G75*
G02*
X186984520Y-87681120I0J225000D01*
G01*
G37*
%TD.AperFunction*%
%TO.P,C4,1*%
%TO.N,+5V*%
%TA.AperFunction,SMDPad,CuDef*%
G36*
G01*
X185434520Y-87681120D02*
X185434520Y-87181120D01*
G75*
G02*
X185659520Y-86956120I225000J0D01*
G01*
X186109520Y-86956120D01*
G75*
G02*
X186334520Y-87181120I0J-225000D01*
G01*
X186334520Y-87681120D01*
G75*
G02*
X186109520Y-87906120I-225000J0D01*
G01*
X185659520Y-87906120D01*
G75*
G02*
X185434520Y-87681120I0J225000D01*
G01*
G37*
%TD.AperFunction*%
%TD*%
%TO.P,C5,2*%
%TO.N,GND*%
%TA.AperFunction,SMDPad,CuDef*%
G36*
G01*
X172938260Y-88759220D02*
X172938260Y-89259220D01*
G75*
G02*
X172713260Y-89484220I-225000J0D01*
G01*
X172263260Y-89484220D01*
G75*
G02*
X172038260Y-89259220I0J225000D01*
G01*
X172038260Y-88759220D01*
G75*
G02*
X172263260Y-88534220I225000J0D01*
G01*
X172713260Y-88534220D01*
G75*
G02*
X172938260Y-88759220I0J-225000D01*
G01*
G37*
%TD.AperFunction*%
%TO.P,C5,1*%
%TO.N,+5V*%
%TA.AperFunction,SMDPad,CuDef*%
G36*
G01*
X174488260Y-88759220D02*
X174488260Y-89259220D01*
G75*
G02*
X174263260Y-89484220I-225000J0D01*
G01*
X173813260Y-89484220D01*
G75*
G02*
X173588260Y-89259220I0J225000D01*
G01*
X173588260Y-88759220D01*
G75*
G02*
X173813260Y-88534220I225000J0D01*
G01*
X174263260Y-88534220D01*
G75*
G02*
X174488260Y-88759220I0J-225000D01*
G01*
G37*
%TD.AperFunction*%
%TD*%
%TO.P,C6,1*%
%TO.N,+5V*%
%TA.AperFunction,SMDPad,CuDef*%
G36*
G01*
X185434520Y-83025300D02*
X185434520Y-82525300D01*
G75*
G02*
X185659520Y-82300300I225000J0D01*
G01*
X186109520Y-82300300D01*
G75*
G02*
X186334520Y-82525300I0J-225000D01*
G01*
X186334520Y-83025300D01*
G75*
G02*
X186109520Y-83250300I-225000J0D01*
G01*
X185659520Y-83250300D01*
G75*
G02*
X185434520Y-83025300I0J225000D01*
G01*
G37*
%TD.AperFunction*%
%TO.P,C6,2*%
%TO.N,GND*%
%TA.AperFunction,SMDPad,CuDef*%
G36*
G01*
X186984520Y-83025300D02*
X186984520Y-82525300D01*
G75*
G02*
X187209520Y-82300300I225000J0D01*
G01*
X187659520Y-82300300D01*
G75*
G02*
X187884520Y-82525300I0J-225000D01*
G01*
X187884520Y-83025300D01*
G75*
G02*
X187659520Y-83250300I-225000J0D01*
G01*
X187209520Y-83250300D01*
G75*
G02*
X186984520Y-83025300I0J225000D01*
G01*
G37*
%TD.AperFunction*%
%TD*%
%TO.P,C7,1*%
%TO.N,+5V*%
%TA.AperFunction,SMDPad,CuDef*%
G36*
G01*
X183696420Y-80404120D02*
X183196420Y-80404120D01*
G75*
G02*
X182971420Y-80179120I0J225000D01*
G01*
X182971420Y-79729120D01*
G75*
G02*
X183196420Y-79504120I225000J0D01*
G01*
X183696420Y-79504120D01*
G75*
G02*
X183921420Y-79729120I0J-225000D01*
G01*
X183921420Y-80179120D01*
G75*
G02*
X183696420Y-80404120I-225000J0D01*
G01*
G37*
%TD.AperFunction*%
%TO.P,C7,2*%
%TO.N,GND*%
%TA.AperFunction,SMDPad,CuDef*%
G36*
G01*
X183696420Y-78854120D02*
X183196420Y-78854120D01*
G75*
G02*
X182971420Y-78629120I0J225000D01*
G01*
X182971420Y-78179120D01*
G75*
G02*
X183196420Y-77954120I225000J0D01*
G01*
X183696420Y-77954120D01*
G75*
G02*
X183921420Y-78179120I0J-225000D01*
G01*
X183921420Y-78629120D01*
G75*
G02*
X183696420Y-78854120I-225000J0D01*
G01*
G37*
%TD.AperFunction*%
%TD*%
%TO.P,C8,1*%
%TO.N,GND*%
%TA.AperFunction,SMDPad,CuDef*%
G36*
G01*
X164125597Y-86338591D02*
X164479151Y-85985037D01*
G75*
G02*
X164797349Y-85985037I159099J-159099D01*
G01*
X165115547Y-86303235D01*
G75*
G02*
X165115547Y-86621433I-159099J-159099D01*
G01*
X164761993Y-86974987D01*
G75*
G02*
X164443795Y-86974987I-159099J159099D01*
G01*
X164125597Y-86656789D01*
G75*
G02*
X164125597Y-86338591I159099J159099D01*
G01*
G37*
%TD.AperFunction*%
%TO.P,C8,2*%
%TO.N,HSE_IN*%
%TA.AperFunction,SMDPad,CuDef*%
G36*
G01*
X165221613Y-87434607D02*
X165575167Y-87081053D01*
G75*
G02*
X165893365Y-87081053I159099J-159099D01*
G01*
X166211563Y-87399251D01*
G75*
G02*
X166211563Y-87717449I-159099J-159099D01*
G01*
X165858009Y-88071003D01*
G75*
G02*
X165539811Y-88071003I-159099J159099D01*
G01*
X165221613Y-87752805D01*
G75*
G02*
X165221613Y-87434607I159099J159099D01*
G01*
G37*
%TD.AperFunction*%
%TD*%
%TO.P,C9,2*%
%TO.N,HSE_OUT*%
%TA.AperFunction,SMDPad,CuDef*%
G36*
G01*
X165933939Y-82760495D02*
X165580385Y-82406941D01*
G75*
G02*
X165580385Y-82088743I159099J159099D01*
G01*
X165898583Y-81770545D01*
G75*
G02*
X166216781Y-81770545I159099J-159099D01*
G01*
X166570335Y-82124099D01*
G75*
G02*
X166570335Y-82442297I-159099J-159099D01*
G01*
X166252137Y-82760495D01*
G75*
G02*
X165933939Y-82760495I-159099J159099D01*
G01*
G37*
%TD.AperFunction*%
%TO.P,C9,1*%
%TO.N,GND*%
%TA.AperFunction,SMDPad,CuDef*%
G36*
G01*
X164837923Y-83856511D02*
X164484369Y-83502957D01*
G75*
G02*
X164484369Y-83184759I159099J159099D01*
G01*
X164802567Y-82866561D01*
G75*
G02*
X165120765Y-82866561I159099J-159099D01*
G01*
X165474319Y-83220115D01*
G75*
G02*
X165474319Y-83538313I-159099J-159099D01*
G01*
X165156121Y-83856511D01*
G75*
G02*
X164837923Y-83856511I-159099J159099D01*
G01*
G37*
%TD.AperFunction*%
%TD*%
%TO.P,F1,1*%
%TO.N,+5V*%
%TA.AperFunction,SMDPad,CuDef*%
G36*
G01*
X185518770Y-80404120D02*
X185006270Y-80404120D01*
G75*
G02*
X184787520Y-80185370I0J218750D01*
G01*
X184787520Y-79747870D01*
G75*
G02*
X185006270Y-79529120I218750J0D01*
G01*
X185518770Y-79529120D01*
G75*
G02*
X185737520Y-79747870I0J-218750D01*
G01*
X185737520Y-80185370D01*
G75*
G02*
X185518770Y-80404120I-218750J0D01*
G01*
G37*
%TD.AperFunction*%
%TO.P,F1,2*%
%TO.N,/VBUS*%
%TA.AperFunction,SMDPad,CuDef*%
G36*
G01*
X185518770Y-78829120D02*
X185006270Y-78829120D01*
G75*
G02*
X184787520Y-78610370I0J218750D01*
G01*
X184787520Y-78172870D01*
G75*
G02*
X185006270Y-77954120I218750J0D01*
G01*
X185518770Y-77954120D01*
G75*
G02*
X185737520Y-78172870I0J-218750D01*
G01*
X185737520Y-78610370D01*
G75*
G02*
X185518770Y-78829120I-218750J0D01*
G01*
G37*
%TD.AperFunction*%
%TD*%
%TO.P,R1,2*%
%TO.N,RESET*%
%TA.AperFunction,SMDPad,CuDef*%
G36*
G01*
X181758000Y-67078540D02*
X181208000Y-67078540D01*
G75*
G02*
X181008000Y-66878540I0J200000D01*
G01*
X181008000Y-66478540D01*
G75*
G02*
X181208000Y-66278540I200000J0D01*
G01*
X181758000Y-66278540D01*
G75*
G02*
X181958000Y-66478540I0J-200000D01*
G01*
X181958000Y-66878540D01*
G75*
G02*
X181758000Y-67078540I-200000J0D01*
G01*
G37*
%TD.AperFunction*%
%TO.P,R1,1*%
%TO.N,+5V*%
%TA.AperFunction,SMDPad,CuDef*%
G36*
G01*
X181758000Y-68728540D02*
X181208000Y-68728540D01*
G75*
G02*
X181008000Y-68528540I0J200000D01*
G01*
X181008000Y-68128540D01*
G75*
G02*
X181208000Y-67928540I200000J0D01*
G01*
X181758000Y-67928540D01*
G75*
G02*
X181958000Y-68128540I0J-200000D01*
G01*
X181958000Y-68528540D01*
G75*
G02*
X181758000Y-68728540I-200000J0D01*
G01*
G37*
%TD.AperFunction*%
%TD*%
%TO.P,R2,1*%
%TO.N,Net-(R2-Pad1)*%
%TA.AperFunction,SMDPad,CuDef*%
G36*
G01*
X179977140Y-80412040D02*
X179427140Y-80412040D01*
G75*
G02*
X179227140Y-80212040I0J200000D01*
G01*
X179227140Y-79812040D01*
G75*
G02*
X179427140Y-79612040I200000J0D01*
G01*
X179977140Y-79612040D01*
G75*
G02*
X180177140Y-79812040I0J-200000D01*
G01*
X180177140Y-80212040D01*
G75*
G02*
X179977140Y-80412040I-200000J0D01*
G01*
G37*
%TD.AperFunction*%
%TO.P,R2,2*%
%TO.N,USB_D+*%
%TA.AperFunction,SMDPad,CuDef*%
G36*
G01*
X179977140Y-78762040D02*
X179427140Y-78762040D01*
G75*
G02*
X179227140Y-78562040I0J200000D01*
G01*
X179227140Y-78162040D01*
G75*
G02*
X179427140Y-77962040I200000J0D01*
G01*
X179977140Y-77962040D01*
G75*
G02*
X180177140Y-78162040I0J-200000D01*
G01*
X180177140Y-78562040D01*
G75*
G02*
X179977140Y-78762040I-200000J0D01*
G01*
G37*
%TD.AperFunction*%
%TD*%
%TO.P,R3,2*%
%TO.N,USB_D-*%
%TA.AperFunction,SMDPad,CuDef*%
G36*
G01*
X181660313Y-78762040D02*
X181110313Y-78762040D01*
G75*
G02*
X180910313Y-78562040I0J200000D01*
G01*
X180910313Y-78162040D01*
G75*
G02*
X181110313Y-77962040I200000J0D01*
G01*
X181660313Y-77962040D01*
G75*
G02*
X181860313Y-78162040I0J-200000D01*
G01*
X181860313Y-78562040D01*
G75*
G02*
X181660313Y-78762040I-200000J0D01*
G01*
G37*
%TD.AperFunction*%
%TO.P,R3,1*%
%TO.N,Net-(R3-Pad1)*%
%TA.AperFunction,SMDPad,CuDef*%
G36*
G01*
X181660313Y-80412040D02*
X181110313Y-80412040D01*
G75*
G02*
X180910313Y-80212040I0J200000D01*
G01*
X180910313Y-79812040D01*
G75*
G02*
X181110313Y-79612040I200000J0D01*
G01*
X181660313Y-79612040D01*
G75*
G02*
X181860313Y-79812040I0J-200000D01*
G01*
X181860313Y-80212040D01*
G75*
G02*
X181660313Y-80412040I-200000J0D01*
G01*
G37*
%TD.AperFunction*%
%TD*%
%TO.P,R4,1*%
%TO.N,Net-(R4-Pad1)*%
%TA.AperFunction,SMDPad,CuDef*%
G36*
G01*
X185434520Y-89258060D02*
X185434520Y-88708060D01*
G75*
G02*
X185634520Y-88508060I200000J0D01*
G01*
X186034520Y-88508060D01*
G75*
G02*
X186234520Y-88708060I0J-200000D01*
G01*
X186234520Y-89258060D01*
G75*
G02*
X186034520Y-89458060I-200000J0D01*
G01*
X185634520Y-89458060D01*
G75*
G02*
X185434520Y-89258060I0J200000D01*
G01*
G37*
%TD.AperFunction*%
%TO.P,R4,2*%
%TO.N,GND*%
%TA.AperFunction,SMDPad,CuDef*%
G36*
G01*
X187084520Y-89258060D02*
X187084520Y-88708060D01*
G75*
G02*
X187284520Y-88508060I200000J0D01*
G01*
X187684520Y-88508060D01*
G75*
G02*
X187884520Y-88708060I0J-200000D01*
G01*
X187884520Y-89258060D01*
G75*
G02*
X187684520Y-89458060I-200000J0D01*
G01*
X187284520Y-89458060D01*
G75*
G02*
X187084520Y-89258060I0J200000D01*
G01*
G37*
%TD.AperFunction*%
%TD*%
%TO.P,R5,1*%
%TO.N,Net-(R5-Pad1)*%
%TA.AperFunction,SMDPad,CuDef*%
G36*
G01*
X185434520Y-86154180D02*
X185434520Y-85604180D01*
G75*
G02*
X185634520Y-85404180I200000J0D01*
G01*
X186034520Y-85404180D01*
G75*
G02*
X186234520Y-85604180I0J-200000D01*
G01*
X186234520Y-86154180D01*
G75*
G02*
X186034520Y-86354180I-200000J0D01*
G01*
X185634520Y-86354180D01*
G75*
G02*
X185434520Y-86154180I0J200000D01*
G01*
G37*
%TD.AperFunction*%
%TO.P,R5,2*%
%TO.N,Net-(D2-Pad2)*%
%TA.AperFunction,SMDPad,CuDef*%
G36*
G01*
X187084520Y-86154180D02*
X187084520Y-85604180D01*
G75*
G02*
X187284520Y-85404180I200000J0D01*
G01*
X187684520Y-85404180D01*
G75*
G02*
X187884520Y-85604180I0J-200000D01*
G01*
X187884520Y-86154180D01*
G75*
G02*
X187684520Y-86354180I-200000J0D01*
G01*
X187284520Y-86354180D01*
G75*
G02*
X187084520Y-86154180I0J200000D01*
G01*
G37*
%TD.AperFunction*%
%TD*%
%TO.P,R6,2*%
%TO.N,GND*%
%TA.AperFunction,SMDPad,CuDef*%
G36*
G01*
X182866620Y-75182280D02*
X183416620Y-75182280D01*
G75*
G02*
X183616620Y-75382280I0J-200000D01*
G01*
X183616620Y-75782280D01*
G75*
G02*
X183416620Y-75982280I-200000J0D01*
G01*
X182866620Y-75982280D01*
G75*
G02*
X182666620Y-75782280I0J200000D01*
G01*
X182666620Y-75382280D01*
G75*
G02*
X182866620Y-75182280I200000J0D01*
G01*
G37*
%TD.AperFunction*%
%TO.P,R6,1*%
%TO.N,Net-(J1-PadA5)*%
%TA.AperFunction,SMDPad,CuDef*%
G36*
G01*
X182866620Y-73532280D02*
X183416620Y-73532280D01*
G75*
G02*
X183616620Y-73732280I0J-200000D01*
G01*
X183616620Y-74132280D01*
G75*
G02*
X183416620Y-74332280I-200000J0D01*
G01*
X182866620Y-74332280D01*
G75*
G02*
X182666620Y-74132280I0J200000D01*
G01*
X182666620Y-73732280D01*
G75*
G02*
X182866620Y-73532280I200000J0D01*
G01*
G37*
%TD.AperFunction*%
%TD*%
%TO.P,R7,1*%
%TO.N,GND*%
%TA.AperFunction,SMDPad,CuDef*%
G36*
G01*
X182866620Y-66298360D02*
X183416620Y-66298360D01*
G75*
G02*
X183616620Y-66498360I0J-200000D01*
G01*
X183616620Y-66898360D01*
G75*
G02*
X183416620Y-67098360I-200000J0D01*
G01*
X182866620Y-67098360D01*
G75*
G02*
X182666620Y-66898360I0J200000D01*
G01*
X182666620Y-66498360D01*
G75*
G02*
X182866620Y-66298360I200000J0D01*
G01*
G37*
%TD.AperFunction*%
%TO.P,R7,2*%
%TO.N,Net-(J1-PadB5)*%
%TA.AperFunction,SMDPad,CuDef*%
G36*
G01*
X182866620Y-67948360D02*
X183416620Y-67948360D01*
G75*
G02*
X183616620Y-68148360I0J-200000D01*
G01*
X183616620Y-68548360D01*
G75*
G02*
X183416620Y-68748360I-200000J0D01*
G01*
X182866620Y-68748360D01*
G75*
G02*
X182666620Y-68548360I0J200000D01*
G01*
X182666620Y-68148360D01*
G75*
G02*
X182866620Y-67948360I200000J0D01*
G01*
G37*
%TD.AperFunction*%
%TD*%
D12*
%TO.P,SW1,2*%
%TO.N,GND*%
X111760000Y-78105000D03*
%TO.P,SW1,1*%
%TO.N,BTN1*%
X118110000Y-75565000D03*
%TD*%
%TO.P,SW2,2*%
%TO.N,GND*%
X130810000Y-59055000D03*
%TO.P,SW2,1*%
%TO.N,BTN2*%
X137160000Y-56515000D03*
%TD*%
%TO.P,SW3,1*%
%TO.N,BTN3*%
X137160000Y-75565000D03*
%TO.P,SW3,2*%
%TO.N,GND*%
X130810000Y-78105000D03*
%TD*%
%TO.P,SW4,1*%
%TO.N,BTN4*%
X156210000Y-56515000D03*
%TO.P,SW4,2*%
%TO.N,GND*%
X149860000Y-59055000D03*
%TD*%
%TO.P,SW5,2*%
%TO.N,GND*%
X149860000Y-78105000D03*
%TO.P,SW5,1*%
%TO.N,BTN5*%
X156210000Y-75565000D03*
%TD*%
%TO.P,U1,1*%
%TO.N,Net-(U1-Pad1)*%
%TA.AperFunction,SMDPad,CuDef*%
G36*
G01*
X181725940Y-81702680D02*
X181850940Y-81702680D01*
G75*
G02*
X181913440Y-81765180I0J-62500D01*
G01*
X181913440Y-82715180D01*
G75*
G02*
X181850940Y-82777680I-62500J0D01*
G01*
X181725940Y-82777680D01*
G75*
G02*
X181663440Y-82715180I0J62500D01*
G01*
X181663440Y-81765180D01*
G75*
G02*
X181725940Y-81702680I62500J0D01*
G01*
G37*
%TD.AperFunction*%
%TO.P,U1,2*%
%TO.N,+5V*%
%TA.AperFunction,SMDPad,CuDef*%
G36*
G01*
X181225940Y-81702680D02*
X181350940Y-81702680D01*
G75*
G02*
X181413440Y-81765180I0J-62500D01*
G01*
X181413440Y-82715180D01*
G75*
G02*
X181350940Y-82777680I-62500J0D01*
G01*
X181225940Y-82777680D01*
G75*
G02*
X181163440Y-82715180I0J62500D01*
G01*
X181163440Y-81765180D01*
G75*
G02*
X181225940Y-81702680I62500J0D01*
G01*
G37*
%TD.AperFunction*%
%TO.P,U1,3*%
%TO.N,Net-(R3-Pad1)*%
%TA.AperFunction,SMDPad,CuDef*%
G36*
G01*
X180725940Y-81702680D02*
X180850940Y-81702680D01*
G75*
G02*
X180913440Y-81765180I0J-62500D01*
G01*
X180913440Y-82715180D01*
G75*
G02*
X180850940Y-82777680I-62500J0D01*
G01*
X180725940Y-82777680D01*
G75*
G02*
X180663440Y-82715180I0J62500D01*
G01*
X180663440Y-81765180D01*
G75*
G02*
X180725940Y-81702680I62500J0D01*
G01*
G37*
%TD.AperFunction*%
%TO.P,U1,4*%
%TO.N,Net-(R2-Pad1)*%
%TA.AperFunction,SMDPad,CuDef*%
G36*
G01*
X180225940Y-81702680D02*
X180350940Y-81702680D01*
G75*
G02*
X180413440Y-81765180I0J-62500D01*
G01*
X180413440Y-82715180D01*
G75*
G02*
X180350940Y-82777680I-62500J0D01*
G01*
X180225940Y-82777680D01*
G75*
G02*
X180163440Y-82715180I0J62500D01*
G01*
X180163440Y-81765180D01*
G75*
G02*
X180225940Y-81702680I62500J0D01*
G01*
G37*
%TD.AperFunction*%
%TO.P,U1,5*%
%TO.N,GND*%
%TA.AperFunction,SMDPad,CuDef*%
G36*
G01*
X179725940Y-81702680D02*
X179850940Y-81702680D01*
G75*
G02*
X179913440Y-81765180I0J-62500D01*
G01*
X179913440Y-82715180D01*
G75*
G02*
X179850940Y-82777680I-62500J0D01*
G01*
X179725940Y-82777680D01*
G75*
G02*
X179663440Y-82715180I0J62500D01*
G01*
X179663440Y-81765180D01*
G75*
G02*
X179725940Y-81702680I62500J0D01*
G01*
G37*
%TD.AperFunction*%
%TO.P,U1,6*%
%TO.N,Net-(C2-Pad1)*%
%TA.AperFunction,SMDPad,CuDef*%
G36*
G01*
X179225940Y-81702680D02*
X179350940Y-81702680D01*
G75*
G02*
X179413440Y-81765180I0J-62500D01*
G01*
X179413440Y-82715180D01*
G75*
G02*
X179350940Y-82777680I-62500J0D01*
G01*
X179225940Y-82777680D01*
G75*
G02*
X179163440Y-82715180I0J62500D01*
G01*
X179163440Y-81765180D01*
G75*
G02*
X179225940Y-81702680I62500J0D01*
G01*
G37*
%TD.AperFunction*%
%TO.P,U1,7*%
%TO.N,+5V*%
%TA.AperFunction,SMDPad,CuDef*%
G36*
G01*
X178725940Y-81702680D02*
X178850940Y-81702680D01*
G75*
G02*
X178913440Y-81765180I0J-62500D01*
G01*
X178913440Y-82715180D01*
G75*
G02*
X178850940Y-82777680I-62500J0D01*
G01*
X178725940Y-82777680D01*
G75*
G02*
X178663440Y-82715180I0J62500D01*
G01*
X178663440Y-81765180D01*
G75*
G02*
X178725940Y-81702680I62500J0D01*
G01*
G37*
%TD.AperFunction*%
%TO.P,U1,8*%
%TO.N,Net-(U1-Pad8)*%
%TA.AperFunction,SMDPad,CuDef*%
G36*
G01*
X178225940Y-81702680D02*
X178350940Y-81702680D01*
G75*
G02*
X178413440Y-81765180I0J-62500D01*
G01*
X178413440Y-82715180D01*
G75*
G02*
X178350940Y-82777680I-62500J0D01*
G01*
X178225940Y-82777680D01*
G75*
G02*
X178163440Y-82715180I0J62500D01*
G01*
X178163440Y-81765180D01*
G75*
G02*
X178225940Y-81702680I62500J0D01*
G01*
G37*
%TD.AperFunction*%
%TO.P,U1,9*%
%TO.N,SCLK*%
%TA.AperFunction,SMDPad,CuDef*%
G36*
G01*
X177725940Y-81702680D02*
X177850940Y-81702680D01*
G75*
G02*
X177913440Y-81765180I0J-62500D01*
G01*
X177913440Y-82715180D01*
G75*
G02*
X177850940Y-82777680I-62500J0D01*
G01*
X177725940Y-82777680D01*
G75*
G02*
X177663440Y-82715180I0J62500D01*
G01*
X177663440Y-81765180D01*
G75*
G02*
X177725940Y-81702680I62500J0D01*
G01*
G37*
%TD.AperFunction*%
%TO.P,U1,10*%
%TO.N,MOSI*%
%TA.AperFunction,SMDPad,CuDef*%
G36*
G01*
X177225940Y-81702680D02*
X177350940Y-81702680D01*
G75*
G02*
X177413440Y-81765180I0J-62500D01*
G01*
X177413440Y-82715180D01*
G75*
G02*
X177350940Y-82777680I-62500J0D01*
G01*
X177225940Y-82777680D01*
G75*
G02*
X177163440Y-82715180I0J62500D01*
G01*
X177163440Y-81765180D01*
G75*
G02*
X177225940Y-81702680I62500J0D01*
G01*
G37*
%TD.AperFunction*%
%TO.P,U1,11*%
%TO.N,MISO*%
%TA.AperFunction,SMDPad,CuDef*%
G36*
G01*
X176725940Y-81702680D02*
X176850940Y-81702680D01*
G75*
G02*
X176913440Y-81765180I0J-62500D01*
G01*
X176913440Y-82715180D01*
G75*
G02*
X176850940Y-82777680I-62500J0D01*
G01*
X176725940Y-82777680D01*
G75*
G02*
X176663440Y-82715180I0J62500D01*
G01*
X176663440Y-81765180D01*
G75*
G02*
X176725940Y-81702680I62500J0D01*
G01*
G37*
%TD.AperFunction*%
%TO.P,U1,12*%
%TO.N,Net-(U1-Pad12)*%
%TA.AperFunction,SMDPad,CuDef*%
G36*
G01*
X175475940Y-82952680D02*
X176425940Y-82952680D01*
G75*
G02*
X176488440Y-83015180I0J-62500D01*
G01*
X176488440Y-83140180D01*
G75*
G02*
X176425940Y-83202680I-62500J0D01*
G01*
X175475940Y-83202680D01*
G75*
G02*
X175413440Y-83140180I0J62500D01*
G01*
X175413440Y-83015180D01*
G75*
G02*
X175475940Y-82952680I62500J0D01*
G01*
G37*
%TD.AperFunction*%
%TO.P,U1,13*%
%TO.N,RESET*%
%TA.AperFunction,SMDPad,CuDef*%
G36*
G01*
X175475940Y-83452680D02*
X176425940Y-83452680D01*
G75*
G02*
X176488440Y-83515180I0J-62500D01*
G01*
X176488440Y-83640180D01*
G75*
G02*
X176425940Y-83702680I-62500J0D01*
G01*
X175475940Y-83702680D01*
G75*
G02*
X175413440Y-83640180I0J62500D01*
G01*
X175413440Y-83515180D01*
G75*
G02*
X175475940Y-83452680I62500J0D01*
G01*
G37*
%TD.AperFunction*%
%TO.P,U1,14*%
%TO.N,+5V*%
%TA.AperFunction,SMDPad,CuDef*%
G36*
G01*
X175475940Y-83952680D02*
X176425940Y-83952680D01*
G75*
G02*
X176488440Y-84015180I0J-62500D01*
G01*
X176488440Y-84140180D01*
G75*
G02*
X176425940Y-84202680I-62500J0D01*
G01*
X175475940Y-84202680D01*
G75*
G02*
X175413440Y-84140180I0J62500D01*
G01*
X175413440Y-84015180D01*
G75*
G02*
X175475940Y-83952680I62500J0D01*
G01*
G37*
%TD.AperFunction*%
%TO.P,U1,15*%
%TO.N,GND*%
%TA.AperFunction,SMDPad,CuDef*%
G36*
G01*
X175475940Y-84452680D02*
X176425940Y-84452680D01*
G75*
G02*
X176488440Y-84515180I0J-62500D01*
G01*
X176488440Y-84640180D01*
G75*
G02*
X176425940Y-84702680I-62500J0D01*
G01*
X175475940Y-84702680D01*
G75*
G02*
X175413440Y-84640180I0J62500D01*
G01*
X175413440Y-84515180D01*
G75*
G02*
X175475940Y-84452680I62500J0D01*
G01*
G37*
%TD.AperFunction*%
%TO.P,U1,16*%
%TO.N,HSE_OUT*%
%TA.AperFunction,SMDPad,CuDef*%
G36*
G01*
X175475940Y-84952680D02*
X176425940Y-84952680D01*
G75*
G02*
X176488440Y-85015180I0J-62500D01*
G01*
X176488440Y-85140180D01*
G75*
G02*
X176425940Y-85202680I-62500J0D01*
G01*
X175475940Y-85202680D01*
G75*
G02*
X175413440Y-85140180I0J62500D01*
G01*
X175413440Y-85015180D01*
G75*
G02*
X175475940Y-84952680I62500J0D01*
G01*
G37*
%TD.AperFunction*%
%TO.P,U1,17*%
%TO.N,HSE_IN*%
%TA.AperFunction,SMDPad,CuDef*%
G36*
G01*
X175475940Y-85452680D02*
X176425940Y-85452680D01*
G75*
G02*
X176488440Y-85515180I0J-62500D01*
G01*
X176488440Y-85640180D01*
G75*
G02*
X176425940Y-85702680I-62500J0D01*
G01*
X175475940Y-85702680D01*
G75*
G02*
X175413440Y-85640180I0J62500D01*
G01*
X175413440Y-85515180D01*
G75*
G02*
X175475940Y-85452680I62500J0D01*
G01*
G37*
%TD.AperFunction*%
%TO.P,U1,18*%
%TO.N,Net-(U1-Pad18)*%
%TA.AperFunction,SMDPad,CuDef*%
G36*
G01*
X175475940Y-85952680D02*
X176425940Y-85952680D01*
G75*
G02*
X176488440Y-86015180I0J-62500D01*
G01*
X176488440Y-86140180D01*
G75*
G02*
X176425940Y-86202680I-62500J0D01*
G01*
X175475940Y-86202680D01*
G75*
G02*
X175413440Y-86140180I0J62500D01*
G01*
X175413440Y-86015180D01*
G75*
G02*
X175475940Y-85952680I62500J0D01*
G01*
G37*
%TD.AperFunction*%
%TO.P,U1,19*%
%TO.N,BTN6*%
%TA.AperFunction,SMDPad,CuDef*%
G36*
G01*
X175475940Y-86452680D02*
X176425940Y-86452680D01*
G75*
G02*
X176488440Y-86515180I0J-62500D01*
G01*
X176488440Y-86640180D01*
G75*
G02*
X176425940Y-86702680I-62500J0D01*
G01*
X175475940Y-86702680D01*
G75*
G02*
X175413440Y-86640180I0J62500D01*
G01*
X175413440Y-86515180D01*
G75*
G02*
X175475940Y-86452680I62500J0D01*
G01*
G37*
%TD.AperFunction*%
%TO.P,U1,20*%
%TO.N,BTN4*%
%TA.AperFunction,SMDPad,CuDef*%
G36*
G01*
X175475940Y-86952680D02*
X176425940Y-86952680D01*
G75*
G02*
X176488440Y-87015180I0J-62500D01*
G01*
X176488440Y-87140180D01*
G75*
G02*
X176425940Y-87202680I-62500J0D01*
G01*
X175475940Y-87202680D01*
G75*
G02*
X175413440Y-87140180I0J62500D01*
G01*
X175413440Y-87015180D01*
G75*
G02*
X175475940Y-86952680I62500J0D01*
G01*
G37*
%TD.AperFunction*%
%TO.P,U1,21*%
%TO.N,BTN5*%
%TA.AperFunction,SMDPad,CuDef*%
G36*
G01*
X175475940Y-87452680D02*
X176425940Y-87452680D01*
G75*
G02*
X176488440Y-87515180I0J-62500D01*
G01*
X176488440Y-87640180D01*
G75*
G02*
X176425940Y-87702680I-62500J0D01*
G01*
X175475940Y-87702680D01*
G75*
G02*
X175413440Y-87640180I0J62500D01*
G01*
X175413440Y-87515180D01*
G75*
G02*
X175475940Y-87452680I62500J0D01*
G01*
G37*
%TD.AperFunction*%
%TO.P,U1,22*%
%TO.N,BTN2*%
%TA.AperFunction,SMDPad,CuDef*%
G36*
G01*
X175475940Y-87952680D02*
X176425940Y-87952680D01*
G75*
G02*
X176488440Y-88015180I0J-62500D01*
G01*
X176488440Y-88140180D01*
G75*
G02*
X176425940Y-88202680I-62500J0D01*
G01*
X175475940Y-88202680D01*
G75*
G02*
X175413440Y-88140180I0J62500D01*
G01*
X175413440Y-88015180D01*
G75*
G02*
X175475940Y-87952680I62500J0D01*
G01*
G37*
%TD.AperFunction*%
%TO.P,U1,23*%
%TO.N,GND*%
%TA.AperFunction,SMDPad,CuDef*%
G36*
G01*
X176725940Y-88377680D02*
X176850940Y-88377680D01*
G75*
G02*
X176913440Y-88440180I0J-62500D01*
G01*
X176913440Y-89390180D01*
G75*
G02*
X176850940Y-89452680I-62500J0D01*
G01*
X176725940Y-89452680D01*
G75*
G02*
X176663440Y-89390180I0J62500D01*
G01*
X176663440Y-88440180D01*
G75*
G02*
X176725940Y-88377680I62500J0D01*
G01*
G37*
%TD.AperFunction*%
%TO.P,U1,24*%
%TO.N,+5V*%
%TA.AperFunction,SMDPad,CuDef*%
G36*
G01*
X177225940Y-88377680D02*
X177350940Y-88377680D01*
G75*
G02*
X177413440Y-88440180I0J-62500D01*
G01*
X177413440Y-89390180D01*
G75*
G02*
X177350940Y-89452680I-62500J0D01*
G01*
X177225940Y-89452680D01*
G75*
G02*
X177163440Y-89390180I0J62500D01*
G01*
X177163440Y-88440180D01*
G75*
G02*
X177225940Y-88377680I62500J0D01*
G01*
G37*
%TD.AperFunction*%
%TO.P,U1,25*%
%TO.N,BTN3*%
%TA.AperFunction,SMDPad,CuDef*%
G36*
G01*
X177725940Y-88377680D02*
X177850940Y-88377680D01*
G75*
G02*
X177913440Y-88440180I0J-62500D01*
G01*
X177913440Y-89390180D01*
G75*
G02*
X177850940Y-89452680I-62500J0D01*
G01*
X177725940Y-89452680D01*
G75*
G02*
X177663440Y-89390180I0J62500D01*
G01*
X177663440Y-88440180D01*
G75*
G02*
X177725940Y-88377680I62500J0D01*
G01*
G37*
%TD.AperFunction*%
%TO.P,U1,26*%
%TO.N,BTN0*%
%TA.AperFunction,SMDPad,CuDef*%
G36*
G01*
X178225940Y-88377680D02*
X178350940Y-88377680D01*
G75*
G02*
X178413440Y-88440180I0J-62500D01*
G01*
X178413440Y-89390180D01*
G75*
G02*
X178350940Y-89452680I-62500J0D01*
G01*
X178225940Y-89452680D01*
G75*
G02*
X178163440Y-89390180I0J62500D01*
G01*
X178163440Y-88440180D01*
G75*
G02*
X178225940Y-88377680I62500J0D01*
G01*
G37*
%TD.AperFunction*%
%TO.P,U1,27*%
%TO.N,BTN1*%
%TA.AperFunction,SMDPad,CuDef*%
G36*
G01*
X178725940Y-88377680D02*
X178850940Y-88377680D01*
G75*
G02*
X178913440Y-88440180I0J-62500D01*
G01*
X178913440Y-89390180D01*
G75*
G02*
X178850940Y-89452680I-62500J0D01*
G01*
X178725940Y-89452680D01*
G75*
G02*
X178663440Y-89390180I0J62500D01*
G01*
X178663440Y-88440180D01*
G75*
G02*
X178725940Y-88377680I62500J0D01*
G01*
G37*
%TD.AperFunction*%
%TO.P,U1,28*%
%TO.N,Net-(U1-Pad28)*%
%TA.AperFunction,SMDPad,CuDef*%
G36*
G01*
X179225940Y-88377680D02*
X179350940Y-88377680D01*
G75*
G02*
X179413440Y-88440180I0J-62500D01*
G01*
X179413440Y-89390180D01*
G75*
G02*
X179350940Y-89452680I-62500J0D01*
G01*
X179225940Y-89452680D01*
G75*
G02*
X179163440Y-89390180I0J62500D01*
G01*
X179163440Y-88440180D01*
G75*
G02*
X179225940Y-88377680I62500J0D01*
G01*
G37*
%TD.AperFunction*%
%TO.P,U1,29*%
%TO.N,Net-(U1-Pad29)*%
%TA.AperFunction,SMDPad,CuDef*%
G36*
G01*
X179725940Y-88377680D02*
X179850940Y-88377680D01*
G75*
G02*
X179913440Y-88440180I0J-62500D01*
G01*
X179913440Y-89390180D01*
G75*
G02*
X179850940Y-89452680I-62500J0D01*
G01*
X179725940Y-89452680D01*
G75*
G02*
X179663440Y-89390180I0J62500D01*
G01*
X179663440Y-88440180D01*
G75*
G02*
X179725940Y-88377680I62500J0D01*
G01*
G37*
%TD.AperFunction*%
%TO.P,U1,30*%
%TO.N,Net-(U1-Pad30)*%
%TA.AperFunction,SMDPad,CuDef*%
G36*
G01*
X180225940Y-88377680D02*
X180350940Y-88377680D01*
G75*
G02*
X180413440Y-88440180I0J-62500D01*
G01*
X180413440Y-89390180D01*
G75*
G02*
X180350940Y-89452680I-62500J0D01*
G01*
X180225940Y-89452680D01*
G75*
G02*
X180163440Y-89390180I0J62500D01*
G01*
X180163440Y-88440180D01*
G75*
G02*
X180225940Y-88377680I62500J0D01*
G01*
G37*
%TD.AperFunction*%
%TO.P,U1,31*%
%TO.N,Net-(U1-Pad31)*%
%TA.AperFunction,SMDPad,CuDef*%
G36*
G01*
X180725940Y-88377680D02*
X180850940Y-88377680D01*
G75*
G02*
X180913440Y-88440180I0J-62500D01*
G01*
X180913440Y-89390180D01*
G75*
G02*
X180850940Y-89452680I-62500J0D01*
G01*
X180725940Y-89452680D01*
G75*
G02*
X180663440Y-89390180I0J62500D01*
G01*
X180663440Y-88440180D01*
G75*
G02*
X180725940Y-88377680I62500J0D01*
G01*
G37*
%TD.AperFunction*%
%TO.P,U1,32*%
%TO.N,Net-(U1-Pad32)*%
%TA.AperFunction,SMDPad,CuDef*%
G36*
G01*
X181225940Y-88377680D02*
X181350940Y-88377680D01*
G75*
G02*
X181413440Y-88440180I0J-62500D01*
G01*
X181413440Y-89390180D01*
G75*
G02*
X181350940Y-89452680I-62500J0D01*
G01*
X181225940Y-89452680D01*
G75*
G02*
X181163440Y-89390180I0J62500D01*
G01*
X181163440Y-88440180D01*
G75*
G02*
X181225940Y-88377680I62500J0D01*
G01*
G37*
%TD.AperFunction*%
%TO.P,U1,33*%
%TO.N,Net-(R4-Pad1)*%
%TA.AperFunction,SMDPad,CuDef*%
G36*
G01*
X181725940Y-88377680D02*
X181850940Y-88377680D01*
G75*
G02*
X181913440Y-88440180I0J-62500D01*
G01*
X181913440Y-89390180D01*
G75*
G02*
X181850940Y-89452680I-62500J0D01*
G01*
X181725940Y-89452680D01*
G75*
G02*
X181663440Y-89390180I0J62500D01*
G01*
X181663440Y-88440180D01*
G75*
G02*
X181725940Y-88377680I62500J0D01*
G01*
G37*
%TD.AperFunction*%
%TO.P,U1,34*%
%TO.N,+5V*%
%TA.AperFunction,SMDPad,CuDef*%
G36*
G01*
X182150940Y-87952680D02*
X183100940Y-87952680D01*
G75*
G02*
X183163440Y-88015180I0J-62500D01*
G01*
X183163440Y-88140180D01*
G75*
G02*
X183100940Y-88202680I-62500J0D01*
G01*
X182150940Y-88202680D01*
G75*
G02*
X182088440Y-88140180I0J62500D01*
G01*
X182088440Y-88015180D01*
G75*
G02*
X182150940Y-87952680I62500J0D01*
G01*
G37*
%TD.AperFunction*%
%TO.P,U1,35*%
%TO.N,GND*%
%TA.AperFunction,SMDPad,CuDef*%
G36*
G01*
X182150940Y-87452680D02*
X183100940Y-87452680D01*
G75*
G02*
X183163440Y-87515180I0J-62500D01*
G01*
X183163440Y-87640180D01*
G75*
G02*
X183100940Y-87702680I-62500J0D01*
G01*
X182150940Y-87702680D01*
G75*
G02*
X182088440Y-87640180I0J62500D01*
G01*
X182088440Y-87515180D01*
G75*
G02*
X182150940Y-87452680I62500J0D01*
G01*
G37*
%TD.AperFunction*%
%TO.P,U1,36*%
%TO.N,Net-(U1-Pad36)*%
%TA.AperFunction,SMDPad,CuDef*%
G36*
G01*
X182150940Y-86952680D02*
X183100940Y-86952680D01*
G75*
G02*
X183163440Y-87015180I0J-62500D01*
G01*
X183163440Y-87140180D01*
G75*
G02*
X183100940Y-87202680I-62500J0D01*
G01*
X182150940Y-87202680D01*
G75*
G02*
X182088440Y-87140180I0J62500D01*
G01*
X182088440Y-87015180D01*
G75*
G02*
X182150940Y-86952680I62500J0D01*
G01*
G37*
%TD.AperFunction*%
%TO.P,U1,37*%
%TO.N,Net-(U1-Pad37)*%
%TA.AperFunction,SMDPad,CuDef*%
G36*
G01*
X182150940Y-86452680D02*
X183100940Y-86452680D01*
G75*
G02*
X183163440Y-86515180I0J-62500D01*
G01*
X183163440Y-86640180D01*
G75*
G02*
X183100940Y-86702680I-62500J0D01*
G01*
X182150940Y-86702680D01*
G75*
G02*
X182088440Y-86640180I0J62500D01*
G01*
X182088440Y-86515180D01*
G75*
G02*
X182150940Y-86452680I62500J0D01*
G01*
G37*
%TD.AperFunction*%
%TO.P,U1,38*%
%TO.N,Net-(U1-Pad38)*%
%TA.AperFunction,SMDPad,CuDef*%
G36*
G01*
X182150940Y-85952680D02*
X183100940Y-85952680D01*
G75*
G02*
X183163440Y-86015180I0J-62500D01*
G01*
X183163440Y-86140180D01*
G75*
G02*
X183100940Y-86202680I-62500J0D01*
G01*
X182150940Y-86202680D01*
G75*
G02*
X182088440Y-86140180I0J62500D01*
G01*
X182088440Y-86015180D01*
G75*
G02*
X182150940Y-85952680I62500J0D01*
G01*
G37*
%TD.AperFunction*%
%TO.P,U1,39*%
%TO.N,Net-(U1-Pad39)*%
%TA.AperFunction,SMDPad,CuDef*%
G36*
G01*
X182150940Y-85452680D02*
X183100940Y-85452680D01*
G75*
G02*
X183163440Y-85515180I0J-62500D01*
G01*
X183163440Y-85640180D01*
G75*
G02*
X183100940Y-85702680I-62500J0D01*
G01*
X182150940Y-85702680D01*
G75*
G02*
X182088440Y-85640180I0J62500D01*
G01*
X182088440Y-85515180D01*
G75*
G02*
X182150940Y-85452680I62500J0D01*
G01*
G37*
%TD.AperFunction*%
%TO.P,U1,40*%
%TO.N,Net-(U1-Pad40)*%
%TA.AperFunction,SMDPad,CuDef*%
G36*
G01*
X182150940Y-84952680D02*
X183100940Y-84952680D01*
G75*
G02*
X183163440Y-85015180I0J-62500D01*
G01*
X183163440Y-85140180D01*
G75*
G02*
X183100940Y-85202680I-62500J0D01*
G01*
X182150940Y-85202680D01*
G75*
G02*
X182088440Y-85140180I0J62500D01*
G01*
X182088440Y-85015180D01*
G75*
G02*
X182150940Y-84952680I62500J0D01*
G01*
G37*
%TD.AperFunction*%
%TO.P,U1,41*%
%TO.N,Net-(R5-Pad1)*%
%TA.AperFunction,SMDPad,CuDef*%
G36*
G01*
X182150940Y-84452680D02*
X183100940Y-84452680D01*
G75*
G02*
X183163440Y-84515180I0J-62500D01*
G01*
X183163440Y-84640180D01*
G75*
G02*
X183100940Y-84702680I-62500J0D01*
G01*
X182150940Y-84702680D01*
G75*
G02*
X182088440Y-84640180I0J62500D01*
G01*
X182088440Y-84515180D01*
G75*
G02*
X182150940Y-84452680I62500J0D01*
G01*
G37*
%TD.AperFunction*%
%TO.P,U1,42*%
%TO.N,Net-(C1-Pad1)*%
%TA.AperFunction,SMDPad,CuDef*%
G36*
G01*
X182150940Y-83952680D02*
X183100940Y-83952680D01*
G75*
G02*
X183163440Y-84015180I0J-62500D01*
G01*
X183163440Y-84140180D01*
G75*
G02*
X183100940Y-84202680I-62500J0D01*
G01*
X182150940Y-84202680D01*
G75*
G02*
X182088440Y-84140180I0J62500D01*
G01*
X182088440Y-84015180D01*
G75*
G02*
X182150940Y-83952680I62500J0D01*
G01*
G37*
%TD.AperFunction*%
%TO.P,U1,43*%
%TO.N,GND*%
%TA.AperFunction,SMDPad,CuDef*%
G36*
G01*
X182150940Y-83452680D02*
X183100940Y-83452680D01*
G75*
G02*
X183163440Y-83515180I0J-62500D01*
G01*
X183163440Y-83640180D01*
G75*
G02*
X183100940Y-83702680I-62500J0D01*
G01*
X182150940Y-83702680D01*
G75*
G02*
X182088440Y-83640180I0J62500D01*
G01*
X182088440Y-83515180D01*
G75*
G02*
X182150940Y-83452680I62500J0D01*
G01*
G37*
%TD.AperFunction*%
%TO.P,U1,44*%
%TO.N,+5V*%
%TA.AperFunction,SMDPad,CuDef*%
G36*
G01*
X182150940Y-82952680D02*
X183100940Y-82952680D01*
G75*
G02*
X183163440Y-83015180I0J-62500D01*
G01*
X183163440Y-83140180D01*
G75*
G02*
X183100940Y-83202680I-62500J0D01*
G01*
X182150940Y-83202680D01*
G75*
G02*
X182088440Y-83140180I0J62500D01*
G01*
X182088440Y-83015180D01*
G75*
G02*
X182150940Y-82952680I62500J0D01*
G01*
G37*
%TD.AperFunction*%
D17*
%TO.P,U1,45*%
%TO.N,GND*%
X179288440Y-85577680D03*
%TD*%
%TA.AperFunction,SMDPad,CuDef*%
D18*
%TO.P,Y1,1*%
%TO.N,HSE_IN*%
G36*
X167171532Y-87090917D02*
G01*
X166323004Y-86242389D01*
X167312954Y-85252439D01*
X168161482Y-86100967D01*
X167171532Y-87090917D01*
G37*
%TD.AperFunction*%
%TA.AperFunction,SMDPad,CuDef*%
%TO.P,Y1,2*%
%TO.N,GND*%
G36*
X168727167Y-85535282D02*
G01*
X167878639Y-84686754D01*
X168868589Y-83696804D01*
X169717117Y-84545332D01*
X168727167Y-85535282D01*
G37*
%TD.AperFunction*%
%TA.AperFunction,SMDPad,CuDef*%
%TO.P,Y1,3*%
%TO.N,HSE_OUT*%
G36*
X167525086Y-84333201D02*
G01*
X166676558Y-83484673D01*
X167666508Y-82494723D01*
X168515036Y-83343251D01*
X167525086Y-84333201D01*
G37*
%TD.AperFunction*%
%TA.AperFunction,SMDPad,CuDef*%
%TO.P,Y1,4*%
%TO.N,GND*%
G36*
X165969451Y-85888836D02*
G01*
X165120923Y-85040308D01*
X166110873Y-84050358D01*
X166959401Y-84898886D01*
X165969451Y-85888836D01*
G37*
%TD.AperFunction*%
%TD*%
D19*
%TO.N,Net-(C2-Pad1)*%
X179563440Y-81061560D03*
X178063440Y-80586580D03*
%TO.N,+5V*%
X175143160Y-89131140D03*
X183834400Y-83077680D03*
X184640220Y-87462360D03*
X174043340Y-83779360D03*
X179247800Y-68308220D03*
%TO.N,RESET*%
X174480220Y-77182980D03*
%TO.N,GND*%
X171333160Y-89382600D03*
X177673000Y-74493120D03*
X177673000Y-73289160D03*
X186456320Y-81287620D03*
%TD*%
D20*
%TO.N,Net-(C1-Pad1)*%
X185583400Y-84051520D02*
X185884520Y-84352640D01*
X182643720Y-84059900D02*
X182625940Y-84077680D01*
X185884520Y-84352640D02*
X185591780Y-84059900D01*
X185591779Y-84059899D02*
X185884520Y-84352640D01*
X182643721Y-84059899D02*
X185591779Y-84059899D01*
X182625940Y-84077680D02*
X182643721Y-84059899D01*
%TO.N,Net-(C2-Pad1)*%
X179288440Y-81336560D02*
X179563440Y-81061560D01*
X179288440Y-82240180D02*
X179288440Y-81336560D01*
X177863632Y-80241272D02*
X177594260Y-79971900D01*
X177594260Y-80117400D02*
X178063440Y-80586580D01*
X177594260Y-79971900D02*
X177594260Y-80117400D01*
%TO.N,+5V*%
X185608300Y-83051520D02*
X185884520Y-82775300D01*
X177288440Y-88915180D02*
X177288440Y-89500702D01*
X174038260Y-89303860D02*
X174038260Y-89009220D01*
X175021240Y-89009220D02*
X175143160Y-89131140D01*
X174038260Y-89009220D02*
X175021240Y-89009220D01*
X177288440Y-89500702D02*
X176946802Y-89842340D01*
X175854360Y-89842340D02*
X175143160Y-89131140D01*
X176946802Y-89842340D02*
X175854360Y-89842340D01*
X182625940Y-83077680D02*
X183834400Y-83077680D01*
X183852180Y-83059900D02*
X183834400Y-83077680D01*
X185884520Y-82775300D02*
X185599920Y-83059900D01*
X181288440Y-81637100D02*
X181288440Y-82240180D01*
X181288440Y-81550760D02*
X181288440Y-82240180D01*
X183393080Y-80007460D02*
X183446420Y-79954120D01*
X185250020Y-79954120D02*
X185262520Y-79966620D01*
X183446420Y-79954120D02*
X185250020Y-79954120D01*
X182779330Y-79287030D02*
X183446420Y-79954120D01*
X178788440Y-79708262D02*
X179209672Y-79287030D01*
X179209672Y-79287030D02*
X182779330Y-79287030D01*
X178788440Y-82240180D02*
X178788440Y-79708262D01*
X182885080Y-79954120D02*
X183446420Y-79954120D01*
X181288440Y-81550760D02*
X182885080Y-79954120D01*
X185582140Y-83077680D02*
X185884520Y-82775300D01*
D21*
X184136780Y-82775300D02*
X183834400Y-83077680D01*
X185884520Y-82775300D02*
X184136780Y-82775300D01*
X185262520Y-81649560D02*
X184136780Y-82775300D01*
X185262520Y-79966620D02*
X185262520Y-81649560D01*
D20*
X184024900Y-88077680D02*
X184640220Y-87462360D01*
X182625940Y-88077680D02*
X184024900Y-88077680D01*
X185853280Y-87462360D02*
X185884520Y-87431120D01*
X184640220Y-87462360D02*
X185853280Y-87462360D01*
X174341660Y-84077680D02*
X174043340Y-83779360D01*
X175950940Y-84077680D02*
X174341660Y-84077680D01*
X174043340Y-82552540D02*
X174038260Y-82547460D01*
X174043340Y-83779360D02*
X174043340Y-82552540D01*
X174038260Y-82547460D02*
X174038260Y-82489040D01*
X179268120Y-68328540D02*
X179247800Y-68308220D01*
X181483000Y-68328540D02*
X179268120Y-68328540D01*
%TO.N,HSE_IN*%
X167351825Y-86281260D02*
X167242243Y-86171678D01*
X169524680Y-86281260D02*
X167351825Y-86281260D01*
X170228260Y-85577680D02*
X169524680Y-86281260D01*
X175950940Y-85577680D02*
X170228260Y-85577680D01*
X167120938Y-86171678D02*
X165716588Y-87576028D01*
X167242243Y-86171678D02*
X167120938Y-86171678D01*
%TO.N,HSE_OUT*%
X175950940Y-85077680D02*
X171719620Y-85077680D01*
X171719620Y-85077680D02*
X169890440Y-83248500D01*
X167761259Y-83248500D02*
X167595797Y-83413962D01*
X169890440Y-83248500D02*
X167761259Y-83248500D01*
X167223802Y-83413962D02*
X166075360Y-82265520D01*
X167595797Y-83413962D02*
X167223802Y-83413962D01*
%TO.N,RESET*%
X174480220Y-77182980D02*
X175078371Y-77781131D01*
X175365418Y-83577680D02*
X175950940Y-83577680D01*
X175078371Y-83290633D02*
X175365418Y-83577680D01*
X175078371Y-77781131D02*
X175078371Y-83290633D01*
X181483000Y-65544700D02*
X181483000Y-66678540D01*
X184096660Y-62931040D02*
X181483000Y-65544700D01*
%TO.N,Net-(D2-Pad2)*%
X187484520Y-85879180D02*
X187602620Y-85879180D01*
X187484520Y-85879180D02*
X187484520Y-85834720D01*
X187484520Y-85834720D02*
X188498480Y-84820760D01*
X188498480Y-81095580D02*
X187369520Y-79966620D01*
X188498480Y-84820760D02*
X188498480Y-81095580D01*
%TO.N,USB_D+*%
X180293726Y-72458640D02*
X182382366Y-70370000D01*
X180293726Y-77770454D02*
X180293726Y-72458640D01*
X179702140Y-78362040D02*
X180293726Y-77770454D01*
X182382366Y-70370000D02*
X185405000Y-70370000D01*
X185405000Y-70370000D02*
X186380000Y-70370000D01*
X186380000Y-70370000D02*
X186580780Y-70570780D01*
X186580780Y-70570780D02*
X186580780Y-71154222D01*
X186365002Y-71370000D02*
X185405000Y-71370000D01*
X186580780Y-71154222D02*
X186365002Y-71370000D01*
%TO.N,Net-(J1-PadB5)*%
X184163260Y-69370000D02*
X183141620Y-68348360D01*
X185405000Y-69370000D02*
X184163260Y-69370000D01*
%TO.N,USB_D-*%
X181385312Y-78362040D02*
X181385313Y-78362040D01*
X180793726Y-77770454D02*
X181385312Y-78362040D01*
X180793726Y-72665748D02*
X180793726Y-77770454D01*
X182589474Y-70870000D02*
X180793726Y-72665748D01*
X183935560Y-70870000D02*
X182589474Y-70870000D01*
X185405000Y-70870000D02*
X183935560Y-70870000D01*
X185405000Y-71870000D02*
X184331040Y-71870000D01*
X183935560Y-70870000D02*
X183986360Y-70870000D01*
X183986360Y-70870000D02*
X184200800Y-71084440D01*
X184200800Y-71739760D02*
X184331040Y-71870000D01*
X184200800Y-71084440D02*
X184200800Y-71739760D01*
%TO.N,Net-(J1-PadA5)*%
X183141620Y-73658380D02*
X183141620Y-73932280D01*
X184430000Y-72370000D02*
X183141620Y-73658380D01*
X185405000Y-72370000D02*
X184430000Y-72370000D01*
%TO.N,MISO*%
X183848870Y-57851040D02*
X184096660Y-57851040D01*
X177751310Y-63948600D02*
X183848870Y-57851040D01*
X177751310Y-67401590D02*
X177751310Y-63948600D01*
X175528381Y-69624519D02*
X177751310Y-67401590D01*
X175528380Y-80431674D02*
X175528381Y-69624519D01*
X176788440Y-81691734D02*
X175528380Y-80431674D01*
X176788440Y-82240180D02*
X176788440Y-81691734D01*
%TO.N,SCLK*%
X177788440Y-81418914D02*
X177788440Y-82240180D01*
X176428400Y-80058874D02*
X177788440Y-81418914D01*
X176428400Y-69997320D02*
X176428400Y-80058874D01*
X178651330Y-67774390D02*
X176428400Y-69997320D01*
X178651330Y-64321400D02*
X178651330Y-67774390D01*
X182581690Y-60391040D02*
X178651330Y-64321400D01*
X184096660Y-60391040D02*
X182581690Y-60391040D01*
%TO.N,MOSI*%
X175978390Y-80245274D02*
X177288440Y-81555324D01*
X177288440Y-81555324D02*
X177288440Y-82240180D01*
X178201320Y-67587990D02*
X175978390Y-69810920D01*
X175978390Y-69810920D02*
X175978390Y-80245274D01*
X178201320Y-64135000D02*
X178201320Y-67587990D01*
X183154320Y-59182000D02*
X178201320Y-64135000D01*
X185427620Y-59182000D02*
X183154320Y-59182000D01*
X186636660Y-60391040D02*
X185427620Y-59182000D01*
%TO.N,Net-(R2-Pad1)*%
X180288440Y-80598340D02*
X179702140Y-80012040D01*
X180288440Y-82240180D02*
X180288440Y-80598340D01*
%TO.N,Net-(R3-Pad1)*%
X180788440Y-80608913D02*
X181385313Y-80012040D01*
X180788440Y-82240180D02*
X180788440Y-80608913D01*
%TO.N,Net-(R4-Pad1)*%
X185740480Y-88889020D02*
X185834520Y-88983060D01*
X181856320Y-88983060D02*
X181788440Y-88915180D01*
X185834520Y-88983060D02*
X181856320Y-88983060D01*
%TO.N,Net-(R5-Pad1)*%
X184533020Y-84577680D02*
X185834520Y-85879180D01*
X182625940Y-84577680D02*
X184533020Y-84577680D01*
%TO.N,BTN0*%
X118110000Y-71655940D02*
X118110000Y-56515000D01*
X157400429Y-84910519D02*
X131364579Y-84910519D01*
X163495879Y-91005969D02*
X157400429Y-84910519D01*
X131364579Y-84910519D02*
X118110000Y-71655940D01*
X177055994Y-91005968D02*
X163495879Y-91005969D01*
X178288440Y-89773522D02*
X177055994Y-91005968D01*
X178288440Y-88915180D02*
X178288440Y-89773522D01*
%TO.N,BTN1*%
X178788440Y-88915180D02*
X178788440Y-89166320D01*
X178788440Y-89909932D02*
X178788440Y-88915180D01*
X163309480Y-91455978D02*
X177242395Y-91455977D01*
X177242395Y-91455977D02*
X178788440Y-89909932D01*
X157214029Y-85360529D02*
X163309480Y-91455978D01*
X131178179Y-85360529D02*
X157214029Y-85360529D01*
X121382650Y-75565000D02*
X131178179Y-85360529D01*
X118110000Y-75565000D02*
X121382650Y-75565000D01*
%TO.N,BTN2*%
X175950940Y-88077680D02*
X171464600Y-88077680D01*
X163605069Y-89842339D02*
X157773230Y-84010500D01*
X157773230Y-84010500D02*
X149379940Y-84010500D01*
X149379940Y-84010500D02*
X137058400Y-71688960D01*
X137058400Y-56616600D02*
X137160000Y-56515000D01*
X137058400Y-71688960D02*
X137058400Y-56616600D01*
X163611559Y-89842339D02*
X163875169Y-90105949D01*
X163605069Y-89842339D02*
X163611559Y-89842339D01*
X169436331Y-90105949D02*
X171464600Y-88077680D01*
X163875169Y-90105949D02*
X169436331Y-90105949D01*
%TO.N,BTN3*%
X140298030Y-75565000D02*
X137160000Y-75565000D01*
X149193539Y-84460509D02*
X140298030Y-75565000D01*
X157586830Y-84460510D02*
X149193539Y-84460509D01*
X163682279Y-90555959D02*
X157586830Y-84460510D01*
X176869593Y-90555959D02*
X163682279Y-90555959D01*
X177788440Y-89637112D02*
X176869593Y-90555959D01*
X177788440Y-88915180D02*
X177788440Y-89637112D01*
%TO.N,BTN4*%
X161501250Y-61806250D02*
X156210000Y-56515000D01*
X161501250Y-86465700D02*
X161501250Y-61806250D01*
X163977870Y-88942320D02*
X161501250Y-86465700D01*
X175950940Y-87077680D02*
X171190785Y-87077680D01*
X163990571Y-88942321D02*
X164254179Y-89205929D01*
X163977870Y-88942320D02*
X163990571Y-88942321D01*
X169062536Y-89205929D02*
X171190785Y-87077680D01*
X164254179Y-89205929D02*
X169062536Y-89205929D01*
%TO.N,BTN5*%
X161051240Y-80406240D02*
X156210000Y-75565000D01*
X161051240Y-86652100D02*
X161051240Y-80406240D01*
X163791470Y-89392330D02*
X161051240Y-86652100D01*
X175950940Y-87577680D02*
X171327195Y-87577680D01*
X163804170Y-89392330D02*
X164067779Y-89655939D01*
X163791470Y-89392330D02*
X163804170Y-89392330D01*
X171327195Y-87578675D02*
X171327195Y-87577680D01*
X169249931Y-89655939D02*
X171327195Y-87578675D01*
X164067779Y-89655939D02*
X169249931Y-89655939D01*
%TO.N,BTN6*%
X167998140Y-66040000D02*
X175260000Y-66040000D01*
X161951260Y-72086880D02*
X167998140Y-66040000D01*
X161951260Y-86266600D02*
X161951260Y-72086880D01*
X164440579Y-88755919D02*
X161951260Y-86266600D01*
X168858501Y-88755919D02*
X164440579Y-88755919D01*
X171036740Y-86577680D02*
X168858501Y-88755919D01*
X175950940Y-86577680D02*
X171036740Y-86577680D01*
%TO.N,GND*%
X181288440Y-83577680D02*
X179288440Y-85577680D01*
X182625940Y-83577680D02*
X181288440Y-83577680D01*
X179788440Y-85077680D02*
X179288440Y-85577680D01*
X179788440Y-82240180D02*
X179788440Y-85077680D01*
X181288440Y-87577680D02*
X179288440Y-85577680D01*
X182625940Y-87577680D02*
X181288440Y-87577680D01*
X176813450Y-88052670D02*
X179288440Y-85577680D01*
X176813450Y-88890170D02*
X176813450Y-88052670D01*
X176788440Y-88915180D02*
X176813450Y-88890170D01*
X182625940Y-87577680D02*
X183211462Y-87577680D01*
X183126380Y-66683120D02*
X183141620Y-66698360D01*
X185405000Y-67715000D02*
X186320000Y-66800000D01*
X185405000Y-67870000D02*
X185405000Y-67715000D01*
X185405000Y-74525000D02*
X186320000Y-75440000D01*
X185405000Y-74370000D02*
X185405000Y-74525000D01*
X177536462Y-85577680D02*
X179288440Y-85577680D01*
X176536462Y-84577680D02*
X177536462Y-85577680D01*
X175950940Y-84577680D02*
X176536462Y-84577680D01*
X171706540Y-89009220D02*
X171333160Y-89382600D01*
X172488260Y-89009220D02*
X171706540Y-89009220D01*
D21*
X168730710Y-84683211D02*
X168797878Y-84616043D01*
X167391469Y-84683211D02*
X168730710Y-84683211D01*
X167105083Y-84969597D02*
X167391469Y-84683211D01*
X166040162Y-84969597D02*
X167105083Y-84969597D01*
D20*
X175950940Y-84577680D02*
X173289720Y-84577680D01*
X172488260Y-83776220D02*
X172488260Y-82547460D01*
X173289720Y-84577680D02*
X172488260Y-83776220D01*
X186456320Y-79304820D02*
X187369520Y-78391620D01*
X186456320Y-81287620D02*
X186456320Y-79304820D01*
D21*
%TO.N,/VBUS*%
X186253998Y-68670000D02*
X188770260Y-71186262D01*
X185405000Y-68670000D02*
X186253998Y-68670000D01*
X186210002Y-73570000D02*
X186818502Y-72961500D01*
X185405000Y-73570000D02*
X186210002Y-73570000D01*
X188287660Y-72961500D02*
X188770260Y-73444100D01*
X186818502Y-72961500D02*
X188287660Y-72961500D01*
X188770260Y-71186262D02*
X188770260Y-73444100D01*
X188770260Y-75250740D02*
X188770260Y-73444100D01*
X185629380Y-78391620D02*
X188770260Y-75250740D01*
X185262520Y-78391620D02*
X185629380Y-78391620D01*
%TD*%
D22*
%TO.N,GND*%
X190864545Y-50228909D02*
X191215208Y-50334780D01*
X191538625Y-50506744D01*
X191822484Y-50738254D01*
X192055965Y-51020486D01*
X192230183Y-51342695D01*
X192338502Y-51692614D01*
X192380000Y-52087443D01*
X192380001Y-90137711D01*
X192341091Y-90534545D01*
X192235220Y-90885206D01*
X192063257Y-91208623D01*
X191831748Y-91492482D01*
X191549514Y-91725965D01*
X191227304Y-91900184D01*
X190877385Y-92008502D01*
X190482557Y-92050000D01*
X177716569Y-92050000D01*
X177753397Y-92019776D01*
X177753398Y-92019775D01*
X177782396Y-91995977D01*
X177806194Y-91966979D01*
X179299444Y-90473730D01*
X179328441Y-90449933D01*
X179423414Y-90334208D01*
X179493986Y-90202179D01*
X179536355Y-90062506D01*
X179538440Y-90061873D01*
X179589265Y-90077291D01*
X179725940Y-90090752D01*
X179850940Y-90090752D01*
X179987615Y-90077291D01*
X180038440Y-90061873D01*
X180089265Y-90077291D01*
X180225940Y-90090752D01*
X180350940Y-90090752D01*
X180487615Y-90077291D01*
X180538440Y-90061873D01*
X180589265Y-90077291D01*
X180725940Y-90090752D01*
X180850940Y-90090752D01*
X180987615Y-90077291D01*
X181038440Y-90061873D01*
X181089265Y-90077291D01*
X181225940Y-90090752D01*
X181350940Y-90090752D01*
X181487615Y-90077291D01*
X181538440Y-90061873D01*
X181589265Y-90077291D01*
X181725940Y-90090752D01*
X181850940Y-90090752D01*
X181987615Y-90077291D01*
X182119037Y-90037424D01*
X182240157Y-89972684D01*
X182346319Y-89885559D01*
X182433444Y-89779397D01*
X182452867Y-89743060D01*
X184953604Y-89743060D01*
X185041914Y-89850666D01*
X185168912Y-89954891D01*
X185313804Y-90032338D01*
X185471020Y-90080029D01*
X185634520Y-90096132D01*
X186034520Y-90096132D01*
X186198020Y-90080029D01*
X186355236Y-90032338D01*
X186500128Y-89954891D01*
X186602110Y-89871197D01*
X186633335Y-89909245D01*
X186730026Y-89988597D01*
X186840340Y-90047562D01*
X186960038Y-90083872D01*
X187084520Y-90096132D01*
X187198770Y-90093060D01*
X187357520Y-89934310D01*
X187357520Y-89110060D01*
X187611520Y-89110060D01*
X187611520Y-89934310D01*
X187770270Y-90093060D01*
X187884520Y-90096132D01*
X188009002Y-90083872D01*
X188128700Y-90047562D01*
X188239014Y-89988597D01*
X188335705Y-89909245D01*
X188415057Y-89812554D01*
X188474022Y-89702240D01*
X188510332Y-89582542D01*
X188522592Y-89458060D01*
X188519520Y-89268810D01*
X188360770Y-89110060D01*
X187611520Y-89110060D01*
X187357520Y-89110060D01*
X187337520Y-89110060D01*
X187337520Y-88856060D01*
X187357520Y-88856060D01*
X187357520Y-88031810D01*
X187307520Y-87981810D01*
X187307520Y-87558120D01*
X187561520Y-87558120D01*
X187561520Y-88382370D01*
X187611520Y-88432370D01*
X187611520Y-88856060D01*
X188360770Y-88856060D01*
X188519520Y-88697310D01*
X188522592Y-88508060D01*
X188510332Y-88383578D01*
X188474022Y-88263880D01*
X188443667Y-88207090D01*
X188474022Y-88150300D01*
X188510332Y-88030602D01*
X188522592Y-87906120D01*
X188519520Y-87716870D01*
X188360770Y-87558120D01*
X187561520Y-87558120D01*
X187307520Y-87558120D01*
X187287520Y-87558120D01*
X187287520Y-87304120D01*
X187307520Y-87304120D01*
X187307520Y-87284120D01*
X187561520Y-87284120D01*
X187561520Y-87304120D01*
X188360770Y-87304120D01*
X188519520Y-87145370D01*
X188522592Y-86956120D01*
X188510332Y-86831638D01*
X188474022Y-86711940D01*
X188415057Y-86601626D01*
X188400524Y-86583918D01*
X188458798Y-86474896D01*
X188506489Y-86317680D01*
X188522592Y-86154180D01*
X188522592Y-85871449D01*
X189009484Y-85384558D01*
X189038481Y-85360761D01*
X189090903Y-85296885D01*
X189133454Y-85245037D01*
X189204026Y-85113007D01*
X189216755Y-85071043D01*
X189247483Y-84969746D01*
X189258480Y-84858093D01*
X189258480Y-84858083D01*
X189262156Y-84820760D01*
X189258480Y-84783438D01*
X189258480Y-81132913D01*
X189262157Y-81095580D01*
X189254971Y-81022615D01*
X189247483Y-80946594D01*
X189204026Y-80803333D01*
X189133454Y-80671304D01*
X189038481Y-80555579D01*
X189009483Y-80531781D01*
X188482592Y-80004890D01*
X188482592Y-79747870D01*
X188466128Y-79580712D01*
X188417370Y-79419978D01*
X188338191Y-79271845D01*
X188320420Y-79250190D01*
X188375057Y-79183614D01*
X188434022Y-79073300D01*
X188470332Y-78953602D01*
X188482592Y-78829120D01*
X188479520Y-78677370D01*
X188320770Y-78518620D01*
X187496520Y-78518620D01*
X187496520Y-78538620D01*
X187242520Y-78538620D01*
X187242520Y-78518620D01*
X187222520Y-78518620D01*
X187222520Y-78264620D01*
X187242520Y-78264620D01*
X187242520Y-78244620D01*
X187496520Y-78244620D01*
X187496520Y-78264620D01*
X188320770Y-78264620D01*
X188479520Y-78105870D01*
X188482592Y-77954120D01*
X188470332Y-77829638D01*
X188434022Y-77709940D01*
X188375057Y-77599626D01*
X188295705Y-77502935D01*
X188199014Y-77423583D01*
X188088700Y-77364618D01*
X187969002Y-77328308D01*
X187844520Y-77316048D01*
X187814624Y-77316533D01*
X189023792Y-76107366D01*
X189064953Y-76170441D01*
X189224941Y-76333947D01*
X189413754Y-76463099D01*
X189624135Y-76552934D01*
X189848000Y-76600000D01*
X190373000Y-76600000D01*
X190373000Y-75567000D01*
X190627000Y-75567000D01*
X190627000Y-76600000D01*
X191152000Y-76600000D01*
X191375865Y-76552934D01*
X191586246Y-76463099D01*
X191775059Y-76333947D01*
X191935047Y-76170441D01*
X192060063Y-75978864D01*
X192143964Y-75745810D01*
X192018163Y-75567000D01*
X190627000Y-75567000D01*
X190373000Y-75567000D01*
X190353000Y-75567000D01*
X190353000Y-75313000D01*
X190373000Y-75313000D01*
X190373000Y-74280000D01*
X190627000Y-74280000D01*
X190627000Y-75313000D01*
X192018163Y-75313000D01*
X192143964Y-75134190D01*
X192060063Y-74901136D01*
X191935047Y-74709559D01*
X191775059Y-74546053D01*
X191586246Y-74416901D01*
X191375865Y-74327066D01*
X191152000Y-74280000D01*
X190627000Y-74280000D01*
X190373000Y-74280000D01*
X189848000Y-74280000D01*
X189624135Y-74327066D01*
X189555260Y-74356476D01*
X189555260Y-73482652D01*
X189559057Y-73444099D01*
X189555260Y-73405546D01*
X189555260Y-71224818D01*
X189559057Y-71186262D01*
X189555260Y-71147702D01*
X189555260Y-71147701D01*
X189548371Y-71077754D01*
X189543902Y-71032375D01*
X189499014Y-70884402D01*
X189493718Y-70874494D01*
X189426122Y-70748029D01*
X189328024Y-70628498D01*
X189298071Y-70603916D01*
X187583578Y-68889423D01*
X187615099Y-68857901D01*
X187722896Y-68696572D01*
X187797147Y-68517314D01*
X187835000Y-68327014D01*
X187835000Y-68132986D01*
X187797147Y-67942686D01*
X187722896Y-67763428D01*
X187643435Y-67644507D01*
X187755047Y-67530441D01*
X187880063Y-67338864D01*
X187963964Y-67105810D01*
X188856036Y-67105810D01*
X188939937Y-67338864D01*
X189064953Y-67530441D01*
X189224941Y-67693947D01*
X189413754Y-67823099D01*
X189624135Y-67912934D01*
X189848000Y-67960000D01*
X190373000Y-67960000D01*
X190373000Y-66927000D01*
X190627000Y-66927000D01*
X190627000Y-67960000D01*
X191152000Y-67960000D01*
X191375865Y-67912934D01*
X191586246Y-67823099D01*
X191775059Y-67693947D01*
X191935047Y-67530441D01*
X192060063Y-67338864D01*
X192143964Y-67105810D01*
X192018163Y-66927000D01*
X190627000Y-66927000D01*
X190373000Y-66927000D01*
X188981837Y-66927000D01*
X188856036Y-67105810D01*
X187963964Y-67105810D01*
X187838163Y-66927000D01*
X186447000Y-66927000D01*
X186447000Y-66947000D01*
X186263752Y-66947000D01*
X186254482Y-66944188D01*
X186193000Y-66938133D01*
X186193000Y-66927000D01*
X184801837Y-66927000D01*
X184797790Y-66932752D01*
X184680000Y-66931928D01*
X184555518Y-66944188D01*
X184435820Y-66980498D01*
X184325506Y-67039463D01*
X184254671Y-67097595D01*
X184251620Y-66984110D01*
X184092870Y-66825360D01*
X183268620Y-66825360D01*
X183268620Y-66845360D01*
X183014620Y-66845360D01*
X183014620Y-66825360D01*
X182994620Y-66825360D01*
X182994620Y-66571360D01*
X183014620Y-66571360D01*
X183014620Y-65822110D01*
X183268620Y-65822110D01*
X183268620Y-66571360D01*
X184092870Y-66571360D01*
X184170040Y-66494190D01*
X184676036Y-66494190D01*
X184801837Y-66673000D01*
X186193000Y-66673000D01*
X186193000Y-65640000D01*
X186447000Y-65640000D01*
X186447000Y-66673000D01*
X187838163Y-66673000D01*
X187963964Y-66494190D01*
X188856036Y-66494190D01*
X188981837Y-66673000D01*
X190373000Y-66673000D01*
X190373000Y-65640000D01*
X190627000Y-65640000D01*
X190627000Y-66673000D01*
X192018163Y-66673000D01*
X192143964Y-66494190D01*
X192060063Y-66261136D01*
X191935047Y-66069559D01*
X191775059Y-65906053D01*
X191586246Y-65776901D01*
X191375865Y-65687066D01*
X191152000Y-65640000D01*
X190627000Y-65640000D01*
X190373000Y-65640000D01*
X189848000Y-65640000D01*
X189624135Y-65687066D01*
X189413754Y-65776901D01*
X189224941Y-65906053D01*
X189064953Y-66069559D01*
X188939937Y-66261136D01*
X188856036Y-66494190D01*
X187963964Y-66494190D01*
X187880063Y-66261136D01*
X187755047Y-66069559D01*
X187595059Y-65906053D01*
X187406246Y-65776901D01*
X187195865Y-65687066D01*
X186972000Y-65640000D01*
X186447000Y-65640000D01*
X186193000Y-65640000D01*
X185668000Y-65640000D01*
X185444135Y-65687066D01*
X185233754Y-65776901D01*
X185044941Y-65906053D01*
X184884953Y-66069559D01*
X184759937Y-66261136D01*
X184676036Y-66494190D01*
X184170040Y-66494190D01*
X184251620Y-66412610D01*
X184254692Y-66298360D01*
X184242432Y-66173878D01*
X184206122Y-66054180D01*
X184147157Y-65943866D01*
X184067805Y-65847175D01*
X183971114Y-65767823D01*
X183860800Y-65708858D01*
X183741102Y-65672548D01*
X183616620Y-65660288D01*
X183427370Y-65663360D01*
X183268620Y-65822110D01*
X183014620Y-65822110D01*
X182855870Y-65663360D01*
X182666620Y-65660288D01*
X182542138Y-65672548D01*
X182422440Y-65708858D01*
X182360575Y-65741926D01*
X183730253Y-64372250D01*
X183950400Y-64416040D01*
X184242920Y-64416040D01*
X184529818Y-64358972D01*
X184800071Y-64247030D01*
X185043292Y-64084515D01*
X185250135Y-63877672D01*
X185367760Y-63701634D01*
X185539072Y-63931309D01*
X185755305Y-64126218D01*
X186005408Y-64275197D01*
X186279769Y-64372521D01*
X186509660Y-64251854D01*
X186509660Y-63058040D01*
X186763660Y-63058040D01*
X186763660Y-64251854D01*
X186993551Y-64372521D01*
X187267912Y-64275197D01*
X187518015Y-64126218D01*
X187734248Y-63931309D01*
X187908301Y-63697960D01*
X188033485Y-63435139D01*
X188078136Y-63287930D01*
X187956815Y-63058040D01*
X186763660Y-63058040D01*
X186509660Y-63058040D01*
X186489660Y-63058040D01*
X186489660Y-62804040D01*
X186509660Y-62804040D01*
X186509660Y-62784040D01*
X186763660Y-62784040D01*
X186763660Y-62804040D01*
X187956815Y-62804040D01*
X188078136Y-62574150D01*
X188033485Y-62426941D01*
X187908301Y-62164120D01*
X187734248Y-61930771D01*
X187518015Y-61735862D01*
X187401126Y-61666235D01*
X187583292Y-61544515D01*
X187790135Y-61337672D01*
X187952650Y-61094451D01*
X188064592Y-60824198D01*
X188121660Y-60537300D01*
X188121660Y-60244780D01*
X188064592Y-59957882D01*
X187952650Y-59687629D01*
X187790135Y-59444408D01*
X187583292Y-59237565D01*
X187408900Y-59121040D01*
X187583292Y-59004515D01*
X187790135Y-58797672D01*
X187952650Y-58554451D01*
X188064592Y-58284198D01*
X188121660Y-57997300D01*
X188121660Y-57704780D01*
X188064592Y-57417882D01*
X187952650Y-57147629D01*
X187790135Y-56904408D01*
X187583292Y-56697565D01*
X187340071Y-56535050D01*
X187069818Y-56423108D01*
X186782920Y-56366040D01*
X186490400Y-56366040D01*
X186203502Y-56423108D01*
X185933249Y-56535050D01*
X185690028Y-56697565D01*
X185558173Y-56829420D01*
X185536162Y-56756860D01*
X185477197Y-56646546D01*
X185397845Y-56549855D01*
X185301154Y-56470503D01*
X185190840Y-56411538D01*
X185071142Y-56375228D01*
X184946660Y-56362968D01*
X183246660Y-56362968D01*
X183122178Y-56375228D01*
X183002480Y-56411538D01*
X182892166Y-56470503D01*
X182795475Y-56549855D01*
X182716123Y-56646546D01*
X182657158Y-56756860D01*
X182620848Y-56876558D01*
X182608588Y-57001040D01*
X182608588Y-58016520D01*
X177240308Y-63384801D01*
X177211310Y-63408599D01*
X177187512Y-63437597D01*
X177187511Y-63437598D01*
X177116336Y-63524324D01*
X177045764Y-63656354D01*
X177015490Y-63756158D01*
X177007834Y-63781399D01*
X177002308Y-63799615D01*
X176987634Y-63948600D01*
X176991311Y-63985932D01*
X176991310Y-65850568D01*
X176928325Y-65533919D01*
X176797537Y-65218169D01*
X176607663Y-64934002D01*
X176365998Y-64692337D01*
X176081831Y-64502463D01*
X175766081Y-64371675D01*
X175430883Y-64305000D01*
X175089117Y-64305000D01*
X174753919Y-64371675D01*
X174438169Y-64502463D01*
X174154002Y-64692337D01*
X173912337Y-64934002D01*
X173722463Y-65218169D01*
X173696852Y-65280000D01*
X168035465Y-65280000D01*
X167998140Y-65276324D01*
X167960815Y-65280000D01*
X167960807Y-65280000D01*
X167849154Y-65290997D01*
X167705893Y-65334454D01*
X167573864Y-65405026D01*
X167458139Y-65499999D01*
X167434341Y-65528997D01*
X162261250Y-70702089D01*
X162261250Y-61843583D01*
X162264927Y-61806250D01*
X162250253Y-61657264D01*
X162206796Y-61514003D01*
X162136224Y-61381974D01*
X162065049Y-61295247D01*
X162041251Y-61266249D01*
X162012253Y-61242451D01*
X160829738Y-60059936D01*
X172248410Y-60059936D01*
X172488556Y-60447179D01*
X172982457Y-60707802D01*
X173517713Y-60867062D01*
X174073754Y-60918839D01*
X174629212Y-60861142D01*
X175162741Y-60696189D01*
X175628604Y-60447179D01*
X175868750Y-60059936D01*
X174058580Y-58249766D01*
X172248410Y-60059936D01*
X160829738Y-60059936D01*
X158855137Y-58085335D01*
X171209902Y-58085335D01*
X171267599Y-58640793D01*
X171432552Y-59174322D01*
X171681562Y-59640185D01*
X172068805Y-59880331D01*
X173878975Y-58070161D01*
X174238185Y-58070161D01*
X176048355Y-59880331D01*
X176435598Y-59640185D01*
X176696221Y-59146284D01*
X176855481Y-58611028D01*
X176907258Y-58054987D01*
X176849561Y-57499529D01*
X176684608Y-56966000D01*
X176435598Y-56500137D01*
X176048355Y-56259991D01*
X174238185Y-58070161D01*
X173878975Y-58070161D01*
X172068805Y-56259991D01*
X171681562Y-56500137D01*
X171420939Y-56994038D01*
X171261679Y-57529294D01*
X171209902Y-58085335D01*
X158855137Y-58085335D01*
X157852714Y-57082912D01*
X157878325Y-57021081D01*
X157945000Y-56685883D01*
X157945000Y-56344117D01*
X157892541Y-56080386D01*
X172248410Y-56080386D01*
X174058580Y-57890556D01*
X175868750Y-56080386D01*
X175628604Y-55693143D01*
X175134703Y-55432520D01*
X174599447Y-55273260D01*
X174043406Y-55221483D01*
X173487948Y-55279180D01*
X172954419Y-55444133D01*
X172488556Y-55693143D01*
X172248410Y-56080386D01*
X157892541Y-56080386D01*
X157878325Y-56008919D01*
X157747537Y-55693169D01*
X157557663Y-55409002D01*
X157315998Y-55167337D01*
X157031831Y-54977463D01*
X156716081Y-54846675D01*
X156380883Y-54780000D01*
X156039117Y-54780000D01*
X155703919Y-54846675D01*
X155388169Y-54977463D01*
X155104002Y-55167337D01*
X154862337Y-55409002D01*
X154672463Y-55693169D01*
X154541675Y-56008919D01*
X154475000Y-56344117D01*
X154475000Y-56685883D01*
X154541675Y-57021081D01*
X154672463Y-57336831D01*
X154862337Y-57620998D01*
X155104002Y-57862663D01*
X155388169Y-58052537D01*
X155703919Y-58183325D01*
X156039117Y-58250000D01*
X156380883Y-58250000D01*
X156716081Y-58183325D01*
X156777912Y-58157714D01*
X158730198Y-60110000D01*
X158603740Y-60110000D01*
X158316842Y-60167068D01*
X158046589Y-60279010D01*
X157803368Y-60441525D01*
X157596525Y-60648368D01*
X157434010Y-60891589D01*
X157322068Y-61161842D01*
X157265000Y-61448740D01*
X157265000Y-61741260D01*
X157322068Y-62028158D01*
X157434010Y-62298411D01*
X157596525Y-62541632D01*
X157803368Y-62748475D01*
X158046589Y-62910990D01*
X158316842Y-63022932D01*
X158603740Y-63080000D01*
X158896260Y-63080000D01*
X159183158Y-63022932D01*
X159453411Y-62910990D01*
X159696632Y-62748475D01*
X159903475Y-62541632D01*
X160065990Y-62298411D01*
X160177932Y-62028158D01*
X160235000Y-61741260D01*
X160235000Y-61614802D01*
X160741251Y-62121053D01*
X160741250Y-79021448D01*
X157852714Y-76132912D01*
X157878325Y-76071081D01*
X157945000Y-75735883D01*
X157945000Y-75394117D01*
X157878325Y-75058919D01*
X157747537Y-74743169D01*
X157557663Y-74459002D01*
X157315998Y-74217337D01*
X157031831Y-74027463D01*
X156716081Y-73896675D01*
X156380883Y-73830000D01*
X156039117Y-73830000D01*
X155703919Y-73896675D01*
X155388169Y-74027463D01*
X155104002Y-74217337D01*
X154862337Y-74459002D01*
X154672463Y-74743169D01*
X154541675Y-75058919D01*
X154475000Y-75394117D01*
X154475000Y-75735883D01*
X154541675Y-76071081D01*
X154672463Y-76386831D01*
X154862337Y-76670998D01*
X155104002Y-76912663D01*
X155388169Y-77102537D01*
X155703919Y-77233325D01*
X156039117Y-77300000D01*
X156380883Y-77300000D01*
X156716081Y-77233325D01*
X156777912Y-77207714D01*
X158730198Y-79160000D01*
X158603740Y-79160000D01*
X158316842Y-79217068D01*
X158046589Y-79329010D01*
X157803368Y-79491525D01*
X157596525Y-79698368D01*
X157434010Y-79941589D01*
X157322068Y-80211842D01*
X157265000Y-80498740D01*
X157265000Y-80791260D01*
X157322068Y-81078158D01*
X157434010Y-81348411D01*
X157596525Y-81591632D01*
X157803368Y-81798475D01*
X158046589Y-81960990D01*
X158316842Y-82072932D01*
X158603740Y-82130000D01*
X158896260Y-82130000D01*
X159183158Y-82072932D01*
X159453411Y-81960990D01*
X159696632Y-81798475D01*
X159903475Y-81591632D01*
X160065990Y-81348411D01*
X160177932Y-81078158D01*
X160235000Y-80791260D01*
X160235000Y-80664802D01*
X160291241Y-80721043D01*
X160291240Y-85453709D01*
X158337034Y-83499503D01*
X158313231Y-83470499D01*
X158197506Y-83375526D01*
X158065477Y-83304954D01*
X157922216Y-83261497D01*
X157810563Y-83250500D01*
X157810552Y-83250500D01*
X157773230Y-83246824D01*
X157735908Y-83250500D01*
X154077832Y-83250500D01*
X154438601Y-83178739D01*
X154918141Y-82980107D01*
X155349715Y-82691738D01*
X155716738Y-82324715D01*
X156005107Y-81893141D01*
X156203739Y-81413601D01*
X156305000Y-80904525D01*
X156305000Y-80385475D01*
X156203739Y-79876399D01*
X156005107Y-79396859D01*
X155716738Y-78965285D01*
X155349715Y-78598262D01*
X154918141Y-78309893D01*
X154438601Y-78111261D01*
X153929525Y-78010000D01*
X153410475Y-78010000D01*
X152901399Y-78111261D01*
X152421859Y-78309893D01*
X151990285Y-78598262D01*
X151623262Y-78965285D01*
X151334893Y-79396859D01*
X151136261Y-79876399D01*
X151035000Y-80385475D01*
X151035000Y-80904525D01*
X151136261Y-81413601D01*
X151334893Y-81893141D01*
X151623262Y-82324715D01*
X151990285Y-82691738D01*
X152421859Y-82980107D01*
X152901399Y-83178739D01*
X153262168Y-83250500D01*
X149694742Y-83250500D01*
X148574242Y-82130000D01*
X148736260Y-82130000D01*
X149023158Y-82072932D01*
X149293411Y-81960990D01*
X149536632Y-81798475D01*
X149743475Y-81591632D01*
X149905990Y-81348411D01*
X150017932Y-81078158D01*
X150075000Y-80791260D01*
X150075000Y-80498740D01*
X150017932Y-80211842D01*
X149905990Y-79941589D01*
X149839650Y-79842304D01*
X149918639Y-79847409D01*
X150257439Y-79802489D01*
X150580966Y-79692336D01*
X150779274Y-79586338D01*
X150887107Y-79311712D01*
X149860000Y-78284605D01*
X149845858Y-78298748D01*
X149666253Y-78119143D01*
X149680395Y-78105000D01*
X150039605Y-78105000D01*
X151066712Y-79132107D01*
X151341338Y-79024274D01*
X151492216Y-78717616D01*
X151580369Y-78387415D01*
X151602409Y-78046361D01*
X151557489Y-77707561D01*
X151447336Y-77384034D01*
X151341338Y-77185726D01*
X151066712Y-77077893D01*
X150039605Y-78105000D01*
X149680395Y-78105000D01*
X148653288Y-77077893D01*
X148378662Y-77185726D01*
X148227784Y-77492384D01*
X148139631Y-77822585D01*
X148117591Y-78163639D01*
X148162511Y-78502439D01*
X148272664Y-78825966D01*
X148378662Y-79024274D01*
X148653286Y-79132106D01*
X148625392Y-79160000D01*
X148443740Y-79160000D01*
X148156842Y-79217068D01*
X147886589Y-79329010D01*
X147643368Y-79491525D01*
X147436525Y-79698368D01*
X147274010Y-79941589D01*
X147162068Y-80211842D01*
X147105000Y-80498740D01*
X147105000Y-80660758D01*
X143342530Y-76898288D01*
X148832893Y-76898288D01*
X149860000Y-77925395D01*
X150887107Y-76898288D01*
X150779274Y-76623662D01*
X150472616Y-76472784D01*
X150142415Y-76384631D01*
X149801361Y-76362591D01*
X149462561Y-76407511D01*
X149139034Y-76517664D01*
X148940726Y-76623662D01*
X148832893Y-76898288D01*
X143342530Y-76898288D01*
X137818400Y-71374159D01*
X137818400Y-61448740D01*
X138215000Y-61448740D01*
X138215000Y-61741260D01*
X138272068Y-62028158D01*
X138384010Y-62298411D01*
X138546525Y-62541632D01*
X138753368Y-62748475D01*
X138996589Y-62910990D01*
X139266842Y-63022932D01*
X139553740Y-63080000D01*
X139846260Y-63080000D01*
X140133158Y-63022932D01*
X140403411Y-62910990D01*
X140646632Y-62748475D01*
X140853475Y-62541632D01*
X141015990Y-62298411D01*
X141127932Y-62028158D01*
X141185000Y-61741260D01*
X141185000Y-61448740D01*
X147105000Y-61448740D01*
X147105000Y-61741260D01*
X147162068Y-62028158D01*
X147274010Y-62298411D01*
X147436525Y-62541632D01*
X147643368Y-62748475D01*
X147886589Y-62910990D01*
X148156842Y-63022932D01*
X148443740Y-63080000D01*
X148736260Y-63080000D01*
X149023158Y-63022932D01*
X149293411Y-62910990D01*
X149536632Y-62748475D01*
X149743475Y-62541632D01*
X149905990Y-62298411D01*
X150017932Y-62028158D01*
X150075000Y-61741260D01*
X150075000Y-61448740D01*
X150052471Y-61335475D01*
X151035000Y-61335475D01*
X151035000Y-61854525D01*
X151136261Y-62363601D01*
X151334893Y-62843141D01*
X151623262Y-63274715D01*
X151990285Y-63641738D01*
X152421859Y-63930107D01*
X152901399Y-64128739D01*
X153410475Y-64230000D01*
X153929525Y-64230000D01*
X154438601Y-64128739D01*
X154918141Y-63930107D01*
X155349715Y-63641738D01*
X155716738Y-63274715D01*
X156005107Y-62843141D01*
X156203739Y-62363601D01*
X156305000Y-61854525D01*
X156305000Y-61335475D01*
X156203739Y-60826399D01*
X156005107Y-60346859D01*
X155716738Y-59915285D01*
X155349715Y-59548262D01*
X154918141Y-59259893D01*
X154438601Y-59061261D01*
X153929525Y-58960000D01*
X153410475Y-58960000D01*
X152901399Y-59061261D01*
X152421859Y-59259893D01*
X151990285Y-59548262D01*
X151623262Y-59915285D01*
X151334893Y-60346859D01*
X151136261Y-60826399D01*
X151035000Y-61335475D01*
X150052471Y-61335475D01*
X150017932Y-61161842D01*
X149905990Y-60891589D01*
X149839650Y-60792304D01*
X149918639Y-60797409D01*
X150257439Y-60752489D01*
X150580966Y-60642336D01*
X150779274Y-60536338D01*
X150887107Y-60261712D01*
X149860000Y-59234605D01*
X149845858Y-59248748D01*
X149666253Y-59069143D01*
X149680395Y-59055000D01*
X150039605Y-59055000D01*
X151066712Y-60082107D01*
X151341338Y-59974274D01*
X151492216Y-59667616D01*
X151580369Y-59337415D01*
X151602409Y-58996361D01*
X151557489Y-58657561D01*
X151447336Y-58334034D01*
X151341338Y-58135726D01*
X151066712Y-58027893D01*
X150039605Y-59055000D01*
X149680395Y-59055000D01*
X148653288Y-58027893D01*
X148378662Y-58135726D01*
X148227784Y-58442384D01*
X148139631Y-58772585D01*
X148117591Y-59113639D01*
X148162511Y-59452439D01*
X148272664Y-59775966D01*
X148378662Y-59974274D01*
X148653286Y-60082106D01*
X148625392Y-60110000D01*
X148443740Y-60110000D01*
X148156842Y-60167068D01*
X147886589Y-60279010D01*
X147643368Y-60441525D01*
X147436525Y-60648368D01*
X147274010Y-60891589D01*
X147162068Y-61161842D01*
X147105000Y-61448740D01*
X141185000Y-61448740D01*
X141127932Y-61161842D01*
X141015990Y-60891589D01*
X140853475Y-60648368D01*
X140646632Y-60441525D01*
X140403411Y-60279010D01*
X140133158Y-60167068D01*
X139846260Y-60110000D01*
X139553740Y-60110000D01*
X139266842Y-60167068D01*
X138996589Y-60279010D01*
X138753368Y-60441525D01*
X138546525Y-60648368D01*
X138384010Y-60891589D01*
X138272068Y-61161842D01*
X138215000Y-61448740D01*
X137818400Y-61448740D01*
X137818400Y-58120232D01*
X137981831Y-58052537D01*
X138265998Y-57862663D01*
X138280373Y-57848288D01*
X148832893Y-57848288D01*
X149860000Y-58875395D01*
X150887107Y-57848288D01*
X150779274Y-57573662D01*
X150472616Y-57422784D01*
X150142415Y-57334631D01*
X149801361Y-57312591D01*
X149462561Y-57357511D01*
X149139034Y-57467664D01*
X148940726Y-57573662D01*
X148832893Y-57848288D01*
X138280373Y-57848288D01*
X138507663Y-57620998D01*
X138697537Y-57336831D01*
X138828325Y-57021081D01*
X138895000Y-56685883D01*
X138895000Y-56344117D01*
X138828325Y-56008919D01*
X138697537Y-55693169D01*
X138507663Y-55409002D01*
X138265998Y-55167337D01*
X137981831Y-54977463D01*
X137666081Y-54846675D01*
X137330883Y-54780000D01*
X136989117Y-54780000D01*
X136653919Y-54846675D01*
X136338169Y-54977463D01*
X136054002Y-55167337D01*
X135812337Y-55409002D01*
X135622463Y-55693169D01*
X135491675Y-56008919D01*
X135425000Y-56344117D01*
X135425000Y-56685883D01*
X135491675Y-57021081D01*
X135622463Y-57336831D01*
X135812337Y-57620998D01*
X136054002Y-57862663D01*
X136298401Y-58025965D01*
X136298401Y-59547384D01*
X135868141Y-59259893D01*
X135388601Y-59061261D01*
X134879525Y-58960000D01*
X134360475Y-58960000D01*
X133851399Y-59061261D01*
X133371859Y-59259893D01*
X132940285Y-59548262D01*
X132573262Y-59915285D01*
X132284893Y-60346859D01*
X132086261Y-60826399D01*
X131985000Y-61335475D01*
X131985000Y-61854525D01*
X132086261Y-62363601D01*
X132284893Y-62843141D01*
X132573262Y-63274715D01*
X132940285Y-63641738D01*
X133371859Y-63930107D01*
X133851399Y-64128739D01*
X134360475Y-64230000D01*
X134879525Y-64230000D01*
X135388601Y-64128739D01*
X135868141Y-63930107D01*
X136298401Y-63642616D01*
X136298400Y-71651638D01*
X136294724Y-71688960D01*
X136298400Y-71726282D01*
X136298400Y-71726292D01*
X136309397Y-71837945D01*
X136342838Y-71948186D01*
X136352854Y-71981206D01*
X136423426Y-72113236D01*
X136450161Y-72145812D01*
X136518399Y-72228961D01*
X136547403Y-72252764D01*
X139099639Y-74805000D01*
X138723148Y-74805000D01*
X138697537Y-74743169D01*
X138507663Y-74459002D01*
X138265998Y-74217337D01*
X137981831Y-74027463D01*
X137666081Y-73896675D01*
X137330883Y-73830000D01*
X136989117Y-73830000D01*
X136653919Y-73896675D01*
X136338169Y-74027463D01*
X136054002Y-74217337D01*
X135812337Y-74459002D01*
X135622463Y-74743169D01*
X135491675Y-75058919D01*
X135425000Y-75394117D01*
X135425000Y-75735883D01*
X135491675Y-76071081D01*
X135622463Y-76386831D01*
X135812337Y-76670998D01*
X136054002Y-76912663D01*
X136338169Y-77102537D01*
X136653919Y-77233325D01*
X136989117Y-77300000D01*
X137330883Y-77300000D01*
X137666081Y-77233325D01*
X137981831Y-77102537D01*
X138265998Y-76912663D01*
X138507663Y-76670998D01*
X138697537Y-76386831D01*
X138723148Y-76325000D01*
X139983229Y-76325000D01*
X147808746Y-84150519D01*
X131679382Y-84150519D01*
X129658863Y-82130000D01*
X129686260Y-82130000D01*
X129973158Y-82072932D01*
X130243411Y-81960990D01*
X130486632Y-81798475D01*
X130693475Y-81591632D01*
X130855990Y-81348411D01*
X130967932Y-81078158D01*
X131025000Y-80791260D01*
X131025000Y-80498740D01*
X131002471Y-80385475D01*
X131985000Y-80385475D01*
X131985000Y-80904525D01*
X132086261Y-81413601D01*
X132284893Y-81893141D01*
X132573262Y-82324715D01*
X132940285Y-82691738D01*
X133371859Y-82980107D01*
X133851399Y-83178739D01*
X134360475Y-83280000D01*
X134879525Y-83280000D01*
X135388601Y-83178739D01*
X135868141Y-82980107D01*
X136299715Y-82691738D01*
X136666738Y-82324715D01*
X136955107Y-81893141D01*
X137153739Y-81413601D01*
X137255000Y-80904525D01*
X137255000Y-80498740D01*
X138215000Y-80498740D01*
X138215000Y-80791260D01*
X138272068Y-81078158D01*
X138384010Y-81348411D01*
X138546525Y-81591632D01*
X138753368Y-81798475D01*
X138996589Y-81960990D01*
X139266842Y-82072932D01*
X139553740Y-82130000D01*
X139846260Y-82130000D01*
X140133158Y-82072932D01*
X140403411Y-81960990D01*
X140646632Y-81798475D01*
X140853475Y-81591632D01*
X141015990Y-81348411D01*
X141127932Y-81078158D01*
X141185000Y-80791260D01*
X141185000Y-80498740D01*
X141127932Y-80211842D01*
X141015990Y-79941589D01*
X140853475Y-79698368D01*
X140646632Y-79491525D01*
X140403411Y-79329010D01*
X140133158Y-79217068D01*
X139846260Y-79160000D01*
X139553740Y-79160000D01*
X139266842Y-79217068D01*
X138996589Y-79329010D01*
X138753368Y-79491525D01*
X138546525Y-79698368D01*
X138384010Y-79941589D01*
X138272068Y-80211842D01*
X138215000Y-80498740D01*
X137255000Y-80498740D01*
X137255000Y-80385475D01*
X137153739Y-79876399D01*
X136955107Y-79396859D01*
X136666738Y-78965285D01*
X136299715Y-78598262D01*
X135868141Y-78309893D01*
X135388601Y-78111261D01*
X134879525Y-78010000D01*
X134360475Y-78010000D01*
X133851399Y-78111261D01*
X133371859Y-78309893D01*
X132940285Y-78598262D01*
X132573262Y-78965285D01*
X132284893Y-79396859D01*
X132086261Y-79876399D01*
X131985000Y-80385475D01*
X131002471Y-80385475D01*
X130967932Y-80211842D01*
X130855990Y-79941589D01*
X130789650Y-79842304D01*
X130868639Y-79847409D01*
X131207439Y-79802489D01*
X131530966Y-79692336D01*
X131729274Y-79586338D01*
X131837107Y-79311712D01*
X130810000Y-78284605D01*
X130795858Y-78298748D01*
X130616253Y-78119143D01*
X130630395Y-78105000D01*
X130989605Y-78105000D01*
X132016712Y-79132107D01*
X132291338Y-79024274D01*
X132442216Y-78717616D01*
X132530369Y-78387415D01*
X132552409Y-78046361D01*
X132507489Y-77707561D01*
X132397336Y-77384034D01*
X132291338Y-77185726D01*
X132016712Y-77077893D01*
X130989605Y-78105000D01*
X130630395Y-78105000D01*
X129603288Y-77077893D01*
X129328662Y-77185726D01*
X129177784Y-77492384D01*
X129089631Y-77822585D01*
X129067591Y-78163639D01*
X129112511Y-78502439D01*
X129222664Y-78825966D01*
X129328662Y-79024274D01*
X129603286Y-79132106D01*
X129575392Y-79160000D01*
X129393740Y-79160000D01*
X129106842Y-79217068D01*
X128836589Y-79329010D01*
X128593368Y-79491525D01*
X128386525Y-79698368D01*
X128224010Y-79941589D01*
X128112068Y-80211842D01*
X128055000Y-80498740D01*
X128055000Y-80526138D01*
X124427150Y-76898288D01*
X129782893Y-76898288D01*
X130810000Y-77925395D01*
X131837107Y-76898288D01*
X131729274Y-76623662D01*
X131422616Y-76472784D01*
X131092415Y-76384631D01*
X130751361Y-76362591D01*
X130412561Y-76407511D01*
X130089034Y-76517664D01*
X129890726Y-76623662D01*
X129782893Y-76898288D01*
X124427150Y-76898288D01*
X118870000Y-71341139D01*
X118870000Y-61448740D01*
X119165000Y-61448740D01*
X119165000Y-61741260D01*
X119222068Y-62028158D01*
X119334010Y-62298411D01*
X119496525Y-62541632D01*
X119703368Y-62748475D01*
X119946589Y-62910990D01*
X120216842Y-63022932D01*
X120503740Y-63080000D01*
X120796260Y-63080000D01*
X121083158Y-63022932D01*
X121353411Y-62910990D01*
X121596632Y-62748475D01*
X121803475Y-62541632D01*
X121965990Y-62298411D01*
X122077932Y-62028158D01*
X122135000Y-61741260D01*
X122135000Y-61448740D01*
X128055000Y-61448740D01*
X128055000Y-61741260D01*
X128112068Y-62028158D01*
X128224010Y-62298411D01*
X128386525Y-62541632D01*
X128593368Y-62748475D01*
X128836589Y-62910990D01*
X129106842Y-63022932D01*
X129393740Y-63080000D01*
X129686260Y-63080000D01*
X129973158Y-63022932D01*
X130243411Y-62910990D01*
X130486632Y-62748475D01*
X130693475Y-62541632D01*
X130855990Y-62298411D01*
X130967932Y-62028158D01*
X131025000Y-61741260D01*
X131025000Y-61448740D01*
X130967932Y-61161842D01*
X130855990Y-60891589D01*
X130789650Y-60792304D01*
X130868639Y-60797409D01*
X131207439Y-60752489D01*
X131530966Y-60642336D01*
X131729274Y-60536338D01*
X131837107Y-60261712D01*
X130810000Y-59234605D01*
X130795858Y-59248748D01*
X130616253Y-59069143D01*
X130630395Y-59055000D01*
X130989605Y-59055000D01*
X132016712Y-60082107D01*
X132291338Y-59974274D01*
X132442216Y-59667616D01*
X132530369Y-59337415D01*
X132552409Y-58996361D01*
X132507489Y-58657561D01*
X132397336Y-58334034D01*
X132291338Y-58135726D01*
X132016712Y-58027893D01*
X130989605Y-59055000D01*
X130630395Y-59055000D01*
X129603288Y-58027893D01*
X129328662Y-58135726D01*
X129177784Y-58442384D01*
X129089631Y-58772585D01*
X129067591Y-59113639D01*
X129112511Y-59452439D01*
X129222664Y-59775966D01*
X129328662Y-59974274D01*
X129603286Y-60082106D01*
X129575392Y-60110000D01*
X129393740Y-60110000D01*
X129106842Y-60167068D01*
X128836589Y-60279010D01*
X128593368Y-60441525D01*
X128386525Y-60648368D01*
X128224010Y-60891589D01*
X128112068Y-61161842D01*
X128055000Y-61448740D01*
X122135000Y-61448740D01*
X122077932Y-61161842D01*
X121965990Y-60891589D01*
X121803475Y-60648368D01*
X121596632Y-60441525D01*
X121353411Y-60279010D01*
X121083158Y-60167068D01*
X120796260Y-60110000D01*
X120503740Y-60110000D01*
X120216842Y-60167068D01*
X119946589Y-60279010D01*
X119703368Y-60441525D01*
X119496525Y-60648368D01*
X119334010Y-60891589D01*
X119222068Y-61161842D01*
X119165000Y-61448740D01*
X118870000Y-61448740D01*
X118870000Y-60059936D01*
X123254350Y-60059936D01*
X123494496Y-60447179D01*
X123988397Y-60707802D01*
X124523653Y-60867062D01*
X125079694Y-60918839D01*
X125635152Y-60861142D01*
X126168681Y-60696189D01*
X126634544Y-60447179D01*
X126874690Y-60059936D01*
X125064520Y-58249766D01*
X123254350Y-60059936D01*
X118870000Y-60059936D01*
X118870000Y-58085335D01*
X122215842Y-58085335D01*
X122273539Y-58640793D01*
X122438492Y-59174322D01*
X122687502Y-59640185D01*
X123074745Y-59880331D01*
X124884915Y-58070161D01*
X125244125Y-58070161D01*
X127054295Y-59880331D01*
X127441538Y-59640185D01*
X127702161Y-59146284D01*
X127861421Y-58611028D01*
X127913198Y-58054987D01*
X127891728Y-57848288D01*
X129782893Y-57848288D01*
X130810000Y-58875395D01*
X131837107Y-57848288D01*
X131729274Y-57573662D01*
X131422616Y-57422784D01*
X131092415Y-57334631D01*
X130751361Y-57312591D01*
X130412561Y-57357511D01*
X130089034Y-57467664D01*
X129890726Y-57573662D01*
X129782893Y-57848288D01*
X127891728Y-57848288D01*
X127855501Y-57499529D01*
X127690548Y-56966000D01*
X127441538Y-56500137D01*
X127054295Y-56259991D01*
X125244125Y-58070161D01*
X124884915Y-58070161D01*
X123074745Y-56259991D01*
X122687502Y-56500137D01*
X122426879Y-56994038D01*
X122267619Y-57529294D01*
X122215842Y-58085335D01*
X118870000Y-58085335D01*
X118870000Y-58078148D01*
X118931831Y-58052537D01*
X119215998Y-57862663D01*
X119457663Y-57620998D01*
X119647537Y-57336831D01*
X119778325Y-57021081D01*
X119845000Y-56685883D01*
X119845000Y-56344117D01*
X119792541Y-56080386D01*
X123254350Y-56080386D01*
X125064520Y-57890556D01*
X126874690Y-56080386D01*
X126634544Y-55693143D01*
X126140643Y-55432520D01*
X125605387Y-55273260D01*
X125049346Y-55221483D01*
X124493888Y-55279180D01*
X123960359Y-55444133D01*
X123494496Y-55693143D01*
X123254350Y-56080386D01*
X119792541Y-56080386D01*
X119778325Y-56008919D01*
X119647537Y-55693169D01*
X119457663Y-55409002D01*
X119215998Y-55167337D01*
X118931831Y-54977463D01*
X118616081Y-54846675D01*
X118280883Y-54780000D01*
X117939117Y-54780000D01*
X117603919Y-54846675D01*
X117288169Y-54977463D01*
X117004002Y-55167337D01*
X116762337Y-55409002D01*
X116572463Y-55693169D01*
X116441675Y-56008919D01*
X116375000Y-56344117D01*
X116375000Y-56685883D01*
X116441675Y-57021081D01*
X116572463Y-57336831D01*
X116762337Y-57620998D01*
X117004002Y-57862663D01*
X117288169Y-58052537D01*
X117350001Y-58078149D01*
X117350001Y-59648548D01*
X117249715Y-59548262D01*
X116818141Y-59259893D01*
X116338601Y-59061261D01*
X115829525Y-58960000D01*
X115310475Y-58960000D01*
X114801399Y-59061261D01*
X114321859Y-59259893D01*
X113890285Y-59548262D01*
X113523262Y-59915285D01*
X113234893Y-60346859D01*
X113036261Y-60826399D01*
X112935000Y-61335475D01*
X112935000Y-61854525D01*
X113036261Y-62363601D01*
X113234893Y-62843141D01*
X113523262Y-63274715D01*
X113890285Y-63641738D01*
X114321859Y-63930107D01*
X114801399Y-64128739D01*
X115310475Y-64230000D01*
X115829525Y-64230000D01*
X116338601Y-64128739D01*
X116818141Y-63930107D01*
X117249715Y-63641738D01*
X117350001Y-63541452D01*
X117350000Y-71618618D01*
X117346324Y-71655940D01*
X117350000Y-71693262D01*
X117350000Y-71693272D01*
X117360997Y-71804925D01*
X117392871Y-71910001D01*
X117404454Y-71948186D01*
X117475026Y-72080216D01*
X117502125Y-72113236D01*
X117569999Y-72195941D01*
X117599003Y-72219744D01*
X120184259Y-74805000D01*
X119673148Y-74805000D01*
X119647537Y-74743169D01*
X119457663Y-74459002D01*
X119215998Y-74217337D01*
X118931831Y-74027463D01*
X118616081Y-73896675D01*
X118280883Y-73830000D01*
X117939117Y-73830000D01*
X117603919Y-73896675D01*
X117288169Y-74027463D01*
X117004002Y-74217337D01*
X116762337Y-74459002D01*
X116572463Y-74743169D01*
X116441675Y-75058919D01*
X116375000Y-75394117D01*
X116375000Y-75735883D01*
X116441675Y-76071081D01*
X116572463Y-76386831D01*
X116762337Y-76670998D01*
X117004002Y-76912663D01*
X117288169Y-77102537D01*
X117603919Y-77233325D01*
X117939117Y-77300000D01*
X118280883Y-77300000D01*
X118616081Y-77233325D01*
X118931831Y-77102537D01*
X119215998Y-76912663D01*
X119457663Y-76670998D01*
X119647537Y-76386831D01*
X119673148Y-76325000D01*
X121067849Y-76325000D01*
X130614379Y-85871531D01*
X130638178Y-85900530D01*
X130667176Y-85924328D01*
X130753902Y-85995503D01*
X130885455Y-86065820D01*
X130885932Y-86066075D01*
X131029193Y-86109532D01*
X131140846Y-86120529D01*
X131140856Y-86120529D01*
X131178179Y-86124205D01*
X131215502Y-86120529D01*
X156899228Y-86120529D01*
X162745686Y-91966986D01*
X162769480Y-91995979D01*
X162798473Y-92019773D01*
X162798477Y-92019777D01*
X162835303Y-92050000D01*
X106712279Y-92050000D01*
X106315455Y-92011091D01*
X105964794Y-91905220D01*
X105641377Y-91733257D01*
X105357518Y-91501748D01*
X105124035Y-91219514D01*
X104949816Y-90897304D01*
X104841498Y-90547385D01*
X104800000Y-90152557D01*
X104800000Y-85562927D01*
X108892920Y-85562927D01*
X108892920Y-85801473D01*
X108939458Y-86035436D01*
X109030745Y-86255824D01*
X109163274Y-86454168D01*
X109331952Y-86622846D01*
X109530296Y-86755375D01*
X109750684Y-86846662D01*
X109984647Y-86893200D01*
X110223193Y-86893200D01*
X110457156Y-86846662D01*
X110532110Y-86815615D01*
X123254350Y-86815615D01*
X123494496Y-87202858D01*
X123988397Y-87463481D01*
X124523653Y-87622741D01*
X125079694Y-87674518D01*
X125635152Y-87616821D01*
X126168681Y-87451868D01*
X126634544Y-87202858D01*
X126874690Y-86815615D01*
X125064520Y-85005445D01*
X123254350Y-86815615D01*
X110532110Y-86815615D01*
X110677544Y-86755375D01*
X110875888Y-86622846D01*
X111044566Y-86454168D01*
X111177095Y-86255824D01*
X111268382Y-86035436D01*
X111314920Y-85801473D01*
X111314920Y-85562927D01*
X111268382Y-85328964D01*
X111177095Y-85108576D01*
X111044566Y-84910232D01*
X110975348Y-84841014D01*
X122215842Y-84841014D01*
X122273539Y-85396472D01*
X122438492Y-85930001D01*
X122687502Y-86395864D01*
X123074745Y-86636010D01*
X124884915Y-84825840D01*
X125244125Y-84825840D01*
X127054295Y-86636010D01*
X127441538Y-86395864D01*
X127702161Y-85901963D01*
X127861421Y-85366707D01*
X127913198Y-84810666D01*
X127855501Y-84255208D01*
X127690548Y-83721679D01*
X127441538Y-83255816D01*
X127054295Y-83015670D01*
X125244125Y-84825840D01*
X124884915Y-84825840D01*
X123074745Y-83015670D01*
X122687502Y-83255816D01*
X122426879Y-83749717D01*
X122267619Y-84284973D01*
X122215842Y-84841014D01*
X110975348Y-84841014D01*
X110875888Y-84741554D01*
X110677544Y-84609025D01*
X110457156Y-84517738D01*
X110223193Y-84471200D01*
X109984647Y-84471200D01*
X109750684Y-84517738D01*
X109530296Y-84609025D01*
X109331952Y-84741554D01*
X109163274Y-84910232D01*
X109030745Y-85108576D01*
X108939458Y-85328964D01*
X108892920Y-85562927D01*
X104800000Y-85562927D01*
X104800000Y-80498740D01*
X109005000Y-80498740D01*
X109005000Y-80791260D01*
X109062068Y-81078158D01*
X109174010Y-81348411D01*
X109336525Y-81591632D01*
X109543368Y-81798475D01*
X109786589Y-81960990D01*
X110056842Y-82072932D01*
X110343740Y-82130000D01*
X110636260Y-82130000D01*
X110923158Y-82072932D01*
X111193411Y-81960990D01*
X111436632Y-81798475D01*
X111643475Y-81591632D01*
X111805990Y-81348411D01*
X111917932Y-81078158D01*
X111975000Y-80791260D01*
X111975000Y-80498740D01*
X111952471Y-80385475D01*
X112935000Y-80385475D01*
X112935000Y-80904525D01*
X113036261Y-81413601D01*
X113234893Y-81893141D01*
X113523262Y-82324715D01*
X113890285Y-82691738D01*
X114321859Y-82980107D01*
X114801399Y-83178739D01*
X115310475Y-83280000D01*
X115829525Y-83280000D01*
X116338601Y-83178739D01*
X116818141Y-82980107D01*
X117033714Y-82836065D01*
X123254350Y-82836065D01*
X125064520Y-84646235D01*
X126874690Y-82836065D01*
X126634544Y-82448822D01*
X126140643Y-82188199D01*
X125605387Y-82028939D01*
X125049346Y-81977162D01*
X124493888Y-82034859D01*
X123960359Y-82199812D01*
X123494496Y-82448822D01*
X123254350Y-82836065D01*
X117033714Y-82836065D01*
X117249715Y-82691738D01*
X117616738Y-82324715D01*
X117905107Y-81893141D01*
X118103739Y-81413601D01*
X118205000Y-80904525D01*
X118205000Y-80498740D01*
X119165000Y-80498740D01*
X119165000Y-80791260D01*
X119222068Y-81078158D01*
X119334010Y-81348411D01*
X119496525Y-81591632D01*
X119703368Y-81798475D01*
X119946589Y-81960990D01*
X120216842Y-82072932D01*
X120503740Y-82130000D01*
X120796260Y-82130000D01*
X121083158Y-82072932D01*
X121353411Y-81960990D01*
X121596632Y-81798475D01*
X121803475Y-81591632D01*
X121965990Y-81348411D01*
X122077932Y-81078158D01*
X122135000Y-80791260D01*
X122135000Y-80498740D01*
X122077932Y-80211842D01*
X121965990Y-79941589D01*
X121803475Y-79698368D01*
X121596632Y-79491525D01*
X121353411Y-79329010D01*
X121083158Y-79217068D01*
X120796260Y-79160000D01*
X120503740Y-79160000D01*
X120216842Y-79217068D01*
X119946589Y-79329010D01*
X119703368Y-79491525D01*
X119496525Y-79698368D01*
X119334010Y-79941589D01*
X119222068Y-80211842D01*
X119165000Y-80498740D01*
X118205000Y-80498740D01*
X118205000Y-80385475D01*
X118103739Y-79876399D01*
X117905107Y-79396859D01*
X117616738Y-78965285D01*
X117249715Y-78598262D01*
X116818141Y-78309893D01*
X116338601Y-78111261D01*
X115829525Y-78010000D01*
X115310475Y-78010000D01*
X114801399Y-78111261D01*
X114321859Y-78309893D01*
X113890285Y-78598262D01*
X113523262Y-78965285D01*
X113234893Y-79396859D01*
X113036261Y-79876399D01*
X112935000Y-80385475D01*
X111952471Y-80385475D01*
X111917932Y-80211842D01*
X111805990Y-79941589D01*
X111739650Y-79842304D01*
X111818639Y-79847409D01*
X112157439Y-79802489D01*
X112480966Y-79692336D01*
X112679274Y-79586338D01*
X112787107Y-79311712D01*
X111760000Y-78284605D01*
X111745858Y-78298748D01*
X111566253Y-78119143D01*
X111580395Y-78105000D01*
X111939605Y-78105000D01*
X112966712Y-79132107D01*
X113241338Y-79024274D01*
X113392216Y-78717616D01*
X113480369Y-78387415D01*
X113502409Y-78046361D01*
X113457489Y-77707561D01*
X113347336Y-77384034D01*
X113241338Y-77185726D01*
X112966712Y-77077893D01*
X111939605Y-78105000D01*
X111580395Y-78105000D01*
X110553288Y-77077893D01*
X110278662Y-77185726D01*
X110127784Y-77492384D01*
X110039631Y-77822585D01*
X110017591Y-78163639D01*
X110062511Y-78502439D01*
X110172664Y-78825966D01*
X110278662Y-79024274D01*
X110553286Y-79132106D01*
X110525392Y-79160000D01*
X110343740Y-79160000D01*
X110056842Y-79217068D01*
X109786589Y-79329010D01*
X109543368Y-79491525D01*
X109336525Y-79698368D01*
X109174010Y-79941589D01*
X109062068Y-80211842D01*
X109005000Y-80498740D01*
X104800000Y-80498740D01*
X104800000Y-76898288D01*
X110732893Y-76898288D01*
X111760000Y-77925395D01*
X112787107Y-76898288D01*
X112679274Y-76623662D01*
X112372616Y-76472784D01*
X112042415Y-76384631D01*
X111701361Y-76362591D01*
X111362561Y-76407511D01*
X111039034Y-76517664D01*
X110840726Y-76623662D01*
X110732893Y-76898288D01*
X104800000Y-76898288D01*
X104800000Y-61448740D01*
X109005000Y-61448740D01*
X109005000Y-61741260D01*
X109062068Y-62028158D01*
X109174010Y-62298411D01*
X109336525Y-62541632D01*
X109543368Y-62748475D01*
X109786589Y-62910990D01*
X110056842Y-63022932D01*
X110343740Y-63080000D01*
X110636260Y-63080000D01*
X110923158Y-63022932D01*
X111193411Y-62910990D01*
X111436632Y-62748475D01*
X111643475Y-62541632D01*
X111805990Y-62298411D01*
X111917932Y-62028158D01*
X111975000Y-61741260D01*
X111975000Y-61448740D01*
X111917932Y-61161842D01*
X111805990Y-60891589D01*
X111739650Y-60792304D01*
X111818639Y-60797409D01*
X112157439Y-60752489D01*
X112480966Y-60642336D01*
X112679274Y-60536338D01*
X112787107Y-60261712D01*
X111760000Y-59234605D01*
X111745858Y-59248748D01*
X111566253Y-59069143D01*
X111580395Y-59055000D01*
X111939605Y-59055000D01*
X112966712Y-60082107D01*
X113241338Y-59974274D01*
X113392216Y-59667616D01*
X113480369Y-59337415D01*
X113502409Y-58996361D01*
X113457489Y-58657561D01*
X113347336Y-58334034D01*
X113241338Y-58135726D01*
X112966712Y-58027893D01*
X111939605Y-59055000D01*
X111580395Y-59055000D01*
X110553288Y-58027893D01*
X110278662Y-58135726D01*
X110127784Y-58442384D01*
X110039631Y-58772585D01*
X110017591Y-59113639D01*
X110062511Y-59452439D01*
X110172664Y-59775966D01*
X110278662Y-59974274D01*
X110553286Y-60082106D01*
X110525392Y-60110000D01*
X110343740Y-60110000D01*
X110056842Y-60167068D01*
X109786589Y-60279010D01*
X109543368Y-60441525D01*
X109336525Y-60648368D01*
X109174010Y-60891589D01*
X109062068Y-61161842D01*
X109005000Y-61448740D01*
X104800000Y-61448740D01*
X104800000Y-57848288D01*
X110732893Y-57848288D01*
X111760000Y-58875395D01*
X112787107Y-57848288D01*
X112679274Y-57573662D01*
X112372616Y-57422784D01*
X112042415Y-57334631D01*
X111701361Y-57312591D01*
X111362561Y-57357511D01*
X111039034Y-57467664D01*
X110840726Y-57573662D01*
X110732893Y-57848288D01*
X104800000Y-57848288D01*
X104800000Y-56392807D01*
X108892920Y-56392807D01*
X108892920Y-56631353D01*
X108939458Y-56865316D01*
X109030745Y-57085704D01*
X109163274Y-57284048D01*
X109331952Y-57452726D01*
X109530296Y-57585255D01*
X109750684Y-57676542D01*
X109984647Y-57723080D01*
X110223193Y-57723080D01*
X110457156Y-57676542D01*
X110677544Y-57585255D01*
X110875888Y-57452726D01*
X111044566Y-57284048D01*
X111177095Y-57085704D01*
X111268382Y-56865316D01*
X111314920Y-56631353D01*
X111314920Y-56392807D01*
X111268382Y-56158844D01*
X111177095Y-55938456D01*
X111044566Y-55740112D01*
X110875888Y-55571434D01*
X110677544Y-55438905D01*
X110457156Y-55347618D01*
X110223193Y-55301080D01*
X109984647Y-55301080D01*
X109750684Y-55347618D01*
X109530296Y-55438905D01*
X109331952Y-55571434D01*
X109163274Y-55740112D01*
X109030745Y-55938456D01*
X108939458Y-56158844D01*
X108892920Y-56392807D01*
X104800000Y-56392807D01*
X104800000Y-52180727D01*
X188689000Y-52180727D01*
X188689000Y-52419273D01*
X188735538Y-52653236D01*
X188826825Y-52873624D01*
X188959354Y-53071968D01*
X189128032Y-53240646D01*
X189326376Y-53373175D01*
X189546764Y-53464462D01*
X189780727Y-53511000D01*
X190019273Y-53511000D01*
X190253236Y-53464462D01*
X190473624Y-53373175D01*
X190671968Y-53240646D01*
X190840646Y-53071968D01*
X190973175Y-52873624D01*
X191064462Y-52653236D01*
X191111000Y-52419273D01*
X191111000Y-52180727D01*
X191064462Y-51946764D01*
X190973175Y-51726376D01*
X190840646Y-51528032D01*
X190671968Y-51359354D01*
X190473624Y-51226825D01*
X190253236Y-51135538D01*
X190019273Y-51089000D01*
X189780727Y-51089000D01*
X189546764Y-51135538D01*
X189326376Y-51226825D01*
X189128032Y-51359354D01*
X188959354Y-51528032D01*
X188826825Y-51726376D01*
X188735538Y-51946764D01*
X188689000Y-52180727D01*
X104800000Y-52180727D01*
X104800000Y-52102279D01*
X104838909Y-51705455D01*
X104944780Y-51354792D01*
X105116744Y-51031375D01*
X105348254Y-50747516D01*
X105630486Y-50514035D01*
X105952695Y-50339817D01*
X106302614Y-50231498D01*
X106697443Y-50190000D01*
X190467721Y-50190000D01*
X190864545Y-50228909D01*
%TA.AperFunction,Conductor*%
D23*
G36*
X190864545Y-50228909D02*
G01*
X191215208Y-50334780D01*
X191538625Y-50506744D01*
X191822484Y-50738254D01*
X192055965Y-51020486D01*
X192230183Y-51342695D01*
X192338502Y-51692614D01*
X192380000Y-52087443D01*
X192380001Y-90137711D01*
X192341091Y-90534545D01*
X192235220Y-90885206D01*
X192063257Y-91208623D01*
X191831748Y-91492482D01*
X191549514Y-91725965D01*
X191227304Y-91900184D01*
X190877385Y-92008502D01*
X190482557Y-92050000D01*
X177716569Y-92050000D01*
X177753397Y-92019776D01*
X177753398Y-92019775D01*
X177782396Y-91995977D01*
X177806194Y-91966979D01*
X179299444Y-90473730D01*
X179328441Y-90449933D01*
X179423414Y-90334208D01*
X179493986Y-90202179D01*
X179536355Y-90062506D01*
X179538440Y-90061873D01*
X179589265Y-90077291D01*
X179725940Y-90090752D01*
X179850940Y-90090752D01*
X179987615Y-90077291D01*
X180038440Y-90061873D01*
X180089265Y-90077291D01*
X180225940Y-90090752D01*
X180350940Y-90090752D01*
X180487615Y-90077291D01*
X180538440Y-90061873D01*
X180589265Y-90077291D01*
X180725940Y-90090752D01*
X180850940Y-90090752D01*
X180987615Y-90077291D01*
X181038440Y-90061873D01*
X181089265Y-90077291D01*
X181225940Y-90090752D01*
X181350940Y-90090752D01*
X181487615Y-90077291D01*
X181538440Y-90061873D01*
X181589265Y-90077291D01*
X181725940Y-90090752D01*
X181850940Y-90090752D01*
X181987615Y-90077291D01*
X182119037Y-90037424D01*
X182240157Y-89972684D01*
X182346319Y-89885559D01*
X182433444Y-89779397D01*
X182452867Y-89743060D01*
X184953604Y-89743060D01*
X185041914Y-89850666D01*
X185168912Y-89954891D01*
X185313804Y-90032338D01*
X185471020Y-90080029D01*
X185634520Y-90096132D01*
X186034520Y-90096132D01*
X186198020Y-90080029D01*
X186355236Y-90032338D01*
X186500128Y-89954891D01*
X186602110Y-89871197D01*
X186633335Y-89909245D01*
X186730026Y-89988597D01*
X186840340Y-90047562D01*
X186960038Y-90083872D01*
X187084520Y-90096132D01*
X187198770Y-90093060D01*
X187357520Y-89934310D01*
X187357520Y-89110060D01*
X187611520Y-89110060D01*
X187611520Y-89934310D01*
X187770270Y-90093060D01*
X187884520Y-90096132D01*
X188009002Y-90083872D01*
X188128700Y-90047562D01*
X188239014Y-89988597D01*
X188335705Y-89909245D01*
X188415057Y-89812554D01*
X188474022Y-89702240D01*
X188510332Y-89582542D01*
X188522592Y-89458060D01*
X188519520Y-89268810D01*
X188360770Y-89110060D01*
X187611520Y-89110060D01*
X187357520Y-89110060D01*
X187337520Y-89110060D01*
X187337520Y-88856060D01*
X187357520Y-88856060D01*
X187357520Y-88031810D01*
X187307520Y-87981810D01*
X187307520Y-87558120D01*
X187561520Y-87558120D01*
X187561520Y-88382370D01*
X187611520Y-88432370D01*
X187611520Y-88856060D01*
X188360770Y-88856060D01*
X188519520Y-88697310D01*
X188522592Y-88508060D01*
X188510332Y-88383578D01*
X188474022Y-88263880D01*
X188443667Y-88207090D01*
X188474022Y-88150300D01*
X188510332Y-88030602D01*
X188522592Y-87906120D01*
X188519520Y-87716870D01*
X188360770Y-87558120D01*
X187561520Y-87558120D01*
X187307520Y-87558120D01*
X187287520Y-87558120D01*
X187287520Y-87304120D01*
X187307520Y-87304120D01*
X187307520Y-87284120D01*
X187561520Y-87284120D01*
X187561520Y-87304120D01*
X188360770Y-87304120D01*
X188519520Y-87145370D01*
X188522592Y-86956120D01*
X188510332Y-86831638D01*
X188474022Y-86711940D01*
X188415057Y-86601626D01*
X188400524Y-86583918D01*
X188458798Y-86474896D01*
X188506489Y-86317680D01*
X188522592Y-86154180D01*
X188522592Y-85871449D01*
X189009484Y-85384558D01*
X189038481Y-85360761D01*
X189090903Y-85296885D01*
X189133454Y-85245037D01*
X189204026Y-85113007D01*
X189216755Y-85071043D01*
X189247483Y-84969746D01*
X189258480Y-84858093D01*
X189258480Y-84858083D01*
X189262156Y-84820760D01*
X189258480Y-84783438D01*
X189258480Y-81132913D01*
X189262157Y-81095580D01*
X189254971Y-81022615D01*
X189247483Y-80946594D01*
X189204026Y-80803333D01*
X189133454Y-80671304D01*
X189038481Y-80555579D01*
X189009483Y-80531781D01*
X188482592Y-80004890D01*
X188482592Y-79747870D01*
X188466128Y-79580712D01*
X188417370Y-79419978D01*
X188338191Y-79271845D01*
X188320420Y-79250190D01*
X188375057Y-79183614D01*
X188434022Y-79073300D01*
X188470332Y-78953602D01*
X188482592Y-78829120D01*
X188479520Y-78677370D01*
X188320770Y-78518620D01*
X187496520Y-78518620D01*
X187496520Y-78538620D01*
X187242520Y-78538620D01*
X187242520Y-78518620D01*
X187222520Y-78518620D01*
X187222520Y-78264620D01*
X187242520Y-78264620D01*
X187242520Y-78244620D01*
X187496520Y-78244620D01*
X187496520Y-78264620D01*
X188320770Y-78264620D01*
X188479520Y-78105870D01*
X188482592Y-77954120D01*
X188470332Y-77829638D01*
X188434022Y-77709940D01*
X188375057Y-77599626D01*
X188295705Y-77502935D01*
X188199014Y-77423583D01*
X188088700Y-77364618D01*
X187969002Y-77328308D01*
X187844520Y-77316048D01*
X187814624Y-77316533D01*
X189023792Y-76107366D01*
X189064953Y-76170441D01*
X189224941Y-76333947D01*
X189413754Y-76463099D01*
X189624135Y-76552934D01*
X189848000Y-76600000D01*
X190373000Y-76600000D01*
X190373000Y-75567000D01*
X190627000Y-75567000D01*
X190627000Y-76600000D01*
X191152000Y-76600000D01*
X191375865Y-76552934D01*
X191586246Y-76463099D01*
X191775059Y-76333947D01*
X191935047Y-76170441D01*
X192060063Y-75978864D01*
X192143964Y-75745810D01*
X192018163Y-75567000D01*
X190627000Y-75567000D01*
X190373000Y-75567000D01*
X190353000Y-75567000D01*
X190353000Y-75313000D01*
X190373000Y-75313000D01*
X190373000Y-74280000D01*
X190627000Y-74280000D01*
X190627000Y-75313000D01*
X192018163Y-75313000D01*
X192143964Y-75134190D01*
X192060063Y-74901136D01*
X191935047Y-74709559D01*
X191775059Y-74546053D01*
X191586246Y-74416901D01*
X191375865Y-74327066D01*
X191152000Y-74280000D01*
X190627000Y-74280000D01*
X190373000Y-74280000D01*
X189848000Y-74280000D01*
X189624135Y-74327066D01*
X189555260Y-74356476D01*
X189555260Y-73482652D01*
X189559057Y-73444099D01*
X189555260Y-73405546D01*
X189555260Y-71224818D01*
X189559057Y-71186262D01*
X189555260Y-71147702D01*
X189555260Y-71147701D01*
X189548371Y-71077754D01*
X189543902Y-71032375D01*
X189499014Y-70884402D01*
X189493718Y-70874494D01*
X189426122Y-70748029D01*
X189328024Y-70628498D01*
X189298071Y-70603916D01*
X187583578Y-68889423D01*
X187615099Y-68857901D01*
X187722896Y-68696572D01*
X187797147Y-68517314D01*
X187835000Y-68327014D01*
X187835000Y-68132986D01*
X187797147Y-67942686D01*
X187722896Y-67763428D01*
X187643435Y-67644507D01*
X187755047Y-67530441D01*
X187880063Y-67338864D01*
X187963964Y-67105810D01*
X188856036Y-67105810D01*
X188939937Y-67338864D01*
X189064953Y-67530441D01*
X189224941Y-67693947D01*
X189413754Y-67823099D01*
X189624135Y-67912934D01*
X189848000Y-67960000D01*
X190373000Y-67960000D01*
X190373000Y-66927000D01*
X190627000Y-66927000D01*
X190627000Y-67960000D01*
X191152000Y-67960000D01*
X191375865Y-67912934D01*
X191586246Y-67823099D01*
X191775059Y-67693947D01*
X191935047Y-67530441D01*
X192060063Y-67338864D01*
X192143964Y-67105810D01*
X192018163Y-66927000D01*
X190627000Y-66927000D01*
X190373000Y-66927000D01*
X188981837Y-66927000D01*
X188856036Y-67105810D01*
X187963964Y-67105810D01*
X187838163Y-66927000D01*
X186447000Y-66927000D01*
X186447000Y-66947000D01*
X186263752Y-66947000D01*
X186254482Y-66944188D01*
X186193000Y-66938133D01*
X186193000Y-66927000D01*
X184801837Y-66927000D01*
X184797790Y-66932752D01*
X184680000Y-66931928D01*
X184555518Y-66944188D01*
X184435820Y-66980498D01*
X184325506Y-67039463D01*
X184254671Y-67097595D01*
X184251620Y-66984110D01*
X184092870Y-66825360D01*
X183268620Y-66825360D01*
X183268620Y-66845360D01*
X183014620Y-66845360D01*
X183014620Y-66825360D01*
X182994620Y-66825360D01*
X182994620Y-66571360D01*
X183014620Y-66571360D01*
X183014620Y-65822110D01*
X183268620Y-65822110D01*
X183268620Y-66571360D01*
X184092870Y-66571360D01*
X184170040Y-66494190D01*
X184676036Y-66494190D01*
X184801837Y-66673000D01*
X186193000Y-66673000D01*
X186193000Y-65640000D01*
X186447000Y-65640000D01*
X186447000Y-66673000D01*
X187838163Y-66673000D01*
X187963964Y-66494190D01*
X188856036Y-66494190D01*
X188981837Y-66673000D01*
X190373000Y-66673000D01*
X190373000Y-65640000D01*
X190627000Y-65640000D01*
X190627000Y-66673000D01*
X192018163Y-66673000D01*
X192143964Y-66494190D01*
X192060063Y-66261136D01*
X191935047Y-66069559D01*
X191775059Y-65906053D01*
X191586246Y-65776901D01*
X191375865Y-65687066D01*
X191152000Y-65640000D01*
X190627000Y-65640000D01*
X190373000Y-65640000D01*
X189848000Y-65640000D01*
X189624135Y-65687066D01*
X189413754Y-65776901D01*
X189224941Y-65906053D01*
X189064953Y-66069559D01*
X188939937Y-66261136D01*
X188856036Y-66494190D01*
X187963964Y-66494190D01*
X187880063Y-66261136D01*
X187755047Y-66069559D01*
X187595059Y-65906053D01*
X187406246Y-65776901D01*
X187195865Y-65687066D01*
X186972000Y-65640000D01*
X186447000Y-65640000D01*
X186193000Y-65640000D01*
X185668000Y-65640000D01*
X185444135Y-65687066D01*
X185233754Y-65776901D01*
X185044941Y-65906053D01*
X184884953Y-66069559D01*
X184759937Y-66261136D01*
X184676036Y-66494190D01*
X184170040Y-66494190D01*
X184251620Y-66412610D01*
X184254692Y-66298360D01*
X184242432Y-66173878D01*
X184206122Y-66054180D01*
X184147157Y-65943866D01*
X184067805Y-65847175D01*
X183971114Y-65767823D01*
X183860800Y-65708858D01*
X183741102Y-65672548D01*
X183616620Y-65660288D01*
X183427370Y-65663360D01*
X183268620Y-65822110D01*
X183014620Y-65822110D01*
X182855870Y-65663360D01*
X182666620Y-65660288D01*
X182542138Y-65672548D01*
X182422440Y-65708858D01*
X182360575Y-65741926D01*
X183730253Y-64372250D01*
X183950400Y-64416040D01*
X184242920Y-64416040D01*
X184529818Y-64358972D01*
X184800071Y-64247030D01*
X185043292Y-64084515D01*
X185250135Y-63877672D01*
X185367760Y-63701634D01*
X185539072Y-63931309D01*
X185755305Y-64126218D01*
X186005408Y-64275197D01*
X186279769Y-64372521D01*
X186509660Y-64251854D01*
X186509660Y-63058040D01*
X186763660Y-63058040D01*
X186763660Y-64251854D01*
X186993551Y-64372521D01*
X187267912Y-64275197D01*
X187518015Y-64126218D01*
X187734248Y-63931309D01*
X187908301Y-63697960D01*
X188033485Y-63435139D01*
X188078136Y-63287930D01*
X187956815Y-63058040D01*
X186763660Y-63058040D01*
X186509660Y-63058040D01*
X186489660Y-63058040D01*
X186489660Y-62804040D01*
X186509660Y-62804040D01*
X186509660Y-62784040D01*
X186763660Y-62784040D01*
X186763660Y-62804040D01*
X187956815Y-62804040D01*
X188078136Y-62574150D01*
X188033485Y-62426941D01*
X187908301Y-62164120D01*
X187734248Y-61930771D01*
X187518015Y-61735862D01*
X187401126Y-61666235D01*
X187583292Y-61544515D01*
X187790135Y-61337672D01*
X187952650Y-61094451D01*
X188064592Y-60824198D01*
X188121660Y-60537300D01*
X188121660Y-60244780D01*
X188064592Y-59957882D01*
X187952650Y-59687629D01*
X187790135Y-59444408D01*
X187583292Y-59237565D01*
X187408900Y-59121040D01*
X187583292Y-59004515D01*
X187790135Y-58797672D01*
X187952650Y-58554451D01*
X188064592Y-58284198D01*
X188121660Y-57997300D01*
X188121660Y-57704780D01*
X188064592Y-57417882D01*
X187952650Y-57147629D01*
X187790135Y-56904408D01*
X187583292Y-56697565D01*
X187340071Y-56535050D01*
X187069818Y-56423108D01*
X186782920Y-56366040D01*
X186490400Y-56366040D01*
X186203502Y-56423108D01*
X185933249Y-56535050D01*
X185690028Y-56697565D01*
X185558173Y-56829420D01*
X185536162Y-56756860D01*
X185477197Y-56646546D01*
X185397845Y-56549855D01*
X185301154Y-56470503D01*
X185190840Y-56411538D01*
X185071142Y-56375228D01*
X184946660Y-56362968D01*
X183246660Y-56362968D01*
X183122178Y-56375228D01*
X183002480Y-56411538D01*
X182892166Y-56470503D01*
X182795475Y-56549855D01*
X182716123Y-56646546D01*
X182657158Y-56756860D01*
X182620848Y-56876558D01*
X182608588Y-57001040D01*
X182608588Y-58016520D01*
X177240308Y-63384801D01*
X177211310Y-63408599D01*
X177187512Y-63437597D01*
X177187511Y-63437598D01*
X177116336Y-63524324D01*
X177045764Y-63656354D01*
X177015490Y-63756158D01*
X177007834Y-63781399D01*
X177002308Y-63799615D01*
X176987634Y-63948600D01*
X176991311Y-63985932D01*
X176991310Y-65850568D01*
X176928325Y-65533919D01*
X176797537Y-65218169D01*
X176607663Y-64934002D01*
X176365998Y-64692337D01*
X176081831Y-64502463D01*
X175766081Y-64371675D01*
X175430883Y-64305000D01*
X175089117Y-64305000D01*
X174753919Y-64371675D01*
X174438169Y-64502463D01*
X174154002Y-64692337D01*
X173912337Y-64934002D01*
X173722463Y-65218169D01*
X173696852Y-65280000D01*
X168035465Y-65280000D01*
X167998140Y-65276324D01*
X167960815Y-65280000D01*
X167960807Y-65280000D01*
X167849154Y-65290997D01*
X167705893Y-65334454D01*
X167573864Y-65405026D01*
X167458139Y-65499999D01*
X167434341Y-65528997D01*
X162261250Y-70702089D01*
X162261250Y-61843583D01*
X162264927Y-61806250D01*
X162250253Y-61657264D01*
X162206796Y-61514003D01*
X162136224Y-61381974D01*
X162065049Y-61295247D01*
X162041251Y-61266249D01*
X162012253Y-61242451D01*
X160829738Y-60059936D01*
X172248410Y-60059936D01*
X172488556Y-60447179D01*
X172982457Y-60707802D01*
X173517713Y-60867062D01*
X174073754Y-60918839D01*
X174629212Y-60861142D01*
X175162741Y-60696189D01*
X175628604Y-60447179D01*
X175868750Y-60059936D01*
X174058580Y-58249766D01*
X172248410Y-60059936D01*
X160829738Y-60059936D01*
X158855137Y-58085335D01*
X171209902Y-58085335D01*
X171267599Y-58640793D01*
X171432552Y-59174322D01*
X171681562Y-59640185D01*
X172068805Y-59880331D01*
X173878975Y-58070161D01*
X174238185Y-58070161D01*
X176048355Y-59880331D01*
X176435598Y-59640185D01*
X176696221Y-59146284D01*
X176855481Y-58611028D01*
X176907258Y-58054987D01*
X176849561Y-57499529D01*
X176684608Y-56966000D01*
X176435598Y-56500137D01*
X176048355Y-56259991D01*
X174238185Y-58070161D01*
X173878975Y-58070161D01*
X172068805Y-56259991D01*
X171681562Y-56500137D01*
X171420939Y-56994038D01*
X171261679Y-57529294D01*
X171209902Y-58085335D01*
X158855137Y-58085335D01*
X157852714Y-57082912D01*
X157878325Y-57021081D01*
X157945000Y-56685883D01*
X157945000Y-56344117D01*
X157892541Y-56080386D01*
X172248410Y-56080386D01*
X174058580Y-57890556D01*
X175868750Y-56080386D01*
X175628604Y-55693143D01*
X175134703Y-55432520D01*
X174599447Y-55273260D01*
X174043406Y-55221483D01*
X173487948Y-55279180D01*
X172954419Y-55444133D01*
X172488556Y-55693143D01*
X172248410Y-56080386D01*
X157892541Y-56080386D01*
X157878325Y-56008919D01*
X157747537Y-55693169D01*
X157557663Y-55409002D01*
X157315998Y-55167337D01*
X157031831Y-54977463D01*
X156716081Y-54846675D01*
X156380883Y-54780000D01*
X156039117Y-54780000D01*
X155703919Y-54846675D01*
X155388169Y-54977463D01*
X155104002Y-55167337D01*
X154862337Y-55409002D01*
X154672463Y-55693169D01*
X154541675Y-56008919D01*
X154475000Y-56344117D01*
X154475000Y-56685883D01*
X154541675Y-57021081D01*
X154672463Y-57336831D01*
X154862337Y-57620998D01*
X155104002Y-57862663D01*
X155388169Y-58052537D01*
X155703919Y-58183325D01*
X156039117Y-58250000D01*
X156380883Y-58250000D01*
X156716081Y-58183325D01*
X156777912Y-58157714D01*
X158730198Y-60110000D01*
X158603740Y-60110000D01*
X158316842Y-60167068D01*
X158046589Y-60279010D01*
X157803368Y-60441525D01*
X157596525Y-60648368D01*
X157434010Y-60891589D01*
X157322068Y-61161842D01*
X157265000Y-61448740D01*
X157265000Y-61741260D01*
X157322068Y-62028158D01*
X157434010Y-62298411D01*
X157596525Y-62541632D01*
X157803368Y-62748475D01*
X158046589Y-62910990D01*
X158316842Y-63022932D01*
X158603740Y-63080000D01*
X158896260Y-63080000D01*
X159183158Y-63022932D01*
X159453411Y-62910990D01*
X159696632Y-62748475D01*
X159903475Y-62541632D01*
X160065990Y-62298411D01*
X160177932Y-62028158D01*
X160235000Y-61741260D01*
X160235000Y-61614802D01*
X160741251Y-62121053D01*
X160741250Y-79021448D01*
X157852714Y-76132912D01*
X157878325Y-76071081D01*
X157945000Y-75735883D01*
X157945000Y-75394117D01*
X157878325Y-75058919D01*
X157747537Y-74743169D01*
X157557663Y-74459002D01*
X157315998Y-74217337D01*
X157031831Y-74027463D01*
X156716081Y-73896675D01*
X156380883Y-73830000D01*
X156039117Y-73830000D01*
X155703919Y-73896675D01*
X155388169Y-74027463D01*
X155104002Y-74217337D01*
X154862337Y-74459002D01*
X154672463Y-74743169D01*
X154541675Y-75058919D01*
X154475000Y-75394117D01*
X154475000Y-75735883D01*
X154541675Y-76071081D01*
X154672463Y-76386831D01*
X154862337Y-76670998D01*
X155104002Y-76912663D01*
X155388169Y-77102537D01*
X155703919Y-77233325D01*
X156039117Y-77300000D01*
X156380883Y-77300000D01*
X156716081Y-77233325D01*
X156777912Y-77207714D01*
X158730198Y-79160000D01*
X158603740Y-79160000D01*
X158316842Y-79217068D01*
X158046589Y-79329010D01*
X157803368Y-79491525D01*
X157596525Y-79698368D01*
X157434010Y-79941589D01*
X157322068Y-80211842D01*
X157265000Y-80498740D01*
X157265000Y-80791260D01*
X157322068Y-81078158D01*
X157434010Y-81348411D01*
X157596525Y-81591632D01*
X157803368Y-81798475D01*
X158046589Y-81960990D01*
X158316842Y-82072932D01*
X158603740Y-82130000D01*
X158896260Y-82130000D01*
X159183158Y-82072932D01*
X159453411Y-81960990D01*
X159696632Y-81798475D01*
X159903475Y-81591632D01*
X160065990Y-81348411D01*
X160177932Y-81078158D01*
X160235000Y-80791260D01*
X160235000Y-80664802D01*
X160291241Y-80721043D01*
X160291240Y-85453709D01*
X158337034Y-83499503D01*
X158313231Y-83470499D01*
X158197506Y-83375526D01*
X158065477Y-83304954D01*
X157922216Y-83261497D01*
X157810563Y-83250500D01*
X157810552Y-83250500D01*
X157773230Y-83246824D01*
X157735908Y-83250500D01*
X154077832Y-83250500D01*
X154438601Y-83178739D01*
X154918141Y-82980107D01*
X155349715Y-82691738D01*
X155716738Y-82324715D01*
X156005107Y-81893141D01*
X156203739Y-81413601D01*
X156305000Y-80904525D01*
X156305000Y-80385475D01*
X156203739Y-79876399D01*
X156005107Y-79396859D01*
X155716738Y-78965285D01*
X155349715Y-78598262D01*
X154918141Y-78309893D01*
X154438601Y-78111261D01*
X153929525Y-78010000D01*
X153410475Y-78010000D01*
X152901399Y-78111261D01*
X152421859Y-78309893D01*
X151990285Y-78598262D01*
X151623262Y-78965285D01*
X151334893Y-79396859D01*
X151136261Y-79876399D01*
X151035000Y-80385475D01*
X151035000Y-80904525D01*
X151136261Y-81413601D01*
X151334893Y-81893141D01*
X151623262Y-82324715D01*
X151990285Y-82691738D01*
X152421859Y-82980107D01*
X152901399Y-83178739D01*
X153262168Y-83250500D01*
X149694742Y-83250500D01*
X148574242Y-82130000D01*
X148736260Y-82130000D01*
X149023158Y-82072932D01*
X149293411Y-81960990D01*
X149536632Y-81798475D01*
X149743475Y-81591632D01*
X149905990Y-81348411D01*
X150017932Y-81078158D01*
X150075000Y-80791260D01*
X150075000Y-80498740D01*
X150017932Y-80211842D01*
X149905990Y-79941589D01*
X149839650Y-79842304D01*
X149918639Y-79847409D01*
X150257439Y-79802489D01*
X150580966Y-79692336D01*
X150779274Y-79586338D01*
X150887107Y-79311712D01*
X149860000Y-78284605D01*
X149845858Y-78298748D01*
X149666253Y-78119143D01*
X149680395Y-78105000D01*
X150039605Y-78105000D01*
X151066712Y-79132107D01*
X151341338Y-79024274D01*
X151492216Y-78717616D01*
X151580369Y-78387415D01*
X151602409Y-78046361D01*
X151557489Y-77707561D01*
X151447336Y-77384034D01*
X151341338Y-77185726D01*
X151066712Y-77077893D01*
X150039605Y-78105000D01*
X149680395Y-78105000D01*
X148653288Y-77077893D01*
X148378662Y-77185726D01*
X148227784Y-77492384D01*
X148139631Y-77822585D01*
X148117591Y-78163639D01*
X148162511Y-78502439D01*
X148272664Y-78825966D01*
X148378662Y-79024274D01*
X148653286Y-79132106D01*
X148625392Y-79160000D01*
X148443740Y-79160000D01*
X148156842Y-79217068D01*
X147886589Y-79329010D01*
X147643368Y-79491525D01*
X147436525Y-79698368D01*
X147274010Y-79941589D01*
X147162068Y-80211842D01*
X147105000Y-80498740D01*
X147105000Y-80660758D01*
X143342530Y-76898288D01*
X148832893Y-76898288D01*
X149860000Y-77925395D01*
X150887107Y-76898288D01*
X150779274Y-76623662D01*
X150472616Y-76472784D01*
X150142415Y-76384631D01*
X149801361Y-76362591D01*
X149462561Y-76407511D01*
X149139034Y-76517664D01*
X148940726Y-76623662D01*
X148832893Y-76898288D01*
X143342530Y-76898288D01*
X137818400Y-71374159D01*
X137818400Y-61448740D01*
X138215000Y-61448740D01*
X138215000Y-61741260D01*
X138272068Y-62028158D01*
X138384010Y-62298411D01*
X138546525Y-62541632D01*
X138753368Y-62748475D01*
X138996589Y-62910990D01*
X139266842Y-63022932D01*
X139553740Y-63080000D01*
X139846260Y-63080000D01*
X140133158Y-63022932D01*
X140403411Y-62910990D01*
X140646632Y-62748475D01*
X140853475Y-62541632D01*
X141015990Y-62298411D01*
X141127932Y-62028158D01*
X141185000Y-61741260D01*
X141185000Y-61448740D01*
X147105000Y-61448740D01*
X147105000Y-61741260D01*
X147162068Y-62028158D01*
X147274010Y-62298411D01*
X147436525Y-62541632D01*
X147643368Y-62748475D01*
X147886589Y-62910990D01*
X148156842Y-63022932D01*
X148443740Y-63080000D01*
X148736260Y-63080000D01*
X149023158Y-63022932D01*
X149293411Y-62910990D01*
X149536632Y-62748475D01*
X149743475Y-62541632D01*
X149905990Y-62298411D01*
X150017932Y-62028158D01*
X150075000Y-61741260D01*
X150075000Y-61448740D01*
X150052471Y-61335475D01*
X151035000Y-61335475D01*
X151035000Y-61854525D01*
X151136261Y-62363601D01*
X151334893Y-62843141D01*
X151623262Y-63274715D01*
X151990285Y-63641738D01*
X152421859Y-63930107D01*
X152901399Y-64128739D01*
X153410475Y-64230000D01*
X153929525Y-64230000D01*
X154438601Y-64128739D01*
X154918141Y-63930107D01*
X155349715Y-63641738D01*
X155716738Y-63274715D01*
X156005107Y-62843141D01*
X156203739Y-62363601D01*
X156305000Y-61854525D01*
X156305000Y-61335475D01*
X156203739Y-60826399D01*
X156005107Y-60346859D01*
X155716738Y-59915285D01*
X155349715Y-59548262D01*
X154918141Y-59259893D01*
X154438601Y-59061261D01*
X153929525Y-58960000D01*
X153410475Y-58960000D01*
X152901399Y-59061261D01*
X152421859Y-59259893D01*
X151990285Y-59548262D01*
X151623262Y-59915285D01*
X151334893Y-60346859D01*
X151136261Y-60826399D01*
X151035000Y-61335475D01*
X150052471Y-61335475D01*
X150017932Y-61161842D01*
X149905990Y-60891589D01*
X149839650Y-60792304D01*
X149918639Y-60797409D01*
X150257439Y-60752489D01*
X150580966Y-60642336D01*
X150779274Y-60536338D01*
X150887107Y-60261712D01*
X149860000Y-59234605D01*
X149845858Y-59248748D01*
X149666253Y-59069143D01*
X149680395Y-59055000D01*
X150039605Y-59055000D01*
X151066712Y-60082107D01*
X151341338Y-59974274D01*
X151492216Y-59667616D01*
X151580369Y-59337415D01*
X151602409Y-58996361D01*
X151557489Y-58657561D01*
X151447336Y-58334034D01*
X151341338Y-58135726D01*
X151066712Y-58027893D01*
X150039605Y-59055000D01*
X149680395Y-59055000D01*
X148653288Y-58027893D01*
X148378662Y-58135726D01*
X148227784Y-58442384D01*
X148139631Y-58772585D01*
X148117591Y-59113639D01*
X148162511Y-59452439D01*
X148272664Y-59775966D01*
X148378662Y-59974274D01*
X148653286Y-60082106D01*
X148625392Y-60110000D01*
X148443740Y-60110000D01*
X148156842Y-60167068D01*
X147886589Y-60279010D01*
X147643368Y-60441525D01*
X147436525Y-60648368D01*
X147274010Y-60891589D01*
X147162068Y-61161842D01*
X147105000Y-61448740D01*
X141185000Y-61448740D01*
X141127932Y-61161842D01*
X141015990Y-60891589D01*
X140853475Y-60648368D01*
X140646632Y-60441525D01*
X140403411Y-60279010D01*
X140133158Y-60167068D01*
X139846260Y-60110000D01*
X139553740Y-60110000D01*
X139266842Y-60167068D01*
X138996589Y-60279010D01*
X138753368Y-60441525D01*
X138546525Y-60648368D01*
X138384010Y-60891589D01*
X138272068Y-61161842D01*
X138215000Y-61448740D01*
X137818400Y-61448740D01*
X137818400Y-58120232D01*
X137981831Y-58052537D01*
X138265998Y-57862663D01*
X138280373Y-57848288D01*
X148832893Y-57848288D01*
X149860000Y-58875395D01*
X150887107Y-57848288D01*
X150779274Y-57573662D01*
X150472616Y-57422784D01*
X150142415Y-57334631D01*
X149801361Y-57312591D01*
X149462561Y-57357511D01*
X149139034Y-57467664D01*
X148940726Y-57573662D01*
X148832893Y-57848288D01*
X138280373Y-57848288D01*
X138507663Y-57620998D01*
X138697537Y-57336831D01*
X138828325Y-57021081D01*
X138895000Y-56685883D01*
X138895000Y-56344117D01*
X138828325Y-56008919D01*
X138697537Y-55693169D01*
X138507663Y-55409002D01*
X138265998Y-55167337D01*
X137981831Y-54977463D01*
X137666081Y-54846675D01*
X137330883Y-54780000D01*
X136989117Y-54780000D01*
X136653919Y-54846675D01*
X136338169Y-54977463D01*
X136054002Y-55167337D01*
X135812337Y-55409002D01*
X135622463Y-55693169D01*
X135491675Y-56008919D01*
X135425000Y-56344117D01*
X135425000Y-56685883D01*
X135491675Y-57021081D01*
X135622463Y-57336831D01*
X135812337Y-57620998D01*
X136054002Y-57862663D01*
X136298401Y-58025965D01*
X136298401Y-59547384D01*
X135868141Y-59259893D01*
X135388601Y-59061261D01*
X134879525Y-58960000D01*
X134360475Y-58960000D01*
X133851399Y-59061261D01*
X133371859Y-59259893D01*
X132940285Y-59548262D01*
X132573262Y-59915285D01*
X132284893Y-60346859D01*
X132086261Y-60826399D01*
X131985000Y-61335475D01*
X131985000Y-61854525D01*
X132086261Y-62363601D01*
X132284893Y-62843141D01*
X132573262Y-63274715D01*
X132940285Y-63641738D01*
X133371859Y-63930107D01*
X133851399Y-64128739D01*
X134360475Y-64230000D01*
X134879525Y-64230000D01*
X135388601Y-64128739D01*
X135868141Y-63930107D01*
X136298401Y-63642616D01*
X136298400Y-71651638D01*
X136294724Y-71688960D01*
X136298400Y-71726282D01*
X136298400Y-71726292D01*
X136309397Y-71837945D01*
X136342838Y-71948186D01*
X136352854Y-71981206D01*
X136423426Y-72113236D01*
X136450161Y-72145812D01*
X136518399Y-72228961D01*
X136547403Y-72252764D01*
X139099639Y-74805000D01*
X138723148Y-74805000D01*
X138697537Y-74743169D01*
X138507663Y-74459002D01*
X138265998Y-74217337D01*
X137981831Y-74027463D01*
X137666081Y-73896675D01*
X137330883Y-73830000D01*
X136989117Y-73830000D01*
X136653919Y-73896675D01*
X136338169Y-74027463D01*
X136054002Y-74217337D01*
X135812337Y-74459002D01*
X135622463Y-74743169D01*
X135491675Y-75058919D01*
X135425000Y-75394117D01*
X135425000Y-75735883D01*
X135491675Y-76071081D01*
X135622463Y-76386831D01*
X135812337Y-76670998D01*
X136054002Y-76912663D01*
X136338169Y-77102537D01*
X136653919Y-77233325D01*
X136989117Y-77300000D01*
X137330883Y-77300000D01*
X137666081Y-77233325D01*
X137981831Y-77102537D01*
X138265998Y-76912663D01*
X138507663Y-76670998D01*
X138697537Y-76386831D01*
X138723148Y-76325000D01*
X139983229Y-76325000D01*
X147808746Y-84150519D01*
X131679382Y-84150519D01*
X129658863Y-82130000D01*
X129686260Y-82130000D01*
X129973158Y-82072932D01*
X130243411Y-81960990D01*
X130486632Y-81798475D01*
X130693475Y-81591632D01*
X130855990Y-81348411D01*
X130967932Y-81078158D01*
X131025000Y-80791260D01*
X131025000Y-80498740D01*
X131002471Y-80385475D01*
X131985000Y-80385475D01*
X131985000Y-80904525D01*
X132086261Y-81413601D01*
X132284893Y-81893141D01*
X132573262Y-82324715D01*
X132940285Y-82691738D01*
X133371859Y-82980107D01*
X133851399Y-83178739D01*
X134360475Y-83280000D01*
X134879525Y-83280000D01*
X135388601Y-83178739D01*
X135868141Y-82980107D01*
X136299715Y-82691738D01*
X136666738Y-82324715D01*
X136955107Y-81893141D01*
X137153739Y-81413601D01*
X137255000Y-80904525D01*
X137255000Y-80498740D01*
X138215000Y-80498740D01*
X138215000Y-80791260D01*
X138272068Y-81078158D01*
X138384010Y-81348411D01*
X138546525Y-81591632D01*
X138753368Y-81798475D01*
X138996589Y-81960990D01*
X139266842Y-82072932D01*
X139553740Y-82130000D01*
X139846260Y-82130000D01*
X140133158Y-82072932D01*
X140403411Y-81960990D01*
X140646632Y-81798475D01*
X140853475Y-81591632D01*
X141015990Y-81348411D01*
X141127932Y-81078158D01*
X141185000Y-80791260D01*
X141185000Y-80498740D01*
X141127932Y-80211842D01*
X141015990Y-79941589D01*
X140853475Y-79698368D01*
X140646632Y-79491525D01*
X140403411Y-79329010D01*
X140133158Y-79217068D01*
X139846260Y-79160000D01*
X139553740Y-79160000D01*
X139266842Y-79217068D01*
X138996589Y-79329010D01*
X138753368Y-79491525D01*
X138546525Y-79698368D01*
X138384010Y-79941589D01*
X138272068Y-80211842D01*
X138215000Y-80498740D01*
X137255000Y-80498740D01*
X137255000Y-80385475D01*
X137153739Y-79876399D01*
X136955107Y-79396859D01*
X136666738Y-78965285D01*
X136299715Y-78598262D01*
X135868141Y-78309893D01*
X135388601Y-78111261D01*
X134879525Y-78010000D01*
X134360475Y-78010000D01*
X133851399Y-78111261D01*
X133371859Y-78309893D01*
X132940285Y-78598262D01*
X132573262Y-78965285D01*
X132284893Y-79396859D01*
X132086261Y-79876399D01*
X131985000Y-80385475D01*
X131002471Y-80385475D01*
X130967932Y-80211842D01*
X130855990Y-79941589D01*
X130789650Y-79842304D01*
X130868639Y-79847409D01*
X131207439Y-79802489D01*
X131530966Y-79692336D01*
X131729274Y-79586338D01*
X131837107Y-79311712D01*
X130810000Y-78284605D01*
X130795858Y-78298748D01*
X130616253Y-78119143D01*
X130630395Y-78105000D01*
X130989605Y-78105000D01*
X132016712Y-79132107D01*
X132291338Y-79024274D01*
X132442216Y-78717616D01*
X132530369Y-78387415D01*
X132552409Y-78046361D01*
X132507489Y-77707561D01*
X132397336Y-77384034D01*
X132291338Y-77185726D01*
X132016712Y-77077893D01*
X130989605Y-78105000D01*
X130630395Y-78105000D01*
X129603288Y-77077893D01*
X129328662Y-77185726D01*
X129177784Y-77492384D01*
X129089631Y-77822585D01*
X129067591Y-78163639D01*
X129112511Y-78502439D01*
X129222664Y-78825966D01*
X129328662Y-79024274D01*
X129603286Y-79132106D01*
X129575392Y-79160000D01*
X129393740Y-79160000D01*
X129106842Y-79217068D01*
X128836589Y-79329010D01*
X128593368Y-79491525D01*
X128386525Y-79698368D01*
X128224010Y-79941589D01*
X128112068Y-80211842D01*
X128055000Y-80498740D01*
X128055000Y-80526138D01*
X124427150Y-76898288D01*
X129782893Y-76898288D01*
X130810000Y-77925395D01*
X131837107Y-76898288D01*
X131729274Y-76623662D01*
X131422616Y-76472784D01*
X131092415Y-76384631D01*
X130751361Y-76362591D01*
X130412561Y-76407511D01*
X130089034Y-76517664D01*
X129890726Y-76623662D01*
X129782893Y-76898288D01*
X124427150Y-76898288D01*
X118870000Y-71341139D01*
X118870000Y-61448740D01*
X119165000Y-61448740D01*
X119165000Y-61741260D01*
X119222068Y-62028158D01*
X119334010Y-62298411D01*
X119496525Y-62541632D01*
X119703368Y-62748475D01*
X119946589Y-62910990D01*
X120216842Y-63022932D01*
X120503740Y-63080000D01*
X120796260Y-63080000D01*
X121083158Y-63022932D01*
X121353411Y-62910990D01*
X121596632Y-62748475D01*
X121803475Y-62541632D01*
X121965990Y-62298411D01*
X122077932Y-62028158D01*
X122135000Y-61741260D01*
X122135000Y-61448740D01*
X128055000Y-61448740D01*
X128055000Y-61741260D01*
X128112068Y-62028158D01*
X128224010Y-62298411D01*
X128386525Y-62541632D01*
X128593368Y-62748475D01*
X128836589Y-62910990D01*
X129106842Y-63022932D01*
X129393740Y-63080000D01*
X129686260Y-63080000D01*
X129973158Y-63022932D01*
X130243411Y-62910990D01*
X130486632Y-62748475D01*
X130693475Y-62541632D01*
X130855990Y-62298411D01*
X130967932Y-62028158D01*
X131025000Y-61741260D01*
X131025000Y-61448740D01*
X130967932Y-61161842D01*
X130855990Y-60891589D01*
X130789650Y-60792304D01*
X130868639Y-60797409D01*
X131207439Y-60752489D01*
X131530966Y-60642336D01*
X131729274Y-60536338D01*
X131837107Y-60261712D01*
X130810000Y-59234605D01*
X130795858Y-59248748D01*
X130616253Y-59069143D01*
X130630395Y-59055000D01*
X130989605Y-59055000D01*
X132016712Y-60082107D01*
X132291338Y-59974274D01*
X132442216Y-59667616D01*
X132530369Y-59337415D01*
X132552409Y-58996361D01*
X132507489Y-58657561D01*
X132397336Y-58334034D01*
X132291338Y-58135726D01*
X132016712Y-58027893D01*
X130989605Y-59055000D01*
X130630395Y-59055000D01*
X129603288Y-58027893D01*
X129328662Y-58135726D01*
X129177784Y-58442384D01*
X129089631Y-58772585D01*
X129067591Y-59113639D01*
X129112511Y-59452439D01*
X129222664Y-59775966D01*
X129328662Y-59974274D01*
X129603286Y-60082106D01*
X129575392Y-60110000D01*
X129393740Y-60110000D01*
X129106842Y-60167068D01*
X128836589Y-60279010D01*
X128593368Y-60441525D01*
X128386525Y-60648368D01*
X128224010Y-60891589D01*
X128112068Y-61161842D01*
X128055000Y-61448740D01*
X122135000Y-61448740D01*
X122077932Y-61161842D01*
X121965990Y-60891589D01*
X121803475Y-60648368D01*
X121596632Y-60441525D01*
X121353411Y-60279010D01*
X121083158Y-60167068D01*
X120796260Y-60110000D01*
X120503740Y-60110000D01*
X120216842Y-60167068D01*
X119946589Y-60279010D01*
X119703368Y-60441525D01*
X119496525Y-60648368D01*
X119334010Y-60891589D01*
X119222068Y-61161842D01*
X119165000Y-61448740D01*
X118870000Y-61448740D01*
X118870000Y-60059936D01*
X123254350Y-60059936D01*
X123494496Y-60447179D01*
X123988397Y-60707802D01*
X124523653Y-60867062D01*
X125079694Y-60918839D01*
X125635152Y-60861142D01*
X126168681Y-60696189D01*
X126634544Y-60447179D01*
X126874690Y-60059936D01*
X125064520Y-58249766D01*
X123254350Y-60059936D01*
X118870000Y-60059936D01*
X118870000Y-58085335D01*
X122215842Y-58085335D01*
X122273539Y-58640793D01*
X122438492Y-59174322D01*
X122687502Y-59640185D01*
X123074745Y-59880331D01*
X124884915Y-58070161D01*
X125244125Y-58070161D01*
X127054295Y-59880331D01*
X127441538Y-59640185D01*
X127702161Y-59146284D01*
X127861421Y-58611028D01*
X127913198Y-58054987D01*
X127891728Y-57848288D01*
X129782893Y-57848288D01*
X130810000Y-58875395D01*
X131837107Y-57848288D01*
X131729274Y-57573662D01*
X131422616Y-57422784D01*
X131092415Y-57334631D01*
X130751361Y-57312591D01*
X130412561Y-57357511D01*
X130089034Y-57467664D01*
X129890726Y-57573662D01*
X129782893Y-57848288D01*
X127891728Y-57848288D01*
X127855501Y-57499529D01*
X127690548Y-56966000D01*
X127441538Y-56500137D01*
X127054295Y-56259991D01*
X125244125Y-58070161D01*
X124884915Y-58070161D01*
X123074745Y-56259991D01*
X122687502Y-56500137D01*
X122426879Y-56994038D01*
X122267619Y-57529294D01*
X122215842Y-58085335D01*
X118870000Y-58085335D01*
X118870000Y-58078148D01*
X118931831Y-58052537D01*
X119215998Y-57862663D01*
X119457663Y-57620998D01*
X119647537Y-57336831D01*
X119778325Y-57021081D01*
X119845000Y-56685883D01*
X119845000Y-56344117D01*
X119792541Y-56080386D01*
X123254350Y-56080386D01*
X125064520Y-57890556D01*
X126874690Y-56080386D01*
X126634544Y-55693143D01*
X126140643Y-55432520D01*
X125605387Y-55273260D01*
X125049346Y-55221483D01*
X124493888Y-55279180D01*
X123960359Y-55444133D01*
X123494496Y-55693143D01*
X123254350Y-56080386D01*
X119792541Y-56080386D01*
X119778325Y-56008919D01*
X119647537Y-55693169D01*
X119457663Y-55409002D01*
X119215998Y-55167337D01*
X118931831Y-54977463D01*
X118616081Y-54846675D01*
X118280883Y-54780000D01*
X117939117Y-54780000D01*
X117603919Y-54846675D01*
X117288169Y-54977463D01*
X117004002Y-55167337D01*
X116762337Y-55409002D01*
X116572463Y-55693169D01*
X116441675Y-56008919D01*
X116375000Y-56344117D01*
X116375000Y-56685883D01*
X116441675Y-57021081D01*
X116572463Y-57336831D01*
X116762337Y-57620998D01*
X117004002Y-57862663D01*
X117288169Y-58052537D01*
X117350001Y-58078149D01*
X117350001Y-59648548D01*
X117249715Y-59548262D01*
X116818141Y-59259893D01*
X116338601Y-59061261D01*
X115829525Y-58960000D01*
X115310475Y-58960000D01*
X114801399Y-59061261D01*
X114321859Y-59259893D01*
X113890285Y-59548262D01*
X113523262Y-59915285D01*
X113234893Y-60346859D01*
X113036261Y-60826399D01*
X112935000Y-61335475D01*
X112935000Y-61854525D01*
X113036261Y-62363601D01*
X113234893Y-62843141D01*
X113523262Y-63274715D01*
X113890285Y-63641738D01*
X114321859Y-63930107D01*
X114801399Y-64128739D01*
X115310475Y-64230000D01*
X115829525Y-64230000D01*
X116338601Y-64128739D01*
X116818141Y-63930107D01*
X117249715Y-63641738D01*
X117350001Y-63541452D01*
X117350000Y-71618618D01*
X117346324Y-71655940D01*
X117350000Y-71693262D01*
X117350000Y-71693272D01*
X117360997Y-71804925D01*
X117392871Y-71910001D01*
X117404454Y-71948186D01*
X117475026Y-72080216D01*
X117502125Y-72113236D01*
X117569999Y-72195941D01*
X117599003Y-72219744D01*
X120184259Y-74805000D01*
X119673148Y-74805000D01*
X119647537Y-74743169D01*
X119457663Y-74459002D01*
X119215998Y-74217337D01*
X118931831Y-74027463D01*
X118616081Y-73896675D01*
X118280883Y-73830000D01*
X117939117Y-73830000D01*
X117603919Y-73896675D01*
X117288169Y-74027463D01*
X117004002Y-74217337D01*
X116762337Y-74459002D01*
X116572463Y-74743169D01*
X116441675Y-75058919D01*
X116375000Y-75394117D01*
X116375000Y-75735883D01*
X116441675Y-76071081D01*
X116572463Y-76386831D01*
X116762337Y-76670998D01*
X117004002Y-76912663D01*
X117288169Y-77102537D01*
X117603919Y-77233325D01*
X117939117Y-77300000D01*
X118280883Y-77300000D01*
X118616081Y-77233325D01*
X118931831Y-77102537D01*
X119215998Y-76912663D01*
X119457663Y-76670998D01*
X119647537Y-76386831D01*
X119673148Y-76325000D01*
X121067849Y-76325000D01*
X130614379Y-85871531D01*
X130638178Y-85900530D01*
X130667176Y-85924328D01*
X130753902Y-85995503D01*
X130885455Y-86065820D01*
X130885932Y-86066075D01*
X131029193Y-86109532D01*
X131140846Y-86120529D01*
X131140856Y-86120529D01*
X131178179Y-86124205D01*
X131215502Y-86120529D01*
X156899228Y-86120529D01*
X162745686Y-91966986D01*
X162769480Y-91995979D01*
X162798473Y-92019773D01*
X162798477Y-92019777D01*
X162835303Y-92050000D01*
X106712279Y-92050000D01*
X106315455Y-92011091D01*
X105964794Y-91905220D01*
X105641377Y-91733257D01*
X105357518Y-91501748D01*
X105124035Y-91219514D01*
X104949816Y-90897304D01*
X104841498Y-90547385D01*
X104800000Y-90152557D01*
X104800000Y-85562927D01*
X108892920Y-85562927D01*
X108892920Y-85801473D01*
X108939458Y-86035436D01*
X109030745Y-86255824D01*
X109163274Y-86454168D01*
X109331952Y-86622846D01*
X109530296Y-86755375D01*
X109750684Y-86846662D01*
X109984647Y-86893200D01*
X110223193Y-86893200D01*
X110457156Y-86846662D01*
X110532110Y-86815615D01*
X123254350Y-86815615D01*
X123494496Y-87202858D01*
X123988397Y-87463481D01*
X124523653Y-87622741D01*
X125079694Y-87674518D01*
X125635152Y-87616821D01*
X126168681Y-87451868D01*
X126634544Y-87202858D01*
X126874690Y-86815615D01*
X125064520Y-85005445D01*
X123254350Y-86815615D01*
X110532110Y-86815615D01*
X110677544Y-86755375D01*
X110875888Y-86622846D01*
X111044566Y-86454168D01*
X111177095Y-86255824D01*
X111268382Y-86035436D01*
X111314920Y-85801473D01*
X111314920Y-85562927D01*
X111268382Y-85328964D01*
X111177095Y-85108576D01*
X111044566Y-84910232D01*
X110975348Y-84841014D01*
X122215842Y-84841014D01*
X122273539Y-85396472D01*
X122438492Y-85930001D01*
X122687502Y-86395864D01*
X123074745Y-86636010D01*
X124884915Y-84825840D01*
X125244125Y-84825840D01*
X127054295Y-86636010D01*
X127441538Y-86395864D01*
X127702161Y-85901963D01*
X127861421Y-85366707D01*
X127913198Y-84810666D01*
X127855501Y-84255208D01*
X127690548Y-83721679D01*
X127441538Y-83255816D01*
X127054295Y-83015670D01*
X125244125Y-84825840D01*
X124884915Y-84825840D01*
X123074745Y-83015670D01*
X122687502Y-83255816D01*
X122426879Y-83749717D01*
X122267619Y-84284973D01*
X122215842Y-84841014D01*
X110975348Y-84841014D01*
X110875888Y-84741554D01*
X110677544Y-84609025D01*
X110457156Y-84517738D01*
X110223193Y-84471200D01*
X109984647Y-84471200D01*
X109750684Y-84517738D01*
X109530296Y-84609025D01*
X109331952Y-84741554D01*
X109163274Y-84910232D01*
X109030745Y-85108576D01*
X108939458Y-85328964D01*
X108892920Y-85562927D01*
X104800000Y-85562927D01*
X104800000Y-80498740D01*
X109005000Y-80498740D01*
X109005000Y-80791260D01*
X109062068Y-81078158D01*
X109174010Y-81348411D01*
X109336525Y-81591632D01*
X109543368Y-81798475D01*
X109786589Y-81960990D01*
X110056842Y-82072932D01*
X110343740Y-82130000D01*
X110636260Y-82130000D01*
X110923158Y-82072932D01*
X111193411Y-81960990D01*
X111436632Y-81798475D01*
X111643475Y-81591632D01*
X111805990Y-81348411D01*
X111917932Y-81078158D01*
X111975000Y-80791260D01*
X111975000Y-80498740D01*
X111952471Y-80385475D01*
X112935000Y-80385475D01*
X112935000Y-80904525D01*
X113036261Y-81413601D01*
X113234893Y-81893141D01*
X113523262Y-82324715D01*
X113890285Y-82691738D01*
X114321859Y-82980107D01*
X114801399Y-83178739D01*
X115310475Y-83280000D01*
X115829525Y-83280000D01*
X116338601Y-83178739D01*
X116818141Y-82980107D01*
X117033714Y-82836065D01*
X123254350Y-82836065D01*
X125064520Y-84646235D01*
X126874690Y-82836065D01*
X126634544Y-82448822D01*
X126140643Y-82188199D01*
X125605387Y-82028939D01*
X125049346Y-81977162D01*
X124493888Y-82034859D01*
X123960359Y-82199812D01*
X123494496Y-82448822D01*
X123254350Y-82836065D01*
X117033714Y-82836065D01*
X117249715Y-82691738D01*
X117616738Y-82324715D01*
X117905107Y-81893141D01*
X118103739Y-81413601D01*
X118205000Y-80904525D01*
X118205000Y-80498740D01*
X119165000Y-80498740D01*
X119165000Y-80791260D01*
X119222068Y-81078158D01*
X119334010Y-81348411D01*
X119496525Y-81591632D01*
X119703368Y-81798475D01*
X119946589Y-81960990D01*
X120216842Y-82072932D01*
X120503740Y-82130000D01*
X120796260Y-82130000D01*
X121083158Y-82072932D01*
X121353411Y-81960990D01*
X121596632Y-81798475D01*
X121803475Y-81591632D01*
X121965990Y-81348411D01*
X122077932Y-81078158D01*
X122135000Y-80791260D01*
X122135000Y-80498740D01*
X122077932Y-80211842D01*
X121965990Y-79941589D01*
X121803475Y-79698368D01*
X121596632Y-79491525D01*
X121353411Y-79329010D01*
X121083158Y-79217068D01*
X120796260Y-79160000D01*
X120503740Y-79160000D01*
X120216842Y-79217068D01*
X119946589Y-79329010D01*
X119703368Y-79491525D01*
X119496525Y-79698368D01*
X119334010Y-79941589D01*
X119222068Y-80211842D01*
X119165000Y-80498740D01*
X118205000Y-80498740D01*
X118205000Y-80385475D01*
X118103739Y-79876399D01*
X117905107Y-79396859D01*
X117616738Y-78965285D01*
X117249715Y-78598262D01*
X116818141Y-78309893D01*
X116338601Y-78111261D01*
X115829525Y-78010000D01*
X115310475Y-78010000D01*
X114801399Y-78111261D01*
X114321859Y-78309893D01*
X113890285Y-78598262D01*
X113523262Y-78965285D01*
X113234893Y-79396859D01*
X113036261Y-79876399D01*
X112935000Y-80385475D01*
X111952471Y-80385475D01*
X111917932Y-80211842D01*
X111805990Y-79941589D01*
X111739650Y-79842304D01*
X111818639Y-79847409D01*
X112157439Y-79802489D01*
X112480966Y-79692336D01*
X112679274Y-79586338D01*
X112787107Y-79311712D01*
X111760000Y-78284605D01*
X111745858Y-78298748D01*
X111566253Y-78119143D01*
X111580395Y-78105000D01*
X111939605Y-78105000D01*
X112966712Y-79132107D01*
X113241338Y-79024274D01*
X113392216Y-78717616D01*
X113480369Y-78387415D01*
X113502409Y-78046361D01*
X113457489Y-77707561D01*
X113347336Y-77384034D01*
X113241338Y-77185726D01*
X112966712Y-77077893D01*
X111939605Y-78105000D01*
X111580395Y-78105000D01*
X110553288Y-77077893D01*
X110278662Y-77185726D01*
X110127784Y-77492384D01*
X110039631Y-77822585D01*
X110017591Y-78163639D01*
X110062511Y-78502439D01*
X110172664Y-78825966D01*
X110278662Y-79024274D01*
X110553286Y-79132106D01*
X110525392Y-79160000D01*
X110343740Y-79160000D01*
X110056842Y-79217068D01*
X109786589Y-79329010D01*
X109543368Y-79491525D01*
X109336525Y-79698368D01*
X109174010Y-79941589D01*
X109062068Y-80211842D01*
X109005000Y-80498740D01*
X104800000Y-80498740D01*
X104800000Y-76898288D01*
X110732893Y-76898288D01*
X111760000Y-77925395D01*
X112787107Y-76898288D01*
X112679274Y-76623662D01*
X112372616Y-76472784D01*
X112042415Y-76384631D01*
X111701361Y-76362591D01*
X111362561Y-76407511D01*
X111039034Y-76517664D01*
X110840726Y-76623662D01*
X110732893Y-76898288D01*
X104800000Y-76898288D01*
X104800000Y-61448740D01*
X109005000Y-61448740D01*
X109005000Y-61741260D01*
X109062068Y-62028158D01*
X109174010Y-62298411D01*
X109336525Y-62541632D01*
X109543368Y-62748475D01*
X109786589Y-62910990D01*
X110056842Y-63022932D01*
X110343740Y-63080000D01*
X110636260Y-63080000D01*
X110923158Y-63022932D01*
X111193411Y-62910990D01*
X111436632Y-62748475D01*
X111643475Y-62541632D01*
X111805990Y-62298411D01*
X111917932Y-62028158D01*
X111975000Y-61741260D01*
X111975000Y-61448740D01*
X111917932Y-61161842D01*
X111805990Y-60891589D01*
X111739650Y-60792304D01*
X111818639Y-60797409D01*
X112157439Y-60752489D01*
X112480966Y-60642336D01*
X112679274Y-60536338D01*
X112787107Y-60261712D01*
X111760000Y-59234605D01*
X111745858Y-59248748D01*
X111566253Y-59069143D01*
X111580395Y-59055000D01*
X111939605Y-59055000D01*
X112966712Y-60082107D01*
X113241338Y-59974274D01*
X113392216Y-59667616D01*
X113480369Y-59337415D01*
X113502409Y-58996361D01*
X113457489Y-58657561D01*
X113347336Y-58334034D01*
X113241338Y-58135726D01*
X112966712Y-58027893D01*
X111939605Y-59055000D01*
X111580395Y-59055000D01*
X110553288Y-58027893D01*
X110278662Y-58135726D01*
X110127784Y-58442384D01*
X110039631Y-58772585D01*
X110017591Y-59113639D01*
X110062511Y-59452439D01*
X110172664Y-59775966D01*
X110278662Y-59974274D01*
X110553286Y-60082106D01*
X110525392Y-60110000D01*
X110343740Y-60110000D01*
X110056842Y-60167068D01*
X109786589Y-60279010D01*
X109543368Y-60441525D01*
X109336525Y-60648368D01*
X109174010Y-60891589D01*
X109062068Y-61161842D01*
X109005000Y-61448740D01*
X104800000Y-61448740D01*
X104800000Y-57848288D01*
X110732893Y-57848288D01*
X111760000Y-58875395D01*
X112787107Y-57848288D01*
X112679274Y-57573662D01*
X112372616Y-57422784D01*
X112042415Y-57334631D01*
X111701361Y-57312591D01*
X111362561Y-57357511D01*
X111039034Y-57467664D01*
X110840726Y-57573662D01*
X110732893Y-57848288D01*
X104800000Y-57848288D01*
X104800000Y-56392807D01*
X108892920Y-56392807D01*
X108892920Y-56631353D01*
X108939458Y-56865316D01*
X109030745Y-57085704D01*
X109163274Y-57284048D01*
X109331952Y-57452726D01*
X109530296Y-57585255D01*
X109750684Y-57676542D01*
X109984647Y-57723080D01*
X110223193Y-57723080D01*
X110457156Y-57676542D01*
X110677544Y-57585255D01*
X110875888Y-57452726D01*
X111044566Y-57284048D01*
X111177095Y-57085704D01*
X111268382Y-56865316D01*
X111314920Y-56631353D01*
X111314920Y-56392807D01*
X111268382Y-56158844D01*
X111177095Y-55938456D01*
X111044566Y-55740112D01*
X110875888Y-55571434D01*
X110677544Y-55438905D01*
X110457156Y-55347618D01*
X110223193Y-55301080D01*
X109984647Y-55301080D01*
X109750684Y-55347618D01*
X109530296Y-55438905D01*
X109331952Y-55571434D01*
X109163274Y-55740112D01*
X109030745Y-55938456D01*
X108939458Y-56158844D01*
X108892920Y-56392807D01*
X104800000Y-56392807D01*
X104800000Y-52180727D01*
X188689000Y-52180727D01*
X188689000Y-52419273D01*
X188735538Y-52653236D01*
X188826825Y-52873624D01*
X188959354Y-53071968D01*
X189128032Y-53240646D01*
X189326376Y-53373175D01*
X189546764Y-53464462D01*
X189780727Y-53511000D01*
X190019273Y-53511000D01*
X190253236Y-53464462D01*
X190473624Y-53373175D01*
X190671968Y-53240646D01*
X190840646Y-53071968D01*
X190973175Y-52873624D01*
X191064462Y-52653236D01*
X191111000Y-52419273D01*
X191111000Y-52180727D01*
X191064462Y-51946764D01*
X190973175Y-51726376D01*
X190840646Y-51528032D01*
X190671968Y-51359354D01*
X190473624Y-51226825D01*
X190253236Y-51135538D01*
X190019273Y-51089000D01*
X189780727Y-51089000D01*
X189546764Y-51135538D01*
X189326376Y-51226825D01*
X189128032Y-51359354D01*
X188959354Y-51528032D01*
X188826825Y-51726376D01*
X188735538Y-51946764D01*
X188689000Y-52180727D01*
X104800000Y-52180727D01*
X104800000Y-52102279D01*
X104838909Y-51705455D01*
X104944780Y-51354792D01*
X105116744Y-51031375D01*
X105348254Y-50747516D01*
X105630486Y-50514035D01*
X105952695Y-50339817D01*
X106302614Y-50231498D01*
X106697443Y-50190000D01*
X190467721Y-50190000D01*
X190864545Y-50228909D01*
G37*
%TD.AperFunction*%
D22*
X171403260Y-89294970D02*
X171400188Y-89484220D01*
X171412448Y-89608702D01*
X171448758Y-89728400D01*
X171484870Y-89795959D01*
X170821122Y-89795959D01*
X171480860Y-89136222D01*
X171562008Y-89136222D01*
X171403260Y-89294970D01*
%TA.AperFunction,Conductor*%
D23*
G36*
X171403260Y-89294970D02*
G01*
X171400188Y-89484220D01*
X171412448Y-89608702D01*
X171448758Y-89728400D01*
X171484870Y-89795959D01*
X170821122Y-89795959D01*
X171480860Y-89136222D01*
X171562008Y-89136222D01*
X171403260Y-89294970D01*
G37*
%TD.AperFunction*%
D22*
X172615260Y-88882220D02*
X172635260Y-88882220D01*
X172635260Y-89136220D01*
X172615260Y-89136220D01*
X172615260Y-89156220D01*
X172361260Y-89156220D01*
X172361260Y-89136220D01*
X172341260Y-89136220D01*
X172341260Y-88882220D01*
X172361260Y-88882220D01*
X172361260Y-88862220D01*
X172615260Y-88862220D01*
X172615260Y-88882220D01*
%TA.AperFunction,Conductor*%
D23*
G36*
X172615260Y-88882220D02*
G01*
X172635260Y-88882220D01*
X172635260Y-89136220D01*
X172615260Y-89136220D01*
X172615260Y-89156220D01*
X172361260Y-89156220D01*
X172361260Y-89136220D01*
X172341260Y-89136220D01*
X172341260Y-88882220D01*
X172361260Y-88882220D01*
X172361260Y-88862220D01*
X172615260Y-88862220D01*
X172615260Y-88882220D01*
G37*
%TD.AperFunction*%
D22*
X176991310Y-67086788D02*
X175017379Y-69060720D01*
X174988381Y-69084518D01*
X174964583Y-69113516D01*
X174964582Y-69113517D01*
X174893407Y-69200243D01*
X174822835Y-69332273D01*
X174782786Y-69464302D01*
X174766738Y-69440285D01*
X174399715Y-69073262D01*
X173968141Y-68784893D01*
X173488601Y-68586261D01*
X172979525Y-68485000D01*
X172460475Y-68485000D01*
X171951399Y-68586261D01*
X171471859Y-68784893D01*
X171040285Y-69073262D01*
X170673262Y-69440285D01*
X170384893Y-69871859D01*
X170186261Y-70351399D01*
X170085000Y-70860475D01*
X170085000Y-71379525D01*
X170186261Y-71888601D01*
X170384893Y-72368141D01*
X170673262Y-72799715D01*
X171040285Y-73166738D01*
X171471859Y-73455107D01*
X171951399Y-73653739D01*
X172460475Y-73755000D01*
X172979525Y-73755000D01*
X173488601Y-73653739D01*
X173968141Y-73455107D01*
X174399715Y-73166738D01*
X174766738Y-72799715D01*
X174768381Y-72797255D01*
X174768381Y-76185022D01*
X174582159Y-76147980D01*
X174378281Y-76147980D01*
X174178322Y-76187754D01*
X173989964Y-76265775D01*
X173820446Y-76379043D01*
X173676283Y-76523206D01*
X173563015Y-76692724D01*
X173484994Y-76881082D01*
X173445220Y-77081041D01*
X173445220Y-77284919D01*
X173484994Y-77484878D01*
X173563015Y-77673236D01*
X173676283Y-77842754D01*
X173820446Y-77986917D01*
X173989964Y-78100185D01*
X174178322Y-78178206D01*
X174318371Y-78206063D01*
X174318372Y-81439816D01*
X174263260Y-81434388D01*
X173813260Y-81434388D01*
X173644883Y-81450972D01*
X173482977Y-81500085D01*
X173336909Y-81578160D01*
X173292754Y-81541923D01*
X173182440Y-81482958D01*
X173062742Y-81446648D01*
X172938260Y-81434388D01*
X172774010Y-81437460D01*
X172615260Y-81596210D01*
X172615260Y-82420460D01*
X172635260Y-82420460D01*
X172635260Y-82674460D01*
X172615260Y-82674460D01*
X172615260Y-83498710D01*
X172774010Y-83657460D01*
X172938260Y-83660532D01*
X173013167Y-83653155D01*
X173008340Y-83677421D01*
X173008340Y-83881299D01*
X173048114Y-84081258D01*
X173126135Y-84269616D01*
X173158250Y-84317680D01*
X172034422Y-84317680D01*
X170739202Y-83022460D01*
X171400188Y-83022460D01*
X171412448Y-83146942D01*
X171448758Y-83266640D01*
X171507723Y-83376954D01*
X171587075Y-83473645D01*
X171683766Y-83552997D01*
X171794080Y-83611962D01*
X171913778Y-83648272D01*
X172038260Y-83660532D01*
X172202510Y-83657460D01*
X172361260Y-83498710D01*
X172361260Y-82674460D01*
X171562010Y-82674460D01*
X171403260Y-82833210D01*
X171400188Y-83022460D01*
X170739202Y-83022460D01*
X170454244Y-82737503D01*
X170430441Y-82708499D01*
X170314716Y-82613526D01*
X170182687Y-82542954D01*
X170039426Y-82499497D01*
X169927773Y-82488500D01*
X169927762Y-82488500D01*
X169890440Y-82484824D01*
X169853118Y-82488500D01*
X168562655Y-82488500D01*
X168146615Y-82072460D01*
X171400188Y-82072460D01*
X171403260Y-82261710D01*
X171562010Y-82420460D01*
X172361260Y-82420460D01*
X172361260Y-81596210D01*
X172202510Y-81437460D01*
X172038260Y-81434388D01*
X171913778Y-81446648D01*
X171794080Y-81482958D01*
X171683766Y-81541923D01*
X171587075Y-81621275D01*
X171507723Y-81717966D01*
X171448758Y-81828280D01*
X171412448Y-81947978D01*
X171400188Y-82072460D01*
X168146615Y-82072460D01*
X168117693Y-82043538D01*
X168021002Y-81964186D01*
X167910688Y-81905221D01*
X167790990Y-81868911D01*
X167666508Y-81856651D01*
X167542026Y-81868911D01*
X167422328Y-81905221D01*
X167312014Y-81964186D01*
X167231959Y-82029885D01*
X167208611Y-81952915D01*
X167128854Y-81803701D01*
X167021520Y-81672914D01*
X166667966Y-81319360D01*
X166537179Y-81212026D01*
X166387965Y-81132269D01*
X166226059Y-81083156D01*
X166057682Y-81066572D01*
X165889305Y-81083156D01*
X165727399Y-81132269D01*
X165578185Y-81212026D01*
X165447398Y-81319360D01*
X165129200Y-81637558D01*
X165021866Y-81768345D01*
X164942109Y-81917559D01*
X164894031Y-82076052D01*
X164837185Y-82081651D01*
X164717487Y-82117960D01*
X164607172Y-82176924D01*
X164510481Y-82256277D01*
X164396511Y-82374592D01*
X164396511Y-82599098D01*
X164979344Y-83181931D01*
X164993487Y-83167789D01*
X165173092Y-83347394D01*
X165158949Y-83361536D01*
X165173092Y-83375679D01*
X164993487Y-83555284D01*
X164979344Y-83541141D01*
X164414189Y-84106296D01*
X164414189Y-84330803D01*
X164545837Y-84466795D01*
X164642528Y-84546148D01*
X164688445Y-84570691D01*
X164669738Y-84589123D01*
X164590385Y-84685814D01*
X164531421Y-84796128D01*
X164495112Y-84915826D01*
X164482851Y-85040308D01*
X164495112Y-85164789D01*
X164506500Y-85202332D01*
X164394070Y-85236436D01*
X164283756Y-85295400D01*
X164187065Y-85374753D01*
X164055417Y-85510745D01*
X164055417Y-85735252D01*
X164620572Y-86300407D01*
X165203405Y-85717574D01*
X165203405Y-85626749D01*
X165860557Y-84969597D01*
X165846415Y-84955455D01*
X166026020Y-84775850D01*
X166040162Y-84789992D01*
X166054305Y-84775850D01*
X166233910Y-84955455D01*
X166219767Y-84969597D01*
X166233910Y-84983740D01*
X166054305Y-85163345D01*
X166040162Y-85149202D01*
X165298230Y-85891134D01*
X165298230Y-85981959D01*
X164800177Y-86480012D01*
X164814320Y-86494155D01*
X164634715Y-86673760D01*
X164620572Y-86659617D01*
X164606430Y-86673760D01*
X164426825Y-86494155D01*
X164440967Y-86480012D01*
X163875812Y-85914857D01*
X163651305Y-85914857D01*
X163515313Y-86046505D01*
X163435960Y-86143196D01*
X163376996Y-86253510D01*
X163340687Y-86373208D01*
X163328426Y-86497690D01*
X163336213Y-86576752D01*
X162711260Y-85951799D01*
X162711260Y-83343858D01*
X163687198Y-83343858D01*
X163699459Y-83468340D01*
X163735768Y-83588038D01*
X163794732Y-83698352D01*
X163874085Y-83795043D01*
X164010077Y-83926691D01*
X164234584Y-83926691D01*
X164799739Y-83361536D01*
X164216906Y-82778703D01*
X163992400Y-82778703D01*
X163874085Y-82892673D01*
X163794732Y-82989364D01*
X163735768Y-83099679D01*
X163699459Y-83219377D01*
X163687198Y-83343858D01*
X162711260Y-83343858D01*
X162711260Y-72401681D01*
X167405849Y-67707092D01*
X167277784Y-67967384D01*
X167189631Y-68297585D01*
X167167591Y-68638639D01*
X167212511Y-68977439D01*
X167322664Y-69300966D01*
X167428662Y-69499274D01*
X167703286Y-69607106D01*
X167675392Y-69635000D01*
X167493740Y-69635000D01*
X167206842Y-69692068D01*
X166936589Y-69804010D01*
X166693368Y-69966525D01*
X166486525Y-70173368D01*
X166324010Y-70416589D01*
X166212068Y-70686842D01*
X166155000Y-70973740D01*
X166155000Y-71266260D01*
X166212068Y-71553158D01*
X166324010Y-71823411D01*
X166486525Y-72066632D01*
X166693368Y-72273475D01*
X166936589Y-72435990D01*
X167206842Y-72547932D01*
X167493740Y-72605000D01*
X167786260Y-72605000D01*
X168073158Y-72547932D01*
X168343411Y-72435990D01*
X168586632Y-72273475D01*
X168793475Y-72066632D01*
X168955990Y-71823411D01*
X169067932Y-71553158D01*
X169125000Y-71266260D01*
X169125000Y-70973740D01*
X169067932Y-70686842D01*
X168955990Y-70416589D01*
X168889650Y-70317304D01*
X168968639Y-70322409D01*
X169307439Y-70277489D01*
X169630966Y-70167336D01*
X169829274Y-70061338D01*
X169937107Y-69786712D01*
X168910000Y-68759605D01*
X168895858Y-68773748D01*
X168716253Y-68594143D01*
X168730395Y-68580000D01*
X169089605Y-68580000D01*
X170116712Y-69607107D01*
X170391338Y-69499274D01*
X170542216Y-69192616D01*
X170630369Y-68862415D01*
X170652409Y-68521361D01*
X170607489Y-68182561D01*
X170497336Y-67859034D01*
X170391338Y-67660726D01*
X170116712Y-67552893D01*
X169089605Y-68580000D01*
X168730395Y-68580000D01*
X168716253Y-68565858D01*
X168895858Y-68386253D01*
X168910000Y-68400395D01*
X169937107Y-67373288D01*
X169829274Y-67098662D01*
X169522616Y-66947784D01*
X169192415Y-66859631D01*
X168851361Y-66837591D01*
X168512561Y-66882511D01*
X168189034Y-66992664D01*
X168041326Y-67071615D01*
X168312942Y-66800000D01*
X173696852Y-66800000D01*
X173722463Y-66861831D01*
X173912337Y-67145998D01*
X174154002Y-67387663D01*
X174438169Y-67577537D01*
X174753919Y-67708325D01*
X175089117Y-67775000D01*
X175430883Y-67775000D01*
X175766081Y-67708325D01*
X176081831Y-67577537D01*
X176365998Y-67387663D01*
X176607663Y-67145998D01*
X176797537Y-66861831D01*
X176928325Y-66546081D01*
X176991310Y-66229432D01*
X176991310Y-67086788D01*
%TA.AperFunction,Conductor*%
D23*
G36*
X176991310Y-67086788D02*
G01*
X175017379Y-69060720D01*
X174988381Y-69084518D01*
X174964583Y-69113516D01*
X174964582Y-69113517D01*
X174893407Y-69200243D01*
X174822835Y-69332273D01*
X174782786Y-69464302D01*
X174766738Y-69440285D01*
X174399715Y-69073262D01*
X173968141Y-68784893D01*
X173488601Y-68586261D01*
X172979525Y-68485000D01*
X172460475Y-68485000D01*
X171951399Y-68586261D01*
X171471859Y-68784893D01*
X171040285Y-69073262D01*
X170673262Y-69440285D01*
X170384893Y-69871859D01*
X170186261Y-70351399D01*
X170085000Y-70860475D01*
X170085000Y-71379525D01*
X170186261Y-71888601D01*
X170384893Y-72368141D01*
X170673262Y-72799715D01*
X171040285Y-73166738D01*
X171471859Y-73455107D01*
X171951399Y-73653739D01*
X172460475Y-73755000D01*
X172979525Y-73755000D01*
X173488601Y-73653739D01*
X173968141Y-73455107D01*
X174399715Y-73166738D01*
X174766738Y-72799715D01*
X174768381Y-72797255D01*
X174768381Y-76185022D01*
X174582159Y-76147980D01*
X174378281Y-76147980D01*
X174178322Y-76187754D01*
X173989964Y-76265775D01*
X173820446Y-76379043D01*
X173676283Y-76523206D01*
X173563015Y-76692724D01*
X173484994Y-76881082D01*
X173445220Y-77081041D01*
X173445220Y-77284919D01*
X173484994Y-77484878D01*
X173563015Y-77673236D01*
X173676283Y-77842754D01*
X173820446Y-77986917D01*
X173989964Y-78100185D01*
X174178322Y-78178206D01*
X174318371Y-78206063D01*
X174318372Y-81439816D01*
X174263260Y-81434388D01*
X173813260Y-81434388D01*
X173644883Y-81450972D01*
X173482977Y-81500085D01*
X173336909Y-81578160D01*
X173292754Y-81541923D01*
X173182440Y-81482958D01*
X173062742Y-81446648D01*
X172938260Y-81434388D01*
X172774010Y-81437460D01*
X172615260Y-81596210D01*
X172615260Y-82420460D01*
X172635260Y-82420460D01*
X172635260Y-82674460D01*
X172615260Y-82674460D01*
X172615260Y-83498710D01*
X172774010Y-83657460D01*
X172938260Y-83660532D01*
X173013167Y-83653155D01*
X173008340Y-83677421D01*
X173008340Y-83881299D01*
X173048114Y-84081258D01*
X173126135Y-84269616D01*
X173158250Y-84317680D01*
X172034422Y-84317680D01*
X170739202Y-83022460D01*
X171400188Y-83022460D01*
X171412448Y-83146942D01*
X171448758Y-83266640D01*
X171507723Y-83376954D01*
X171587075Y-83473645D01*
X171683766Y-83552997D01*
X171794080Y-83611962D01*
X171913778Y-83648272D01*
X172038260Y-83660532D01*
X172202510Y-83657460D01*
X172361260Y-83498710D01*
X172361260Y-82674460D01*
X171562010Y-82674460D01*
X171403260Y-82833210D01*
X171400188Y-83022460D01*
X170739202Y-83022460D01*
X170454244Y-82737503D01*
X170430441Y-82708499D01*
X170314716Y-82613526D01*
X170182687Y-82542954D01*
X170039426Y-82499497D01*
X169927773Y-82488500D01*
X169927762Y-82488500D01*
X169890440Y-82484824D01*
X169853118Y-82488500D01*
X168562655Y-82488500D01*
X168146615Y-82072460D01*
X171400188Y-82072460D01*
X171403260Y-82261710D01*
X171562010Y-82420460D01*
X172361260Y-82420460D01*
X172361260Y-81596210D01*
X172202510Y-81437460D01*
X172038260Y-81434388D01*
X171913778Y-81446648D01*
X171794080Y-81482958D01*
X171683766Y-81541923D01*
X171587075Y-81621275D01*
X171507723Y-81717966D01*
X171448758Y-81828280D01*
X171412448Y-81947978D01*
X171400188Y-82072460D01*
X168146615Y-82072460D01*
X168117693Y-82043538D01*
X168021002Y-81964186D01*
X167910688Y-81905221D01*
X167790990Y-81868911D01*
X167666508Y-81856651D01*
X167542026Y-81868911D01*
X167422328Y-81905221D01*
X167312014Y-81964186D01*
X167231959Y-82029885D01*
X167208611Y-81952915D01*
X167128854Y-81803701D01*
X167021520Y-81672914D01*
X166667966Y-81319360D01*
X166537179Y-81212026D01*
X166387965Y-81132269D01*
X166226059Y-81083156D01*
X166057682Y-81066572D01*
X165889305Y-81083156D01*
X165727399Y-81132269D01*
X165578185Y-81212026D01*
X165447398Y-81319360D01*
X165129200Y-81637558D01*
X165021866Y-81768345D01*
X164942109Y-81917559D01*
X164894031Y-82076052D01*
X164837185Y-82081651D01*
X164717487Y-82117960D01*
X164607172Y-82176924D01*
X164510481Y-82256277D01*
X164396511Y-82374592D01*
X164396511Y-82599098D01*
X164979344Y-83181931D01*
X164993487Y-83167789D01*
X165173092Y-83347394D01*
X165158949Y-83361536D01*
X165173092Y-83375679D01*
X164993487Y-83555284D01*
X164979344Y-83541141D01*
X164414189Y-84106296D01*
X164414189Y-84330803D01*
X164545837Y-84466795D01*
X164642528Y-84546148D01*
X164688445Y-84570691D01*
X164669738Y-84589123D01*
X164590385Y-84685814D01*
X164531421Y-84796128D01*
X164495112Y-84915826D01*
X164482851Y-85040308D01*
X164495112Y-85164789D01*
X164506500Y-85202332D01*
X164394070Y-85236436D01*
X164283756Y-85295400D01*
X164187065Y-85374753D01*
X164055417Y-85510745D01*
X164055417Y-85735252D01*
X164620572Y-86300407D01*
X165203405Y-85717574D01*
X165203405Y-85626749D01*
X165860557Y-84969597D01*
X165846415Y-84955455D01*
X166026020Y-84775850D01*
X166040162Y-84789992D01*
X166054305Y-84775850D01*
X166233910Y-84955455D01*
X166219767Y-84969597D01*
X166233910Y-84983740D01*
X166054305Y-85163345D01*
X166040162Y-85149202D01*
X165298230Y-85891134D01*
X165298230Y-85981959D01*
X164800177Y-86480012D01*
X164814320Y-86494155D01*
X164634715Y-86673760D01*
X164620572Y-86659617D01*
X164606430Y-86673760D01*
X164426825Y-86494155D01*
X164440967Y-86480012D01*
X163875812Y-85914857D01*
X163651305Y-85914857D01*
X163515313Y-86046505D01*
X163435960Y-86143196D01*
X163376996Y-86253510D01*
X163340687Y-86373208D01*
X163328426Y-86497690D01*
X163336213Y-86576752D01*
X162711260Y-85951799D01*
X162711260Y-83343858D01*
X163687198Y-83343858D01*
X163699459Y-83468340D01*
X163735768Y-83588038D01*
X163794732Y-83698352D01*
X163874085Y-83795043D01*
X164010077Y-83926691D01*
X164234584Y-83926691D01*
X164799739Y-83361536D01*
X164216906Y-82778703D01*
X163992400Y-82778703D01*
X163874085Y-82892673D01*
X163794732Y-82989364D01*
X163735768Y-83099679D01*
X163699459Y-83219377D01*
X163687198Y-83343858D01*
X162711260Y-83343858D01*
X162711260Y-72401681D01*
X167405849Y-67707092D01*
X167277784Y-67967384D01*
X167189631Y-68297585D01*
X167167591Y-68638639D01*
X167212511Y-68977439D01*
X167322664Y-69300966D01*
X167428662Y-69499274D01*
X167703286Y-69607106D01*
X167675392Y-69635000D01*
X167493740Y-69635000D01*
X167206842Y-69692068D01*
X166936589Y-69804010D01*
X166693368Y-69966525D01*
X166486525Y-70173368D01*
X166324010Y-70416589D01*
X166212068Y-70686842D01*
X166155000Y-70973740D01*
X166155000Y-71266260D01*
X166212068Y-71553158D01*
X166324010Y-71823411D01*
X166486525Y-72066632D01*
X166693368Y-72273475D01*
X166936589Y-72435990D01*
X167206842Y-72547932D01*
X167493740Y-72605000D01*
X167786260Y-72605000D01*
X168073158Y-72547932D01*
X168343411Y-72435990D01*
X168586632Y-72273475D01*
X168793475Y-72066632D01*
X168955990Y-71823411D01*
X169067932Y-71553158D01*
X169125000Y-71266260D01*
X169125000Y-70973740D01*
X169067932Y-70686842D01*
X168955990Y-70416589D01*
X168889650Y-70317304D01*
X168968639Y-70322409D01*
X169307439Y-70277489D01*
X169630966Y-70167336D01*
X169829274Y-70061338D01*
X169937107Y-69786712D01*
X168910000Y-68759605D01*
X168895858Y-68773748D01*
X168716253Y-68594143D01*
X168730395Y-68580000D01*
X169089605Y-68580000D01*
X170116712Y-69607107D01*
X170391338Y-69499274D01*
X170542216Y-69192616D01*
X170630369Y-68862415D01*
X170652409Y-68521361D01*
X170607489Y-68182561D01*
X170497336Y-67859034D01*
X170391338Y-67660726D01*
X170116712Y-67552893D01*
X169089605Y-68580000D01*
X168730395Y-68580000D01*
X168716253Y-68565858D01*
X168895858Y-68386253D01*
X168910000Y-68400395D01*
X169937107Y-67373288D01*
X169829274Y-67098662D01*
X169522616Y-66947784D01*
X169192415Y-66859631D01*
X168851361Y-66837591D01*
X168512561Y-66882511D01*
X168189034Y-66992664D01*
X168041326Y-67071615D01*
X168312942Y-66800000D01*
X173696852Y-66800000D01*
X173722463Y-66861831D01*
X173912337Y-67145998D01*
X174154002Y-67387663D01*
X174438169Y-67577537D01*
X174753919Y-67708325D01*
X175089117Y-67775000D01*
X175430883Y-67775000D01*
X175766081Y-67708325D01*
X176081831Y-67577537D01*
X176365998Y-67387663D01*
X176607663Y-67145998D01*
X176797537Y-66861831D01*
X176928325Y-66546081D01*
X176991310Y-66229432D01*
X176991310Y-67086788D01*
G37*
%TD.AperFunction*%
D22*
X179415440Y-85450680D02*
X179435440Y-85450680D01*
X179435440Y-85704680D01*
X179415440Y-85704680D01*
X179415440Y-85724680D01*
X179161440Y-85724680D01*
X179161440Y-85704680D01*
X179141440Y-85704680D01*
X179141440Y-85450680D01*
X179161440Y-85450680D01*
X179161440Y-85430680D01*
X179415440Y-85430680D01*
X179415440Y-85450680D01*
%TA.AperFunction,Conductor*%
D23*
G36*
X179415440Y-85450680D02*
G01*
X179435440Y-85450680D01*
X179435440Y-85704680D01*
X179415440Y-85704680D01*
X179415440Y-85724680D01*
X179161440Y-85724680D01*
X179161440Y-85704680D01*
X179141440Y-85704680D01*
X179141440Y-85450680D01*
X179161440Y-85450680D01*
X179161440Y-85430680D01*
X179415440Y-85430680D01*
X179415440Y-85450680D01*
G37*
%TD.AperFunction*%
D22*
X168991626Y-84601901D02*
X168977483Y-84616043D01*
X168991626Y-84630186D01*
X168812021Y-84809791D01*
X168797878Y-84795648D01*
X168783736Y-84809791D01*
X168604131Y-84630186D01*
X168618273Y-84616043D01*
X168604131Y-84601901D01*
X168783736Y-84422296D01*
X168797878Y-84436438D01*
X168812021Y-84422296D01*
X168991626Y-84601901D01*
%TA.AperFunction,Conductor*%
D23*
G36*
X168991626Y-84601901D02*
G01*
X168977483Y-84616043D01*
X168991626Y-84630186D01*
X168812021Y-84809791D01*
X168797878Y-84795648D01*
X168783736Y-84809791D01*
X168604131Y-84630186D01*
X168618273Y-84616043D01*
X168604131Y-84601901D01*
X168783736Y-84422296D01*
X168797878Y-84436438D01*
X168812021Y-84422296D01*
X168991626Y-84601901D01*
G37*
%TD.AperFunction*%
D22*
X186321670Y-80513262D02*
X186400849Y-80661395D01*
X186507405Y-80791235D01*
X186637245Y-80897791D01*
X186785378Y-80976970D01*
X186946112Y-81025728D01*
X187113270Y-81042192D01*
X187370291Y-81042192D01*
X187738481Y-81410383D01*
X187738481Y-81664959D01*
X187720270Y-81665300D01*
X187561520Y-81824050D01*
X187561520Y-82648300D01*
X187581520Y-82648300D01*
X187581520Y-82902300D01*
X187561520Y-82902300D01*
X187561520Y-84200240D01*
X187581520Y-84200240D01*
X187581520Y-84454240D01*
X187561520Y-84454240D01*
X187561520Y-84474240D01*
X187307520Y-84474240D01*
X187307520Y-84454240D01*
X187287520Y-84454240D01*
X187287520Y-84200240D01*
X187307520Y-84200240D01*
X187307520Y-82902300D01*
X187287520Y-82902300D01*
X187287520Y-82648300D01*
X187307520Y-82648300D01*
X187307520Y-81824050D01*
X187148770Y-81665300D01*
X186984520Y-81662228D01*
X186860038Y-81674488D01*
X186740340Y-81710798D01*
X186630026Y-81769763D01*
X186585871Y-81806000D01*
X186439803Y-81727925D01*
X186277897Y-81678812D01*
X186109520Y-81662228D01*
X186050069Y-81662228D01*
X186051317Y-81649560D01*
X186047520Y-81611004D01*
X186047520Y-80854521D01*
X186124635Y-80791235D01*
X186231191Y-80661395D01*
X186310370Y-80513262D01*
X186316020Y-80494636D01*
X186321670Y-80513262D01*
%TA.AperFunction,Conductor*%
D23*
G36*
X186321670Y-80513262D02*
G01*
X186400849Y-80661395D01*
X186507405Y-80791235D01*
X186637245Y-80897791D01*
X186785378Y-80976970D01*
X186946112Y-81025728D01*
X187113270Y-81042192D01*
X187370291Y-81042192D01*
X187738481Y-81410383D01*
X187738481Y-81664959D01*
X187720270Y-81665300D01*
X187561520Y-81824050D01*
X187561520Y-82648300D01*
X187581520Y-82648300D01*
X187581520Y-82902300D01*
X187561520Y-82902300D01*
X187561520Y-84200240D01*
X187581520Y-84200240D01*
X187581520Y-84454240D01*
X187561520Y-84454240D01*
X187561520Y-84474240D01*
X187307520Y-84474240D01*
X187307520Y-84454240D01*
X187287520Y-84454240D01*
X187287520Y-84200240D01*
X187307520Y-84200240D01*
X187307520Y-82902300D01*
X187287520Y-82902300D01*
X187287520Y-82648300D01*
X187307520Y-82648300D01*
X187307520Y-81824050D01*
X187148770Y-81665300D01*
X186984520Y-81662228D01*
X186860038Y-81674488D01*
X186740340Y-81710798D01*
X186630026Y-81769763D01*
X186585871Y-81806000D01*
X186439803Y-81727925D01*
X186277897Y-81678812D01*
X186109520Y-81662228D01*
X186050069Y-81662228D01*
X186051317Y-81649560D01*
X186047520Y-81611004D01*
X186047520Y-80854521D01*
X186124635Y-80791235D01*
X186231191Y-80661395D01*
X186310370Y-80513262D01*
X186316020Y-80494636D01*
X186321670Y-80513262D01*
G37*
%TD.AperFunction*%
D22*
X186305018Y-79073300D02*
X186363983Y-79183614D01*
X186418620Y-79250190D01*
X186400849Y-79271845D01*
X186321670Y-79419978D01*
X186316020Y-79438604D01*
X186310370Y-79419978D01*
X186231191Y-79271845D01*
X186155094Y-79179120D01*
X186231191Y-79086395D01*
X186280823Y-78993540D01*
X186305018Y-79073300D01*
%TA.AperFunction,Conductor*%
D23*
G36*
X186305018Y-79073300D02*
G01*
X186363983Y-79183614D01*
X186418620Y-79250190D01*
X186400849Y-79271845D01*
X186321670Y-79419978D01*
X186316020Y-79438604D01*
X186310370Y-79419978D01*
X186231191Y-79271845D01*
X186155094Y-79179120D01*
X186231191Y-79086395D01*
X186280823Y-78993540D01*
X186305018Y-79073300D01*
G37*
%TD.AperFunction*%
D22*
X178588026Y-69112157D02*
X178757544Y-69225425D01*
X178945902Y-69303446D01*
X179145861Y-69343220D01*
X179349739Y-69343220D01*
X179549698Y-69303446D01*
X179738056Y-69225425D01*
X179907574Y-69112157D01*
X179931191Y-69088540D01*
X180588635Y-69088540D01*
X180615394Y-69121146D01*
X180742392Y-69225371D01*
X180887284Y-69302818D01*
X181044500Y-69350509D01*
X181208000Y-69366612D01*
X181758000Y-69366612D01*
X181921500Y-69350509D01*
X182078716Y-69302818D01*
X182223608Y-69225371D01*
X182300235Y-69162485D01*
X182401012Y-69245191D01*
X182545904Y-69322638D01*
X182703120Y-69370329D01*
X182866620Y-69386432D01*
X183104891Y-69386432D01*
X183328458Y-69610000D01*
X182419688Y-69610000D01*
X182382365Y-69606324D01*
X182345043Y-69610000D01*
X182345033Y-69610000D01*
X182233380Y-69620997D01*
X182098423Y-69661935D01*
X182090119Y-69664454D01*
X181958089Y-69735026D01*
X181874449Y-69803668D01*
X181842365Y-69829999D01*
X181818567Y-69858997D01*
X179782724Y-71894841D01*
X179753726Y-71918639D01*
X179729928Y-71947637D01*
X179729927Y-71947638D01*
X179658752Y-72034364D01*
X179588180Y-72166394D01*
X179568053Y-72232746D01*
X179544724Y-72309654D01*
X179538338Y-72374494D01*
X179530050Y-72458640D01*
X179533727Y-72495972D01*
X179533726Y-77323968D01*
X179427140Y-77323968D01*
X179263640Y-77340071D01*
X179106424Y-77387762D01*
X178961532Y-77465209D01*
X178834534Y-77569434D01*
X178730309Y-77696432D01*
X178678611Y-77793152D01*
X178658762Y-77727720D01*
X178599797Y-77617406D01*
X178520445Y-77520715D01*
X178423754Y-77441363D01*
X178313440Y-77382398D01*
X178193742Y-77346088D01*
X178069260Y-77333828D01*
X177880010Y-77336900D01*
X177721260Y-77495650D01*
X177721260Y-78294900D01*
X177741260Y-78294900D01*
X177741260Y-78548900D01*
X177721260Y-78548900D01*
X177721260Y-78568900D01*
X177467260Y-78568900D01*
X177467260Y-78548900D01*
X177447260Y-78548900D01*
X177447260Y-78294900D01*
X177467260Y-78294900D01*
X177467260Y-77495650D01*
X177308510Y-77336900D01*
X177188400Y-77334950D01*
X177188400Y-72474019D01*
X177366842Y-72547932D01*
X177653740Y-72605000D01*
X177946260Y-72605000D01*
X178233158Y-72547932D01*
X178503411Y-72435990D01*
X178746632Y-72273475D01*
X178953475Y-72066632D01*
X179115990Y-71823411D01*
X179227932Y-71553158D01*
X179285000Y-71266260D01*
X179285000Y-70973740D01*
X179227932Y-70686842D01*
X179115990Y-70416589D01*
X178953475Y-70173368D01*
X178746632Y-69966525D01*
X178503411Y-69804010D01*
X178233158Y-69692068D01*
X177946260Y-69635000D01*
X177865521Y-69635000D01*
X178488195Y-69012326D01*
X178588026Y-69112157D01*
%TA.AperFunction,Conductor*%
D23*
G36*
X178588026Y-69112157D02*
G01*
X178757544Y-69225425D01*
X178945902Y-69303446D01*
X179145861Y-69343220D01*
X179349739Y-69343220D01*
X179549698Y-69303446D01*
X179738056Y-69225425D01*
X179907574Y-69112157D01*
X179931191Y-69088540D01*
X180588635Y-69088540D01*
X180615394Y-69121146D01*
X180742392Y-69225371D01*
X180887284Y-69302818D01*
X181044500Y-69350509D01*
X181208000Y-69366612D01*
X181758000Y-69366612D01*
X181921500Y-69350509D01*
X182078716Y-69302818D01*
X182223608Y-69225371D01*
X182300235Y-69162485D01*
X182401012Y-69245191D01*
X182545904Y-69322638D01*
X182703120Y-69370329D01*
X182866620Y-69386432D01*
X183104891Y-69386432D01*
X183328458Y-69610000D01*
X182419688Y-69610000D01*
X182382365Y-69606324D01*
X182345043Y-69610000D01*
X182345033Y-69610000D01*
X182233380Y-69620997D01*
X182098423Y-69661935D01*
X182090119Y-69664454D01*
X181958089Y-69735026D01*
X181874449Y-69803668D01*
X181842365Y-69829999D01*
X181818567Y-69858997D01*
X179782724Y-71894841D01*
X179753726Y-71918639D01*
X179729928Y-71947637D01*
X179729927Y-71947638D01*
X179658752Y-72034364D01*
X179588180Y-72166394D01*
X179568053Y-72232746D01*
X179544724Y-72309654D01*
X179538338Y-72374494D01*
X179530050Y-72458640D01*
X179533727Y-72495972D01*
X179533726Y-77323968D01*
X179427140Y-77323968D01*
X179263640Y-77340071D01*
X179106424Y-77387762D01*
X178961532Y-77465209D01*
X178834534Y-77569434D01*
X178730309Y-77696432D01*
X178678611Y-77793152D01*
X178658762Y-77727720D01*
X178599797Y-77617406D01*
X178520445Y-77520715D01*
X178423754Y-77441363D01*
X178313440Y-77382398D01*
X178193742Y-77346088D01*
X178069260Y-77333828D01*
X177880010Y-77336900D01*
X177721260Y-77495650D01*
X177721260Y-78294900D01*
X177741260Y-78294900D01*
X177741260Y-78548900D01*
X177721260Y-78548900D01*
X177721260Y-78568900D01*
X177467260Y-78568900D01*
X177467260Y-78548900D01*
X177447260Y-78548900D01*
X177447260Y-78294900D01*
X177467260Y-78294900D01*
X177467260Y-77495650D01*
X177308510Y-77336900D01*
X177188400Y-77334950D01*
X177188400Y-72474019D01*
X177366842Y-72547932D01*
X177653740Y-72605000D01*
X177946260Y-72605000D01*
X178233158Y-72547932D01*
X178503411Y-72435990D01*
X178746632Y-72273475D01*
X178953475Y-72066632D01*
X179115990Y-71823411D01*
X179227932Y-71553158D01*
X179285000Y-71266260D01*
X179285000Y-70973740D01*
X179227932Y-70686842D01*
X179115990Y-70416589D01*
X178953475Y-70173368D01*
X178746632Y-69966525D01*
X178503411Y-69804010D01*
X178233158Y-69692068D01*
X177946260Y-69635000D01*
X177865521Y-69635000D01*
X178488195Y-69012326D01*
X178588026Y-69112157D01*
G37*
%TD.AperFunction*%
D22*
X183440800Y-71702438D02*
X183437124Y-71739760D01*
X183440800Y-71777082D01*
X183440800Y-71777093D01*
X183451797Y-71888746D01*
X183495254Y-72032007D01*
X183496514Y-72034364D01*
X183564201Y-72160996D01*
X182827098Y-72898100D01*
X182703120Y-72910311D01*
X182545904Y-72958002D01*
X182401012Y-73035449D01*
X182274014Y-73139674D01*
X182169789Y-73266672D01*
X182092342Y-73411564D01*
X182044651Y-73568780D01*
X182028548Y-73732280D01*
X182028548Y-74132280D01*
X182044651Y-74295780D01*
X182092342Y-74452996D01*
X182169789Y-74597888D01*
X182253483Y-74699870D01*
X182215435Y-74731095D01*
X182136083Y-74827786D01*
X182077118Y-74938100D01*
X182040808Y-75057798D01*
X182028548Y-75182280D01*
X182031620Y-75296530D01*
X182190370Y-75455280D01*
X183014620Y-75455280D01*
X183014620Y-75435280D01*
X183268620Y-75435280D01*
X183268620Y-75455280D01*
X184092870Y-75455280D01*
X184251620Y-75296530D01*
X184254692Y-75182280D01*
X184250421Y-75138917D01*
X184325506Y-75200537D01*
X184435820Y-75259502D01*
X184555518Y-75295812D01*
X184680000Y-75308072D01*
X184797790Y-75307248D01*
X184801837Y-75313000D01*
X186193000Y-75313000D01*
X186193000Y-75301867D01*
X186254482Y-75295812D01*
X186263752Y-75293000D01*
X186447000Y-75293000D01*
X186447000Y-75313000D01*
X186467000Y-75313000D01*
X186467000Y-75567000D01*
X186447000Y-75567000D01*
X186447000Y-75587000D01*
X186193000Y-75587000D01*
X186193000Y-75567000D01*
X184801837Y-75567000D01*
X184676036Y-75745810D01*
X184759937Y-75978864D01*
X184884953Y-76170441D01*
X185044941Y-76333947D01*
X185233754Y-76463099D01*
X185444135Y-76552934D01*
X185668000Y-76600000D01*
X186310843Y-76600000D01*
X185587978Y-77322865D01*
X185518770Y-77316048D01*
X185006270Y-77316048D01*
X184839112Y-77332512D01*
X184678378Y-77381270D01*
X184530245Y-77460449D01*
X184415213Y-77554853D01*
X184372605Y-77502935D01*
X184275914Y-77423583D01*
X184165600Y-77364618D01*
X184045902Y-77328308D01*
X183921420Y-77316048D01*
X183732170Y-77319120D01*
X183573420Y-77477870D01*
X183573420Y-78277120D01*
X183593420Y-78277120D01*
X183593420Y-78531120D01*
X183573420Y-78531120D01*
X183573420Y-78551120D01*
X183319420Y-78551120D01*
X183319420Y-78531120D01*
X183299420Y-78531120D01*
X183299420Y-78277120D01*
X183319420Y-78277120D01*
X183319420Y-77477870D01*
X183160670Y-77319120D01*
X182971420Y-77316048D01*
X182846938Y-77328308D01*
X182727240Y-77364618D01*
X182616926Y-77423583D01*
X182520235Y-77502935D01*
X182440883Y-77599626D01*
X182381918Y-77709940D01*
X182375563Y-77730891D01*
X182357144Y-77696432D01*
X182252919Y-77569434D01*
X182125921Y-77465209D01*
X181981029Y-77387762D01*
X181823813Y-77340071D01*
X181660313Y-77323968D01*
X181553726Y-77323968D01*
X181553726Y-75982280D01*
X182028548Y-75982280D01*
X182040808Y-76106762D01*
X182077118Y-76226460D01*
X182136083Y-76336774D01*
X182215435Y-76433465D01*
X182312126Y-76512817D01*
X182422440Y-76571782D01*
X182542138Y-76608092D01*
X182666620Y-76620352D01*
X182855870Y-76617280D01*
X183014620Y-76458530D01*
X183014620Y-75709280D01*
X183268620Y-75709280D01*
X183268620Y-76458530D01*
X183427370Y-76617280D01*
X183616620Y-76620352D01*
X183741102Y-76608092D01*
X183860800Y-76571782D01*
X183971114Y-76512817D01*
X184067805Y-76433465D01*
X184147157Y-76336774D01*
X184206122Y-76226460D01*
X184242432Y-76106762D01*
X184254692Y-75982280D01*
X184251620Y-75868030D01*
X184092870Y-75709280D01*
X183268620Y-75709280D01*
X183014620Y-75709280D01*
X182190370Y-75709280D01*
X182031620Y-75868030D01*
X182028548Y-75982280D01*
X181553726Y-75982280D01*
X181553726Y-72980549D01*
X182904276Y-71630000D01*
X183440800Y-71630000D01*
X183440800Y-71702438D01*
%TA.AperFunction,Conductor*%
D23*
G36*
X183440800Y-71702438D02*
G01*
X183437124Y-71739760D01*
X183440800Y-71777082D01*
X183440800Y-71777093D01*
X183451797Y-71888746D01*
X183495254Y-72032007D01*
X183496514Y-72034364D01*
X183564201Y-72160996D01*
X182827098Y-72898100D01*
X182703120Y-72910311D01*
X182545904Y-72958002D01*
X182401012Y-73035449D01*
X182274014Y-73139674D01*
X182169789Y-73266672D01*
X182092342Y-73411564D01*
X182044651Y-73568780D01*
X182028548Y-73732280D01*
X182028548Y-74132280D01*
X182044651Y-74295780D01*
X182092342Y-74452996D01*
X182169789Y-74597888D01*
X182253483Y-74699870D01*
X182215435Y-74731095D01*
X182136083Y-74827786D01*
X182077118Y-74938100D01*
X182040808Y-75057798D01*
X182028548Y-75182280D01*
X182031620Y-75296530D01*
X182190370Y-75455280D01*
X183014620Y-75455280D01*
X183014620Y-75435280D01*
X183268620Y-75435280D01*
X183268620Y-75455280D01*
X184092870Y-75455280D01*
X184251620Y-75296530D01*
X184254692Y-75182280D01*
X184250421Y-75138917D01*
X184325506Y-75200537D01*
X184435820Y-75259502D01*
X184555518Y-75295812D01*
X184680000Y-75308072D01*
X184797790Y-75307248D01*
X184801837Y-75313000D01*
X186193000Y-75313000D01*
X186193000Y-75301867D01*
X186254482Y-75295812D01*
X186263752Y-75293000D01*
X186447000Y-75293000D01*
X186447000Y-75313000D01*
X186467000Y-75313000D01*
X186467000Y-75567000D01*
X186447000Y-75567000D01*
X186447000Y-75587000D01*
X186193000Y-75587000D01*
X186193000Y-75567000D01*
X184801837Y-75567000D01*
X184676036Y-75745810D01*
X184759937Y-75978864D01*
X184884953Y-76170441D01*
X185044941Y-76333947D01*
X185233754Y-76463099D01*
X185444135Y-76552934D01*
X185668000Y-76600000D01*
X186310843Y-76600000D01*
X185587978Y-77322865D01*
X185518770Y-77316048D01*
X185006270Y-77316048D01*
X184839112Y-77332512D01*
X184678378Y-77381270D01*
X184530245Y-77460449D01*
X184415213Y-77554853D01*
X184372605Y-77502935D01*
X184275914Y-77423583D01*
X184165600Y-77364618D01*
X184045902Y-77328308D01*
X183921420Y-77316048D01*
X183732170Y-77319120D01*
X183573420Y-77477870D01*
X183573420Y-78277120D01*
X183593420Y-78277120D01*
X183593420Y-78531120D01*
X183573420Y-78531120D01*
X183573420Y-78551120D01*
X183319420Y-78551120D01*
X183319420Y-78531120D01*
X183299420Y-78531120D01*
X183299420Y-78277120D01*
X183319420Y-78277120D01*
X183319420Y-77477870D01*
X183160670Y-77319120D01*
X182971420Y-77316048D01*
X182846938Y-77328308D01*
X182727240Y-77364618D01*
X182616926Y-77423583D01*
X182520235Y-77502935D01*
X182440883Y-77599626D01*
X182381918Y-77709940D01*
X182375563Y-77730891D01*
X182357144Y-77696432D01*
X182252919Y-77569434D01*
X182125921Y-77465209D01*
X181981029Y-77387762D01*
X181823813Y-77340071D01*
X181660313Y-77323968D01*
X181553726Y-77323968D01*
X181553726Y-75982280D01*
X182028548Y-75982280D01*
X182040808Y-76106762D01*
X182077118Y-76226460D01*
X182136083Y-76336774D01*
X182215435Y-76433465D01*
X182312126Y-76512817D01*
X182422440Y-76571782D01*
X182542138Y-76608092D01*
X182666620Y-76620352D01*
X182855870Y-76617280D01*
X183014620Y-76458530D01*
X183014620Y-75709280D01*
X183268620Y-75709280D01*
X183268620Y-76458530D01*
X183427370Y-76617280D01*
X183616620Y-76620352D01*
X183741102Y-76608092D01*
X183860800Y-76571782D01*
X183971114Y-76512817D01*
X184067805Y-76433465D01*
X184147157Y-76336774D01*
X184206122Y-76226460D01*
X184242432Y-76106762D01*
X184254692Y-75982280D01*
X184251620Y-75868030D01*
X184092870Y-75709280D01*
X183268620Y-75709280D01*
X183014620Y-75709280D01*
X182190370Y-75709280D01*
X182031620Y-75868030D01*
X182028548Y-75982280D01*
X181553726Y-75982280D01*
X181553726Y-72980549D01*
X182904276Y-71630000D01*
X183440800Y-71630000D01*
X183440800Y-71702438D01*
G37*
%TD.AperFunction*%
%TD*%
M02*
