M48
; DRILL file {KiCad 5.1.7-a382d34a8~88~ubuntu20.04.1} date Thu Mar 25 19:52:22 2021
; FORMAT={-:-/ absolute / inch / decimal}
; #@! TF.CreationDate,2021-03-25T19:52:22+01:00
; #@! TF.GenerationSoftware,Kicad,Pcbnew,5.1.7-a382d34a8~88~ubuntu20.04.1
; #@! TF.FileFunction,NonPlated,1,2,NPTH
FMAT,2
INCH
T1C0.0276
T2C0.0454
T3C0.0669
T4C0.1575
%
G90
G05
T1
X7.3563Y-2.6862
X7.3563Y-2.9138
T2
X4.3348Y-2.2249
X4.3348Y-3.3733
X7.4764Y-2.0591
T3
X4.35Y-2.425
X4.75Y-2.425
X5.85Y-3.175
X6.25Y-3.175
X4.35Y-3.175
X4.75Y-3.175
X5.85Y-2.425
X6.25Y-2.425
X6.6Y-2.8
X7.0Y-2.8
X5.1Y-2.425
X5.5Y-2.425
X5.1Y-3.175
X5.5Y-3.175
T4
X5.3Y-2.425
X5.3Y-3.175
X4.55Y-2.425
X6.05Y-3.175
X4.55Y-3.175
X6.05Y-2.425
X6.8Y-2.8
T0
M30
