%TF.GenerationSoftware,KiCad,Pcbnew,5.1.7-a382d34a8~88~ubuntu20.04.1*%
%TF.CreationDate,2021-03-25T19:52:25+01:00*%
%TF.ProjectId,launchpad,6c61756e-6368-4706-9164-2e6b69636164,rev?*%
%TF.SameCoordinates,Original*%
%TF.FileFunction,Soldermask,Bot*%
%TF.FilePolarity,Negative*%
%FSLAX46Y46*%
G04 Gerber Fmt 4.6, Leading zero omitted, Abs format (unit mm)*
G04 Created by KiCad (PCBNEW 5.1.7-a382d34a8~88~ubuntu20.04.1) date 2021-03-25 19:52:25*
%MOMM*%
%LPD*%
G01*
G04 APERTURE LIST*
%ADD10O,1.700000X1.700000*%
%ADD11R,1.700000X1.700000*%
%ADD12C,1.700000*%
%ADD13C,4.000000*%
%ADD14C,2.200000*%
%ADD15C,1.152000*%
%ADD16C,4.400000*%
%ADD17O,2.100000X1.050000*%
%ADD18C,0.700000*%
G04 APERTURE END LIST*
D10*
%TO.C,J2*%
X186636660Y-62931040D03*
X184096660Y-62931040D03*
X186636660Y-60391040D03*
X184096660Y-60391040D03*
X186636660Y-57851040D03*
D11*
X184096660Y-57851040D03*
%TD*%
D12*
%TO.C,SW0*%
X120650000Y-61595000D03*
X110490000Y-61595000D03*
D13*
X115570000Y-61595000D03*
D14*
X111760000Y-59055000D03*
X118110000Y-56515000D03*
%TD*%
D15*
%TO.C,REF\u002A\u002A*%
X189900000Y-52300000D03*
%TD*%
%TO.C,REF\u002A\u002A*%
X110103920Y-85682200D03*
%TD*%
%TO.C,REF\u002A\u002A*%
X110103920Y-56512080D03*
%TD*%
D16*
%TO.C,H3*%
X174058580Y-58070161D03*
%TD*%
%TO.C,H2*%
X125064520Y-58070161D03*
%TD*%
%TO.C,H1*%
X125064520Y-84825840D03*
%TD*%
D12*
%TO.C,SW6*%
X177800000Y-71120000D03*
X167640000Y-71120000D03*
D13*
X172720000Y-71120000D03*
D14*
X168910000Y-68580000D03*
X175260000Y-66040000D03*
%TD*%
D17*
%TO.C,J1*%
X186320000Y-75440000D03*
X186320000Y-66800000D03*
X190500000Y-75440000D03*
X190500000Y-66800000D03*
D18*
X186850000Y-74010000D03*
X186850000Y-68230000D03*
%TD*%
D12*
%TO.C,SW1*%
X120650000Y-80645000D03*
X110490000Y-80645000D03*
D13*
X115570000Y-80645000D03*
D14*
X111760000Y-78105000D03*
X118110000Y-75565000D03*
%TD*%
D12*
%TO.C,SW2*%
X139700000Y-61595000D03*
X129540000Y-61595000D03*
D13*
X134620000Y-61595000D03*
D14*
X130810000Y-59055000D03*
X137160000Y-56515000D03*
%TD*%
%TO.C,SW3*%
X137160000Y-75565000D03*
X130810000Y-78105000D03*
D13*
X134620000Y-80645000D03*
D12*
X129540000Y-80645000D03*
X139700000Y-80645000D03*
%TD*%
D14*
%TO.C,SW4*%
X156210000Y-56515000D03*
X149860000Y-59055000D03*
D13*
X153670000Y-61595000D03*
D12*
X148590000Y-61595000D03*
X158750000Y-61595000D03*
%TD*%
%TO.C,SW5*%
X158750000Y-80645000D03*
X148590000Y-80645000D03*
D13*
X153670000Y-80645000D03*
D14*
X149860000Y-78105000D03*
X156210000Y-75565000D03*
%TD*%
M02*
