%TF.GenerationSoftware,KiCad,Pcbnew,5.1.7-a382d34a8~88~ubuntu20.04.1*%
%TF.CreationDate,2021-03-24T20:19:51+01:00*%
%TF.ProjectId,launchpad,6c61756e-6368-4706-9164-2e6b69636164,rev?*%
%TF.SameCoordinates,Original*%
%TF.FileFunction,Paste,Top*%
%TF.FilePolarity,Positive*%
%FSLAX46Y46*%
G04 Gerber Fmt 4.6, Leading zero omitted, Abs format (unit mm)*
G04 Created by KiCad (PCBNEW 5.1.7-a382d34a8~88~ubuntu20.04.1) date 2021-03-24 20:19:51*
%MOMM*%
%LPD*%
G01*
G04 APERTURE LIST*
%ADD10R,1.450000X0.600000*%
%ADD11R,1.450000X0.300000*%
%ADD12C,0.100000*%
G04 APERTURE END LIST*
D10*
%TO.C,J1*%
X185405000Y-74370000D03*
X185405000Y-73570000D03*
D11*
X185405000Y-71370000D03*
X185405000Y-71870000D03*
X185405000Y-72370000D03*
X185405000Y-72870000D03*
X185405000Y-70870000D03*
X185405000Y-70370000D03*
X185405000Y-69870000D03*
X185405000Y-69370000D03*
D10*
X185405000Y-68670000D03*
X185405000Y-67870000D03*
%TD*%
%TO.C,D2*%
G36*
G01*
X187113270Y-77954120D02*
X187625770Y-77954120D01*
G75*
G02*
X187844520Y-78172870I0J-218750D01*
G01*
X187844520Y-78610370D01*
G75*
G02*
X187625770Y-78829120I-218750J0D01*
G01*
X187113270Y-78829120D01*
G75*
G02*
X186894520Y-78610370I0J218750D01*
G01*
X186894520Y-78172870D01*
G75*
G02*
X187113270Y-77954120I218750J0D01*
G01*
G37*
G36*
G01*
X187113270Y-79529120D02*
X187625770Y-79529120D01*
G75*
G02*
X187844520Y-79747870I0J-218750D01*
G01*
X187844520Y-80185370D01*
G75*
G02*
X187625770Y-80404120I-218750J0D01*
G01*
X187113270Y-80404120D01*
G75*
G02*
X186894520Y-80185370I0J218750D01*
G01*
X186894520Y-79747870D01*
G75*
G02*
X187113270Y-79529120I218750J0D01*
G01*
G37*
%TD*%
%TO.C,C1*%
G36*
G01*
X185434520Y-84577240D02*
X185434520Y-84077240D01*
G75*
G02*
X185659520Y-83852240I225000J0D01*
G01*
X186109520Y-83852240D01*
G75*
G02*
X186334520Y-84077240I0J-225000D01*
G01*
X186334520Y-84577240D01*
G75*
G02*
X186109520Y-84802240I-225000J0D01*
G01*
X185659520Y-84802240D01*
G75*
G02*
X185434520Y-84577240I0J225000D01*
G01*
G37*
G36*
G01*
X186984520Y-84577240D02*
X186984520Y-84077240D01*
G75*
G02*
X187209520Y-83852240I225000J0D01*
G01*
X187659520Y-83852240D01*
G75*
G02*
X187884520Y-84077240I0J-225000D01*
G01*
X187884520Y-84577240D01*
G75*
G02*
X187659520Y-84802240I-225000J0D01*
G01*
X187209520Y-84802240D01*
G75*
G02*
X186984520Y-84577240I0J225000D01*
G01*
G37*
%TD*%
%TO.C,C2*%
G36*
G01*
X177844260Y-80421900D02*
X177344260Y-80421900D01*
G75*
G02*
X177119260Y-80196900I0J225000D01*
G01*
X177119260Y-79746900D01*
G75*
G02*
X177344260Y-79521900I225000J0D01*
G01*
X177844260Y-79521900D01*
G75*
G02*
X178069260Y-79746900I0J-225000D01*
G01*
X178069260Y-80196900D01*
G75*
G02*
X177844260Y-80421900I-225000J0D01*
G01*
G37*
G36*
G01*
X177844260Y-78871900D02*
X177344260Y-78871900D01*
G75*
G02*
X177119260Y-78646900I0J225000D01*
G01*
X177119260Y-78196900D01*
G75*
G02*
X177344260Y-77971900I225000J0D01*
G01*
X177844260Y-77971900D01*
G75*
G02*
X178069260Y-78196900I0J-225000D01*
G01*
X178069260Y-78646900D01*
G75*
G02*
X177844260Y-78871900I-225000J0D01*
G01*
G37*
%TD*%
%TO.C,C3*%
G36*
G01*
X172938260Y-82297460D02*
X172938260Y-82797460D01*
G75*
G02*
X172713260Y-83022460I-225000J0D01*
G01*
X172263260Y-83022460D01*
G75*
G02*
X172038260Y-82797460I0J225000D01*
G01*
X172038260Y-82297460D01*
G75*
G02*
X172263260Y-82072460I225000J0D01*
G01*
X172713260Y-82072460D01*
G75*
G02*
X172938260Y-82297460I0J-225000D01*
G01*
G37*
G36*
G01*
X174488260Y-82297460D02*
X174488260Y-82797460D01*
G75*
G02*
X174263260Y-83022460I-225000J0D01*
G01*
X173813260Y-83022460D01*
G75*
G02*
X173588260Y-82797460I0J225000D01*
G01*
X173588260Y-82297460D01*
G75*
G02*
X173813260Y-82072460I225000J0D01*
G01*
X174263260Y-82072460D01*
G75*
G02*
X174488260Y-82297460I0J-225000D01*
G01*
G37*
%TD*%
%TO.C,C4*%
G36*
G01*
X186984520Y-87681120D02*
X186984520Y-87181120D01*
G75*
G02*
X187209520Y-86956120I225000J0D01*
G01*
X187659520Y-86956120D01*
G75*
G02*
X187884520Y-87181120I0J-225000D01*
G01*
X187884520Y-87681120D01*
G75*
G02*
X187659520Y-87906120I-225000J0D01*
G01*
X187209520Y-87906120D01*
G75*
G02*
X186984520Y-87681120I0J225000D01*
G01*
G37*
G36*
G01*
X185434520Y-87681120D02*
X185434520Y-87181120D01*
G75*
G02*
X185659520Y-86956120I225000J0D01*
G01*
X186109520Y-86956120D01*
G75*
G02*
X186334520Y-87181120I0J-225000D01*
G01*
X186334520Y-87681120D01*
G75*
G02*
X186109520Y-87906120I-225000J0D01*
G01*
X185659520Y-87906120D01*
G75*
G02*
X185434520Y-87681120I0J225000D01*
G01*
G37*
%TD*%
%TO.C,C5*%
G36*
G01*
X172938260Y-88759220D02*
X172938260Y-89259220D01*
G75*
G02*
X172713260Y-89484220I-225000J0D01*
G01*
X172263260Y-89484220D01*
G75*
G02*
X172038260Y-89259220I0J225000D01*
G01*
X172038260Y-88759220D01*
G75*
G02*
X172263260Y-88534220I225000J0D01*
G01*
X172713260Y-88534220D01*
G75*
G02*
X172938260Y-88759220I0J-225000D01*
G01*
G37*
G36*
G01*
X174488260Y-88759220D02*
X174488260Y-89259220D01*
G75*
G02*
X174263260Y-89484220I-225000J0D01*
G01*
X173813260Y-89484220D01*
G75*
G02*
X173588260Y-89259220I0J225000D01*
G01*
X173588260Y-88759220D01*
G75*
G02*
X173813260Y-88534220I225000J0D01*
G01*
X174263260Y-88534220D01*
G75*
G02*
X174488260Y-88759220I0J-225000D01*
G01*
G37*
%TD*%
%TO.C,C6*%
G36*
G01*
X185434520Y-83025300D02*
X185434520Y-82525300D01*
G75*
G02*
X185659520Y-82300300I225000J0D01*
G01*
X186109520Y-82300300D01*
G75*
G02*
X186334520Y-82525300I0J-225000D01*
G01*
X186334520Y-83025300D01*
G75*
G02*
X186109520Y-83250300I-225000J0D01*
G01*
X185659520Y-83250300D01*
G75*
G02*
X185434520Y-83025300I0J225000D01*
G01*
G37*
G36*
G01*
X186984520Y-83025300D02*
X186984520Y-82525300D01*
G75*
G02*
X187209520Y-82300300I225000J0D01*
G01*
X187659520Y-82300300D01*
G75*
G02*
X187884520Y-82525300I0J-225000D01*
G01*
X187884520Y-83025300D01*
G75*
G02*
X187659520Y-83250300I-225000J0D01*
G01*
X187209520Y-83250300D01*
G75*
G02*
X186984520Y-83025300I0J225000D01*
G01*
G37*
%TD*%
%TO.C,C7*%
G36*
G01*
X183696420Y-80404120D02*
X183196420Y-80404120D01*
G75*
G02*
X182971420Y-80179120I0J225000D01*
G01*
X182971420Y-79729120D01*
G75*
G02*
X183196420Y-79504120I225000J0D01*
G01*
X183696420Y-79504120D01*
G75*
G02*
X183921420Y-79729120I0J-225000D01*
G01*
X183921420Y-80179120D01*
G75*
G02*
X183696420Y-80404120I-225000J0D01*
G01*
G37*
G36*
G01*
X183696420Y-78854120D02*
X183196420Y-78854120D01*
G75*
G02*
X182971420Y-78629120I0J225000D01*
G01*
X182971420Y-78179120D01*
G75*
G02*
X183196420Y-77954120I225000J0D01*
G01*
X183696420Y-77954120D01*
G75*
G02*
X183921420Y-78179120I0J-225000D01*
G01*
X183921420Y-78629120D01*
G75*
G02*
X183696420Y-78854120I-225000J0D01*
G01*
G37*
%TD*%
%TO.C,C8*%
G36*
G01*
X164125597Y-86338591D02*
X164479151Y-85985037D01*
G75*
G02*
X164797349Y-85985037I159099J-159099D01*
G01*
X165115547Y-86303235D01*
G75*
G02*
X165115547Y-86621433I-159099J-159099D01*
G01*
X164761993Y-86974987D01*
G75*
G02*
X164443795Y-86974987I-159099J159099D01*
G01*
X164125597Y-86656789D01*
G75*
G02*
X164125597Y-86338591I159099J159099D01*
G01*
G37*
G36*
G01*
X165221613Y-87434607D02*
X165575167Y-87081053D01*
G75*
G02*
X165893365Y-87081053I159099J-159099D01*
G01*
X166211563Y-87399251D01*
G75*
G02*
X166211563Y-87717449I-159099J-159099D01*
G01*
X165858009Y-88071003D01*
G75*
G02*
X165539811Y-88071003I-159099J159099D01*
G01*
X165221613Y-87752805D01*
G75*
G02*
X165221613Y-87434607I159099J159099D01*
G01*
G37*
%TD*%
%TO.C,C9*%
G36*
G01*
X165933939Y-82760495D02*
X165580385Y-82406941D01*
G75*
G02*
X165580385Y-82088743I159099J159099D01*
G01*
X165898583Y-81770545D01*
G75*
G02*
X166216781Y-81770545I159099J-159099D01*
G01*
X166570335Y-82124099D01*
G75*
G02*
X166570335Y-82442297I-159099J-159099D01*
G01*
X166252137Y-82760495D01*
G75*
G02*
X165933939Y-82760495I-159099J159099D01*
G01*
G37*
G36*
G01*
X164837923Y-83856511D02*
X164484369Y-83502957D01*
G75*
G02*
X164484369Y-83184759I159099J159099D01*
G01*
X164802567Y-82866561D01*
G75*
G02*
X165120765Y-82866561I159099J-159099D01*
G01*
X165474319Y-83220115D01*
G75*
G02*
X165474319Y-83538313I-159099J-159099D01*
G01*
X165156121Y-83856511D01*
G75*
G02*
X164837923Y-83856511I-159099J159099D01*
G01*
G37*
%TD*%
%TO.C,F1*%
G36*
G01*
X185518770Y-80404120D02*
X185006270Y-80404120D01*
G75*
G02*
X184787520Y-80185370I0J218750D01*
G01*
X184787520Y-79747870D01*
G75*
G02*
X185006270Y-79529120I218750J0D01*
G01*
X185518770Y-79529120D01*
G75*
G02*
X185737520Y-79747870I0J-218750D01*
G01*
X185737520Y-80185370D01*
G75*
G02*
X185518770Y-80404120I-218750J0D01*
G01*
G37*
G36*
G01*
X185518770Y-78829120D02*
X185006270Y-78829120D01*
G75*
G02*
X184787520Y-78610370I0J218750D01*
G01*
X184787520Y-78172870D01*
G75*
G02*
X185006270Y-77954120I218750J0D01*
G01*
X185518770Y-77954120D01*
G75*
G02*
X185737520Y-78172870I0J-218750D01*
G01*
X185737520Y-78610370D01*
G75*
G02*
X185518770Y-78829120I-218750J0D01*
G01*
G37*
%TD*%
%TO.C,R1*%
G36*
G01*
X181758000Y-67078540D02*
X181208000Y-67078540D01*
G75*
G02*
X181008000Y-66878540I0J200000D01*
G01*
X181008000Y-66478540D01*
G75*
G02*
X181208000Y-66278540I200000J0D01*
G01*
X181758000Y-66278540D01*
G75*
G02*
X181958000Y-66478540I0J-200000D01*
G01*
X181958000Y-66878540D01*
G75*
G02*
X181758000Y-67078540I-200000J0D01*
G01*
G37*
G36*
G01*
X181758000Y-68728540D02*
X181208000Y-68728540D01*
G75*
G02*
X181008000Y-68528540I0J200000D01*
G01*
X181008000Y-68128540D01*
G75*
G02*
X181208000Y-67928540I200000J0D01*
G01*
X181758000Y-67928540D01*
G75*
G02*
X181958000Y-68128540I0J-200000D01*
G01*
X181958000Y-68528540D01*
G75*
G02*
X181758000Y-68728540I-200000J0D01*
G01*
G37*
%TD*%
%TO.C,R2*%
G36*
G01*
X179977140Y-80412040D02*
X179427140Y-80412040D01*
G75*
G02*
X179227140Y-80212040I0J200000D01*
G01*
X179227140Y-79812040D01*
G75*
G02*
X179427140Y-79612040I200000J0D01*
G01*
X179977140Y-79612040D01*
G75*
G02*
X180177140Y-79812040I0J-200000D01*
G01*
X180177140Y-80212040D01*
G75*
G02*
X179977140Y-80412040I-200000J0D01*
G01*
G37*
G36*
G01*
X179977140Y-78762040D02*
X179427140Y-78762040D01*
G75*
G02*
X179227140Y-78562040I0J200000D01*
G01*
X179227140Y-78162040D01*
G75*
G02*
X179427140Y-77962040I200000J0D01*
G01*
X179977140Y-77962040D01*
G75*
G02*
X180177140Y-78162040I0J-200000D01*
G01*
X180177140Y-78562040D01*
G75*
G02*
X179977140Y-78762040I-200000J0D01*
G01*
G37*
%TD*%
%TO.C,R3*%
G36*
G01*
X181660313Y-78762040D02*
X181110313Y-78762040D01*
G75*
G02*
X180910313Y-78562040I0J200000D01*
G01*
X180910313Y-78162040D01*
G75*
G02*
X181110313Y-77962040I200000J0D01*
G01*
X181660313Y-77962040D01*
G75*
G02*
X181860313Y-78162040I0J-200000D01*
G01*
X181860313Y-78562040D01*
G75*
G02*
X181660313Y-78762040I-200000J0D01*
G01*
G37*
G36*
G01*
X181660313Y-80412040D02*
X181110313Y-80412040D01*
G75*
G02*
X180910313Y-80212040I0J200000D01*
G01*
X180910313Y-79812040D01*
G75*
G02*
X181110313Y-79612040I200000J0D01*
G01*
X181660313Y-79612040D01*
G75*
G02*
X181860313Y-79812040I0J-200000D01*
G01*
X181860313Y-80212040D01*
G75*
G02*
X181660313Y-80412040I-200000J0D01*
G01*
G37*
%TD*%
%TO.C,R4*%
G36*
G01*
X185434520Y-89258060D02*
X185434520Y-88708060D01*
G75*
G02*
X185634520Y-88508060I200000J0D01*
G01*
X186034520Y-88508060D01*
G75*
G02*
X186234520Y-88708060I0J-200000D01*
G01*
X186234520Y-89258060D01*
G75*
G02*
X186034520Y-89458060I-200000J0D01*
G01*
X185634520Y-89458060D01*
G75*
G02*
X185434520Y-89258060I0J200000D01*
G01*
G37*
G36*
G01*
X187084520Y-89258060D02*
X187084520Y-88708060D01*
G75*
G02*
X187284520Y-88508060I200000J0D01*
G01*
X187684520Y-88508060D01*
G75*
G02*
X187884520Y-88708060I0J-200000D01*
G01*
X187884520Y-89258060D01*
G75*
G02*
X187684520Y-89458060I-200000J0D01*
G01*
X187284520Y-89458060D01*
G75*
G02*
X187084520Y-89258060I0J200000D01*
G01*
G37*
%TD*%
%TO.C,R5*%
G36*
G01*
X185434520Y-86154180D02*
X185434520Y-85604180D01*
G75*
G02*
X185634520Y-85404180I200000J0D01*
G01*
X186034520Y-85404180D01*
G75*
G02*
X186234520Y-85604180I0J-200000D01*
G01*
X186234520Y-86154180D01*
G75*
G02*
X186034520Y-86354180I-200000J0D01*
G01*
X185634520Y-86354180D01*
G75*
G02*
X185434520Y-86154180I0J200000D01*
G01*
G37*
G36*
G01*
X187084520Y-86154180D02*
X187084520Y-85604180D01*
G75*
G02*
X187284520Y-85404180I200000J0D01*
G01*
X187684520Y-85404180D01*
G75*
G02*
X187884520Y-85604180I0J-200000D01*
G01*
X187884520Y-86154180D01*
G75*
G02*
X187684520Y-86354180I-200000J0D01*
G01*
X187284520Y-86354180D01*
G75*
G02*
X187084520Y-86154180I0J200000D01*
G01*
G37*
%TD*%
%TO.C,R6*%
G36*
G01*
X182866620Y-75182280D02*
X183416620Y-75182280D01*
G75*
G02*
X183616620Y-75382280I0J-200000D01*
G01*
X183616620Y-75782280D01*
G75*
G02*
X183416620Y-75982280I-200000J0D01*
G01*
X182866620Y-75982280D01*
G75*
G02*
X182666620Y-75782280I0J200000D01*
G01*
X182666620Y-75382280D01*
G75*
G02*
X182866620Y-75182280I200000J0D01*
G01*
G37*
G36*
G01*
X182866620Y-73532280D02*
X183416620Y-73532280D01*
G75*
G02*
X183616620Y-73732280I0J-200000D01*
G01*
X183616620Y-74132280D01*
G75*
G02*
X183416620Y-74332280I-200000J0D01*
G01*
X182866620Y-74332280D01*
G75*
G02*
X182666620Y-74132280I0J200000D01*
G01*
X182666620Y-73732280D01*
G75*
G02*
X182866620Y-73532280I200000J0D01*
G01*
G37*
%TD*%
%TO.C,R7*%
G36*
G01*
X182866620Y-66298360D02*
X183416620Y-66298360D01*
G75*
G02*
X183616620Y-66498360I0J-200000D01*
G01*
X183616620Y-66898360D01*
G75*
G02*
X183416620Y-67098360I-200000J0D01*
G01*
X182866620Y-67098360D01*
G75*
G02*
X182666620Y-66898360I0J200000D01*
G01*
X182666620Y-66498360D01*
G75*
G02*
X182866620Y-66298360I200000J0D01*
G01*
G37*
G36*
G01*
X182866620Y-67948360D02*
X183416620Y-67948360D01*
G75*
G02*
X183616620Y-68148360I0J-200000D01*
G01*
X183616620Y-68548360D01*
G75*
G02*
X183416620Y-68748360I-200000J0D01*
G01*
X182866620Y-68748360D01*
G75*
G02*
X182666620Y-68548360I0J200000D01*
G01*
X182666620Y-68148360D01*
G75*
G02*
X182866620Y-67948360I200000J0D01*
G01*
G37*
%TD*%
%TO.C,U1*%
G36*
G01*
X181725940Y-81702680D02*
X181850940Y-81702680D01*
G75*
G02*
X181913440Y-81765180I0J-62500D01*
G01*
X181913440Y-82715180D01*
G75*
G02*
X181850940Y-82777680I-62500J0D01*
G01*
X181725940Y-82777680D01*
G75*
G02*
X181663440Y-82715180I0J62500D01*
G01*
X181663440Y-81765180D01*
G75*
G02*
X181725940Y-81702680I62500J0D01*
G01*
G37*
G36*
G01*
X181225940Y-81702680D02*
X181350940Y-81702680D01*
G75*
G02*
X181413440Y-81765180I0J-62500D01*
G01*
X181413440Y-82715180D01*
G75*
G02*
X181350940Y-82777680I-62500J0D01*
G01*
X181225940Y-82777680D01*
G75*
G02*
X181163440Y-82715180I0J62500D01*
G01*
X181163440Y-81765180D01*
G75*
G02*
X181225940Y-81702680I62500J0D01*
G01*
G37*
G36*
G01*
X180725940Y-81702680D02*
X180850940Y-81702680D01*
G75*
G02*
X180913440Y-81765180I0J-62500D01*
G01*
X180913440Y-82715180D01*
G75*
G02*
X180850940Y-82777680I-62500J0D01*
G01*
X180725940Y-82777680D01*
G75*
G02*
X180663440Y-82715180I0J62500D01*
G01*
X180663440Y-81765180D01*
G75*
G02*
X180725940Y-81702680I62500J0D01*
G01*
G37*
G36*
G01*
X180225940Y-81702680D02*
X180350940Y-81702680D01*
G75*
G02*
X180413440Y-81765180I0J-62500D01*
G01*
X180413440Y-82715180D01*
G75*
G02*
X180350940Y-82777680I-62500J0D01*
G01*
X180225940Y-82777680D01*
G75*
G02*
X180163440Y-82715180I0J62500D01*
G01*
X180163440Y-81765180D01*
G75*
G02*
X180225940Y-81702680I62500J0D01*
G01*
G37*
G36*
G01*
X179725940Y-81702680D02*
X179850940Y-81702680D01*
G75*
G02*
X179913440Y-81765180I0J-62500D01*
G01*
X179913440Y-82715180D01*
G75*
G02*
X179850940Y-82777680I-62500J0D01*
G01*
X179725940Y-82777680D01*
G75*
G02*
X179663440Y-82715180I0J62500D01*
G01*
X179663440Y-81765180D01*
G75*
G02*
X179725940Y-81702680I62500J0D01*
G01*
G37*
G36*
G01*
X179225940Y-81702680D02*
X179350940Y-81702680D01*
G75*
G02*
X179413440Y-81765180I0J-62500D01*
G01*
X179413440Y-82715180D01*
G75*
G02*
X179350940Y-82777680I-62500J0D01*
G01*
X179225940Y-82777680D01*
G75*
G02*
X179163440Y-82715180I0J62500D01*
G01*
X179163440Y-81765180D01*
G75*
G02*
X179225940Y-81702680I62500J0D01*
G01*
G37*
G36*
G01*
X178725940Y-81702680D02*
X178850940Y-81702680D01*
G75*
G02*
X178913440Y-81765180I0J-62500D01*
G01*
X178913440Y-82715180D01*
G75*
G02*
X178850940Y-82777680I-62500J0D01*
G01*
X178725940Y-82777680D01*
G75*
G02*
X178663440Y-82715180I0J62500D01*
G01*
X178663440Y-81765180D01*
G75*
G02*
X178725940Y-81702680I62500J0D01*
G01*
G37*
G36*
G01*
X178225940Y-81702680D02*
X178350940Y-81702680D01*
G75*
G02*
X178413440Y-81765180I0J-62500D01*
G01*
X178413440Y-82715180D01*
G75*
G02*
X178350940Y-82777680I-62500J0D01*
G01*
X178225940Y-82777680D01*
G75*
G02*
X178163440Y-82715180I0J62500D01*
G01*
X178163440Y-81765180D01*
G75*
G02*
X178225940Y-81702680I62500J0D01*
G01*
G37*
G36*
G01*
X177725940Y-81702680D02*
X177850940Y-81702680D01*
G75*
G02*
X177913440Y-81765180I0J-62500D01*
G01*
X177913440Y-82715180D01*
G75*
G02*
X177850940Y-82777680I-62500J0D01*
G01*
X177725940Y-82777680D01*
G75*
G02*
X177663440Y-82715180I0J62500D01*
G01*
X177663440Y-81765180D01*
G75*
G02*
X177725940Y-81702680I62500J0D01*
G01*
G37*
G36*
G01*
X177225940Y-81702680D02*
X177350940Y-81702680D01*
G75*
G02*
X177413440Y-81765180I0J-62500D01*
G01*
X177413440Y-82715180D01*
G75*
G02*
X177350940Y-82777680I-62500J0D01*
G01*
X177225940Y-82777680D01*
G75*
G02*
X177163440Y-82715180I0J62500D01*
G01*
X177163440Y-81765180D01*
G75*
G02*
X177225940Y-81702680I62500J0D01*
G01*
G37*
G36*
G01*
X176725940Y-81702680D02*
X176850940Y-81702680D01*
G75*
G02*
X176913440Y-81765180I0J-62500D01*
G01*
X176913440Y-82715180D01*
G75*
G02*
X176850940Y-82777680I-62500J0D01*
G01*
X176725940Y-82777680D01*
G75*
G02*
X176663440Y-82715180I0J62500D01*
G01*
X176663440Y-81765180D01*
G75*
G02*
X176725940Y-81702680I62500J0D01*
G01*
G37*
G36*
G01*
X175475940Y-82952680D02*
X176425940Y-82952680D01*
G75*
G02*
X176488440Y-83015180I0J-62500D01*
G01*
X176488440Y-83140180D01*
G75*
G02*
X176425940Y-83202680I-62500J0D01*
G01*
X175475940Y-83202680D01*
G75*
G02*
X175413440Y-83140180I0J62500D01*
G01*
X175413440Y-83015180D01*
G75*
G02*
X175475940Y-82952680I62500J0D01*
G01*
G37*
G36*
G01*
X175475940Y-83452680D02*
X176425940Y-83452680D01*
G75*
G02*
X176488440Y-83515180I0J-62500D01*
G01*
X176488440Y-83640180D01*
G75*
G02*
X176425940Y-83702680I-62500J0D01*
G01*
X175475940Y-83702680D01*
G75*
G02*
X175413440Y-83640180I0J62500D01*
G01*
X175413440Y-83515180D01*
G75*
G02*
X175475940Y-83452680I62500J0D01*
G01*
G37*
G36*
G01*
X175475940Y-83952680D02*
X176425940Y-83952680D01*
G75*
G02*
X176488440Y-84015180I0J-62500D01*
G01*
X176488440Y-84140180D01*
G75*
G02*
X176425940Y-84202680I-62500J0D01*
G01*
X175475940Y-84202680D01*
G75*
G02*
X175413440Y-84140180I0J62500D01*
G01*
X175413440Y-84015180D01*
G75*
G02*
X175475940Y-83952680I62500J0D01*
G01*
G37*
G36*
G01*
X175475940Y-84452680D02*
X176425940Y-84452680D01*
G75*
G02*
X176488440Y-84515180I0J-62500D01*
G01*
X176488440Y-84640180D01*
G75*
G02*
X176425940Y-84702680I-62500J0D01*
G01*
X175475940Y-84702680D01*
G75*
G02*
X175413440Y-84640180I0J62500D01*
G01*
X175413440Y-84515180D01*
G75*
G02*
X175475940Y-84452680I62500J0D01*
G01*
G37*
G36*
G01*
X175475940Y-84952680D02*
X176425940Y-84952680D01*
G75*
G02*
X176488440Y-85015180I0J-62500D01*
G01*
X176488440Y-85140180D01*
G75*
G02*
X176425940Y-85202680I-62500J0D01*
G01*
X175475940Y-85202680D01*
G75*
G02*
X175413440Y-85140180I0J62500D01*
G01*
X175413440Y-85015180D01*
G75*
G02*
X175475940Y-84952680I62500J0D01*
G01*
G37*
G36*
G01*
X175475940Y-85452680D02*
X176425940Y-85452680D01*
G75*
G02*
X176488440Y-85515180I0J-62500D01*
G01*
X176488440Y-85640180D01*
G75*
G02*
X176425940Y-85702680I-62500J0D01*
G01*
X175475940Y-85702680D01*
G75*
G02*
X175413440Y-85640180I0J62500D01*
G01*
X175413440Y-85515180D01*
G75*
G02*
X175475940Y-85452680I62500J0D01*
G01*
G37*
G36*
G01*
X175475940Y-85952680D02*
X176425940Y-85952680D01*
G75*
G02*
X176488440Y-86015180I0J-62500D01*
G01*
X176488440Y-86140180D01*
G75*
G02*
X176425940Y-86202680I-62500J0D01*
G01*
X175475940Y-86202680D01*
G75*
G02*
X175413440Y-86140180I0J62500D01*
G01*
X175413440Y-86015180D01*
G75*
G02*
X175475940Y-85952680I62500J0D01*
G01*
G37*
G36*
G01*
X175475940Y-86452680D02*
X176425940Y-86452680D01*
G75*
G02*
X176488440Y-86515180I0J-62500D01*
G01*
X176488440Y-86640180D01*
G75*
G02*
X176425940Y-86702680I-62500J0D01*
G01*
X175475940Y-86702680D01*
G75*
G02*
X175413440Y-86640180I0J62500D01*
G01*
X175413440Y-86515180D01*
G75*
G02*
X175475940Y-86452680I62500J0D01*
G01*
G37*
G36*
G01*
X175475940Y-86952680D02*
X176425940Y-86952680D01*
G75*
G02*
X176488440Y-87015180I0J-62500D01*
G01*
X176488440Y-87140180D01*
G75*
G02*
X176425940Y-87202680I-62500J0D01*
G01*
X175475940Y-87202680D01*
G75*
G02*
X175413440Y-87140180I0J62500D01*
G01*
X175413440Y-87015180D01*
G75*
G02*
X175475940Y-86952680I62500J0D01*
G01*
G37*
G36*
G01*
X175475940Y-87452680D02*
X176425940Y-87452680D01*
G75*
G02*
X176488440Y-87515180I0J-62500D01*
G01*
X176488440Y-87640180D01*
G75*
G02*
X176425940Y-87702680I-62500J0D01*
G01*
X175475940Y-87702680D01*
G75*
G02*
X175413440Y-87640180I0J62500D01*
G01*
X175413440Y-87515180D01*
G75*
G02*
X175475940Y-87452680I62500J0D01*
G01*
G37*
G36*
G01*
X175475940Y-87952680D02*
X176425940Y-87952680D01*
G75*
G02*
X176488440Y-88015180I0J-62500D01*
G01*
X176488440Y-88140180D01*
G75*
G02*
X176425940Y-88202680I-62500J0D01*
G01*
X175475940Y-88202680D01*
G75*
G02*
X175413440Y-88140180I0J62500D01*
G01*
X175413440Y-88015180D01*
G75*
G02*
X175475940Y-87952680I62500J0D01*
G01*
G37*
G36*
G01*
X176725940Y-88377680D02*
X176850940Y-88377680D01*
G75*
G02*
X176913440Y-88440180I0J-62500D01*
G01*
X176913440Y-89390180D01*
G75*
G02*
X176850940Y-89452680I-62500J0D01*
G01*
X176725940Y-89452680D01*
G75*
G02*
X176663440Y-89390180I0J62500D01*
G01*
X176663440Y-88440180D01*
G75*
G02*
X176725940Y-88377680I62500J0D01*
G01*
G37*
G36*
G01*
X177225940Y-88377680D02*
X177350940Y-88377680D01*
G75*
G02*
X177413440Y-88440180I0J-62500D01*
G01*
X177413440Y-89390180D01*
G75*
G02*
X177350940Y-89452680I-62500J0D01*
G01*
X177225940Y-89452680D01*
G75*
G02*
X177163440Y-89390180I0J62500D01*
G01*
X177163440Y-88440180D01*
G75*
G02*
X177225940Y-88377680I62500J0D01*
G01*
G37*
G36*
G01*
X177725940Y-88377680D02*
X177850940Y-88377680D01*
G75*
G02*
X177913440Y-88440180I0J-62500D01*
G01*
X177913440Y-89390180D01*
G75*
G02*
X177850940Y-89452680I-62500J0D01*
G01*
X177725940Y-89452680D01*
G75*
G02*
X177663440Y-89390180I0J62500D01*
G01*
X177663440Y-88440180D01*
G75*
G02*
X177725940Y-88377680I62500J0D01*
G01*
G37*
G36*
G01*
X178225940Y-88377680D02*
X178350940Y-88377680D01*
G75*
G02*
X178413440Y-88440180I0J-62500D01*
G01*
X178413440Y-89390180D01*
G75*
G02*
X178350940Y-89452680I-62500J0D01*
G01*
X178225940Y-89452680D01*
G75*
G02*
X178163440Y-89390180I0J62500D01*
G01*
X178163440Y-88440180D01*
G75*
G02*
X178225940Y-88377680I62500J0D01*
G01*
G37*
G36*
G01*
X178725940Y-88377680D02*
X178850940Y-88377680D01*
G75*
G02*
X178913440Y-88440180I0J-62500D01*
G01*
X178913440Y-89390180D01*
G75*
G02*
X178850940Y-89452680I-62500J0D01*
G01*
X178725940Y-89452680D01*
G75*
G02*
X178663440Y-89390180I0J62500D01*
G01*
X178663440Y-88440180D01*
G75*
G02*
X178725940Y-88377680I62500J0D01*
G01*
G37*
G36*
G01*
X179225940Y-88377680D02*
X179350940Y-88377680D01*
G75*
G02*
X179413440Y-88440180I0J-62500D01*
G01*
X179413440Y-89390180D01*
G75*
G02*
X179350940Y-89452680I-62500J0D01*
G01*
X179225940Y-89452680D01*
G75*
G02*
X179163440Y-89390180I0J62500D01*
G01*
X179163440Y-88440180D01*
G75*
G02*
X179225940Y-88377680I62500J0D01*
G01*
G37*
G36*
G01*
X179725940Y-88377680D02*
X179850940Y-88377680D01*
G75*
G02*
X179913440Y-88440180I0J-62500D01*
G01*
X179913440Y-89390180D01*
G75*
G02*
X179850940Y-89452680I-62500J0D01*
G01*
X179725940Y-89452680D01*
G75*
G02*
X179663440Y-89390180I0J62500D01*
G01*
X179663440Y-88440180D01*
G75*
G02*
X179725940Y-88377680I62500J0D01*
G01*
G37*
G36*
G01*
X180225940Y-88377680D02*
X180350940Y-88377680D01*
G75*
G02*
X180413440Y-88440180I0J-62500D01*
G01*
X180413440Y-89390180D01*
G75*
G02*
X180350940Y-89452680I-62500J0D01*
G01*
X180225940Y-89452680D01*
G75*
G02*
X180163440Y-89390180I0J62500D01*
G01*
X180163440Y-88440180D01*
G75*
G02*
X180225940Y-88377680I62500J0D01*
G01*
G37*
G36*
G01*
X180725940Y-88377680D02*
X180850940Y-88377680D01*
G75*
G02*
X180913440Y-88440180I0J-62500D01*
G01*
X180913440Y-89390180D01*
G75*
G02*
X180850940Y-89452680I-62500J0D01*
G01*
X180725940Y-89452680D01*
G75*
G02*
X180663440Y-89390180I0J62500D01*
G01*
X180663440Y-88440180D01*
G75*
G02*
X180725940Y-88377680I62500J0D01*
G01*
G37*
G36*
G01*
X181225940Y-88377680D02*
X181350940Y-88377680D01*
G75*
G02*
X181413440Y-88440180I0J-62500D01*
G01*
X181413440Y-89390180D01*
G75*
G02*
X181350940Y-89452680I-62500J0D01*
G01*
X181225940Y-89452680D01*
G75*
G02*
X181163440Y-89390180I0J62500D01*
G01*
X181163440Y-88440180D01*
G75*
G02*
X181225940Y-88377680I62500J0D01*
G01*
G37*
G36*
G01*
X181725940Y-88377680D02*
X181850940Y-88377680D01*
G75*
G02*
X181913440Y-88440180I0J-62500D01*
G01*
X181913440Y-89390180D01*
G75*
G02*
X181850940Y-89452680I-62500J0D01*
G01*
X181725940Y-89452680D01*
G75*
G02*
X181663440Y-89390180I0J62500D01*
G01*
X181663440Y-88440180D01*
G75*
G02*
X181725940Y-88377680I62500J0D01*
G01*
G37*
G36*
G01*
X182150940Y-87952680D02*
X183100940Y-87952680D01*
G75*
G02*
X183163440Y-88015180I0J-62500D01*
G01*
X183163440Y-88140180D01*
G75*
G02*
X183100940Y-88202680I-62500J0D01*
G01*
X182150940Y-88202680D01*
G75*
G02*
X182088440Y-88140180I0J62500D01*
G01*
X182088440Y-88015180D01*
G75*
G02*
X182150940Y-87952680I62500J0D01*
G01*
G37*
G36*
G01*
X182150940Y-87452680D02*
X183100940Y-87452680D01*
G75*
G02*
X183163440Y-87515180I0J-62500D01*
G01*
X183163440Y-87640180D01*
G75*
G02*
X183100940Y-87702680I-62500J0D01*
G01*
X182150940Y-87702680D01*
G75*
G02*
X182088440Y-87640180I0J62500D01*
G01*
X182088440Y-87515180D01*
G75*
G02*
X182150940Y-87452680I62500J0D01*
G01*
G37*
G36*
G01*
X182150940Y-86952680D02*
X183100940Y-86952680D01*
G75*
G02*
X183163440Y-87015180I0J-62500D01*
G01*
X183163440Y-87140180D01*
G75*
G02*
X183100940Y-87202680I-62500J0D01*
G01*
X182150940Y-87202680D01*
G75*
G02*
X182088440Y-87140180I0J62500D01*
G01*
X182088440Y-87015180D01*
G75*
G02*
X182150940Y-86952680I62500J0D01*
G01*
G37*
G36*
G01*
X182150940Y-86452680D02*
X183100940Y-86452680D01*
G75*
G02*
X183163440Y-86515180I0J-62500D01*
G01*
X183163440Y-86640180D01*
G75*
G02*
X183100940Y-86702680I-62500J0D01*
G01*
X182150940Y-86702680D01*
G75*
G02*
X182088440Y-86640180I0J62500D01*
G01*
X182088440Y-86515180D01*
G75*
G02*
X182150940Y-86452680I62500J0D01*
G01*
G37*
G36*
G01*
X182150940Y-85952680D02*
X183100940Y-85952680D01*
G75*
G02*
X183163440Y-86015180I0J-62500D01*
G01*
X183163440Y-86140180D01*
G75*
G02*
X183100940Y-86202680I-62500J0D01*
G01*
X182150940Y-86202680D01*
G75*
G02*
X182088440Y-86140180I0J62500D01*
G01*
X182088440Y-86015180D01*
G75*
G02*
X182150940Y-85952680I62500J0D01*
G01*
G37*
G36*
G01*
X182150940Y-85452680D02*
X183100940Y-85452680D01*
G75*
G02*
X183163440Y-85515180I0J-62500D01*
G01*
X183163440Y-85640180D01*
G75*
G02*
X183100940Y-85702680I-62500J0D01*
G01*
X182150940Y-85702680D01*
G75*
G02*
X182088440Y-85640180I0J62500D01*
G01*
X182088440Y-85515180D01*
G75*
G02*
X182150940Y-85452680I62500J0D01*
G01*
G37*
G36*
G01*
X182150940Y-84952680D02*
X183100940Y-84952680D01*
G75*
G02*
X183163440Y-85015180I0J-62500D01*
G01*
X183163440Y-85140180D01*
G75*
G02*
X183100940Y-85202680I-62500J0D01*
G01*
X182150940Y-85202680D01*
G75*
G02*
X182088440Y-85140180I0J62500D01*
G01*
X182088440Y-85015180D01*
G75*
G02*
X182150940Y-84952680I62500J0D01*
G01*
G37*
G36*
G01*
X182150940Y-84452680D02*
X183100940Y-84452680D01*
G75*
G02*
X183163440Y-84515180I0J-62500D01*
G01*
X183163440Y-84640180D01*
G75*
G02*
X183100940Y-84702680I-62500J0D01*
G01*
X182150940Y-84702680D01*
G75*
G02*
X182088440Y-84640180I0J62500D01*
G01*
X182088440Y-84515180D01*
G75*
G02*
X182150940Y-84452680I62500J0D01*
G01*
G37*
G36*
G01*
X182150940Y-83952680D02*
X183100940Y-83952680D01*
G75*
G02*
X183163440Y-84015180I0J-62500D01*
G01*
X183163440Y-84140180D01*
G75*
G02*
X183100940Y-84202680I-62500J0D01*
G01*
X182150940Y-84202680D01*
G75*
G02*
X182088440Y-84140180I0J62500D01*
G01*
X182088440Y-84015180D01*
G75*
G02*
X182150940Y-83952680I62500J0D01*
G01*
G37*
G36*
G01*
X182150940Y-83452680D02*
X183100940Y-83452680D01*
G75*
G02*
X183163440Y-83515180I0J-62500D01*
G01*
X183163440Y-83640180D01*
G75*
G02*
X183100940Y-83702680I-62500J0D01*
G01*
X182150940Y-83702680D01*
G75*
G02*
X182088440Y-83640180I0J62500D01*
G01*
X182088440Y-83515180D01*
G75*
G02*
X182150940Y-83452680I62500J0D01*
G01*
G37*
G36*
G01*
X182150940Y-82952680D02*
X183100940Y-82952680D01*
G75*
G02*
X183163440Y-83015180I0J-62500D01*
G01*
X183163440Y-83140180D01*
G75*
G02*
X183100940Y-83202680I-62500J0D01*
G01*
X182150940Y-83202680D01*
G75*
G02*
X182088440Y-83140180I0J62500D01*
G01*
X182088440Y-83015180D01*
G75*
G02*
X182150940Y-82952680I62500J0D01*
G01*
G37*
G36*
G01*
X180963439Y-83102680D02*
X181513441Y-83102680D01*
G75*
G02*
X181763440Y-83352679I0J-249999D01*
G01*
X181763440Y-83902681D01*
G75*
G02*
X181513441Y-84152680I-249999J0D01*
G01*
X180963439Y-84152680D01*
G75*
G02*
X180713440Y-83902681I0J249999D01*
G01*
X180713440Y-83352679D01*
G75*
G02*
X180963439Y-83102680I249999J0D01*
G01*
G37*
G36*
G01*
X179663439Y-83102680D02*
X180213441Y-83102680D01*
G75*
G02*
X180463440Y-83352679I0J-249999D01*
G01*
X180463440Y-83902681D01*
G75*
G02*
X180213441Y-84152680I-249999J0D01*
G01*
X179663439Y-84152680D01*
G75*
G02*
X179413440Y-83902681I0J249999D01*
G01*
X179413440Y-83352679D01*
G75*
G02*
X179663439Y-83102680I249999J0D01*
G01*
G37*
G36*
G01*
X178363439Y-83102680D02*
X178913441Y-83102680D01*
G75*
G02*
X179163440Y-83352679I0J-249999D01*
G01*
X179163440Y-83902681D01*
G75*
G02*
X178913441Y-84152680I-249999J0D01*
G01*
X178363439Y-84152680D01*
G75*
G02*
X178113440Y-83902681I0J249999D01*
G01*
X178113440Y-83352679D01*
G75*
G02*
X178363439Y-83102680I249999J0D01*
G01*
G37*
G36*
G01*
X177063439Y-83102680D02*
X177613441Y-83102680D01*
G75*
G02*
X177863440Y-83352679I0J-249999D01*
G01*
X177863440Y-83902681D01*
G75*
G02*
X177613441Y-84152680I-249999J0D01*
G01*
X177063439Y-84152680D01*
G75*
G02*
X176813440Y-83902681I0J249999D01*
G01*
X176813440Y-83352679D01*
G75*
G02*
X177063439Y-83102680I249999J0D01*
G01*
G37*
G36*
G01*
X180963439Y-84402680D02*
X181513441Y-84402680D01*
G75*
G02*
X181763440Y-84652679I0J-249999D01*
G01*
X181763440Y-85202681D01*
G75*
G02*
X181513441Y-85452680I-249999J0D01*
G01*
X180963439Y-85452680D01*
G75*
G02*
X180713440Y-85202681I0J249999D01*
G01*
X180713440Y-84652679D01*
G75*
G02*
X180963439Y-84402680I249999J0D01*
G01*
G37*
G36*
G01*
X179663439Y-84402680D02*
X180213441Y-84402680D01*
G75*
G02*
X180463440Y-84652679I0J-249999D01*
G01*
X180463440Y-85202681D01*
G75*
G02*
X180213441Y-85452680I-249999J0D01*
G01*
X179663439Y-85452680D01*
G75*
G02*
X179413440Y-85202681I0J249999D01*
G01*
X179413440Y-84652679D01*
G75*
G02*
X179663439Y-84402680I249999J0D01*
G01*
G37*
G36*
G01*
X178363439Y-84402680D02*
X178913441Y-84402680D01*
G75*
G02*
X179163440Y-84652679I0J-249999D01*
G01*
X179163440Y-85202681D01*
G75*
G02*
X178913441Y-85452680I-249999J0D01*
G01*
X178363439Y-85452680D01*
G75*
G02*
X178113440Y-85202681I0J249999D01*
G01*
X178113440Y-84652679D01*
G75*
G02*
X178363439Y-84402680I249999J0D01*
G01*
G37*
G36*
G01*
X177063439Y-84402680D02*
X177613441Y-84402680D01*
G75*
G02*
X177863440Y-84652679I0J-249999D01*
G01*
X177863440Y-85202681D01*
G75*
G02*
X177613441Y-85452680I-249999J0D01*
G01*
X177063439Y-85452680D01*
G75*
G02*
X176813440Y-85202681I0J249999D01*
G01*
X176813440Y-84652679D01*
G75*
G02*
X177063439Y-84402680I249999J0D01*
G01*
G37*
G36*
G01*
X180963439Y-85702680D02*
X181513441Y-85702680D01*
G75*
G02*
X181763440Y-85952679I0J-249999D01*
G01*
X181763440Y-86502681D01*
G75*
G02*
X181513441Y-86752680I-249999J0D01*
G01*
X180963439Y-86752680D01*
G75*
G02*
X180713440Y-86502681I0J249999D01*
G01*
X180713440Y-85952679D01*
G75*
G02*
X180963439Y-85702680I249999J0D01*
G01*
G37*
G36*
G01*
X179663439Y-85702680D02*
X180213441Y-85702680D01*
G75*
G02*
X180463440Y-85952679I0J-249999D01*
G01*
X180463440Y-86502681D01*
G75*
G02*
X180213441Y-86752680I-249999J0D01*
G01*
X179663439Y-86752680D01*
G75*
G02*
X179413440Y-86502681I0J249999D01*
G01*
X179413440Y-85952679D01*
G75*
G02*
X179663439Y-85702680I249999J0D01*
G01*
G37*
G36*
G01*
X178363439Y-85702680D02*
X178913441Y-85702680D01*
G75*
G02*
X179163440Y-85952679I0J-249999D01*
G01*
X179163440Y-86502681D01*
G75*
G02*
X178913441Y-86752680I-249999J0D01*
G01*
X178363439Y-86752680D01*
G75*
G02*
X178113440Y-86502681I0J249999D01*
G01*
X178113440Y-85952679D01*
G75*
G02*
X178363439Y-85702680I249999J0D01*
G01*
G37*
G36*
G01*
X177063439Y-85702680D02*
X177613441Y-85702680D01*
G75*
G02*
X177863440Y-85952679I0J-249999D01*
G01*
X177863440Y-86502681D01*
G75*
G02*
X177613441Y-86752680I-249999J0D01*
G01*
X177063439Y-86752680D01*
G75*
G02*
X176813440Y-86502681I0J249999D01*
G01*
X176813440Y-85952679D01*
G75*
G02*
X177063439Y-85702680I249999J0D01*
G01*
G37*
G36*
G01*
X180963439Y-87002680D02*
X181513441Y-87002680D01*
G75*
G02*
X181763440Y-87252679I0J-249999D01*
G01*
X181763440Y-87802681D01*
G75*
G02*
X181513441Y-88052680I-249999J0D01*
G01*
X180963439Y-88052680D01*
G75*
G02*
X180713440Y-87802681I0J249999D01*
G01*
X180713440Y-87252679D01*
G75*
G02*
X180963439Y-87002680I249999J0D01*
G01*
G37*
G36*
G01*
X179663439Y-87002680D02*
X180213441Y-87002680D01*
G75*
G02*
X180463440Y-87252679I0J-249999D01*
G01*
X180463440Y-87802681D01*
G75*
G02*
X180213441Y-88052680I-249999J0D01*
G01*
X179663439Y-88052680D01*
G75*
G02*
X179413440Y-87802681I0J249999D01*
G01*
X179413440Y-87252679D01*
G75*
G02*
X179663439Y-87002680I249999J0D01*
G01*
G37*
G36*
G01*
X178363439Y-87002680D02*
X178913441Y-87002680D01*
G75*
G02*
X179163440Y-87252679I0J-249999D01*
G01*
X179163440Y-87802681D01*
G75*
G02*
X178913441Y-88052680I-249999J0D01*
G01*
X178363439Y-88052680D01*
G75*
G02*
X178113440Y-87802681I0J249999D01*
G01*
X178113440Y-87252679D01*
G75*
G02*
X178363439Y-87002680I249999J0D01*
G01*
G37*
G36*
G01*
X177063439Y-87002680D02*
X177613441Y-87002680D01*
G75*
G02*
X177863440Y-87252679I0J-249999D01*
G01*
X177863440Y-87802681D01*
G75*
G02*
X177613441Y-88052680I-249999J0D01*
G01*
X177063439Y-88052680D01*
G75*
G02*
X176813440Y-87802681I0J249999D01*
G01*
X176813440Y-87252679D01*
G75*
G02*
X177063439Y-87002680I249999J0D01*
G01*
G37*
%TD*%
D12*
%TO.C,Y1*%
G36*
X167171532Y-87090917D02*
G01*
X166323004Y-86242389D01*
X167312954Y-85252439D01*
X168161482Y-86100967D01*
X167171532Y-87090917D01*
G37*
G36*
X168727167Y-85535282D02*
G01*
X167878639Y-84686754D01*
X168868589Y-83696804D01*
X169717117Y-84545332D01*
X168727167Y-85535282D01*
G37*
G36*
X167525086Y-84333201D02*
G01*
X166676558Y-83484673D01*
X167666508Y-82494723D01*
X168515036Y-83343251D01*
X167525086Y-84333201D01*
G37*
G36*
X165969451Y-85888836D02*
G01*
X165120923Y-85040308D01*
X166110873Y-84050358D01*
X166959401Y-84898886D01*
X165969451Y-85888836D01*
G37*
%TD*%
M02*
