M48
; DRILL file {KiCad 5.1.7-a382d34a8~88~ubuntu20.04.1} date Wed Mar 24 20:19:48 2021
; FORMAT={-:-/ absolute / inch / decimal}
; #@! TF.CreationDate,2021-03-24T20:19:48+01:00
; #@! TF.GenerationSoftware,Kicad,Pcbnew,5.1.7-a382d34a8~88~ubuntu20.04.1
; #@! TF.FileFunction,Plated,1,2,PTH
FMAT,2
INCH
T1C0.0157
T2C0.0256
T3C0.0394
T4C0.0591
T5C0.0866
%
G90
G05
T1
X6.7454Y-3.519
X6.8521Y-3.2984
X6.8693Y-3.0387
X6.8954Y-3.5091
X6.995Y-2.8854
X6.995Y-2.9328
X7.0104Y-3.1727
X7.057Y-2.6893
X7.0694Y-3.1914
X7.2376Y-3.2708
X7.2693Y-3.4434
X7.3408Y-3.2003
T3
X7.2479Y-2.2776
X7.2479Y-2.3776
X7.2479Y-2.4776
X7.3479Y-2.2776
X7.3479Y-2.3776
X7.3479Y-2.4776
T4
X6.65Y-2.7
X6.9Y-2.6
X5.15Y-3.075
X5.4Y-2.975
X5.15Y-2.325
X5.4Y-2.225
X4.4Y-3.075
X4.65Y-2.975
X5.9Y-3.075
X6.15Y-2.975
X4.4Y-2.325
X4.65Y-2.225
X5.9Y-2.325
X6.15Y-2.225
T5
X4.9238Y-2.2862
X4.9238Y-3.3396
X6.8527Y-2.2862
T2
G00X7.3138Y-2.6299
M15
G01X7.3571Y-2.6299
M16
G05
G00X7.3138Y-2.9701
M15
G01X7.3571Y-2.9701
M16
G05
G00X7.4882Y-2.6299
M15
G01X7.5118Y-2.6299
M16
G05
G00X7.4882Y-2.9701
M15
G01X7.5118Y-2.9701
M16
G05
T0
M30
