%TF.GenerationSoftware,KiCad,Pcbnew,5.1.7-a382d34a8~88~ubuntu20.04.1*%
%TF.CreationDate,2021-03-25T19:52:25+01:00*%
%TF.ProjectId,launchpad,6c61756e-6368-4706-9164-2e6b69636164,rev?*%
%TF.SameCoordinates,Original*%
%TF.FileFunction,Copper,L2,Bot*%
%TF.FilePolarity,Positive*%
%FSLAX46Y46*%
G04 Gerber Fmt 4.6, Leading zero omitted, Abs format (unit mm)*
G04 Created by KiCad (PCBNEW 5.1.7-a382d34a8~88~ubuntu20.04.1) date 2021-03-25 19:52:25*
%MOMM*%
%LPD*%
G01*
G04 APERTURE LIST*
%TA.AperFunction,ComponentPad*%
%ADD10O,1.700000X1.700000*%
%TD*%
%TA.AperFunction,ComponentPad*%
%ADD11R,1.700000X1.700000*%
%TD*%
%TA.AperFunction,ComponentPad*%
%ADD12C,2.200000*%
%TD*%
%TA.AperFunction,ComponentPad*%
%ADD13C,4.400000*%
%TD*%
%TA.AperFunction,ComponentPad*%
%ADD14O,2.100000X1.050000*%
%TD*%
%TA.AperFunction,ViaPad*%
%ADD15C,0.800000*%
%TD*%
%TA.AperFunction,Conductor*%
%ADD16C,0.250000*%
%TD*%
%TA.AperFunction,Conductor*%
%ADD17C,0.254000*%
%TD*%
%TA.AperFunction,Conductor*%
%ADD18C,0.100000*%
%TD*%
G04 APERTURE END LIST*
D10*
%TO.P,J2,6*%
%TO.N,GND*%
X186636660Y-62931040D03*
%TO.P,J2,5*%
%TO.N,RESET*%
X184096660Y-62931040D03*
%TO.P,J2,4*%
%TO.N,MOSI*%
X186636660Y-60391040D03*
%TO.P,J2,3*%
%TO.N,SCLK*%
X184096660Y-60391040D03*
%TO.P,J2,2*%
%TO.N,+5V*%
X186636660Y-57851040D03*
D11*
%TO.P,J2,1*%
%TO.N,MISO*%
X184096660Y-57851040D03*
%TD*%
D12*
%TO.P,SW0,2*%
%TO.N,GND*%
X111760000Y-59055000D03*
%TO.P,SW0,1*%
%TO.N,BTN0*%
X118110000Y-56515000D03*
%TD*%
D13*
%TO.P,H3,1*%
%TO.N,GND*%
X174058580Y-58070161D03*
%TD*%
%TO.P,H2,1*%
%TO.N,GND*%
X125064520Y-58070161D03*
%TD*%
%TO.P,H1,1*%
%TO.N,GND*%
X125064520Y-84825840D03*
%TD*%
D12*
%TO.P,SW6,2*%
%TO.N,GND*%
X168910000Y-68580000D03*
%TO.P,SW6,1*%
%TO.N,BTN6*%
X175260000Y-66040000D03*
%TD*%
D14*
%TO.P,J1,S1*%
%TO.N,GND*%
X186320000Y-75440000D03*
%TO.P,J1,S2*%
X186320000Y-66800000D03*
%TO.P,J1,S3*%
X190500000Y-75440000D03*
%TO.P,J1,S4*%
X190500000Y-66800000D03*
%TD*%
D12*
%TO.P,SW1,2*%
%TO.N,GND*%
X111760000Y-78105000D03*
%TO.P,SW1,1*%
%TO.N,BTN1*%
X118110000Y-75565000D03*
%TD*%
%TO.P,SW2,2*%
%TO.N,GND*%
X130810000Y-59055000D03*
%TO.P,SW2,1*%
%TO.N,BTN2*%
X137160000Y-56515000D03*
%TD*%
%TO.P,SW3,1*%
%TO.N,BTN3*%
X137160000Y-75565000D03*
%TO.P,SW3,2*%
%TO.N,GND*%
X130810000Y-78105000D03*
%TD*%
%TO.P,SW4,1*%
%TO.N,BTN4*%
X156210000Y-56515000D03*
%TO.P,SW4,2*%
%TO.N,GND*%
X149860000Y-59055000D03*
%TD*%
%TO.P,SW5,2*%
%TO.N,GND*%
X149860000Y-78105000D03*
%TO.P,SW5,1*%
%TO.N,BTN5*%
X156210000Y-75565000D03*
%TD*%
D15*
%TO.N,Net-(C2-Pad1)*%
X179563440Y-81061560D03*
X178063440Y-80586580D03*
%TO.N,+5V*%
X175143160Y-89131140D03*
X183834400Y-83077680D03*
X184640220Y-87462360D03*
X174043340Y-83779360D03*
X179247800Y-68308220D03*
%TO.N,RESET*%
X174480220Y-77182980D03*
%TO.N,GND*%
X171333160Y-89382600D03*
X177673000Y-74493120D03*
X186456320Y-81287620D03*
X184640220Y-86291420D03*
%TD*%
D16*
%TO.N,Net-(C2-Pad1)*%
X178538420Y-81061560D02*
X178063440Y-80586580D01*
X179563440Y-81061560D02*
X178538420Y-81061560D01*
%TO.N,+5V*%
X175143160Y-89131140D02*
X179997100Y-84277200D01*
X176451690Y-75694970D02*
X183834400Y-83077680D01*
X176451690Y-69960200D02*
X176451690Y-75694970D01*
X183834400Y-86656540D02*
X184640220Y-87462360D01*
X181196620Y-83077680D02*
X179997100Y-84277200D01*
X180494940Y-83779360D02*
X181196620Y-83077680D01*
X174043340Y-83779360D02*
X180494940Y-83779360D01*
X186636660Y-57851040D02*
X188826140Y-60040520D01*
X188826140Y-60040520D02*
X188826140Y-64185800D01*
X188826140Y-64185800D02*
X187937140Y-65074800D01*
X187937140Y-65074800D02*
X181337090Y-65074800D01*
X179247800Y-68308220D02*
X178130200Y-68308220D01*
X178130200Y-68308220D02*
X178116935Y-68294955D01*
X178116935Y-68294955D02*
X176451690Y-69960200D01*
X181337090Y-65074800D02*
X178116935Y-68294955D01*
X183834400Y-83077680D02*
X183834400Y-86656540D01*
X183834400Y-83077680D02*
X181196620Y-83077680D01*
%TO.N,RESET*%
X181150689Y-64624791D02*
X182402909Y-64624791D01*
X176001680Y-69773800D02*
X181150689Y-64624791D01*
X176001680Y-75661520D02*
X176001680Y-69773800D01*
X182402909Y-64624791D02*
X184096660Y-62931040D01*
X174480220Y-77182980D02*
X176001680Y-75661520D01*
%TO.N,GND*%
X168910000Y-67449700D02*
X168910000Y-68580000D01*
%TD*%
D17*
%TO.N,GND*%
X190864545Y-50228909D02*
X191215208Y-50334780D01*
X191538625Y-50506744D01*
X191822484Y-50738254D01*
X192055965Y-51020486D01*
X192230183Y-51342695D01*
X192338502Y-51692614D01*
X192380000Y-52087443D01*
X192380001Y-90137711D01*
X192341091Y-90534545D01*
X192235220Y-90885206D01*
X192063257Y-91208623D01*
X191831748Y-91492482D01*
X191549514Y-91725965D01*
X191227304Y-91900184D01*
X190877385Y-92008502D01*
X190482557Y-92050000D01*
X106712279Y-92050000D01*
X106315455Y-92011091D01*
X105964794Y-91905220D01*
X105641377Y-91733257D01*
X105357518Y-91501748D01*
X105124035Y-91219514D01*
X104949816Y-90897304D01*
X104841498Y-90547385D01*
X104800000Y-90152557D01*
X104800000Y-85562927D01*
X108892920Y-85562927D01*
X108892920Y-85801473D01*
X108939458Y-86035436D01*
X109030745Y-86255824D01*
X109163274Y-86454168D01*
X109331952Y-86622846D01*
X109530296Y-86755375D01*
X109750684Y-86846662D01*
X109984647Y-86893200D01*
X110223193Y-86893200D01*
X110457156Y-86846662D01*
X110532110Y-86815615D01*
X123254350Y-86815615D01*
X123494496Y-87202858D01*
X123988397Y-87463481D01*
X124523653Y-87622741D01*
X125079694Y-87674518D01*
X125635152Y-87616821D01*
X126168681Y-87451868D01*
X126634544Y-87202858D01*
X126874690Y-86815615D01*
X125064520Y-85005445D01*
X123254350Y-86815615D01*
X110532110Y-86815615D01*
X110677544Y-86755375D01*
X110875888Y-86622846D01*
X111044566Y-86454168D01*
X111177095Y-86255824D01*
X111268382Y-86035436D01*
X111314920Y-85801473D01*
X111314920Y-85562927D01*
X111268382Y-85328964D01*
X111177095Y-85108576D01*
X111044566Y-84910232D01*
X110975348Y-84841014D01*
X122215842Y-84841014D01*
X122273539Y-85396472D01*
X122438492Y-85930001D01*
X122687502Y-86395864D01*
X123074745Y-86636010D01*
X124884915Y-84825840D01*
X125244125Y-84825840D01*
X127054295Y-86636010D01*
X127441538Y-86395864D01*
X127702161Y-85901963D01*
X127861421Y-85366707D01*
X127913198Y-84810666D01*
X127855501Y-84255208D01*
X127690548Y-83721679D01*
X127441538Y-83255816D01*
X127054295Y-83015670D01*
X125244125Y-84825840D01*
X124884915Y-84825840D01*
X123074745Y-83015670D01*
X122687502Y-83255816D01*
X122426879Y-83749717D01*
X122267619Y-84284973D01*
X122215842Y-84841014D01*
X110975348Y-84841014D01*
X110875888Y-84741554D01*
X110677544Y-84609025D01*
X110457156Y-84517738D01*
X110223193Y-84471200D01*
X109984647Y-84471200D01*
X109750684Y-84517738D01*
X109530296Y-84609025D01*
X109331952Y-84741554D01*
X109163274Y-84910232D01*
X109030745Y-85108576D01*
X108939458Y-85328964D01*
X108892920Y-85562927D01*
X104800000Y-85562927D01*
X104800000Y-80498740D01*
X109005000Y-80498740D01*
X109005000Y-80791260D01*
X109062068Y-81078158D01*
X109174010Y-81348411D01*
X109336525Y-81591632D01*
X109543368Y-81798475D01*
X109786589Y-81960990D01*
X110056842Y-82072932D01*
X110343740Y-82130000D01*
X110636260Y-82130000D01*
X110923158Y-82072932D01*
X111193411Y-81960990D01*
X111436632Y-81798475D01*
X111643475Y-81591632D01*
X111805990Y-81348411D01*
X111917932Y-81078158D01*
X111975000Y-80791260D01*
X111975000Y-80498740D01*
X111952471Y-80385475D01*
X112935000Y-80385475D01*
X112935000Y-80904525D01*
X113036261Y-81413601D01*
X113234893Y-81893141D01*
X113523262Y-82324715D01*
X113890285Y-82691738D01*
X114321859Y-82980107D01*
X114801399Y-83178739D01*
X115310475Y-83280000D01*
X115829525Y-83280000D01*
X116338601Y-83178739D01*
X116818141Y-82980107D01*
X117033714Y-82836065D01*
X123254350Y-82836065D01*
X125064520Y-84646235D01*
X126874690Y-82836065D01*
X126634544Y-82448822D01*
X126140643Y-82188199D01*
X125605387Y-82028939D01*
X125049346Y-81977162D01*
X124493888Y-82034859D01*
X123960359Y-82199812D01*
X123494496Y-82448822D01*
X123254350Y-82836065D01*
X117033714Y-82836065D01*
X117249715Y-82691738D01*
X117616738Y-82324715D01*
X117905107Y-81893141D01*
X118103739Y-81413601D01*
X118205000Y-80904525D01*
X118205000Y-80498740D01*
X119165000Y-80498740D01*
X119165000Y-80791260D01*
X119222068Y-81078158D01*
X119334010Y-81348411D01*
X119496525Y-81591632D01*
X119703368Y-81798475D01*
X119946589Y-81960990D01*
X120216842Y-82072932D01*
X120503740Y-82130000D01*
X120796260Y-82130000D01*
X121083158Y-82072932D01*
X121353411Y-81960990D01*
X121596632Y-81798475D01*
X121803475Y-81591632D01*
X121965990Y-81348411D01*
X122077932Y-81078158D01*
X122135000Y-80791260D01*
X122135000Y-80498740D01*
X128055000Y-80498740D01*
X128055000Y-80791260D01*
X128112068Y-81078158D01*
X128224010Y-81348411D01*
X128386525Y-81591632D01*
X128593368Y-81798475D01*
X128836589Y-81960990D01*
X129106842Y-82072932D01*
X129393740Y-82130000D01*
X129686260Y-82130000D01*
X129973158Y-82072932D01*
X130243411Y-81960990D01*
X130486632Y-81798475D01*
X130693475Y-81591632D01*
X130855990Y-81348411D01*
X130967932Y-81078158D01*
X131025000Y-80791260D01*
X131025000Y-80498740D01*
X131002471Y-80385475D01*
X131985000Y-80385475D01*
X131985000Y-80904525D01*
X132086261Y-81413601D01*
X132284893Y-81893141D01*
X132573262Y-82324715D01*
X132940285Y-82691738D01*
X133371859Y-82980107D01*
X133851399Y-83178739D01*
X134360475Y-83280000D01*
X134879525Y-83280000D01*
X135388601Y-83178739D01*
X135868141Y-82980107D01*
X136299715Y-82691738D01*
X136666738Y-82324715D01*
X136955107Y-81893141D01*
X137153739Y-81413601D01*
X137255000Y-80904525D01*
X137255000Y-80498740D01*
X138215000Y-80498740D01*
X138215000Y-80791260D01*
X138272068Y-81078158D01*
X138384010Y-81348411D01*
X138546525Y-81591632D01*
X138753368Y-81798475D01*
X138996589Y-81960990D01*
X139266842Y-82072932D01*
X139553740Y-82130000D01*
X139846260Y-82130000D01*
X140133158Y-82072932D01*
X140403411Y-81960990D01*
X140646632Y-81798475D01*
X140853475Y-81591632D01*
X141015990Y-81348411D01*
X141127932Y-81078158D01*
X141185000Y-80791260D01*
X141185000Y-80498740D01*
X147105000Y-80498740D01*
X147105000Y-80791260D01*
X147162068Y-81078158D01*
X147274010Y-81348411D01*
X147436525Y-81591632D01*
X147643368Y-81798475D01*
X147886589Y-81960990D01*
X148156842Y-82072932D01*
X148443740Y-82130000D01*
X148736260Y-82130000D01*
X149023158Y-82072932D01*
X149293411Y-81960990D01*
X149536632Y-81798475D01*
X149743475Y-81591632D01*
X149905990Y-81348411D01*
X150017932Y-81078158D01*
X150075000Y-80791260D01*
X150075000Y-80498740D01*
X150052471Y-80385475D01*
X151035000Y-80385475D01*
X151035000Y-80904525D01*
X151136261Y-81413601D01*
X151334893Y-81893141D01*
X151623262Y-82324715D01*
X151990285Y-82691738D01*
X152421859Y-82980107D01*
X152901399Y-83178739D01*
X153410475Y-83280000D01*
X153929525Y-83280000D01*
X154438601Y-83178739D01*
X154918141Y-82980107D01*
X155349715Y-82691738D01*
X155716738Y-82324715D01*
X156005107Y-81893141D01*
X156203739Y-81413601D01*
X156305000Y-80904525D01*
X156305000Y-80498740D01*
X157265000Y-80498740D01*
X157265000Y-80791260D01*
X157322068Y-81078158D01*
X157434010Y-81348411D01*
X157596525Y-81591632D01*
X157803368Y-81798475D01*
X158046589Y-81960990D01*
X158316842Y-82072932D01*
X158603740Y-82130000D01*
X158896260Y-82130000D01*
X159183158Y-82072932D01*
X159453411Y-81960990D01*
X159696632Y-81798475D01*
X159903475Y-81591632D01*
X160065990Y-81348411D01*
X160177932Y-81078158D01*
X160235000Y-80791260D01*
X160235000Y-80498740D01*
X160177932Y-80211842D01*
X160065990Y-79941589D01*
X159903475Y-79698368D01*
X159696632Y-79491525D01*
X159453411Y-79329010D01*
X159183158Y-79217068D01*
X158896260Y-79160000D01*
X158603740Y-79160000D01*
X158316842Y-79217068D01*
X158046589Y-79329010D01*
X157803368Y-79491525D01*
X157596525Y-79698368D01*
X157434010Y-79941589D01*
X157322068Y-80211842D01*
X157265000Y-80498740D01*
X156305000Y-80498740D01*
X156305000Y-80385475D01*
X156203739Y-79876399D01*
X156005107Y-79396859D01*
X155716738Y-78965285D01*
X155349715Y-78598262D01*
X154918141Y-78309893D01*
X154438601Y-78111261D01*
X153929525Y-78010000D01*
X153410475Y-78010000D01*
X152901399Y-78111261D01*
X152421859Y-78309893D01*
X151990285Y-78598262D01*
X151623262Y-78965285D01*
X151334893Y-79396859D01*
X151136261Y-79876399D01*
X151035000Y-80385475D01*
X150052471Y-80385475D01*
X150017932Y-80211842D01*
X149905990Y-79941589D01*
X149839650Y-79842304D01*
X149918639Y-79847409D01*
X150257439Y-79802489D01*
X150580966Y-79692336D01*
X150779274Y-79586338D01*
X150887107Y-79311712D01*
X149860000Y-78284605D01*
X149845858Y-78298748D01*
X149666253Y-78119143D01*
X149680395Y-78105000D01*
X150039605Y-78105000D01*
X151066712Y-79132107D01*
X151341338Y-79024274D01*
X151492216Y-78717616D01*
X151580369Y-78387415D01*
X151602409Y-78046361D01*
X151557489Y-77707561D01*
X151447336Y-77384034D01*
X151341338Y-77185726D01*
X151066712Y-77077893D01*
X150039605Y-78105000D01*
X149680395Y-78105000D01*
X148653288Y-77077893D01*
X148378662Y-77185726D01*
X148227784Y-77492384D01*
X148139631Y-77822585D01*
X148117591Y-78163639D01*
X148162511Y-78502439D01*
X148272664Y-78825966D01*
X148378662Y-79024274D01*
X148653286Y-79132106D01*
X148625392Y-79160000D01*
X148443740Y-79160000D01*
X148156842Y-79217068D01*
X147886589Y-79329010D01*
X147643368Y-79491525D01*
X147436525Y-79698368D01*
X147274010Y-79941589D01*
X147162068Y-80211842D01*
X147105000Y-80498740D01*
X141185000Y-80498740D01*
X141127932Y-80211842D01*
X141015990Y-79941589D01*
X140853475Y-79698368D01*
X140646632Y-79491525D01*
X140403411Y-79329010D01*
X140133158Y-79217068D01*
X139846260Y-79160000D01*
X139553740Y-79160000D01*
X139266842Y-79217068D01*
X138996589Y-79329010D01*
X138753368Y-79491525D01*
X138546525Y-79698368D01*
X138384010Y-79941589D01*
X138272068Y-80211842D01*
X138215000Y-80498740D01*
X137255000Y-80498740D01*
X137255000Y-80385475D01*
X137153739Y-79876399D01*
X136955107Y-79396859D01*
X136666738Y-78965285D01*
X136299715Y-78598262D01*
X135868141Y-78309893D01*
X135388601Y-78111261D01*
X134879525Y-78010000D01*
X134360475Y-78010000D01*
X133851399Y-78111261D01*
X133371859Y-78309893D01*
X132940285Y-78598262D01*
X132573262Y-78965285D01*
X132284893Y-79396859D01*
X132086261Y-79876399D01*
X131985000Y-80385475D01*
X131002471Y-80385475D01*
X130967932Y-80211842D01*
X130855990Y-79941589D01*
X130789650Y-79842304D01*
X130868639Y-79847409D01*
X131207439Y-79802489D01*
X131530966Y-79692336D01*
X131729274Y-79586338D01*
X131837107Y-79311712D01*
X130810000Y-78284605D01*
X130795858Y-78298748D01*
X130616253Y-78119143D01*
X130630395Y-78105000D01*
X130989605Y-78105000D01*
X132016712Y-79132107D01*
X132291338Y-79024274D01*
X132442216Y-78717616D01*
X132530369Y-78387415D01*
X132552409Y-78046361D01*
X132507489Y-77707561D01*
X132397336Y-77384034D01*
X132291338Y-77185726D01*
X132016712Y-77077893D01*
X130989605Y-78105000D01*
X130630395Y-78105000D01*
X129603288Y-77077893D01*
X129328662Y-77185726D01*
X129177784Y-77492384D01*
X129089631Y-77822585D01*
X129067591Y-78163639D01*
X129112511Y-78502439D01*
X129222664Y-78825966D01*
X129328662Y-79024274D01*
X129603286Y-79132106D01*
X129575392Y-79160000D01*
X129393740Y-79160000D01*
X129106842Y-79217068D01*
X128836589Y-79329010D01*
X128593368Y-79491525D01*
X128386525Y-79698368D01*
X128224010Y-79941589D01*
X128112068Y-80211842D01*
X128055000Y-80498740D01*
X122135000Y-80498740D01*
X122077932Y-80211842D01*
X121965990Y-79941589D01*
X121803475Y-79698368D01*
X121596632Y-79491525D01*
X121353411Y-79329010D01*
X121083158Y-79217068D01*
X120796260Y-79160000D01*
X120503740Y-79160000D01*
X120216842Y-79217068D01*
X119946589Y-79329010D01*
X119703368Y-79491525D01*
X119496525Y-79698368D01*
X119334010Y-79941589D01*
X119222068Y-80211842D01*
X119165000Y-80498740D01*
X118205000Y-80498740D01*
X118205000Y-80385475D01*
X118103739Y-79876399D01*
X117905107Y-79396859D01*
X117616738Y-78965285D01*
X117249715Y-78598262D01*
X116818141Y-78309893D01*
X116338601Y-78111261D01*
X115829525Y-78010000D01*
X115310475Y-78010000D01*
X114801399Y-78111261D01*
X114321859Y-78309893D01*
X113890285Y-78598262D01*
X113523262Y-78965285D01*
X113234893Y-79396859D01*
X113036261Y-79876399D01*
X112935000Y-80385475D01*
X111952471Y-80385475D01*
X111917932Y-80211842D01*
X111805990Y-79941589D01*
X111739650Y-79842304D01*
X111818639Y-79847409D01*
X112157439Y-79802489D01*
X112480966Y-79692336D01*
X112679274Y-79586338D01*
X112787107Y-79311712D01*
X111760000Y-78284605D01*
X111745858Y-78298748D01*
X111566253Y-78119143D01*
X111580395Y-78105000D01*
X111939605Y-78105000D01*
X112966712Y-79132107D01*
X113241338Y-79024274D01*
X113392216Y-78717616D01*
X113480369Y-78387415D01*
X113502409Y-78046361D01*
X113457489Y-77707561D01*
X113347336Y-77384034D01*
X113241338Y-77185726D01*
X112966712Y-77077893D01*
X111939605Y-78105000D01*
X111580395Y-78105000D01*
X110553288Y-77077893D01*
X110278662Y-77185726D01*
X110127784Y-77492384D01*
X110039631Y-77822585D01*
X110017591Y-78163639D01*
X110062511Y-78502439D01*
X110172664Y-78825966D01*
X110278662Y-79024274D01*
X110553286Y-79132106D01*
X110525392Y-79160000D01*
X110343740Y-79160000D01*
X110056842Y-79217068D01*
X109786589Y-79329010D01*
X109543368Y-79491525D01*
X109336525Y-79698368D01*
X109174010Y-79941589D01*
X109062068Y-80211842D01*
X109005000Y-80498740D01*
X104800000Y-80498740D01*
X104800000Y-76898288D01*
X110732893Y-76898288D01*
X111760000Y-77925395D01*
X112787107Y-76898288D01*
X112679274Y-76623662D01*
X112372616Y-76472784D01*
X112042415Y-76384631D01*
X111701361Y-76362591D01*
X111362561Y-76407511D01*
X111039034Y-76517664D01*
X110840726Y-76623662D01*
X110732893Y-76898288D01*
X104800000Y-76898288D01*
X104800000Y-75394117D01*
X116375000Y-75394117D01*
X116375000Y-75735883D01*
X116441675Y-76071081D01*
X116572463Y-76386831D01*
X116762337Y-76670998D01*
X117004002Y-76912663D01*
X117288169Y-77102537D01*
X117603919Y-77233325D01*
X117939117Y-77300000D01*
X118280883Y-77300000D01*
X118616081Y-77233325D01*
X118931831Y-77102537D01*
X119215998Y-76912663D01*
X119230373Y-76898288D01*
X129782893Y-76898288D01*
X130810000Y-77925395D01*
X131837107Y-76898288D01*
X131729274Y-76623662D01*
X131422616Y-76472784D01*
X131092415Y-76384631D01*
X130751361Y-76362591D01*
X130412561Y-76407511D01*
X130089034Y-76517664D01*
X129890726Y-76623662D01*
X129782893Y-76898288D01*
X119230373Y-76898288D01*
X119457663Y-76670998D01*
X119647537Y-76386831D01*
X119778325Y-76071081D01*
X119845000Y-75735883D01*
X119845000Y-75394117D01*
X135425000Y-75394117D01*
X135425000Y-75735883D01*
X135491675Y-76071081D01*
X135622463Y-76386831D01*
X135812337Y-76670998D01*
X136054002Y-76912663D01*
X136338169Y-77102537D01*
X136653919Y-77233325D01*
X136989117Y-77300000D01*
X137330883Y-77300000D01*
X137666081Y-77233325D01*
X137981831Y-77102537D01*
X138265998Y-76912663D01*
X138280373Y-76898288D01*
X148832893Y-76898288D01*
X149860000Y-77925395D01*
X150887107Y-76898288D01*
X150779274Y-76623662D01*
X150472616Y-76472784D01*
X150142415Y-76384631D01*
X149801361Y-76362591D01*
X149462561Y-76407511D01*
X149139034Y-76517664D01*
X148940726Y-76623662D01*
X148832893Y-76898288D01*
X138280373Y-76898288D01*
X138507663Y-76670998D01*
X138697537Y-76386831D01*
X138828325Y-76071081D01*
X138895000Y-75735883D01*
X138895000Y-75394117D01*
X154475000Y-75394117D01*
X154475000Y-75735883D01*
X154541675Y-76071081D01*
X154672463Y-76386831D01*
X154862337Y-76670998D01*
X155104002Y-76912663D01*
X155388169Y-77102537D01*
X155703919Y-77233325D01*
X156039117Y-77300000D01*
X156380883Y-77300000D01*
X156716081Y-77233325D01*
X157031831Y-77102537D01*
X157315998Y-76912663D01*
X157557663Y-76670998D01*
X157747537Y-76386831D01*
X157878325Y-76071081D01*
X157945000Y-75735883D01*
X157945000Y-75394117D01*
X157878325Y-75058919D01*
X157747537Y-74743169D01*
X157557663Y-74459002D01*
X157315998Y-74217337D01*
X157031831Y-74027463D01*
X156716081Y-73896675D01*
X156380883Y-73830000D01*
X156039117Y-73830000D01*
X155703919Y-73896675D01*
X155388169Y-74027463D01*
X155104002Y-74217337D01*
X154862337Y-74459002D01*
X154672463Y-74743169D01*
X154541675Y-75058919D01*
X154475000Y-75394117D01*
X138895000Y-75394117D01*
X138828325Y-75058919D01*
X138697537Y-74743169D01*
X138507663Y-74459002D01*
X138265998Y-74217337D01*
X137981831Y-74027463D01*
X137666081Y-73896675D01*
X137330883Y-73830000D01*
X136989117Y-73830000D01*
X136653919Y-73896675D01*
X136338169Y-74027463D01*
X136054002Y-74217337D01*
X135812337Y-74459002D01*
X135622463Y-74743169D01*
X135491675Y-75058919D01*
X135425000Y-75394117D01*
X119845000Y-75394117D01*
X119778325Y-75058919D01*
X119647537Y-74743169D01*
X119457663Y-74459002D01*
X119215998Y-74217337D01*
X118931831Y-74027463D01*
X118616081Y-73896675D01*
X118280883Y-73830000D01*
X117939117Y-73830000D01*
X117603919Y-73896675D01*
X117288169Y-74027463D01*
X117004002Y-74217337D01*
X116762337Y-74459002D01*
X116572463Y-74743169D01*
X116441675Y-75058919D01*
X116375000Y-75394117D01*
X104800000Y-75394117D01*
X104800000Y-70973740D01*
X166155000Y-70973740D01*
X166155000Y-71266260D01*
X166212068Y-71553158D01*
X166324010Y-71823411D01*
X166486525Y-72066632D01*
X166693368Y-72273475D01*
X166936589Y-72435990D01*
X167206842Y-72547932D01*
X167493740Y-72605000D01*
X167786260Y-72605000D01*
X168073158Y-72547932D01*
X168343411Y-72435990D01*
X168586632Y-72273475D01*
X168793475Y-72066632D01*
X168955990Y-71823411D01*
X169067932Y-71553158D01*
X169125000Y-71266260D01*
X169125000Y-70973740D01*
X169102471Y-70860475D01*
X170085000Y-70860475D01*
X170085000Y-71379525D01*
X170186261Y-71888601D01*
X170384893Y-72368141D01*
X170673262Y-72799715D01*
X171040285Y-73166738D01*
X171471859Y-73455107D01*
X171951399Y-73653739D01*
X172460475Y-73755000D01*
X172979525Y-73755000D01*
X173488601Y-73653739D01*
X173968141Y-73455107D01*
X174399715Y-73166738D01*
X174766738Y-72799715D01*
X175055107Y-72368141D01*
X175241681Y-71917712D01*
X175241680Y-75346718D01*
X174440419Y-76147980D01*
X174378281Y-76147980D01*
X174178322Y-76187754D01*
X173989964Y-76265775D01*
X173820446Y-76379043D01*
X173676283Y-76523206D01*
X173563015Y-76692724D01*
X173484994Y-76881082D01*
X173445220Y-77081041D01*
X173445220Y-77284919D01*
X173484994Y-77484878D01*
X173563015Y-77673236D01*
X173676283Y-77842754D01*
X173820446Y-77986917D01*
X173989964Y-78100185D01*
X174178322Y-78178206D01*
X174378281Y-78217980D01*
X174582159Y-78217980D01*
X174782118Y-78178206D01*
X174970476Y-78100185D01*
X175139994Y-77986917D01*
X175284157Y-77842754D01*
X175397425Y-77673236D01*
X175475446Y-77484878D01*
X175515220Y-77284919D01*
X175515220Y-77222781D01*
X176209960Y-76528041D01*
X179719180Y-80037262D01*
X179665379Y-80026560D01*
X179461501Y-80026560D01*
X179261542Y-80066334D01*
X179073184Y-80144355D01*
X179016287Y-80182372D01*
X178980645Y-80096324D01*
X178867377Y-79926806D01*
X178723214Y-79782643D01*
X178553696Y-79669375D01*
X178365338Y-79591354D01*
X178165379Y-79551580D01*
X177961501Y-79551580D01*
X177761542Y-79591354D01*
X177573184Y-79669375D01*
X177403666Y-79782643D01*
X177259503Y-79926806D01*
X177146235Y-80096324D01*
X177068214Y-80284682D01*
X177028440Y-80484641D01*
X177028440Y-80688519D01*
X177068214Y-80888478D01*
X177146235Y-81076836D01*
X177259503Y-81246354D01*
X177403666Y-81390517D01*
X177573184Y-81503785D01*
X177761542Y-81581806D01*
X177961501Y-81621580D01*
X178022812Y-81621580D01*
X178114144Y-81696534D01*
X178246173Y-81767106D01*
X178389434Y-81810563D01*
X178501087Y-81821560D01*
X178501096Y-81821560D01*
X178538419Y-81825236D01*
X178575742Y-81821560D01*
X178859729Y-81821560D01*
X178903666Y-81865497D01*
X179073184Y-81978765D01*
X179261542Y-82056786D01*
X179461501Y-82096560D01*
X179665379Y-82096560D01*
X179865338Y-82056786D01*
X180053696Y-81978765D01*
X180223214Y-81865497D01*
X180367377Y-81721334D01*
X180480645Y-81551816D01*
X180558666Y-81363458D01*
X180598440Y-81163499D01*
X180598440Y-80959621D01*
X180587738Y-80905820D01*
X181999598Y-82317680D01*
X181233942Y-82317680D01*
X181196619Y-82314004D01*
X181159296Y-82317680D01*
X181159287Y-82317680D01*
X181047634Y-82328677D01*
X180904373Y-82372134D01*
X180772344Y-82442706D01*
X180772342Y-82442707D01*
X180772343Y-82442707D01*
X180685616Y-82513881D01*
X180685612Y-82513885D01*
X180656619Y-82537679D01*
X180632825Y-82566672D01*
X180180138Y-83019360D01*
X174747051Y-83019360D01*
X174703114Y-82975423D01*
X174533596Y-82862155D01*
X174345238Y-82784134D01*
X174145279Y-82744360D01*
X173941401Y-82744360D01*
X173741442Y-82784134D01*
X173553084Y-82862155D01*
X173383566Y-82975423D01*
X173239403Y-83119586D01*
X173126135Y-83289104D01*
X173048114Y-83477462D01*
X173008340Y-83677421D01*
X173008340Y-83881299D01*
X173048114Y-84081258D01*
X173126135Y-84269616D01*
X173239403Y-84439134D01*
X173383566Y-84583297D01*
X173553084Y-84696565D01*
X173741442Y-84774586D01*
X173941401Y-84814360D01*
X174145279Y-84814360D01*
X174345238Y-84774586D01*
X174533596Y-84696565D01*
X174703114Y-84583297D01*
X174747051Y-84539360D01*
X178660138Y-84539360D01*
X175103359Y-88096140D01*
X175041221Y-88096140D01*
X174841262Y-88135914D01*
X174652904Y-88213935D01*
X174483386Y-88327203D01*
X174339223Y-88471366D01*
X174225955Y-88640884D01*
X174147934Y-88829242D01*
X174108160Y-89029201D01*
X174108160Y-89233079D01*
X174147934Y-89433038D01*
X174225955Y-89621396D01*
X174339223Y-89790914D01*
X174483386Y-89935077D01*
X174652904Y-90048345D01*
X174841262Y-90126366D01*
X175041221Y-90166140D01*
X175245099Y-90166140D01*
X175445058Y-90126366D01*
X175633416Y-90048345D01*
X175802934Y-89935077D01*
X175947097Y-89790914D01*
X176060365Y-89621396D01*
X176138386Y-89433038D01*
X176178160Y-89233079D01*
X176178160Y-89170941D01*
X180560899Y-84788203D01*
X180560903Y-84788198D01*
X181005943Y-84343159D01*
X181034941Y-84319361D01*
X181058740Y-84290362D01*
X181511423Y-83837680D01*
X183074400Y-83837680D01*
X183074401Y-86619208D01*
X183070724Y-86656540D01*
X183074401Y-86693873D01*
X183085398Y-86805526D01*
X183097876Y-86846662D01*
X183128854Y-86948786D01*
X183199426Y-87080816D01*
X183264791Y-87160462D01*
X183294400Y-87196541D01*
X183323398Y-87220339D01*
X183605220Y-87502161D01*
X183605220Y-87564299D01*
X183644994Y-87764258D01*
X183723015Y-87952616D01*
X183836283Y-88122134D01*
X183980446Y-88266297D01*
X184149964Y-88379565D01*
X184338322Y-88457586D01*
X184538281Y-88497360D01*
X184742159Y-88497360D01*
X184942118Y-88457586D01*
X185130476Y-88379565D01*
X185299994Y-88266297D01*
X185444157Y-88122134D01*
X185557425Y-87952616D01*
X185635446Y-87764258D01*
X185675220Y-87564299D01*
X185675220Y-87360421D01*
X185635446Y-87160462D01*
X185557425Y-86972104D01*
X185444157Y-86802586D01*
X185299994Y-86658423D01*
X185130476Y-86545155D01*
X184942118Y-86467134D01*
X184742159Y-86427360D01*
X184680021Y-86427360D01*
X184594400Y-86341739D01*
X184594400Y-83781391D01*
X184638337Y-83737454D01*
X184751605Y-83567936D01*
X184829626Y-83379578D01*
X184869400Y-83179619D01*
X184869400Y-82975741D01*
X184829626Y-82775782D01*
X184751605Y-82587424D01*
X184638337Y-82417906D01*
X184494174Y-82273743D01*
X184324656Y-82160475D01*
X184136298Y-82082454D01*
X183936339Y-82042680D01*
X183874202Y-82042680D01*
X177577332Y-75745810D01*
X184676036Y-75745810D01*
X184759937Y-75978864D01*
X184884953Y-76170441D01*
X185044941Y-76333947D01*
X185233754Y-76463099D01*
X185444135Y-76552934D01*
X185668000Y-76600000D01*
X186193000Y-76600000D01*
X186193000Y-75567000D01*
X186447000Y-75567000D01*
X186447000Y-76600000D01*
X186972000Y-76600000D01*
X187195865Y-76552934D01*
X187406246Y-76463099D01*
X187595059Y-76333947D01*
X187755047Y-76170441D01*
X187880063Y-75978864D01*
X187963964Y-75745810D01*
X188856036Y-75745810D01*
X188939937Y-75978864D01*
X189064953Y-76170441D01*
X189224941Y-76333947D01*
X189413754Y-76463099D01*
X189624135Y-76552934D01*
X189848000Y-76600000D01*
X190373000Y-76600000D01*
X190373000Y-75567000D01*
X190627000Y-75567000D01*
X190627000Y-76600000D01*
X191152000Y-76600000D01*
X191375865Y-76552934D01*
X191586246Y-76463099D01*
X191775059Y-76333947D01*
X191935047Y-76170441D01*
X192060063Y-75978864D01*
X192143964Y-75745810D01*
X192018163Y-75567000D01*
X190627000Y-75567000D01*
X190373000Y-75567000D01*
X188981837Y-75567000D01*
X188856036Y-75745810D01*
X187963964Y-75745810D01*
X187838163Y-75567000D01*
X186447000Y-75567000D01*
X186193000Y-75567000D01*
X184801837Y-75567000D01*
X184676036Y-75745810D01*
X177577332Y-75745810D01*
X177211690Y-75380169D01*
X177211690Y-75134190D01*
X184676036Y-75134190D01*
X184801837Y-75313000D01*
X186193000Y-75313000D01*
X186193000Y-75293000D01*
X186447000Y-75293000D01*
X186447000Y-75313000D01*
X187838163Y-75313000D01*
X187963964Y-75134190D01*
X188856036Y-75134190D01*
X188981837Y-75313000D01*
X190373000Y-75313000D01*
X190373000Y-74280000D01*
X190627000Y-74280000D01*
X190627000Y-75313000D01*
X192018163Y-75313000D01*
X192143964Y-75134190D01*
X192060063Y-74901136D01*
X191935047Y-74709559D01*
X191775059Y-74546053D01*
X191586246Y-74416901D01*
X191375865Y-74327066D01*
X191152000Y-74280000D01*
X190627000Y-74280000D01*
X190373000Y-74280000D01*
X189848000Y-74280000D01*
X189624135Y-74327066D01*
X189413754Y-74416901D01*
X189224941Y-74546053D01*
X189064953Y-74709559D01*
X188939937Y-74901136D01*
X188856036Y-75134190D01*
X187963964Y-75134190D01*
X187880063Y-74901136D01*
X187755047Y-74709559D01*
X187643435Y-74595493D01*
X187722896Y-74476572D01*
X187797147Y-74297314D01*
X187835000Y-74107014D01*
X187835000Y-73912986D01*
X187797147Y-73722686D01*
X187722896Y-73543428D01*
X187615099Y-73382099D01*
X187477901Y-73244901D01*
X187316572Y-73137104D01*
X187137314Y-73062853D01*
X186947014Y-73025000D01*
X186752986Y-73025000D01*
X186562686Y-73062853D01*
X186383428Y-73137104D01*
X186222099Y-73244901D01*
X186084901Y-73382099D01*
X185977104Y-73543428D01*
X185902853Y-73722686D01*
X185865000Y-73912986D01*
X185865000Y-74107014D01*
X185899409Y-74280000D01*
X185668000Y-74280000D01*
X185444135Y-74327066D01*
X185233754Y-74416901D01*
X185044941Y-74546053D01*
X184884953Y-74709559D01*
X184759937Y-74901136D01*
X184676036Y-75134190D01*
X177211690Y-75134190D01*
X177211690Y-72483666D01*
X177366842Y-72547932D01*
X177653740Y-72605000D01*
X177946260Y-72605000D01*
X178233158Y-72547932D01*
X178503411Y-72435990D01*
X178746632Y-72273475D01*
X178953475Y-72066632D01*
X179115990Y-71823411D01*
X179227932Y-71553158D01*
X179285000Y-71266260D01*
X179285000Y-70973740D01*
X179227932Y-70686842D01*
X179115990Y-70416589D01*
X178953475Y-70173368D01*
X178746632Y-69966525D01*
X178503411Y-69804010D01*
X178233158Y-69692068D01*
X177946260Y-69635000D01*
X177851692Y-69635000D01*
X178418472Y-69068220D01*
X178544089Y-69068220D01*
X178588026Y-69112157D01*
X178757544Y-69225425D01*
X178945902Y-69303446D01*
X179145861Y-69343220D01*
X179349739Y-69343220D01*
X179549698Y-69303446D01*
X179738056Y-69225425D01*
X179907574Y-69112157D01*
X180051737Y-68967994D01*
X180165005Y-68798476D01*
X180243026Y-68610118D01*
X180282800Y-68410159D01*
X180282800Y-68206281D01*
X180243026Y-68006322D01*
X180165005Y-67817964D01*
X180051737Y-67648446D01*
X179944991Y-67541700D01*
X180380881Y-67105810D01*
X184676036Y-67105810D01*
X184759937Y-67338864D01*
X184884953Y-67530441D01*
X185044941Y-67693947D01*
X185233754Y-67823099D01*
X185444135Y-67912934D01*
X185668000Y-67960000D01*
X185899409Y-67960000D01*
X185865000Y-68132986D01*
X185865000Y-68327014D01*
X185902853Y-68517314D01*
X185977104Y-68696572D01*
X186084901Y-68857901D01*
X186222099Y-68995099D01*
X186383428Y-69102896D01*
X186562686Y-69177147D01*
X186752986Y-69215000D01*
X186947014Y-69215000D01*
X187137314Y-69177147D01*
X187316572Y-69102896D01*
X187477901Y-68995099D01*
X187615099Y-68857901D01*
X187722896Y-68696572D01*
X187797147Y-68517314D01*
X187835000Y-68327014D01*
X187835000Y-68132986D01*
X187797147Y-67942686D01*
X187722896Y-67763428D01*
X187643435Y-67644507D01*
X187755047Y-67530441D01*
X187880063Y-67338864D01*
X187963964Y-67105810D01*
X188856036Y-67105810D01*
X188939937Y-67338864D01*
X189064953Y-67530441D01*
X189224941Y-67693947D01*
X189413754Y-67823099D01*
X189624135Y-67912934D01*
X189848000Y-67960000D01*
X190373000Y-67960000D01*
X190373000Y-66927000D01*
X190627000Y-66927000D01*
X190627000Y-67960000D01*
X191152000Y-67960000D01*
X191375865Y-67912934D01*
X191586246Y-67823099D01*
X191775059Y-67693947D01*
X191935047Y-67530441D01*
X192060063Y-67338864D01*
X192143964Y-67105810D01*
X192018163Y-66927000D01*
X190627000Y-66927000D01*
X190373000Y-66927000D01*
X188981837Y-66927000D01*
X188856036Y-67105810D01*
X187963964Y-67105810D01*
X187838163Y-66927000D01*
X186447000Y-66927000D01*
X186447000Y-66947000D01*
X186193000Y-66947000D01*
X186193000Y-66927000D01*
X184801837Y-66927000D01*
X184676036Y-67105810D01*
X180380881Y-67105810D01*
X181651892Y-65834800D01*
X185149109Y-65834800D01*
X185044941Y-65906053D01*
X184884953Y-66069559D01*
X184759937Y-66261136D01*
X184676036Y-66494190D01*
X184801837Y-66673000D01*
X186193000Y-66673000D01*
X186193000Y-66653000D01*
X186447000Y-66653000D01*
X186447000Y-66673000D01*
X187838163Y-66673000D01*
X187963964Y-66494190D01*
X188856036Y-66494190D01*
X188981837Y-66673000D01*
X190373000Y-66673000D01*
X190373000Y-65640000D01*
X190627000Y-65640000D01*
X190627000Y-66673000D01*
X192018163Y-66673000D01*
X192143964Y-66494190D01*
X192060063Y-66261136D01*
X191935047Y-66069559D01*
X191775059Y-65906053D01*
X191586246Y-65776901D01*
X191375865Y-65687066D01*
X191152000Y-65640000D01*
X190627000Y-65640000D01*
X190373000Y-65640000D01*
X189848000Y-65640000D01*
X189624135Y-65687066D01*
X189413754Y-65776901D01*
X189224941Y-65906053D01*
X189064953Y-66069559D01*
X188939937Y-66261136D01*
X188856036Y-66494190D01*
X187963964Y-66494190D01*
X187880063Y-66261136D01*
X187755047Y-66069559D01*
X187595059Y-65906053D01*
X187490891Y-65834800D01*
X187899818Y-65834800D01*
X187937140Y-65838476D01*
X187974462Y-65834800D01*
X187974473Y-65834800D01*
X188086126Y-65823803D01*
X188229387Y-65780346D01*
X188361416Y-65709774D01*
X188477141Y-65614801D01*
X188500943Y-65585798D01*
X189337143Y-64749599D01*
X189366141Y-64725801D01*
X189461114Y-64610076D01*
X189531686Y-64478047D01*
X189575143Y-64334786D01*
X189586140Y-64223133D01*
X189586140Y-64223123D01*
X189589816Y-64185800D01*
X189586140Y-64148477D01*
X189586140Y-60077842D01*
X189589816Y-60040519D01*
X189586140Y-60003196D01*
X189586140Y-60003187D01*
X189575143Y-59891534D01*
X189531686Y-59748273D01*
X189461114Y-59616244D01*
X189366141Y-59500519D01*
X189337144Y-59476722D01*
X188077869Y-58217448D01*
X188121660Y-57997300D01*
X188121660Y-57704780D01*
X188064592Y-57417882D01*
X187952650Y-57147629D01*
X187790135Y-56904408D01*
X187583292Y-56697565D01*
X187340071Y-56535050D01*
X187069818Y-56423108D01*
X186782920Y-56366040D01*
X186490400Y-56366040D01*
X186203502Y-56423108D01*
X185933249Y-56535050D01*
X185690028Y-56697565D01*
X185558173Y-56829420D01*
X185536162Y-56756860D01*
X185477197Y-56646546D01*
X185397845Y-56549855D01*
X185301154Y-56470503D01*
X185190840Y-56411538D01*
X185071142Y-56375228D01*
X184946660Y-56362968D01*
X183246660Y-56362968D01*
X183122178Y-56375228D01*
X183002480Y-56411538D01*
X182892166Y-56470503D01*
X182795475Y-56549855D01*
X182716123Y-56646546D01*
X182657158Y-56756860D01*
X182620848Y-56876558D01*
X182608588Y-57001040D01*
X182608588Y-58701040D01*
X182620848Y-58825522D01*
X182657158Y-58945220D01*
X182716123Y-59055534D01*
X182795475Y-59152225D01*
X182892166Y-59231577D01*
X183002480Y-59290542D01*
X183075040Y-59312553D01*
X182943185Y-59444408D01*
X182780670Y-59687629D01*
X182668728Y-59957882D01*
X182611660Y-60244780D01*
X182611660Y-60537300D01*
X182668728Y-60824198D01*
X182780670Y-61094451D01*
X182943185Y-61337672D01*
X183150028Y-61544515D01*
X183324420Y-61661040D01*
X183150028Y-61777565D01*
X182943185Y-61984408D01*
X182780670Y-62227629D01*
X182668728Y-62497882D01*
X182611660Y-62784780D01*
X182611660Y-63077300D01*
X182655451Y-63297448D01*
X182088108Y-63864791D01*
X181188011Y-63864791D01*
X181150688Y-63861115D01*
X181113365Y-63864791D01*
X181113356Y-63864791D01*
X181001703Y-63875788D01*
X180858442Y-63919245D01*
X180726413Y-63989817D01*
X180610688Y-64084790D01*
X180586890Y-64113788D01*
X175490678Y-69210001D01*
X175461680Y-69233799D01*
X175437882Y-69262797D01*
X175437881Y-69262798D01*
X175366706Y-69349524D01*
X175296134Y-69481554D01*
X175252678Y-69624815D01*
X175238004Y-69773800D01*
X175241681Y-69811132D01*
X175241681Y-70322288D01*
X175055107Y-69871859D01*
X174766738Y-69440285D01*
X174399715Y-69073262D01*
X173968141Y-68784893D01*
X173488601Y-68586261D01*
X172979525Y-68485000D01*
X172460475Y-68485000D01*
X171951399Y-68586261D01*
X171471859Y-68784893D01*
X171040285Y-69073262D01*
X170673262Y-69440285D01*
X170384893Y-69871859D01*
X170186261Y-70351399D01*
X170085000Y-70860475D01*
X169102471Y-70860475D01*
X169067932Y-70686842D01*
X168955990Y-70416589D01*
X168889650Y-70317304D01*
X168968639Y-70322409D01*
X169307439Y-70277489D01*
X169630966Y-70167336D01*
X169829274Y-70061338D01*
X169937107Y-69786712D01*
X168910000Y-68759605D01*
X168895858Y-68773748D01*
X168716253Y-68594143D01*
X168730395Y-68580000D01*
X169089605Y-68580000D01*
X170116712Y-69607107D01*
X170391338Y-69499274D01*
X170542216Y-69192616D01*
X170630369Y-68862415D01*
X170652409Y-68521361D01*
X170607489Y-68182561D01*
X170497336Y-67859034D01*
X170391338Y-67660726D01*
X170116712Y-67552893D01*
X169089605Y-68580000D01*
X168730395Y-68580000D01*
X167703288Y-67552893D01*
X167428662Y-67660726D01*
X167277784Y-67967384D01*
X167189631Y-68297585D01*
X167167591Y-68638639D01*
X167212511Y-68977439D01*
X167322664Y-69300966D01*
X167428662Y-69499274D01*
X167703286Y-69607106D01*
X167675392Y-69635000D01*
X167493740Y-69635000D01*
X167206842Y-69692068D01*
X166936589Y-69804010D01*
X166693368Y-69966525D01*
X166486525Y-70173368D01*
X166324010Y-70416589D01*
X166212068Y-70686842D01*
X166155000Y-70973740D01*
X104800000Y-70973740D01*
X104800000Y-67373288D01*
X167882893Y-67373288D01*
X168910000Y-68400395D01*
X169937107Y-67373288D01*
X169829274Y-67098662D01*
X169522616Y-66947784D01*
X169192415Y-66859631D01*
X168851361Y-66837591D01*
X168512561Y-66882511D01*
X168189034Y-66992664D01*
X167990726Y-67098662D01*
X167882893Y-67373288D01*
X104800000Y-67373288D01*
X104800000Y-65869117D01*
X173525000Y-65869117D01*
X173525000Y-66210883D01*
X173591675Y-66546081D01*
X173722463Y-66861831D01*
X173912337Y-67145998D01*
X174154002Y-67387663D01*
X174438169Y-67577537D01*
X174753919Y-67708325D01*
X175089117Y-67775000D01*
X175430883Y-67775000D01*
X175766081Y-67708325D01*
X176081831Y-67577537D01*
X176365998Y-67387663D01*
X176607663Y-67145998D01*
X176797537Y-66861831D01*
X176928325Y-66546081D01*
X176995000Y-66210883D01*
X176995000Y-65869117D01*
X176928325Y-65533919D01*
X176797537Y-65218169D01*
X176607663Y-64934002D01*
X176365998Y-64692337D01*
X176081831Y-64502463D01*
X175766081Y-64371675D01*
X175430883Y-64305000D01*
X175089117Y-64305000D01*
X174753919Y-64371675D01*
X174438169Y-64502463D01*
X174154002Y-64692337D01*
X173912337Y-64934002D01*
X173722463Y-65218169D01*
X173591675Y-65533919D01*
X173525000Y-65869117D01*
X104800000Y-65869117D01*
X104800000Y-61448740D01*
X109005000Y-61448740D01*
X109005000Y-61741260D01*
X109062068Y-62028158D01*
X109174010Y-62298411D01*
X109336525Y-62541632D01*
X109543368Y-62748475D01*
X109786589Y-62910990D01*
X110056842Y-63022932D01*
X110343740Y-63080000D01*
X110636260Y-63080000D01*
X110923158Y-63022932D01*
X111193411Y-62910990D01*
X111436632Y-62748475D01*
X111643475Y-62541632D01*
X111805990Y-62298411D01*
X111917932Y-62028158D01*
X111975000Y-61741260D01*
X111975000Y-61448740D01*
X111952471Y-61335475D01*
X112935000Y-61335475D01*
X112935000Y-61854525D01*
X113036261Y-62363601D01*
X113234893Y-62843141D01*
X113523262Y-63274715D01*
X113890285Y-63641738D01*
X114321859Y-63930107D01*
X114801399Y-64128739D01*
X115310475Y-64230000D01*
X115829525Y-64230000D01*
X116338601Y-64128739D01*
X116818141Y-63930107D01*
X117249715Y-63641738D01*
X117616738Y-63274715D01*
X117905107Y-62843141D01*
X118103739Y-62363601D01*
X118205000Y-61854525D01*
X118205000Y-61448740D01*
X119165000Y-61448740D01*
X119165000Y-61741260D01*
X119222068Y-62028158D01*
X119334010Y-62298411D01*
X119496525Y-62541632D01*
X119703368Y-62748475D01*
X119946589Y-62910990D01*
X120216842Y-63022932D01*
X120503740Y-63080000D01*
X120796260Y-63080000D01*
X121083158Y-63022932D01*
X121353411Y-62910990D01*
X121596632Y-62748475D01*
X121803475Y-62541632D01*
X121965990Y-62298411D01*
X122077932Y-62028158D01*
X122135000Y-61741260D01*
X122135000Y-61448740D01*
X128055000Y-61448740D01*
X128055000Y-61741260D01*
X128112068Y-62028158D01*
X128224010Y-62298411D01*
X128386525Y-62541632D01*
X128593368Y-62748475D01*
X128836589Y-62910990D01*
X129106842Y-63022932D01*
X129393740Y-63080000D01*
X129686260Y-63080000D01*
X129973158Y-63022932D01*
X130243411Y-62910990D01*
X130486632Y-62748475D01*
X130693475Y-62541632D01*
X130855990Y-62298411D01*
X130967932Y-62028158D01*
X131025000Y-61741260D01*
X131025000Y-61448740D01*
X131002471Y-61335475D01*
X131985000Y-61335475D01*
X131985000Y-61854525D01*
X132086261Y-62363601D01*
X132284893Y-62843141D01*
X132573262Y-63274715D01*
X132940285Y-63641738D01*
X133371859Y-63930107D01*
X133851399Y-64128739D01*
X134360475Y-64230000D01*
X134879525Y-64230000D01*
X135388601Y-64128739D01*
X135868141Y-63930107D01*
X136299715Y-63641738D01*
X136666738Y-63274715D01*
X136955107Y-62843141D01*
X137153739Y-62363601D01*
X137255000Y-61854525D01*
X137255000Y-61448740D01*
X138215000Y-61448740D01*
X138215000Y-61741260D01*
X138272068Y-62028158D01*
X138384010Y-62298411D01*
X138546525Y-62541632D01*
X138753368Y-62748475D01*
X138996589Y-62910990D01*
X139266842Y-63022932D01*
X139553740Y-63080000D01*
X139846260Y-63080000D01*
X140133158Y-63022932D01*
X140403411Y-62910990D01*
X140646632Y-62748475D01*
X140853475Y-62541632D01*
X141015990Y-62298411D01*
X141127932Y-62028158D01*
X141185000Y-61741260D01*
X141185000Y-61448740D01*
X147105000Y-61448740D01*
X147105000Y-61741260D01*
X147162068Y-62028158D01*
X147274010Y-62298411D01*
X147436525Y-62541632D01*
X147643368Y-62748475D01*
X147886589Y-62910990D01*
X148156842Y-63022932D01*
X148443740Y-63080000D01*
X148736260Y-63080000D01*
X149023158Y-63022932D01*
X149293411Y-62910990D01*
X149536632Y-62748475D01*
X149743475Y-62541632D01*
X149905990Y-62298411D01*
X150017932Y-62028158D01*
X150075000Y-61741260D01*
X150075000Y-61448740D01*
X150052471Y-61335475D01*
X151035000Y-61335475D01*
X151035000Y-61854525D01*
X151136261Y-62363601D01*
X151334893Y-62843141D01*
X151623262Y-63274715D01*
X151990285Y-63641738D01*
X152421859Y-63930107D01*
X152901399Y-64128739D01*
X153410475Y-64230000D01*
X153929525Y-64230000D01*
X154438601Y-64128739D01*
X154918141Y-63930107D01*
X155349715Y-63641738D01*
X155716738Y-63274715D01*
X156005107Y-62843141D01*
X156203739Y-62363601D01*
X156305000Y-61854525D01*
X156305000Y-61448740D01*
X157265000Y-61448740D01*
X157265000Y-61741260D01*
X157322068Y-62028158D01*
X157434010Y-62298411D01*
X157596525Y-62541632D01*
X157803368Y-62748475D01*
X158046589Y-62910990D01*
X158316842Y-63022932D01*
X158603740Y-63080000D01*
X158896260Y-63080000D01*
X159183158Y-63022932D01*
X159453411Y-62910990D01*
X159696632Y-62748475D01*
X159903475Y-62541632D01*
X160065990Y-62298411D01*
X160177932Y-62028158D01*
X160235000Y-61741260D01*
X160235000Y-61448740D01*
X160177932Y-61161842D01*
X160065990Y-60891589D01*
X159903475Y-60648368D01*
X159696632Y-60441525D01*
X159453411Y-60279010D01*
X159183158Y-60167068D01*
X158896260Y-60110000D01*
X158603740Y-60110000D01*
X158316842Y-60167068D01*
X158046589Y-60279010D01*
X157803368Y-60441525D01*
X157596525Y-60648368D01*
X157434010Y-60891589D01*
X157322068Y-61161842D01*
X157265000Y-61448740D01*
X156305000Y-61448740D01*
X156305000Y-61335475D01*
X156203739Y-60826399D01*
X156005107Y-60346859D01*
X155813391Y-60059936D01*
X172248410Y-60059936D01*
X172488556Y-60447179D01*
X172982457Y-60707802D01*
X173517713Y-60867062D01*
X174073754Y-60918839D01*
X174629212Y-60861142D01*
X175162741Y-60696189D01*
X175628604Y-60447179D01*
X175868750Y-60059936D01*
X174058580Y-58249766D01*
X172248410Y-60059936D01*
X155813391Y-60059936D01*
X155716738Y-59915285D01*
X155349715Y-59548262D01*
X154918141Y-59259893D01*
X154438601Y-59061261D01*
X153929525Y-58960000D01*
X153410475Y-58960000D01*
X152901399Y-59061261D01*
X152421859Y-59259893D01*
X151990285Y-59548262D01*
X151623262Y-59915285D01*
X151334893Y-60346859D01*
X151136261Y-60826399D01*
X151035000Y-61335475D01*
X150052471Y-61335475D01*
X150017932Y-61161842D01*
X149905990Y-60891589D01*
X149839650Y-60792304D01*
X149918639Y-60797409D01*
X150257439Y-60752489D01*
X150580966Y-60642336D01*
X150779274Y-60536338D01*
X150887107Y-60261712D01*
X149860000Y-59234605D01*
X149845858Y-59248748D01*
X149666253Y-59069143D01*
X149680395Y-59055000D01*
X150039605Y-59055000D01*
X151066712Y-60082107D01*
X151341338Y-59974274D01*
X151492216Y-59667616D01*
X151580369Y-59337415D01*
X151602409Y-58996361D01*
X151557489Y-58657561D01*
X151447336Y-58334034D01*
X151341338Y-58135726D01*
X151066712Y-58027893D01*
X150039605Y-59055000D01*
X149680395Y-59055000D01*
X148653288Y-58027893D01*
X148378662Y-58135726D01*
X148227784Y-58442384D01*
X148139631Y-58772585D01*
X148117591Y-59113639D01*
X148162511Y-59452439D01*
X148272664Y-59775966D01*
X148378662Y-59974274D01*
X148653286Y-60082106D01*
X148625392Y-60110000D01*
X148443740Y-60110000D01*
X148156842Y-60167068D01*
X147886589Y-60279010D01*
X147643368Y-60441525D01*
X147436525Y-60648368D01*
X147274010Y-60891589D01*
X147162068Y-61161842D01*
X147105000Y-61448740D01*
X141185000Y-61448740D01*
X141127932Y-61161842D01*
X141015990Y-60891589D01*
X140853475Y-60648368D01*
X140646632Y-60441525D01*
X140403411Y-60279010D01*
X140133158Y-60167068D01*
X139846260Y-60110000D01*
X139553740Y-60110000D01*
X139266842Y-60167068D01*
X138996589Y-60279010D01*
X138753368Y-60441525D01*
X138546525Y-60648368D01*
X138384010Y-60891589D01*
X138272068Y-61161842D01*
X138215000Y-61448740D01*
X137255000Y-61448740D01*
X137255000Y-61335475D01*
X137153739Y-60826399D01*
X136955107Y-60346859D01*
X136666738Y-59915285D01*
X136299715Y-59548262D01*
X135868141Y-59259893D01*
X135388601Y-59061261D01*
X134879525Y-58960000D01*
X134360475Y-58960000D01*
X133851399Y-59061261D01*
X133371859Y-59259893D01*
X132940285Y-59548262D01*
X132573262Y-59915285D01*
X132284893Y-60346859D01*
X132086261Y-60826399D01*
X131985000Y-61335475D01*
X131002471Y-61335475D01*
X130967932Y-61161842D01*
X130855990Y-60891589D01*
X130789650Y-60792304D01*
X130868639Y-60797409D01*
X131207439Y-60752489D01*
X131530966Y-60642336D01*
X131729274Y-60536338D01*
X131837107Y-60261712D01*
X130810000Y-59234605D01*
X130795858Y-59248748D01*
X130616253Y-59069143D01*
X130630395Y-59055000D01*
X130989605Y-59055000D01*
X132016712Y-60082107D01*
X132291338Y-59974274D01*
X132442216Y-59667616D01*
X132530369Y-59337415D01*
X132552409Y-58996361D01*
X132507489Y-58657561D01*
X132397336Y-58334034D01*
X132291338Y-58135726D01*
X132016712Y-58027893D01*
X130989605Y-59055000D01*
X130630395Y-59055000D01*
X129603288Y-58027893D01*
X129328662Y-58135726D01*
X129177784Y-58442384D01*
X129089631Y-58772585D01*
X129067591Y-59113639D01*
X129112511Y-59452439D01*
X129222664Y-59775966D01*
X129328662Y-59974274D01*
X129603286Y-60082106D01*
X129575392Y-60110000D01*
X129393740Y-60110000D01*
X129106842Y-60167068D01*
X128836589Y-60279010D01*
X128593368Y-60441525D01*
X128386525Y-60648368D01*
X128224010Y-60891589D01*
X128112068Y-61161842D01*
X128055000Y-61448740D01*
X122135000Y-61448740D01*
X122077932Y-61161842D01*
X121965990Y-60891589D01*
X121803475Y-60648368D01*
X121596632Y-60441525D01*
X121353411Y-60279010D01*
X121083158Y-60167068D01*
X120796260Y-60110000D01*
X120503740Y-60110000D01*
X120216842Y-60167068D01*
X119946589Y-60279010D01*
X119703368Y-60441525D01*
X119496525Y-60648368D01*
X119334010Y-60891589D01*
X119222068Y-61161842D01*
X119165000Y-61448740D01*
X118205000Y-61448740D01*
X118205000Y-61335475D01*
X118103739Y-60826399D01*
X117905107Y-60346859D01*
X117713391Y-60059936D01*
X123254350Y-60059936D01*
X123494496Y-60447179D01*
X123988397Y-60707802D01*
X124523653Y-60867062D01*
X125079694Y-60918839D01*
X125635152Y-60861142D01*
X126168681Y-60696189D01*
X126634544Y-60447179D01*
X126874690Y-60059936D01*
X125064520Y-58249766D01*
X123254350Y-60059936D01*
X117713391Y-60059936D01*
X117616738Y-59915285D01*
X117249715Y-59548262D01*
X116818141Y-59259893D01*
X116338601Y-59061261D01*
X115829525Y-58960000D01*
X115310475Y-58960000D01*
X114801399Y-59061261D01*
X114321859Y-59259893D01*
X113890285Y-59548262D01*
X113523262Y-59915285D01*
X113234893Y-60346859D01*
X113036261Y-60826399D01*
X112935000Y-61335475D01*
X111952471Y-61335475D01*
X111917932Y-61161842D01*
X111805990Y-60891589D01*
X111739650Y-60792304D01*
X111818639Y-60797409D01*
X112157439Y-60752489D01*
X112480966Y-60642336D01*
X112679274Y-60536338D01*
X112787107Y-60261712D01*
X111760000Y-59234605D01*
X111745858Y-59248748D01*
X111566253Y-59069143D01*
X111580395Y-59055000D01*
X111939605Y-59055000D01*
X112966712Y-60082107D01*
X113241338Y-59974274D01*
X113392216Y-59667616D01*
X113480369Y-59337415D01*
X113502409Y-58996361D01*
X113457489Y-58657561D01*
X113347336Y-58334034D01*
X113241338Y-58135726D01*
X112966712Y-58027893D01*
X111939605Y-59055000D01*
X111580395Y-59055000D01*
X110553288Y-58027893D01*
X110278662Y-58135726D01*
X110127784Y-58442384D01*
X110039631Y-58772585D01*
X110017591Y-59113639D01*
X110062511Y-59452439D01*
X110172664Y-59775966D01*
X110278662Y-59974274D01*
X110553286Y-60082106D01*
X110525392Y-60110000D01*
X110343740Y-60110000D01*
X110056842Y-60167068D01*
X109786589Y-60279010D01*
X109543368Y-60441525D01*
X109336525Y-60648368D01*
X109174010Y-60891589D01*
X109062068Y-61161842D01*
X109005000Y-61448740D01*
X104800000Y-61448740D01*
X104800000Y-57848288D01*
X110732893Y-57848288D01*
X111760000Y-58875395D01*
X112787107Y-57848288D01*
X112679274Y-57573662D01*
X112372616Y-57422784D01*
X112042415Y-57334631D01*
X111701361Y-57312591D01*
X111362561Y-57357511D01*
X111039034Y-57467664D01*
X110840726Y-57573662D01*
X110732893Y-57848288D01*
X104800000Y-57848288D01*
X104800000Y-56392807D01*
X108892920Y-56392807D01*
X108892920Y-56631353D01*
X108939458Y-56865316D01*
X109030745Y-57085704D01*
X109163274Y-57284048D01*
X109331952Y-57452726D01*
X109530296Y-57585255D01*
X109750684Y-57676542D01*
X109984647Y-57723080D01*
X110223193Y-57723080D01*
X110457156Y-57676542D01*
X110677544Y-57585255D01*
X110875888Y-57452726D01*
X111044566Y-57284048D01*
X111177095Y-57085704D01*
X111268382Y-56865316D01*
X111314920Y-56631353D01*
X111314920Y-56392807D01*
X111305235Y-56344117D01*
X116375000Y-56344117D01*
X116375000Y-56685883D01*
X116441675Y-57021081D01*
X116572463Y-57336831D01*
X116762337Y-57620998D01*
X117004002Y-57862663D01*
X117288169Y-58052537D01*
X117603919Y-58183325D01*
X117939117Y-58250000D01*
X118280883Y-58250000D01*
X118616081Y-58183325D01*
X118852649Y-58085335D01*
X122215842Y-58085335D01*
X122273539Y-58640793D01*
X122438492Y-59174322D01*
X122687502Y-59640185D01*
X123074745Y-59880331D01*
X124884915Y-58070161D01*
X125244125Y-58070161D01*
X127054295Y-59880331D01*
X127441538Y-59640185D01*
X127702161Y-59146284D01*
X127861421Y-58611028D01*
X127913198Y-58054987D01*
X127891728Y-57848288D01*
X129782893Y-57848288D01*
X130810000Y-58875395D01*
X131837107Y-57848288D01*
X131729274Y-57573662D01*
X131422616Y-57422784D01*
X131092415Y-57334631D01*
X130751361Y-57312591D01*
X130412561Y-57357511D01*
X130089034Y-57467664D01*
X129890726Y-57573662D01*
X129782893Y-57848288D01*
X127891728Y-57848288D01*
X127855501Y-57499529D01*
X127690548Y-56966000D01*
X127441538Y-56500137D01*
X127189951Y-56344117D01*
X135425000Y-56344117D01*
X135425000Y-56685883D01*
X135491675Y-57021081D01*
X135622463Y-57336831D01*
X135812337Y-57620998D01*
X136054002Y-57862663D01*
X136338169Y-58052537D01*
X136653919Y-58183325D01*
X136989117Y-58250000D01*
X137330883Y-58250000D01*
X137666081Y-58183325D01*
X137981831Y-58052537D01*
X138265998Y-57862663D01*
X138280373Y-57848288D01*
X148832893Y-57848288D01*
X149860000Y-58875395D01*
X150887107Y-57848288D01*
X150779274Y-57573662D01*
X150472616Y-57422784D01*
X150142415Y-57334631D01*
X149801361Y-57312591D01*
X149462561Y-57357511D01*
X149139034Y-57467664D01*
X148940726Y-57573662D01*
X148832893Y-57848288D01*
X138280373Y-57848288D01*
X138507663Y-57620998D01*
X138697537Y-57336831D01*
X138828325Y-57021081D01*
X138895000Y-56685883D01*
X138895000Y-56344117D01*
X154475000Y-56344117D01*
X154475000Y-56685883D01*
X154541675Y-57021081D01*
X154672463Y-57336831D01*
X154862337Y-57620998D01*
X155104002Y-57862663D01*
X155388169Y-58052537D01*
X155703919Y-58183325D01*
X156039117Y-58250000D01*
X156380883Y-58250000D01*
X156716081Y-58183325D01*
X156952649Y-58085335D01*
X171209902Y-58085335D01*
X171267599Y-58640793D01*
X171432552Y-59174322D01*
X171681562Y-59640185D01*
X172068805Y-59880331D01*
X173878975Y-58070161D01*
X174238185Y-58070161D01*
X176048355Y-59880331D01*
X176435598Y-59640185D01*
X176696221Y-59146284D01*
X176855481Y-58611028D01*
X176907258Y-58054987D01*
X176849561Y-57499529D01*
X176684608Y-56966000D01*
X176435598Y-56500137D01*
X176048355Y-56259991D01*
X174238185Y-58070161D01*
X173878975Y-58070161D01*
X172068805Y-56259991D01*
X171681562Y-56500137D01*
X171420939Y-56994038D01*
X171261679Y-57529294D01*
X171209902Y-58085335D01*
X156952649Y-58085335D01*
X157031831Y-58052537D01*
X157315998Y-57862663D01*
X157557663Y-57620998D01*
X157747537Y-57336831D01*
X157878325Y-57021081D01*
X157945000Y-56685883D01*
X157945000Y-56344117D01*
X157892541Y-56080386D01*
X172248410Y-56080386D01*
X174058580Y-57890556D01*
X175868750Y-56080386D01*
X175628604Y-55693143D01*
X175134703Y-55432520D01*
X174599447Y-55273260D01*
X174043406Y-55221483D01*
X173487948Y-55279180D01*
X172954419Y-55444133D01*
X172488556Y-55693143D01*
X172248410Y-56080386D01*
X157892541Y-56080386D01*
X157878325Y-56008919D01*
X157747537Y-55693169D01*
X157557663Y-55409002D01*
X157315998Y-55167337D01*
X157031831Y-54977463D01*
X156716081Y-54846675D01*
X156380883Y-54780000D01*
X156039117Y-54780000D01*
X155703919Y-54846675D01*
X155388169Y-54977463D01*
X155104002Y-55167337D01*
X154862337Y-55409002D01*
X154672463Y-55693169D01*
X154541675Y-56008919D01*
X154475000Y-56344117D01*
X138895000Y-56344117D01*
X138828325Y-56008919D01*
X138697537Y-55693169D01*
X138507663Y-55409002D01*
X138265998Y-55167337D01*
X137981831Y-54977463D01*
X137666081Y-54846675D01*
X137330883Y-54780000D01*
X136989117Y-54780000D01*
X136653919Y-54846675D01*
X136338169Y-54977463D01*
X136054002Y-55167337D01*
X135812337Y-55409002D01*
X135622463Y-55693169D01*
X135491675Y-56008919D01*
X135425000Y-56344117D01*
X127189951Y-56344117D01*
X127054295Y-56259991D01*
X125244125Y-58070161D01*
X124884915Y-58070161D01*
X123074745Y-56259991D01*
X122687502Y-56500137D01*
X122426879Y-56994038D01*
X122267619Y-57529294D01*
X122215842Y-58085335D01*
X118852649Y-58085335D01*
X118931831Y-58052537D01*
X119215998Y-57862663D01*
X119457663Y-57620998D01*
X119647537Y-57336831D01*
X119778325Y-57021081D01*
X119845000Y-56685883D01*
X119845000Y-56344117D01*
X119792541Y-56080386D01*
X123254350Y-56080386D01*
X125064520Y-57890556D01*
X126874690Y-56080386D01*
X126634544Y-55693143D01*
X126140643Y-55432520D01*
X125605387Y-55273260D01*
X125049346Y-55221483D01*
X124493888Y-55279180D01*
X123960359Y-55444133D01*
X123494496Y-55693143D01*
X123254350Y-56080386D01*
X119792541Y-56080386D01*
X119778325Y-56008919D01*
X119647537Y-55693169D01*
X119457663Y-55409002D01*
X119215998Y-55167337D01*
X118931831Y-54977463D01*
X118616081Y-54846675D01*
X118280883Y-54780000D01*
X117939117Y-54780000D01*
X117603919Y-54846675D01*
X117288169Y-54977463D01*
X117004002Y-55167337D01*
X116762337Y-55409002D01*
X116572463Y-55693169D01*
X116441675Y-56008919D01*
X116375000Y-56344117D01*
X111305235Y-56344117D01*
X111268382Y-56158844D01*
X111177095Y-55938456D01*
X111044566Y-55740112D01*
X110875888Y-55571434D01*
X110677544Y-55438905D01*
X110457156Y-55347618D01*
X110223193Y-55301080D01*
X109984647Y-55301080D01*
X109750684Y-55347618D01*
X109530296Y-55438905D01*
X109331952Y-55571434D01*
X109163274Y-55740112D01*
X109030745Y-55938456D01*
X108939458Y-56158844D01*
X108892920Y-56392807D01*
X104800000Y-56392807D01*
X104800000Y-52180727D01*
X188689000Y-52180727D01*
X188689000Y-52419273D01*
X188735538Y-52653236D01*
X188826825Y-52873624D01*
X188959354Y-53071968D01*
X189128032Y-53240646D01*
X189326376Y-53373175D01*
X189546764Y-53464462D01*
X189780727Y-53511000D01*
X190019273Y-53511000D01*
X190253236Y-53464462D01*
X190473624Y-53373175D01*
X190671968Y-53240646D01*
X190840646Y-53071968D01*
X190973175Y-52873624D01*
X191064462Y-52653236D01*
X191111000Y-52419273D01*
X191111000Y-52180727D01*
X191064462Y-51946764D01*
X190973175Y-51726376D01*
X190840646Y-51528032D01*
X190671968Y-51359354D01*
X190473624Y-51226825D01*
X190253236Y-51135538D01*
X190019273Y-51089000D01*
X189780727Y-51089000D01*
X189546764Y-51135538D01*
X189326376Y-51226825D01*
X189128032Y-51359354D01*
X188959354Y-51528032D01*
X188826825Y-51726376D01*
X188735538Y-51946764D01*
X188689000Y-52180727D01*
X104800000Y-52180727D01*
X104800000Y-52102279D01*
X104838909Y-51705455D01*
X104944780Y-51354792D01*
X105116744Y-51031375D01*
X105348254Y-50747516D01*
X105630486Y-50514035D01*
X105952695Y-50339817D01*
X106302614Y-50231498D01*
X106697443Y-50190000D01*
X190467721Y-50190000D01*
X190864545Y-50228909D01*
%TA.AperFunction,Conductor*%
D18*
G36*
X190864545Y-50228909D02*
G01*
X191215208Y-50334780D01*
X191538625Y-50506744D01*
X191822484Y-50738254D01*
X192055965Y-51020486D01*
X192230183Y-51342695D01*
X192338502Y-51692614D01*
X192380000Y-52087443D01*
X192380001Y-90137711D01*
X192341091Y-90534545D01*
X192235220Y-90885206D01*
X192063257Y-91208623D01*
X191831748Y-91492482D01*
X191549514Y-91725965D01*
X191227304Y-91900184D01*
X190877385Y-92008502D01*
X190482557Y-92050000D01*
X106712279Y-92050000D01*
X106315455Y-92011091D01*
X105964794Y-91905220D01*
X105641377Y-91733257D01*
X105357518Y-91501748D01*
X105124035Y-91219514D01*
X104949816Y-90897304D01*
X104841498Y-90547385D01*
X104800000Y-90152557D01*
X104800000Y-85562927D01*
X108892920Y-85562927D01*
X108892920Y-85801473D01*
X108939458Y-86035436D01*
X109030745Y-86255824D01*
X109163274Y-86454168D01*
X109331952Y-86622846D01*
X109530296Y-86755375D01*
X109750684Y-86846662D01*
X109984647Y-86893200D01*
X110223193Y-86893200D01*
X110457156Y-86846662D01*
X110532110Y-86815615D01*
X123254350Y-86815615D01*
X123494496Y-87202858D01*
X123988397Y-87463481D01*
X124523653Y-87622741D01*
X125079694Y-87674518D01*
X125635152Y-87616821D01*
X126168681Y-87451868D01*
X126634544Y-87202858D01*
X126874690Y-86815615D01*
X125064520Y-85005445D01*
X123254350Y-86815615D01*
X110532110Y-86815615D01*
X110677544Y-86755375D01*
X110875888Y-86622846D01*
X111044566Y-86454168D01*
X111177095Y-86255824D01*
X111268382Y-86035436D01*
X111314920Y-85801473D01*
X111314920Y-85562927D01*
X111268382Y-85328964D01*
X111177095Y-85108576D01*
X111044566Y-84910232D01*
X110975348Y-84841014D01*
X122215842Y-84841014D01*
X122273539Y-85396472D01*
X122438492Y-85930001D01*
X122687502Y-86395864D01*
X123074745Y-86636010D01*
X124884915Y-84825840D01*
X125244125Y-84825840D01*
X127054295Y-86636010D01*
X127441538Y-86395864D01*
X127702161Y-85901963D01*
X127861421Y-85366707D01*
X127913198Y-84810666D01*
X127855501Y-84255208D01*
X127690548Y-83721679D01*
X127441538Y-83255816D01*
X127054295Y-83015670D01*
X125244125Y-84825840D01*
X124884915Y-84825840D01*
X123074745Y-83015670D01*
X122687502Y-83255816D01*
X122426879Y-83749717D01*
X122267619Y-84284973D01*
X122215842Y-84841014D01*
X110975348Y-84841014D01*
X110875888Y-84741554D01*
X110677544Y-84609025D01*
X110457156Y-84517738D01*
X110223193Y-84471200D01*
X109984647Y-84471200D01*
X109750684Y-84517738D01*
X109530296Y-84609025D01*
X109331952Y-84741554D01*
X109163274Y-84910232D01*
X109030745Y-85108576D01*
X108939458Y-85328964D01*
X108892920Y-85562927D01*
X104800000Y-85562927D01*
X104800000Y-80498740D01*
X109005000Y-80498740D01*
X109005000Y-80791260D01*
X109062068Y-81078158D01*
X109174010Y-81348411D01*
X109336525Y-81591632D01*
X109543368Y-81798475D01*
X109786589Y-81960990D01*
X110056842Y-82072932D01*
X110343740Y-82130000D01*
X110636260Y-82130000D01*
X110923158Y-82072932D01*
X111193411Y-81960990D01*
X111436632Y-81798475D01*
X111643475Y-81591632D01*
X111805990Y-81348411D01*
X111917932Y-81078158D01*
X111975000Y-80791260D01*
X111975000Y-80498740D01*
X111952471Y-80385475D01*
X112935000Y-80385475D01*
X112935000Y-80904525D01*
X113036261Y-81413601D01*
X113234893Y-81893141D01*
X113523262Y-82324715D01*
X113890285Y-82691738D01*
X114321859Y-82980107D01*
X114801399Y-83178739D01*
X115310475Y-83280000D01*
X115829525Y-83280000D01*
X116338601Y-83178739D01*
X116818141Y-82980107D01*
X117033714Y-82836065D01*
X123254350Y-82836065D01*
X125064520Y-84646235D01*
X126874690Y-82836065D01*
X126634544Y-82448822D01*
X126140643Y-82188199D01*
X125605387Y-82028939D01*
X125049346Y-81977162D01*
X124493888Y-82034859D01*
X123960359Y-82199812D01*
X123494496Y-82448822D01*
X123254350Y-82836065D01*
X117033714Y-82836065D01*
X117249715Y-82691738D01*
X117616738Y-82324715D01*
X117905107Y-81893141D01*
X118103739Y-81413601D01*
X118205000Y-80904525D01*
X118205000Y-80498740D01*
X119165000Y-80498740D01*
X119165000Y-80791260D01*
X119222068Y-81078158D01*
X119334010Y-81348411D01*
X119496525Y-81591632D01*
X119703368Y-81798475D01*
X119946589Y-81960990D01*
X120216842Y-82072932D01*
X120503740Y-82130000D01*
X120796260Y-82130000D01*
X121083158Y-82072932D01*
X121353411Y-81960990D01*
X121596632Y-81798475D01*
X121803475Y-81591632D01*
X121965990Y-81348411D01*
X122077932Y-81078158D01*
X122135000Y-80791260D01*
X122135000Y-80498740D01*
X128055000Y-80498740D01*
X128055000Y-80791260D01*
X128112068Y-81078158D01*
X128224010Y-81348411D01*
X128386525Y-81591632D01*
X128593368Y-81798475D01*
X128836589Y-81960990D01*
X129106842Y-82072932D01*
X129393740Y-82130000D01*
X129686260Y-82130000D01*
X129973158Y-82072932D01*
X130243411Y-81960990D01*
X130486632Y-81798475D01*
X130693475Y-81591632D01*
X130855990Y-81348411D01*
X130967932Y-81078158D01*
X131025000Y-80791260D01*
X131025000Y-80498740D01*
X131002471Y-80385475D01*
X131985000Y-80385475D01*
X131985000Y-80904525D01*
X132086261Y-81413601D01*
X132284893Y-81893141D01*
X132573262Y-82324715D01*
X132940285Y-82691738D01*
X133371859Y-82980107D01*
X133851399Y-83178739D01*
X134360475Y-83280000D01*
X134879525Y-83280000D01*
X135388601Y-83178739D01*
X135868141Y-82980107D01*
X136299715Y-82691738D01*
X136666738Y-82324715D01*
X136955107Y-81893141D01*
X137153739Y-81413601D01*
X137255000Y-80904525D01*
X137255000Y-80498740D01*
X138215000Y-80498740D01*
X138215000Y-80791260D01*
X138272068Y-81078158D01*
X138384010Y-81348411D01*
X138546525Y-81591632D01*
X138753368Y-81798475D01*
X138996589Y-81960990D01*
X139266842Y-82072932D01*
X139553740Y-82130000D01*
X139846260Y-82130000D01*
X140133158Y-82072932D01*
X140403411Y-81960990D01*
X140646632Y-81798475D01*
X140853475Y-81591632D01*
X141015990Y-81348411D01*
X141127932Y-81078158D01*
X141185000Y-80791260D01*
X141185000Y-80498740D01*
X147105000Y-80498740D01*
X147105000Y-80791260D01*
X147162068Y-81078158D01*
X147274010Y-81348411D01*
X147436525Y-81591632D01*
X147643368Y-81798475D01*
X147886589Y-81960990D01*
X148156842Y-82072932D01*
X148443740Y-82130000D01*
X148736260Y-82130000D01*
X149023158Y-82072932D01*
X149293411Y-81960990D01*
X149536632Y-81798475D01*
X149743475Y-81591632D01*
X149905990Y-81348411D01*
X150017932Y-81078158D01*
X150075000Y-80791260D01*
X150075000Y-80498740D01*
X150052471Y-80385475D01*
X151035000Y-80385475D01*
X151035000Y-80904525D01*
X151136261Y-81413601D01*
X151334893Y-81893141D01*
X151623262Y-82324715D01*
X151990285Y-82691738D01*
X152421859Y-82980107D01*
X152901399Y-83178739D01*
X153410475Y-83280000D01*
X153929525Y-83280000D01*
X154438601Y-83178739D01*
X154918141Y-82980107D01*
X155349715Y-82691738D01*
X155716738Y-82324715D01*
X156005107Y-81893141D01*
X156203739Y-81413601D01*
X156305000Y-80904525D01*
X156305000Y-80498740D01*
X157265000Y-80498740D01*
X157265000Y-80791260D01*
X157322068Y-81078158D01*
X157434010Y-81348411D01*
X157596525Y-81591632D01*
X157803368Y-81798475D01*
X158046589Y-81960990D01*
X158316842Y-82072932D01*
X158603740Y-82130000D01*
X158896260Y-82130000D01*
X159183158Y-82072932D01*
X159453411Y-81960990D01*
X159696632Y-81798475D01*
X159903475Y-81591632D01*
X160065990Y-81348411D01*
X160177932Y-81078158D01*
X160235000Y-80791260D01*
X160235000Y-80498740D01*
X160177932Y-80211842D01*
X160065990Y-79941589D01*
X159903475Y-79698368D01*
X159696632Y-79491525D01*
X159453411Y-79329010D01*
X159183158Y-79217068D01*
X158896260Y-79160000D01*
X158603740Y-79160000D01*
X158316842Y-79217068D01*
X158046589Y-79329010D01*
X157803368Y-79491525D01*
X157596525Y-79698368D01*
X157434010Y-79941589D01*
X157322068Y-80211842D01*
X157265000Y-80498740D01*
X156305000Y-80498740D01*
X156305000Y-80385475D01*
X156203739Y-79876399D01*
X156005107Y-79396859D01*
X155716738Y-78965285D01*
X155349715Y-78598262D01*
X154918141Y-78309893D01*
X154438601Y-78111261D01*
X153929525Y-78010000D01*
X153410475Y-78010000D01*
X152901399Y-78111261D01*
X152421859Y-78309893D01*
X151990285Y-78598262D01*
X151623262Y-78965285D01*
X151334893Y-79396859D01*
X151136261Y-79876399D01*
X151035000Y-80385475D01*
X150052471Y-80385475D01*
X150017932Y-80211842D01*
X149905990Y-79941589D01*
X149839650Y-79842304D01*
X149918639Y-79847409D01*
X150257439Y-79802489D01*
X150580966Y-79692336D01*
X150779274Y-79586338D01*
X150887107Y-79311712D01*
X149860000Y-78284605D01*
X149845858Y-78298748D01*
X149666253Y-78119143D01*
X149680395Y-78105000D01*
X150039605Y-78105000D01*
X151066712Y-79132107D01*
X151341338Y-79024274D01*
X151492216Y-78717616D01*
X151580369Y-78387415D01*
X151602409Y-78046361D01*
X151557489Y-77707561D01*
X151447336Y-77384034D01*
X151341338Y-77185726D01*
X151066712Y-77077893D01*
X150039605Y-78105000D01*
X149680395Y-78105000D01*
X148653288Y-77077893D01*
X148378662Y-77185726D01*
X148227784Y-77492384D01*
X148139631Y-77822585D01*
X148117591Y-78163639D01*
X148162511Y-78502439D01*
X148272664Y-78825966D01*
X148378662Y-79024274D01*
X148653286Y-79132106D01*
X148625392Y-79160000D01*
X148443740Y-79160000D01*
X148156842Y-79217068D01*
X147886589Y-79329010D01*
X147643368Y-79491525D01*
X147436525Y-79698368D01*
X147274010Y-79941589D01*
X147162068Y-80211842D01*
X147105000Y-80498740D01*
X141185000Y-80498740D01*
X141127932Y-80211842D01*
X141015990Y-79941589D01*
X140853475Y-79698368D01*
X140646632Y-79491525D01*
X140403411Y-79329010D01*
X140133158Y-79217068D01*
X139846260Y-79160000D01*
X139553740Y-79160000D01*
X139266842Y-79217068D01*
X138996589Y-79329010D01*
X138753368Y-79491525D01*
X138546525Y-79698368D01*
X138384010Y-79941589D01*
X138272068Y-80211842D01*
X138215000Y-80498740D01*
X137255000Y-80498740D01*
X137255000Y-80385475D01*
X137153739Y-79876399D01*
X136955107Y-79396859D01*
X136666738Y-78965285D01*
X136299715Y-78598262D01*
X135868141Y-78309893D01*
X135388601Y-78111261D01*
X134879525Y-78010000D01*
X134360475Y-78010000D01*
X133851399Y-78111261D01*
X133371859Y-78309893D01*
X132940285Y-78598262D01*
X132573262Y-78965285D01*
X132284893Y-79396859D01*
X132086261Y-79876399D01*
X131985000Y-80385475D01*
X131002471Y-80385475D01*
X130967932Y-80211842D01*
X130855990Y-79941589D01*
X130789650Y-79842304D01*
X130868639Y-79847409D01*
X131207439Y-79802489D01*
X131530966Y-79692336D01*
X131729274Y-79586338D01*
X131837107Y-79311712D01*
X130810000Y-78284605D01*
X130795858Y-78298748D01*
X130616253Y-78119143D01*
X130630395Y-78105000D01*
X130989605Y-78105000D01*
X132016712Y-79132107D01*
X132291338Y-79024274D01*
X132442216Y-78717616D01*
X132530369Y-78387415D01*
X132552409Y-78046361D01*
X132507489Y-77707561D01*
X132397336Y-77384034D01*
X132291338Y-77185726D01*
X132016712Y-77077893D01*
X130989605Y-78105000D01*
X130630395Y-78105000D01*
X129603288Y-77077893D01*
X129328662Y-77185726D01*
X129177784Y-77492384D01*
X129089631Y-77822585D01*
X129067591Y-78163639D01*
X129112511Y-78502439D01*
X129222664Y-78825966D01*
X129328662Y-79024274D01*
X129603286Y-79132106D01*
X129575392Y-79160000D01*
X129393740Y-79160000D01*
X129106842Y-79217068D01*
X128836589Y-79329010D01*
X128593368Y-79491525D01*
X128386525Y-79698368D01*
X128224010Y-79941589D01*
X128112068Y-80211842D01*
X128055000Y-80498740D01*
X122135000Y-80498740D01*
X122077932Y-80211842D01*
X121965990Y-79941589D01*
X121803475Y-79698368D01*
X121596632Y-79491525D01*
X121353411Y-79329010D01*
X121083158Y-79217068D01*
X120796260Y-79160000D01*
X120503740Y-79160000D01*
X120216842Y-79217068D01*
X119946589Y-79329010D01*
X119703368Y-79491525D01*
X119496525Y-79698368D01*
X119334010Y-79941589D01*
X119222068Y-80211842D01*
X119165000Y-80498740D01*
X118205000Y-80498740D01*
X118205000Y-80385475D01*
X118103739Y-79876399D01*
X117905107Y-79396859D01*
X117616738Y-78965285D01*
X117249715Y-78598262D01*
X116818141Y-78309893D01*
X116338601Y-78111261D01*
X115829525Y-78010000D01*
X115310475Y-78010000D01*
X114801399Y-78111261D01*
X114321859Y-78309893D01*
X113890285Y-78598262D01*
X113523262Y-78965285D01*
X113234893Y-79396859D01*
X113036261Y-79876399D01*
X112935000Y-80385475D01*
X111952471Y-80385475D01*
X111917932Y-80211842D01*
X111805990Y-79941589D01*
X111739650Y-79842304D01*
X111818639Y-79847409D01*
X112157439Y-79802489D01*
X112480966Y-79692336D01*
X112679274Y-79586338D01*
X112787107Y-79311712D01*
X111760000Y-78284605D01*
X111745858Y-78298748D01*
X111566253Y-78119143D01*
X111580395Y-78105000D01*
X111939605Y-78105000D01*
X112966712Y-79132107D01*
X113241338Y-79024274D01*
X113392216Y-78717616D01*
X113480369Y-78387415D01*
X113502409Y-78046361D01*
X113457489Y-77707561D01*
X113347336Y-77384034D01*
X113241338Y-77185726D01*
X112966712Y-77077893D01*
X111939605Y-78105000D01*
X111580395Y-78105000D01*
X110553288Y-77077893D01*
X110278662Y-77185726D01*
X110127784Y-77492384D01*
X110039631Y-77822585D01*
X110017591Y-78163639D01*
X110062511Y-78502439D01*
X110172664Y-78825966D01*
X110278662Y-79024274D01*
X110553286Y-79132106D01*
X110525392Y-79160000D01*
X110343740Y-79160000D01*
X110056842Y-79217068D01*
X109786589Y-79329010D01*
X109543368Y-79491525D01*
X109336525Y-79698368D01*
X109174010Y-79941589D01*
X109062068Y-80211842D01*
X109005000Y-80498740D01*
X104800000Y-80498740D01*
X104800000Y-76898288D01*
X110732893Y-76898288D01*
X111760000Y-77925395D01*
X112787107Y-76898288D01*
X112679274Y-76623662D01*
X112372616Y-76472784D01*
X112042415Y-76384631D01*
X111701361Y-76362591D01*
X111362561Y-76407511D01*
X111039034Y-76517664D01*
X110840726Y-76623662D01*
X110732893Y-76898288D01*
X104800000Y-76898288D01*
X104800000Y-75394117D01*
X116375000Y-75394117D01*
X116375000Y-75735883D01*
X116441675Y-76071081D01*
X116572463Y-76386831D01*
X116762337Y-76670998D01*
X117004002Y-76912663D01*
X117288169Y-77102537D01*
X117603919Y-77233325D01*
X117939117Y-77300000D01*
X118280883Y-77300000D01*
X118616081Y-77233325D01*
X118931831Y-77102537D01*
X119215998Y-76912663D01*
X119230373Y-76898288D01*
X129782893Y-76898288D01*
X130810000Y-77925395D01*
X131837107Y-76898288D01*
X131729274Y-76623662D01*
X131422616Y-76472784D01*
X131092415Y-76384631D01*
X130751361Y-76362591D01*
X130412561Y-76407511D01*
X130089034Y-76517664D01*
X129890726Y-76623662D01*
X129782893Y-76898288D01*
X119230373Y-76898288D01*
X119457663Y-76670998D01*
X119647537Y-76386831D01*
X119778325Y-76071081D01*
X119845000Y-75735883D01*
X119845000Y-75394117D01*
X135425000Y-75394117D01*
X135425000Y-75735883D01*
X135491675Y-76071081D01*
X135622463Y-76386831D01*
X135812337Y-76670998D01*
X136054002Y-76912663D01*
X136338169Y-77102537D01*
X136653919Y-77233325D01*
X136989117Y-77300000D01*
X137330883Y-77300000D01*
X137666081Y-77233325D01*
X137981831Y-77102537D01*
X138265998Y-76912663D01*
X138280373Y-76898288D01*
X148832893Y-76898288D01*
X149860000Y-77925395D01*
X150887107Y-76898288D01*
X150779274Y-76623662D01*
X150472616Y-76472784D01*
X150142415Y-76384631D01*
X149801361Y-76362591D01*
X149462561Y-76407511D01*
X149139034Y-76517664D01*
X148940726Y-76623662D01*
X148832893Y-76898288D01*
X138280373Y-76898288D01*
X138507663Y-76670998D01*
X138697537Y-76386831D01*
X138828325Y-76071081D01*
X138895000Y-75735883D01*
X138895000Y-75394117D01*
X154475000Y-75394117D01*
X154475000Y-75735883D01*
X154541675Y-76071081D01*
X154672463Y-76386831D01*
X154862337Y-76670998D01*
X155104002Y-76912663D01*
X155388169Y-77102537D01*
X155703919Y-77233325D01*
X156039117Y-77300000D01*
X156380883Y-77300000D01*
X156716081Y-77233325D01*
X157031831Y-77102537D01*
X157315998Y-76912663D01*
X157557663Y-76670998D01*
X157747537Y-76386831D01*
X157878325Y-76071081D01*
X157945000Y-75735883D01*
X157945000Y-75394117D01*
X157878325Y-75058919D01*
X157747537Y-74743169D01*
X157557663Y-74459002D01*
X157315998Y-74217337D01*
X157031831Y-74027463D01*
X156716081Y-73896675D01*
X156380883Y-73830000D01*
X156039117Y-73830000D01*
X155703919Y-73896675D01*
X155388169Y-74027463D01*
X155104002Y-74217337D01*
X154862337Y-74459002D01*
X154672463Y-74743169D01*
X154541675Y-75058919D01*
X154475000Y-75394117D01*
X138895000Y-75394117D01*
X138828325Y-75058919D01*
X138697537Y-74743169D01*
X138507663Y-74459002D01*
X138265998Y-74217337D01*
X137981831Y-74027463D01*
X137666081Y-73896675D01*
X137330883Y-73830000D01*
X136989117Y-73830000D01*
X136653919Y-73896675D01*
X136338169Y-74027463D01*
X136054002Y-74217337D01*
X135812337Y-74459002D01*
X135622463Y-74743169D01*
X135491675Y-75058919D01*
X135425000Y-75394117D01*
X119845000Y-75394117D01*
X119778325Y-75058919D01*
X119647537Y-74743169D01*
X119457663Y-74459002D01*
X119215998Y-74217337D01*
X118931831Y-74027463D01*
X118616081Y-73896675D01*
X118280883Y-73830000D01*
X117939117Y-73830000D01*
X117603919Y-73896675D01*
X117288169Y-74027463D01*
X117004002Y-74217337D01*
X116762337Y-74459002D01*
X116572463Y-74743169D01*
X116441675Y-75058919D01*
X116375000Y-75394117D01*
X104800000Y-75394117D01*
X104800000Y-70973740D01*
X166155000Y-70973740D01*
X166155000Y-71266260D01*
X166212068Y-71553158D01*
X166324010Y-71823411D01*
X166486525Y-72066632D01*
X166693368Y-72273475D01*
X166936589Y-72435990D01*
X167206842Y-72547932D01*
X167493740Y-72605000D01*
X167786260Y-72605000D01*
X168073158Y-72547932D01*
X168343411Y-72435990D01*
X168586632Y-72273475D01*
X168793475Y-72066632D01*
X168955990Y-71823411D01*
X169067932Y-71553158D01*
X169125000Y-71266260D01*
X169125000Y-70973740D01*
X169102471Y-70860475D01*
X170085000Y-70860475D01*
X170085000Y-71379525D01*
X170186261Y-71888601D01*
X170384893Y-72368141D01*
X170673262Y-72799715D01*
X171040285Y-73166738D01*
X171471859Y-73455107D01*
X171951399Y-73653739D01*
X172460475Y-73755000D01*
X172979525Y-73755000D01*
X173488601Y-73653739D01*
X173968141Y-73455107D01*
X174399715Y-73166738D01*
X174766738Y-72799715D01*
X175055107Y-72368141D01*
X175241681Y-71917712D01*
X175241680Y-75346718D01*
X174440419Y-76147980D01*
X174378281Y-76147980D01*
X174178322Y-76187754D01*
X173989964Y-76265775D01*
X173820446Y-76379043D01*
X173676283Y-76523206D01*
X173563015Y-76692724D01*
X173484994Y-76881082D01*
X173445220Y-77081041D01*
X173445220Y-77284919D01*
X173484994Y-77484878D01*
X173563015Y-77673236D01*
X173676283Y-77842754D01*
X173820446Y-77986917D01*
X173989964Y-78100185D01*
X174178322Y-78178206D01*
X174378281Y-78217980D01*
X174582159Y-78217980D01*
X174782118Y-78178206D01*
X174970476Y-78100185D01*
X175139994Y-77986917D01*
X175284157Y-77842754D01*
X175397425Y-77673236D01*
X175475446Y-77484878D01*
X175515220Y-77284919D01*
X175515220Y-77222781D01*
X176209960Y-76528041D01*
X179719180Y-80037262D01*
X179665379Y-80026560D01*
X179461501Y-80026560D01*
X179261542Y-80066334D01*
X179073184Y-80144355D01*
X179016287Y-80182372D01*
X178980645Y-80096324D01*
X178867377Y-79926806D01*
X178723214Y-79782643D01*
X178553696Y-79669375D01*
X178365338Y-79591354D01*
X178165379Y-79551580D01*
X177961501Y-79551580D01*
X177761542Y-79591354D01*
X177573184Y-79669375D01*
X177403666Y-79782643D01*
X177259503Y-79926806D01*
X177146235Y-80096324D01*
X177068214Y-80284682D01*
X177028440Y-80484641D01*
X177028440Y-80688519D01*
X177068214Y-80888478D01*
X177146235Y-81076836D01*
X177259503Y-81246354D01*
X177403666Y-81390517D01*
X177573184Y-81503785D01*
X177761542Y-81581806D01*
X177961501Y-81621580D01*
X178022812Y-81621580D01*
X178114144Y-81696534D01*
X178246173Y-81767106D01*
X178389434Y-81810563D01*
X178501087Y-81821560D01*
X178501096Y-81821560D01*
X178538419Y-81825236D01*
X178575742Y-81821560D01*
X178859729Y-81821560D01*
X178903666Y-81865497D01*
X179073184Y-81978765D01*
X179261542Y-82056786D01*
X179461501Y-82096560D01*
X179665379Y-82096560D01*
X179865338Y-82056786D01*
X180053696Y-81978765D01*
X180223214Y-81865497D01*
X180367377Y-81721334D01*
X180480645Y-81551816D01*
X180558666Y-81363458D01*
X180598440Y-81163499D01*
X180598440Y-80959621D01*
X180587738Y-80905820D01*
X181999598Y-82317680D01*
X181233942Y-82317680D01*
X181196619Y-82314004D01*
X181159296Y-82317680D01*
X181159287Y-82317680D01*
X181047634Y-82328677D01*
X180904373Y-82372134D01*
X180772344Y-82442706D01*
X180772342Y-82442707D01*
X180772343Y-82442707D01*
X180685616Y-82513881D01*
X180685612Y-82513885D01*
X180656619Y-82537679D01*
X180632825Y-82566672D01*
X180180138Y-83019360D01*
X174747051Y-83019360D01*
X174703114Y-82975423D01*
X174533596Y-82862155D01*
X174345238Y-82784134D01*
X174145279Y-82744360D01*
X173941401Y-82744360D01*
X173741442Y-82784134D01*
X173553084Y-82862155D01*
X173383566Y-82975423D01*
X173239403Y-83119586D01*
X173126135Y-83289104D01*
X173048114Y-83477462D01*
X173008340Y-83677421D01*
X173008340Y-83881299D01*
X173048114Y-84081258D01*
X173126135Y-84269616D01*
X173239403Y-84439134D01*
X173383566Y-84583297D01*
X173553084Y-84696565D01*
X173741442Y-84774586D01*
X173941401Y-84814360D01*
X174145279Y-84814360D01*
X174345238Y-84774586D01*
X174533596Y-84696565D01*
X174703114Y-84583297D01*
X174747051Y-84539360D01*
X178660138Y-84539360D01*
X175103359Y-88096140D01*
X175041221Y-88096140D01*
X174841262Y-88135914D01*
X174652904Y-88213935D01*
X174483386Y-88327203D01*
X174339223Y-88471366D01*
X174225955Y-88640884D01*
X174147934Y-88829242D01*
X174108160Y-89029201D01*
X174108160Y-89233079D01*
X174147934Y-89433038D01*
X174225955Y-89621396D01*
X174339223Y-89790914D01*
X174483386Y-89935077D01*
X174652904Y-90048345D01*
X174841262Y-90126366D01*
X175041221Y-90166140D01*
X175245099Y-90166140D01*
X175445058Y-90126366D01*
X175633416Y-90048345D01*
X175802934Y-89935077D01*
X175947097Y-89790914D01*
X176060365Y-89621396D01*
X176138386Y-89433038D01*
X176178160Y-89233079D01*
X176178160Y-89170941D01*
X180560899Y-84788203D01*
X180560903Y-84788198D01*
X181005943Y-84343159D01*
X181034941Y-84319361D01*
X181058740Y-84290362D01*
X181511423Y-83837680D01*
X183074400Y-83837680D01*
X183074401Y-86619208D01*
X183070724Y-86656540D01*
X183074401Y-86693873D01*
X183085398Y-86805526D01*
X183097876Y-86846662D01*
X183128854Y-86948786D01*
X183199426Y-87080816D01*
X183264791Y-87160462D01*
X183294400Y-87196541D01*
X183323398Y-87220339D01*
X183605220Y-87502161D01*
X183605220Y-87564299D01*
X183644994Y-87764258D01*
X183723015Y-87952616D01*
X183836283Y-88122134D01*
X183980446Y-88266297D01*
X184149964Y-88379565D01*
X184338322Y-88457586D01*
X184538281Y-88497360D01*
X184742159Y-88497360D01*
X184942118Y-88457586D01*
X185130476Y-88379565D01*
X185299994Y-88266297D01*
X185444157Y-88122134D01*
X185557425Y-87952616D01*
X185635446Y-87764258D01*
X185675220Y-87564299D01*
X185675220Y-87360421D01*
X185635446Y-87160462D01*
X185557425Y-86972104D01*
X185444157Y-86802586D01*
X185299994Y-86658423D01*
X185130476Y-86545155D01*
X184942118Y-86467134D01*
X184742159Y-86427360D01*
X184680021Y-86427360D01*
X184594400Y-86341739D01*
X184594400Y-83781391D01*
X184638337Y-83737454D01*
X184751605Y-83567936D01*
X184829626Y-83379578D01*
X184869400Y-83179619D01*
X184869400Y-82975741D01*
X184829626Y-82775782D01*
X184751605Y-82587424D01*
X184638337Y-82417906D01*
X184494174Y-82273743D01*
X184324656Y-82160475D01*
X184136298Y-82082454D01*
X183936339Y-82042680D01*
X183874202Y-82042680D01*
X177577332Y-75745810D01*
X184676036Y-75745810D01*
X184759937Y-75978864D01*
X184884953Y-76170441D01*
X185044941Y-76333947D01*
X185233754Y-76463099D01*
X185444135Y-76552934D01*
X185668000Y-76600000D01*
X186193000Y-76600000D01*
X186193000Y-75567000D01*
X186447000Y-75567000D01*
X186447000Y-76600000D01*
X186972000Y-76600000D01*
X187195865Y-76552934D01*
X187406246Y-76463099D01*
X187595059Y-76333947D01*
X187755047Y-76170441D01*
X187880063Y-75978864D01*
X187963964Y-75745810D01*
X188856036Y-75745810D01*
X188939937Y-75978864D01*
X189064953Y-76170441D01*
X189224941Y-76333947D01*
X189413754Y-76463099D01*
X189624135Y-76552934D01*
X189848000Y-76600000D01*
X190373000Y-76600000D01*
X190373000Y-75567000D01*
X190627000Y-75567000D01*
X190627000Y-76600000D01*
X191152000Y-76600000D01*
X191375865Y-76552934D01*
X191586246Y-76463099D01*
X191775059Y-76333947D01*
X191935047Y-76170441D01*
X192060063Y-75978864D01*
X192143964Y-75745810D01*
X192018163Y-75567000D01*
X190627000Y-75567000D01*
X190373000Y-75567000D01*
X188981837Y-75567000D01*
X188856036Y-75745810D01*
X187963964Y-75745810D01*
X187838163Y-75567000D01*
X186447000Y-75567000D01*
X186193000Y-75567000D01*
X184801837Y-75567000D01*
X184676036Y-75745810D01*
X177577332Y-75745810D01*
X177211690Y-75380169D01*
X177211690Y-75134190D01*
X184676036Y-75134190D01*
X184801837Y-75313000D01*
X186193000Y-75313000D01*
X186193000Y-75293000D01*
X186447000Y-75293000D01*
X186447000Y-75313000D01*
X187838163Y-75313000D01*
X187963964Y-75134190D01*
X188856036Y-75134190D01*
X188981837Y-75313000D01*
X190373000Y-75313000D01*
X190373000Y-74280000D01*
X190627000Y-74280000D01*
X190627000Y-75313000D01*
X192018163Y-75313000D01*
X192143964Y-75134190D01*
X192060063Y-74901136D01*
X191935047Y-74709559D01*
X191775059Y-74546053D01*
X191586246Y-74416901D01*
X191375865Y-74327066D01*
X191152000Y-74280000D01*
X190627000Y-74280000D01*
X190373000Y-74280000D01*
X189848000Y-74280000D01*
X189624135Y-74327066D01*
X189413754Y-74416901D01*
X189224941Y-74546053D01*
X189064953Y-74709559D01*
X188939937Y-74901136D01*
X188856036Y-75134190D01*
X187963964Y-75134190D01*
X187880063Y-74901136D01*
X187755047Y-74709559D01*
X187643435Y-74595493D01*
X187722896Y-74476572D01*
X187797147Y-74297314D01*
X187835000Y-74107014D01*
X187835000Y-73912986D01*
X187797147Y-73722686D01*
X187722896Y-73543428D01*
X187615099Y-73382099D01*
X187477901Y-73244901D01*
X187316572Y-73137104D01*
X187137314Y-73062853D01*
X186947014Y-73025000D01*
X186752986Y-73025000D01*
X186562686Y-73062853D01*
X186383428Y-73137104D01*
X186222099Y-73244901D01*
X186084901Y-73382099D01*
X185977104Y-73543428D01*
X185902853Y-73722686D01*
X185865000Y-73912986D01*
X185865000Y-74107014D01*
X185899409Y-74280000D01*
X185668000Y-74280000D01*
X185444135Y-74327066D01*
X185233754Y-74416901D01*
X185044941Y-74546053D01*
X184884953Y-74709559D01*
X184759937Y-74901136D01*
X184676036Y-75134190D01*
X177211690Y-75134190D01*
X177211690Y-72483666D01*
X177366842Y-72547932D01*
X177653740Y-72605000D01*
X177946260Y-72605000D01*
X178233158Y-72547932D01*
X178503411Y-72435990D01*
X178746632Y-72273475D01*
X178953475Y-72066632D01*
X179115990Y-71823411D01*
X179227932Y-71553158D01*
X179285000Y-71266260D01*
X179285000Y-70973740D01*
X179227932Y-70686842D01*
X179115990Y-70416589D01*
X178953475Y-70173368D01*
X178746632Y-69966525D01*
X178503411Y-69804010D01*
X178233158Y-69692068D01*
X177946260Y-69635000D01*
X177851692Y-69635000D01*
X178418472Y-69068220D01*
X178544089Y-69068220D01*
X178588026Y-69112157D01*
X178757544Y-69225425D01*
X178945902Y-69303446D01*
X179145861Y-69343220D01*
X179349739Y-69343220D01*
X179549698Y-69303446D01*
X179738056Y-69225425D01*
X179907574Y-69112157D01*
X180051737Y-68967994D01*
X180165005Y-68798476D01*
X180243026Y-68610118D01*
X180282800Y-68410159D01*
X180282800Y-68206281D01*
X180243026Y-68006322D01*
X180165005Y-67817964D01*
X180051737Y-67648446D01*
X179944991Y-67541700D01*
X180380881Y-67105810D01*
X184676036Y-67105810D01*
X184759937Y-67338864D01*
X184884953Y-67530441D01*
X185044941Y-67693947D01*
X185233754Y-67823099D01*
X185444135Y-67912934D01*
X185668000Y-67960000D01*
X185899409Y-67960000D01*
X185865000Y-68132986D01*
X185865000Y-68327014D01*
X185902853Y-68517314D01*
X185977104Y-68696572D01*
X186084901Y-68857901D01*
X186222099Y-68995099D01*
X186383428Y-69102896D01*
X186562686Y-69177147D01*
X186752986Y-69215000D01*
X186947014Y-69215000D01*
X187137314Y-69177147D01*
X187316572Y-69102896D01*
X187477901Y-68995099D01*
X187615099Y-68857901D01*
X187722896Y-68696572D01*
X187797147Y-68517314D01*
X187835000Y-68327014D01*
X187835000Y-68132986D01*
X187797147Y-67942686D01*
X187722896Y-67763428D01*
X187643435Y-67644507D01*
X187755047Y-67530441D01*
X187880063Y-67338864D01*
X187963964Y-67105810D01*
X188856036Y-67105810D01*
X188939937Y-67338864D01*
X189064953Y-67530441D01*
X189224941Y-67693947D01*
X189413754Y-67823099D01*
X189624135Y-67912934D01*
X189848000Y-67960000D01*
X190373000Y-67960000D01*
X190373000Y-66927000D01*
X190627000Y-66927000D01*
X190627000Y-67960000D01*
X191152000Y-67960000D01*
X191375865Y-67912934D01*
X191586246Y-67823099D01*
X191775059Y-67693947D01*
X191935047Y-67530441D01*
X192060063Y-67338864D01*
X192143964Y-67105810D01*
X192018163Y-66927000D01*
X190627000Y-66927000D01*
X190373000Y-66927000D01*
X188981837Y-66927000D01*
X188856036Y-67105810D01*
X187963964Y-67105810D01*
X187838163Y-66927000D01*
X186447000Y-66927000D01*
X186447000Y-66947000D01*
X186193000Y-66947000D01*
X186193000Y-66927000D01*
X184801837Y-66927000D01*
X184676036Y-67105810D01*
X180380881Y-67105810D01*
X181651892Y-65834800D01*
X185149109Y-65834800D01*
X185044941Y-65906053D01*
X184884953Y-66069559D01*
X184759937Y-66261136D01*
X184676036Y-66494190D01*
X184801837Y-66673000D01*
X186193000Y-66673000D01*
X186193000Y-66653000D01*
X186447000Y-66653000D01*
X186447000Y-66673000D01*
X187838163Y-66673000D01*
X187963964Y-66494190D01*
X188856036Y-66494190D01*
X188981837Y-66673000D01*
X190373000Y-66673000D01*
X190373000Y-65640000D01*
X190627000Y-65640000D01*
X190627000Y-66673000D01*
X192018163Y-66673000D01*
X192143964Y-66494190D01*
X192060063Y-66261136D01*
X191935047Y-66069559D01*
X191775059Y-65906053D01*
X191586246Y-65776901D01*
X191375865Y-65687066D01*
X191152000Y-65640000D01*
X190627000Y-65640000D01*
X190373000Y-65640000D01*
X189848000Y-65640000D01*
X189624135Y-65687066D01*
X189413754Y-65776901D01*
X189224941Y-65906053D01*
X189064953Y-66069559D01*
X188939937Y-66261136D01*
X188856036Y-66494190D01*
X187963964Y-66494190D01*
X187880063Y-66261136D01*
X187755047Y-66069559D01*
X187595059Y-65906053D01*
X187490891Y-65834800D01*
X187899818Y-65834800D01*
X187937140Y-65838476D01*
X187974462Y-65834800D01*
X187974473Y-65834800D01*
X188086126Y-65823803D01*
X188229387Y-65780346D01*
X188361416Y-65709774D01*
X188477141Y-65614801D01*
X188500943Y-65585798D01*
X189337143Y-64749599D01*
X189366141Y-64725801D01*
X189461114Y-64610076D01*
X189531686Y-64478047D01*
X189575143Y-64334786D01*
X189586140Y-64223133D01*
X189586140Y-64223123D01*
X189589816Y-64185800D01*
X189586140Y-64148477D01*
X189586140Y-60077842D01*
X189589816Y-60040519D01*
X189586140Y-60003196D01*
X189586140Y-60003187D01*
X189575143Y-59891534D01*
X189531686Y-59748273D01*
X189461114Y-59616244D01*
X189366141Y-59500519D01*
X189337144Y-59476722D01*
X188077869Y-58217448D01*
X188121660Y-57997300D01*
X188121660Y-57704780D01*
X188064592Y-57417882D01*
X187952650Y-57147629D01*
X187790135Y-56904408D01*
X187583292Y-56697565D01*
X187340071Y-56535050D01*
X187069818Y-56423108D01*
X186782920Y-56366040D01*
X186490400Y-56366040D01*
X186203502Y-56423108D01*
X185933249Y-56535050D01*
X185690028Y-56697565D01*
X185558173Y-56829420D01*
X185536162Y-56756860D01*
X185477197Y-56646546D01*
X185397845Y-56549855D01*
X185301154Y-56470503D01*
X185190840Y-56411538D01*
X185071142Y-56375228D01*
X184946660Y-56362968D01*
X183246660Y-56362968D01*
X183122178Y-56375228D01*
X183002480Y-56411538D01*
X182892166Y-56470503D01*
X182795475Y-56549855D01*
X182716123Y-56646546D01*
X182657158Y-56756860D01*
X182620848Y-56876558D01*
X182608588Y-57001040D01*
X182608588Y-58701040D01*
X182620848Y-58825522D01*
X182657158Y-58945220D01*
X182716123Y-59055534D01*
X182795475Y-59152225D01*
X182892166Y-59231577D01*
X183002480Y-59290542D01*
X183075040Y-59312553D01*
X182943185Y-59444408D01*
X182780670Y-59687629D01*
X182668728Y-59957882D01*
X182611660Y-60244780D01*
X182611660Y-60537300D01*
X182668728Y-60824198D01*
X182780670Y-61094451D01*
X182943185Y-61337672D01*
X183150028Y-61544515D01*
X183324420Y-61661040D01*
X183150028Y-61777565D01*
X182943185Y-61984408D01*
X182780670Y-62227629D01*
X182668728Y-62497882D01*
X182611660Y-62784780D01*
X182611660Y-63077300D01*
X182655451Y-63297448D01*
X182088108Y-63864791D01*
X181188011Y-63864791D01*
X181150688Y-63861115D01*
X181113365Y-63864791D01*
X181113356Y-63864791D01*
X181001703Y-63875788D01*
X180858442Y-63919245D01*
X180726413Y-63989817D01*
X180610688Y-64084790D01*
X180586890Y-64113788D01*
X175490678Y-69210001D01*
X175461680Y-69233799D01*
X175437882Y-69262797D01*
X175437881Y-69262798D01*
X175366706Y-69349524D01*
X175296134Y-69481554D01*
X175252678Y-69624815D01*
X175238004Y-69773800D01*
X175241681Y-69811132D01*
X175241681Y-70322288D01*
X175055107Y-69871859D01*
X174766738Y-69440285D01*
X174399715Y-69073262D01*
X173968141Y-68784893D01*
X173488601Y-68586261D01*
X172979525Y-68485000D01*
X172460475Y-68485000D01*
X171951399Y-68586261D01*
X171471859Y-68784893D01*
X171040285Y-69073262D01*
X170673262Y-69440285D01*
X170384893Y-69871859D01*
X170186261Y-70351399D01*
X170085000Y-70860475D01*
X169102471Y-70860475D01*
X169067932Y-70686842D01*
X168955990Y-70416589D01*
X168889650Y-70317304D01*
X168968639Y-70322409D01*
X169307439Y-70277489D01*
X169630966Y-70167336D01*
X169829274Y-70061338D01*
X169937107Y-69786712D01*
X168910000Y-68759605D01*
X168895858Y-68773748D01*
X168716253Y-68594143D01*
X168730395Y-68580000D01*
X169089605Y-68580000D01*
X170116712Y-69607107D01*
X170391338Y-69499274D01*
X170542216Y-69192616D01*
X170630369Y-68862415D01*
X170652409Y-68521361D01*
X170607489Y-68182561D01*
X170497336Y-67859034D01*
X170391338Y-67660726D01*
X170116712Y-67552893D01*
X169089605Y-68580000D01*
X168730395Y-68580000D01*
X167703288Y-67552893D01*
X167428662Y-67660726D01*
X167277784Y-67967384D01*
X167189631Y-68297585D01*
X167167591Y-68638639D01*
X167212511Y-68977439D01*
X167322664Y-69300966D01*
X167428662Y-69499274D01*
X167703286Y-69607106D01*
X167675392Y-69635000D01*
X167493740Y-69635000D01*
X167206842Y-69692068D01*
X166936589Y-69804010D01*
X166693368Y-69966525D01*
X166486525Y-70173368D01*
X166324010Y-70416589D01*
X166212068Y-70686842D01*
X166155000Y-70973740D01*
X104800000Y-70973740D01*
X104800000Y-67373288D01*
X167882893Y-67373288D01*
X168910000Y-68400395D01*
X169937107Y-67373288D01*
X169829274Y-67098662D01*
X169522616Y-66947784D01*
X169192415Y-66859631D01*
X168851361Y-66837591D01*
X168512561Y-66882511D01*
X168189034Y-66992664D01*
X167990726Y-67098662D01*
X167882893Y-67373288D01*
X104800000Y-67373288D01*
X104800000Y-65869117D01*
X173525000Y-65869117D01*
X173525000Y-66210883D01*
X173591675Y-66546081D01*
X173722463Y-66861831D01*
X173912337Y-67145998D01*
X174154002Y-67387663D01*
X174438169Y-67577537D01*
X174753919Y-67708325D01*
X175089117Y-67775000D01*
X175430883Y-67775000D01*
X175766081Y-67708325D01*
X176081831Y-67577537D01*
X176365998Y-67387663D01*
X176607663Y-67145998D01*
X176797537Y-66861831D01*
X176928325Y-66546081D01*
X176995000Y-66210883D01*
X176995000Y-65869117D01*
X176928325Y-65533919D01*
X176797537Y-65218169D01*
X176607663Y-64934002D01*
X176365998Y-64692337D01*
X176081831Y-64502463D01*
X175766081Y-64371675D01*
X175430883Y-64305000D01*
X175089117Y-64305000D01*
X174753919Y-64371675D01*
X174438169Y-64502463D01*
X174154002Y-64692337D01*
X173912337Y-64934002D01*
X173722463Y-65218169D01*
X173591675Y-65533919D01*
X173525000Y-65869117D01*
X104800000Y-65869117D01*
X104800000Y-61448740D01*
X109005000Y-61448740D01*
X109005000Y-61741260D01*
X109062068Y-62028158D01*
X109174010Y-62298411D01*
X109336525Y-62541632D01*
X109543368Y-62748475D01*
X109786589Y-62910990D01*
X110056842Y-63022932D01*
X110343740Y-63080000D01*
X110636260Y-63080000D01*
X110923158Y-63022932D01*
X111193411Y-62910990D01*
X111436632Y-62748475D01*
X111643475Y-62541632D01*
X111805990Y-62298411D01*
X111917932Y-62028158D01*
X111975000Y-61741260D01*
X111975000Y-61448740D01*
X111952471Y-61335475D01*
X112935000Y-61335475D01*
X112935000Y-61854525D01*
X113036261Y-62363601D01*
X113234893Y-62843141D01*
X113523262Y-63274715D01*
X113890285Y-63641738D01*
X114321859Y-63930107D01*
X114801399Y-64128739D01*
X115310475Y-64230000D01*
X115829525Y-64230000D01*
X116338601Y-64128739D01*
X116818141Y-63930107D01*
X117249715Y-63641738D01*
X117616738Y-63274715D01*
X117905107Y-62843141D01*
X118103739Y-62363601D01*
X118205000Y-61854525D01*
X118205000Y-61448740D01*
X119165000Y-61448740D01*
X119165000Y-61741260D01*
X119222068Y-62028158D01*
X119334010Y-62298411D01*
X119496525Y-62541632D01*
X119703368Y-62748475D01*
X119946589Y-62910990D01*
X120216842Y-63022932D01*
X120503740Y-63080000D01*
X120796260Y-63080000D01*
X121083158Y-63022932D01*
X121353411Y-62910990D01*
X121596632Y-62748475D01*
X121803475Y-62541632D01*
X121965990Y-62298411D01*
X122077932Y-62028158D01*
X122135000Y-61741260D01*
X122135000Y-61448740D01*
X128055000Y-61448740D01*
X128055000Y-61741260D01*
X128112068Y-62028158D01*
X128224010Y-62298411D01*
X128386525Y-62541632D01*
X128593368Y-62748475D01*
X128836589Y-62910990D01*
X129106842Y-63022932D01*
X129393740Y-63080000D01*
X129686260Y-63080000D01*
X129973158Y-63022932D01*
X130243411Y-62910990D01*
X130486632Y-62748475D01*
X130693475Y-62541632D01*
X130855990Y-62298411D01*
X130967932Y-62028158D01*
X131025000Y-61741260D01*
X131025000Y-61448740D01*
X131002471Y-61335475D01*
X131985000Y-61335475D01*
X131985000Y-61854525D01*
X132086261Y-62363601D01*
X132284893Y-62843141D01*
X132573262Y-63274715D01*
X132940285Y-63641738D01*
X133371859Y-63930107D01*
X133851399Y-64128739D01*
X134360475Y-64230000D01*
X134879525Y-64230000D01*
X135388601Y-64128739D01*
X135868141Y-63930107D01*
X136299715Y-63641738D01*
X136666738Y-63274715D01*
X136955107Y-62843141D01*
X137153739Y-62363601D01*
X137255000Y-61854525D01*
X137255000Y-61448740D01*
X138215000Y-61448740D01*
X138215000Y-61741260D01*
X138272068Y-62028158D01*
X138384010Y-62298411D01*
X138546525Y-62541632D01*
X138753368Y-62748475D01*
X138996589Y-62910990D01*
X139266842Y-63022932D01*
X139553740Y-63080000D01*
X139846260Y-63080000D01*
X140133158Y-63022932D01*
X140403411Y-62910990D01*
X140646632Y-62748475D01*
X140853475Y-62541632D01*
X141015990Y-62298411D01*
X141127932Y-62028158D01*
X141185000Y-61741260D01*
X141185000Y-61448740D01*
X147105000Y-61448740D01*
X147105000Y-61741260D01*
X147162068Y-62028158D01*
X147274010Y-62298411D01*
X147436525Y-62541632D01*
X147643368Y-62748475D01*
X147886589Y-62910990D01*
X148156842Y-63022932D01*
X148443740Y-63080000D01*
X148736260Y-63080000D01*
X149023158Y-63022932D01*
X149293411Y-62910990D01*
X149536632Y-62748475D01*
X149743475Y-62541632D01*
X149905990Y-62298411D01*
X150017932Y-62028158D01*
X150075000Y-61741260D01*
X150075000Y-61448740D01*
X150052471Y-61335475D01*
X151035000Y-61335475D01*
X151035000Y-61854525D01*
X151136261Y-62363601D01*
X151334893Y-62843141D01*
X151623262Y-63274715D01*
X151990285Y-63641738D01*
X152421859Y-63930107D01*
X152901399Y-64128739D01*
X153410475Y-64230000D01*
X153929525Y-64230000D01*
X154438601Y-64128739D01*
X154918141Y-63930107D01*
X155349715Y-63641738D01*
X155716738Y-63274715D01*
X156005107Y-62843141D01*
X156203739Y-62363601D01*
X156305000Y-61854525D01*
X156305000Y-61448740D01*
X157265000Y-61448740D01*
X157265000Y-61741260D01*
X157322068Y-62028158D01*
X157434010Y-62298411D01*
X157596525Y-62541632D01*
X157803368Y-62748475D01*
X158046589Y-62910990D01*
X158316842Y-63022932D01*
X158603740Y-63080000D01*
X158896260Y-63080000D01*
X159183158Y-63022932D01*
X159453411Y-62910990D01*
X159696632Y-62748475D01*
X159903475Y-62541632D01*
X160065990Y-62298411D01*
X160177932Y-62028158D01*
X160235000Y-61741260D01*
X160235000Y-61448740D01*
X160177932Y-61161842D01*
X160065990Y-60891589D01*
X159903475Y-60648368D01*
X159696632Y-60441525D01*
X159453411Y-60279010D01*
X159183158Y-60167068D01*
X158896260Y-60110000D01*
X158603740Y-60110000D01*
X158316842Y-60167068D01*
X158046589Y-60279010D01*
X157803368Y-60441525D01*
X157596525Y-60648368D01*
X157434010Y-60891589D01*
X157322068Y-61161842D01*
X157265000Y-61448740D01*
X156305000Y-61448740D01*
X156305000Y-61335475D01*
X156203739Y-60826399D01*
X156005107Y-60346859D01*
X155813391Y-60059936D01*
X172248410Y-60059936D01*
X172488556Y-60447179D01*
X172982457Y-60707802D01*
X173517713Y-60867062D01*
X174073754Y-60918839D01*
X174629212Y-60861142D01*
X175162741Y-60696189D01*
X175628604Y-60447179D01*
X175868750Y-60059936D01*
X174058580Y-58249766D01*
X172248410Y-60059936D01*
X155813391Y-60059936D01*
X155716738Y-59915285D01*
X155349715Y-59548262D01*
X154918141Y-59259893D01*
X154438601Y-59061261D01*
X153929525Y-58960000D01*
X153410475Y-58960000D01*
X152901399Y-59061261D01*
X152421859Y-59259893D01*
X151990285Y-59548262D01*
X151623262Y-59915285D01*
X151334893Y-60346859D01*
X151136261Y-60826399D01*
X151035000Y-61335475D01*
X150052471Y-61335475D01*
X150017932Y-61161842D01*
X149905990Y-60891589D01*
X149839650Y-60792304D01*
X149918639Y-60797409D01*
X150257439Y-60752489D01*
X150580966Y-60642336D01*
X150779274Y-60536338D01*
X150887107Y-60261712D01*
X149860000Y-59234605D01*
X149845858Y-59248748D01*
X149666253Y-59069143D01*
X149680395Y-59055000D01*
X150039605Y-59055000D01*
X151066712Y-60082107D01*
X151341338Y-59974274D01*
X151492216Y-59667616D01*
X151580369Y-59337415D01*
X151602409Y-58996361D01*
X151557489Y-58657561D01*
X151447336Y-58334034D01*
X151341338Y-58135726D01*
X151066712Y-58027893D01*
X150039605Y-59055000D01*
X149680395Y-59055000D01*
X148653288Y-58027893D01*
X148378662Y-58135726D01*
X148227784Y-58442384D01*
X148139631Y-58772585D01*
X148117591Y-59113639D01*
X148162511Y-59452439D01*
X148272664Y-59775966D01*
X148378662Y-59974274D01*
X148653286Y-60082106D01*
X148625392Y-60110000D01*
X148443740Y-60110000D01*
X148156842Y-60167068D01*
X147886589Y-60279010D01*
X147643368Y-60441525D01*
X147436525Y-60648368D01*
X147274010Y-60891589D01*
X147162068Y-61161842D01*
X147105000Y-61448740D01*
X141185000Y-61448740D01*
X141127932Y-61161842D01*
X141015990Y-60891589D01*
X140853475Y-60648368D01*
X140646632Y-60441525D01*
X140403411Y-60279010D01*
X140133158Y-60167068D01*
X139846260Y-60110000D01*
X139553740Y-60110000D01*
X139266842Y-60167068D01*
X138996589Y-60279010D01*
X138753368Y-60441525D01*
X138546525Y-60648368D01*
X138384010Y-60891589D01*
X138272068Y-61161842D01*
X138215000Y-61448740D01*
X137255000Y-61448740D01*
X137255000Y-61335475D01*
X137153739Y-60826399D01*
X136955107Y-60346859D01*
X136666738Y-59915285D01*
X136299715Y-59548262D01*
X135868141Y-59259893D01*
X135388601Y-59061261D01*
X134879525Y-58960000D01*
X134360475Y-58960000D01*
X133851399Y-59061261D01*
X133371859Y-59259893D01*
X132940285Y-59548262D01*
X132573262Y-59915285D01*
X132284893Y-60346859D01*
X132086261Y-60826399D01*
X131985000Y-61335475D01*
X131002471Y-61335475D01*
X130967932Y-61161842D01*
X130855990Y-60891589D01*
X130789650Y-60792304D01*
X130868639Y-60797409D01*
X131207439Y-60752489D01*
X131530966Y-60642336D01*
X131729274Y-60536338D01*
X131837107Y-60261712D01*
X130810000Y-59234605D01*
X130795858Y-59248748D01*
X130616253Y-59069143D01*
X130630395Y-59055000D01*
X130989605Y-59055000D01*
X132016712Y-60082107D01*
X132291338Y-59974274D01*
X132442216Y-59667616D01*
X132530369Y-59337415D01*
X132552409Y-58996361D01*
X132507489Y-58657561D01*
X132397336Y-58334034D01*
X132291338Y-58135726D01*
X132016712Y-58027893D01*
X130989605Y-59055000D01*
X130630395Y-59055000D01*
X129603288Y-58027893D01*
X129328662Y-58135726D01*
X129177784Y-58442384D01*
X129089631Y-58772585D01*
X129067591Y-59113639D01*
X129112511Y-59452439D01*
X129222664Y-59775966D01*
X129328662Y-59974274D01*
X129603286Y-60082106D01*
X129575392Y-60110000D01*
X129393740Y-60110000D01*
X129106842Y-60167068D01*
X128836589Y-60279010D01*
X128593368Y-60441525D01*
X128386525Y-60648368D01*
X128224010Y-60891589D01*
X128112068Y-61161842D01*
X128055000Y-61448740D01*
X122135000Y-61448740D01*
X122077932Y-61161842D01*
X121965990Y-60891589D01*
X121803475Y-60648368D01*
X121596632Y-60441525D01*
X121353411Y-60279010D01*
X121083158Y-60167068D01*
X120796260Y-60110000D01*
X120503740Y-60110000D01*
X120216842Y-60167068D01*
X119946589Y-60279010D01*
X119703368Y-60441525D01*
X119496525Y-60648368D01*
X119334010Y-60891589D01*
X119222068Y-61161842D01*
X119165000Y-61448740D01*
X118205000Y-61448740D01*
X118205000Y-61335475D01*
X118103739Y-60826399D01*
X117905107Y-60346859D01*
X117713391Y-60059936D01*
X123254350Y-60059936D01*
X123494496Y-60447179D01*
X123988397Y-60707802D01*
X124523653Y-60867062D01*
X125079694Y-60918839D01*
X125635152Y-60861142D01*
X126168681Y-60696189D01*
X126634544Y-60447179D01*
X126874690Y-60059936D01*
X125064520Y-58249766D01*
X123254350Y-60059936D01*
X117713391Y-60059936D01*
X117616738Y-59915285D01*
X117249715Y-59548262D01*
X116818141Y-59259893D01*
X116338601Y-59061261D01*
X115829525Y-58960000D01*
X115310475Y-58960000D01*
X114801399Y-59061261D01*
X114321859Y-59259893D01*
X113890285Y-59548262D01*
X113523262Y-59915285D01*
X113234893Y-60346859D01*
X113036261Y-60826399D01*
X112935000Y-61335475D01*
X111952471Y-61335475D01*
X111917932Y-61161842D01*
X111805990Y-60891589D01*
X111739650Y-60792304D01*
X111818639Y-60797409D01*
X112157439Y-60752489D01*
X112480966Y-60642336D01*
X112679274Y-60536338D01*
X112787107Y-60261712D01*
X111760000Y-59234605D01*
X111745858Y-59248748D01*
X111566253Y-59069143D01*
X111580395Y-59055000D01*
X111939605Y-59055000D01*
X112966712Y-60082107D01*
X113241338Y-59974274D01*
X113392216Y-59667616D01*
X113480369Y-59337415D01*
X113502409Y-58996361D01*
X113457489Y-58657561D01*
X113347336Y-58334034D01*
X113241338Y-58135726D01*
X112966712Y-58027893D01*
X111939605Y-59055000D01*
X111580395Y-59055000D01*
X110553288Y-58027893D01*
X110278662Y-58135726D01*
X110127784Y-58442384D01*
X110039631Y-58772585D01*
X110017591Y-59113639D01*
X110062511Y-59452439D01*
X110172664Y-59775966D01*
X110278662Y-59974274D01*
X110553286Y-60082106D01*
X110525392Y-60110000D01*
X110343740Y-60110000D01*
X110056842Y-60167068D01*
X109786589Y-60279010D01*
X109543368Y-60441525D01*
X109336525Y-60648368D01*
X109174010Y-60891589D01*
X109062068Y-61161842D01*
X109005000Y-61448740D01*
X104800000Y-61448740D01*
X104800000Y-57848288D01*
X110732893Y-57848288D01*
X111760000Y-58875395D01*
X112787107Y-57848288D01*
X112679274Y-57573662D01*
X112372616Y-57422784D01*
X112042415Y-57334631D01*
X111701361Y-57312591D01*
X111362561Y-57357511D01*
X111039034Y-57467664D01*
X110840726Y-57573662D01*
X110732893Y-57848288D01*
X104800000Y-57848288D01*
X104800000Y-56392807D01*
X108892920Y-56392807D01*
X108892920Y-56631353D01*
X108939458Y-56865316D01*
X109030745Y-57085704D01*
X109163274Y-57284048D01*
X109331952Y-57452726D01*
X109530296Y-57585255D01*
X109750684Y-57676542D01*
X109984647Y-57723080D01*
X110223193Y-57723080D01*
X110457156Y-57676542D01*
X110677544Y-57585255D01*
X110875888Y-57452726D01*
X111044566Y-57284048D01*
X111177095Y-57085704D01*
X111268382Y-56865316D01*
X111314920Y-56631353D01*
X111314920Y-56392807D01*
X111305235Y-56344117D01*
X116375000Y-56344117D01*
X116375000Y-56685883D01*
X116441675Y-57021081D01*
X116572463Y-57336831D01*
X116762337Y-57620998D01*
X117004002Y-57862663D01*
X117288169Y-58052537D01*
X117603919Y-58183325D01*
X117939117Y-58250000D01*
X118280883Y-58250000D01*
X118616081Y-58183325D01*
X118852649Y-58085335D01*
X122215842Y-58085335D01*
X122273539Y-58640793D01*
X122438492Y-59174322D01*
X122687502Y-59640185D01*
X123074745Y-59880331D01*
X124884915Y-58070161D01*
X125244125Y-58070161D01*
X127054295Y-59880331D01*
X127441538Y-59640185D01*
X127702161Y-59146284D01*
X127861421Y-58611028D01*
X127913198Y-58054987D01*
X127891728Y-57848288D01*
X129782893Y-57848288D01*
X130810000Y-58875395D01*
X131837107Y-57848288D01*
X131729274Y-57573662D01*
X131422616Y-57422784D01*
X131092415Y-57334631D01*
X130751361Y-57312591D01*
X130412561Y-57357511D01*
X130089034Y-57467664D01*
X129890726Y-57573662D01*
X129782893Y-57848288D01*
X127891728Y-57848288D01*
X127855501Y-57499529D01*
X127690548Y-56966000D01*
X127441538Y-56500137D01*
X127189951Y-56344117D01*
X135425000Y-56344117D01*
X135425000Y-56685883D01*
X135491675Y-57021081D01*
X135622463Y-57336831D01*
X135812337Y-57620998D01*
X136054002Y-57862663D01*
X136338169Y-58052537D01*
X136653919Y-58183325D01*
X136989117Y-58250000D01*
X137330883Y-58250000D01*
X137666081Y-58183325D01*
X137981831Y-58052537D01*
X138265998Y-57862663D01*
X138280373Y-57848288D01*
X148832893Y-57848288D01*
X149860000Y-58875395D01*
X150887107Y-57848288D01*
X150779274Y-57573662D01*
X150472616Y-57422784D01*
X150142415Y-57334631D01*
X149801361Y-57312591D01*
X149462561Y-57357511D01*
X149139034Y-57467664D01*
X148940726Y-57573662D01*
X148832893Y-57848288D01*
X138280373Y-57848288D01*
X138507663Y-57620998D01*
X138697537Y-57336831D01*
X138828325Y-57021081D01*
X138895000Y-56685883D01*
X138895000Y-56344117D01*
X154475000Y-56344117D01*
X154475000Y-56685883D01*
X154541675Y-57021081D01*
X154672463Y-57336831D01*
X154862337Y-57620998D01*
X155104002Y-57862663D01*
X155388169Y-58052537D01*
X155703919Y-58183325D01*
X156039117Y-58250000D01*
X156380883Y-58250000D01*
X156716081Y-58183325D01*
X156952649Y-58085335D01*
X171209902Y-58085335D01*
X171267599Y-58640793D01*
X171432552Y-59174322D01*
X171681562Y-59640185D01*
X172068805Y-59880331D01*
X173878975Y-58070161D01*
X174238185Y-58070161D01*
X176048355Y-59880331D01*
X176435598Y-59640185D01*
X176696221Y-59146284D01*
X176855481Y-58611028D01*
X176907258Y-58054987D01*
X176849561Y-57499529D01*
X176684608Y-56966000D01*
X176435598Y-56500137D01*
X176048355Y-56259991D01*
X174238185Y-58070161D01*
X173878975Y-58070161D01*
X172068805Y-56259991D01*
X171681562Y-56500137D01*
X171420939Y-56994038D01*
X171261679Y-57529294D01*
X171209902Y-58085335D01*
X156952649Y-58085335D01*
X157031831Y-58052537D01*
X157315998Y-57862663D01*
X157557663Y-57620998D01*
X157747537Y-57336831D01*
X157878325Y-57021081D01*
X157945000Y-56685883D01*
X157945000Y-56344117D01*
X157892541Y-56080386D01*
X172248410Y-56080386D01*
X174058580Y-57890556D01*
X175868750Y-56080386D01*
X175628604Y-55693143D01*
X175134703Y-55432520D01*
X174599447Y-55273260D01*
X174043406Y-55221483D01*
X173487948Y-55279180D01*
X172954419Y-55444133D01*
X172488556Y-55693143D01*
X172248410Y-56080386D01*
X157892541Y-56080386D01*
X157878325Y-56008919D01*
X157747537Y-55693169D01*
X157557663Y-55409002D01*
X157315998Y-55167337D01*
X157031831Y-54977463D01*
X156716081Y-54846675D01*
X156380883Y-54780000D01*
X156039117Y-54780000D01*
X155703919Y-54846675D01*
X155388169Y-54977463D01*
X155104002Y-55167337D01*
X154862337Y-55409002D01*
X154672463Y-55693169D01*
X154541675Y-56008919D01*
X154475000Y-56344117D01*
X138895000Y-56344117D01*
X138828325Y-56008919D01*
X138697537Y-55693169D01*
X138507663Y-55409002D01*
X138265998Y-55167337D01*
X137981831Y-54977463D01*
X137666081Y-54846675D01*
X137330883Y-54780000D01*
X136989117Y-54780000D01*
X136653919Y-54846675D01*
X136338169Y-54977463D01*
X136054002Y-55167337D01*
X135812337Y-55409002D01*
X135622463Y-55693169D01*
X135491675Y-56008919D01*
X135425000Y-56344117D01*
X127189951Y-56344117D01*
X127054295Y-56259991D01*
X125244125Y-58070161D01*
X124884915Y-58070161D01*
X123074745Y-56259991D01*
X122687502Y-56500137D01*
X122426879Y-56994038D01*
X122267619Y-57529294D01*
X122215842Y-58085335D01*
X118852649Y-58085335D01*
X118931831Y-58052537D01*
X119215998Y-57862663D01*
X119457663Y-57620998D01*
X119647537Y-57336831D01*
X119778325Y-57021081D01*
X119845000Y-56685883D01*
X119845000Y-56344117D01*
X119792541Y-56080386D01*
X123254350Y-56080386D01*
X125064520Y-57890556D01*
X126874690Y-56080386D01*
X126634544Y-55693143D01*
X126140643Y-55432520D01*
X125605387Y-55273260D01*
X125049346Y-55221483D01*
X124493888Y-55279180D01*
X123960359Y-55444133D01*
X123494496Y-55693143D01*
X123254350Y-56080386D01*
X119792541Y-56080386D01*
X119778325Y-56008919D01*
X119647537Y-55693169D01*
X119457663Y-55409002D01*
X119215998Y-55167337D01*
X118931831Y-54977463D01*
X118616081Y-54846675D01*
X118280883Y-54780000D01*
X117939117Y-54780000D01*
X117603919Y-54846675D01*
X117288169Y-54977463D01*
X117004002Y-55167337D01*
X116762337Y-55409002D01*
X116572463Y-55693169D01*
X116441675Y-56008919D01*
X116375000Y-56344117D01*
X111305235Y-56344117D01*
X111268382Y-56158844D01*
X111177095Y-55938456D01*
X111044566Y-55740112D01*
X110875888Y-55571434D01*
X110677544Y-55438905D01*
X110457156Y-55347618D01*
X110223193Y-55301080D01*
X109984647Y-55301080D01*
X109750684Y-55347618D01*
X109530296Y-55438905D01*
X109331952Y-55571434D01*
X109163274Y-55740112D01*
X109030745Y-55938456D01*
X108939458Y-56158844D01*
X108892920Y-56392807D01*
X104800000Y-56392807D01*
X104800000Y-52180727D01*
X188689000Y-52180727D01*
X188689000Y-52419273D01*
X188735538Y-52653236D01*
X188826825Y-52873624D01*
X188959354Y-53071968D01*
X189128032Y-53240646D01*
X189326376Y-53373175D01*
X189546764Y-53464462D01*
X189780727Y-53511000D01*
X190019273Y-53511000D01*
X190253236Y-53464462D01*
X190473624Y-53373175D01*
X190671968Y-53240646D01*
X190840646Y-53071968D01*
X190973175Y-52873624D01*
X191064462Y-52653236D01*
X191111000Y-52419273D01*
X191111000Y-52180727D01*
X191064462Y-51946764D01*
X190973175Y-51726376D01*
X190840646Y-51528032D01*
X190671968Y-51359354D01*
X190473624Y-51226825D01*
X190253236Y-51135538D01*
X190019273Y-51089000D01*
X189780727Y-51089000D01*
X189546764Y-51135538D01*
X189326376Y-51226825D01*
X189128032Y-51359354D01*
X188959354Y-51528032D01*
X188826825Y-51726376D01*
X188735538Y-51946764D01*
X188689000Y-52180727D01*
X104800000Y-52180727D01*
X104800000Y-52102279D01*
X104838909Y-51705455D01*
X104944780Y-51354792D01*
X105116744Y-51031375D01*
X105348254Y-50747516D01*
X105630486Y-50514035D01*
X105952695Y-50339817D01*
X106302614Y-50231498D01*
X106697443Y-50190000D01*
X190467721Y-50190000D01*
X190864545Y-50228909D01*
G37*
%TD.AperFunction*%
D17*
X186763660Y-62804040D02*
X186783660Y-62804040D01*
X186783660Y-63058040D01*
X186763660Y-63058040D01*
X186763660Y-63078040D01*
X186509660Y-63078040D01*
X186509660Y-63058040D01*
X186489660Y-63058040D01*
X186489660Y-62804040D01*
X186509660Y-62804040D01*
X186509660Y-62784040D01*
X186763660Y-62784040D01*
X186763660Y-62804040D01*
%TA.AperFunction,Conductor*%
D18*
G36*
X186763660Y-62804040D02*
G01*
X186783660Y-62804040D01*
X186783660Y-63058040D01*
X186763660Y-63058040D01*
X186763660Y-63078040D01*
X186509660Y-63078040D01*
X186509660Y-63058040D01*
X186489660Y-63058040D01*
X186489660Y-62804040D01*
X186509660Y-62804040D01*
X186509660Y-62784040D01*
X186763660Y-62784040D01*
X186763660Y-62804040D01*
G37*
%TD.AperFunction*%
%TD*%
M02*
