%TF.GenerationSoftware,KiCad,Pcbnew,5.1.7-a382d34a8~88~ubuntu20.04.1*%
%TF.CreationDate,2021-03-21T15:49:45+01:00*%
%TF.ProjectId,marco-keyboard,6d617263-6f2d-46b6-9579-626f6172642e,rev?*%
%TF.SameCoordinates,Original*%
%TF.FileFunction,Soldermask,Top*%
%TF.FilePolarity,Negative*%
%FSLAX46Y46*%
G04 Gerber Fmt 4.6, Leading zero omitted, Abs format (unit mm)*
G04 Created by KiCad (PCBNEW 5.1.7-a382d34a8~88~ubuntu20.04.1) date 2021-03-21 15:49:45*
%MOMM*%
%LPD*%
G01*
G04 APERTURE LIST*
%ADD10C,1.152000*%
%ADD11C,4.400000*%
%ADD12C,1.700000*%
%ADD13C,4.000000*%
%ADD14C,2.200000*%
%ADD15R,1.450000X0.600000*%
%ADD16R,1.450000X0.300000*%
%ADD17O,2.100000X1.050000*%
%ADD18C,0.700000*%
%ADD19O,0.850000X0.850000*%
%ADD20R,0.850000X0.850000*%
%ADD21R,5.200000X5.200000*%
%ADD22C,0.100000*%
G04 APERTURE END LIST*
D10*
%TO.C,REF\u002A\u002A*%
X189900000Y-52300000D03*
%TD*%
%TO.C,REF\u002A\u002A*%
X110103920Y-85682200D03*
%TD*%
%TO.C,REF\u002A\u002A*%
X110103920Y-56512080D03*
%TD*%
D11*
%TO.C,H3*%
X174058580Y-58070161D03*
%TD*%
%TO.C,H2*%
X125064520Y-58070161D03*
%TD*%
%TO.C,H1*%
X125064520Y-84825840D03*
%TD*%
D12*
%TO.C,SW6*%
X177800000Y-71120000D03*
X167640000Y-71120000D03*
D13*
X172720000Y-71120000D03*
D14*
X168910000Y-68580000D03*
X175260000Y-66040000D03*
%TD*%
D15*
%TO.C,J1*%
X185405000Y-74370000D03*
X185405000Y-73570000D03*
D16*
X185405000Y-71370000D03*
X185405000Y-71870000D03*
X185405000Y-72370000D03*
X185405000Y-72870000D03*
X185405000Y-70870000D03*
X185405000Y-70370000D03*
X185405000Y-69870000D03*
X185405000Y-69370000D03*
D15*
X185405000Y-68670000D03*
X185405000Y-67870000D03*
D17*
X186320000Y-75440000D03*
X186320000Y-66800000D03*
X190500000Y-75440000D03*
X190500000Y-66800000D03*
D18*
X186850000Y-74010000D03*
X186850000Y-68230000D03*
%TD*%
%TO.C,D2*%
G36*
G01*
X186192880Y-53642530D02*
X186192880Y-54155030D01*
G75*
G02*
X185974130Y-54373780I-218750J0D01*
G01*
X185536630Y-54373780D01*
G75*
G02*
X185317880Y-54155030I0J218750D01*
G01*
X185317880Y-53642530D01*
G75*
G02*
X185536630Y-53423780I218750J0D01*
G01*
X185974130Y-53423780D01*
G75*
G02*
X186192880Y-53642530I0J-218750D01*
G01*
G37*
G36*
G01*
X184617880Y-53642530D02*
X184617880Y-54155030D01*
G75*
G02*
X184399130Y-54373780I-218750J0D01*
G01*
X183961630Y-54373780D01*
G75*
G02*
X183742880Y-54155030I0J218750D01*
G01*
X183742880Y-53642530D01*
G75*
G02*
X183961630Y-53423780I218750J0D01*
G01*
X184399130Y-53423780D01*
G75*
G02*
X184617880Y-53642530I0J-218750D01*
G01*
G37*
%TD*%
%TO.C,C1*%
G36*
G01*
X185434520Y-84602640D02*
X185434520Y-84102640D01*
G75*
G02*
X185659520Y-83877640I225000J0D01*
G01*
X186109520Y-83877640D01*
G75*
G02*
X186334520Y-84102640I0J-225000D01*
G01*
X186334520Y-84602640D01*
G75*
G02*
X186109520Y-84827640I-225000J0D01*
G01*
X185659520Y-84827640D01*
G75*
G02*
X185434520Y-84602640I0J225000D01*
G01*
G37*
G36*
G01*
X186984520Y-84602640D02*
X186984520Y-84102640D01*
G75*
G02*
X187209520Y-83877640I225000J0D01*
G01*
X187659520Y-83877640D01*
G75*
G02*
X187884520Y-84102640I0J-225000D01*
G01*
X187884520Y-84602640D01*
G75*
G02*
X187659520Y-84827640I-225000J0D01*
G01*
X187209520Y-84827640D01*
G75*
G02*
X186984520Y-84602640I0J225000D01*
G01*
G37*
%TD*%
%TO.C,C2*%
G36*
G01*
X177844260Y-80421900D02*
X177344260Y-80421900D01*
G75*
G02*
X177119260Y-80196900I0J225000D01*
G01*
X177119260Y-79746900D01*
G75*
G02*
X177344260Y-79521900I225000J0D01*
G01*
X177844260Y-79521900D01*
G75*
G02*
X178069260Y-79746900I0J-225000D01*
G01*
X178069260Y-80196900D01*
G75*
G02*
X177844260Y-80421900I-225000J0D01*
G01*
G37*
G36*
G01*
X177844260Y-78871900D02*
X177344260Y-78871900D01*
G75*
G02*
X177119260Y-78646900I0J225000D01*
G01*
X177119260Y-78196900D01*
G75*
G02*
X177344260Y-77971900I225000J0D01*
G01*
X177844260Y-77971900D01*
G75*
G02*
X178069260Y-78196900I0J-225000D01*
G01*
X178069260Y-78646900D01*
G75*
G02*
X177844260Y-78871900I-225000J0D01*
G01*
G37*
%TD*%
%TO.C,C3*%
G36*
G01*
X172926220Y-83219480D02*
X172926220Y-83719480D01*
G75*
G02*
X172701220Y-83944480I-225000J0D01*
G01*
X172251220Y-83944480D01*
G75*
G02*
X172026220Y-83719480I0J225000D01*
G01*
X172026220Y-83219480D01*
G75*
G02*
X172251220Y-82994480I225000J0D01*
G01*
X172701220Y-82994480D01*
G75*
G02*
X172926220Y-83219480I0J-225000D01*
G01*
G37*
G36*
G01*
X174476220Y-83219480D02*
X174476220Y-83719480D01*
G75*
G02*
X174251220Y-83944480I-225000J0D01*
G01*
X173801220Y-83944480D01*
G75*
G02*
X173576220Y-83719480I0J225000D01*
G01*
X173576220Y-83219480D01*
G75*
G02*
X173801220Y-82994480I225000J0D01*
G01*
X174251220Y-82994480D01*
G75*
G02*
X174476220Y-83219480I0J-225000D01*
G01*
G37*
%TD*%
%TO.C,C4*%
G36*
G01*
X186984520Y-87665880D02*
X186984520Y-87165880D01*
G75*
G02*
X187209520Y-86940880I225000J0D01*
G01*
X187659520Y-86940880D01*
G75*
G02*
X187884520Y-87165880I0J-225000D01*
G01*
X187884520Y-87665880D01*
G75*
G02*
X187659520Y-87890880I-225000J0D01*
G01*
X187209520Y-87890880D01*
G75*
G02*
X186984520Y-87665880I0J225000D01*
G01*
G37*
G36*
G01*
X185434520Y-87665880D02*
X185434520Y-87165880D01*
G75*
G02*
X185659520Y-86940880I225000J0D01*
G01*
X186109520Y-86940880D01*
G75*
G02*
X186334520Y-87165880I0J-225000D01*
G01*
X186334520Y-87665880D01*
G75*
G02*
X186109520Y-87890880I-225000J0D01*
G01*
X185659520Y-87890880D01*
G75*
G02*
X185434520Y-87665880I0J225000D01*
G01*
G37*
%TD*%
%TO.C,C5*%
G36*
G01*
X172938260Y-88759220D02*
X172938260Y-89259220D01*
G75*
G02*
X172713260Y-89484220I-225000J0D01*
G01*
X172263260Y-89484220D01*
G75*
G02*
X172038260Y-89259220I0J225000D01*
G01*
X172038260Y-88759220D01*
G75*
G02*
X172263260Y-88534220I225000J0D01*
G01*
X172713260Y-88534220D01*
G75*
G02*
X172938260Y-88759220I0J-225000D01*
G01*
G37*
G36*
G01*
X174488260Y-88759220D02*
X174488260Y-89259220D01*
G75*
G02*
X174263260Y-89484220I-225000J0D01*
G01*
X173813260Y-89484220D01*
G75*
G02*
X173588260Y-89259220I0J225000D01*
G01*
X173588260Y-88759220D01*
G75*
G02*
X173813260Y-88534220I225000J0D01*
G01*
X174263260Y-88534220D01*
G75*
G02*
X174488260Y-88759220I0J-225000D01*
G01*
G37*
%TD*%
%TO.C,C6*%
G36*
G01*
X185434520Y-83025300D02*
X185434520Y-82525300D01*
G75*
G02*
X185659520Y-82300300I225000J0D01*
G01*
X186109520Y-82300300D01*
G75*
G02*
X186334520Y-82525300I0J-225000D01*
G01*
X186334520Y-83025300D01*
G75*
G02*
X186109520Y-83250300I-225000J0D01*
G01*
X185659520Y-83250300D01*
G75*
G02*
X185434520Y-83025300I0J225000D01*
G01*
G37*
G36*
G01*
X186984520Y-83025300D02*
X186984520Y-82525300D01*
G75*
G02*
X187209520Y-82300300I225000J0D01*
G01*
X187659520Y-82300300D01*
G75*
G02*
X187884520Y-82525300I0J-225000D01*
G01*
X187884520Y-83025300D01*
G75*
G02*
X187659520Y-83250300I-225000J0D01*
G01*
X187209520Y-83250300D01*
G75*
G02*
X186984520Y-83025300I0J225000D01*
G01*
G37*
%TD*%
%TO.C,C7*%
G36*
G01*
X183696420Y-80404120D02*
X183196420Y-80404120D01*
G75*
G02*
X182971420Y-80179120I0J225000D01*
G01*
X182971420Y-79729120D01*
G75*
G02*
X183196420Y-79504120I225000J0D01*
G01*
X183696420Y-79504120D01*
G75*
G02*
X183921420Y-79729120I0J-225000D01*
G01*
X183921420Y-80179120D01*
G75*
G02*
X183696420Y-80404120I-225000J0D01*
G01*
G37*
G36*
G01*
X183696420Y-78854120D02*
X183196420Y-78854120D01*
G75*
G02*
X182971420Y-78629120I0J225000D01*
G01*
X182971420Y-78179120D01*
G75*
G02*
X183196420Y-77954120I225000J0D01*
G01*
X183696420Y-77954120D01*
G75*
G02*
X183921420Y-78179120I0J-225000D01*
G01*
X183921420Y-78629120D01*
G75*
G02*
X183696420Y-78854120I-225000J0D01*
G01*
G37*
%TD*%
%TO.C,C8*%
G36*
G01*
X165235577Y-86602751D02*
X165589131Y-86249197D01*
G75*
G02*
X165907329Y-86249197I159099J-159099D01*
G01*
X166225527Y-86567395D01*
G75*
G02*
X166225527Y-86885593I-159099J-159099D01*
G01*
X165871973Y-87239147D01*
G75*
G02*
X165553775Y-87239147I-159099J159099D01*
G01*
X165235577Y-86920949D01*
G75*
G02*
X165235577Y-86602751I159099J159099D01*
G01*
G37*
G36*
G01*
X166331593Y-87698767D02*
X166685147Y-87345213D01*
G75*
G02*
X167003345Y-87345213I159099J-159099D01*
G01*
X167321543Y-87663411D01*
G75*
G02*
X167321543Y-87981609I-159099J-159099D01*
G01*
X166967989Y-88335163D01*
G75*
G02*
X166649791Y-88335163I-159099J159099D01*
G01*
X166331593Y-88016965D01*
G75*
G02*
X166331593Y-87698767I159099J159099D01*
G01*
G37*
%TD*%
%TO.C,C9*%
G36*
G01*
X166916919Y-83291355D02*
X166563365Y-82937801D01*
G75*
G02*
X166563365Y-82619603I159099J159099D01*
G01*
X166881563Y-82301405D01*
G75*
G02*
X167199761Y-82301405I159099J-159099D01*
G01*
X167553315Y-82654959D01*
G75*
G02*
X167553315Y-82973157I-159099J-159099D01*
G01*
X167235117Y-83291355D01*
G75*
G02*
X166916919Y-83291355I-159099J159099D01*
G01*
G37*
G36*
G01*
X165820903Y-84387371D02*
X165467349Y-84033817D01*
G75*
G02*
X165467349Y-83715619I159099J159099D01*
G01*
X165785547Y-83397421D01*
G75*
G02*
X166103745Y-83397421I159099J-159099D01*
G01*
X166457299Y-83750975D01*
G75*
G02*
X166457299Y-84069173I-159099J-159099D01*
G01*
X166139101Y-84387371D01*
G75*
G02*
X165820903Y-84387371I-159099J159099D01*
G01*
G37*
%TD*%
%TO.C,F1*%
G36*
G01*
X185518770Y-80404120D02*
X185006270Y-80404120D01*
G75*
G02*
X184787520Y-80185370I0J218750D01*
G01*
X184787520Y-79747870D01*
G75*
G02*
X185006270Y-79529120I218750J0D01*
G01*
X185518770Y-79529120D01*
G75*
G02*
X185737520Y-79747870I0J-218750D01*
G01*
X185737520Y-80185370D01*
G75*
G02*
X185518770Y-80404120I-218750J0D01*
G01*
G37*
G36*
G01*
X185518770Y-78829120D02*
X185006270Y-78829120D01*
G75*
G02*
X184787520Y-78610370I0J218750D01*
G01*
X184787520Y-78172870D01*
G75*
G02*
X185006270Y-77954120I218750J0D01*
G01*
X185518770Y-77954120D01*
G75*
G02*
X185737520Y-78172870I0J-218750D01*
G01*
X185737520Y-78610370D01*
G75*
G02*
X185518770Y-78829120I-218750J0D01*
G01*
G37*
%TD*%
D19*
%TO.C,J2*%
X185467880Y-63109480D03*
X184467880Y-63109480D03*
X185467880Y-62109480D03*
X184467880Y-62109480D03*
X185467880Y-61109480D03*
D20*
X184467880Y-61109480D03*
%TD*%
%TO.C,R1*%
G36*
G01*
X186192880Y-57169640D02*
X186192880Y-57719640D01*
G75*
G02*
X185992880Y-57919640I-200000J0D01*
G01*
X185592880Y-57919640D01*
G75*
G02*
X185392880Y-57719640I0J200000D01*
G01*
X185392880Y-57169640D01*
G75*
G02*
X185592880Y-56969640I200000J0D01*
G01*
X185992880Y-56969640D01*
G75*
G02*
X186192880Y-57169640I0J-200000D01*
G01*
G37*
G36*
G01*
X184542880Y-57169640D02*
X184542880Y-57719640D01*
G75*
G02*
X184342880Y-57919640I-200000J0D01*
G01*
X183942880Y-57919640D01*
G75*
G02*
X183742880Y-57719640I0J200000D01*
G01*
X183742880Y-57169640D01*
G75*
G02*
X183942880Y-56969640I200000J0D01*
G01*
X184342880Y-56969640D01*
G75*
G02*
X184542880Y-57169640I0J-200000D01*
G01*
G37*
%TD*%
%TO.C,R2*%
G36*
G01*
X179977140Y-80412040D02*
X179427140Y-80412040D01*
G75*
G02*
X179227140Y-80212040I0J200000D01*
G01*
X179227140Y-79812040D01*
G75*
G02*
X179427140Y-79612040I200000J0D01*
G01*
X179977140Y-79612040D01*
G75*
G02*
X180177140Y-79812040I0J-200000D01*
G01*
X180177140Y-80212040D01*
G75*
G02*
X179977140Y-80412040I-200000J0D01*
G01*
G37*
G36*
G01*
X179977140Y-78762040D02*
X179427140Y-78762040D01*
G75*
G02*
X179227140Y-78562040I0J200000D01*
G01*
X179227140Y-78162040D01*
G75*
G02*
X179427140Y-77962040I200000J0D01*
G01*
X179977140Y-77962040D01*
G75*
G02*
X180177140Y-78162040I0J-200000D01*
G01*
X180177140Y-78562040D01*
G75*
G02*
X179977140Y-78762040I-200000J0D01*
G01*
G37*
%TD*%
%TO.C,R3*%
G36*
G01*
X181660313Y-78762040D02*
X181110313Y-78762040D01*
G75*
G02*
X180910313Y-78562040I0J200000D01*
G01*
X180910313Y-78162040D01*
G75*
G02*
X181110313Y-77962040I200000J0D01*
G01*
X181660313Y-77962040D01*
G75*
G02*
X181860313Y-78162040I0J-200000D01*
G01*
X181860313Y-78562040D01*
G75*
G02*
X181660313Y-78762040I-200000J0D01*
G01*
G37*
G36*
G01*
X181660313Y-80412040D02*
X181110313Y-80412040D01*
G75*
G02*
X180910313Y-80212040I0J200000D01*
G01*
X180910313Y-79812040D01*
G75*
G02*
X181110313Y-79612040I200000J0D01*
G01*
X181660313Y-79612040D01*
G75*
G02*
X181860313Y-79812040I0J-200000D01*
G01*
X181860313Y-80212040D01*
G75*
G02*
X181660313Y-80412040I-200000J0D01*
G01*
G37*
%TD*%
%TO.C,R4*%
G36*
G01*
X185434520Y-89258060D02*
X185434520Y-88708060D01*
G75*
G02*
X185634520Y-88508060I200000J0D01*
G01*
X186034520Y-88508060D01*
G75*
G02*
X186234520Y-88708060I0J-200000D01*
G01*
X186234520Y-89258060D01*
G75*
G02*
X186034520Y-89458060I-200000J0D01*
G01*
X185634520Y-89458060D01*
G75*
G02*
X185434520Y-89258060I0J200000D01*
G01*
G37*
G36*
G01*
X187084520Y-89258060D02*
X187084520Y-88708060D01*
G75*
G02*
X187284520Y-88508060I200000J0D01*
G01*
X187684520Y-88508060D01*
G75*
G02*
X187884520Y-88708060I0J-200000D01*
G01*
X187884520Y-89258060D01*
G75*
G02*
X187684520Y-89458060I-200000J0D01*
G01*
X187284520Y-89458060D01*
G75*
G02*
X187084520Y-89258060I0J200000D01*
G01*
G37*
%TD*%
%TO.C,R5*%
G36*
G01*
X186192880Y-55416710D02*
X186192880Y-55966710D01*
G75*
G02*
X185992880Y-56166710I-200000J0D01*
G01*
X185592880Y-56166710D01*
G75*
G02*
X185392880Y-55966710I0J200000D01*
G01*
X185392880Y-55416710D01*
G75*
G02*
X185592880Y-55216710I200000J0D01*
G01*
X185992880Y-55216710D01*
G75*
G02*
X186192880Y-55416710I0J-200000D01*
G01*
G37*
G36*
G01*
X184542880Y-55416710D02*
X184542880Y-55966710D01*
G75*
G02*
X184342880Y-56166710I-200000J0D01*
G01*
X183942880Y-56166710D01*
G75*
G02*
X183742880Y-55966710I0J200000D01*
G01*
X183742880Y-55416710D01*
G75*
G02*
X183942880Y-55216710I200000J0D01*
G01*
X184342880Y-55216710D01*
G75*
G02*
X184542880Y-55416710I0J-200000D01*
G01*
G37*
%TD*%
%TO.C,R6*%
G36*
G01*
X182866620Y-75182280D02*
X183416620Y-75182280D01*
G75*
G02*
X183616620Y-75382280I0J-200000D01*
G01*
X183616620Y-75782280D01*
G75*
G02*
X183416620Y-75982280I-200000J0D01*
G01*
X182866620Y-75982280D01*
G75*
G02*
X182666620Y-75782280I0J200000D01*
G01*
X182666620Y-75382280D01*
G75*
G02*
X182866620Y-75182280I200000J0D01*
G01*
G37*
G36*
G01*
X182866620Y-73532280D02*
X183416620Y-73532280D01*
G75*
G02*
X183616620Y-73732280I0J-200000D01*
G01*
X183616620Y-74132280D01*
G75*
G02*
X183416620Y-74332280I-200000J0D01*
G01*
X182866620Y-74332280D01*
G75*
G02*
X182666620Y-74132280I0J200000D01*
G01*
X182666620Y-73732280D01*
G75*
G02*
X182866620Y-73532280I200000J0D01*
G01*
G37*
%TD*%
%TO.C,R7*%
G36*
G01*
X182866620Y-66298360D02*
X183416620Y-66298360D01*
G75*
G02*
X183616620Y-66498360I0J-200000D01*
G01*
X183616620Y-66898360D01*
G75*
G02*
X183416620Y-67098360I-200000J0D01*
G01*
X182866620Y-67098360D01*
G75*
G02*
X182666620Y-66898360I0J200000D01*
G01*
X182666620Y-66498360D01*
G75*
G02*
X182866620Y-66298360I200000J0D01*
G01*
G37*
G36*
G01*
X182866620Y-67948360D02*
X183416620Y-67948360D01*
G75*
G02*
X183616620Y-68148360I0J-200000D01*
G01*
X183616620Y-68548360D01*
G75*
G02*
X183416620Y-68748360I-200000J0D01*
G01*
X182866620Y-68748360D01*
G75*
G02*
X182666620Y-68548360I0J200000D01*
G01*
X182666620Y-68148360D01*
G75*
G02*
X182866620Y-67948360I200000J0D01*
G01*
G37*
%TD*%
D14*
%TO.C,SW0*%
X118110000Y-56515000D03*
X111760000Y-59055000D03*
D13*
X115570000Y-61595000D03*
D12*
X110490000Y-61595000D03*
X120650000Y-61595000D03*
%TD*%
%TO.C,SW1*%
X120650000Y-80645000D03*
X110490000Y-80645000D03*
D13*
X115570000Y-80645000D03*
D14*
X111760000Y-78105000D03*
X118110000Y-75565000D03*
%TD*%
D12*
%TO.C,SW2*%
X139700000Y-61595000D03*
X129540000Y-61595000D03*
D13*
X134620000Y-61595000D03*
D14*
X130810000Y-59055000D03*
X137160000Y-56515000D03*
%TD*%
%TO.C,SW3*%
X137160000Y-75565000D03*
X130810000Y-78105000D03*
D13*
X134620000Y-80645000D03*
D12*
X129540000Y-80645000D03*
X139700000Y-80645000D03*
%TD*%
D14*
%TO.C,SW4*%
X156210000Y-56515000D03*
X149860000Y-59055000D03*
D13*
X153670000Y-61595000D03*
D12*
X148590000Y-61595000D03*
X158750000Y-61595000D03*
%TD*%
%TO.C,SW5*%
X158750000Y-80645000D03*
X148590000Y-80645000D03*
D13*
X153670000Y-80645000D03*
D14*
X149860000Y-78105000D03*
X156210000Y-75565000D03*
%TD*%
%TO.C,U1*%
G36*
G01*
X181725940Y-81702680D02*
X181850940Y-81702680D01*
G75*
G02*
X181913440Y-81765180I0J-62500D01*
G01*
X181913440Y-82715180D01*
G75*
G02*
X181850940Y-82777680I-62500J0D01*
G01*
X181725940Y-82777680D01*
G75*
G02*
X181663440Y-82715180I0J62500D01*
G01*
X181663440Y-81765180D01*
G75*
G02*
X181725940Y-81702680I62500J0D01*
G01*
G37*
G36*
G01*
X181225940Y-81702680D02*
X181350940Y-81702680D01*
G75*
G02*
X181413440Y-81765180I0J-62500D01*
G01*
X181413440Y-82715180D01*
G75*
G02*
X181350940Y-82777680I-62500J0D01*
G01*
X181225940Y-82777680D01*
G75*
G02*
X181163440Y-82715180I0J62500D01*
G01*
X181163440Y-81765180D01*
G75*
G02*
X181225940Y-81702680I62500J0D01*
G01*
G37*
G36*
G01*
X180725940Y-81702680D02*
X180850940Y-81702680D01*
G75*
G02*
X180913440Y-81765180I0J-62500D01*
G01*
X180913440Y-82715180D01*
G75*
G02*
X180850940Y-82777680I-62500J0D01*
G01*
X180725940Y-82777680D01*
G75*
G02*
X180663440Y-82715180I0J62500D01*
G01*
X180663440Y-81765180D01*
G75*
G02*
X180725940Y-81702680I62500J0D01*
G01*
G37*
G36*
G01*
X180225940Y-81702680D02*
X180350940Y-81702680D01*
G75*
G02*
X180413440Y-81765180I0J-62500D01*
G01*
X180413440Y-82715180D01*
G75*
G02*
X180350940Y-82777680I-62500J0D01*
G01*
X180225940Y-82777680D01*
G75*
G02*
X180163440Y-82715180I0J62500D01*
G01*
X180163440Y-81765180D01*
G75*
G02*
X180225940Y-81702680I62500J0D01*
G01*
G37*
G36*
G01*
X179725940Y-81702680D02*
X179850940Y-81702680D01*
G75*
G02*
X179913440Y-81765180I0J-62500D01*
G01*
X179913440Y-82715180D01*
G75*
G02*
X179850940Y-82777680I-62500J0D01*
G01*
X179725940Y-82777680D01*
G75*
G02*
X179663440Y-82715180I0J62500D01*
G01*
X179663440Y-81765180D01*
G75*
G02*
X179725940Y-81702680I62500J0D01*
G01*
G37*
G36*
G01*
X179225940Y-81702680D02*
X179350940Y-81702680D01*
G75*
G02*
X179413440Y-81765180I0J-62500D01*
G01*
X179413440Y-82715180D01*
G75*
G02*
X179350940Y-82777680I-62500J0D01*
G01*
X179225940Y-82777680D01*
G75*
G02*
X179163440Y-82715180I0J62500D01*
G01*
X179163440Y-81765180D01*
G75*
G02*
X179225940Y-81702680I62500J0D01*
G01*
G37*
G36*
G01*
X178725940Y-81702680D02*
X178850940Y-81702680D01*
G75*
G02*
X178913440Y-81765180I0J-62500D01*
G01*
X178913440Y-82715180D01*
G75*
G02*
X178850940Y-82777680I-62500J0D01*
G01*
X178725940Y-82777680D01*
G75*
G02*
X178663440Y-82715180I0J62500D01*
G01*
X178663440Y-81765180D01*
G75*
G02*
X178725940Y-81702680I62500J0D01*
G01*
G37*
G36*
G01*
X178225940Y-81702680D02*
X178350940Y-81702680D01*
G75*
G02*
X178413440Y-81765180I0J-62500D01*
G01*
X178413440Y-82715180D01*
G75*
G02*
X178350940Y-82777680I-62500J0D01*
G01*
X178225940Y-82777680D01*
G75*
G02*
X178163440Y-82715180I0J62500D01*
G01*
X178163440Y-81765180D01*
G75*
G02*
X178225940Y-81702680I62500J0D01*
G01*
G37*
G36*
G01*
X177725940Y-81702680D02*
X177850940Y-81702680D01*
G75*
G02*
X177913440Y-81765180I0J-62500D01*
G01*
X177913440Y-82715180D01*
G75*
G02*
X177850940Y-82777680I-62500J0D01*
G01*
X177725940Y-82777680D01*
G75*
G02*
X177663440Y-82715180I0J62500D01*
G01*
X177663440Y-81765180D01*
G75*
G02*
X177725940Y-81702680I62500J0D01*
G01*
G37*
G36*
G01*
X177225940Y-81702680D02*
X177350940Y-81702680D01*
G75*
G02*
X177413440Y-81765180I0J-62500D01*
G01*
X177413440Y-82715180D01*
G75*
G02*
X177350940Y-82777680I-62500J0D01*
G01*
X177225940Y-82777680D01*
G75*
G02*
X177163440Y-82715180I0J62500D01*
G01*
X177163440Y-81765180D01*
G75*
G02*
X177225940Y-81702680I62500J0D01*
G01*
G37*
G36*
G01*
X176725940Y-81702680D02*
X176850940Y-81702680D01*
G75*
G02*
X176913440Y-81765180I0J-62500D01*
G01*
X176913440Y-82715180D01*
G75*
G02*
X176850940Y-82777680I-62500J0D01*
G01*
X176725940Y-82777680D01*
G75*
G02*
X176663440Y-82715180I0J62500D01*
G01*
X176663440Y-81765180D01*
G75*
G02*
X176725940Y-81702680I62500J0D01*
G01*
G37*
G36*
G01*
X175475940Y-82952680D02*
X176425940Y-82952680D01*
G75*
G02*
X176488440Y-83015180I0J-62500D01*
G01*
X176488440Y-83140180D01*
G75*
G02*
X176425940Y-83202680I-62500J0D01*
G01*
X175475940Y-83202680D01*
G75*
G02*
X175413440Y-83140180I0J62500D01*
G01*
X175413440Y-83015180D01*
G75*
G02*
X175475940Y-82952680I62500J0D01*
G01*
G37*
G36*
G01*
X175475940Y-83452680D02*
X176425940Y-83452680D01*
G75*
G02*
X176488440Y-83515180I0J-62500D01*
G01*
X176488440Y-83640180D01*
G75*
G02*
X176425940Y-83702680I-62500J0D01*
G01*
X175475940Y-83702680D01*
G75*
G02*
X175413440Y-83640180I0J62500D01*
G01*
X175413440Y-83515180D01*
G75*
G02*
X175475940Y-83452680I62500J0D01*
G01*
G37*
G36*
G01*
X175475940Y-83952680D02*
X176425940Y-83952680D01*
G75*
G02*
X176488440Y-84015180I0J-62500D01*
G01*
X176488440Y-84140180D01*
G75*
G02*
X176425940Y-84202680I-62500J0D01*
G01*
X175475940Y-84202680D01*
G75*
G02*
X175413440Y-84140180I0J62500D01*
G01*
X175413440Y-84015180D01*
G75*
G02*
X175475940Y-83952680I62500J0D01*
G01*
G37*
G36*
G01*
X175475940Y-84452680D02*
X176425940Y-84452680D01*
G75*
G02*
X176488440Y-84515180I0J-62500D01*
G01*
X176488440Y-84640180D01*
G75*
G02*
X176425940Y-84702680I-62500J0D01*
G01*
X175475940Y-84702680D01*
G75*
G02*
X175413440Y-84640180I0J62500D01*
G01*
X175413440Y-84515180D01*
G75*
G02*
X175475940Y-84452680I62500J0D01*
G01*
G37*
G36*
G01*
X175475940Y-84952680D02*
X176425940Y-84952680D01*
G75*
G02*
X176488440Y-85015180I0J-62500D01*
G01*
X176488440Y-85140180D01*
G75*
G02*
X176425940Y-85202680I-62500J0D01*
G01*
X175475940Y-85202680D01*
G75*
G02*
X175413440Y-85140180I0J62500D01*
G01*
X175413440Y-85015180D01*
G75*
G02*
X175475940Y-84952680I62500J0D01*
G01*
G37*
G36*
G01*
X175475940Y-85452680D02*
X176425940Y-85452680D01*
G75*
G02*
X176488440Y-85515180I0J-62500D01*
G01*
X176488440Y-85640180D01*
G75*
G02*
X176425940Y-85702680I-62500J0D01*
G01*
X175475940Y-85702680D01*
G75*
G02*
X175413440Y-85640180I0J62500D01*
G01*
X175413440Y-85515180D01*
G75*
G02*
X175475940Y-85452680I62500J0D01*
G01*
G37*
G36*
G01*
X175475940Y-85952680D02*
X176425940Y-85952680D01*
G75*
G02*
X176488440Y-86015180I0J-62500D01*
G01*
X176488440Y-86140180D01*
G75*
G02*
X176425940Y-86202680I-62500J0D01*
G01*
X175475940Y-86202680D01*
G75*
G02*
X175413440Y-86140180I0J62500D01*
G01*
X175413440Y-86015180D01*
G75*
G02*
X175475940Y-85952680I62500J0D01*
G01*
G37*
G36*
G01*
X175475940Y-86452680D02*
X176425940Y-86452680D01*
G75*
G02*
X176488440Y-86515180I0J-62500D01*
G01*
X176488440Y-86640180D01*
G75*
G02*
X176425940Y-86702680I-62500J0D01*
G01*
X175475940Y-86702680D01*
G75*
G02*
X175413440Y-86640180I0J62500D01*
G01*
X175413440Y-86515180D01*
G75*
G02*
X175475940Y-86452680I62500J0D01*
G01*
G37*
G36*
G01*
X175475940Y-86952680D02*
X176425940Y-86952680D01*
G75*
G02*
X176488440Y-87015180I0J-62500D01*
G01*
X176488440Y-87140180D01*
G75*
G02*
X176425940Y-87202680I-62500J0D01*
G01*
X175475940Y-87202680D01*
G75*
G02*
X175413440Y-87140180I0J62500D01*
G01*
X175413440Y-87015180D01*
G75*
G02*
X175475940Y-86952680I62500J0D01*
G01*
G37*
G36*
G01*
X175475940Y-87452680D02*
X176425940Y-87452680D01*
G75*
G02*
X176488440Y-87515180I0J-62500D01*
G01*
X176488440Y-87640180D01*
G75*
G02*
X176425940Y-87702680I-62500J0D01*
G01*
X175475940Y-87702680D01*
G75*
G02*
X175413440Y-87640180I0J62500D01*
G01*
X175413440Y-87515180D01*
G75*
G02*
X175475940Y-87452680I62500J0D01*
G01*
G37*
G36*
G01*
X175475940Y-87952680D02*
X176425940Y-87952680D01*
G75*
G02*
X176488440Y-88015180I0J-62500D01*
G01*
X176488440Y-88140180D01*
G75*
G02*
X176425940Y-88202680I-62500J0D01*
G01*
X175475940Y-88202680D01*
G75*
G02*
X175413440Y-88140180I0J62500D01*
G01*
X175413440Y-88015180D01*
G75*
G02*
X175475940Y-87952680I62500J0D01*
G01*
G37*
G36*
G01*
X176725940Y-88377680D02*
X176850940Y-88377680D01*
G75*
G02*
X176913440Y-88440180I0J-62500D01*
G01*
X176913440Y-89390180D01*
G75*
G02*
X176850940Y-89452680I-62500J0D01*
G01*
X176725940Y-89452680D01*
G75*
G02*
X176663440Y-89390180I0J62500D01*
G01*
X176663440Y-88440180D01*
G75*
G02*
X176725940Y-88377680I62500J0D01*
G01*
G37*
G36*
G01*
X177225940Y-88377680D02*
X177350940Y-88377680D01*
G75*
G02*
X177413440Y-88440180I0J-62500D01*
G01*
X177413440Y-89390180D01*
G75*
G02*
X177350940Y-89452680I-62500J0D01*
G01*
X177225940Y-89452680D01*
G75*
G02*
X177163440Y-89390180I0J62500D01*
G01*
X177163440Y-88440180D01*
G75*
G02*
X177225940Y-88377680I62500J0D01*
G01*
G37*
G36*
G01*
X177725940Y-88377680D02*
X177850940Y-88377680D01*
G75*
G02*
X177913440Y-88440180I0J-62500D01*
G01*
X177913440Y-89390180D01*
G75*
G02*
X177850940Y-89452680I-62500J0D01*
G01*
X177725940Y-89452680D01*
G75*
G02*
X177663440Y-89390180I0J62500D01*
G01*
X177663440Y-88440180D01*
G75*
G02*
X177725940Y-88377680I62500J0D01*
G01*
G37*
G36*
G01*
X178225940Y-88377680D02*
X178350940Y-88377680D01*
G75*
G02*
X178413440Y-88440180I0J-62500D01*
G01*
X178413440Y-89390180D01*
G75*
G02*
X178350940Y-89452680I-62500J0D01*
G01*
X178225940Y-89452680D01*
G75*
G02*
X178163440Y-89390180I0J62500D01*
G01*
X178163440Y-88440180D01*
G75*
G02*
X178225940Y-88377680I62500J0D01*
G01*
G37*
G36*
G01*
X178725940Y-88377680D02*
X178850940Y-88377680D01*
G75*
G02*
X178913440Y-88440180I0J-62500D01*
G01*
X178913440Y-89390180D01*
G75*
G02*
X178850940Y-89452680I-62500J0D01*
G01*
X178725940Y-89452680D01*
G75*
G02*
X178663440Y-89390180I0J62500D01*
G01*
X178663440Y-88440180D01*
G75*
G02*
X178725940Y-88377680I62500J0D01*
G01*
G37*
G36*
G01*
X179225940Y-88377680D02*
X179350940Y-88377680D01*
G75*
G02*
X179413440Y-88440180I0J-62500D01*
G01*
X179413440Y-89390180D01*
G75*
G02*
X179350940Y-89452680I-62500J0D01*
G01*
X179225940Y-89452680D01*
G75*
G02*
X179163440Y-89390180I0J62500D01*
G01*
X179163440Y-88440180D01*
G75*
G02*
X179225940Y-88377680I62500J0D01*
G01*
G37*
G36*
G01*
X179725940Y-88377680D02*
X179850940Y-88377680D01*
G75*
G02*
X179913440Y-88440180I0J-62500D01*
G01*
X179913440Y-89390180D01*
G75*
G02*
X179850940Y-89452680I-62500J0D01*
G01*
X179725940Y-89452680D01*
G75*
G02*
X179663440Y-89390180I0J62500D01*
G01*
X179663440Y-88440180D01*
G75*
G02*
X179725940Y-88377680I62500J0D01*
G01*
G37*
G36*
G01*
X180225940Y-88377680D02*
X180350940Y-88377680D01*
G75*
G02*
X180413440Y-88440180I0J-62500D01*
G01*
X180413440Y-89390180D01*
G75*
G02*
X180350940Y-89452680I-62500J0D01*
G01*
X180225940Y-89452680D01*
G75*
G02*
X180163440Y-89390180I0J62500D01*
G01*
X180163440Y-88440180D01*
G75*
G02*
X180225940Y-88377680I62500J0D01*
G01*
G37*
G36*
G01*
X180725940Y-88377680D02*
X180850940Y-88377680D01*
G75*
G02*
X180913440Y-88440180I0J-62500D01*
G01*
X180913440Y-89390180D01*
G75*
G02*
X180850940Y-89452680I-62500J0D01*
G01*
X180725940Y-89452680D01*
G75*
G02*
X180663440Y-89390180I0J62500D01*
G01*
X180663440Y-88440180D01*
G75*
G02*
X180725940Y-88377680I62500J0D01*
G01*
G37*
G36*
G01*
X181225940Y-88377680D02*
X181350940Y-88377680D01*
G75*
G02*
X181413440Y-88440180I0J-62500D01*
G01*
X181413440Y-89390180D01*
G75*
G02*
X181350940Y-89452680I-62500J0D01*
G01*
X181225940Y-89452680D01*
G75*
G02*
X181163440Y-89390180I0J62500D01*
G01*
X181163440Y-88440180D01*
G75*
G02*
X181225940Y-88377680I62500J0D01*
G01*
G37*
G36*
G01*
X181725940Y-88377680D02*
X181850940Y-88377680D01*
G75*
G02*
X181913440Y-88440180I0J-62500D01*
G01*
X181913440Y-89390180D01*
G75*
G02*
X181850940Y-89452680I-62500J0D01*
G01*
X181725940Y-89452680D01*
G75*
G02*
X181663440Y-89390180I0J62500D01*
G01*
X181663440Y-88440180D01*
G75*
G02*
X181725940Y-88377680I62500J0D01*
G01*
G37*
G36*
G01*
X182150940Y-87952680D02*
X183100940Y-87952680D01*
G75*
G02*
X183163440Y-88015180I0J-62500D01*
G01*
X183163440Y-88140180D01*
G75*
G02*
X183100940Y-88202680I-62500J0D01*
G01*
X182150940Y-88202680D01*
G75*
G02*
X182088440Y-88140180I0J62500D01*
G01*
X182088440Y-88015180D01*
G75*
G02*
X182150940Y-87952680I62500J0D01*
G01*
G37*
G36*
G01*
X182150940Y-87452680D02*
X183100940Y-87452680D01*
G75*
G02*
X183163440Y-87515180I0J-62500D01*
G01*
X183163440Y-87640180D01*
G75*
G02*
X183100940Y-87702680I-62500J0D01*
G01*
X182150940Y-87702680D01*
G75*
G02*
X182088440Y-87640180I0J62500D01*
G01*
X182088440Y-87515180D01*
G75*
G02*
X182150940Y-87452680I62500J0D01*
G01*
G37*
G36*
G01*
X182150940Y-86952680D02*
X183100940Y-86952680D01*
G75*
G02*
X183163440Y-87015180I0J-62500D01*
G01*
X183163440Y-87140180D01*
G75*
G02*
X183100940Y-87202680I-62500J0D01*
G01*
X182150940Y-87202680D01*
G75*
G02*
X182088440Y-87140180I0J62500D01*
G01*
X182088440Y-87015180D01*
G75*
G02*
X182150940Y-86952680I62500J0D01*
G01*
G37*
G36*
G01*
X182150940Y-86452680D02*
X183100940Y-86452680D01*
G75*
G02*
X183163440Y-86515180I0J-62500D01*
G01*
X183163440Y-86640180D01*
G75*
G02*
X183100940Y-86702680I-62500J0D01*
G01*
X182150940Y-86702680D01*
G75*
G02*
X182088440Y-86640180I0J62500D01*
G01*
X182088440Y-86515180D01*
G75*
G02*
X182150940Y-86452680I62500J0D01*
G01*
G37*
G36*
G01*
X182150940Y-85952680D02*
X183100940Y-85952680D01*
G75*
G02*
X183163440Y-86015180I0J-62500D01*
G01*
X183163440Y-86140180D01*
G75*
G02*
X183100940Y-86202680I-62500J0D01*
G01*
X182150940Y-86202680D01*
G75*
G02*
X182088440Y-86140180I0J62500D01*
G01*
X182088440Y-86015180D01*
G75*
G02*
X182150940Y-85952680I62500J0D01*
G01*
G37*
G36*
G01*
X182150940Y-85452680D02*
X183100940Y-85452680D01*
G75*
G02*
X183163440Y-85515180I0J-62500D01*
G01*
X183163440Y-85640180D01*
G75*
G02*
X183100940Y-85702680I-62500J0D01*
G01*
X182150940Y-85702680D01*
G75*
G02*
X182088440Y-85640180I0J62500D01*
G01*
X182088440Y-85515180D01*
G75*
G02*
X182150940Y-85452680I62500J0D01*
G01*
G37*
G36*
G01*
X182150940Y-84952680D02*
X183100940Y-84952680D01*
G75*
G02*
X183163440Y-85015180I0J-62500D01*
G01*
X183163440Y-85140180D01*
G75*
G02*
X183100940Y-85202680I-62500J0D01*
G01*
X182150940Y-85202680D01*
G75*
G02*
X182088440Y-85140180I0J62500D01*
G01*
X182088440Y-85015180D01*
G75*
G02*
X182150940Y-84952680I62500J0D01*
G01*
G37*
G36*
G01*
X182150940Y-84452680D02*
X183100940Y-84452680D01*
G75*
G02*
X183163440Y-84515180I0J-62500D01*
G01*
X183163440Y-84640180D01*
G75*
G02*
X183100940Y-84702680I-62500J0D01*
G01*
X182150940Y-84702680D01*
G75*
G02*
X182088440Y-84640180I0J62500D01*
G01*
X182088440Y-84515180D01*
G75*
G02*
X182150940Y-84452680I62500J0D01*
G01*
G37*
G36*
G01*
X182150940Y-83952680D02*
X183100940Y-83952680D01*
G75*
G02*
X183163440Y-84015180I0J-62500D01*
G01*
X183163440Y-84140180D01*
G75*
G02*
X183100940Y-84202680I-62500J0D01*
G01*
X182150940Y-84202680D01*
G75*
G02*
X182088440Y-84140180I0J62500D01*
G01*
X182088440Y-84015180D01*
G75*
G02*
X182150940Y-83952680I62500J0D01*
G01*
G37*
G36*
G01*
X182150940Y-83452680D02*
X183100940Y-83452680D01*
G75*
G02*
X183163440Y-83515180I0J-62500D01*
G01*
X183163440Y-83640180D01*
G75*
G02*
X183100940Y-83702680I-62500J0D01*
G01*
X182150940Y-83702680D01*
G75*
G02*
X182088440Y-83640180I0J62500D01*
G01*
X182088440Y-83515180D01*
G75*
G02*
X182150940Y-83452680I62500J0D01*
G01*
G37*
G36*
G01*
X182150940Y-82952680D02*
X183100940Y-82952680D01*
G75*
G02*
X183163440Y-83015180I0J-62500D01*
G01*
X183163440Y-83140180D01*
G75*
G02*
X183100940Y-83202680I-62500J0D01*
G01*
X182150940Y-83202680D01*
G75*
G02*
X182088440Y-83140180I0J62500D01*
G01*
X182088440Y-83015180D01*
G75*
G02*
X182150940Y-82952680I62500J0D01*
G01*
G37*
D21*
X179288440Y-85577680D03*
%TD*%
D22*
%TO.C,Y1*%
G36*
X168286592Y-87410957D02*
G01*
X167438064Y-86562429D01*
X168428014Y-85572479D01*
X169276542Y-86421007D01*
X168286592Y-87410957D01*
G37*
G36*
X169842227Y-85855322D02*
G01*
X168993699Y-85006794D01*
X169983649Y-84016844D01*
X170832177Y-84865372D01*
X169842227Y-85855322D01*
G37*
G36*
X168640146Y-84653241D02*
G01*
X167791618Y-83804713D01*
X168781568Y-82814763D01*
X169630096Y-83663291D01*
X168640146Y-84653241D01*
G37*
G36*
X167084511Y-86208876D02*
G01*
X166235983Y-85360348D01*
X167225933Y-84370398D01*
X168074461Y-85218926D01*
X167084511Y-86208876D01*
G37*
%TD*%
M02*
