%TF.GenerationSoftware,KiCad,Pcbnew,5.1.7-a382d34a8~88~ubuntu20.04.1*%
%TF.CreationDate,2021-03-21T15:49:45+01:00*%
%TF.ProjectId,marco-keyboard,6d617263-6f2d-46b6-9579-626f6172642e,rev?*%
%TF.SameCoordinates,Original*%
%TF.FileFunction,Copper,L2,Bot*%
%TF.FilePolarity,Positive*%
%FSLAX46Y46*%
G04 Gerber Fmt 4.6, Leading zero omitted, Abs format (unit mm)*
G04 Created by KiCad (PCBNEW 5.1.7-a382d34a8~88~ubuntu20.04.1) date 2021-03-21 15:49:45*
%MOMM*%
%LPD*%
G01*
G04 APERTURE LIST*
%TA.AperFunction,ComponentPad*%
%ADD10C,4.400000*%
%TD*%
%TA.AperFunction,ComponentPad*%
%ADD11C,2.200000*%
%TD*%
%TA.AperFunction,ComponentPad*%
%ADD12O,2.100000X1.050000*%
%TD*%
%TA.AperFunction,ComponentPad*%
%ADD13O,0.850000X0.850000*%
%TD*%
%TA.AperFunction,ComponentPad*%
%ADD14R,0.850000X0.850000*%
%TD*%
%TA.AperFunction,ViaPad*%
%ADD15C,0.800000*%
%TD*%
%TA.AperFunction,Conductor*%
%ADD16C,0.250000*%
%TD*%
%TA.AperFunction,Conductor*%
%ADD17C,0.254000*%
%TD*%
%TA.AperFunction,Conductor*%
%ADD18C,0.100000*%
%TD*%
G04 APERTURE END LIST*
D10*
%TO.P,H3,1*%
%TO.N,GND*%
X174058580Y-58070161D03*
%TD*%
%TO.P,H2,1*%
%TO.N,GND*%
X125064520Y-58070161D03*
%TD*%
%TO.P,H1,1*%
%TO.N,GND*%
X125064520Y-84825840D03*
%TD*%
D11*
%TO.P,SW6,2*%
%TO.N,+5V*%
X168910000Y-68580000D03*
%TO.P,SW6,1*%
%TO.N,BTN6*%
X175260000Y-66040000D03*
%TD*%
D12*
%TO.P,J1,S1*%
%TO.N,GND*%
X186320000Y-75440000D03*
%TO.P,J1,S2*%
X186320000Y-66800000D03*
%TO.P,J1,S3*%
X190500000Y-75440000D03*
%TO.P,J1,S4*%
X190500000Y-66800000D03*
%TD*%
D13*
%TO.P,J2,6*%
%TO.N,GND*%
X185467880Y-63109480D03*
%TO.P,J2,5*%
%TO.N,RESET*%
X184467880Y-63109480D03*
%TO.P,J2,4*%
%TO.N,MOSI*%
X185467880Y-62109480D03*
%TO.P,J2,3*%
%TO.N,SCLK*%
X184467880Y-62109480D03*
%TO.P,J2,2*%
%TO.N,+5V*%
X185467880Y-61109480D03*
D14*
%TO.P,J2,1*%
%TO.N,MISO*%
X184467880Y-61109480D03*
%TD*%
D11*
%TO.P,SW0,1*%
%TO.N,BTN0*%
X118110000Y-56515000D03*
%TO.P,SW0,2*%
%TO.N,+5V*%
X111760000Y-59055000D03*
%TD*%
%TO.P,SW1,2*%
%TO.N,+5V*%
X111760000Y-78105000D03*
%TO.P,SW1,1*%
%TO.N,BTN1*%
X118110000Y-75565000D03*
%TD*%
%TO.P,SW2,2*%
%TO.N,+5V*%
X130810000Y-59055000D03*
%TO.P,SW2,1*%
%TO.N,BTN2*%
X137160000Y-56515000D03*
%TD*%
%TO.P,SW3,1*%
%TO.N,BTN3*%
X137160000Y-75565000D03*
%TO.P,SW3,2*%
%TO.N,+5V*%
X130810000Y-78105000D03*
%TD*%
%TO.P,SW4,1*%
%TO.N,BTN4*%
X156210000Y-56515000D03*
%TO.P,SW4,2*%
%TO.N,+5V*%
X149860000Y-59055000D03*
%TD*%
%TO.P,SW5,2*%
%TO.N,+5V*%
X149860000Y-78105000D03*
%TO.P,SW5,1*%
%TO.N,BTN5*%
X156210000Y-75565000D03*
%TD*%
D15*
%TO.N,Net-(C2-Pad1)*%
X179563440Y-81061560D03*
X178063440Y-80586580D03*
%TO.N,+5V*%
X174754540Y-84277200D03*
X175143160Y-89131140D03*
X183834400Y-83077680D03*
%TO.N,RESET*%
X184142880Y-59520450D03*
%TO.N,SCLK*%
X181947393Y-63377653D03*
X178747420Y-67409060D03*
%TO.N,Net-(R5-Pad1)*%
X183829960Y-84784900D03*
X186862720Y-55709820D03*
%TO.N,BTN6*%
X174724060Y-86304120D03*
%TO.N,GND*%
X183126380Y-65354200D03*
X171333160Y-89382600D03*
X182120540Y-65356740D03*
%TO.N,+5V*%
X184693560Y-87823040D03*
%TD*%
D16*
%TO.N,Net-(C2-Pad1)*%
X178538420Y-81061560D02*
X178063440Y-80586580D01*
X179563440Y-81061560D02*
X178538420Y-81061560D01*
%TO.N,+5V*%
X174845980Y-84368640D02*
X174754540Y-84277200D01*
X182634880Y-84277200D02*
X183834400Y-83077680D01*
X179997100Y-84277200D02*
X180017420Y-84277200D01*
X175143160Y-89131140D02*
X179997100Y-84277200D01*
X180017420Y-84277200D02*
X182634880Y-84277200D01*
X174754540Y-84277200D02*
X180017420Y-84277200D01*
X184337530Y-82574550D02*
X183834400Y-83077680D01*
X186217881Y-63429689D02*
X184337530Y-65310040D01*
X186217881Y-61258441D02*
X186217881Y-63429689D01*
X186068920Y-61109480D02*
X186217881Y-61258441D01*
X185467880Y-61109480D02*
X186068920Y-61109480D01*
X149860000Y-59055000D02*
X149860000Y-78105000D01*
X130810000Y-59055000D02*
X130810000Y-78105000D01*
X111760000Y-59055000D02*
X111760000Y-78105000D01*
X111760000Y-59055000D02*
X116149120Y-54665880D01*
X135199120Y-54665880D02*
X136410700Y-54665880D01*
X130810000Y-59055000D02*
X135199120Y-54665880D01*
X116149120Y-54665880D02*
X136410700Y-54665880D01*
X149860000Y-59055000D02*
X154249120Y-54665880D01*
X154249120Y-54665880D02*
X154330400Y-54665880D01*
X136410700Y-54665880D02*
X154330400Y-54665880D01*
X163522660Y-54665880D02*
X168910000Y-60053220D01*
X154330400Y-54665880D02*
X163522660Y-54665880D01*
X184337530Y-74864390D02*
X184337529Y-74481119D01*
X184337530Y-65310040D02*
X184337530Y-74864390D01*
X184337530Y-74864390D02*
X184337530Y-82574550D01*
X184337529Y-74481119D02*
X177393600Y-67537190D01*
X177393600Y-67537190D02*
X177393600Y-64960500D01*
X173471779Y-64614999D02*
X168910000Y-60053220D01*
X177048099Y-64614999D02*
X173471779Y-64614999D01*
X177393600Y-64960500D02*
X177048099Y-64614999D01*
%TO.N,RESET*%
X184467880Y-63109480D02*
X183640100Y-63109480D01*
X183640100Y-63109480D02*
X182854600Y-62323980D01*
X182854600Y-60808730D02*
X184142880Y-59520450D01*
X182854600Y-62323980D02*
X182854600Y-60808730D01*
%TO.N,SCLK*%
X178747420Y-66577626D02*
X178747420Y-67409060D01*
X181947393Y-63377653D02*
X178747420Y-66577626D01*
%TO.N,Net-(R5-Pad1)*%
X186872880Y-55719980D02*
X186862720Y-55709820D01*
X186872880Y-63411100D02*
X186872880Y-55719980D01*
X184787540Y-65496440D02*
X186872880Y-63411100D01*
X184787540Y-83827320D02*
X184787540Y-65496440D01*
X183829960Y-84784900D02*
X184787540Y-83827320D01*
%TO.N,GND*%
X185467880Y-63109480D02*
X185467880Y-63543280D01*
X183656960Y-65354200D02*
X183126380Y-65354200D01*
X185467880Y-63543280D02*
X183656960Y-65354200D01*
%TO.N,+5V*%
X184693560Y-87061040D02*
X184693560Y-87823040D01*
X173471779Y-64614999D02*
X171744701Y-64614999D01*
X168910000Y-67449700D02*
X168910000Y-68580000D01*
X171744701Y-64614999D02*
X168910000Y-67449700D01*
X184693560Y-86721502D02*
X184693560Y-87061040D01*
X182634880Y-84662822D02*
X184693560Y-86721502D01*
X182634880Y-84277200D02*
X182634880Y-84662822D01*
%TO.N,BTN6*%
X173819820Y-85399880D02*
X174724060Y-86304120D01*
X181996080Y-83299300D02*
X174659438Y-83299300D01*
X174659438Y-83299300D02*
X173819820Y-84138918D01*
X183887520Y-81407860D02*
X181996080Y-83299300D01*
X183887520Y-74667520D02*
X183887520Y-81407860D01*
X173819820Y-84138918D02*
X173819820Y-85399880D01*
X175260000Y-66040000D02*
X183887520Y-74667520D01*
%TD*%
D17*
%TO.N,GND*%
X190864545Y-50228909D02*
X191215208Y-50334780D01*
X191538625Y-50506744D01*
X191822484Y-50738254D01*
X192055965Y-51020486D01*
X192230183Y-51342695D01*
X192338502Y-51692614D01*
X192380000Y-52087443D01*
X192380001Y-90137711D01*
X192341091Y-90534545D01*
X192235220Y-90885206D01*
X192063257Y-91208623D01*
X191831748Y-91492482D01*
X191549514Y-91725965D01*
X191227304Y-91900184D01*
X190877385Y-92008502D01*
X190482557Y-92050000D01*
X106712279Y-92050000D01*
X106315455Y-92011091D01*
X105964794Y-91905220D01*
X105641377Y-91733257D01*
X105357518Y-91501748D01*
X105124035Y-91219514D01*
X104949816Y-90897304D01*
X104841498Y-90547385D01*
X104800000Y-90152557D01*
X104800000Y-85562927D01*
X108892920Y-85562927D01*
X108892920Y-85801473D01*
X108939458Y-86035436D01*
X109030745Y-86255824D01*
X109163274Y-86454168D01*
X109331952Y-86622846D01*
X109530296Y-86755375D01*
X109750684Y-86846662D01*
X109984647Y-86893200D01*
X110223193Y-86893200D01*
X110457156Y-86846662D01*
X110532110Y-86815615D01*
X123254350Y-86815615D01*
X123494496Y-87202858D01*
X123988397Y-87463481D01*
X124523653Y-87622741D01*
X125079694Y-87674518D01*
X125635152Y-87616821D01*
X126168681Y-87451868D01*
X126634544Y-87202858D01*
X126874690Y-86815615D01*
X125064520Y-85005445D01*
X123254350Y-86815615D01*
X110532110Y-86815615D01*
X110677544Y-86755375D01*
X110875888Y-86622846D01*
X111044566Y-86454168D01*
X111177095Y-86255824D01*
X111268382Y-86035436D01*
X111314920Y-85801473D01*
X111314920Y-85562927D01*
X111268382Y-85328964D01*
X111177095Y-85108576D01*
X111044566Y-84910232D01*
X110975348Y-84841014D01*
X122215842Y-84841014D01*
X122273539Y-85396472D01*
X122438492Y-85930001D01*
X122687502Y-86395864D01*
X123074745Y-86636010D01*
X124884915Y-84825840D01*
X125244125Y-84825840D01*
X127054295Y-86636010D01*
X127441538Y-86395864D01*
X127702161Y-85901963D01*
X127861421Y-85366707D01*
X127913198Y-84810666D01*
X127855501Y-84255208D01*
X127690548Y-83721679D01*
X127441538Y-83255816D01*
X127054295Y-83015670D01*
X125244125Y-84825840D01*
X124884915Y-84825840D01*
X123074745Y-83015670D01*
X122687502Y-83255816D01*
X122426879Y-83749717D01*
X122267619Y-84284973D01*
X122215842Y-84841014D01*
X110975348Y-84841014D01*
X110875888Y-84741554D01*
X110677544Y-84609025D01*
X110457156Y-84517738D01*
X110223193Y-84471200D01*
X109984647Y-84471200D01*
X109750684Y-84517738D01*
X109530296Y-84609025D01*
X109331952Y-84741554D01*
X109163274Y-84910232D01*
X109030745Y-85108576D01*
X108939458Y-85328964D01*
X108892920Y-85562927D01*
X104800000Y-85562927D01*
X104800000Y-61448740D01*
X109005000Y-61448740D01*
X109005000Y-61741260D01*
X109062068Y-62028158D01*
X109174010Y-62298411D01*
X109336525Y-62541632D01*
X109543368Y-62748475D01*
X109786589Y-62910990D01*
X110056842Y-63022932D01*
X110343740Y-63080000D01*
X110636260Y-63080000D01*
X110923158Y-63022932D01*
X111000000Y-62991103D01*
X111000001Y-76541851D01*
X110938169Y-76567463D01*
X110654002Y-76757337D01*
X110412337Y-76999002D01*
X110222463Y-77283169D01*
X110091675Y-77598919D01*
X110025000Y-77934117D01*
X110025000Y-78275883D01*
X110091675Y-78611081D01*
X110222463Y-78926831D01*
X110378261Y-79160000D01*
X110343740Y-79160000D01*
X110056842Y-79217068D01*
X109786589Y-79329010D01*
X109543368Y-79491525D01*
X109336525Y-79698368D01*
X109174010Y-79941589D01*
X109062068Y-80211842D01*
X109005000Y-80498740D01*
X109005000Y-80791260D01*
X109062068Y-81078158D01*
X109174010Y-81348411D01*
X109336525Y-81591632D01*
X109543368Y-81798475D01*
X109786589Y-81960990D01*
X110056842Y-82072932D01*
X110343740Y-82130000D01*
X110636260Y-82130000D01*
X110923158Y-82072932D01*
X111193411Y-81960990D01*
X111436632Y-81798475D01*
X111643475Y-81591632D01*
X111805990Y-81348411D01*
X111917932Y-81078158D01*
X111975000Y-80791260D01*
X111975000Y-80498740D01*
X111952471Y-80385475D01*
X112935000Y-80385475D01*
X112935000Y-80904525D01*
X113036261Y-81413601D01*
X113234893Y-81893141D01*
X113523262Y-82324715D01*
X113890285Y-82691738D01*
X114321859Y-82980107D01*
X114801399Y-83178739D01*
X115310475Y-83280000D01*
X115829525Y-83280000D01*
X116338601Y-83178739D01*
X116818141Y-82980107D01*
X117033714Y-82836065D01*
X123254350Y-82836065D01*
X125064520Y-84646235D01*
X126874690Y-82836065D01*
X126634544Y-82448822D01*
X126140643Y-82188199D01*
X125605387Y-82028939D01*
X125049346Y-81977162D01*
X124493888Y-82034859D01*
X123960359Y-82199812D01*
X123494496Y-82448822D01*
X123254350Y-82836065D01*
X117033714Y-82836065D01*
X117249715Y-82691738D01*
X117616738Y-82324715D01*
X117905107Y-81893141D01*
X118103739Y-81413601D01*
X118205000Y-80904525D01*
X118205000Y-80498740D01*
X119165000Y-80498740D01*
X119165000Y-80791260D01*
X119222068Y-81078158D01*
X119334010Y-81348411D01*
X119496525Y-81591632D01*
X119703368Y-81798475D01*
X119946589Y-81960990D01*
X120216842Y-82072932D01*
X120503740Y-82130000D01*
X120796260Y-82130000D01*
X121083158Y-82072932D01*
X121353411Y-81960990D01*
X121596632Y-81798475D01*
X121803475Y-81591632D01*
X121965990Y-81348411D01*
X122077932Y-81078158D01*
X122135000Y-80791260D01*
X122135000Y-80498740D01*
X122077932Y-80211842D01*
X121965990Y-79941589D01*
X121803475Y-79698368D01*
X121596632Y-79491525D01*
X121353411Y-79329010D01*
X121083158Y-79217068D01*
X120796260Y-79160000D01*
X120503740Y-79160000D01*
X120216842Y-79217068D01*
X119946589Y-79329010D01*
X119703368Y-79491525D01*
X119496525Y-79698368D01*
X119334010Y-79941589D01*
X119222068Y-80211842D01*
X119165000Y-80498740D01*
X118205000Y-80498740D01*
X118205000Y-80385475D01*
X118103739Y-79876399D01*
X117905107Y-79396859D01*
X117616738Y-78965285D01*
X117249715Y-78598262D01*
X116818141Y-78309893D01*
X116338601Y-78111261D01*
X115829525Y-78010000D01*
X115310475Y-78010000D01*
X114801399Y-78111261D01*
X114321859Y-78309893D01*
X113890285Y-78598262D01*
X113523262Y-78965285D01*
X113234893Y-79396859D01*
X113036261Y-79876399D01*
X112935000Y-80385475D01*
X111952471Y-80385475D01*
X111917932Y-80211842D01*
X111805990Y-79941589D01*
X111738110Y-79840000D01*
X111930883Y-79840000D01*
X112266081Y-79773325D01*
X112581831Y-79642537D01*
X112865998Y-79452663D01*
X113107663Y-79210998D01*
X113297537Y-78926831D01*
X113428325Y-78611081D01*
X113495000Y-78275883D01*
X113495000Y-77934117D01*
X113428325Y-77598919D01*
X113297537Y-77283169D01*
X113107663Y-76999002D01*
X112865998Y-76757337D01*
X112581831Y-76567463D01*
X112520000Y-76541852D01*
X112520000Y-75394117D01*
X116375000Y-75394117D01*
X116375000Y-75735883D01*
X116441675Y-76071081D01*
X116572463Y-76386831D01*
X116762337Y-76670998D01*
X117004002Y-76912663D01*
X117288169Y-77102537D01*
X117603919Y-77233325D01*
X117939117Y-77300000D01*
X118280883Y-77300000D01*
X118616081Y-77233325D01*
X118931831Y-77102537D01*
X119215998Y-76912663D01*
X119457663Y-76670998D01*
X119647537Y-76386831D01*
X119778325Y-76071081D01*
X119845000Y-75735883D01*
X119845000Y-75394117D01*
X119778325Y-75058919D01*
X119647537Y-74743169D01*
X119457663Y-74459002D01*
X119215998Y-74217337D01*
X118931831Y-74027463D01*
X118616081Y-73896675D01*
X118280883Y-73830000D01*
X117939117Y-73830000D01*
X117603919Y-73896675D01*
X117288169Y-74027463D01*
X117004002Y-74217337D01*
X116762337Y-74459002D01*
X116572463Y-74743169D01*
X116441675Y-75058919D01*
X116375000Y-75394117D01*
X112520000Y-75394117D01*
X112520000Y-61335475D01*
X112935000Y-61335475D01*
X112935000Y-61854525D01*
X113036261Y-62363601D01*
X113234893Y-62843141D01*
X113523262Y-63274715D01*
X113890285Y-63641738D01*
X114321859Y-63930107D01*
X114801399Y-64128739D01*
X115310475Y-64230000D01*
X115829525Y-64230000D01*
X116338601Y-64128739D01*
X116818141Y-63930107D01*
X117249715Y-63641738D01*
X117616738Y-63274715D01*
X117905107Y-62843141D01*
X118103739Y-62363601D01*
X118205000Y-61854525D01*
X118205000Y-61448740D01*
X119165000Y-61448740D01*
X119165000Y-61741260D01*
X119222068Y-62028158D01*
X119334010Y-62298411D01*
X119496525Y-62541632D01*
X119703368Y-62748475D01*
X119946589Y-62910990D01*
X120216842Y-63022932D01*
X120503740Y-63080000D01*
X120796260Y-63080000D01*
X121083158Y-63022932D01*
X121353411Y-62910990D01*
X121596632Y-62748475D01*
X121803475Y-62541632D01*
X121965990Y-62298411D01*
X122077932Y-62028158D01*
X122135000Y-61741260D01*
X122135000Y-61448740D01*
X122077932Y-61161842D01*
X121965990Y-60891589D01*
X121803475Y-60648368D01*
X121596632Y-60441525D01*
X121353411Y-60279010D01*
X121083158Y-60167068D01*
X120796260Y-60110000D01*
X120503740Y-60110000D01*
X120216842Y-60167068D01*
X119946589Y-60279010D01*
X119703368Y-60441525D01*
X119496525Y-60648368D01*
X119334010Y-60891589D01*
X119222068Y-61161842D01*
X119165000Y-61448740D01*
X118205000Y-61448740D01*
X118205000Y-61335475D01*
X118103739Y-60826399D01*
X117905107Y-60346859D01*
X117713391Y-60059936D01*
X123254350Y-60059936D01*
X123494496Y-60447179D01*
X123988397Y-60707802D01*
X124523653Y-60867062D01*
X125079694Y-60918839D01*
X125635152Y-60861142D01*
X126168681Y-60696189D01*
X126634544Y-60447179D01*
X126874690Y-60059936D01*
X125064520Y-58249766D01*
X123254350Y-60059936D01*
X117713391Y-60059936D01*
X117616738Y-59915285D01*
X117249715Y-59548262D01*
X116818141Y-59259893D01*
X116338601Y-59061261D01*
X115829525Y-58960000D01*
X115310475Y-58960000D01*
X114801399Y-59061261D01*
X114321859Y-59259893D01*
X113890285Y-59548262D01*
X113523262Y-59915285D01*
X113234893Y-60346859D01*
X113036261Y-60826399D01*
X112935000Y-61335475D01*
X112520000Y-61335475D01*
X112520000Y-60618148D01*
X112581831Y-60592537D01*
X112865998Y-60402663D01*
X113107663Y-60160998D01*
X113297537Y-59876831D01*
X113428325Y-59561081D01*
X113495000Y-59225883D01*
X113495000Y-58884117D01*
X113428325Y-58548919D01*
X113402714Y-58487088D01*
X116463922Y-55425880D01*
X116751059Y-55425880D01*
X116572463Y-55693169D01*
X116441675Y-56008919D01*
X116375000Y-56344117D01*
X116375000Y-56685883D01*
X116441675Y-57021081D01*
X116572463Y-57336831D01*
X116762337Y-57620998D01*
X117004002Y-57862663D01*
X117288169Y-58052537D01*
X117603919Y-58183325D01*
X117939117Y-58250000D01*
X118280883Y-58250000D01*
X118616081Y-58183325D01*
X118852649Y-58085335D01*
X122215842Y-58085335D01*
X122273539Y-58640793D01*
X122438492Y-59174322D01*
X122687502Y-59640185D01*
X123074745Y-59880331D01*
X124884915Y-58070161D01*
X125244125Y-58070161D01*
X127054295Y-59880331D01*
X127441538Y-59640185D01*
X127702161Y-59146284D01*
X127861421Y-58611028D01*
X127913198Y-58054987D01*
X127855501Y-57499529D01*
X127690548Y-56966000D01*
X127441538Y-56500137D01*
X127054295Y-56259991D01*
X125244125Y-58070161D01*
X124884915Y-58070161D01*
X123074745Y-56259991D01*
X122687502Y-56500137D01*
X122426879Y-56994038D01*
X122267619Y-57529294D01*
X122215842Y-58085335D01*
X118852649Y-58085335D01*
X118931831Y-58052537D01*
X119215998Y-57862663D01*
X119457663Y-57620998D01*
X119647537Y-57336831D01*
X119778325Y-57021081D01*
X119845000Y-56685883D01*
X119845000Y-56344117D01*
X119778325Y-56008919D01*
X119647537Y-55693169D01*
X119468941Y-55425880D01*
X124019397Y-55425880D01*
X123960359Y-55444133D01*
X123494496Y-55693143D01*
X123254350Y-56080386D01*
X125064520Y-57890556D01*
X126874690Y-56080386D01*
X126634544Y-55693143D01*
X126140643Y-55432520D01*
X126118327Y-55425880D01*
X133364318Y-55425880D01*
X131377912Y-57412286D01*
X131316081Y-57386675D01*
X130980883Y-57320000D01*
X130639117Y-57320000D01*
X130303919Y-57386675D01*
X129988169Y-57517463D01*
X129704002Y-57707337D01*
X129462337Y-57949002D01*
X129272463Y-58233169D01*
X129141675Y-58548919D01*
X129075000Y-58884117D01*
X129075000Y-59225883D01*
X129141675Y-59561081D01*
X129272463Y-59876831D01*
X129428261Y-60110000D01*
X129393740Y-60110000D01*
X129106842Y-60167068D01*
X128836589Y-60279010D01*
X128593368Y-60441525D01*
X128386525Y-60648368D01*
X128224010Y-60891589D01*
X128112068Y-61161842D01*
X128055000Y-61448740D01*
X128055000Y-61741260D01*
X128112068Y-62028158D01*
X128224010Y-62298411D01*
X128386525Y-62541632D01*
X128593368Y-62748475D01*
X128836589Y-62910990D01*
X129106842Y-63022932D01*
X129393740Y-63080000D01*
X129686260Y-63080000D01*
X129973158Y-63022932D01*
X130050000Y-62991103D01*
X130050001Y-76541851D01*
X129988169Y-76567463D01*
X129704002Y-76757337D01*
X129462337Y-76999002D01*
X129272463Y-77283169D01*
X129141675Y-77598919D01*
X129075000Y-77934117D01*
X129075000Y-78275883D01*
X129141675Y-78611081D01*
X129272463Y-78926831D01*
X129428261Y-79160000D01*
X129393740Y-79160000D01*
X129106842Y-79217068D01*
X128836589Y-79329010D01*
X128593368Y-79491525D01*
X128386525Y-79698368D01*
X128224010Y-79941589D01*
X128112068Y-80211842D01*
X128055000Y-80498740D01*
X128055000Y-80791260D01*
X128112068Y-81078158D01*
X128224010Y-81348411D01*
X128386525Y-81591632D01*
X128593368Y-81798475D01*
X128836589Y-81960990D01*
X129106842Y-82072932D01*
X129393740Y-82130000D01*
X129686260Y-82130000D01*
X129973158Y-82072932D01*
X130243411Y-81960990D01*
X130486632Y-81798475D01*
X130693475Y-81591632D01*
X130855990Y-81348411D01*
X130967932Y-81078158D01*
X131025000Y-80791260D01*
X131025000Y-80498740D01*
X131002471Y-80385475D01*
X131985000Y-80385475D01*
X131985000Y-80904525D01*
X132086261Y-81413601D01*
X132284893Y-81893141D01*
X132573262Y-82324715D01*
X132940285Y-82691738D01*
X133371859Y-82980107D01*
X133851399Y-83178739D01*
X134360475Y-83280000D01*
X134879525Y-83280000D01*
X135388601Y-83178739D01*
X135868141Y-82980107D01*
X136299715Y-82691738D01*
X136666738Y-82324715D01*
X136955107Y-81893141D01*
X137153739Y-81413601D01*
X137255000Y-80904525D01*
X137255000Y-80498740D01*
X138215000Y-80498740D01*
X138215000Y-80791260D01*
X138272068Y-81078158D01*
X138384010Y-81348411D01*
X138546525Y-81591632D01*
X138753368Y-81798475D01*
X138996589Y-81960990D01*
X139266842Y-82072932D01*
X139553740Y-82130000D01*
X139846260Y-82130000D01*
X140133158Y-82072932D01*
X140403411Y-81960990D01*
X140646632Y-81798475D01*
X140853475Y-81591632D01*
X141015990Y-81348411D01*
X141127932Y-81078158D01*
X141185000Y-80791260D01*
X141185000Y-80498740D01*
X141127932Y-80211842D01*
X141015990Y-79941589D01*
X140853475Y-79698368D01*
X140646632Y-79491525D01*
X140403411Y-79329010D01*
X140133158Y-79217068D01*
X139846260Y-79160000D01*
X139553740Y-79160000D01*
X139266842Y-79217068D01*
X138996589Y-79329010D01*
X138753368Y-79491525D01*
X138546525Y-79698368D01*
X138384010Y-79941589D01*
X138272068Y-80211842D01*
X138215000Y-80498740D01*
X137255000Y-80498740D01*
X137255000Y-80385475D01*
X137153739Y-79876399D01*
X136955107Y-79396859D01*
X136666738Y-78965285D01*
X136299715Y-78598262D01*
X135868141Y-78309893D01*
X135388601Y-78111261D01*
X134879525Y-78010000D01*
X134360475Y-78010000D01*
X133851399Y-78111261D01*
X133371859Y-78309893D01*
X132940285Y-78598262D01*
X132573262Y-78965285D01*
X132284893Y-79396859D01*
X132086261Y-79876399D01*
X131985000Y-80385475D01*
X131002471Y-80385475D01*
X130967932Y-80211842D01*
X130855990Y-79941589D01*
X130788110Y-79840000D01*
X130980883Y-79840000D01*
X131316081Y-79773325D01*
X131631831Y-79642537D01*
X131915998Y-79452663D01*
X132157663Y-79210998D01*
X132347537Y-78926831D01*
X132478325Y-78611081D01*
X132545000Y-78275883D01*
X132545000Y-77934117D01*
X132478325Y-77598919D01*
X132347537Y-77283169D01*
X132157663Y-76999002D01*
X131915998Y-76757337D01*
X131631831Y-76567463D01*
X131570000Y-76541852D01*
X131570000Y-75394117D01*
X135425000Y-75394117D01*
X135425000Y-75735883D01*
X135491675Y-76071081D01*
X135622463Y-76386831D01*
X135812337Y-76670998D01*
X136054002Y-76912663D01*
X136338169Y-77102537D01*
X136653919Y-77233325D01*
X136989117Y-77300000D01*
X137330883Y-77300000D01*
X137666081Y-77233325D01*
X137981831Y-77102537D01*
X138265998Y-76912663D01*
X138507663Y-76670998D01*
X138697537Y-76386831D01*
X138828325Y-76071081D01*
X138895000Y-75735883D01*
X138895000Y-75394117D01*
X138828325Y-75058919D01*
X138697537Y-74743169D01*
X138507663Y-74459002D01*
X138265998Y-74217337D01*
X137981831Y-74027463D01*
X137666081Y-73896675D01*
X137330883Y-73830000D01*
X136989117Y-73830000D01*
X136653919Y-73896675D01*
X136338169Y-74027463D01*
X136054002Y-74217337D01*
X135812337Y-74459002D01*
X135622463Y-74743169D01*
X135491675Y-75058919D01*
X135425000Y-75394117D01*
X131570000Y-75394117D01*
X131570000Y-61335475D01*
X131985000Y-61335475D01*
X131985000Y-61854525D01*
X132086261Y-62363601D01*
X132284893Y-62843141D01*
X132573262Y-63274715D01*
X132940285Y-63641738D01*
X133371859Y-63930107D01*
X133851399Y-64128739D01*
X134360475Y-64230000D01*
X134879525Y-64230000D01*
X135388601Y-64128739D01*
X135868141Y-63930107D01*
X136299715Y-63641738D01*
X136666738Y-63274715D01*
X136955107Y-62843141D01*
X137153739Y-62363601D01*
X137255000Y-61854525D01*
X137255000Y-61448740D01*
X138215000Y-61448740D01*
X138215000Y-61741260D01*
X138272068Y-62028158D01*
X138384010Y-62298411D01*
X138546525Y-62541632D01*
X138753368Y-62748475D01*
X138996589Y-62910990D01*
X139266842Y-63022932D01*
X139553740Y-63080000D01*
X139846260Y-63080000D01*
X140133158Y-63022932D01*
X140403411Y-62910990D01*
X140646632Y-62748475D01*
X140853475Y-62541632D01*
X141015990Y-62298411D01*
X141127932Y-62028158D01*
X141185000Y-61741260D01*
X141185000Y-61448740D01*
X141127932Y-61161842D01*
X141015990Y-60891589D01*
X140853475Y-60648368D01*
X140646632Y-60441525D01*
X140403411Y-60279010D01*
X140133158Y-60167068D01*
X139846260Y-60110000D01*
X139553740Y-60110000D01*
X139266842Y-60167068D01*
X138996589Y-60279010D01*
X138753368Y-60441525D01*
X138546525Y-60648368D01*
X138384010Y-60891589D01*
X138272068Y-61161842D01*
X138215000Y-61448740D01*
X137255000Y-61448740D01*
X137255000Y-61335475D01*
X137153739Y-60826399D01*
X136955107Y-60346859D01*
X136666738Y-59915285D01*
X136299715Y-59548262D01*
X135868141Y-59259893D01*
X135388601Y-59061261D01*
X134879525Y-58960000D01*
X134360475Y-58960000D01*
X133851399Y-59061261D01*
X133371859Y-59259893D01*
X132940285Y-59548262D01*
X132573262Y-59915285D01*
X132284893Y-60346859D01*
X132086261Y-60826399D01*
X131985000Y-61335475D01*
X131570000Y-61335475D01*
X131570000Y-60618148D01*
X131631831Y-60592537D01*
X131915998Y-60402663D01*
X132157663Y-60160998D01*
X132347537Y-59876831D01*
X132478325Y-59561081D01*
X132545000Y-59225883D01*
X132545000Y-58884117D01*
X132478325Y-58548919D01*
X132452714Y-58487088D01*
X135513922Y-55425880D01*
X135801059Y-55425880D01*
X135622463Y-55693169D01*
X135491675Y-56008919D01*
X135425000Y-56344117D01*
X135425000Y-56685883D01*
X135491675Y-57021081D01*
X135622463Y-57336831D01*
X135812337Y-57620998D01*
X136054002Y-57862663D01*
X136338169Y-58052537D01*
X136653919Y-58183325D01*
X136989117Y-58250000D01*
X137330883Y-58250000D01*
X137666081Y-58183325D01*
X137981831Y-58052537D01*
X138265998Y-57862663D01*
X138507663Y-57620998D01*
X138697537Y-57336831D01*
X138828325Y-57021081D01*
X138895000Y-56685883D01*
X138895000Y-56344117D01*
X138828325Y-56008919D01*
X138697537Y-55693169D01*
X138518941Y-55425880D01*
X152414318Y-55425880D01*
X150427912Y-57412286D01*
X150366081Y-57386675D01*
X150030883Y-57320000D01*
X149689117Y-57320000D01*
X149353919Y-57386675D01*
X149038169Y-57517463D01*
X148754002Y-57707337D01*
X148512337Y-57949002D01*
X148322463Y-58233169D01*
X148191675Y-58548919D01*
X148125000Y-58884117D01*
X148125000Y-59225883D01*
X148191675Y-59561081D01*
X148322463Y-59876831D01*
X148478261Y-60110000D01*
X148443740Y-60110000D01*
X148156842Y-60167068D01*
X147886589Y-60279010D01*
X147643368Y-60441525D01*
X147436525Y-60648368D01*
X147274010Y-60891589D01*
X147162068Y-61161842D01*
X147105000Y-61448740D01*
X147105000Y-61741260D01*
X147162068Y-62028158D01*
X147274010Y-62298411D01*
X147436525Y-62541632D01*
X147643368Y-62748475D01*
X147886589Y-62910990D01*
X148156842Y-63022932D01*
X148443740Y-63080000D01*
X148736260Y-63080000D01*
X149023158Y-63022932D01*
X149100000Y-62991103D01*
X149100001Y-76541851D01*
X149038169Y-76567463D01*
X148754002Y-76757337D01*
X148512337Y-76999002D01*
X148322463Y-77283169D01*
X148191675Y-77598919D01*
X148125000Y-77934117D01*
X148125000Y-78275883D01*
X148191675Y-78611081D01*
X148322463Y-78926831D01*
X148478261Y-79160000D01*
X148443740Y-79160000D01*
X148156842Y-79217068D01*
X147886589Y-79329010D01*
X147643368Y-79491525D01*
X147436525Y-79698368D01*
X147274010Y-79941589D01*
X147162068Y-80211842D01*
X147105000Y-80498740D01*
X147105000Y-80791260D01*
X147162068Y-81078158D01*
X147274010Y-81348411D01*
X147436525Y-81591632D01*
X147643368Y-81798475D01*
X147886589Y-81960990D01*
X148156842Y-82072932D01*
X148443740Y-82130000D01*
X148736260Y-82130000D01*
X149023158Y-82072932D01*
X149293411Y-81960990D01*
X149536632Y-81798475D01*
X149743475Y-81591632D01*
X149905990Y-81348411D01*
X150017932Y-81078158D01*
X150075000Y-80791260D01*
X150075000Y-80498740D01*
X150052471Y-80385475D01*
X151035000Y-80385475D01*
X151035000Y-80904525D01*
X151136261Y-81413601D01*
X151334893Y-81893141D01*
X151623262Y-82324715D01*
X151990285Y-82691738D01*
X152421859Y-82980107D01*
X152901399Y-83178739D01*
X153410475Y-83280000D01*
X153929525Y-83280000D01*
X154438601Y-83178739D01*
X154918141Y-82980107D01*
X155349715Y-82691738D01*
X155716738Y-82324715D01*
X156005107Y-81893141D01*
X156203739Y-81413601D01*
X156305000Y-80904525D01*
X156305000Y-80498740D01*
X157265000Y-80498740D01*
X157265000Y-80791260D01*
X157322068Y-81078158D01*
X157434010Y-81348411D01*
X157596525Y-81591632D01*
X157803368Y-81798475D01*
X158046589Y-81960990D01*
X158316842Y-82072932D01*
X158603740Y-82130000D01*
X158896260Y-82130000D01*
X159183158Y-82072932D01*
X159453411Y-81960990D01*
X159696632Y-81798475D01*
X159903475Y-81591632D01*
X160065990Y-81348411D01*
X160177932Y-81078158D01*
X160235000Y-80791260D01*
X160235000Y-80498740D01*
X160232196Y-80484641D01*
X177028440Y-80484641D01*
X177028440Y-80688519D01*
X177068214Y-80888478D01*
X177146235Y-81076836D01*
X177259503Y-81246354D01*
X177403666Y-81390517D01*
X177573184Y-81503785D01*
X177761542Y-81581806D01*
X177961501Y-81621580D01*
X178022812Y-81621580D01*
X178114144Y-81696534D01*
X178246173Y-81767106D01*
X178389434Y-81810563D01*
X178501087Y-81821560D01*
X178501096Y-81821560D01*
X178538419Y-81825236D01*
X178575742Y-81821560D01*
X178859729Y-81821560D01*
X178903666Y-81865497D01*
X179073184Y-81978765D01*
X179261542Y-82056786D01*
X179461501Y-82096560D01*
X179665379Y-82096560D01*
X179865338Y-82056786D01*
X180053696Y-81978765D01*
X180223214Y-81865497D01*
X180367377Y-81721334D01*
X180480645Y-81551816D01*
X180558666Y-81363458D01*
X180598440Y-81163499D01*
X180598440Y-80959621D01*
X180558666Y-80759662D01*
X180480645Y-80571304D01*
X180367377Y-80401786D01*
X180223214Y-80257623D01*
X180053696Y-80144355D01*
X179865338Y-80066334D01*
X179665379Y-80026560D01*
X179461501Y-80026560D01*
X179261542Y-80066334D01*
X179073184Y-80144355D01*
X179016287Y-80182372D01*
X178980645Y-80096324D01*
X178867377Y-79926806D01*
X178723214Y-79782643D01*
X178553696Y-79669375D01*
X178365338Y-79591354D01*
X178165379Y-79551580D01*
X177961501Y-79551580D01*
X177761542Y-79591354D01*
X177573184Y-79669375D01*
X177403666Y-79782643D01*
X177259503Y-79926806D01*
X177146235Y-80096324D01*
X177068214Y-80284682D01*
X177028440Y-80484641D01*
X160232196Y-80484641D01*
X160177932Y-80211842D01*
X160065990Y-79941589D01*
X159903475Y-79698368D01*
X159696632Y-79491525D01*
X159453411Y-79329010D01*
X159183158Y-79217068D01*
X158896260Y-79160000D01*
X158603740Y-79160000D01*
X158316842Y-79217068D01*
X158046589Y-79329010D01*
X157803368Y-79491525D01*
X157596525Y-79698368D01*
X157434010Y-79941589D01*
X157322068Y-80211842D01*
X157265000Y-80498740D01*
X156305000Y-80498740D01*
X156305000Y-80385475D01*
X156203739Y-79876399D01*
X156005107Y-79396859D01*
X155716738Y-78965285D01*
X155349715Y-78598262D01*
X154918141Y-78309893D01*
X154438601Y-78111261D01*
X153929525Y-78010000D01*
X153410475Y-78010000D01*
X152901399Y-78111261D01*
X152421859Y-78309893D01*
X151990285Y-78598262D01*
X151623262Y-78965285D01*
X151334893Y-79396859D01*
X151136261Y-79876399D01*
X151035000Y-80385475D01*
X150052471Y-80385475D01*
X150017932Y-80211842D01*
X149905990Y-79941589D01*
X149838110Y-79840000D01*
X150030883Y-79840000D01*
X150366081Y-79773325D01*
X150681831Y-79642537D01*
X150965998Y-79452663D01*
X151207663Y-79210998D01*
X151397537Y-78926831D01*
X151528325Y-78611081D01*
X151595000Y-78275883D01*
X151595000Y-77934117D01*
X151528325Y-77598919D01*
X151397537Y-77283169D01*
X151207663Y-76999002D01*
X150965998Y-76757337D01*
X150681831Y-76567463D01*
X150620000Y-76541852D01*
X150620000Y-75394117D01*
X154475000Y-75394117D01*
X154475000Y-75735883D01*
X154541675Y-76071081D01*
X154672463Y-76386831D01*
X154862337Y-76670998D01*
X155104002Y-76912663D01*
X155388169Y-77102537D01*
X155703919Y-77233325D01*
X156039117Y-77300000D01*
X156380883Y-77300000D01*
X156716081Y-77233325D01*
X157031831Y-77102537D01*
X157315998Y-76912663D01*
X157557663Y-76670998D01*
X157747537Y-76386831D01*
X157878325Y-76071081D01*
X157945000Y-75735883D01*
X157945000Y-75394117D01*
X157878325Y-75058919D01*
X157747537Y-74743169D01*
X157557663Y-74459002D01*
X157315998Y-74217337D01*
X157031831Y-74027463D01*
X156716081Y-73896675D01*
X156380883Y-73830000D01*
X156039117Y-73830000D01*
X155703919Y-73896675D01*
X155388169Y-74027463D01*
X155104002Y-74217337D01*
X154862337Y-74459002D01*
X154672463Y-74743169D01*
X154541675Y-75058919D01*
X154475000Y-75394117D01*
X150620000Y-75394117D01*
X150620000Y-61335475D01*
X151035000Y-61335475D01*
X151035000Y-61854525D01*
X151136261Y-62363601D01*
X151334893Y-62843141D01*
X151623262Y-63274715D01*
X151990285Y-63641738D01*
X152421859Y-63930107D01*
X152901399Y-64128739D01*
X153410475Y-64230000D01*
X153929525Y-64230000D01*
X154438601Y-64128739D01*
X154918141Y-63930107D01*
X155349715Y-63641738D01*
X155716738Y-63274715D01*
X156005107Y-62843141D01*
X156203739Y-62363601D01*
X156305000Y-61854525D01*
X156305000Y-61448740D01*
X157265000Y-61448740D01*
X157265000Y-61741260D01*
X157322068Y-62028158D01*
X157434010Y-62298411D01*
X157596525Y-62541632D01*
X157803368Y-62748475D01*
X158046589Y-62910990D01*
X158316842Y-63022932D01*
X158603740Y-63080000D01*
X158896260Y-63080000D01*
X159183158Y-63022932D01*
X159453411Y-62910990D01*
X159696632Y-62748475D01*
X159903475Y-62541632D01*
X160065990Y-62298411D01*
X160177932Y-62028158D01*
X160235000Y-61741260D01*
X160235000Y-61448740D01*
X160177932Y-61161842D01*
X160065990Y-60891589D01*
X159903475Y-60648368D01*
X159696632Y-60441525D01*
X159453411Y-60279010D01*
X159183158Y-60167068D01*
X158896260Y-60110000D01*
X158603740Y-60110000D01*
X158316842Y-60167068D01*
X158046589Y-60279010D01*
X157803368Y-60441525D01*
X157596525Y-60648368D01*
X157434010Y-60891589D01*
X157322068Y-61161842D01*
X157265000Y-61448740D01*
X156305000Y-61448740D01*
X156305000Y-61335475D01*
X156203739Y-60826399D01*
X156005107Y-60346859D01*
X155716738Y-59915285D01*
X155349715Y-59548262D01*
X154918141Y-59259893D01*
X154438601Y-59061261D01*
X153929525Y-58960000D01*
X153410475Y-58960000D01*
X152901399Y-59061261D01*
X152421859Y-59259893D01*
X151990285Y-59548262D01*
X151623262Y-59915285D01*
X151334893Y-60346859D01*
X151136261Y-60826399D01*
X151035000Y-61335475D01*
X150620000Y-61335475D01*
X150620000Y-60618148D01*
X150681831Y-60592537D01*
X150965998Y-60402663D01*
X151207663Y-60160998D01*
X151397537Y-59876831D01*
X151528325Y-59561081D01*
X151595000Y-59225883D01*
X151595000Y-58884117D01*
X151528325Y-58548919D01*
X151502714Y-58487088D01*
X154563922Y-55425880D01*
X154851059Y-55425880D01*
X154672463Y-55693169D01*
X154541675Y-56008919D01*
X154475000Y-56344117D01*
X154475000Y-56685883D01*
X154541675Y-57021081D01*
X154672463Y-57336831D01*
X154862337Y-57620998D01*
X155104002Y-57862663D01*
X155388169Y-58052537D01*
X155703919Y-58183325D01*
X156039117Y-58250000D01*
X156380883Y-58250000D01*
X156716081Y-58183325D01*
X157031831Y-58052537D01*
X157315998Y-57862663D01*
X157557663Y-57620998D01*
X157747537Y-57336831D01*
X157878325Y-57021081D01*
X157945000Y-56685883D01*
X157945000Y-56344117D01*
X157878325Y-56008919D01*
X157747537Y-55693169D01*
X157568941Y-55425880D01*
X163207859Y-55425880D01*
X168398997Y-60617019D01*
X168399003Y-60617024D01*
X171643289Y-63861310D01*
X171595715Y-63865996D01*
X171452454Y-63909453D01*
X171320425Y-63980025D01*
X171204700Y-64074998D01*
X171180902Y-64103996D01*
X168399003Y-66885896D01*
X168369999Y-66909699D01*
X168350073Y-66933979D01*
X168088169Y-67042463D01*
X167804002Y-67232337D01*
X167562337Y-67474002D01*
X167372463Y-67758169D01*
X167241675Y-68073919D01*
X167175000Y-68409117D01*
X167175000Y-68750883D01*
X167241675Y-69086081D01*
X167372463Y-69401831D01*
X167528261Y-69635000D01*
X167493740Y-69635000D01*
X167206842Y-69692068D01*
X166936589Y-69804010D01*
X166693368Y-69966525D01*
X166486525Y-70173368D01*
X166324010Y-70416589D01*
X166212068Y-70686842D01*
X166155000Y-70973740D01*
X166155000Y-71266260D01*
X166212068Y-71553158D01*
X166324010Y-71823411D01*
X166486525Y-72066632D01*
X166693368Y-72273475D01*
X166936589Y-72435990D01*
X167206842Y-72547932D01*
X167493740Y-72605000D01*
X167786260Y-72605000D01*
X168073158Y-72547932D01*
X168343411Y-72435990D01*
X168586632Y-72273475D01*
X168793475Y-72066632D01*
X168955990Y-71823411D01*
X169067932Y-71553158D01*
X169125000Y-71266260D01*
X169125000Y-70973740D01*
X169102471Y-70860475D01*
X170085000Y-70860475D01*
X170085000Y-71379525D01*
X170186261Y-71888601D01*
X170384893Y-72368141D01*
X170673262Y-72799715D01*
X171040285Y-73166738D01*
X171471859Y-73455107D01*
X171951399Y-73653739D01*
X172460475Y-73755000D01*
X172979525Y-73755000D01*
X173488601Y-73653739D01*
X173968141Y-73455107D01*
X174399715Y-73166738D01*
X174766738Y-72799715D01*
X175055107Y-72368141D01*
X175253739Y-71888601D01*
X175355000Y-71379525D01*
X175355000Y-70860475D01*
X175253739Y-70351399D01*
X175055107Y-69871859D01*
X174766738Y-69440285D01*
X174399715Y-69073262D01*
X173968141Y-68784893D01*
X173488601Y-68586261D01*
X172979525Y-68485000D01*
X172460475Y-68485000D01*
X171951399Y-68586261D01*
X171471859Y-68784893D01*
X171040285Y-69073262D01*
X170673262Y-69440285D01*
X170384893Y-69871859D01*
X170186261Y-70351399D01*
X170085000Y-70860475D01*
X169102471Y-70860475D01*
X169067932Y-70686842D01*
X168955990Y-70416589D01*
X168888110Y-70315000D01*
X169080883Y-70315000D01*
X169416081Y-70248325D01*
X169731831Y-70117537D01*
X170015998Y-69927663D01*
X170257663Y-69685998D01*
X170447537Y-69401831D01*
X170578325Y-69086081D01*
X170645000Y-68750883D01*
X170645000Y-68409117D01*
X170578325Y-68073919D01*
X170447537Y-67758169D01*
X170257663Y-67474002D01*
X170109081Y-67325420D01*
X172059503Y-65374999D01*
X173434454Y-65374999D01*
X173471779Y-65378675D01*
X173509104Y-65374999D01*
X173657502Y-65374999D01*
X173591675Y-65533919D01*
X173525000Y-65869117D01*
X173525000Y-66210883D01*
X173591675Y-66546081D01*
X173722463Y-66861831D01*
X173912337Y-67145998D01*
X174154002Y-67387663D01*
X174438169Y-67577537D01*
X174753919Y-67708325D01*
X175089117Y-67775000D01*
X175430883Y-67775000D01*
X175766081Y-67708325D01*
X175827912Y-67682714D01*
X177780199Y-69635000D01*
X177653740Y-69635000D01*
X177366842Y-69692068D01*
X177096589Y-69804010D01*
X176853368Y-69966525D01*
X176646525Y-70173368D01*
X176484010Y-70416589D01*
X176372068Y-70686842D01*
X176315000Y-70973740D01*
X176315000Y-71266260D01*
X176372068Y-71553158D01*
X176484010Y-71823411D01*
X176646525Y-72066632D01*
X176853368Y-72273475D01*
X177096589Y-72435990D01*
X177366842Y-72547932D01*
X177653740Y-72605000D01*
X177946260Y-72605000D01*
X178233158Y-72547932D01*
X178503411Y-72435990D01*
X178746632Y-72273475D01*
X178953475Y-72066632D01*
X179115990Y-71823411D01*
X179227932Y-71553158D01*
X179285000Y-71266260D01*
X179285000Y-71139802D01*
X183127520Y-74982322D01*
X183127521Y-81093057D01*
X181681279Y-82539300D01*
X174696760Y-82539300D01*
X174659437Y-82535624D01*
X174622114Y-82539300D01*
X174622105Y-82539300D01*
X174510452Y-82550297D01*
X174367191Y-82593754D01*
X174235162Y-82664326D01*
X174119437Y-82759299D01*
X174095639Y-82788297D01*
X173308822Y-83575115D01*
X173279819Y-83598917D01*
X173244890Y-83641479D01*
X173184846Y-83714642D01*
X173114275Y-83846671D01*
X173114274Y-83846672D01*
X173070817Y-83989933D01*
X173059820Y-84101586D01*
X173059820Y-84101596D01*
X173056144Y-84138918D01*
X173059820Y-84176241D01*
X173059821Y-85362548D01*
X173056144Y-85399880D01*
X173059821Y-85437213D01*
X173070790Y-85548576D01*
X173070818Y-85548865D01*
X173114274Y-85692126D01*
X173184846Y-85824156D01*
X173256021Y-85910882D01*
X173279820Y-85939881D01*
X173308818Y-85963679D01*
X173689060Y-86343922D01*
X173689060Y-86406059D01*
X173728834Y-86606018D01*
X173806855Y-86794376D01*
X173920123Y-86963894D01*
X174064286Y-87108057D01*
X174233804Y-87221325D01*
X174422162Y-87299346D01*
X174622121Y-87339120D01*
X174825999Y-87339120D01*
X175025958Y-87299346D01*
X175214316Y-87221325D01*
X175383834Y-87108057D01*
X175527997Y-86963894D01*
X175641265Y-86794376D01*
X175719286Y-86606018D01*
X175759060Y-86406059D01*
X175759060Y-86202181D01*
X175719286Y-86002222D01*
X175641265Y-85813864D01*
X175527997Y-85644346D01*
X175383834Y-85500183D01*
X175214316Y-85386915D01*
X175025958Y-85308894D01*
X174949529Y-85293691D01*
X175056438Y-85272426D01*
X175244796Y-85194405D01*
X175414314Y-85081137D01*
X175458251Y-85037200D01*
X178162298Y-85037200D01*
X175103359Y-88096140D01*
X175041221Y-88096140D01*
X174841262Y-88135914D01*
X174652904Y-88213935D01*
X174483386Y-88327203D01*
X174339223Y-88471366D01*
X174225955Y-88640884D01*
X174147934Y-88829242D01*
X174108160Y-89029201D01*
X174108160Y-89233079D01*
X174147934Y-89433038D01*
X174225955Y-89621396D01*
X174339223Y-89790914D01*
X174483386Y-89935077D01*
X174652904Y-90048345D01*
X174841262Y-90126366D01*
X175041221Y-90166140D01*
X175245099Y-90166140D01*
X175445058Y-90126366D01*
X175633416Y-90048345D01*
X175802934Y-89935077D01*
X175947097Y-89790914D01*
X176060365Y-89621396D01*
X176138386Y-89433038D01*
X176178160Y-89233079D01*
X176178160Y-89170941D01*
X180311902Y-85037200D01*
X181973235Y-85037200D01*
X181999906Y-85087098D01*
X182094879Y-85202823D01*
X182123881Y-85226624D01*
X183933560Y-87036304D01*
X183933560Y-87119329D01*
X183889623Y-87163266D01*
X183776355Y-87332784D01*
X183698334Y-87521142D01*
X183658560Y-87721101D01*
X183658560Y-87924979D01*
X183698334Y-88124938D01*
X183776355Y-88313296D01*
X183889623Y-88482814D01*
X184033786Y-88626977D01*
X184203304Y-88740245D01*
X184391662Y-88818266D01*
X184591621Y-88858040D01*
X184795499Y-88858040D01*
X184995458Y-88818266D01*
X185183816Y-88740245D01*
X185353334Y-88626977D01*
X185497497Y-88482814D01*
X185610765Y-88313296D01*
X185688786Y-88124938D01*
X185728560Y-87924979D01*
X185728560Y-87721101D01*
X185688786Y-87521142D01*
X185610765Y-87332784D01*
X185497497Y-87163266D01*
X185453560Y-87119329D01*
X185453560Y-86758824D01*
X185457236Y-86721501D01*
X185453560Y-86684178D01*
X185453560Y-86684169D01*
X185442563Y-86572516D01*
X185399106Y-86429255D01*
X185328534Y-86297226D01*
X185233561Y-86181501D01*
X185204564Y-86157704D01*
X184562715Y-85515856D01*
X184633897Y-85444674D01*
X184747165Y-85275156D01*
X184825186Y-85086798D01*
X184864960Y-84886839D01*
X184864960Y-84824702D01*
X185298544Y-84391118D01*
X185327541Y-84367321D01*
X185422514Y-84251596D01*
X185493086Y-84119567D01*
X185536543Y-83976306D01*
X185547540Y-83864653D01*
X185547540Y-83864652D01*
X185551217Y-83827320D01*
X185547540Y-83789987D01*
X185547540Y-76574674D01*
X185668000Y-76600000D01*
X186193000Y-76600000D01*
X186193000Y-75567000D01*
X186447000Y-75567000D01*
X186447000Y-76600000D01*
X186972000Y-76600000D01*
X187195865Y-76552934D01*
X187406246Y-76463099D01*
X187595059Y-76333947D01*
X187755047Y-76170441D01*
X187880063Y-75978864D01*
X187963964Y-75745810D01*
X188856036Y-75745810D01*
X188939937Y-75978864D01*
X189064953Y-76170441D01*
X189224941Y-76333947D01*
X189413754Y-76463099D01*
X189624135Y-76552934D01*
X189848000Y-76600000D01*
X190373000Y-76600000D01*
X190373000Y-75567000D01*
X190627000Y-75567000D01*
X190627000Y-76600000D01*
X191152000Y-76600000D01*
X191375865Y-76552934D01*
X191586246Y-76463099D01*
X191775059Y-76333947D01*
X191935047Y-76170441D01*
X192060063Y-75978864D01*
X192143964Y-75745810D01*
X192018163Y-75567000D01*
X190627000Y-75567000D01*
X190373000Y-75567000D01*
X188981837Y-75567000D01*
X188856036Y-75745810D01*
X187963964Y-75745810D01*
X187838163Y-75567000D01*
X186447000Y-75567000D01*
X186193000Y-75567000D01*
X186173000Y-75567000D01*
X186173000Y-75313000D01*
X186193000Y-75313000D01*
X186193000Y-75293000D01*
X186447000Y-75293000D01*
X186447000Y-75313000D01*
X187838163Y-75313000D01*
X187963964Y-75134190D01*
X188856036Y-75134190D01*
X188981837Y-75313000D01*
X190373000Y-75313000D01*
X190373000Y-74280000D01*
X190627000Y-74280000D01*
X190627000Y-75313000D01*
X192018163Y-75313000D01*
X192143964Y-75134190D01*
X192060063Y-74901136D01*
X191935047Y-74709559D01*
X191775059Y-74546053D01*
X191586246Y-74416901D01*
X191375865Y-74327066D01*
X191152000Y-74280000D01*
X190627000Y-74280000D01*
X190373000Y-74280000D01*
X189848000Y-74280000D01*
X189624135Y-74327066D01*
X189413754Y-74416901D01*
X189224941Y-74546053D01*
X189064953Y-74709559D01*
X188939937Y-74901136D01*
X188856036Y-75134190D01*
X187963964Y-75134190D01*
X187880063Y-74901136D01*
X187755047Y-74709559D01*
X187643435Y-74595493D01*
X187722896Y-74476572D01*
X187797147Y-74297314D01*
X187835000Y-74107014D01*
X187835000Y-73912986D01*
X187797147Y-73722686D01*
X187722896Y-73543428D01*
X187615099Y-73382099D01*
X187477901Y-73244901D01*
X187316572Y-73137104D01*
X187137314Y-73062853D01*
X186947014Y-73025000D01*
X186752986Y-73025000D01*
X186562686Y-73062853D01*
X186383428Y-73137104D01*
X186222099Y-73244901D01*
X186084901Y-73382099D01*
X185977104Y-73543428D01*
X185902853Y-73722686D01*
X185865000Y-73912986D01*
X185865000Y-74107014D01*
X185899409Y-74280000D01*
X185668000Y-74280000D01*
X185547540Y-74305326D01*
X185547540Y-67934674D01*
X185668000Y-67960000D01*
X185899409Y-67960000D01*
X185865000Y-68132986D01*
X185865000Y-68327014D01*
X185902853Y-68517314D01*
X185977104Y-68696572D01*
X186084901Y-68857901D01*
X186222099Y-68995099D01*
X186383428Y-69102896D01*
X186562686Y-69177147D01*
X186752986Y-69215000D01*
X186947014Y-69215000D01*
X187137314Y-69177147D01*
X187316572Y-69102896D01*
X187477901Y-68995099D01*
X187615099Y-68857901D01*
X187722896Y-68696572D01*
X187797147Y-68517314D01*
X187835000Y-68327014D01*
X187835000Y-68132986D01*
X187797147Y-67942686D01*
X187722896Y-67763428D01*
X187643435Y-67644507D01*
X187755047Y-67530441D01*
X187880063Y-67338864D01*
X187963964Y-67105810D01*
X188856036Y-67105810D01*
X188939937Y-67338864D01*
X189064953Y-67530441D01*
X189224941Y-67693947D01*
X189413754Y-67823099D01*
X189624135Y-67912934D01*
X189848000Y-67960000D01*
X190373000Y-67960000D01*
X190373000Y-66927000D01*
X190627000Y-66927000D01*
X190627000Y-67960000D01*
X191152000Y-67960000D01*
X191375865Y-67912934D01*
X191586246Y-67823099D01*
X191775059Y-67693947D01*
X191935047Y-67530441D01*
X192060063Y-67338864D01*
X192143964Y-67105810D01*
X192018163Y-66927000D01*
X190627000Y-66927000D01*
X190373000Y-66927000D01*
X188981837Y-66927000D01*
X188856036Y-67105810D01*
X187963964Y-67105810D01*
X187838163Y-66927000D01*
X186447000Y-66927000D01*
X186447000Y-66947000D01*
X186193000Y-66947000D01*
X186193000Y-66927000D01*
X186173000Y-66927000D01*
X186173000Y-66673000D01*
X186193000Y-66673000D01*
X186193000Y-65640000D01*
X186447000Y-65640000D01*
X186447000Y-66673000D01*
X187838163Y-66673000D01*
X187963964Y-66494190D01*
X188856036Y-66494190D01*
X188981837Y-66673000D01*
X190373000Y-66673000D01*
X190373000Y-65640000D01*
X190627000Y-65640000D01*
X190627000Y-66673000D01*
X192018163Y-66673000D01*
X192143964Y-66494190D01*
X192060063Y-66261136D01*
X191935047Y-66069559D01*
X191775059Y-65906053D01*
X191586246Y-65776901D01*
X191375865Y-65687066D01*
X191152000Y-65640000D01*
X190627000Y-65640000D01*
X190373000Y-65640000D01*
X189848000Y-65640000D01*
X189624135Y-65687066D01*
X189413754Y-65776901D01*
X189224941Y-65906053D01*
X189064953Y-66069559D01*
X188939937Y-66261136D01*
X188856036Y-66494190D01*
X187963964Y-66494190D01*
X187880063Y-66261136D01*
X187755047Y-66069559D01*
X187595059Y-65906053D01*
X187406246Y-65776901D01*
X187195865Y-65687066D01*
X186972000Y-65640000D01*
X186447000Y-65640000D01*
X186193000Y-65640000D01*
X185718781Y-65640000D01*
X187383884Y-63974898D01*
X187412881Y-63951101D01*
X187447061Y-63909453D01*
X187507854Y-63835377D01*
X187578426Y-63703347D01*
X187594766Y-63649481D01*
X187621883Y-63560086D01*
X187632880Y-63448433D01*
X187632880Y-63448424D01*
X187636556Y-63411101D01*
X187632880Y-63373778D01*
X187632880Y-56403371D01*
X187666657Y-56369594D01*
X187779925Y-56200076D01*
X187857946Y-56011718D01*
X187897720Y-55811759D01*
X187897720Y-55607881D01*
X187857946Y-55407922D01*
X187779925Y-55219564D01*
X187666657Y-55050046D01*
X187522494Y-54905883D01*
X187352976Y-54792615D01*
X187164618Y-54714594D01*
X186964659Y-54674820D01*
X186760781Y-54674820D01*
X186560822Y-54714594D01*
X186372464Y-54792615D01*
X186202946Y-54905883D01*
X186058783Y-55050046D01*
X185945515Y-55219564D01*
X185867494Y-55407922D01*
X185827720Y-55607881D01*
X185827720Y-55811759D01*
X185867494Y-56011718D01*
X185945515Y-56200076D01*
X186058783Y-56369594D01*
X186112881Y-56423692D01*
X186112880Y-60265604D01*
X185969978Y-60170120D01*
X185777071Y-60090215D01*
X185572281Y-60049480D01*
X185363479Y-60049480D01*
X185158689Y-60090215D01*
X185141483Y-60097342D01*
X185137060Y-60094978D01*
X185026239Y-60061361D01*
X185060085Y-60010706D01*
X185138106Y-59822348D01*
X185177880Y-59622389D01*
X185177880Y-59418511D01*
X185138106Y-59218552D01*
X185060085Y-59030194D01*
X184946817Y-58860676D01*
X184802654Y-58716513D01*
X184633136Y-58603245D01*
X184444778Y-58525224D01*
X184244819Y-58485450D01*
X184040941Y-58485450D01*
X183840982Y-58525224D01*
X183652624Y-58603245D01*
X183483106Y-58716513D01*
X183338943Y-58860676D01*
X183225675Y-59030194D01*
X183147654Y-59218552D01*
X183107880Y-59418511D01*
X183107880Y-59480648D01*
X182343598Y-60244931D01*
X182314600Y-60268729D01*
X182290802Y-60297727D01*
X182290801Y-60297728D01*
X182219626Y-60384454D01*
X182149054Y-60516484D01*
X182132979Y-60569479D01*
X182105598Y-60659744D01*
X182100865Y-60707802D01*
X182090924Y-60808730D01*
X182094601Y-60846062D01*
X182094600Y-62286657D01*
X182090924Y-62323980D01*
X182093631Y-62351465D01*
X182049332Y-62342653D01*
X181845454Y-62342653D01*
X181645495Y-62382427D01*
X181457137Y-62460448D01*
X181287619Y-62573716D01*
X181143456Y-62717879D01*
X181030188Y-62887397D01*
X180952167Y-63075755D01*
X180912393Y-63275714D01*
X180912393Y-63337851D01*
X178236423Y-66013822D01*
X178207419Y-66037625D01*
X178153600Y-66103204D01*
X178153600Y-64997822D01*
X178157276Y-64960499D01*
X178153600Y-64923176D01*
X178153600Y-64923167D01*
X178142603Y-64811514D01*
X178099146Y-64668253D01*
X178028574Y-64536224D01*
X177933601Y-64420499D01*
X177904597Y-64396696D01*
X177611903Y-64104002D01*
X177588100Y-64074998D01*
X177472375Y-63980025D01*
X177340346Y-63909453D01*
X177197085Y-63865996D01*
X177085432Y-63854999D01*
X177085421Y-63854999D01*
X177048099Y-63851323D01*
X177010777Y-63854999D01*
X173786581Y-63854999D01*
X169991518Y-60059936D01*
X172248410Y-60059936D01*
X172488556Y-60447179D01*
X172982457Y-60707802D01*
X173517713Y-60867062D01*
X174073754Y-60918839D01*
X174629212Y-60861142D01*
X175162741Y-60696189D01*
X175628604Y-60447179D01*
X175868750Y-60059936D01*
X174058580Y-58249766D01*
X172248410Y-60059936D01*
X169991518Y-60059936D01*
X169473804Y-59542223D01*
X169473799Y-59542217D01*
X168016917Y-58085335D01*
X171209902Y-58085335D01*
X171267599Y-58640793D01*
X171432552Y-59174322D01*
X171681562Y-59640185D01*
X172068805Y-59880331D01*
X173878975Y-58070161D01*
X174238185Y-58070161D01*
X176048355Y-59880331D01*
X176435598Y-59640185D01*
X176696221Y-59146284D01*
X176855481Y-58611028D01*
X176907258Y-58054987D01*
X176849561Y-57499529D01*
X176684608Y-56966000D01*
X176435598Y-56500137D01*
X176048355Y-56259991D01*
X174238185Y-58070161D01*
X173878975Y-58070161D01*
X172068805Y-56259991D01*
X171681562Y-56500137D01*
X171420939Y-56994038D01*
X171261679Y-57529294D01*
X171209902Y-58085335D01*
X168016917Y-58085335D01*
X166011968Y-56080386D01*
X172248410Y-56080386D01*
X174058580Y-57890556D01*
X175868750Y-56080386D01*
X175628604Y-55693143D01*
X175134703Y-55432520D01*
X174599447Y-55273260D01*
X174043406Y-55221483D01*
X173487948Y-55279180D01*
X172954419Y-55444133D01*
X172488556Y-55693143D01*
X172248410Y-56080386D01*
X166011968Y-56080386D01*
X164086464Y-54154883D01*
X164062661Y-54125879D01*
X163946936Y-54030906D01*
X163814907Y-53960334D01*
X163671646Y-53916877D01*
X163559993Y-53905880D01*
X163559982Y-53905880D01*
X163522660Y-53902204D01*
X163485338Y-53905880D01*
X154286442Y-53905880D01*
X154249119Y-53902204D01*
X154211796Y-53905880D01*
X135236442Y-53905880D01*
X135199119Y-53902204D01*
X135161796Y-53905880D01*
X116186442Y-53905880D01*
X116149119Y-53902204D01*
X116111796Y-53905880D01*
X116111787Y-53905880D01*
X116000134Y-53916877D01*
X115856873Y-53960334D01*
X115724843Y-54030906D01*
X115641203Y-54099548D01*
X115609119Y-54125879D01*
X115585321Y-54154877D01*
X112327912Y-57412286D01*
X112266081Y-57386675D01*
X111930883Y-57320000D01*
X111589117Y-57320000D01*
X111253919Y-57386675D01*
X110938169Y-57517463D01*
X110654002Y-57707337D01*
X110412337Y-57949002D01*
X110222463Y-58233169D01*
X110091675Y-58548919D01*
X110025000Y-58884117D01*
X110025000Y-59225883D01*
X110091675Y-59561081D01*
X110222463Y-59876831D01*
X110378261Y-60110000D01*
X110343740Y-60110000D01*
X110056842Y-60167068D01*
X109786589Y-60279010D01*
X109543368Y-60441525D01*
X109336525Y-60648368D01*
X109174010Y-60891589D01*
X109062068Y-61161842D01*
X109005000Y-61448740D01*
X104800000Y-61448740D01*
X104800000Y-56392807D01*
X108892920Y-56392807D01*
X108892920Y-56631353D01*
X108939458Y-56865316D01*
X109030745Y-57085704D01*
X109163274Y-57284048D01*
X109331952Y-57452726D01*
X109530296Y-57585255D01*
X109750684Y-57676542D01*
X109984647Y-57723080D01*
X110223193Y-57723080D01*
X110457156Y-57676542D01*
X110677544Y-57585255D01*
X110875888Y-57452726D01*
X111044566Y-57284048D01*
X111177095Y-57085704D01*
X111268382Y-56865316D01*
X111314920Y-56631353D01*
X111314920Y-56392807D01*
X111268382Y-56158844D01*
X111177095Y-55938456D01*
X111044566Y-55740112D01*
X110875888Y-55571434D01*
X110677544Y-55438905D01*
X110457156Y-55347618D01*
X110223193Y-55301080D01*
X109984647Y-55301080D01*
X109750684Y-55347618D01*
X109530296Y-55438905D01*
X109331952Y-55571434D01*
X109163274Y-55740112D01*
X109030745Y-55938456D01*
X108939458Y-56158844D01*
X108892920Y-56392807D01*
X104800000Y-56392807D01*
X104800000Y-52180727D01*
X188689000Y-52180727D01*
X188689000Y-52419273D01*
X188735538Y-52653236D01*
X188826825Y-52873624D01*
X188959354Y-53071968D01*
X189128032Y-53240646D01*
X189326376Y-53373175D01*
X189546764Y-53464462D01*
X189780727Y-53511000D01*
X190019273Y-53511000D01*
X190253236Y-53464462D01*
X190473624Y-53373175D01*
X190671968Y-53240646D01*
X190840646Y-53071968D01*
X190973175Y-52873624D01*
X191064462Y-52653236D01*
X191111000Y-52419273D01*
X191111000Y-52180727D01*
X191064462Y-51946764D01*
X190973175Y-51726376D01*
X190840646Y-51528032D01*
X190671968Y-51359354D01*
X190473624Y-51226825D01*
X190253236Y-51135538D01*
X190019273Y-51089000D01*
X189780727Y-51089000D01*
X189546764Y-51135538D01*
X189326376Y-51226825D01*
X189128032Y-51359354D01*
X188959354Y-51528032D01*
X188826825Y-51726376D01*
X188735538Y-51946764D01*
X188689000Y-52180727D01*
X104800000Y-52180727D01*
X104800000Y-52102279D01*
X104838909Y-51705455D01*
X104944780Y-51354792D01*
X105116744Y-51031375D01*
X105348254Y-50747516D01*
X105630486Y-50514035D01*
X105952695Y-50339817D01*
X106302614Y-50231498D01*
X106697443Y-50190000D01*
X190467721Y-50190000D01*
X190864545Y-50228909D01*
%TA.AperFunction,Conductor*%
D18*
G36*
X190864545Y-50228909D02*
G01*
X191215208Y-50334780D01*
X191538625Y-50506744D01*
X191822484Y-50738254D01*
X192055965Y-51020486D01*
X192230183Y-51342695D01*
X192338502Y-51692614D01*
X192380000Y-52087443D01*
X192380001Y-90137711D01*
X192341091Y-90534545D01*
X192235220Y-90885206D01*
X192063257Y-91208623D01*
X191831748Y-91492482D01*
X191549514Y-91725965D01*
X191227304Y-91900184D01*
X190877385Y-92008502D01*
X190482557Y-92050000D01*
X106712279Y-92050000D01*
X106315455Y-92011091D01*
X105964794Y-91905220D01*
X105641377Y-91733257D01*
X105357518Y-91501748D01*
X105124035Y-91219514D01*
X104949816Y-90897304D01*
X104841498Y-90547385D01*
X104800000Y-90152557D01*
X104800000Y-85562927D01*
X108892920Y-85562927D01*
X108892920Y-85801473D01*
X108939458Y-86035436D01*
X109030745Y-86255824D01*
X109163274Y-86454168D01*
X109331952Y-86622846D01*
X109530296Y-86755375D01*
X109750684Y-86846662D01*
X109984647Y-86893200D01*
X110223193Y-86893200D01*
X110457156Y-86846662D01*
X110532110Y-86815615D01*
X123254350Y-86815615D01*
X123494496Y-87202858D01*
X123988397Y-87463481D01*
X124523653Y-87622741D01*
X125079694Y-87674518D01*
X125635152Y-87616821D01*
X126168681Y-87451868D01*
X126634544Y-87202858D01*
X126874690Y-86815615D01*
X125064520Y-85005445D01*
X123254350Y-86815615D01*
X110532110Y-86815615D01*
X110677544Y-86755375D01*
X110875888Y-86622846D01*
X111044566Y-86454168D01*
X111177095Y-86255824D01*
X111268382Y-86035436D01*
X111314920Y-85801473D01*
X111314920Y-85562927D01*
X111268382Y-85328964D01*
X111177095Y-85108576D01*
X111044566Y-84910232D01*
X110975348Y-84841014D01*
X122215842Y-84841014D01*
X122273539Y-85396472D01*
X122438492Y-85930001D01*
X122687502Y-86395864D01*
X123074745Y-86636010D01*
X124884915Y-84825840D01*
X125244125Y-84825840D01*
X127054295Y-86636010D01*
X127441538Y-86395864D01*
X127702161Y-85901963D01*
X127861421Y-85366707D01*
X127913198Y-84810666D01*
X127855501Y-84255208D01*
X127690548Y-83721679D01*
X127441538Y-83255816D01*
X127054295Y-83015670D01*
X125244125Y-84825840D01*
X124884915Y-84825840D01*
X123074745Y-83015670D01*
X122687502Y-83255816D01*
X122426879Y-83749717D01*
X122267619Y-84284973D01*
X122215842Y-84841014D01*
X110975348Y-84841014D01*
X110875888Y-84741554D01*
X110677544Y-84609025D01*
X110457156Y-84517738D01*
X110223193Y-84471200D01*
X109984647Y-84471200D01*
X109750684Y-84517738D01*
X109530296Y-84609025D01*
X109331952Y-84741554D01*
X109163274Y-84910232D01*
X109030745Y-85108576D01*
X108939458Y-85328964D01*
X108892920Y-85562927D01*
X104800000Y-85562927D01*
X104800000Y-61448740D01*
X109005000Y-61448740D01*
X109005000Y-61741260D01*
X109062068Y-62028158D01*
X109174010Y-62298411D01*
X109336525Y-62541632D01*
X109543368Y-62748475D01*
X109786589Y-62910990D01*
X110056842Y-63022932D01*
X110343740Y-63080000D01*
X110636260Y-63080000D01*
X110923158Y-63022932D01*
X111000000Y-62991103D01*
X111000001Y-76541851D01*
X110938169Y-76567463D01*
X110654002Y-76757337D01*
X110412337Y-76999002D01*
X110222463Y-77283169D01*
X110091675Y-77598919D01*
X110025000Y-77934117D01*
X110025000Y-78275883D01*
X110091675Y-78611081D01*
X110222463Y-78926831D01*
X110378261Y-79160000D01*
X110343740Y-79160000D01*
X110056842Y-79217068D01*
X109786589Y-79329010D01*
X109543368Y-79491525D01*
X109336525Y-79698368D01*
X109174010Y-79941589D01*
X109062068Y-80211842D01*
X109005000Y-80498740D01*
X109005000Y-80791260D01*
X109062068Y-81078158D01*
X109174010Y-81348411D01*
X109336525Y-81591632D01*
X109543368Y-81798475D01*
X109786589Y-81960990D01*
X110056842Y-82072932D01*
X110343740Y-82130000D01*
X110636260Y-82130000D01*
X110923158Y-82072932D01*
X111193411Y-81960990D01*
X111436632Y-81798475D01*
X111643475Y-81591632D01*
X111805990Y-81348411D01*
X111917932Y-81078158D01*
X111975000Y-80791260D01*
X111975000Y-80498740D01*
X111952471Y-80385475D01*
X112935000Y-80385475D01*
X112935000Y-80904525D01*
X113036261Y-81413601D01*
X113234893Y-81893141D01*
X113523262Y-82324715D01*
X113890285Y-82691738D01*
X114321859Y-82980107D01*
X114801399Y-83178739D01*
X115310475Y-83280000D01*
X115829525Y-83280000D01*
X116338601Y-83178739D01*
X116818141Y-82980107D01*
X117033714Y-82836065D01*
X123254350Y-82836065D01*
X125064520Y-84646235D01*
X126874690Y-82836065D01*
X126634544Y-82448822D01*
X126140643Y-82188199D01*
X125605387Y-82028939D01*
X125049346Y-81977162D01*
X124493888Y-82034859D01*
X123960359Y-82199812D01*
X123494496Y-82448822D01*
X123254350Y-82836065D01*
X117033714Y-82836065D01*
X117249715Y-82691738D01*
X117616738Y-82324715D01*
X117905107Y-81893141D01*
X118103739Y-81413601D01*
X118205000Y-80904525D01*
X118205000Y-80498740D01*
X119165000Y-80498740D01*
X119165000Y-80791260D01*
X119222068Y-81078158D01*
X119334010Y-81348411D01*
X119496525Y-81591632D01*
X119703368Y-81798475D01*
X119946589Y-81960990D01*
X120216842Y-82072932D01*
X120503740Y-82130000D01*
X120796260Y-82130000D01*
X121083158Y-82072932D01*
X121353411Y-81960990D01*
X121596632Y-81798475D01*
X121803475Y-81591632D01*
X121965990Y-81348411D01*
X122077932Y-81078158D01*
X122135000Y-80791260D01*
X122135000Y-80498740D01*
X122077932Y-80211842D01*
X121965990Y-79941589D01*
X121803475Y-79698368D01*
X121596632Y-79491525D01*
X121353411Y-79329010D01*
X121083158Y-79217068D01*
X120796260Y-79160000D01*
X120503740Y-79160000D01*
X120216842Y-79217068D01*
X119946589Y-79329010D01*
X119703368Y-79491525D01*
X119496525Y-79698368D01*
X119334010Y-79941589D01*
X119222068Y-80211842D01*
X119165000Y-80498740D01*
X118205000Y-80498740D01*
X118205000Y-80385475D01*
X118103739Y-79876399D01*
X117905107Y-79396859D01*
X117616738Y-78965285D01*
X117249715Y-78598262D01*
X116818141Y-78309893D01*
X116338601Y-78111261D01*
X115829525Y-78010000D01*
X115310475Y-78010000D01*
X114801399Y-78111261D01*
X114321859Y-78309893D01*
X113890285Y-78598262D01*
X113523262Y-78965285D01*
X113234893Y-79396859D01*
X113036261Y-79876399D01*
X112935000Y-80385475D01*
X111952471Y-80385475D01*
X111917932Y-80211842D01*
X111805990Y-79941589D01*
X111738110Y-79840000D01*
X111930883Y-79840000D01*
X112266081Y-79773325D01*
X112581831Y-79642537D01*
X112865998Y-79452663D01*
X113107663Y-79210998D01*
X113297537Y-78926831D01*
X113428325Y-78611081D01*
X113495000Y-78275883D01*
X113495000Y-77934117D01*
X113428325Y-77598919D01*
X113297537Y-77283169D01*
X113107663Y-76999002D01*
X112865998Y-76757337D01*
X112581831Y-76567463D01*
X112520000Y-76541852D01*
X112520000Y-75394117D01*
X116375000Y-75394117D01*
X116375000Y-75735883D01*
X116441675Y-76071081D01*
X116572463Y-76386831D01*
X116762337Y-76670998D01*
X117004002Y-76912663D01*
X117288169Y-77102537D01*
X117603919Y-77233325D01*
X117939117Y-77300000D01*
X118280883Y-77300000D01*
X118616081Y-77233325D01*
X118931831Y-77102537D01*
X119215998Y-76912663D01*
X119457663Y-76670998D01*
X119647537Y-76386831D01*
X119778325Y-76071081D01*
X119845000Y-75735883D01*
X119845000Y-75394117D01*
X119778325Y-75058919D01*
X119647537Y-74743169D01*
X119457663Y-74459002D01*
X119215998Y-74217337D01*
X118931831Y-74027463D01*
X118616081Y-73896675D01*
X118280883Y-73830000D01*
X117939117Y-73830000D01*
X117603919Y-73896675D01*
X117288169Y-74027463D01*
X117004002Y-74217337D01*
X116762337Y-74459002D01*
X116572463Y-74743169D01*
X116441675Y-75058919D01*
X116375000Y-75394117D01*
X112520000Y-75394117D01*
X112520000Y-61335475D01*
X112935000Y-61335475D01*
X112935000Y-61854525D01*
X113036261Y-62363601D01*
X113234893Y-62843141D01*
X113523262Y-63274715D01*
X113890285Y-63641738D01*
X114321859Y-63930107D01*
X114801399Y-64128739D01*
X115310475Y-64230000D01*
X115829525Y-64230000D01*
X116338601Y-64128739D01*
X116818141Y-63930107D01*
X117249715Y-63641738D01*
X117616738Y-63274715D01*
X117905107Y-62843141D01*
X118103739Y-62363601D01*
X118205000Y-61854525D01*
X118205000Y-61448740D01*
X119165000Y-61448740D01*
X119165000Y-61741260D01*
X119222068Y-62028158D01*
X119334010Y-62298411D01*
X119496525Y-62541632D01*
X119703368Y-62748475D01*
X119946589Y-62910990D01*
X120216842Y-63022932D01*
X120503740Y-63080000D01*
X120796260Y-63080000D01*
X121083158Y-63022932D01*
X121353411Y-62910990D01*
X121596632Y-62748475D01*
X121803475Y-62541632D01*
X121965990Y-62298411D01*
X122077932Y-62028158D01*
X122135000Y-61741260D01*
X122135000Y-61448740D01*
X122077932Y-61161842D01*
X121965990Y-60891589D01*
X121803475Y-60648368D01*
X121596632Y-60441525D01*
X121353411Y-60279010D01*
X121083158Y-60167068D01*
X120796260Y-60110000D01*
X120503740Y-60110000D01*
X120216842Y-60167068D01*
X119946589Y-60279010D01*
X119703368Y-60441525D01*
X119496525Y-60648368D01*
X119334010Y-60891589D01*
X119222068Y-61161842D01*
X119165000Y-61448740D01*
X118205000Y-61448740D01*
X118205000Y-61335475D01*
X118103739Y-60826399D01*
X117905107Y-60346859D01*
X117713391Y-60059936D01*
X123254350Y-60059936D01*
X123494496Y-60447179D01*
X123988397Y-60707802D01*
X124523653Y-60867062D01*
X125079694Y-60918839D01*
X125635152Y-60861142D01*
X126168681Y-60696189D01*
X126634544Y-60447179D01*
X126874690Y-60059936D01*
X125064520Y-58249766D01*
X123254350Y-60059936D01*
X117713391Y-60059936D01*
X117616738Y-59915285D01*
X117249715Y-59548262D01*
X116818141Y-59259893D01*
X116338601Y-59061261D01*
X115829525Y-58960000D01*
X115310475Y-58960000D01*
X114801399Y-59061261D01*
X114321859Y-59259893D01*
X113890285Y-59548262D01*
X113523262Y-59915285D01*
X113234893Y-60346859D01*
X113036261Y-60826399D01*
X112935000Y-61335475D01*
X112520000Y-61335475D01*
X112520000Y-60618148D01*
X112581831Y-60592537D01*
X112865998Y-60402663D01*
X113107663Y-60160998D01*
X113297537Y-59876831D01*
X113428325Y-59561081D01*
X113495000Y-59225883D01*
X113495000Y-58884117D01*
X113428325Y-58548919D01*
X113402714Y-58487088D01*
X116463922Y-55425880D01*
X116751059Y-55425880D01*
X116572463Y-55693169D01*
X116441675Y-56008919D01*
X116375000Y-56344117D01*
X116375000Y-56685883D01*
X116441675Y-57021081D01*
X116572463Y-57336831D01*
X116762337Y-57620998D01*
X117004002Y-57862663D01*
X117288169Y-58052537D01*
X117603919Y-58183325D01*
X117939117Y-58250000D01*
X118280883Y-58250000D01*
X118616081Y-58183325D01*
X118852649Y-58085335D01*
X122215842Y-58085335D01*
X122273539Y-58640793D01*
X122438492Y-59174322D01*
X122687502Y-59640185D01*
X123074745Y-59880331D01*
X124884915Y-58070161D01*
X125244125Y-58070161D01*
X127054295Y-59880331D01*
X127441538Y-59640185D01*
X127702161Y-59146284D01*
X127861421Y-58611028D01*
X127913198Y-58054987D01*
X127855501Y-57499529D01*
X127690548Y-56966000D01*
X127441538Y-56500137D01*
X127054295Y-56259991D01*
X125244125Y-58070161D01*
X124884915Y-58070161D01*
X123074745Y-56259991D01*
X122687502Y-56500137D01*
X122426879Y-56994038D01*
X122267619Y-57529294D01*
X122215842Y-58085335D01*
X118852649Y-58085335D01*
X118931831Y-58052537D01*
X119215998Y-57862663D01*
X119457663Y-57620998D01*
X119647537Y-57336831D01*
X119778325Y-57021081D01*
X119845000Y-56685883D01*
X119845000Y-56344117D01*
X119778325Y-56008919D01*
X119647537Y-55693169D01*
X119468941Y-55425880D01*
X124019397Y-55425880D01*
X123960359Y-55444133D01*
X123494496Y-55693143D01*
X123254350Y-56080386D01*
X125064520Y-57890556D01*
X126874690Y-56080386D01*
X126634544Y-55693143D01*
X126140643Y-55432520D01*
X126118327Y-55425880D01*
X133364318Y-55425880D01*
X131377912Y-57412286D01*
X131316081Y-57386675D01*
X130980883Y-57320000D01*
X130639117Y-57320000D01*
X130303919Y-57386675D01*
X129988169Y-57517463D01*
X129704002Y-57707337D01*
X129462337Y-57949002D01*
X129272463Y-58233169D01*
X129141675Y-58548919D01*
X129075000Y-58884117D01*
X129075000Y-59225883D01*
X129141675Y-59561081D01*
X129272463Y-59876831D01*
X129428261Y-60110000D01*
X129393740Y-60110000D01*
X129106842Y-60167068D01*
X128836589Y-60279010D01*
X128593368Y-60441525D01*
X128386525Y-60648368D01*
X128224010Y-60891589D01*
X128112068Y-61161842D01*
X128055000Y-61448740D01*
X128055000Y-61741260D01*
X128112068Y-62028158D01*
X128224010Y-62298411D01*
X128386525Y-62541632D01*
X128593368Y-62748475D01*
X128836589Y-62910990D01*
X129106842Y-63022932D01*
X129393740Y-63080000D01*
X129686260Y-63080000D01*
X129973158Y-63022932D01*
X130050000Y-62991103D01*
X130050001Y-76541851D01*
X129988169Y-76567463D01*
X129704002Y-76757337D01*
X129462337Y-76999002D01*
X129272463Y-77283169D01*
X129141675Y-77598919D01*
X129075000Y-77934117D01*
X129075000Y-78275883D01*
X129141675Y-78611081D01*
X129272463Y-78926831D01*
X129428261Y-79160000D01*
X129393740Y-79160000D01*
X129106842Y-79217068D01*
X128836589Y-79329010D01*
X128593368Y-79491525D01*
X128386525Y-79698368D01*
X128224010Y-79941589D01*
X128112068Y-80211842D01*
X128055000Y-80498740D01*
X128055000Y-80791260D01*
X128112068Y-81078158D01*
X128224010Y-81348411D01*
X128386525Y-81591632D01*
X128593368Y-81798475D01*
X128836589Y-81960990D01*
X129106842Y-82072932D01*
X129393740Y-82130000D01*
X129686260Y-82130000D01*
X129973158Y-82072932D01*
X130243411Y-81960990D01*
X130486632Y-81798475D01*
X130693475Y-81591632D01*
X130855990Y-81348411D01*
X130967932Y-81078158D01*
X131025000Y-80791260D01*
X131025000Y-80498740D01*
X131002471Y-80385475D01*
X131985000Y-80385475D01*
X131985000Y-80904525D01*
X132086261Y-81413601D01*
X132284893Y-81893141D01*
X132573262Y-82324715D01*
X132940285Y-82691738D01*
X133371859Y-82980107D01*
X133851399Y-83178739D01*
X134360475Y-83280000D01*
X134879525Y-83280000D01*
X135388601Y-83178739D01*
X135868141Y-82980107D01*
X136299715Y-82691738D01*
X136666738Y-82324715D01*
X136955107Y-81893141D01*
X137153739Y-81413601D01*
X137255000Y-80904525D01*
X137255000Y-80498740D01*
X138215000Y-80498740D01*
X138215000Y-80791260D01*
X138272068Y-81078158D01*
X138384010Y-81348411D01*
X138546525Y-81591632D01*
X138753368Y-81798475D01*
X138996589Y-81960990D01*
X139266842Y-82072932D01*
X139553740Y-82130000D01*
X139846260Y-82130000D01*
X140133158Y-82072932D01*
X140403411Y-81960990D01*
X140646632Y-81798475D01*
X140853475Y-81591632D01*
X141015990Y-81348411D01*
X141127932Y-81078158D01*
X141185000Y-80791260D01*
X141185000Y-80498740D01*
X141127932Y-80211842D01*
X141015990Y-79941589D01*
X140853475Y-79698368D01*
X140646632Y-79491525D01*
X140403411Y-79329010D01*
X140133158Y-79217068D01*
X139846260Y-79160000D01*
X139553740Y-79160000D01*
X139266842Y-79217068D01*
X138996589Y-79329010D01*
X138753368Y-79491525D01*
X138546525Y-79698368D01*
X138384010Y-79941589D01*
X138272068Y-80211842D01*
X138215000Y-80498740D01*
X137255000Y-80498740D01*
X137255000Y-80385475D01*
X137153739Y-79876399D01*
X136955107Y-79396859D01*
X136666738Y-78965285D01*
X136299715Y-78598262D01*
X135868141Y-78309893D01*
X135388601Y-78111261D01*
X134879525Y-78010000D01*
X134360475Y-78010000D01*
X133851399Y-78111261D01*
X133371859Y-78309893D01*
X132940285Y-78598262D01*
X132573262Y-78965285D01*
X132284893Y-79396859D01*
X132086261Y-79876399D01*
X131985000Y-80385475D01*
X131002471Y-80385475D01*
X130967932Y-80211842D01*
X130855990Y-79941589D01*
X130788110Y-79840000D01*
X130980883Y-79840000D01*
X131316081Y-79773325D01*
X131631831Y-79642537D01*
X131915998Y-79452663D01*
X132157663Y-79210998D01*
X132347537Y-78926831D01*
X132478325Y-78611081D01*
X132545000Y-78275883D01*
X132545000Y-77934117D01*
X132478325Y-77598919D01*
X132347537Y-77283169D01*
X132157663Y-76999002D01*
X131915998Y-76757337D01*
X131631831Y-76567463D01*
X131570000Y-76541852D01*
X131570000Y-75394117D01*
X135425000Y-75394117D01*
X135425000Y-75735883D01*
X135491675Y-76071081D01*
X135622463Y-76386831D01*
X135812337Y-76670998D01*
X136054002Y-76912663D01*
X136338169Y-77102537D01*
X136653919Y-77233325D01*
X136989117Y-77300000D01*
X137330883Y-77300000D01*
X137666081Y-77233325D01*
X137981831Y-77102537D01*
X138265998Y-76912663D01*
X138507663Y-76670998D01*
X138697537Y-76386831D01*
X138828325Y-76071081D01*
X138895000Y-75735883D01*
X138895000Y-75394117D01*
X138828325Y-75058919D01*
X138697537Y-74743169D01*
X138507663Y-74459002D01*
X138265998Y-74217337D01*
X137981831Y-74027463D01*
X137666081Y-73896675D01*
X137330883Y-73830000D01*
X136989117Y-73830000D01*
X136653919Y-73896675D01*
X136338169Y-74027463D01*
X136054002Y-74217337D01*
X135812337Y-74459002D01*
X135622463Y-74743169D01*
X135491675Y-75058919D01*
X135425000Y-75394117D01*
X131570000Y-75394117D01*
X131570000Y-61335475D01*
X131985000Y-61335475D01*
X131985000Y-61854525D01*
X132086261Y-62363601D01*
X132284893Y-62843141D01*
X132573262Y-63274715D01*
X132940285Y-63641738D01*
X133371859Y-63930107D01*
X133851399Y-64128739D01*
X134360475Y-64230000D01*
X134879525Y-64230000D01*
X135388601Y-64128739D01*
X135868141Y-63930107D01*
X136299715Y-63641738D01*
X136666738Y-63274715D01*
X136955107Y-62843141D01*
X137153739Y-62363601D01*
X137255000Y-61854525D01*
X137255000Y-61448740D01*
X138215000Y-61448740D01*
X138215000Y-61741260D01*
X138272068Y-62028158D01*
X138384010Y-62298411D01*
X138546525Y-62541632D01*
X138753368Y-62748475D01*
X138996589Y-62910990D01*
X139266842Y-63022932D01*
X139553740Y-63080000D01*
X139846260Y-63080000D01*
X140133158Y-63022932D01*
X140403411Y-62910990D01*
X140646632Y-62748475D01*
X140853475Y-62541632D01*
X141015990Y-62298411D01*
X141127932Y-62028158D01*
X141185000Y-61741260D01*
X141185000Y-61448740D01*
X141127932Y-61161842D01*
X141015990Y-60891589D01*
X140853475Y-60648368D01*
X140646632Y-60441525D01*
X140403411Y-60279010D01*
X140133158Y-60167068D01*
X139846260Y-60110000D01*
X139553740Y-60110000D01*
X139266842Y-60167068D01*
X138996589Y-60279010D01*
X138753368Y-60441525D01*
X138546525Y-60648368D01*
X138384010Y-60891589D01*
X138272068Y-61161842D01*
X138215000Y-61448740D01*
X137255000Y-61448740D01*
X137255000Y-61335475D01*
X137153739Y-60826399D01*
X136955107Y-60346859D01*
X136666738Y-59915285D01*
X136299715Y-59548262D01*
X135868141Y-59259893D01*
X135388601Y-59061261D01*
X134879525Y-58960000D01*
X134360475Y-58960000D01*
X133851399Y-59061261D01*
X133371859Y-59259893D01*
X132940285Y-59548262D01*
X132573262Y-59915285D01*
X132284893Y-60346859D01*
X132086261Y-60826399D01*
X131985000Y-61335475D01*
X131570000Y-61335475D01*
X131570000Y-60618148D01*
X131631831Y-60592537D01*
X131915998Y-60402663D01*
X132157663Y-60160998D01*
X132347537Y-59876831D01*
X132478325Y-59561081D01*
X132545000Y-59225883D01*
X132545000Y-58884117D01*
X132478325Y-58548919D01*
X132452714Y-58487088D01*
X135513922Y-55425880D01*
X135801059Y-55425880D01*
X135622463Y-55693169D01*
X135491675Y-56008919D01*
X135425000Y-56344117D01*
X135425000Y-56685883D01*
X135491675Y-57021081D01*
X135622463Y-57336831D01*
X135812337Y-57620998D01*
X136054002Y-57862663D01*
X136338169Y-58052537D01*
X136653919Y-58183325D01*
X136989117Y-58250000D01*
X137330883Y-58250000D01*
X137666081Y-58183325D01*
X137981831Y-58052537D01*
X138265998Y-57862663D01*
X138507663Y-57620998D01*
X138697537Y-57336831D01*
X138828325Y-57021081D01*
X138895000Y-56685883D01*
X138895000Y-56344117D01*
X138828325Y-56008919D01*
X138697537Y-55693169D01*
X138518941Y-55425880D01*
X152414318Y-55425880D01*
X150427912Y-57412286D01*
X150366081Y-57386675D01*
X150030883Y-57320000D01*
X149689117Y-57320000D01*
X149353919Y-57386675D01*
X149038169Y-57517463D01*
X148754002Y-57707337D01*
X148512337Y-57949002D01*
X148322463Y-58233169D01*
X148191675Y-58548919D01*
X148125000Y-58884117D01*
X148125000Y-59225883D01*
X148191675Y-59561081D01*
X148322463Y-59876831D01*
X148478261Y-60110000D01*
X148443740Y-60110000D01*
X148156842Y-60167068D01*
X147886589Y-60279010D01*
X147643368Y-60441525D01*
X147436525Y-60648368D01*
X147274010Y-60891589D01*
X147162068Y-61161842D01*
X147105000Y-61448740D01*
X147105000Y-61741260D01*
X147162068Y-62028158D01*
X147274010Y-62298411D01*
X147436525Y-62541632D01*
X147643368Y-62748475D01*
X147886589Y-62910990D01*
X148156842Y-63022932D01*
X148443740Y-63080000D01*
X148736260Y-63080000D01*
X149023158Y-63022932D01*
X149100000Y-62991103D01*
X149100001Y-76541851D01*
X149038169Y-76567463D01*
X148754002Y-76757337D01*
X148512337Y-76999002D01*
X148322463Y-77283169D01*
X148191675Y-77598919D01*
X148125000Y-77934117D01*
X148125000Y-78275883D01*
X148191675Y-78611081D01*
X148322463Y-78926831D01*
X148478261Y-79160000D01*
X148443740Y-79160000D01*
X148156842Y-79217068D01*
X147886589Y-79329010D01*
X147643368Y-79491525D01*
X147436525Y-79698368D01*
X147274010Y-79941589D01*
X147162068Y-80211842D01*
X147105000Y-80498740D01*
X147105000Y-80791260D01*
X147162068Y-81078158D01*
X147274010Y-81348411D01*
X147436525Y-81591632D01*
X147643368Y-81798475D01*
X147886589Y-81960990D01*
X148156842Y-82072932D01*
X148443740Y-82130000D01*
X148736260Y-82130000D01*
X149023158Y-82072932D01*
X149293411Y-81960990D01*
X149536632Y-81798475D01*
X149743475Y-81591632D01*
X149905990Y-81348411D01*
X150017932Y-81078158D01*
X150075000Y-80791260D01*
X150075000Y-80498740D01*
X150052471Y-80385475D01*
X151035000Y-80385475D01*
X151035000Y-80904525D01*
X151136261Y-81413601D01*
X151334893Y-81893141D01*
X151623262Y-82324715D01*
X151990285Y-82691738D01*
X152421859Y-82980107D01*
X152901399Y-83178739D01*
X153410475Y-83280000D01*
X153929525Y-83280000D01*
X154438601Y-83178739D01*
X154918141Y-82980107D01*
X155349715Y-82691738D01*
X155716738Y-82324715D01*
X156005107Y-81893141D01*
X156203739Y-81413601D01*
X156305000Y-80904525D01*
X156305000Y-80498740D01*
X157265000Y-80498740D01*
X157265000Y-80791260D01*
X157322068Y-81078158D01*
X157434010Y-81348411D01*
X157596525Y-81591632D01*
X157803368Y-81798475D01*
X158046589Y-81960990D01*
X158316842Y-82072932D01*
X158603740Y-82130000D01*
X158896260Y-82130000D01*
X159183158Y-82072932D01*
X159453411Y-81960990D01*
X159696632Y-81798475D01*
X159903475Y-81591632D01*
X160065990Y-81348411D01*
X160177932Y-81078158D01*
X160235000Y-80791260D01*
X160235000Y-80498740D01*
X160232196Y-80484641D01*
X177028440Y-80484641D01*
X177028440Y-80688519D01*
X177068214Y-80888478D01*
X177146235Y-81076836D01*
X177259503Y-81246354D01*
X177403666Y-81390517D01*
X177573184Y-81503785D01*
X177761542Y-81581806D01*
X177961501Y-81621580D01*
X178022812Y-81621580D01*
X178114144Y-81696534D01*
X178246173Y-81767106D01*
X178389434Y-81810563D01*
X178501087Y-81821560D01*
X178501096Y-81821560D01*
X178538419Y-81825236D01*
X178575742Y-81821560D01*
X178859729Y-81821560D01*
X178903666Y-81865497D01*
X179073184Y-81978765D01*
X179261542Y-82056786D01*
X179461501Y-82096560D01*
X179665379Y-82096560D01*
X179865338Y-82056786D01*
X180053696Y-81978765D01*
X180223214Y-81865497D01*
X180367377Y-81721334D01*
X180480645Y-81551816D01*
X180558666Y-81363458D01*
X180598440Y-81163499D01*
X180598440Y-80959621D01*
X180558666Y-80759662D01*
X180480645Y-80571304D01*
X180367377Y-80401786D01*
X180223214Y-80257623D01*
X180053696Y-80144355D01*
X179865338Y-80066334D01*
X179665379Y-80026560D01*
X179461501Y-80026560D01*
X179261542Y-80066334D01*
X179073184Y-80144355D01*
X179016287Y-80182372D01*
X178980645Y-80096324D01*
X178867377Y-79926806D01*
X178723214Y-79782643D01*
X178553696Y-79669375D01*
X178365338Y-79591354D01*
X178165379Y-79551580D01*
X177961501Y-79551580D01*
X177761542Y-79591354D01*
X177573184Y-79669375D01*
X177403666Y-79782643D01*
X177259503Y-79926806D01*
X177146235Y-80096324D01*
X177068214Y-80284682D01*
X177028440Y-80484641D01*
X160232196Y-80484641D01*
X160177932Y-80211842D01*
X160065990Y-79941589D01*
X159903475Y-79698368D01*
X159696632Y-79491525D01*
X159453411Y-79329010D01*
X159183158Y-79217068D01*
X158896260Y-79160000D01*
X158603740Y-79160000D01*
X158316842Y-79217068D01*
X158046589Y-79329010D01*
X157803368Y-79491525D01*
X157596525Y-79698368D01*
X157434010Y-79941589D01*
X157322068Y-80211842D01*
X157265000Y-80498740D01*
X156305000Y-80498740D01*
X156305000Y-80385475D01*
X156203739Y-79876399D01*
X156005107Y-79396859D01*
X155716738Y-78965285D01*
X155349715Y-78598262D01*
X154918141Y-78309893D01*
X154438601Y-78111261D01*
X153929525Y-78010000D01*
X153410475Y-78010000D01*
X152901399Y-78111261D01*
X152421859Y-78309893D01*
X151990285Y-78598262D01*
X151623262Y-78965285D01*
X151334893Y-79396859D01*
X151136261Y-79876399D01*
X151035000Y-80385475D01*
X150052471Y-80385475D01*
X150017932Y-80211842D01*
X149905990Y-79941589D01*
X149838110Y-79840000D01*
X150030883Y-79840000D01*
X150366081Y-79773325D01*
X150681831Y-79642537D01*
X150965998Y-79452663D01*
X151207663Y-79210998D01*
X151397537Y-78926831D01*
X151528325Y-78611081D01*
X151595000Y-78275883D01*
X151595000Y-77934117D01*
X151528325Y-77598919D01*
X151397537Y-77283169D01*
X151207663Y-76999002D01*
X150965998Y-76757337D01*
X150681831Y-76567463D01*
X150620000Y-76541852D01*
X150620000Y-75394117D01*
X154475000Y-75394117D01*
X154475000Y-75735883D01*
X154541675Y-76071081D01*
X154672463Y-76386831D01*
X154862337Y-76670998D01*
X155104002Y-76912663D01*
X155388169Y-77102537D01*
X155703919Y-77233325D01*
X156039117Y-77300000D01*
X156380883Y-77300000D01*
X156716081Y-77233325D01*
X157031831Y-77102537D01*
X157315998Y-76912663D01*
X157557663Y-76670998D01*
X157747537Y-76386831D01*
X157878325Y-76071081D01*
X157945000Y-75735883D01*
X157945000Y-75394117D01*
X157878325Y-75058919D01*
X157747537Y-74743169D01*
X157557663Y-74459002D01*
X157315998Y-74217337D01*
X157031831Y-74027463D01*
X156716081Y-73896675D01*
X156380883Y-73830000D01*
X156039117Y-73830000D01*
X155703919Y-73896675D01*
X155388169Y-74027463D01*
X155104002Y-74217337D01*
X154862337Y-74459002D01*
X154672463Y-74743169D01*
X154541675Y-75058919D01*
X154475000Y-75394117D01*
X150620000Y-75394117D01*
X150620000Y-61335475D01*
X151035000Y-61335475D01*
X151035000Y-61854525D01*
X151136261Y-62363601D01*
X151334893Y-62843141D01*
X151623262Y-63274715D01*
X151990285Y-63641738D01*
X152421859Y-63930107D01*
X152901399Y-64128739D01*
X153410475Y-64230000D01*
X153929525Y-64230000D01*
X154438601Y-64128739D01*
X154918141Y-63930107D01*
X155349715Y-63641738D01*
X155716738Y-63274715D01*
X156005107Y-62843141D01*
X156203739Y-62363601D01*
X156305000Y-61854525D01*
X156305000Y-61448740D01*
X157265000Y-61448740D01*
X157265000Y-61741260D01*
X157322068Y-62028158D01*
X157434010Y-62298411D01*
X157596525Y-62541632D01*
X157803368Y-62748475D01*
X158046589Y-62910990D01*
X158316842Y-63022932D01*
X158603740Y-63080000D01*
X158896260Y-63080000D01*
X159183158Y-63022932D01*
X159453411Y-62910990D01*
X159696632Y-62748475D01*
X159903475Y-62541632D01*
X160065990Y-62298411D01*
X160177932Y-62028158D01*
X160235000Y-61741260D01*
X160235000Y-61448740D01*
X160177932Y-61161842D01*
X160065990Y-60891589D01*
X159903475Y-60648368D01*
X159696632Y-60441525D01*
X159453411Y-60279010D01*
X159183158Y-60167068D01*
X158896260Y-60110000D01*
X158603740Y-60110000D01*
X158316842Y-60167068D01*
X158046589Y-60279010D01*
X157803368Y-60441525D01*
X157596525Y-60648368D01*
X157434010Y-60891589D01*
X157322068Y-61161842D01*
X157265000Y-61448740D01*
X156305000Y-61448740D01*
X156305000Y-61335475D01*
X156203739Y-60826399D01*
X156005107Y-60346859D01*
X155716738Y-59915285D01*
X155349715Y-59548262D01*
X154918141Y-59259893D01*
X154438601Y-59061261D01*
X153929525Y-58960000D01*
X153410475Y-58960000D01*
X152901399Y-59061261D01*
X152421859Y-59259893D01*
X151990285Y-59548262D01*
X151623262Y-59915285D01*
X151334893Y-60346859D01*
X151136261Y-60826399D01*
X151035000Y-61335475D01*
X150620000Y-61335475D01*
X150620000Y-60618148D01*
X150681831Y-60592537D01*
X150965998Y-60402663D01*
X151207663Y-60160998D01*
X151397537Y-59876831D01*
X151528325Y-59561081D01*
X151595000Y-59225883D01*
X151595000Y-58884117D01*
X151528325Y-58548919D01*
X151502714Y-58487088D01*
X154563922Y-55425880D01*
X154851059Y-55425880D01*
X154672463Y-55693169D01*
X154541675Y-56008919D01*
X154475000Y-56344117D01*
X154475000Y-56685883D01*
X154541675Y-57021081D01*
X154672463Y-57336831D01*
X154862337Y-57620998D01*
X155104002Y-57862663D01*
X155388169Y-58052537D01*
X155703919Y-58183325D01*
X156039117Y-58250000D01*
X156380883Y-58250000D01*
X156716081Y-58183325D01*
X157031831Y-58052537D01*
X157315998Y-57862663D01*
X157557663Y-57620998D01*
X157747537Y-57336831D01*
X157878325Y-57021081D01*
X157945000Y-56685883D01*
X157945000Y-56344117D01*
X157878325Y-56008919D01*
X157747537Y-55693169D01*
X157568941Y-55425880D01*
X163207859Y-55425880D01*
X168398997Y-60617019D01*
X168399003Y-60617024D01*
X171643289Y-63861310D01*
X171595715Y-63865996D01*
X171452454Y-63909453D01*
X171320425Y-63980025D01*
X171204700Y-64074998D01*
X171180902Y-64103996D01*
X168399003Y-66885896D01*
X168369999Y-66909699D01*
X168350073Y-66933979D01*
X168088169Y-67042463D01*
X167804002Y-67232337D01*
X167562337Y-67474002D01*
X167372463Y-67758169D01*
X167241675Y-68073919D01*
X167175000Y-68409117D01*
X167175000Y-68750883D01*
X167241675Y-69086081D01*
X167372463Y-69401831D01*
X167528261Y-69635000D01*
X167493740Y-69635000D01*
X167206842Y-69692068D01*
X166936589Y-69804010D01*
X166693368Y-69966525D01*
X166486525Y-70173368D01*
X166324010Y-70416589D01*
X166212068Y-70686842D01*
X166155000Y-70973740D01*
X166155000Y-71266260D01*
X166212068Y-71553158D01*
X166324010Y-71823411D01*
X166486525Y-72066632D01*
X166693368Y-72273475D01*
X166936589Y-72435990D01*
X167206842Y-72547932D01*
X167493740Y-72605000D01*
X167786260Y-72605000D01*
X168073158Y-72547932D01*
X168343411Y-72435990D01*
X168586632Y-72273475D01*
X168793475Y-72066632D01*
X168955990Y-71823411D01*
X169067932Y-71553158D01*
X169125000Y-71266260D01*
X169125000Y-70973740D01*
X169102471Y-70860475D01*
X170085000Y-70860475D01*
X170085000Y-71379525D01*
X170186261Y-71888601D01*
X170384893Y-72368141D01*
X170673262Y-72799715D01*
X171040285Y-73166738D01*
X171471859Y-73455107D01*
X171951399Y-73653739D01*
X172460475Y-73755000D01*
X172979525Y-73755000D01*
X173488601Y-73653739D01*
X173968141Y-73455107D01*
X174399715Y-73166738D01*
X174766738Y-72799715D01*
X175055107Y-72368141D01*
X175253739Y-71888601D01*
X175355000Y-71379525D01*
X175355000Y-70860475D01*
X175253739Y-70351399D01*
X175055107Y-69871859D01*
X174766738Y-69440285D01*
X174399715Y-69073262D01*
X173968141Y-68784893D01*
X173488601Y-68586261D01*
X172979525Y-68485000D01*
X172460475Y-68485000D01*
X171951399Y-68586261D01*
X171471859Y-68784893D01*
X171040285Y-69073262D01*
X170673262Y-69440285D01*
X170384893Y-69871859D01*
X170186261Y-70351399D01*
X170085000Y-70860475D01*
X169102471Y-70860475D01*
X169067932Y-70686842D01*
X168955990Y-70416589D01*
X168888110Y-70315000D01*
X169080883Y-70315000D01*
X169416081Y-70248325D01*
X169731831Y-70117537D01*
X170015998Y-69927663D01*
X170257663Y-69685998D01*
X170447537Y-69401831D01*
X170578325Y-69086081D01*
X170645000Y-68750883D01*
X170645000Y-68409117D01*
X170578325Y-68073919D01*
X170447537Y-67758169D01*
X170257663Y-67474002D01*
X170109081Y-67325420D01*
X172059503Y-65374999D01*
X173434454Y-65374999D01*
X173471779Y-65378675D01*
X173509104Y-65374999D01*
X173657502Y-65374999D01*
X173591675Y-65533919D01*
X173525000Y-65869117D01*
X173525000Y-66210883D01*
X173591675Y-66546081D01*
X173722463Y-66861831D01*
X173912337Y-67145998D01*
X174154002Y-67387663D01*
X174438169Y-67577537D01*
X174753919Y-67708325D01*
X175089117Y-67775000D01*
X175430883Y-67775000D01*
X175766081Y-67708325D01*
X175827912Y-67682714D01*
X177780199Y-69635000D01*
X177653740Y-69635000D01*
X177366842Y-69692068D01*
X177096589Y-69804010D01*
X176853368Y-69966525D01*
X176646525Y-70173368D01*
X176484010Y-70416589D01*
X176372068Y-70686842D01*
X176315000Y-70973740D01*
X176315000Y-71266260D01*
X176372068Y-71553158D01*
X176484010Y-71823411D01*
X176646525Y-72066632D01*
X176853368Y-72273475D01*
X177096589Y-72435990D01*
X177366842Y-72547932D01*
X177653740Y-72605000D01*
X177946260Y-72605000D01*
X178233158Y-72547932D01*
X178503411Y-72435990D01*
X178746632Y-72273475D01*
X178953475Y-72066632D01*
X179115990Y-71823411D01*
X179227932Y-71553158D01*
X179285000Y-71266260D01*
X179285000Y-71139802D01*
X183127520Y-74982322D01*
X183127521Y-81093057D01*
X181681279Y-82539300D01*
X174696760Y-82539300D01*
X174659437Y-82535624D01*
X174622114Y-82539300D01*
X174622105Y-82539300D01*
X174510452Y-82550297D01*
X174367191Y-82593754D01*
X174235162Y-82664326D01*
X174119437Y-82759299D01*
X174095639Y-82788297D01*
X173308822Y-83575115D01*
X173279819Y-83598917D01*
X173244890Y-83641479D01*
X173184846Y-83714642D01*
X173114275Y-83846671D01*
X173114274Y-83846672D01*
X173070817Y-83989933D01*
X173059820Y-84101586D01*
X173059820Y-84101596D01*
X173056144Y-84138918D01*
X173059820Y-84176241D01*
X173059821Y-85362548D01*
X173056144Y-85399880D01*
X173059821Y-85437213D01*
X173070790Y-85548576D01*
X173070818Y-85548865D01*
X173114274Y-85692126D01*
X173184846Y-85824156D01*
X173256021Y-85910882D01*
X173279820Y-85939881D01*
X173308818Y-85963679D01*
X173689060Y-86343922D01*
X173689060Y-86406059D01*
X173728834Y-86606018D01*
X173806855Y-86794376D01*
X173920123Y-86963894D01*
X174064286Y-87108057D01*
X174233804Y-87221325D01*
X174422162Y-87299346D01*
X174622121Y-87339120D01*
X174825999Y-87339120D01*
X175025958Y-87299346D01*
X175214316Y-87221325D01*
X175383834Y-87108057D01*
X175527997Y-86963894D01*
X175641265Y-86794376D01*
X175719286Y-86606018D01*
X175759060Y-86406059D01*
X175759060Y-86202181D01*
X175719286Y-86002222D01*
X175641265Y-85813864D01*
X175527997Y-85644346D01*
X175383834Y-85500183D01*
X175214316Y-85386915D01*
X175025958Y-85308894D01*
X174949529Y-85293691D01*
X175056438Y-85272426D01*
X175244796Y-85194405D01*
X175414314Y-85081137D01*
X175458251Y-85037200D01*
X178162298Y-85037200D01*
X175103359Y-88096140D01*
X175041221Y-88096140D01*
X174841262Y-88135914D01*
X174652904Y-88213935D01*
X174483386Y-88327203D01*
X174339223Y-88471366D01*
X174225955Y-88640884D01*
X174147934Y-88829242D01*
X174108160Y-89029201D01*
X174108160Y-89233079D01*
X174147934Y-89433038D01*
X174225955Y-89621396D01*
X174339223Y-89790914D01*
X174483386Y-89935077D01*
X174652904Y-90048345D01*
X174841262Y-90126366D01*
X175041221Y-90166140D01*
X175245099Y-90166140D01*
X175445058Y-90126366D01*
X175633416Y-90048345D01*
X175802934Y-89935077D01*
X175947097Y-89790914D01*
X176060365Y-89621396D01*
X176138386Y-89433038D01*
X176178160Y-89233079D01*
X176178160Y-89170941D01*
X180311902Y-85037200D01*
X181973235Y-85037200D01*
X181999906Y-85087098D01*
X182094879Y-85202823D01*
X182123881Y-85226624D01*
X183933560Y-87036304D01*
X183933560Y-87119329D01*
X183889623Y-87163266D01*
X183776355Y-87332784D01*
X183698334Y-87521142D01*
X183658560Y-87721101D01*
X183658560Y-87924979D01*
X183698334Y-88124938D01*
X183776355Y-88313296D01*
X183889623Y-88482814D01*
X184033786Y-88626977D01*
X184203304Y-88740245D01*
X184391662Y-88818266D01*
X184591621Y-88858040D01*
X184795499Y-88858040D01*
X184995458Y-88818266D01*
X185183816Y-88740245D01*
X185353334Y-88626977D01*
X185497497Y-88482814D01*
X185610765Y-88313296D01*
X185688786Y-88124938D01*
X185728560Y-87924979D01*
X185728560Y-87721101D01*
X185688786Y-87521142D01*
X185610765Y-87332784D01*
X185497497Y-87163266D01*
X185453560Y-87119329D01*
X185453560Y-86758824D01*
X185457236Y-86721501D01*
X185453560Y-86684178D01*
X185453560Y-86684169D01*
X185442563Y-86572516D01*
X185399106Y-86429255D01*
X185328534Y-86297226D01*
X185233561Y-86181501D01*
X185204564Y-86157704D01*
X184562715Y-85515856D01*
X184633897Y-85444674D01*
X184747165Y-85275156D01*
X184825186Y-85086798D01*
X184864960Y-84886839D01*
X184864960Y-84824702D01*
X185298544Y-84391118D01*
X185327541Y-84367321D01*
X185422514Y-84251596D01*
X185493086Y-84119567D01*
X185536543Y-83976306D01*
X185547540Y-83864653D01*
X185547540Y-83864652D01*
X185551217Y-83827320D01*
X185547540Y-83789987D01*
X185547540Y-76574674D01*
X185668000Y-76600000D01*
X186193000Y-76600000D01*
X186193000Y-75567000D01*
X186447000Y-75567000D01*
X186447000Y-76600000D01*
X186972000Y-76600000D01*
X187195865Y-76552934D01*
X187406246Y-76463099D01*
X187595059Y-76333947D01*
X187755047Y-76170441D01*
X187880063Y-75978864D01*
X187963964Y-75745810D01*
X188856036Y-75745810D01*
X188939937Y-75978864D01*
X189064953Y-76170441D01*
X189224941Y-76333947D01*
X189413754Y-76463099D01*
X189624135Y-76552934D01*
X189848000Y-76600000D01*
X190373000Y-76600000D01*
X190373000Y-75567000D01*
X190627000Y-75567000D01*
X190627000Y-76600000D01*
X191152000Y-76600000D01*
X191375865Y-76552934D01*
X191586246Y-76463099D01*
X191775059Y-76333947D01*
X191935047Y-76170441D01*
X192060063Y-75978864D01*
X192143964Y-75745810D01*
X192018163Y-75567000D01*
X190627000Y-75567000D01*
X190373000Y-75567000D01*
X188981837Y-75567000D01*
X188856036Y-75745810D01*
X187963964Y-75745810D01*
X187838163Y-75567000D01*
X186447000Y-75567000D01*
X186193000Y-75567000D01*
X186173000Y-75567000D01*
X186173000Y-75313000D01*
X186193000Y-75313000D01*
X186193000Y-75293000D01*
X186447000Y-75293000D01*
X186447000Y-75313000D01*
X187838163Y-75313000D01*
X187963964Y-75134190D01*
X188856036Y-75134190D01*
X188981837Y-75313000D01*
X190373000Y-75313000D01*
X190373000Y-74280000D01*
X190627000Y-74280000D01*
X190627000Y-75313000D01*
X192018163Y-75313000D01*
X192143964Y-75134190D01*
X192060063Y-74901136D01*
X191935047Y-74709559D01*
X191775059Y-74546053D01*
X191586246Y-74416901D01*
X191375865Y-74327066D01*
X191152000Y-74280000D01*
X190627000Y-74280000D01*
X190373000Y-74280000D01*
X189848000Y-74280000D01*
X189624135Y-74327066D01*
X189413754Y-74416901D01*
X189224941Y-74546053D01*
X189064953Y-74709559D01*
X188939937Y-74901136D01*
X188856036Y-75134190D01*
X187963964Y-75134190D01*
X187880063Y-74901136D01*
X187755047Y-74709559D01*
X187643435Y-74595493D01*
X187722896Y-74476572D01*
X187797147Y-74297314D01*
X187835000Y-74107014D01*
X187835000Y-73912986D01*
X187797147Y-73722686D01*
X187722896Y-73543428D01*
X187615099Y-73382099D01*
X187477901Y-73244901D01*
X187316572Y-73137104D01*
X187137314Y-73062853D01*
X186947014Y-73025000D01*
X186752986Y-73025000D01*
X186562686Y-73062853D01*
X186383428Y-73137104D01*
X186222099Y-73244901D01*
X186084901Y-73382099D01*
X185977104Y-73543428D01*
X185902853Y-73722686D01*
X185865000Y-73912986D01*
X185865000Y-74107014D01*
X185899409Y-74280000D01*
X185668000Y-74280000D01*
X185547540Y-74305326D01*
X185547540Y-67934674D01*
X185668000Y-67960000D01*
X185899409Y-67960000D01*
X185865000Y-68132986D01*
X185865000Y-68327014D01*
X185902853Y-68517314D01*
X185977104Y-68696572D01*
X186084901Y-68857901D01*
X186222099Y-68995099D01*
X186383428Y-69102896D01*
X186562686Y-69177147D01*
X186752986Y-69215000D01*
X186947014Y-69215000D01*
X187137314Y-69177147D01*
X187316572Y-69102896D01*
X187477901Y-68995099D01*
X187615099Y-68857901D01*
X187722896Y-68696572D01*
X187797147Y-68517314D01*
X187835000Y-68327014D01*
X187835000Y-68132986D01*
X187797147Y-67942686D01*
X187722896Y-67763428D01*
X187643435Y-67644507D01*
X187755047Y-67530441D01*
X187880063Y-67338864D01*
X187963964Y-67105810D01*
X188856036Y-67105810D01*
X188939937Y-67338864D01*
X189064953Y-67530441D01*
X189224941Y-67693947D01*
X189413754Y-67823099D01*
X189624135Y-67912934D01*
X189848000Y-67960000D01*
X190373000Y-67960000D01*
X190373000Y-66927000D01*
X190627000Y-66927000D01*
X190627000Y-67960000D01*
X191152000Y-67960000D01*
X191375865Y-67912934D01*
X191586246Y-67823099D01*
X191775059Y-67693947D01*
X191935047Y-67530441D01*
X192060063Y-67338864D01*
X192143964Y-67105810D01*
X192018163Y-66927000D01*
X190627000Y-66927000D01*
X190373000Y-66927000D01*
X188981837Y-66927000D01*
X188856036Y-67105810D01*
X187963964Y-67105810D01*
X187838163Y-66927000D01*
X186447000Y-66927000D01*
X186447000Y-66947000D01*
X186193000Y-66947000D01*
X186193000Y-66927000D01*
X186173000Y-66927000D01*
X186173000Y-66673000D01*
X186193000Y-66673000D01*
X186193000Y-65640000D01*
X186447000Y-65640000D01*
X186447000Y-66673000D01*
X187838163Y-66673000D01*
X187963964Y-66494190D01*
X188856036Y-66494190D01*
X188981837Y-66673000D01*
X190373000Y-66673000D01*
X190373000Y-65640000D01*
X190627000Y-65640000D01*
X190627000Y-66673000D01*
X192018163Y-66673000D01*
X192143964Y-66494190D01*
X192060063Y-66261136D01*
X191935047Y-66069559D01*
X191775059Y-65906053D01*
X191586246Y-65776901D01*
X191375865Y-65687066D01*
X191152000Y-65640000D01*
X190627000Y-65640000D01*
X190373000Y-65640000D01*
X189848000Y-65640000D01*
X189624135Y-65687066D01*
X189413754Y-65776901D01*
X189224941Y-65906053D01*
X189064953Y-66069559D01*
X188939937Y-66261136D01*
X188856036Y-66494190D01*
X187963964Y-66494190D01*
X187880063Y-66261136D01*
X187755047Y-66069559D01*
X187595059Y-65906053D01*
X187406246Y-65776901D01*
X187195865Y-65687066D01*
X186972000Y-65640000D01*
X186447000Y-65640000D01*
X186193000Y-65640000D01*
X185718781Y-65640000D01*
X187383884Y-63974898D01*
X187412881Y-63951101D01*
X187447061Y-63909453D01*
X187507854Y-63835377D01*
X187578426Y-63703347D01*
X187594766Y-63649481D01*
X187621883Y-63560086D01*
X187632880Y-63448433D01*
X187632880Y-63448424D01*
X187636556Y-63411101D01*
X187632880Y-63373778D01*
X187632880Y-56403371D01*
X187666657Y-56369594D01*
X187779925Y-56200076D01*
X187857946Y-56011718D01*
X187897720Y-55811759D01*
X187897720Y-55607881D01*
X187857946Y-55407922D01*
X187779925Y-55219564D01*
X187666657Y-55050046D01*
X187522494Y-54905883D01*
X187352976Y-54792615D01*
X187164618Y-54714594D01*
X186964659Y-54674820D01*
X186760781Y-54674820D01*
X186560822Y-54714594D01*
X186372464Y-54792615D01*
X186202946Y-54905883D01*
X186058783Y-55050046D01*
X185945515Y-55219564D01*
X185867494Y-55407922D01*
X185827720Y-55607881D01*
X185827720Y-55811759D01*
X185867494Y-56011718D01*
X185945515Y-56200076D01*
X186058783Y-56369594D01*
X186112881Y-56423692D01*
X186112880Y-60265604D01*
X185969978Y-60170120D01*
X185777071Y-60090215D01*
X185572281Y-60049480D01*
X185363479Y-60049480D01*
X185158689Y-60090215D01*
X185141483Y-60097342D01*
X185137060Y-60094978D01*
X185026239Y-60061361D01*
X185060085Y-60010706D01*
X185138106Y-59822348D01*
X185177880Y-59622389D01*
X185177880Y-59418511D01*
X185138106Y-59218552D01*
X185060085Y-59030194D01*
X184946817Y-58860676D01*
X184802654Y-58716513D01*
X184633136Y-58603245D01*
X184444778Y-58525224D01*
X184244819Y-58485450D01*
X184040941Y-58485450D01*
X183840982Y-58525224D01*
X183652624Y-58603245D01*
X183483106Y-58716513D01*
X183338943Y-58860676D01*
X183225675Y-59030194D01*
X183147654Y-59218552D01*
X183107880Y-59418511D01*
X183107880Y-59480648D01*
X182343598Y-60244931D01*
X182314600Y-60268729D01*
X182290802Y-60297727D01*
X182290801Y-60297728D01*
X182219626Y-60384454D01*
X182149054Y-60516484D01*
X182132979Y-60569479D01*
X182105598Y-60659744D01*
X182100865Y-60707802D01*
X182090924Y-60808730D01*
X182094601Y-60846062D01*
X182094600Y-62286657D01*
X182090924Y-62323980D01*
X182093631Y-62351465D01*
X182049332Y-62342653D01*
X181845454Y-62342653D01*
X181645495Y-62382427D01*
X181457137Y-62460448D01*
X181287619Y-62573716D01*
X181143456Y-62717879D01*
X181030188Y-62887397D01*
X180952167Y-63075755D01*
X180912393Y-63275714D01*
X180912393Y-63337851D01*
X178236423Y-66013822D01*
X178207419Y-66037625D01*
X178153600Y-66103204D01*
X178153600Y-64997822D01*
X178157276Y-64960499D01*
X178153600Y-64923176D01*
X178153600Y-64923167D01*
X178142603Y-64811514D01*
X178099146Y-64668253D01*
X178028574Y-64536224D01*
X177933601Y-64420499D01*
X177904597Y-64396696D01*
X177611903Y-64104002D01*
X177588100Y-64074998D01*
X177472375Y-63980025D01*
X177340346Y-63909453D01*
X177197085Y-63865996D01*
X177085432Y-63854999D01*
X177085421Y-63854999D01*
X177048099Y-63851323D01*
X177010777Y-63854999D01*
X173786581Y-63854999D01*
X169991518Y-60059936D01*
X172248410Y-60059936D01*
X172488556Y-60447179D01*
X172982457Y-60707802D01*
X173517713Y-60867062D01*
X174073754Y-60918839D01*
X174629212Y-60861142D01*
X175162741Y-60696189D01*
X175628604Y-60447179D01*
X175868750Y-60059936D01*
X174058580Y-58249766D01*
X172248410Y-60059936D01*
X169991518Y-60059936D01*
X169473804Y-59542223D01*
X169473799Y-59542217D01*
X168016917Y-58085335D01*
X171209902Y-58085335D01*
X171267599Y-58640793D01*
X171432552Y-59174322D01*
X171681562Y-59640185D01*
X172068805Y-59880331D01*
X173878975Y-58070161D01*
X174238185Y-58070161D01*
X176048355Y-59880331D01*
X176435598Y-59640185D01*
X176696221Y-59146284D01*
X176855481Y-58611028D01*
X176907258Y-58054987D01*
X176849561Y-57499529D01*
X176684608Y-56966000D01*
X176435598Y-56500137D01*
X176048355Y-56259991D01*
X174238185Y-58070161D01*
X173878975Y-58070161D01*
X172068805Y-56259991D01*
X171681562Y-56500137D01*
X171420939Y-56994038D01*
X171261679Y-57529294D01*
X171209902Y-58085335D01*
X168016917Y-58085335D01*
X166011968Y-56080386D01*
X172248410Y-56080386D01*
X174058580Y-57890556D01*
X175868750Y-56080386D01*
X175628604Y-55693143D01*
X175134703Y-55432520D01*
X174599447Y-55273260D01*
X174043406Y-55221483D01*
X173487948Y-55279180D01*
X172954419Y-55444133D01*
X172488556Y-55693143D01*
X172248410Y-56080386D01*
X166011968Y-56080386D01*
X164086464Y-54154883D01*
X164062661Y-54125879D01*
X163946936Y-54030906D01*
X163814907Y-53960334D01*
X163671646Y-53916877D01*
X163559993Y-53905880D01*
X163559982Y-53905880D01*
X163522660Y-53902204D01*
X163485338Y-53905880D01*
X154286442Y-53905880D01*
X154249119Y-53902204D01*
X154211796Y-53905880D01*
X135236442Y-53905880D01*
X135199119Y-53902204D01*
X135161796Y-53905880D01*
X116186442Y-53905880D01*
X116149119Y-53902204D01*
X116111796Y-53905880D01*
X116111787Y-53905880D01*
X116000134Y-53916877D01*
X115856873Y-53960334D01*
X115724843Y-54030906D01*
X115641203Y-54099548D01*
X115609119Y-54125879D01*
X115585321Y-54154877D01*
X112327912Y-57412286D01*
X112266081Y-57386675D01*
X111930883Y-57320000D01*
X111589117Y-57320000D01*
X111253919Y-57386675D01*
X110938169Y-57517463D01*
X110654002Y-57707337D01*
X110412337Y-57949002D01*
X110222463Y-58233169D01*
X110091675Y-58548919D01*
X110025000Y-58884117D01*
X110025000Y-59225883D01*
X110091675Y-59561081D01*
X110222463Y-59876831D01*
X110378261Y-60110000D01*
X110343740Y-60110000D01*
X110056842Y-60167068D01*
X109786589Y-60279010D01*
X109543368Y-60441525D01*
X109336525Y-60648368D01*
X109174010Y-60891589D01*
X109062068Y-61161842D01*
X109005000Y-61448740D01*
X104800000Y-61448740D01*
X104800000Y-56392807D01*
X108892920Y-56392807D01*
X108892920Y-56631353D01*
X108939458Y-56865316D01*
X109030745Y-57085704D01*
X109163274Y-57284048D01*
X109331952Y-57452726D01*
X109530296Y-57585255D01*
X109750684Y-57676542D01*
X109984647Y-57723080D01*
X110223193Y-57723080D01*
X110457156Y-57676542D01*
X110677544Y-57585255D01*
X110875888Y-57452726D01*
X111044566Y-57284048D01*
X111177095Y-57085704D01*
X111268382Y-56865316D01*
X111314920Y-56631353D01*
X111314920Y-56392807D01*
X111268382Y-56158844D01*
X111177095Y-55938456D01*
X111044566Y-55740112D01*
X110875888Y-55571434D01*
X110677544Y-55438905D01*
X110457156Y-55347618D01*
X110223193Y-55301080D01*
X109984647Y-55301080D01*
X109750684Y-55347618D01*
X109530296Y-55438905D01*
X109331952Y-55571434D01*
X109163274Y-55740112D01*
X109030745Y-55938456D01*
X108939458Y-56158844D01*
X108892920Y-56392807D01*
X104800000Y-56392807D01*
X104800000Y-52180727D01*
X188689000Y-52180727D01*
X188689000Y-52419273D01*
X188735538Y-52653236D01*
X188826825Y-52873624D01*
X188959354Y-53071968D01*
X189128032Y-53240646D01*
X189326376Y-53373175D01*
X189546764Y-53464462D01*
X189780727Y-53511000D01*
X190019273Y-53511000D01*
X190253236Y-53464462D01*
X190473624Y-53373175D01*
X190671968Y-53240646D01*
X190840646Y-53071968D01*
X190973175Y-52873624D01*
X191064462Y-52653236D01*
X191111000Y-52419273D01*
X191111000Y-52180727D01*
X191064462Y-51946764D01*
X190973175Y-51726376D01*
X190840646Y-51528032D01*
X190671968Y-51359354D01*
X190473624Y-51226825D01*
X190253236Y-51135538D01*
X190019273Y-51089000D01*
X189780727Y-51089000D01*
X189546764Y-51135538D01*
X189326376Y-51226825D01*
X189128032Y-51359354D01*
X188959354Y-51528032D01*
X188826825Y-51726376D01*
X188735538Y-51946764D01*
X188689000Y-52180727D01*
X104800000Y-52180727D01*
X104800000Y-52102279D01*
X104838909Y-51705455D01*
X104944780Y-51354792D01*
X105116744Y-51031375D01*
X105348254Y-50747516D01*
X105630486Y-50514035D01*
X105952695Y-50339817D01*
X106302614Y-50231498D01*
X106697443Y-50190000D01*
X190467721Y-50190000D01*
X190864545Y-50228909D01*
G37*
%TD.AperFunction*%
D17*
X183076301Y-63620482D02*
X183100099Y-63649481D01*
X183215824Y-63744454D01*
X183347853Y-63815026D01*
X183491114Y-63858483D01*
X183602767Y-63869480D01*
X183602775Y-63869480D01*
X183640100Y-63873156D01*
X183677425Y-63869480D01*
X183728813Y-63869480D01*
X183792169Y-63932836D01*
X183965782Y-64048840D01*
X184158689Y-64128745D01*
X184363479Y-64169480D01*
X184403289Y-64169480D01*
X183826533Y-64746236D01*
X183797529Y-64770039D01*
X183763492Y-64811514D01*
X183702556Y-64885764D01*
X183691074Y-64907246D01*
X183631984Y-65017794D01*
X183588527Y-65161055D01*
X183577530Y-65272708D01*
X183577530Y-65272718D01*
X183573854Y-65310040D01*
X183577530Y-65347362D01*
X183577531Y-72646319D01*
X179249545Y-68318334D01*
X179407194Y-68212997D01*
X179551357Y-68068834D01*
X179664625Y-67899316D01*
X179742646Y-67710958D01*
X179782420Y-67510999D01*
X179782420Y-67307121D01*
X179742646Y-67107162D01*
X179664625Y-66918804D01*
X179591093Y-66808755D01*
X181987195Y-64412653D01*
X182049332Y-64412653D01*
X182249291Y-64372879D01*
X182437649Y-64294858D01*
X182607167Y-64181590D01*
X182751330Y-64037427D01*
X182864598Y-63867909D01*
X182942619Y-63679551D01*
X182974598Y-63518780D01*
X183076301Y-63620482D01*
%TA.AperFunction,Conductor*%
D18*
G36*
X183076301Y-63620482D02*
G01*
X183100099Y-63649481D01*
X183215824Y-63744454D01*
X183347853Y-63815026D01*
X183491114Y-63858483D01*
X183602767Y-63869480D01*
X183602775Y-63869480D01*
X183640100Y-63873156D01*
X183677425Y-63869480D01*
X183728813Y-63869480D01*
X183792169Y-63932836D01*
X183965782Y-64048840D01*
X184158689Y-64128745D01*
X184363479Y-64169480D01*
X184403289Y-64169480D01*
X183826533Y-64746236D01*
X183797529Y-64770039D01*
X183763492Y-64811514D01*
X183702556Y-64885764D01*
X183691074Y-64907246D01*
X183631984Y-65017794D01*
X183588527Y-65161055D01*
X183577530Y-65272708D01*
X183577530Y-65272718D01*
X183573854Y-65310040D01*
X183577530Y-65347362D01*
X183577531Y-72646319D01*
X179249545Y-68318334D01*
X179407194Y-68212997D01*
X179551357Y-68068834D01*
X179664625Y-67899316D01*
X179742646Y-67710958D01*
X179782420Y-67510999D01*
X179782420Y-67307121D01*
X179742646Y-67107162D01*
X179664625Y-66918804D01*
X179591093Y-66808755D01*
X181987195Y-64412653D01*
X182049332Y-64412653D01*
X182249291Y-64372879D01*
X182437649Y-64294858D01*
X182607167Y-64181590D01*
X182751330Y-64037427D01*
X182864598Y-63867909D01*
X182942619Y-63679551D01*
X182974598Y-63518780D01*
X183076301Y-63620482D01*
G37*
%TD.AperFunction*%
%TD*%
M02*
