%TF.GenerationSoftware,KiCad,Pcbnew,5.1.7-a382d34a8~88~ubuntu20.04.1*%
%TF.CreationDate,2021-03-21T15:49:45+01:00*%
%TF.ProjectId,marco-keyboard,6d617263-6f2d-46b6-9579-626f6172642e,rev?*%
%TF.SameCoordinates,Original*%
%TF.FileFunction,Legend,Top*%
%TF.FilePolarity,Positive*%
%FSLAX46Y46*%
G04 Gerber Fmt 4.6, Leading zero omitted, Abs format (unit mm)*
G04 Created by KiCad (PCBNEW 5.1.7-a382d34a8~88~ubuntu20.04.1) date 2021-03-21 15:49:45*
%MOMM*%
%LPD*%
G01*
G04 APERTURE LIST*
%ADD10C,0.150000*%
%ADD11C,0.120000*%
%ADD12C,0.127000*%
%ADD13C,0.200000*%
%ADD14C,0.015000*%
G04 APERTURE END LIST*
D10*
X168824477Y-73931682D02*
X168824477Y-74574540D01*
X168781620Y-74703111D01*
X168695905Y-74788825D01*
X168567334Y-74831682D01*
X168481620Y-74831682D01*
X169681620Y-74831682D02*
X169253048Y-74831682D01*
X169253048Y-73931682D01*
X170495905Y-74745968D02*
X170453048Y-74788825D01*
X170324477Y-74831682D01*
X170238762Y-74831682D01*
X170110191Y-74788825D01*
X170024477Y-74703111D01*
X169981620Y-74617397D01*
X169938762Y-74445968D01*
X169938762Y-74317397D01*
X169981620Y-74145968D01*
X170024477Y-74060254D01*
X170110191Y-73974540D01*
X170238762Y-73931682D01*
X170324477Y-73931682D01*
X170453048Y-73974540D01*
X170495905Y-74017397D01*
X171138762Y-73931682D02*
X171138762Y-74574540D01*
X171095905Y-74703111D01*
X171010191Y-74788825D01*
X170881620Y-74831682D01*
X170795905Y-74831682D01*
X171995905Y-74831682D02*
X171567334Y-74831682D01*
X171567334Y-73931682D01*
X172810191Y-74745968D02*
X172767334Y-74788825D01*
X172638762Y-74831682D01*
X172553048Y-74831682D01*
X172424477Y-74788825D01*
X172338762Y-74703111D01*
X172295905Y-74617397D01*
X172253048Y-74445968D01*
X172253048Y-74317397D01*
X172295905Y-74145968D01*
X172338762Y-74060254D01*
X172424477Y-73974540D01*
X172553048Y-73931682D01*
X172638762Y-73931682D01*
X172767334Y-73974540D01*
X172810191Y-74017397D01*
X173453048Y-73931682D02*
X173453048Y-74574540D01*
X173410191Y-74703111D01*
X173324477Y-74788825D01*
X173195905Y-74831682D01*
X173110191Y-74831682D01*
X174310191Y-74831682D02*
X173881620Y-74831682D01*
X173881620Y-73931682D01*
X175124477Y-74745968D02*
X175081620Y-74788825D01*
X174953048Y-74831682D01*
X174867334Y-74831682D01*
X174738762Y-74788825D01*
X174653048Y-74703111D01*
X174610191Y-74617397D01*
X174567334Y-74445968D01*
X174567334Y-74317397D01*
X174610191Y-74145968D01*
X174653048Y-74060254D01*
X174738762Y-73974540D01*
X174867334Y-73931682D01*
X174953048Y-73931682D01*
X175081620Y-73974540D01*
X175124477Y-74017397D01*
X175767334Y-73931682D02*
X175767334Y-74574540D01*
X175724477Y-74703111D01*
X175638762Y-74788825D01*
X175510191Y-74831682D01*
X175424477Y-74831682D01*
X176624477Y-74831682D02*
X176195905Y-74831682D01*
X176195905Y-73931682D01*
X177438762Y-74745968D02*
X177395905Y-74788825D01*
X177267334Y-74831682D01*
X177181620Y-74831682D01*
X177053048Y-74788825D01*
X176967334Y-74703111D01*
X176924477Y-74617397D01*
X176881620Y-74445968D01*
X176881620Y-74317397D01*
X176924477Y-74145968D01*
X176967334Y-74060254D01*
X177053048Y-73974540D01*
X177181620Y-73931682D01*
X177267334Y-73931682D01*
X177395905Y-73974540D01*
X177438762Y-74017397D01*
D11*
X191124840Y-64248160D02*
X188584840Y-64248160D01*
D10*
X191113684Y-63028692D02*
X190732732Y-63295359D01*
X191113684Y-63485835D02*
X190313684Y-63485835D01*
X190313684Y-63181073D01*
X190351780Y-63104883D01*
X190389875Y-63066788D01*
X190466065Y-63028692D01*
X190580351Y-63028692D01*
X190656541Y-63066788D01*
X190694637Y-63104883D01*
X190732732Y-63181073D01*
X190732732Y-63485835D01*
X191075589Y-62381073D02*
X191113684Y-62457264D01*
X191113684Y-62609645D01*
X191075589Y-62685835D01*
X190999399Y-62723930D01*
X190694637Y-62723930D01*
X190618446Y-62685835D01*
X190580351Y-62609645D01*
X190580351Y-62457264D01*
X190618446Y-62381073D01*
X190694637Y-62342978D01*
X190770827Y-62342978D01*
X190847018Y-62723930D01*
X190580351Y-62076311D02*
X191113684Y-61885835D01*
X190580351Y-61695359D01*
X191113684Y-60362026D02*
X191113684Y-60819169D01*
X191113684Y-60590597D02*
X190313684Y-60590597D01*
X190427970Y-60666788D01*
X190504160Y-60742978D01*
X190542256Y-60819169D01*
X191037494Y-60019169D02*
X191075589Y-59981073D01*
X191113684Y-60019169D01*
X191075589Y-60057264D01*
X191037494Y-60019169D01*
X191113684Y-60019169D01*
X190313684Y-59485835D02*
X190313684Y-59409645D01*
X190351780Y-59333454D01*
X190389875Y-59295359D01*
X190466065Y-59257264D01*
X190618446Y-59219169D01*
X190808922Y-59219169D01*
X190961303Y-59257264D01*
X191037494Y-59295359D01*
X191075589Y-59333454D01*
X191113684Y-59409645D01*
X191113684Y-59485835D01*
X191075589Y-59562026D01*
X191037494Y-59600121D01*
X190961303Y-59638216D01*
X190808922Y-59676311D01*
X190618446Y-59676311D01*
X190466065Y-59638216D01*
X190389875Y-59600121D01*
X190351780Y-59562026D01*
X190313684Y-59485835D01*
X189626477Y-62919169D02*
X189626477Y-63490597D01*
X188426477Y-63490597D01*
X189626477Y-62004883D02*
X188997905Y-62004883D01*
X188883620Y-62062026D01*
X188826477Y-62176312D01*
X188826477Y-62404883D01*
X188883620Y-62519169D01*
X189569334Y-62004883D02*
X189626477Y-62119169D01*
X189626477Y-62404883D01*
X189569334Y-62519169D01*
X189455048Y-62576312D01*
X189340762Y-62576312D01*
X189226477Y-62519169D01*
X189169334Y-62404883D01*
X189169334Y-62119169D01*
X189112191Y-62004883D01*
X188826477Y-60919169D02*
X189626477Y-60919169D01*
X188826477Y-61433454D02*
X189455048Y-61433454D01*
X189569334Y-61376312D01*
X189626477Y-61262026D01*
X189626477Y-61090597D01*
X189569334Y-60976312D01*
X189512191Y-60919169D01*
X188826477Y-60347740D02*
X189626477Y-60347740D01*
X188940762Y-60347740D02*
X188883620Y-60290597D01*
X188826477Y-60176312D01*
X188826477Y-60004883D01*
X188883620Y-59890597D01*
X188997905Y-59833454D01*
X189626477Y-59833454D01*
X189569334Y-58747740D02*
X189626477Y-58862026D01*
X189626477Y-59090597D01*
X189569334Y-59204883D01*
X189512191Y-59262026D01*
X189397905Y-59319169D01*
X189055048Y-59319169D01*
X188940762Y-59262026D01*
X188883620Y-59204883D01*
X188826477Y-59090597D01*
X188826477Y-58862026D01*
X188883620Y-58747740D01*
X189626477Y-58233454D02*
X188426477Y-58233454D01*
X189626477Y-57719169D02*
X188997905Y-57719169D01*
X188883620Y-57776312D01*
X188826477Y-57890597D01*
X188826477Y-58062026D01*
X188883620Y-58176312D01*
X188940762Y-58233454D01*
X188826477Y-57147740D02*
X190026477Y-57147740D01*
X188883620Y-57147740D02*
X188826477Y-57033454D01*
X188826477Y-56804883D01*
X188883620Y-56690597D01*
X188940762Y-56633454D01*
X189055048Y-56576312D01*
X189397905Y-56576312D01*
X189512191Y-56633454D01*
X189569334Y-56690597D01*
X189626477Y-56804883D01*
X189626477Y-57033454D01*
X189569334Y-57147740D01*
X189626477Y-55547740D02*
X188997905Y-55547740D01*
X188883620Y-55604883D01*
X188826477Y-55719169D01*
X188826477Y-55947740D01*
X188883620Y-56062026D01*
X189569334Y-55547740D02*
X189626477Y-55662026D01*
X189626477Y-55947740D01*
X189569334Y-56062026D01*
X189455048Y-56119169D01*
X189340762Y-56119169D01*
X189226477Y-56062026D01*
X189169334Y-55947740D01*
X189169334Y-55662026D01*
X189112191Y-55547740D01*
X189626477Y-54462026D02*
X188426477Y-54462026D01*
X189569334Y-54462026D02*
X189626477Y-54576312D01*
X189626477Y-54804883D01*
X189569334Y-54919169D01*
X189512191Y-54976312D01*
X189397905Y-55033454D01*
X189055048Y-55033454D01*
X188940762Y-54976312D01*
X188883620Y-54919169D01*
X188826477Y-54804883D01*
X188826477Y-54576312D01*
X188883620Y-54462026D01*
X183786927Y-65012524D02*
X183786927Y-64212524D01*
X184625022Y-64936334D02*
X184586927Y-64974429D01*
X184472641Y-65012524D01*
X184396451Y-65012524D01*
X184282165Y-64974429D01*
X184205975Y-64898239D01*
X184167880Y-64822048D01*
X184129784Y-64669667D01*
X184129784Y-64555381D01*
X184167880Y-64403000D01*
X184205975Y-64326810D01*
X184282165Y-64250620D01*
X184396451Y-64212524D01*
X184472641Y-64212524D01*
X184586927Y-64250620D01*
X184625022Y-64288715D01*
X184929784Y-64974429D02*
X185044070Y-65012524D01*
X185234546Y-65012524D01*
X185310737Y-64974429D01*
X185348832Y-64936334D01*
X185386927Y-64860143D01*
X185386927Y-64783953D01*
X185348832Y-64707762D01*
X185310737Y-64669667D01*
X185234546Y-64631572D01*
X185082165Y-64593477D01*
X185005975Y-64555381D01*
X184967880Y-64517286D01*
X184929784Y-64441096D01*
X184929784Y-64364905D01*
X184967880Y-64288715D01*
X185005975Y-64250620D01*
X185082165Y-64212524D01*
X185272641Y-64212524D01*
X185386927Y-64250620D01*
X185729784Y-65012524D02*
X185729784Y-64212524D01*
X186034546Y-64212524D01*
X186110737Y-64250620D01*
X186148832Y-64288715D01*
X186186927Y-64364905D01*
X186186927Y-64479191D01*
X186148832Y-64555381D01*
X186110737Y-64593477D01*
X186034546Y-64631572D01*
X185729784Y-64631572D01*
D11*
%TO.C,SW6*%
X165735000Y-64135000D02*
X179705000Y-64135000D01*
X179705000Y-64135000D02*
X179705000Y-78105000D01*
X179705000Y-78105000D02*
X165735000Y-78105000D01*
X165735000Y-78105000D02*
X165735000Y-64135000D01*
D12*
%TO.C,J1*%
X187690000Y-75590000D02*
X189130000Y-75590000D01*
X187690000Y-66650000D02*
X189130000Y-66650000D01*
X191870000Y-66650000D02*
X193100000Y-66650000D01*
X193100000Y-66650000D02*
X193100000Y-75590000D01*
X193100000Y-75590000D02*
X191870000Y-75590000D01*
D13*
X184200000Y-74520000D02*
G75*
G03*
X184200000Y-74520000I-100000J0D01*
G01*
D11*
%TO.C,D2*%
X184167880Y-54633780D02*
X186452880Y-54633780D01*
X186452880Y-54633780D02*
X186452880Y-53163780D01*
X186452880Y-53163780D02*
X184167880Y-53163780D01*
%TO.C,C1*%
X186518940Y-84862640D02*
X186800100Y-84862640D01*
X186518940Y-83842640D02*
X186800100Y-83842640D01*
%TO.C,C2*%
X178104260Y-79337480D02*
X178104260Y-79056320D01*
X177084260Y-79337480D02*
X177084260Y-79056320D01*
%TO.C,C3*%
X173391800Y-83979480D02*
X173110640Y-83979480D01*
X173391800Y-82959480D02*
X173110640Y-82959480D01*
%TO.C,C4*%
X186518940Y-86905880D02*
X186800100Y-86905880D01*
X186518940Y-87925880D02*
X186800100Y-87925880D01*
%TO.C,C5*%
X173403840Y-89519220D02*
X173122680Y-89519220D01*
X173403840Y-88499220D02*
X173122680Y-88499220D01*
%TO.C,C6*%
X186518940Y-83285300D02*
X186800100Y-83285300D01*
X186518940Y-82265300D02*
X186800100Y-82265300D01*
%TO.C,C7*%
X183956420Y-79319700D02*
X183956420Y-79038540D01*
X182936420Y-79319700D02*
X182936420Y-79038540D01*
%TO.C,C8*%
X165818530Y-87553399D02*
X166017341Y-87752210D01*
X166539779Y-86832150D02*
X166738590Y-87030961D01*
%TO.C,C9*%
X166050302Y-83083169D02*
X166249113Y-82884358D01*
X166771551Y-83804418D02*
X166970362Y-83605607D01*
%TO.C,F1*%
X185772520Y-79341899D02*
X185772520Y-79016341D01*
X184752520Y-79341899D02*
X184752520Y-79016341D01*
%TO.C,J2*%
X183757880Y-63669480D02*
X184073387Y-63669480D01*
X185862373Y-63669480D02*
X186177880Y-63669480D01*
X184862373Y-63669480D02*
X185073387Y-63669480D01*
X183757880Y-61794480D02*
X183757880Y-63669480D01*
X186177880Y-60549480D02*
X186177880Y-63669480D01*
X183757880Y-61794480D02*
X183859604Y-61794480D01*
X185862373Y-60549480D02*
X186177880Y-60549480D01*
X183757880Y-61109480D02*
X183757880Y-60424480D01*
X183757880Y-60424480D02*
X184467880Y-60424480D01*
%TO.C,R1*%
X185205138Y-56922140D02*
X184730622Y-56922140D01*
X185205138Y-57967140D02*
X184730622Y-57967140D01*
%TO.C,R2*%
X180224640Y-79424298D02*
X180224640Y-78949782D01*
X179179640Y-79424298D02*
X179179640Y-78949782D01*
%TO.C,R3*%
X180862813Y-79424298D02*
X180862813Y-78949782D01*
X181907813Y-79424298D02*
X181907813Y-78949782D01*
%TO.C,R4*%
X186422262Y-89505560D02*
X186896778Y-89505560D01*
X186422262Y-88460560D02*
X186896778Y-88460560D01*
%TO.C,R5*%
X185205138Y-55169210D02*
X184730622Y-55169210D01*
X185205138Y-56214210D02*
X184730622Y-56214210D01*
%TO.C,R6*%
X183664120Y-74520022D02*
X183664120Y-74994538D01*
X182619120Y-74520022D02*
X182619120Y-74994538D01*
%TO.C,R7*%
X182619120Y-67286102D02*
X182619120Y-67760618D01*
X183664120Y-67286102D02*
X183664120Y-67760618D01*
%TO.C,SW0*%
X108585000Y-68580000D02*
X108585000Y-54610000D01*
X122555000Y-68580000D02*
X108585000Y-68580000D01*
X122555000Y-54610000D02*
X122555000Y-68580000D01*
X108585000Y-54610000D02*
X122555000Y-54610000D01*
%TO.C,SW1*%
X108585000Y-73660000D02*
X122555000Y-73660000D01*
X122555000Y-73660000D02*
X122555000Y-87630000D01*
X122555000Y-87630000D02*
X108585000Y-87630000D01*
X108585000Y-87630000D02*
X108585000Y-73660000D01*
%TO.C,SW2*%
X127635000Y-54610000D02*
X141605000Y-54610000D01*
X141605000Y-54610000D02*
X141605000Y-68580000D01*
X141605000Y-68580000D02*
X127635000Y-68580000D01*
X127635000Y-68580000D02*
X127635000Y-54610000D01*
%TO.C,SW3*%
X127635000Y-87630000D02*
X127635000Y-73660000D01*
X141605000Y-87630000D02*
X127635000Y-87630000D01*
X141605000Y-73660000D02*
X141605000Y-87630000D01*
X127635000Y-73660000D02*
X141605000Y-73660000D01*
%TO.C,SW4*%
X146685000Y-68580000D02*
X146685000Y-54610000D01*
X160655000Y-68580000D02*
X146685000Y-68580000D01*
X160655000Y-54610000D02*
X160655000Y-68580000D01*
X146685000Y-54610000D02*
X160655000Y-54610000D01*
%TO.C,SW5*%
X146685000Y-73660000D02*
X160655000Y-73660000D01*
X160655000Y-73660000D02*
X160655000Y-87630000D01*
X160655000Y-87630000D02*
X146685000Y-87630000D01*
X146685000Y-87630000D02*
X146685000Y-73660000D01*
%TO.C,U1*%
X182898440Y-82692680D02*
X182898440Y-81967680D01*
X175678440Y-89187680D02*
X176403440Y-89187680D01*
X175678440Y-88462680D02*
X175678440Y-89187680D01*
X175678440Y-81967680D02*
X176403440Y-81967680D01*
X175678440Y-82692680D02*
X175678440Y-81967680D01*
X182898440Y-89187680D02*
X182173440Y-89187680D01*
X182898440Y-88462680D02*
X182898440Y-89187680D01*
%TO.C,Y1*%
X168286593Y-87693800D02*
X171115020Y-84865373D01*
X165953140Y-85360347D02*
X168286593Y-87693800D01*
%TO.C,SW6*%
D10*
X171386666Y-63650761D02*
X171529523Y-63698380D01*
X171767619Y-63698380D01*
X171862857Y-63650761D01*
X171910476Y-63603142D01*
X171958095Y-63507904D01*
X171958095Y-63412666D01*
X171910476Y-63317428D01*
X171862857Y-63269809D01*
X171767619Y-63222190D01*
X171577142Y-63174571D01*
X171481904Y-63126952D01*
X171434285Y-63079333D01*
X171386666Y-62984095D01*
X171386666Y-62888857D01*
X171434285Y-62793619D01*
X171481904Y-62746000D01*
X171577142Y-62698380D01*
X171815238Y-62698380D01*
X171958095Y-62746000D01*
X172291428Y-62698380D02*
X172529523Y-63698380D01*
X172720000Y-62984095D01*
X172910476Y-63698380D01*
X173148571Y-62698380D01*
X173958095Y-62698380D02*
X173767619Y-62698380D01*
X173672380Y-62746000D01*
X173624761Y-62793619D01*
X173529523Y-62936476D01*
X173481904Y-63126952D01*
X173481904Y-63507904D01*
X173529523Y-63603142D01*
X173577142Y-63650761D01*
X173672380Y-63698380D01*
X173862857Y-63698380D01*
X173958095Y-63650761D01*
X174005714Y-63603142D01*
X174053333Y-63507904D01*
X174053333Y-63269809D01*
X174005714Y-63174571D01*
X173958095Y-63126952D01*
X173862857Y-63079333D01*
X173672380Y-63079333D01*
X173577142Y-63126952D01*
X173529523Y-63174571D01*
X173481904Y-63269809D01*
X170100952Y-76351142D02*
X170053333Y-76398761D01*
X169910476Y-76446380D01*
X169815238Y-76446380D01*
X169672380Y-76398761D01*
X169577142Y-76303523D01*
X169529523Y-76208285D01*
X169481904Y-76017809D01*
X169481904Y-75874952D01*
X169529523Y-75684476D01*
X169577142Y-75589238D01*
X169672380Y-75494000D01*
X169815238Y-75446380D01*
X169910476Y-75446380D01*
X170053333Y-75494000D01*
X170100952Y-75541619D01*
X170529523Y-76446380D02*
X170529523Y-75446380D01*
X170958095Y-76446380D02*
X170958095Y-75922571D01*
X170910476Y-75827333D01*
X170815238Y-75779714D01*
X170672380Y-75779714D01*
X170577142Y-75827333D01*
X170529523Y-75874952D01*
X171815238Y-76398761D02*
X171720000Y-76446380D01*
X171529523Y-76446380D01*
X171434285Y-76398761D01*
X171386666Y-76303523D01*
X171386666Y-75922571D01*
X171434285Y-75827333D01*
X171529523Y-75779714D01*
X171720000Y-75779714D01*
X171815238Y-75827333D01*
X171862857Y-75922571D01*
X171862857Y-76017809D01*
X171386666Y-76113047D01*
X172291428Y-76446380D02*
X172291428Y-75779714D01*
X172291428Y-75970190D02*
X172339047Y-75874952D01*
X172386666Y-75827333D01*
X172481904Y-75779714D01*
X172577142Y-75779714D01*
X172910476Y-76446380D02*
X172910476Y-75779714D01*
X172910476Y-75970190D02*
X172958095Y-75874952D01*
X173005714Y-75827333D01*
X173100952Y-75779714D01*
X173196190Y-75779714D01*
X173434285Y-75779714D02*
X173672380Y-76446380D01*
X173910476Y-75779714D02*
X173672380Y-76446380D01*
X173577142Y-76684476D01*
X173529523Y-76732095D01*
X173434285Y-76779714D01*
X174291428Y-76446380D02*
X174291428Y-75446380D01*
X174624761Y-76160666D01*
X174958095Y-75446380D01*
X174958095Y-76446380D01*
X175339047Y-75446380D02*
X176005714Y-76446380D01*
X176005714Y-75446380D02*
X175339047Y-76446380D01*
%TO.C,J1*%
D14*
X182517380Y-73278333D02*
X183231666Y-73278333D01*
X183374523Y-73325952D01*
X183469761Y-73421190D01*
X183517380Y-73564047D01*
X183517380Y-73659285D01*
X183517380Y-72278333D02*
X183517380Y-72849761D01*
X183517380Y-72564047D02*
X182517380Y-72564047D01*
X182660238Y-72659285D01*
X182755476Y-72754523D01*
X182803095Y-72849761D01*
%TO.C,SW0*%
D10*
X114236666Y-54125761D02*
X114379523Y-54173380D01*
X114617619Y-54173380D01*
X114712857Y-54125761D01*
X114760476Y-54078142D01*
X114808095Y-53982904D01*
X114808095Y-53887666D01*
X114760476Y-53792428D01*
X114712857Y-53744809D01*
X114617619Y-53697190D01*
X114427142Y-53649571D01*
X114331904Y-53601952D01*
X114284285Y-53554333D01*
X114236666Y-53459095D01*
X114236666Y-53363857D01*
X114284285Y-53268619D01*
X114331904Y-53221000D01*
X114427142Y-53173380D01*
X114665238Y-53173380D01*
X114808095Y-53221000D01*
X115141428Y-53173380D02*
X115379523Y-54173380D01*
X115570000Y-53459095D01*
X115760476Y-54173380D01*
X115998571Y-53173380D01*
X116570000Y-53173380D02*
X116665238Y-53173380D01*
X116760476Y-53221000D01*
X116808095Y-53268619D01*
X116855714Y-53363857D01*
X116903333Y-53554333D01*
X116903333Y-53792428D01*
X116855714Y-53982904D01*
X116808095Y-54078142D01*
X116760476Y-54125761D01*
X116665238Y-54173380D01*
X116570000Y-54173380D01*
X116474761Y-54125761D01*
X116427142Y-54078142D01*
X116379523Y-53982904D01*
X116331904Y-53792428D01*
X116331904Y-53554333D01*
X116379523Y-53363857D01*
X116427142Y-53268619D01*
X116474761Y-53221000D01*
X116570000Y-53173380D01*
X112950952Y-66826142D02*
X112903333Y-66873761D01*
X112760476Y-66921380D01*
X112665238Y-66921380D01*
X112522380Y-66873761D01*
X112427142Y-66778523D01*
X112379523Y-66683285D01*
X112331904Y-66492809D01*
X112331904Y-66349952D01*
X112379523Y-66159476D01*
X112427142Y-66064238D01*
X112522380Y-65969000D01*
X112665238Y-65921380D01*
X112760476Y-65921380D01*
X112903333Y-65969000D01*
X112950952Y-66016619D01*
X113379523Y-66921380D02*
X113379523Y-65921380D01*
X113808095Y-66921380D02*
X113808095Y-66397571D01*
X113760476Y-66302333D01*
X113665238Y-66254714D01*
X113522380Y-66254714D01*
X113427142Y-66302333D01*
X113379523Y-66349952D01*
X114665238Y-66873761D02*
X114570000Y-66921380D01*
X114379523Y-66921380D01*
X114284285Y-66873761D01*
X114236666Y-66778523D01*
X114236666Y-66397571D01*
X114284285Y-66302333D01*
X114379523Y-66254714D01*
X114570000Y-66254714D01*
X114665238Y-66302333D01*
X114712857Y-66397571D01*
X114712857Y-66492809D01*
X114236666Y-66588047D01*
X115141428Y-66921380D02*
X115141428Y-66254714D01*
X115141428Y-66445190D02*
X115189047Y-66349952D01*
X115236666Y-66302333D01*
X115331904Y-66254714D01*
X115427142Y-66254714D01*
X115760476Y-66921380D02*
X115760476Y-66254714D01*
X115760476Y-66445190D02*
X115808095Y-66349952D01*
X115855714Y-66302333D01*
X115950952Y-66254714D01*
X116046190Y-66254714D01*
X116284285Y-66254714D02*
X116522380Y-66921380D01*
X116760476Y-66254714D02*
X116522380Y-66921380D01*
X116427142Y-67159476D01*
X116379523Y-67207095D01*
X116284285Y-67254714D01*
X117141428Y-66921380D02*
X117141428Y-65921380D01*
X117474761Y-66635666D01*
X117808095Y-65921380D01*
X117808095Y-66921380D01*
X118189047Y-65921380D02*
X118855714Y-66921380D01*
X118855714Y-65921380D02*
X118189047Y-66921380D01*
%TO.C,SW1*%
X114236666Y-73175761D02*
X114379523Y-73223380D01*
X114617619Y-73223380D01*
X114712857Y-73175761D01*
X114760476Y-73128142D01*
X114808095Y-73032904D01*
X114808095Y-72937666D01*
X114760476Y-72842428D01*
X114712857Y-72794809D01*
X114617619Y-72747190D01*
X114427142Y-72699571D01*
X114331904Y-72651952D01*
X114284285Y-72604333D01*
X114236666Y-72509095D01*
X114236666Y-72413857D01*
X114284285Y-72318619D01*
X114331904Y-72271000D01*
X114427142Y-72223380D01*
X114665238Y-72223380D01*
X114808095Y-72271000D01*
X115141428Y-72223380D02*
X115379523Y-73223380D01*
X115570000Y-72509095D01*
X115760476Y-73223380D01*
X115998571Y-72223380D01*
X116903333Y-73223380D02*
X116331904Y-73223380D01*
X116617619Y-73223380D02*
X116617619Y-72223380D01*
X116522380Y-72366238D01*
X116427142Y-72461476D01*
X116331904Y-72509095D01*
X112950952Y-85876142D02*
X112903333Y-85923761D01*
X112760476Y-85971380D01*
X112665238Y-85971380D01*
X112522380Y-85923761D01*
X112427142Y-85828523D01*
X112379523Y-85733285D01*
X112331904Y-85542809D01*
X112331904Y-85399952D01*
X112379523Y-85209476D01*
X112427142Y-85114238D01*
X112522380Y-85019000D01*
X112665238Y-84971380D01*
X112760476Y-84971380D01*
X112903333Y-85019000D01*
X112950952Y-85066619D01*
X113379523Y-85971380D02*
X113379523Y-84971380D01*
X113808095Y-85971380D02*
X113808095Y-85447571D01*
X113760476Y-85352333D01*
X113665238Y-85304714D01*
X113522380Y-85304714D01*
X113427142Y-85352333D01*
X113379523Y-85399952D01*
X114665238Y-85923761D02*
X114570000Y-85971380D01*
X114379523Y-85971380D01*
X114284285Y-85923761D01*
X114236666Y-85828523D01*
X114236666Y-85447571D01*
X114284285Y-85352333D01*
X114379523Y-85304714D01*
X114570000Y-85304714D01*
X114665238Y-85352333D01*
X114712857Y-85447571D01*
X114712857Y-85542809D01*
X114236666Y-85638047D01*
X115141428Y-85971380D02*
X115141428Y-85304714D01*
X115141428Y-85495190D02*
X115189047Y-85399952D01*
X115236666Y-85352333D01*
X115331904Y-85304714D01*
X115427142Y-85304714D01*
X115760476Y-85971380D02*
X115760476Y-85304714D01*
X115760476Y-85495190D02*
X115808095Y-85399952D01*
X115855714Y-85352333D01*
X115950952Y-85304714D01*
X116046190Y-85304714D01*
X116284285Y-85304714D02*
X116522380Y-85971380D01*
X116760476Y-85304714D02*
X116522380Y-85971380D01*
X116427142Y-86209476D01*
X116379523Y-86257095D01*
X116284285Y-86304714D01*
X117141428Y-85971380D02*
X117141428Y-84971380D01*
X117474761Y-85685666D01*
X117808095Y-84971380D01*
X117808095Y-85971380D01*
X118189047Y-84971380D02*
X118855714Y-85971380D01*
X118855714Y-84971380D02*
X118189047Y-85971380D01*
%TO.C,SW2*%
X133286666Y-54125761D02*
X133429523Y-54173380D01*
X133667619Y-54173380D01*
X133762857Y-54125761D01*
X133810476Y-54078142D01*
X133858095Y-53982904D01*
X133858095Y-53887666D01*
X133810476Y-53792428D01*
X133762857Y-53744809D01*
X133667619Y-53697190D01*
X133477142Y-53649571D01*
X133381904Y-53601952D01*
X133334285Y-53554333D01*
X133286666Y-53459095D01*
X133286666Y-53363857D01*
X133334285Y-53268619D01*
X133381904Y-53221000D01*
X133477142Y-53173380D01*
X133715238Y-53173380D01*
X133858095Y-53221000D01*
X134191428Y-53173380D02*
X134429523Y-54173380D01*
X134620000Y-53459095D01*
X134810476Y-54173380D01*
X135048571Y-53173380D01*
X135381904Y-53268619D02*
X135429523Y-53221000D01*
X135524761Y-53173380D01*
X135762857Y-53173380D01*
X135858095Y-53221000D01*
X135905714Y-53268619D01*
X135953333Y-53363857D01*
X135953333Y-53459095D01*
X135905714Y-53601952D01*
X135334285Y-54173380D01*
X135953333Y-54173380D01*
X132000952Y-66826142D02*
X131953333Y-66873761D01*
X131810476Y-66921380D01*
X131715238Y-66921380D01*
X131572380Y-66873761D01*
X131477142Y-66778523D01*
X131429523Y-66683285D01*
X131381904Y-66492809D01*
X131381904Y-66349952D01*
X131429523Y-66159476D01*
X131477142Y-66064238D01*
X131572380Y-65969000D01*
X131715238Y-65921380D01*
X131810476Y-65921380D01*
X131953333Y-65969000D01*
X132000952Y-66016619D01*
X132429523Y-66921380D02*
X132429523Y-65921380D01*
X132858095Y-66921380D02*
X132858095Y-66397571D01*
X132810476Y-66302333D01*
X132715238Y-66254714D01*
X132572380Y-66254714D01*
X132477142Y-66302333D01*
X132429523Y-66349952D01*
X133715238Y-66873761D02*
X133620000Y-66921380D01*
X133429523Y-66921380D01*
X133334285Y-66873761D01*
X133286666Y-66778523D01*
X133286666Y-66397571D01*
X133334285Y-66302333D01*
X133429523Y-66254714D01*
X133620000Y-66254714D01*
X133715238Y-66302333D01*
X133762857Y-66397571D01*
X133762857Y-66492809D01*
X133286666Y-66588047D01*
X134191428Y-66921380D02*
X134191428Y-66254714D01*
X134191428Y-66445190D02*
X134239047Y-66349952D01*
X134286666Y-66302333D01*
X134381904Y-66254714D01*
X134477142Y-66254714D01*
X134810476Y-66921380D02*
X134810476Y-66254714D01*
X134810476Y-66445190D02*
X134858095Y-66349952D01*
X134905714Y-66302333D01*
X135000952Y-66254714D01*
X135096190Y-66254714D01*
X135334285Y-66254714D02*
X135572380Y-66921380D01*
X135810476Y-66254714D02*
X135572380Y-66921380D01*
X135477142Y-67159476D01*
X135429523Y-67207095D01*
X135334285Y-67254714D01*
X136191428Y-66921380D02*
X136191428Y-65921380D01*
X136524761Y-66635666D01*
X136858095Y-65921380D01*
X136858095Y-66921380D01*
X137239047Y-65921380D02*
X137905714Y-66921380D01*
X137905714Y-65921380D02*
X137239047Y-66921380D01*
%TO.C,SW3*%
X133286666Y-73175761D02*
X133429523Y-73223380D01*
X133667619Y-73223380D01*
X133762857Y-73175761D01*
X133810476Y-73128142D01*
X133858095Y-73032904D01*
X133858095Y-72937666D01*
X133810476Y-72842428D01*
X133762857Y-72794809D01*
X133667619Y-72747190D01*
X133477142Y-72699571D01*
X133381904Y-72651952D01*
X133334285Y-72604333D01*
X133286666Y-72509095D01*
X133286666Y-72413857D01*
X133334285Y-72318619D01*
X133381904Y-72271000D01*
X133477142Y-72223380D01*
X133715238Y-72223380D01*
X133858095Y-72271000D01*
X134191428Y-72223380D02*
X134429523Y-73223380D01*
X134620000Y-72509095D01*
X134810476Y-73223380D01*
X135048571Y-72223380D01*
X135334285Y-72223380D02*
X135953333Y-72223380D01*
X135620000Y-72604333D01*
X135762857Y-72604333D01*
X135858095Y-72651952D01*
X135905714Y-72699571D01*
X135953333Y-72794809D01*
X135953333Y-73032904D01*
X135905714Y-73128142D01*
X135858095Y-73175761D01*
X135762857Y-73223380D01*
X135477142Y-73223380D01*
X135381904Y-73175761D01*
X135334285Y-73128142D01*
X132000952Y-85876142D02*
X131953333Y-85923761D01*
X131810476Y-85971380D01*
X131715238Y-85971380D01*
X131572380Y-85923761D01*
X131477142Y-85828523D01*
X131429523Y-85733285D01*
X131381904Y-85542809D01*
X131381904Y-85399952D01*
X131429523Y-85209476D01*
X131477142Y-85114238D01*
X131572380Y-85019000D01*
X131715238Y-84971380D01*
X131810476Y-84971380D01*
X131953333Y-85019000D01*
X132000952Y-85066619D01*
X132429523Y-85971380D02*
X132429523Y-84971380D01*
X132858095Y-85971380D02*
X132858095Y-85447571D01*
X132810476Y-85352333D01*
X132715238Y-85304714D01*
X132572380Y-85304714D01*
X132477142Y-85352333D01*
X132429523Y-85399952D01*
X133715238Y-85923761D02*
X133620000Y-85971380D01*
X133429523Y-85971380D01*
X133334285Y-85923761D01*
X133286666Y-85828523D01*
X133286666Y-85447571D01*
X133334285Y-85352333D01*
X133429523Y-85304714D01*
X133620000Y-85304714D01*
X133715238Y-85352333D01*
X133762857Y-85447571D01*
X133762857Y-85542809D01*
X133286666Y-85638047D01*
X134191428Y-85971380D02*
X134191428Y-85304714D01*
X134191428Y-85495190D02*
X134239047Y-85399952D01*
X134286666Y-85352333D01*
X134381904Y-85304714D01*
X134477142Y-85304714D01*
X134810476Y-85971380D02*
X134810476Y-85304714D01*
X134810476Y-85495190D02*
X134858095Y-85399952D01*
X134905714Y-85352333D01*
X135000952Y-85304714D01*
X135096190Y-85304714D01*
X135334285Y-85304714D02*
X135572380Y-85971380D01*
X135810476Y-85304714D02*
X135572380Y-85971380D01*
X135477142Y-86209476D01*
X135429523Y-86257095D01*
X135334285Y-86304714D01*
X136191428Y-85971380D02*
X136191428Y-84971380D01*
X136524761Y-85685666D01*
X136858095Y-84971380D01*
X136858095Y-85971380D01*
X137239047Y-84971380D02*
X137905714Y-85971380D01*
X137905714Y-84971380D02*
X137239047Y-85971380D01*
%TO.C,SW4*%
X152336666Y-54125761D02*
X152479523Y-54173380D01*
X152717619Y-54173380D01*
X152812857Y-54125761D01*
X152860476Y-54078142D01*
X152908095Y-53982904D01*
X152908095Y-53887666D01*
X152860476Y-53792428D01*
X152812857Y-53744809D01*
X152717619Y-53697190D01*
X152527142Y-53649571D01*
X152431904Y-53601952D01*
X152384285Y-53554333D01*
X152336666Y-53459095D01*
X152336666Y-53363857D01*
X152384285Y-53268619D01*
X152431904Y-53221000D01*
X152527142Y-53173380D01*
X152765238Y-53173380D01*
X152908095Y-53221000D01*
X153241428Y-53173380D02*
X153479523Y-54173380D01*
X153670000Y-53459095D01*
X153860476Y-54173380D01*
X154098571Y-53173380D01*
X154908095Y-53506714D02*
X154908095Y-54173380D01*
X154670000Y-53125761D02*
X154431904Y-53840047D01*
X155050952Y-53840047D01*
X151050952Y-66826142D02*
X151003333Y-66873761D01*
X150860476Y-66921380D01*
X150765238Y-66921380D01*
X150622380Y-66873761D01*
X150527142Y-66778523D01*
X150479523Y-66683285D01*
X150431904Y-66492809D01*
X150431904Y-66349952D01*
X150479523Y-66159476D01*
X150527142Y-66064238D01*
X150622380Y-65969000D01*
X150765238Y-65921380D01*
X150860476Y-65921380D01*
X151003333Y-65969000D01*
X151050952Y-66016619D01*
X151479523Y-66921380D02*
X151479523Y-65921380D01*
X151908095Y-66921380D02*
X151908095Y-66397571D01*
X151860476Y-66302333D01*
X151765238Y-66254714D01*
X151622380Y-66254714D01*
X151527142Y-66302333D01*
X151479523Y-66349952D01*
X152765238Y-66873761D02*
X152670000Y-66921380D01*
X152479523Y-66921380D01*
X152384285Y-66873761D01*
X152336666Y-66778523D01*
X152336666Y-66397571D01*
X152384285Y-66302333D01*
X152479523Y-66254714D01*
X152670000Y-66254714D01*
X152765238Y-66302333D01*
X152812857Y-66397571D01*
X152812857Y-66492809D01*
X152336666Y-66588047D01*
X153241428Y-66921380D02*
X153241428Y-66254714D01*
X153241428Y-66445190D02*
X153289047Y-66349952D01*
X153336666Y-66302333D01*
X153431904Y-66254714D01*
X153527142Y-66254714D01*
X153860476Y-66921380D02*
X153860476Y-66254714D01*
X153860476Y-66445190D02*
X153908095Y-66349952D01*
X153955714Y-66302333D01*
X154050952Y-66254714D01*
X154146190Y-66254714D01*
X154384285Y-66254714D02*
X154622380Y-66921380D01*
X154860476Y-66254714D02*
X154622380Y-66921380D01*
X154527142Y-67159476D01*
X154479523Y-67207095D01*
X154384285Y-67254714D01*
X155241428Y-66921380D02*
X155241428Y-65921380D01*
X155574761Y-66635666D01*
X155908095Y-65921380D01*
X155908095Y-66921380D01*
X156289047Y-65921380D02*
X156955714Y-66921380D01*
X156955714Y-65921380D02*
X156289047Y-66921380D01*
%TO.C,SW5*%
X152336666Y-73175761D02*
X152479523Y-73223380D01*
X152717619Y-73223380D01*
X152812857Y-73175761D01*
X152860476Y-73128142D01*
X152908095Y-73032904D01*
X152908095Y-72937666D01*
X152860476Y-72842428D01*
X152812857Y-72794809D01*
X152717619Y-72747190D01*
X152527142Y-72699571D01*
X152431904Y-72651952D01*
X152384285Y-72604333D01*
X152336666Y-72509095D01*
X152336666Y-72413857D01*
X152384285Y-72318619D01*
X152431904Y-72271000D01*
X152527142Y-72223380D01*
X152765238Y-72223380D01*
X152908095Y-72271000D01*
X153241428Y-72223380D02*
X153479523Y-73223380D01*
X153670000Y-72509095D01*
X153860476Y-73223380D01*
X154098571Y-72223380D01*
X154955714Y-72223380D02*
X154479523Y-72223380D01*
X154431904Y-72699571D01*
X154479523Y-72651952D01*
X154574761Y-72604333D01*
X154812857Y-72604333D01*
X154908095Y-72651952D01*
X154955714Y-72699571D01*
X155003333Y-72794809D01*
X155003333Y-73032904D01*
X154955714Y-73128142D01*
X154908095Y-73175761D01*
X154812857Y-73223380D01*
X154574761Y-73223380D01*
X154479523Y-73175761D01*
X154431904Y-73128142D01*
X151050952Y-85876142D02*
X151003333Y-85923761D01*
X150860476Y-85971380D01*
X150765238Y-85971380D01*
X150622380Y-85923761D01*
X150527142Y-85828523D01*
X150479523Y-85733285D01*
X150431904Y-85542809D01*
X150431904Y-85399952D01*
X150479523Y-85209476D01*
X150527142Y-85114238D01*
X150622380Y-85019000D01*
X150765238Y-84971380D01*
X150860476Y-84971380D01*
X151003333Y-85019000D01*
X151050952Y-85066619D01*
X151479523Y-85971380D02*
X151479523Y-84971380D01*
X151908095Y-85971380D02*
X151908095Y-85447571D01*
X151860476Y-85352333D01*
X151765238Y-85304714D01*
X151622380Y-85304714D01*
X151527142Y-85352333D01*
X151479523Y-85399952D01*
X152765238Y-85923761D02*
X152670000Y-85971380D01*
X152479523Y-85971380D01*
X152384285Y-85923761D01*
X152336666Y-85828523D01*
X152336666Y-85447571D01*
X152384285Y-85352333D01*
X152479523Y-85304714D01*
X152670000Y-85304714D01*
X152765238Y-85352333D01*
X152812857Y-85447571D01*
X152812857Y-85542809D01*
X152336666Y-85638047D01*
X153241428Y-85971380D02*
X153241428Y-85304714D01*
X153241428Y-85495190D02*
X153289047Y-85399952D01*
X153336666Y-85352333D01*
X153431904Y-85304714D01*
X153527142Y-85304714D01*
X153860476Y-85971380D02*
X153860476Y-85304714D01*
X153860476Y-85495190D02*
X153908095Y-85399952D01*
X153955714Y-85352333D01*
X154050952Y-85304714D01*
X154146190Y-85304714D01*
X154384285Y-85304714D02*
X154622380Y-85971380D01*
X154860476Y-85304714D02*
X154622380Y-85971380D01*
X154527142Y-86209476D01*
X154479523Y-86257095D01*
X154384285Y-86304714D01*
X155241428Y-85971380D02*
X155241428Y-84971380D01*
X155574761Y-85685666D01*
X155908095Y-84971380D01*
X155908095Y-85971380D01*
X156289047Y-84971380D02*
X156955714Y-85971380D01*
X156955714Y-84971380D02*
X156289047Y-85971380D01*
%TD*%
M02*
