%TF.GenerationSoftware,KiCad,Pcbnew,5.1.7-a382d34a8~88~ubuntu20.04.1*%
%TF.CreationDate,2021-03-21T15:49:45+01:00*%
%TF.ProjectId,marco-keyboard,6d617263-6f2d-46b6-9579-626f6172642e,rev?*%
%TF.SameCoordinates,Original*%
%TF.FileFunction,Copper,L1,Top*%
%TF.FilePolarity,Positive*%
%FSLAX46Y46*%
G04 Gerber Fmt 4.6, Leading zero omitted, Abs format (unit mm)*
G04 Created by KiCad (PCBNEW 5.1.7-a382d34a8~88~ubuntu20.04.1) date 2021-03-21 15:49:45*
%MOMM*%
%LPD*%
G01*
G04 APERTURE LIST*
%TA.AperFunction,ComponentPad*%
%ADD10C,4.400000*%
%TD*%
%TA.AperFunction,ComponentPad*%
%ADD11C,2.200000*%
%TD*%
%TA.AperFunction,SMDPad,CuDef*%
%ADD12R,1.450000X0.600000*%
%TD*%
%TA.AperFunction,SMDPad,CuDef*%
%ADD13R,1.450000X0.300000*%
%TD*%
%TA.AperFunction,ComponentPad*%
%ADD14O,2.100000X1.050000*%
%TD*%
%TA.AperFunction,ComponentPad*%
%ADD15O,0.850000X0.850000*%
%TD*%
%TA.AperFunction,ComponentPad*%
%ADD16R,0.850000X0.850000*%
%TD*%
%TA.AperFunction,SMDPad,CuDef*%
%ADD17R,5.200000X5.200000*%
%TD*%
%TA.AperFunction,SMDPad,CuDef*%
%ADD18C,0.100000*%
%TD*%
%TA.AperFunction,ViaPad*%
%ADD19C,0.800000*%
%TD*%
%TA.AperFunction,Conductor*%
%ADD20C,0.250000*%
%TD*%
%TA.AperFunction,Conductor*%
%ADD21C,0.300000*%
%TD*%
%TA.AperFunction,Conductor*%
%ADD22C,0.254000*%
%TD*%
%TA.AperFunction,Conductor*%
%ADD23C,0.100000*%
%TD*%
G04 APERTURE END LIST*
D10*
%TO.P,H3,1*%
%TO.N,GND*%
X174058580Y-58070161D03*
%TD*%
%TO.P,H2,1*%
%TO.N,GND*%
X125064520Y-58070161D03*
%TD*%
%TO.P,H1,1*%
%TO.N,GND*%
X125064520Y-84825840D03*
%TD*%
D11*
%TO.P,SW6,2*%
%TO.N,+5V*%
X168910000Y-68580000D03*
%TO.P,SW6,1*%
%TO.N,BTN6*%
X175260000Y-66040000D03*
%TD*%
D12*
%TO.P,J1,A1B12*%
%TO.N,GND*%
X185405000Y-74370000D03*
%TO.P,J1,A4B9*%
%TO.N,/VBUS*%
X185405000Y-73570000D03*
D13*
%TO.P,J1,A6*%
%TO.N,USB_D+*%
X185405000Y-71370000D03*
%TO.P,J1,B7*%
%TO.N,USB_D-*%
X185405000Y-71870000D03*
%TO.P,J1,A5*%
%TO.N,Net-(J1-PadA5)*%
X185405000Y-72370000D03*
%TO.P,J1,B8*%
%TO.N,Net-(J1-PadB8)*%
X185405000Y-72870000D03*
%TO.P,J1,A7*%
%TO.N,USB_D-*%
X185405000Y-70870000D03*
%TO.P,J1,B6*%
%TO.N,USB_D+*%
X185405000Y-70370000D03*
%TO.P,J1,A8*%
%TO.N,Net-(J1-PadA8)*%
X185405000Y-69870000D03*
%TO.P,J1,B5*%
%TO.N,Net-(J1-PadB5)*%
X185405000Y-69370000D03*
D12*
%TO.P,J1,B4A9*%
%TO.N,/VBUS*%
X185405000Y-68670000D03*
%TO.P,J1,B1A12*%
%TO.N,GND*%
X185405000Y-67870000D03*
D14*
%TO.P,J1,S1*%
X186320000Y-75440000D03*
%TO.P,J1,S2*%
X186320000Y-66800000D03*
%TO.P,J1,S3*%
X190500000Y-75440000D03*
%TO.P,J1,S4*%
X190500000Y-66800000D03*
%TD*%
%TO.P,D2,1*%
%TO.N,GND*%
%TA.AperFunction,SMDPad,CuDef*%
G36*
G01*
X186192880Y-53642530D02*
X186192880Y-54155030D01*
G75*
G02*
X185974130Y-54373780I-218750J0D01*
G01*
X185536630Y-54373780D01*
G75*
G02*
X185317880Y-54155030I0J218750D01*
G01*
X185317880Y-53642530D01*
G75*
G02*
X185536630Y-53423780I218750J0D01*
G01*
X185974130Y-53423780D01*
G75*
G02*
X186192880Y-53642530I0J-218750D01*
G01*
G37*
%TD.AperFunction*%
%TO.P,D2,2*%
%TO.N,Net-(D2-Pad2)*%
%TA.AperFunction,SMDPad,CuDef*%
G36*
G01*
X184617880Y-53642530D02*
X184617880Y-54155030D01*
G75*
G02*
X184399130Y-54373780I-218750J0D01*
G01*
X183961630Y-54373780D01*
G75*
G02*
X183742880Y-54155030I0J218750D01*
G01*
X183742880Y-53642530D01*
G75*
G02*
X183961630Y-53423780I218750J0D01*
G01*
X184399130Y-53423780D01*
G75*
G02*
X184617880Y-53642530I0J-218750D01*
G01*
G37*
%TD.AperFunction*%
%TD*%
%TO.P,C1,1*%
%TO.N,Net-(C1-Pad1)*%
%TA.AperFunction,SMDPad,CuDef*%
G36*
G01*
X185434520Y-84602640D02*
X185434520Y-84102640D01*
G75*
G02*
X185659520Y-83877640I225000J0D01*
G01*
X186109520Y-83877640D01*
G75*
G02*
X186334520Y-84102640I0J-225000D01*
G01*
X186334520Y-84602640D01*
G75*
G02*
X186109520Y-84827640I-225000J0D01*
G01*
X185659520Y-84827640D01*
G75*
G02*
X185434520Y-84602640I0J225000D01*
G01*
G37*
%TD.AperFunction*%
%TO.P,C1,2*%
%TO.N,GND*%
%TA.AperFunction,SMDPad,CuDef*%
G36*
G01*
X186984520Y-84602640D02*
X186984520Y-84102640D01*
G75*
G02*
X187209520Y-83877640I225000J0D01*
G01*
X187659520Y-83877640D01*
G75*
G02*
X187884520Y-84102640I0J-225000D01*
G01*
X187884520Y-84602640D01*
G75*
G02*
X187659520Y-84827640I-225000J0D01*
G01*
X187209520Y-84827640D01*
G75*
G02*
X186984520Y-84602640I0J225000D01*
G01*
G37*
%TD.AperFunction*%
%TD*%
%TO.P,C2,1*%
%TO.N,Net-(C2-Pad1)*%
%TA.AperFunction,SMDPad,CuDef*%
G36*
G01*
X177844260Y-80421900D02*
X177344260Y-80421900D01*
G75*
G02*
X177119260Y-80196900I0J225000D01*
G01*
X177119260Y-79746900D01*
G75*
G02*
X177344260Y-79521900I225000J0D01*
G01*
X177844260Y-79521900D01*
G75*
G02*
X178069260Y-79746900I0J-225000D01*
G01*
X178069260Y-80196900D01*
G75*
G02*
X177844260Y-80421900I-225000J0D01*
G01*
G37*
%TD.AperFunction*%
%TO.P,C2,2*%
%TO.N,GND*%
%TA.AperFunction,SMDPad,CuDef*%
G36*
G01*
X177844260Y-78871900D02*
X177344260Y-78871900D01*
G75*
G02*
X177119260Y-78646900I0J225000D01*
G01*
X177119260Y-78196900D01*
G75*
G02*
X177344260Y-77971900I225000J0D01*
G01*
X177844260Y-77971900D01*
G75*
G02*
X178069260Y-78196900I0J-225000D01*
G01*
X178069260Y-78646900D01*
G75*
G02*
X177844260Y-78871900I-225000J0D01*
G01*
G37*
%TD.AperFunction*%
%TD*%
%TO.P,C3,2*%
%TO.N,GND*%
%TA.AperFunction,SMDPad,CuDef*%
G36*
G01*
X172926220Y-83219480D02*
X172926220Y-83719480D01*
G75*
G02*
X172701220Y-83944480I-225000J0D01*
G01*
X172251220Y-83944480D01*
G75*
G02*
X172026220Y-83719480I0J225000D01*
G01*
X172026220Y-83219480D01*
G75*
G02*
X172251220Y-82994480I225000J0D01*
G01*
X172701220Y-82994480D01*
G75*
G02*
X172926220Y-83219480I0J-225000D01*
G01*
G37*
%TD.AperFunction*%
%TO.P,C3,1*%
%TO.N,+5V*%
%TA.AperFunction,SMDPad,CuDef*%
G36*
G01*
X174476220Y-83219480D02*
X174476220Y-83719480D01*
G75*
G02*
X174251220Y-83944480I-225000J0D01*
G01*
X173801220Y-83944480D01*
G75*
G02*
X173576220Y-83719480I0J225000D01*
G01*
X173576220Y-83219480D01*
G75*
G02*
X173801220Y-82994480I225000J0D01*
G01*
X174251220Y-82994480D01*
G75*
G02*
X174476220Y-83219480I0J-225000D01*
G01*
G37*
%TD.AperFunction*%
%TD*%
%TO.P,C4,2*%
%TO.N,GND*%
%TA.AperFunction,SMDPad,CuDef*%
G36*
G01*
X186984520Y-87665880D02*
X186984520Y-87165880D01*
G75*
G02*
X187209520Y-86940880I225000J0D01*
G01*
X187659520Y-86940880D01*
G75*
G02*
X187884520Y-87165880I0J-225000D01*
G01*
X187884520Y-87665880D01*
G75*
G02*
X187659520Y-87890880I-225000J0D01*
G01*
X187209520Y-87890880D01*
G75*
G02*
X186984520Y-87665880I0J225000D01*
G01*
G37*
%TD.AperFunction*%
%TO.P,C4,1*%
%TO.N,+5V*%
%TA.AperFunction,SMDPad,CuDef*%
G36*
G01*
X185434520Y-87665880D02*
X185434520Y-87165880D01*
G75*
G02*
X185659520Y-86940880I225000J0D01*
G01*
X186109520Y-86940880D01*
G75*
G02*
X186334520Y-87165880I0J-225000D01*
G01*
X186334520Y-87665880D01*
G75*
G02*
X186109520Y-87890880I-225000J0D01*
G01*
X185659520Y-87890880D01*
G75*
G02*
X185434520Y-87665880I0J225000D01*
G01*
G37*
%TD.AperFunction*%
%TD*%
%TO.P,C5,2*%
%TO.N,GND*%
%TA.AperFunction,SMDPad,CuDef*%
G36*
G01*
X172938260Y-88759220D02*
X172938260Y-89259220D01*
G75*
G02*
X172713260Y-89484220I-225000J0D01*
G01*
X172263260Y-89484220D01*
G75*
G02*
X172038260Y-89259220I0J225000D01*
G01*
X172038260Y-88759220D01*
G75*
G02*
X172263260Y-88534220I225000J0D01*
G01*
X172713260Y-88534220D01*
G75*
G02*
X172938260Y-88759220I0J-225000D01*
G01*
G37*
%TD.AperFunction*%
%TO.P,C5,1*%
%TO.N,+5V*%
%TA.AperFunction,SMDPad,CuDef*%
G36*
G01*
X174488260Y-88759220D02*
X174488260Y-89259220D01*
G75*
G02*
X174263260Y-89484220I-225000J0D01*
G01*
X173813260Y-89484220D01*
G75*
G02*
X173588260Y-89259220I0J225000D01*
G01*
X173588260Y-88759220D01*
G75*
G02*
X173813260Y-88534220I225000J0D01*
G01*
X174263260Y-88534220D01*
G75*
G02*
X174488260Y-88759220I0J-225000D01*
G01*
G37*
%TD.AperFunction*%
%TD*%
%TO.P,C6,1*%
%TO.N,+5V*%
%TA.AperFunction,SMDPad,CuDef*%
G36*
G01*
X185434520Y-83025300D02*
X185434520Y-82525300D01*
G75*
G02*
X185659520Y-82300300I225000J0D01*
G01*
X186109520Y-82300300D01*
G75*
G02*
X186334520Y-82525300I0J-225000D01*
G01*
X186334520Y-83025300D01*
G75*
G02*
X186109520Y-83250300I-225000J0D01*
G01*
X185659520Y-83250300D01*
G75*
G02*
X185434520Y-83025300I0J225000D01*
G01*
G37*
%TD.AperFunction*%
%TO.P,C6,2*%
%TO.N,GND*%
%TA.AperFunction,SMDPad,CuDef*%
G36*
G01*
X186984520Y-83025300D02*
X186984520Y-82525300D01*
G75*
G02*
X187209520Y-82300300I225000J0D01*
G01*
X187659520Y-82300300D01*
G75*
G02*
X187884520Y-82525300I0J-225000D01*
G01*
X187884520Y-83025300D01*
G75*
G02*
X187659520Y-83250300I-225000J0D01*
G01*
X187209520Y-83250300D01*
G75*
G02*
X186984520Y-83025300I0J225000D01*
G01*
G37*
%TD.AperFunction*%
%TD*%
%TO.P,C7,1*%
%TO.N,+5V*%
%TA.AperFunction,SMDPad,CuDef*%
G36*
G01*
X183696420Y-80404120D02*
X183196420Y-80404120D01*
G75*
G02*
X182971420Y-80179120I0J225000D01*
G01*
X182971420Y-79729120D01*
G75*
G02*
X183196420Y-79504120I225000J0D01*
G01*
X183696420Y-79504120D01*
G75*
G02*
X183921420Y-79729120I0J-225000D01*
G01*
X183921420Y-80179120D01*
G75*
G02*
X183696420Y-80404120I-225000J0D01*
G01*
G37*
%TD.AperFunction*%
%TO.P,C7,2*%
%TO.N,GND*%
%TA.AperFunction,SMDPad,CuDef*%
G36*
G01*
X183696420Y-78854120D02*
X183196420Y-78854120D01*
G75*
G02*
X182971420Y-78629120I0J225000D01*
G01*
X182971420Y-78179120D01*
G75*
G02*
X183196420Y-77954120I225000J0D01*
G01*
X183696420Y-77954120D01*
G75*
G02*
X183921420Y-78179120I0J-225000D01*
G01*
X183921420Y-78629120D01*
G75*
G02*
X183696420Y-78854120I-225000J0D01*
G01*
G37*
%TD.AperFunction*%
%TD*%
%TO.P,C8,1*%
%TO.N,GND*%
%TA.AperFunction,SMDPad,CuDef*%
G36*
G01*
X165235577Y-86602751D02*
X165589131Y-86249197D01*
G75*
G02*
X165907329Y-86249197I159099J-159099D01*
G01*
X166225527Y-86567395D01*
G75*
G02*
X166225527Y-86885593I-159099J-159099D01*
G01*
X165871973Y-87239147D01*
G75*
G02*
X165553775Y-87239147I-159099J159099D01*
G01*
X165235577Y-86920949D01*
G75*
G02*
X165235577Y-86602751I159099J159099D01*
G01*
G37*
%TD.AperFunction*%
%TO.P,C8,2*%
%TO.N,HSE_IN*%
%TA.AperFunction,SMDPad,CuDef*%
G36*
G01*
X166331593Y-87698767D02*
X166685147Y-87345213D01*
G75*
G02*
X167003345Y-87345213I159099J-159099D01*
G01*
X167321543Y-87663411D01*
G75*
G02*
X167321543Y-87981609I-159099J-159099D01*
G01*
X166967989Y-88335163D01*
G75*
G02*
X166649791Y-88335163I-159099J159099D01*
G01*
X166331593Y-88016965D01*
G75*
G02*
X166331593Y-87698767I159099J159099D01*
G01*
G37*
%TD.AperFunction*%
%TD*%
%TO.P,C9,2*%
%TO.N,HSE_OUT*%
%TA.AperFunction,SMDPad,CuDef*%
G36*
G01*
X166916919Y-83291355D02*
X166563365Y-82937801D01*
G75*
G02*
X166563365Y-82619603I159099J159099D01*
G01*
X166881563Y-82301405D01*
G75*
G02*
X167199761Y-82301405I159099J-159099D01*
G01*
X167553315Y-82654959D01*
G75*
G02*
X167553315Y-82973157I-159099J-159099D01*
G01*
X167235117Y-83291355D01*
G75*
G02*
X166916919Y-83291355I-159099J159099D01*
G01*
G37*
%TD.AperFunction*%
%TO.P,C9,1*%
%TO.N,GND*%
%TA.AperFunction,SMDPad,CuDef*%
G36*
G01*
X165820903Y-84387371D02*
X165467349Y-84033817D01*
G75*
G02*
X165467349Y-83715619I159099J159099D01*
G01*
X165785547Y-83397421D01*
G75*
G02*
X166103745Y-83397421I159099J-159099D01*
G01*
X166457299Y-83750975D01*
G75*
G02*
X166457299Y-84069173I-159099J-159099D01*
G01*
X166139101Y-84387371D01*
G75*
G02*
X165820903Y-84387371I-159099J159099D01*
G01*
G37*
%TD.AperFunction*%
%TD*%
%TO.P,F1,1*%
%TO.N,+5V*%
%TA.AperFunction,SMDPad,CuDef*%
G36*
G01*
X185518770Y-80404120D02*
X185006270Y-80404120D01*
G75*
G02*
X184787520Y-80185370I0J218750D01*
G01*
X184787520Y-79747870D01*
G75*
G02*
X185006270Y-79529120I218750J0D01*
G01*
X185518770Y-79529120D01*
G75*
G02*
X185737520Y-79747870I0J-218750D01*
G01*
X185737520Y-80185370D01*
G75*
G02*
X185518770Y-80404120I-218750J0D01*
G01*
G37*
%TD.AperFunction*%
%TO.P,F1,2*%
%TO.N,/VBUS*%
%TA.AperFunction,SMDPad,CuDef*%
G36*
G01*
X185518770Y-78829120D02*
X185006270Y-78829120D01*
G75*
G02*
X184787520Y-78610370I0J218750D01*
G01*
X184787520Y-78172870D01*
G75*
G02*
X185006270Y-77954120I218750J0D01*
G01*
X185518770Y-77954120D01*
G75*
G02*
X185737520Y-78172870I0J-218750D01*
G01*
X185737520Y-78610370D01*
G75*
G02*
X185518770Y-78829120I-218750J0D01*
G01*
G37*
%TD.AperFunction*%
%TD*%
D15*
%TO.P,J2,6*%
%TO.N,GND*%
X185467880Y-63109480D03*
%TO.P,J2,5*%
%TO.N,RESET*%
X184467880Y-63109480D03*
%TO.P,J2,4*%
%TO.N,MOSI*%
X185467880Y-62109480D03*
%TO.P,J2,3*%
%TO.N,SCLK*%
X184467880Y-62109480D03*
%TO.P,J2,2*%
%TO.N,+5V*%
X185467880Y-61109480D03*
D16*
%TO.P,J2,1*%
%TO.N,MISO*%
X184467880Y-61109480D03*
%TD*%
%TO.P,R1,1*%
%TO.N,+5V*%
%TA.AperFunction,SMDPad,CuDef*%
G36*
G01*
X186192880Y-57169640D02*
X186192880Y-57719640D01*
G75*
G02*
X185992880Y-57919640I-200000J0D01*
G01*
X185592880Y-57919640D01*
G75*
G02*
X185392880Y-57719640I0J200000D01*
G01*
X185392880Y-57169640D01*
G75*
G02*
X185592880Y-56969640I200000J0D01*
G01*
X185992880Y-56969640D01*
G75*
G02*
X186192880Y-57169640I0J-200000D01*
G01*
G37*
%TD.AperFunction*%
%TO.P,R1,2*%
%TO.N,RESET*%
%TA.AperFunction,SMDPad,CuDef*%
G36*
G01*
X184542880Y-57169640D02*
X184542880Y-57719640D01*
G75*
G02*
X184342880Y-57919640I-200000J0D01*
G01*
X183942880Y-57919640D01*
G75*
G02*
X183742880Y-57719640I0J200000D01*
G01*
X183742880Y-57169640D01*
G75*
G02*
X183942880Y-56969640I200000J0D01*
G01*
X184342880Y-56969640D01*
G75*
G02*
X184542880Y-57169640I0J-200000D01*
G01*
G37*
%TD.AperFunction*%
%TD*%
%TO.P,R2,1*%
%TO.N,Net-(R2-Pad1)*%
%TA.AperFunction,SMDPad,CuDef*%
G36*
G01*
X179977140Y-80412040D02*
X179427140Y-80412040D01*
G75*
G02*
X179227140Y-80212040I0J200000D01*
G01*
X179227140Y-79812040D01*
G75*
G02*
X179427140Y-79612040I200000J0D01*
G01*
X179977140Y-79612040D01*
G75*
G02*
X180177140Y-79812040I0J-200000D01*
G01*
X180177140Y-80212040D01*
G75*
G02*
X179977140Y-80412040I-200000J0D01*
G01*
G37*
%TD.AperFunction*%
%TO.P,R2,2*%
%TO.N,USB_D+*%
%TA.AperFunction,SMDPad,CuDef*%
G36*
G01*
X179977140Y-78762040D02*
X179427140Y-78762040D01*
G75*
G02*
X179227140Y-78562040I0J200000D01*
G01*
X179227140Y-78162040D01*
G75*
G02*
X179427140Y-77962040I200000J0D01*
G01*
X179977140Y-77962040D01*
G75*
G02*
X180177140Y-78162040I0J-200000D01*
G01*
X180177140Y-78562040D01*
G75*
G02*
X179977140Y-78762040I-200000J0D01*
G01*
G37*
%TD.AperFunction*%
%TD*%
%TO.P,R3,2*%
%TO.N,USB_D-*%
%TA.AperFunction,SMDPad,CuDef*%
G36*
G01*
X181660313Y-78762040D02*
X181110313Y-78762040D01*
G75*
G02*
X180910313Y-78562040I0J200000D01*
G01*
X180910313Y-78162040D01*
G75*
G02*
X181110313Y-77962040I200000J0D01*
G01*
X181660313Y-77962040D01*
G75*
G02*
X181860313Y-78162040I0J-200000D01*
G01*
X181860313Y-78562040D01*
G75*
G02*
X181660313Y-78762040I-200000J0D01*
G01*
G37*
%TD.AperFunction*%
%TO.P,R3,1*%
%TO.N,Net-(R3-Pad1)*%
%TA.AperFunction,SMDPad,CuDef*%
G36*
G01*
X181660313Y-80412040D02*
X181110313Y-80412040D01*
G75*
G02*
X180910313Y-80212040I0J200000D01*
G01*
X180910313Y-79812040D01*
G75*
G02*
X181110313Y-79612040I200000J0D01*
G01*
X181660313Y-79612040D01*
G75*
G02*
X181860313Y-79812040I0J-200000D01*
G01*
X181860313Y-80212040D01*
G75*
G02*
X181660313Y-80412040I-200000J0D01*
G01*
G37*
%TD.AperFunction*%
%TD*%
%TO.P,R4,1*%
%TO.N,Net-(R4-Pad1)*%
%TA.AperFunction,SMDPad,CuDef*%
G36*
G01*
X185434520Y-89258060D02*
X185434520Y-88708060D01*
G75*
G02*
X185634520Y-88508060I200000J0D01*
G01*
X186034520Y-88508060D01*
G75*
G02*
X186234520Y-88708060I0J-200000D01*
G01*
X186234520Y-89258060D01*
G75*
G02*
X186034520Y-89458060I-200000J0D01*
G01*
X185634520Y-89458060D01*
G75*
G02*
X185434520Y-89258060I0J200000D01*
G01*
G37*
%TD.AperFunction*%
%TO.P,R4,2*%
%TO.N,GND*%
%TA.AperFunction,SMDPad,CuDef*%
G36*
G01*
X187084520Y-89258060D02*
X187084520Y-88708060D01*
G75*
G02*
X187284520Y-88508060I200000J0D01*
G01*
X187684520Y-88508060D01*
G75*
G02*
X187884520Y-88708060I0J-200000D01*
G01*
X187884520Y-89258060D01*
G75*
G02*
X187684520Y-89458060I-200000J0D01*
G01*
X187284520Y-89458060D01*
G75*
G02*
X187084520Y-89258060I0J200000D01*
G01*
G37*
%TD.AperFunction*%
%TD*%
%TO.P,R5,1*%
%TO.N,Net-(R5-Pad1)*%
%TA.AperFunction,SMDPad,CuDef*%
G36*
G01*
X186192880Y-55416710D02*
X186192880Y-55966710D01*
G75*
G02*
X185992880Y-56166710I-200000J0D01*
G01*
X185592880Y-56166710D01*
G75*
G02*
X185392880Y-55966710I0J200000D01*
G01*
X185392880Y-55416710D01*
G75*
G02*
X185592880Y-55216710I200000J0D01*
G01*
X185992880Y-55216710D01*
G75*
G02*
X186192880Y-55416710I0J-200000D01*
G01*
G37*
%TD.AperFunction*%
%TO.P,R5,2*%
%TO.N,Net-(D2-Pad2)*%
%TA.AperFunction,SMDPad,CuDef*%
G36*
G01*
X184542880Y-55416710D02*
X184542880Y-55966710D01*
G75*
G02*
X184342880Y-56166710I-200000J0D01*
G01*
X183942880Y-56166710D01*
G75*
G02*
X183742880Y-55966710I0J200000D01*
G01*
X183742880Y-55416710D01*
G75*
G02*
X183942880Y-55216710I200000J0D01*
G01*
X184342880Y-55216710D01*
G75*
G02*
X184542880Y-55416710I0J-200000D01*
G01*
G37*
%TD.AperFunction*%
%TD*%
%TO.P,R6,2*%
%TO.N,GND*%
%TA.AperFunction,SMDPad,CuDef*%
G36*
G01*
X182866620Y-75182280D02*
X183416620Y-75182280D01*
G75*
G02*
X183616620Y-75382280I0J-200000D01*
G01*
X183616620Y-75782280D01*
G75*
G02*
X183416620Y-75982280I-200000J0D01*
G01*
X182866620Y-75982280D01*
G75*
G02*
X182666620Y-75782280I0J200000D01*
G01*
X182666620Y-75382280D01*
G75*
G02*
X182866620Y-75182280I200000J0D01*
G01*
G37*
%TD.AperFunction*%
%TO.P,R6,1*%
%TO.N,Net-(J1-PadA5)*%
%TA.AperFunction,SMDPad,CuDef*%
G36*
G01*
X182866620Y-73532280D02*
X183416620Y-73532280D01*
G75*
G02*
X183616620Y-73732280I0J-200000D01*
G01*
X183616620Y-74132280D01*
G75*
G02*
X183416620Y-74332280I-200000J0D01*
G01*
X182866620Y-74332280D01*
G75*
G02*
X182666620Y-74132280I0J200000D01*
G01*
X182666620Y-73732280D01*
G75*
G02*
X182866620Y-73532280I200000J0D01*
G01*
G37*
%TD.AperFunction*%
%TD*%
%TO.P,R7,1*%
%TO.N,GND*%
%TA.AperFunction,SMDPad,CuDef*%
G36*
G01*
X182866620Y-66298360D02*
X183416620Y-66298360D01*
G75*
G02*
X183616620Y-66498360I0J-200000D01*
G01*
X183616620Y-66898360D01*
G75*
G02*
X183416620Y-67098360I-200000J0D01*
G01*
X182866620Y-67098360D01*
G75*
G02*
X182666620Y-66898360I0J200000D01*
G01*
X182666620Y-66498360D01*
G75*
G02*
X182866620Y-66298360I200000J0D01*
G01*
G37*
%TD.AperFunction*%
%TO.P,R7,2*%
%TO.N,Net-(J1-PadB5)*%
%TA.AperFunction,SMDPad,CuDef*%
G36*
G01*
X182866620Y-67948360D02*
X183416620Y-67948360D01*
G75*
G02*
X183616620Y-68148360I0J-200000D01*
G01*
X183616620Y-68548360D01*
G75*
G02*
X183416620Y-68748360I-200000J0D01*
G01*
X182866620Y-68748360D01*
G75*
G02*
X182666620Y-68548360I0J200000D01*
G01*
X182666620Y-68148360D01*
G75*
G02*
X182866620Y-67948360I200000J0D01*
G01*
G37*
%TD.AperFunction*%
%TD*%
D11*
%TO.P,SW0,1*%
%TO.N,BTN0*%
X118110000Y-56515000D03*
%TO.P,SW0,2*%
%TO.N,+5V*%
X111760000Y-59055000D03*
%TD*%
%TO.P,SW1,2*%
%TO.N,+5V*%
X111760000Y-78105000D03*
%TO.P,SW1,1*%
%TO.N,BTN1*%
X118110000Y-75565000D03*
%TD*%
%TO.P,SW2,2*%
%TO.N,+5V*%
X130810000Y-59055000D03*
%TO.P,SW2,1*%
%TO.N,BTN2*%
X137160000Y-56515000D03*
%TD*%
%TO.P,SW3,1*%
%TO.N,BTN3*%
X137160000Y-75565000D03*
%TO.P,SW3,2*%
%TO.N,+5V*%
X130810000Y-78105000D03*
%TD*%
%TO.P,SW4,1*%
%TO.N,BTN4*%
X156210000Y-56515000D03*
%TO.P,SW4,2*%
%TO.N,+5V*%
X149860000Y-59055000D03*
%TD*%
%TO.P,SW5,2*%
%TO.N,+5V*%
X149860000Y-78105000D03*
%TO.P,SW5,1*%
%TO.N,BTN5*%
X156210000Y-75565000D03*
%TD*%
%TO.P,U1,1*%
%TO.N,Net-(U1-Pad1)*%
%TA.AperFunction,SMDPad,CuDef*%
G36*
G01*
X181725940Y-81702680D02*
X181850940Y-81702680D01*
G75*
G02*
X181913440Y-81765180I0J-62500D01*
G01*
X181913440Y-82715180D01*
G75*
G02*
X181850940Y-82777680I-62500J0D01*
G01*
X181725940Y-82777680D01*
G75*
G02*
X181663440Y-82715180I0J62500D01*
G01*
X181663440Y-81765180D01*
G75*
G02*
X181725940Y-81702680I62500J0D01*
G01*
G37*
%TD.AperFunction*%
%TO.P,U1,2*%
%TO.N,+5V*%
%TA.AperFunction,SMDPad,CuDef*%
G36*
G01*
X181225940Y-81702680D02*
X181350940Y-81702680D01*
G75*
G02*
X181413440Y-81765180I0J-62500D01*
G01*
X181413440Y-82715180D01*
G75*
G02*
X181350940Y-82777680I-62500J0D01*
G01*
X181225940Y-82777680D01*
G75*
G02*
X181163440Y-82715180I0J62500D01*
G01*
X181163440Y-81765180D01*
G75*
G02*
X181225940Y-81702680I62500J0D01*
G01*
G37*
%TD.AperFunction*%
%TO.P,U1,3*%
%TO.N,Net-(R3-Pad1)*%
%TA.AperFunction,SMDPad,CuDef*%
G36*
G01*
X180725940Y-81702680D02*
X180850940Y-81702680D01*
G75*
G02*
X180913440Y-81765180I0J-62500D01*
G01*
X180913440Y-82715180D01*
G75*
G02*
X180850940Y-82777680I-62500J0D01*
G01*
X180725940Y-82777680D01*
G75*
G02*
X180663440Y-82715180I0J62500D01*
G01*
X180663440Y-81765180D01*
G75*
G02*
X180725940Y-81702680I62500J0D01*
G01*
G37*
%TD.AperFunction*%
%TO.P,U1,4*%
%TO.N,Net-(R2-Pad1)*%
%TA.AperFunction,SMDPad,CuDef*%
G36*
G01*
X180225940Y-81702680D02*
X180350940Y-81702680D01*
G75*
G02*
X180413440Y-81765180I0J-62500D01*
G01*
X180413440Y-82715180D01*
G75*
G02*
X180350940Y-82777680I-62500J0D01*
G01*
X180225940Y-82777680D01*
G75*
G02*
X180163440Y-82715180I0J62500D01*
G01*
X180163440Y-81765180D01*
G75*
G02*
X180225940Y-81702680I62500J0D01*
G01*
G37*
%TD.AperFunction*%
%TO.P,U1,5*%
%TO.N,GND*%
%TA.AperFunction,SMDPad,CuDef*%
G36*
G01*
X179725940Y-81702680D02*
X179850940Y-81702680D01*
G75*
G02*
X179913440Y-81765180I0J-62500D01*
G01*
X179913440Y-82715180D01*
G75*
G02*
X179850940Y-82777680I-62500J0D01*
G01*
X179725940Y-82777680D01*
G75*
G02*
X179663440Y-82715180I0J62500D01*
G01*
X179663440Y-81765180D01*
G75*
G02*
X179725940Y-81702680I62500J0D01*
G01*
G37*
%TD.AperFunction*%
%TO.P,U1,6*%
%TO.N,Net-(C2-Pad1)*%
%TA.AperFunction,SMDPad,CuDef*%
G36*
G01*
X179225940Y-81702680D02*
X179350940Y-81702680D01*
G75*
G02*
X179413440Y-81765180I0J-62500D01*
G01*
X179413440Y-82715180D01*
G75*
G02*
X179350940Y-82777680I-62500J0D01*
G01*
X179225940Y-82777680D01*
G75*
G02*
X179163440Y-82715180I0J62500D01*
G01*
X179163440Y-81765180D01*
G75*
G02*
X179225940Y-81702680I62500J0D01*
G01*
G37*
%TD.AperFunction*%
%TO.P,U1,7*%
%TO.N,+5V*%
%TA.AperFunction,SMDPad,CuDef*%
G36*
G01*
X178725940Y-81702680D02*
X178850940Y-81702680D01*
G75*
G02*
X178913440Y-81765180I0J-62500D01*
G01*
X178913440Y-82715180D01*
G75*
G02*
X178850940Y-82777680I-62500J0D01*
G01*
X178725940Y-82777680D01*
G75*
G02*
X178663440Y-82715180I0J62500D01*
G01*
X178663440Y-81765180D01*
G75*
G02*
X178725940Y-81702680I62500J0D01*
G01*
G37*
%TD.AperFunction*%
%TO.P,U1,8*%
%TO.N,Net-(U1-Pad8)*%
%TA.AperFunction,SMDPad,CuDef*%
G36*
G01*
X178225940Y-81702680D02*
X178350940Y-81702680D01*
G75*
G02*
X178413440Y-81765180I0J-62500D01*
G01*
X178413440Y-82715180D01*
G75*
G02*
X178350940Y-82777680I-62500J0D01*
G01*
X178225940Y-82777680D01*
G75*
G02*
X178163440Y-82715180I0J62500D01*
G01*
X178163440Y-81765180D01*
G75*
G02*
X178225940Y-81702680I62500J0D01*
G01*
G37*
%TD.AperFunction*%
%TO.P,U1,9*%
%TO.N,SCLK*%
%TA.AperFunction,SMDPad,CuDef*%
G36*
G01*
X177725940Y-81702680D02*
X177850940Y-81702680D01*
G75*
G02*
X177913440Y-81765180I0J-62500D01*
G01*
X177913440Y-82715180D01*
G75*
G02*
X177850940Y-82777680I-62500J0D01*
G01*
X177725940Y-82777680D01*
G75*
G02*
X177663440Y-82715180I0J62500D01*
G01*
X177663440Y-81765180D01*
G75*
G02*
X177725940Y-81702680I62500J0D01*
G01*
G37*
%TD.AperFunction*%
%TO.P,U1,10*%
%TO.N,MOSI*%
%TA.AperFunction,SMDPad,CuDef*%
G36*
G01*
X177225940Y-81702680D02*
X177350940Y-81702680D01*
G75*
G02*
X177413440Y-81765180I0J-62500D01*
G01*
X177413440Y-82715180D01*
G75*
G02*
X177350940Y-82777680I-62500J0D01*
G01*
X177225940Y-82777680D01*
G75*
G02*
X177163440Y-82715180I0J62500D01*
G01*
X177163440Y-81765180D01*
G75*
G02*
X177225940Y-81702680I62500J0D01*
G01*
G37*
%TD.AperFunction*%
%TO.P,U1,11*%
%TO.N,MISO*%
%TA.AperFunction,SMDPad,CuDef*%
G36*
G01*
X176725940Y-81702680D02*
X176850940Y-81702680D01*
G75*
G02*
X176913440Y-81765180I0J-62500D01*
G01*
X176913440Y-82715180D01*
G75*
G02*
X176850940Y-82777680I-62500J0D01*
G01*
X176725940Y-82777680D01*
G75*
G02*
X176663440Y-82715180I0J62500D01*
G01*
X176663440Y-81765180D01*
G75*
G02*
X176725940Y-81702680I62500J0D01*
G01*
G37*
%TD.AperFunction*%
%TO.P,U1,12*%
%TO.N,Net-(U1-Pad12)*%
%TA.AperFunction,SMDPad,CuDef*%
G36*
G01*
X175475940Y-82952680D02*
X176425940Y-82952680D01*
G75*
G02*
X176488440Y-83015180I0J-62500D01*
G01*
X176488440Y-83140180D01*
G75*
G02*
X176425940Y-83202680I-62500J0D01*
G01*
X175475940Y-83202680D01*
G75*
G02*
X175413440Y-83140180I0J62500D01*
G01*
X175413440Y-83015180D01*
G75*
G02*
X175475940Y-82952680I62500J0D01*
G01*
G37*
%TD.AperFunction*%
%TO.P,U1,13*%
%TO.N,RESET*%
%TA.AperFunction,SMDPad,CuDef*%
G36*
G01*
X175475940Y-83452680D02*
X176425940Y-83452680D01*
G75*
G02*
X176488440Y-83515180I0J-62500D01*
G01*
X176488440Y-83640180D01*
G75*
G02*
X176425940Y-83702680I-62500J0D01*
G01*
X175475940Y-83702680D01*
G75*
G02*
X175413440Y-83640180I0J62500D01*
G01*
X175413440Y-83515180D01*
G75*
G02*
X175475940Y-83452680I62500J0D01*
G01*
G37*
%TD.AperFunction*%
%TO.P,U1,14*%
%TO.N,+5V*%
%TA.AperFunction,SMDPad,CuDef*%
G36*
G01*
X175475940Y-83952680D02*
X176425940Y-83952680D01*
G75*
G02*
X176488440Y-84015180I0J-62500D01*
G01*
X176488440Y-84140180D01*
G75*
G02*
X176425940Y-84202680I-62500J0D01*
G01*
X175475940Y-84202680D01*
G75*
G02*
X175413440Y-84140180I0J62500D01*
G01*
X175413440Y-84015180D01*
G75*
G02*
X175475940Y-83952680I62500J0D01*
G01*
G37*
%TD.AperFunction*%
%TO.P,U1,15*%
%TO.N,GND*%
%TA.AperFunction,SMDPad,CuDef*%
G36*
G01*
X175475940Y-84452680D02*
X176425940Y-84452680D01*
G75*
G02*
X176488440Y-84515180I0J-62500D01*
G01*
X176488440Y-84640180D01*
G75*
G02*
X176425940Y-84702680I-62500J0D01*
G01*
X175475940Y-84702680D01*
G75*
G02*
X175413440Y-84640180I0J62500D01*
G01*
X175413440Y-84515180D01*
G75*
G02*
X175475940Y-84452680I62500J0D01*
G01*
G37*
%TD.AperFunction*%
%TO.P,U1,16*%
%TO.N,HSE_OUT*%
%TA.AperFunction,SMDPad,CuDef*%
G36*
G01*
X175475940Y-84952680D02*
X176425940Y-84952680D01*
G75*
G02*
X176488440Y-85015180I0J-62500D01*
G01*
X176488440Y-85140180D01*
G75*
G02*
X176425940Y-85202680I-62500J0D01*
G01*
X175475940Y-85202680D01*
G75*
G02*
X175413440Y-85140180I0J62500D01*
G01*
X175413440Y-85015180D01*
G75*
G02*
X175475940Y-84952680I62500J0D01*
G01*
G37*
%TD.AperFunction*%
%TO.P,U1,17*%
%TO.N,HSE_IN*%
%TA.AperFunction,SMDPad,CuDef*%
G36*
G01*
X175475940Y-85452680D02*
X176425940Y-85452680D01*
G75*
G02*
X176488440Y-85515180I0J-62500D01*
G01*
X176488440Y-85640180D01*
G75*
G02*
X176425940Y-85702680I-62500J0D01*
G01*
X175475940Y-85702680D01*
G75*
G02*
X175413440Y-85640180I0J62500D01*
G01*
X175413440Y-85515180D01*
G75*
G02*
X175475940Y-85452680I62500J0D01*
G01*
G37*
%TD.AperFunction*%
%TO.P,U1,18*%
%TO.N,Net-(U1-Pad18)*%
%TA.AperFunction,SMDPad,CuDef*%
G36*
G01*
X175475940Y-85952680D02*
X176425940Y-85952680D01*
G75*
G02*
X176488440Y-86015180I0J-62500D01*
G01*
X176488440Y-86140180D01*
G75*
G02*
X176425940Y-86202680I-62500J0D01*
G01*
X175475940Y-86202680D01*
G75*
G02*
X175413440Y-86140180I0J62500D01*
G01*
X175413440Y-86015180D01*
G75*
G02*
X175475940Y-85952680I62500J0D01*
G01*
G37*
%TD.AperFunction*%
%TO.P,U1,19*%
%TO.N,BTN6*%
%TA.AperFunction,SMDPad,CuDef*%
G36*
G01*
X175475940Y-86452680D02*
X176425940Y-86452680D01*
G75*
G02*
X176488440Y-86515180I0J-62500D01*
G01*
X176488440Y-86640180D01*
G75*
G02*
X176425940Y-86702680I-62500J0D01*
G01*
X175475940Y-86702680D01*
G75*
G02*
X175413440Y-86640180I0J62500D01*
G01*
X175413440Y-86515180D01*
G75*
G02*
X175475940Y-86452680I62500J0D01*
G01*
G37*
%TD.AperFunction*%
%TO.P,U1,20*%
%TO.N,BTN4*%
%TA.AperFunction,SMDPad,CuDef*%
G36*
G01*
X175475940Y-86952680D02*
X176425940Y-86952680D01*
G75*
G02*
X176488440Y-87015180I0J-62500D01*
G01*
X176488440Y-87140180D01*
G75*
G02*
X176425940Y-87202680I-62500J0D01*
G01*
X175475940Y-87202680D01*
G75*
G02*
X175413440Y-87140180I0J62500D01*
G01*
X175413440Y-87015180D01*
G75*
G02*
X175475940Y-86952680I62500J0D01*
G01*
G37*
%TD.AperFunction*%
%TO.P,U1,21*%
%TO.N,BTN5*%
%TA.AperFunction,SMDPad,CuDef*%
G36*
G01*
X175475940Y-87452680D02*
X176425940Y-87452680D01*
G75*
G02*
X176488440Y-87515180I0J-62500D01*
G01*
X176488440Y-87640180D01*
G75*
G02*
X176425940Y-87702680I-62500J0D01*
G01*
X175475940Y-87702680D01*
G75*
G02*
X175413440Y-87640180I0J62500D01*
G01*
X175413440Y-87515180D01*
G75*
G02*
X175475940Y-87452680I62500J0D01*
G01*
G37*
%TD.AperFunction*%
%TO.P,U1,22*%
%TO.N,BTN2*%
%TA.AperFunction,SMDPad,CuDef*%
G36*
G01*
X175475940Y-87952680D02*
X176425940Y-87952680D01*
G75*
G02*
X176488440Y-88015180I0J-62500D01*
G01*
X176488440Y-88140180D01*
G75*
G02*
X176425940Y-88202680I-62500J0D01*
G01*
X175475940Y-88202680D01*
G75*
G02*
X175413440Y-88140180I0J62500D01*
G01*
X175413440Y-88015180D01*
G75*
G02*
X175475940Y-87952680I62500J0D01*
G01*
G37*
%TD.AperFunction*%
%TO.P,U1,23*%
%TO.N,GND*%
%TA.AperFunction,SMDPad,CuDef*%
G36*
G01*
X176725940Y-88377680D02*
X176850940Y-88377680D01*
G75*
G02*
X176913440Y-88440180I0J-62500D01*
G01*
X176913440Y-89390180D01*
G75*
G02*
X176850940Y-89452680I-62500J0D01*
G01*
X176725940Y-89452680D01*
G75*
G02*
X176663440Y-89390180I0J62500D01*
G01*
X176663440Y-88440180D01*
G75*
G02*
X176725940Y-88377680I62500J0D01*
G01*
G37*
%TD.AperFunction*%
%TO.P,U1,24*%
%TO.N,+5V*%
%TA.AperFunction,SMDPad,CuDef*%
G36*
G01*
X177225940Y-88377680D02*
X177350940Y-88377680D01*
G75*
G02*
X177413440Y-88440180I0J-62500D01*
G01*
X177413440Y-89390180D01*
G75*
G02*
X177350940Y-89452680I-62500J0D01*
G01*
X177225940Y-89452680D01*
G75*
G02*
X177163440Y-89390180I0J62500D01*
G01*
X177163440Y-88440180D01*
G75*
G02*
X177225940Y-88377680I62500J0D01*
G01*
G37*
%TD.AperFunction*%
%TO.P,U1,25*%
%TO.N,BTN3*%
%TA.AperFunction,SMDPad,CuDef*%
G36*
G01*
X177725940Y-88377680D02*
X177850940Y-88377680D01*
G75*
G02*
X177913440Y-88440180I0J-62500D01*
G01*
X177913440Y-89390180D01*
G75*
G02*
X177850940Y-89452680I-62500J0D01*
G01*
X177725940Y-89452680D01*
G75*
G02*
X177663440Y-89390180I0J62500D01*
G01*
X177663440Y-88440180D01*
G75*
G02*
X177725940Y-88377680I62500J0D01*
G01*
G37*
%TD.AperFunction*%
%TO.P,U1,26*%
%TO.N,BTN0*%
%TA.AperFunction,SMDPad,CuDef*%
G36*
G01*
X178225940Y-88377680D02*
X178350940Y-88377680D01*
G75*
G02*
X178413440Y-88440180I0J-62500D01*
G01*
X178413440Y-89390180D01*
G75*
G02*
X178350940Y-89452680I-62500J0D01*
G01*
X178225940Y-89452680D01*
G75*
G02*
X178163440Y-89390180I0J62500D01*
G01*
X178163440Y-88440180D01*
G75*
G02*
X178225940Y-88377680I62500J0D01*
G01*
G37*
%TD.AperFunction*%
%TO.P,U1,27*%
%TO.N,BTN1*%
%TA.AperFunction,SMDPad,CuDef*%
G36*
G01*
X178725940Y-88377680D02*
X178850940Y-88377680D01*
G75*
G02*
X178913440Y-88440180I0J-62500D01*
G01*
X178913440Y-89390180D01*
G75*
G02*
X178850940Y-89452680I-62500J0D01*
G01*
X178725940Y-89452680D01*
G75*
G02*
X178663440Y-89390180I0J62500D01*
G01*
X178663440Y-88440180D01*
G75*
G02*
X178725940Y-88377680I62500J0D01*
G01*
G37*
%TD.AperFunction*%
%TO.P,U1,28*%
%TO.N,Net-(U1-Pad28)*%
%TA.AperFunction,SMDPad,CuDef*%
G36*
G01*
X179225940Y-88377680D02*
X179350940Y-88377680D01*
G75*
G02*
X179413440Y-88440180I0J-62500D01*
G01*
X179413440Y-89390180D01*
G75*
G02*
X179350940Y-89452680I-62500J0D01*
G01*
X179225940Y-89452680D01*
G75*
G02*
X179163440Y-89390180I0J62500D01*
G01*
X179163440Y-88440180D01*
G75*
G02*
X179225940Y-88377680I62500J0D01*
G01*
G37*
%TD.AperFunction*%
%TO.P,U1,29*%
%TO.N,Net-(U1-Pad29)*%
%TA.AperFunction,SMDPad,CuDef*%
G36*
G01*
X179725940Y-88377680D02*
X179850940Y-88377680D01*
G75*
G02*
X179913440Y-88440180I0J-62500D01*
G01*
X179913440Y-89390180D01*
G75*
G02*
X179850940Y-89452680I-62500J0D01*
G01*
X179725940Y-89452680D01*
G75*
G02*
X179663440Y-89390180I0J62500D01*
G01*
X179663440Y-88440180D01*
G75*
G02*
X179725940Y-88377680I62500J0D01*
G01*
G37*
%TD.AperFunction*%
%TO.P,U1,30*%
%TO.N,Net-(U1-Pad30)*%
%TA.AperFunction,SMDPad,CuDef*%
G36*
G01*
X180225940Y-88377680D02*
X180350940Y-88377680D01*
G75*
G02*
X180413440Y-88440180I0J-62500D01*
G01*
X180413440Y-89390180D01*
G75*
G02*
X180350940Y-89452680I-62500J0D01*
G01*
X180225940Y-89452680D01*
G75*
G02*
X180163440Y-89390180I0J62500D01*
G01*
X180163440Y-88440180D01*
G75*
G02*
X180225940Y-88377680I62500J0D01*
G01*
G37*
%TD.AperFunction*%
%TO.P,U1,31*%
%TO.N,Net-(U1-Pad31)*%
%TA.AperFunction,SMDPad,CuDef*%
G36*
G01*
X180725940Y-88377680D02*
X180850940Y-88377680D01*
G75*
G02*
X180913440Y-88440180I0J-62500D01*
G01*
X180913440Y-89390180D01*
G75*
G02*
X180850940Y-89452680I-62500J0D01*
G01*
X180725940Y-89452680D01*
G75*
G02*
X180663440Y-89390180I0J62500D01*
G01*
X180663440Y-88440180D01*
G75*
G02*
X180725940Y-88377680I62500J0D01*
G01*
G37*
%TD.AperFunction*%
%TO.P,U1,32*%
%TO.N,Net-(U1-Pad32)*%
%TA.AperFunction,SMDPad,CuDef*%
G36*
G01*
X181225940Y-88377680D02*
X181350940Y-88377680D01*
G75*
G02*
X181413440Y-88440180I0J-62500D01*
G01*
X181413440Y-89390180D01*
G75*
G02*
X181350940Y-89452680I-62500J0D01*
G01*
X181225940Y-89452680D01*
G75*
G02*
X181163440Y-89390180I0J62500D01*
G01*
X181163440Y-88440180D01*
G75*
G02*
X181225940Y-88377680I62500J0D01*
G01*
G37*
%TD.AperFunction*%
%TO.P,U1,33*%
%TO.N,Net-(R4-Pad1)*%
%TA.AperFunction,SMDPad,CuDef*%
G36*
G01*
X181725940Y-88377680D02*
X181850940Y-88377680D01*
G75*
G02*
X181913440Y-88440180I0J-62500D01*
G01*
X181913440Y-89390180D01*
G75*
G02*
X181850940Y-89452680I-62500J0D01*
G01*
X181725940Y-89452680D01*
G75*
G02*
X181663440Y-89390180I0J62500D01*
G01*
X181663440Y-88440180D01*
G75*
G02*
X181725940Y-88377680I62500J0D01*
G01*
G37*
%TD.AperFunction*%
%TO.P,U1,34*%
%TO.N,+5V*%
%TA.AperFunction,SMDPad,CuDef*%
G36*
G01*
X182150940Y-87952680D02*
X183100940Y-87952680D01*
G75*
G02*
X183163440Y-88015180I0J-62500D01*
G01*
X183163440Y-88140180D01*
G75*
G02*
X183100940Y-88202680I-62500J0D01*
G01*
X182150940Y-88202680D01*
G75*
G02*
X182088440Y-88140180I0J62500D01*
G01*
X182088440Y-88015180D01*
G75*
G02*
X182150940Y-87952680I62500J0D01*
G01*
G37*
%TD.AperFunction*%
%TO.P,U1,35*%
%TO.N,GND*%
%TA.AperFunction,SMDPad,CuDef*%
G36*
G01*
X182150940Y-87452680D02*
X183100940Y-87452680D01*
G75*
G02*
X183163440Y-87515180I0J-62500D01*
G01*
X183163440Y-87640180D01*
G75*
G02*
X183100940Y-87702680I-62500J0D01*
G01*
X182150940Y-87702680D01*
G75*
G02*
X182088440Y-87640180I0J62500D01*
G01*
X182088440Y-87515180D01*
G75*
G02*
X182150940Y-87452680I62500J0D01*
G01*
G37*
%TD.AperFunction*%
%TO.P,U1,36*%
%TO.N,Net-(U1-Pad36)*%
%TA.AperFunction,SMDPad,CuDef*%
G36*
G01*
X182150940Y-86952680D02*
X183100940Y-86952680D01*
G75*
G02*
X183163440Y-87015180I0J-62500D01*
G01*
X183163440Y-87140180D01*
G75*
G02*
X183100940Y-87202680I-62500J0D01*
G01*
X182150940Y-87202680D01*
G75*
G02*
X182088440Y-87140180I0J62500D01*
G01*
X182088440Y-87015180D01*
G75*
G02*
X182150940Y-86952680I62500J0D01*
G01*
G37*
%TD.AperFunction*%
%TO.P,U1,37*%
%TO.N,Net-(U1-Pad37)*%
%TA.AperFunction,SMDPad,CuDef*%
G36*
G01*
X182150940Y-86452680D02*
X183100940Y-86452680D01*
G75*
G02*
X183163440Y-86515180I0J-62500D01*
G01*
X183163440Y-86640180D01*
G75*
G02*
X183100940Y-86702680I-62500J0D01*
G01*
X182150940Y-86702680D01*
G75*
G02*
X182088440Y-86640180I0J62500D01*
G01*
X182088440Y-86515180D01*
G75*
G02*
X182150940Y-86452680I62500J0D01*
G01*
G37*
%TD.AperFunction*%
%TO.P,U1,38*%
%TO.N,Net-(U1-Pad38)*%
%TA.AperFunction,SMDPad,CuDef*%
G36*
G01*
X182150940Y-85952680D02*
X183100940Y-85952680D01*
G75*
G02*
X183163440Y-86015180I0J-62500D01*
G01*
X183163440Y-86140180D01*
G75*
G02*
X183100940Y-86202680I-62500J0D01*
G01*
X182150940Y-86202680D01*
G75*
G02*
X182088440Y-86140180I0J62500D01*
G01*
X182088440Y-86015180D01*
G75*
G02*
X182150940Y-85952680I62500J0D01*
G01*
G37*
%TD.AperFunction*%
%TO.P,U1,39*%
%TO.N,Net-(U1-Pad39)*%
%TA.AperFunction,SMDPad,CuDef*%
G36*
G01*
X182150940Y-85452680D02*
X183100940Y-85452680D01*
G75*
G02*
X183163440Y-85515180I0J-62500D01*
G01*
X183163440Y-85640180D01*
G75*
G02*
X183100940Y-85702680I-62500J0D01*
G01*
X182150940Y-85702680D01*
G75*
G02*
X182088440Y-85640180I0J62500D01*
G01*
X182088440Y-85515180D01*
G75*
G02*
X182150940Y-85452680I62500J0D01*
G01*
G37*
%TD.AperFunction*%
%TO.P,U1,40*%
%TO.N,Net-(U1-Pad40)*%
%TA.AperFunction,SMDPad,CuDef*%
G36*
G01*
X182150940Y-84952680D02*
X183100940Y-84952680D01*
G75*
G02*
X183163440Y-85015180I0J-62500D01*
G01*
X183163440Y-85140180D01*
G75*
G02*
X183100940Y-85202680I-62500J0D01*
G01*
X182150940Y-85202680D01*
G75*
G02*
X182088440Y-85140180I0J62500D01*
G01*
X182088440Y-85015180D01*
G75*
G02*
X182150940Y-84952680I62500J0D01*
G01*
G37*
%TD.AperFunction*%
%TO.P,U1,41*%
%TO.N,Net-(R5-Pad1)*%
%TA.AperFunction,SMDPad,CuDef*%
G36*
G01*
X182150940Y-84452680D02*
X183100940Y-84452680D01*
G75*
G02*
X183163440Y-84515180I0J-62500D01*
G01*
X183163440Y-84640180D01*
G75*
G02*
X183100940Y-84702680I-62500J0D01*
G01*
X182150940Y-84702680D01*
G75*
G02*
X182088440Y-84640180I0J62500D01*
G01*
X182088440Y-84515180D01*
G75*
G02*
X182150940Y-84452680I62500J0D01*
G01*
G37*
%TD.AperFunction*%
%TO.P,U1,42*%
%TO.N,Net-(C1-Pad1)*%
%TA.AperFunction,SMDPad,CuDef*%
G36*
G01*
X182150940Y-83952680D02*
X183100940Y-83952680D01*
G75*
G02*
X183163440Y-84015180I0J-62500D01*
G01*
X183163440Y-84140180D01*
G75*
G02*
X183100940Y-84202680I-62500J0D01*
G01*
X182150940Y-84202680D01*
G75*
G02*
X182088440Y-84140180I0J62500D01*
G01*
X182088440Y-84015180D01*
G75*
G02*
X182150940Y-83952680I62500J0D01*
G01*
G37*
%TD.AperFunction*%
%TO.P,U1,43*%
%TO.N,GND*%
%TA.AperFunction,SMDPad,CuDef*%
G36*
G01*
X182150940Y-83452680D02*
X183100940Y-83452680D01*
G75*
G02*
X183163440Y-83515180I0J-62500D01*
G01*
X183163440Y-83640180D01*
G75*
G02*
X183100940Y-83702680I-62500J0D01*
G01*
X182150940Y-83702680D01*
G75*
G02*
X182088440Y-83640180I0J62500D01*
G01*
X182088440Y-83515180D01*
G75*
G02*
X182150940Y-83452680I62500J0D01*
G01*
G37*
%TD.AperFunction*%
%TO.P,U1,44*%
%TO.N,+5V*%
%TA.AperFunction,SMDPad,CuDef*%
G36*
G01*
X182150940Y-82952680D02*
X183100940Y-82952680D01*
G75*
G02*
X183163440Y-83015180I0J-62500D01*
G01*
X183163440Y-83140180D01*
G75*
G02*
X183100940Y-83202680I-62500J0D01*
G01*
X182150940Y-83202680D01*
G75*
G02*
X182088440Y-83140180I0J62500D01*
G01*
X182088440Y-83015180D01*
G75*
G02*
X182150940Y-82952680I62500J0D01*
G01*
G37*
%TD.AperFunction*%
D17*
%TO.P,U1,45*%
%TO.N,GND*%
X179288440Y-85577680D03*
%TD*%
%TA.AperFunction,SMDPad,CuDef*%
D18*
%TO.P,Y1,1*%
%TO.N,HSE_IN*%
G36*
X168286592Y-87410957D02*
G01*
X167438064Y-86562429D01*
X168428014Y-85572479D01*
X169276542Y-86421007D01*
X168286592Y-87410957D01*
G37*
%TD.AperFunction*%
%TA.AperFunction,SMDPad,CuDef*%
%TO.P,Y1,2*%
%TO.N,GND*%
G36*
X169842227Y-85855322D02*
G01*
X168993699Y-85006794D01*
X169983649Y-84016844D01*
X170832177Y-84865372D01*
X169842227Y-85855322D01*
G37*
%TD.AperFunction*%
%TA.AperFunction,SMDPad,CuDef*%
%TO.P,Y1,3*%
%TO.N,HSE_OUT*%
G36*
X168640146Y-84653241D02*
G01*
X167791618Y-83804713D01*
X168781568Y-82814763D01*
X169630096Y-83663291D01*
X168640146Y-84653241D01*
G37*
%TD.AperFunction*%
%TA.AperFunction,SMDPad,CuDef*%
%TO.P,Y1,4*%
%TO.N,GND*%
G36*
X167084511Y-86208876D02*
G01*
X166235983Y-85360348D01*
X167225933Y-84370398D01*
X168074461Y-85218926D01*
X167084511Y-86208876D01*
G37*
%TD.AperFunction*%
%TD*%
D19*
%TO.N,Net-(C2-Pad1)*%
X179563440Y-81061560D03*
X178063440Y-80586580D03*
%TO.N,+5V*%
X174754540Y-84277200D03*
X175143160Y-89131140D03*
X183834400Y-83077680D03*
%TO.N,RESET*%
X184142880Y-59520450D03*
%TO.N,SCLK*%
X181947393Y-63377653D03*
X178747420Y-67409060D03*
%TO.N,Net-(R5-Pad1)*%
X183829960Y-84784900D03*
X186862720Y-55709820D03*
%TO.N,BTN6*%
X174724060Y-86304120D03*
%TO.N,GND*%
X183126380Y-65354200D03*
X171333160Y-89382600D03*
X182120540Y-65356740D03*
%TO.N,+5V*%
X184693560Y-87823040D03*
%TD*%
D20*
%TO.N,Net-(C1-Pad1)*%
X185583400Y-84051520D02*
X185884520Y-84352640D01*
X182643720Y-84059900D02*
X182625940Y-84077680D01*
X185884520Y-84352640D02*
X185591780Y-84059900D01*
%TO.N,Net-(C2-Pad1)*%
X179288440Y-81336560D02*
X179563440Y-81061560D01*
X179288440Y-82240180D02*
X179288440Y-81336560D01*
X177863632Y-80241272D02*
X177594260Y-79971900D01*
X177594260Y-80117400D02*
X178063440Y-80586580D01*
X177594260Y-79971900D02*
X177594260Y-80117400D01*
%TO.N,+5V*%
X185608300Y-83051520D02*
X185884520Y-82775300D01*
X177288440Y-88915180D02*
X177288440Y-89500702D01*
X174038260Y-89303860D02*
X174038260Y-89009220D01*
X174634420Y-84077680D02*
X174026220Y-83469480D01*
X175950940Y-84077680D02*
X174634420Y-84077680D01*
X174754540Y-84197800D02*
X174026220Y-83469480D01*
X174754540Y-84277200D02*
X174754540Y-84197800D01*
X175021240Y-89009220D02*
X175143160Y-89131140D01*
X174038260Y-89009220D02*
X175021240Y-89009220D01*
X177288440Y-89500702D02*
X176946802Y-89842340D01*
X175854360Y-89842340D02*
X175143160Y-89131140D01*
X176946802Y-89842340D02*
X175854360Y-89842340D01*
X182625940Y-83077680D02*
X183834400Y-83077680D01*
X185792880Y-60784480D02*
X185467880Y-61109480D01*
X185792880Y-57444640D02*
X185792880Y-60784480D01*
X183852180Y-83059900D02*
X183834400Y-83077680D01*
X185884520Y-82775300D02*
X185599920Y-83059900D01*
X181288440Y-81637100D02*
X181288440Y-82240180D01*
%TO.N,HSE_IN*%
X175950940Y-85577680D02*
X171764960Y-85577680D01*
X170850922Y-86491718D02*
X168357303Y-86491718D01*
X171764960Y-85577680D02*
X170850922Y-86491718D01*
X168175038Y-86491718D02*
X166826568Y-87840188D01*
X168357303Y-86491718D02*
X168175038Y-86491718D01*
%TO.N,HSE_OUT*%
X175950940Y-85077680D02*
X171798360Y-85077680D01*
X169205832Y-83239027D02*
X168710857Y-83734002D01*
X169959707Y-83239027D02*
X169205832Y-83239027D01*
X171798360Y-85077680D02*
X169959707Y-83239027D01*
X167773235Y-82796380D02*
X168710857Y-83734002D01*
X167058340Y-82796380D02*
X167773235Y-82796380D01*
%TO.N,RESET*%
X175950940Y-83577680D02*
X175365418Y-83577680D01*
X184142880Y-59520450D02*
X184142880Y-57444640D01*
X175078373Y-68584957D02*
X184142880Y-59520450D01*
X175233499Y-83552199D02*
X175078372Y-83397072D01*
X175925459Y-83552199D02*
X175233499Y-83552199D01*
X175078372Y-83397072D02*
X175078373Y-68584957D01*
X175950940Y-83577680D02*
X175925459Y-83552199D01*
%TO.N,Net-(D2-Pad2)*%
X184142880Y-53936280D02*
X184180380Y-53898780D01*
X184142880Y-55691710D02*
X184142880Y-53936280D01*
%TO.N,USB_D+*%
X186380000Y-70370000D02*
X186580780Y-70570780D01*
X185405000Y-70370000D02*
X186380000Y-70370000D01*
X186365002Y-71370000D02*
X185405000Y-71370000D01*
X186580780Y-71154222D02*
X186365002Y-71370000D01*
X186580780Y-70570780D02*
X186580780Y-71154222D01*
X180293726Y-72458640D02*
X182382366Y-70370000D01*
X180293726Y-77770454D02*
X180293726Y-72458640D01*
X179702140Y-78362040D02*
X180293726Y-77770454D01*
X182382366Y-70370000D02*
X185405000Y-70370000D01*
%TO.N,Net-(J1-PadB5)*%
X184163260Y-69370000D02*
X183141620Y-68348360D01*
X185405000Y-69370000D02*
X184163260Y-69370000D01*
%TO.N,USB_D-*%
X185405000Y-71870000D02*
X184356440Y-71870000D01*
X184356440Y-71870000D02*
X184073800Y-71587360D01*
X184073800Y-71170800D02*
X183773000Y-70870000D01*
X184073800Y-71587360D02*
X184073800Y-71170800D01*
X183773000Y-70870000D02*
X185405000Y-70870000D01*
X182589474Y-70870000D02*
X183773000Y-70870000D01*
X180793726Y-77770454D02*
X180793726Y-72665748D01*
X181385312Y-78362040D02*
X180793726Y-77770454D01*
X181385313Y-78362040D02*
X181385312Y-78362040D01*
X180793726Y-72665748D02*
X182589474Y-70870000D01*
%TO.N,Net-(J1-PadA5)*%
X183141620Y-73658380D02*
X183141620Y-73932280D01*
X184430000Y-72370000D02*
X183141620Y-73658380D01*
X185405000Y-72370000D02*
X184430000Y-72370000D01*
%TO.N,MISO*%
X184467880Y-61109480D02*
X183190260Y-61109480D01*
X183190260Y-61109480D02*
X175528381Y-68771359D01*
X175528381Y-80431673D02*
X175528381Y-69088859D01*
X176788440Y-81691734D02*
X175528381Y-80431673D01*
X176788440Y-82240180D02*
X176788440Y-81691734D01*
X175528381Y-69088859D02*
X175528382Y-68948878D01*
X175528381Y-68771359D02*
X175528381Y-69088859D01*
%TO.N,SCLK*%
X176428400Y-80058874D02*
X176428400Y-69144160D01*
X177788440Y-81418914D02*
X176428400Y-80058874D01*
X177788440Y-82240180D02*
X177788440Y-81418914D01*
X184467880Y-62109480D02*
X182826670Y-62109480D01*
X182826670Y-62109480D02*
X181947393Y-62988757D01*
X181947393Y-62988757D02*
X181947393Y-63377653D01*
X176428400Y-69144160D02*
X178163500Y-67409060D01*
X178163500Y-67409060D02*
X178747420Y-67409060D01*
%TO.N,MOSI*%
X177288440Y-81555324D02*
X177288440Y-82240180D01*
X175978390Y-80245274D02*
X177288440Y-81555324D01*
X186601100Y-63751460D02*
X186103260Y-64249300D01*
X186601100Y-62641660D02*
X186601100Y-63751460D01*
X175978391Y-68957759D02*
X175978390Y-80245274D01*
X186068920Y-62109480D02*
X186601100Y-62641660D01*
X185467880Y-62109480D02*
X186068920Y-62109480D01*
X180686850Y-64249300D02*
X175978391Y-68957759D01*
X186103260Y-64249300D02*
X180686850Y-64249300D01*
%TO.N,Net-(R2-Pad1)*%
X180288440Y-80598340D02*
X179702140Y-80012040D01*
X180288440Y-82240180D02*
X180288440Y-80598340D01*
%TO.N,Net-(R3-Pad1)*%
X180788440Y-80608913D02*
X181385313Y-80012040D01*
X180788440Y-82240180D02*
X180788440Y-80608913D01*
%TO.N,Net-(R4-Pad1)*%
X185740480Y-88889020D02*
X185834520Y-88983060D01*
%TO.N,Net-(R5-Pad1)*%
X183622740Y-84577680D02*
X183829960Y-84784900D01*
X182625940Y-84577680D02*
X183622740Y-84577680D01*
X185810990Y-55709820D02*
X185792880Y-55691710D01*
X186862720Y-55709820D02*
X185810990Y-55709820D01*
%TO.N,BTN0*%
X178288440Y-89773522D02*
X178288440Y-88915180D01*
X177319602Y-90742360D02*
X178288440Y-89773522D01*
X135644480Y-90742360D02*
X177319602Y-90742360D01*
X118110000Y-73207880D02*
X135644480Y-90742360D01*
X118110000Y-56515000D02*
X118110000Y-73207880D01*
%TO.N,BTN1*%
X177506002Y-91192370D02*
X135458079Y-91192369D01*
X178738449Y-89959923D02*
X177506002Y-91192370D01*
X178788440Y-89166320D02*
X178738450Y-89216310D01*
X119830710Y-75565000D02*
X118110000Y-75565000D01*
X135458079Y-91192369D02*
X119830710Y-75565000D01*
X178738450Y-89216310D02*
X178738449Y-89959923D01*
X178788440Y-88915180D02*
X178788440Y-89166320D01*
%TO.N,BTN2*%
X153907630Y-89842340D02*
X137160000Y-73094710D01*
X169699940Y-89842340D02*
X153907630Y-89842340D01*
X137160000Y-73094710D02*
X137160000Y-56515000D01*
X171464600Y-88077680D02*
X169699940Y-89842340D01*
X175950940Y-88077680D02*
X171464600Y-88077680D01*
%TO.N,BTN3*%
X138993880Y-75565000D02*
X137160000Y-75565000D01*
X153721230Y-90292350D02*
X138993880Y-75565000D01*
X177133202Y-90292350D02*
X153721230Y-90292350D01*
X177738449Y-89687103D02*
X177133202Y-90292350D01*
X177738450Y-88951390D02*
X177738449Y-89687103D01*
X177774660Y-88915180D02*
X177738450Y-88951390D01*
X177788440Y-88915180D02*
X177774660Y-88915180D01*
%TO.N,BTN4*%
X161501250Y-61806250D02*
X156210000Y-56515000D01*
X161501250Y-86465700D02*
X161501250Y-61806250D01*
X163977870Y-88942320D02*
X161501250Y-86465700D01*
X169326145Y-88942320D02*
X163977870Y-88942320D01*
X171190785Y-87077680D02*
X169326145Y-88942320D01*
X175950940Y-87077680D02*
X171190785Y-87077680D01*
%TO.N,BTN5*%
X161051240Y-80406240D02*
X156210000Y-75565000D01*
X161051240Y-86652100D02*
X161051240Y-80406240D01*
X163791470Y-89392330D02*
X161051240Y-86652100D01*
X169512545Y-89392330D02*
X163791470Y-89392330D01*
X171327195Y-87577680D02*
X169512545Y-89392330D01*
X175950940Y-87577680D02*
X171327195Y-87577680D01*
%TO.N,BTN6*%
X174997620Y-86577680D02*
X174724060Y-86304120D01*
X175950940Y-86577680D02*
X174997620Y-86577680D01*
D21*
%TO.N,GND*%
X167441608Y-85003251D02*
X167155222Y-85289637D01*
X169845770Y-85003251D02*
X167441608Y-85003251D01*
X169912938Y-84936083D02*
X169845770Y-85003251D01*
D20*
X181288440Y-83577680D02*
X179288440Y-85577680D01*
X182625940Y-83577680D02*
X181288440Y-83577680D01*
X179788440Y-85077680D02*
X179288440Y-85577680D01*
X179788440Y-82240180D02*
X179788440Y-85077680D01*
X181288440Y-87577680D02*
X179288440Y-85577680D01*
X182625940Y-87577680D02*
X181288440Y-87577680D01*
X176813450Y-88052670D02*
X179288440Y-85577680D01*
X176813450Y-88890170D02*
X176813450Y-88052670D01*
X176788440Y-88915180D02*
X176813450Y-88890170D01*
X182625940Y-87577680D02*
X183211462Y-87577680D01*
X183126380Y-66683120D02*
X183141620Y-66698360D01*
X183126380Y-65354200D02*
X183126380Y-66683120D01*
X185405000Y-67715000D02*
X186320000Y-66800000D01*
X185405000Y-67870000D02*
X185405000Y-67715000D01*
X185405000Y-74525000D02*
X186320000Y-75440000D01*
X185405000Y-74370000D02*
X185405000Y-74525000D01*
X177536462Y-85577680D02*
X179288440Y-85577680D01*
X176536462Y-84577680D02*
X177536462Y-85577680D01*
X175950940Y-84577680D02*
X176536462Y-84577680D01*
%TO.N,+5V*%
X184438920Y-88077680D02*
X184693560Y-87823040D01*
X182625940Y-88077680D02*
X184438920Y-88077680D01*
X185100720Y-87415880D02*
X184693560Y-87823040D01*
X185884520Y-87415880D02*
X185100720Y-87415880D01*
X181288440Y-81550760D02*
X181288440Y-82240180D01*
X183393080Y-80007460D02*
X183446420Y-79954120D01*
X185250020Y-79954120D02*
X185262520Y-79966620D01*
X183446420Y-79954120D02*
X185250020Y-79954120D01*
X182779330Y-79287030D02*
X183446420Y-79954120D01*
X178788440Y-79708262D02*
X179209672Y-79287030D01*
X179209672Y-79287030D02*
X182779330Y-79287030D01*
X178788440Y-82240180D02*
X178788440Y-79708262D01*
X182885080Y-79954120D02*
X183446420Y-79954120D01*
X181288440Y-81550760D02*
X182885080Y-79954120D01*
X185582140Y-83077680D02*
X185884520Y-82775300D01*
D21*
X184136780Y-82775300D02*
X183834400Y-83077680D01*
X185884520Y-82775300D02*
X184136780Y-82775300D01*
X185262520Y-81649560D02*
X184136780Y-82775300D01*
X185262520Y-79966620D02*
X185262520Y-81649560D01*
D20*
%TO.N,Net-(R4-Pad1)*%
X181856320Y-88983060D02*
X181788440Y-88915180D01*
X185834520Y-88983060D02*
X181856320Y-88983060D01*
%TO.N,GND*%
X171706540Y-89009220D02*
X171333160Y-89382600D01*
X172488260Y-89009220D02*
X171706540Y-89009220D01*
X165962324Y-84096739D02*
X167155222Y-85289637D01*
X165962324Y-83892396D02*
X165962324Y-84096739D01*
D21*
%TO.N,/VBUS*%
X186253998Y-68670000D02*
X188770260Y-71186262D01*
X185405000Y-68670000D02*
X186253998Y-68670000D01*
X186210002Y-73570000D02*
X186818502Y-72961500D01*
X185405000Y-73570000D02*
X186210002Y-73570000D01*
X188287660Y-72961500D02*
X188770260Y-73444100D01*
X186818502Y-72961500D02*
X188287660Y-72961500D01*
X188770260Y-71186262D02*
X188770260Y-73444100D01*
X188770260Y-75250740D02*
X188770260Y-73444100D01*
X185629380Y-78391620D02*
X188770260Y-75250740D01*
X185262520Y-78391620D02*
X185629380Y-78391620D01*
%TD*%
D22*
%TO.N,GND*%
X190864545Y-50228909D02*
X191215208Y-50334780D01*
X191538625Y-50506744D01*
X191822484Y-50738254D01*
X192055965Y-51020486D01*
X192230183Y-51342695D01*
X192338502Y-51692614D01*
X192380000Y-52087443D01*
X192380001Y-90137711D01*
X192341091Y-90534545D01*
X192235220Y-90885206D01*
X192063257Y-91208623D01*
X191831748Y-91492482D01*
X191549514Y-91725965D01*
X191227304Y-91900184D01*
X190877385Y-92008502D01*
X190482557Y-92050000D01*
X106712279Y-92050000D01*
X106315455Y-92011091D01*
X105964794Y-91905220D01*
X105641377Y-91733257D01*
X105357518Y-91501748D01*
X105124035Y-91219514D01*
X104949816Y-90897304D01*
X104841498Y-90547385D01*
X104800000Y-90152557D01*
X104800000Y-85562927D01*
X108892920Y-85562927D01*
X108892920Y-85801473D01*
X108939458Y-86035436D01*
X109030745Y-86255824D01*
X109163274Y-86454168D01*
X109331952Y-86622846D01*
X109530296Y-86755375D01*
X109750684Y-86846662D01*
X109984647Y-86893200D01*
X110223193Y-86893200D01*
X110457156Y-86846662D01*
X110532110Y-86815615D01*
X123254350Y-86815615D01*
X123494496Y-87202858D01*
X123988397Y-87463481D01*
X124523653Y-87622741D01*
X125079694Y-87674518D01*
X125635152Y-87616821D01*
X126168681Y-87451868D01*
X126634544Y-87202858D01*
X126874690Y-86815615D01*
X125064520Y-85005445D01*
X123254350Y-86815615D01*
X110532110Y-86815615D01*
X110677544Y-86755375D01*
X110875888Y-86622846D01*
X111044566Y-86454168D01*
X111177095Y-86255824D01*
X111268382Y-86035436D01*
X111314920Y-85801473D01*
X111314920Y-85562927D01*
X111268382Y-85328964D01*
X111177095Y-85108576D01*
X111044566Y-84910232D01*
X110975348Y-84841014D01*
X122215842Y-84841014D01*
X122273539Y-85396472D01*
X122438492Y-85930001D01*
X122687502Y-86395864D01*
X123074745Y-86636010D01*
X124884915Y-84825840D01*
X123074745Y-83015670D01*
X122687502Y-83255816D01*
X122426879Y-83749717D01*
X122267619Y-84284973D01*
X122215842Y-84841014D01*
X110975348Y-84841014D01*
X110875888Y-84741554D01*
X110677544Y-84609025D01*
X110457156Y-84517738D01*
X110223193Y-84471200D01*
X109984647Y-84471200D01*
X109750684Y-84517738D01*
X109530296Y-84609025D01*
X109331952Y-84741554D01*
X109163274Y-84910232D01*
X109030745Y-85108576D01*
X108939458Y-85328964D01*
X108892920Y-85562927D01*
X104800000Y-85562927D01*
X104800000Y-80498740D01*
X109005000Y-80498740D01*
X109005000Y-80791260D01*
X109062068Y-81078158D01*
X109174010Y-81348411D01*
X109336525Y-81591632D01*
X109543368Y-81798475D01*
X109786589Y-81960990D01*
X110056842Y-82072932D01*
X110343740Y-82130000D01*
X110636260Y-82130000D01*
X110923158Y-82072932D01*
X111193411Y-81960990D01*
X111436632Y-81798475D01*
X111643475Y-81591632D01*
X111805990Y-81348411D01*
X111917932Y-81078158D01*
X111975000Y-80791260D01*
X111975000Y-80498740D01*
X111952471Y-80385475D01*
X112935000Y-80385475D01*
X112935000Y-80904525D01*
X113036261Y-81413601D01*
X113234893Y-81893141D01*
X113523262Y-82324715D01*
X113890285Y-82691738D01*
X114321859Y-82980107D01*
X114801399Y-83178739D01*
X115310475Y-83280000D01*
X115829525Y-83280000D01*
X116338601Y-83178739D01*
X116818141Y-82980107D01*
X117249715Y-82691738D01*
X117616738Y-82324715D01*
X117905107Y-81893141D01*
X118103739Y-81413601D01*
X118205000Y-80904525D01*
X118205000Y-80498740D01*
X119165000Y-80498740D01*
X119165000Y-80791260D01*
X119222068Y-81078158D01*
X119334010Y-81348411D01*
X119496525Y-81591632D01*
X119703368Y-81798475D01*
X119946589Y-81960990D01*
X120216842Y-82072932D01*
X120503740Y-82130000D01*
X120796260Y-82130000D01*
X121083158Y-82072932D01*
X121353411Y-81960990D01*
X121596632Y-81798475D01*
X121803475Y-81591632D01*
X121965990Y-81348411D01*
X122077932Y-81078158D01*
X122135000Y-80791260D01*
X122135000Y-80498740D01*
X122077932Y-80211842D01*
X121965990Y-79941589D01*
X121803475Y-79698368D01*
X121596632Y-79491525D01*
X121353411Y-79329010D01*
X121083158Y-79217068D01*
X120796260Y-79160000D01*
X120503740Y-79160000D01*
X120216842Y-79217068D01*
X119946589Y-79329010D01*
X119703368Y-79491525D01*
X119496525Y-79698368D01*
X119334010Y-79941589D01*
X119222068Y-80211842D01*
X119165000Y-80498740D01*
X118205000Y-80498740D01*
X118205000Y-80385475D01*
X118103739Y-79876399D01*
X117905107Y-79396859D01*
X117616738Y-78965285D01*
X117249715Y-78598262D01*
X116818141Y-78309893D01*
X116338601Y-78111261D01*
X115829525Y-78010000D01*
X115310475Y-78010000D01*
X114801399Y-78111261D01*
X114321859Y-78309893D01*
X113890285Y-78598262D01*
X113523262Y-78965285D01*
X113234893Y-79396859D01*
X113036261Y-79876399D01*
X112935000Y-80385475D01*
X111952471Y-80385475D01*
X111917932Y-80211842D01*
X111805990Y-79941589D01*
X111738110Y-79840000D01*
X111930883Y-79840000D01*
X112266081Y-79773325D01*
X112581831Y-79642537D01*
X112865998Y-79452663D01*
X113107663Y-79210998D01*
X113297537Y-78926831D01*
X113428325Y-78611081D01*
X113495000Y-78275883D01*
X113495000Y-77934117D01*
X113428325Y-77598919D01*
X113297537Y-77283169D01*
X113107663Y-76999002D01*
X112865998Y-76757337D01*
X112581831Y-76567463D01*
X112266081Y-76436675D01*
X111930883Y-76370000D01*
X111589117Y-76370000D01*
X111253919Y-76436675D01*
X110938169Y-76567463D01*
X110654002Y-76757337D01*
X110412337Y-76999002D01*
X110222463Y-77283169D01*
X110091675Y-77598919D01*
X110025000Y-77934117D01*
X110025000Y-78275883D01*
X110091675Y-78611081D01*
X110222463Y-78926831D01*
X110378261Y-79160000D01*
X110343740Y-79160000D01*
X110056842Y-79217068D01*
X109786589Y-79329010D01*
X109543368Y-79491525D01*
X109336525Y-79698368D01*
X109174010Y-79941589D01*
X109062068Y-80211842D01*
X109005000Y-80498740D01*
X104800000Y-80498740D01*
X104800000Y-61448740D01*
X109005000Y-61448740D01*
X109005000Y-61741260D01*
X109062068Y-62028158D01*
X109174010Y-62298411D01*
X109336525Y-62541632D01*
X109543368Y-62748475D01*
X109786589Y-62910990D01*
X110056842Y-63022932D01*
X110343740Y-63080000D01*
X110636260Y-63080000D01*
X110923158Y-63022932D01*
X111193411Y-62910990D01*
X111436632Y-62748475D01*
X111643475Y-62541632D01*
X111805990Y-62298411D01*
X111917932Y-62028158D01*
X111975000Y-61741260D01*
X111975000Y-61448740D01*
X111952471Y-61335475D01*
X112935000Y-61335475D01*
X112935000Y-61854525D01*
X113036261Y-62363601D01*
X113234893Y-62843141D01*
X113523262Y-63274715D01*
X113890285Y-63641738D01*
X114321859Y-63930107D01*
X114801399Y-64128739D01*
X115310475Y-64230000D01*
X115829525Y-64230000D01*
X116338601Y-64128739D01*
X116818141Y-63930107D01*
X117249715Y-63641738D01*
X117350000Y-63541453D01*
X117350001Y-73170547D01*
X117346324Y-73207880D01*
X117350001Y-73245213D01*
X117360998Y-73356866D01*
X117365375Y-73371294D01*
X117404454Y-73500126D01*
X117475026Y-73632156D01*
X117546201Y-73718882D01*
X117570000Y-73747881D01*
X117598998Y-73771679D01*
X117704072Y-73876753D01*
X117603919Y-73896675D01*
X117288169Y-74027463D01*
X117004002Y-74217337D01*
X116762337Y-74459002D01*
X116572463Y-74743169D01*
X116441675Y-75058919D01*
X116375000Y-75394117D01*
X116375000Y-75735883D01*
X116441675Y-76071081D01*
X116572463Y-76386831D01*
X116762337Y-76670998D01*
X117004002Y-76912663D01*
X117288169Y-77102537D01*
X117603919Y-77233325D01*
X117939117Y-77300000D01*
X118280883Y-77300000D01*
X118616081Y-77233325D01*
X118931831Y-77102537D01*
X119215998Y-76912663D01*
X119457663Y-76670998D01*
X119619580Y-76428671D01*
X125180261Y-81989352D01*
X125049346Y-81977162D01*
X124493888Y-82034859D01*
X123960359Y-82199812D01*
X123494496Y-82448822D01*
X123254350Y-82836065D01*
X125064520Y-84646235D01*
X125078663Y-84632093D01*
X125258268Y-84811698D01*
X125244125Y-84825840D01*
X127054295Y-86636010D01*
X127441538Y-86395864D01*
X127702161Y-85901963D01*
X127861421Y-85366707D01*
X127913198Y-84810666D01*
X127902954Y-84712046D01*
X134894284Y-91703376D01*
X134918078Y-91732369D01*
X134947071Y-91756163D01*
X134947076Y-91756168D01*
X135033802Y-91827342D01*
X135165832Y-91897915D01*
X135309092Y-91941371D01*
X135458078Y-91956045D01*
X135495411Y-91952368D01*
X177468680Y-91952370D01*
X177506002Y-91956046D01*
X177543324Y-91952370D01*
X177543334Y-91952370D01*
X177654987Y-91941373D01*
X177798248Y-91897916D01*
X177821542Y-91885465D01*
X177930278Y-91827344D01*
X178017004Y-91756169D01*
X178017005Y-91756168D01*
X178046002Y-91732371D01*
X178069800Y-91703373D01*
X179249456Y-90523718D01*
X179278449Y-90499924D01*
X179302243Y-90470931D01*
X179302248Y-90470926D01*
X179373422Y-90384200D01*
X179443995Y-90252170D01*
X179487451Y-90108910D01*
X179490656Y-90076368D01*
X179538440Y-90061873D01*
X179589265Y-90077291D01*
X179725940Y-90090752D01*
X179850940Y-90090752D01*
X179987615Y-90077291D01*
X180038440Y-90061873D01*
X180089265Y-90077291D01*
X180225940Y-90090752D01*
X180350940Y-90090752D01*
X180487615Y-90077291D01*
X180538440Y-90061873D01*
X180589265Y-90077291D01*
X180725940Y-90090752D01*
X180850940Y-90090752D01*
X180987615Y-90077291D01*
X181038440Y-90061873D01*
X181089265Y-90077291D01*
X181225940Y-90090752D01*
X181350940Y-90090752D01*
X181487615Y-90077291D01*
X181538440Y-90061873D01*
X181589265Y-90077291D01*
X181725940Y-90090752D01*
X181850940Y-90090752D01*
X181987615Y-90077291D01*
X182119037Y-90037424D01*
X182240157Y-89972684D01*
X182346319Y-89885559D01*
X182433444Y-89779397D01*
X182452867Y-89743060D01*
X184953604Y-89743060D01*
X185041914Y-89850666D01*
X185168912Y-89954891D01*
X185313804Y-90032338D01*
X185471020Y-90080029D01*
X185634520Y-90096132D01*
X186034520Y-90096132D01*
X186198020Y-90080029D01*
X186355236Y-90032338D01*
X186500128Y-89954891D01*
X186602110Y-89871197D01*
X186633335Y-89909245D01*
X186730026Y-89988597D01*
X186840340Y-90047562D01*
X186960038Y-90083872D01*
X187084520Y-90096132D01*
X187198770Y-90093060D01*
X187357520Y-89934310D01*
X187357520Y-89110060D01*
X187611520Y-89110060D01*
X187611520Y-89934310D01*
X187770270Y-90093060D01*
X187884520Y-90096132D01*
X188009002Y-90083872D01*
X188128700Y-90047562D01*
X188239014Y-89988597D01*
X188335705Y-89909245D01*
X188415057Y-89812554D01*
X188474022Y-89702240D01*
X188510332Y-89582542D01*
X188522592Y-89458060D01*
X188519520Y-89268810D01*
X188360770Y-89110060D01*
X187611520Y-89110060D01*
X187357520Y-89110060D01*
X187337520Y-89110060D01*
X187337520Y-88856060D01*
X187357520Y-88856060D01*
X187357520Y-88031810D01*
X187307520Y-87981810D01*
X187307520Y-87542880D01*
X187561520Y-87542880D01*
X187561520Y-88367130D01*
X187611520Y-88417130D01*
X187611520Y-88856060D01*
X188360770Y-88856060D01*
X188519520Y-88697310D01*
X188522592Y-88508060D01*
X188510332Y-88383578D01*
X188474022Y-88263880D01*
X188439594Y-88199470D01*
X188474022Y-88135060D01*
X188510332Y-88015362D01*
X188522592Y-87890880D01*
X188519520Y-87701630D01*
X188360770Y-87542880D01*
X187561520Y-87542880D01*
X187307520Y-87542880D01*
X187287520Y-87542880D01*
X187287520Y-87288880D01*
X187307520Y-87288880D01*
X187307520Y-86464630D01*
X187561520Y-86464630D01*
X187561520Y-87288880D01*
X188360770Y-87288880D01*
X188519520Y-87130130D01*
X188522592Y-86940880D01*
X188510332Y-86816398D01*
X188474022Y-86696700D01*
X188415057Y-86586386D01*
X188335705Y-86489695D01*
X188239014Y-86410343D01*
X188128700Y-86351378D01*
X188009002Y-86315068D01*
X187884520Y-86302808D01*
X187720270Y-86305880D01*
X187561520Y-86464630D01*
X187307520Y-86464630D01*
X187148770Y-86305880D01*
X186984520Y-86302808D01*
X186860038Y-86315068D01*
X186740340Y-86351378D01*
X186630026Y-86410343D01*
X186585871Y-86446580D01*
X186439803Y-86368505D01*
X186277897Y-86319392D01*
X186109520Y-86302808D01*
X185659520Y-86302808D01*
X185491143Y-86319392D01*
X185329237Y-86368505D01*
X185180023Y-86448262D01*
X185049236Y-86555596D01*
X184958453Y-86666215D01*
X184951734Y-86666877D01*
X184808473Y-86710334D01*
X184676444Y-86780906D01*
X184667751Y-86788040D01*
X184591621Y-86788040D01*
X184391662Y-86827814D01*
X184203304Y-86905835D01*
X184033786Y-87019103D01*
X183889623Y-87163266D01*
X183786816Y-87317128D01*
X183786673Y-87315873D01*
X183781264Y-87299230D01*
X183788051Y-87276855D01*
X183801512Y-87140180D01*
X183801512Y-87015180D01*
X183788051Y-86878505D01*
X183772633Y-86827680D01*
X183788051Y-86776855D01*
X183801512Y-86640180D01*
X183801512Y-86515180D01*
X183788051Y-86378505D01*
X183772633Y-86327680D01*
X183788051Y-86276855D01*
X183801512Y-86140180D01*
X183801512Y-86015180D01*
X183788051Y-85878505D01*
X183772633Y-85827680D01*
X183774993Y-85819900D01*
X183931899Y-85819900D01*
X184131858Y-85780126D01*
X184320216Y-85702105D01*
X184489734Y-85588837D01*
X184633897Y-85444674D01*
X184747165Y-85275156D01*
X184825186Y-85086798D01*
X184858309Y-84920277D01*
X184862145Y-84932923D01*
X184941902Y-85082137D01*
X185049236Y-85212924D01*
X185180023Y-85320258D01*
X185329237Y-85400015D01*
X185491143Y-85449128D01*
X185659520Y-85465712D01*
X186109520Y-85465712D01*
X186277897Y-85449128D01*
X186439803Y-85400015D01*
X186585871Y-85321940D01*
X186630026Y-85358177D01*
X186740340Y-85417142D01*
X186860038Y-85453452D01*
X186984520Y-85465712D01*
X187148770Y-85462640D01*
X187307520Y-85303890D01*
X187307520Y-84479640D01*
X187561520Y-84479640D01*
X187561520Y-85303890D01*
X187720270Y-85462640D01*
X187884520Y-85465712D01*
X188009002Y-85453452D01*
X188128700Y-85417142D01*
X188239014Y-85358177D01*
X188335705Y-85278825D01*
X188415057Y-85182134D01*
X188474022Y-85071820D01*
X188510332Y-84952122D01*
X188522592Y-84827640D01*
X188519520Y-84638390D01*
X188360770Y-84479640D01*
X187561520Y-84479640D01*
X187307520Y-84479640D01*
X187287520Y-84479640D01*
X187287520Y-84225640D01*
X187307520Y-84225640D01*
X187307520Y-82902300D01*
X187561520Y-82902300D01*
X187561520Y-84225640D01*
X188360770Y-84225640D01*
X188519520Y-84066890D01*
X188522592Y-83877640D01*
X188510332Y-83753158D01*
X188474022Y-83633460D01*
X188436878Y-83563970D01*
X188474022Y-83494480D01*
X188510332Y-83374782D01*
X188522592Y-83250300D01*
X188519520Y-83061050D01*
X188360770Y-82902300D01*
X187561520Y-82902300D01*
X187307520Y-82902300D01*
X187287520Y-82902300D01*
X187287520Y-82648300D01*
X187307520Y-82648300D01*
X187307520Y-81824050D01*
X187561520Y-81824050D01*
X187561520Y-82648300D01*
X188360770Y-82648300D01*
X188519520Y-82489550D01*
X188522592Y-82300300D01*
X188510332Y-82175818D01*
X188474022Y-82056120D01*
X188415057Y-81945806D01*
X188335705Y-81849115D01*
X188239014Y-81769763D01*
X188128700Y-81710798D01*
X188009002Y-81674488D01*
X187884520Y-81662228D01*
X187720270Y-81665300D01*
X187561520Y-81824050D01*
X187307520Y-81824050D01*
X187148770Y-81665300D01*
X186984520Y-81662228D01*
X186860038Y-81674488D01*
X186740340Y-81710798D01*
X186630026Y-81769763D01*
X186585871Y-81806000D01*
X186439803Y-81727925D01*
X186277897Y-81678812D01*
X186109520Y-81662228D01*
X186050069Y-81662228D01*
X186051317Y-81649560D01*
X186047520Y-81611004D01*
X186047520Y-80854521D01*
X186124635Y-80791235D01*
X186231191Y-80661395D01*
X186310370Y-80513262D01*
X186359128Y-80352528D01*
X186375592Y-80185370D01*
X186375592Y-79747870D01*
X186359128Y-79580712D01*
X186310370Y-79419978D01*
X186231191Y-79271845D01*
X186155094Y-79179120D01*
X186231191Y-79086395D01*
X186310370Y-78938262D01*
X186359128Y-78777528D01*
X186359729Y-78771428D01*
X189023792Y-76107366D01*
X189064953Y-76170441D01*
X189224941Y-76333947D01*
X189413754Y-76463099D01*
X189624135Y-76552934D01*
X189848000Y-76600000D01*
X190373000Y-76600000D01*
X190373000Y-75567000D01*
X190627000Y-75567000D01*
X190627000Y-76600000D01*
X191152000Y-76600000D01*
X191375865Y-76552934D01*
X191586246Y-76463099D01*
X191775059Y-76333947D01*
X191935047Y-76170441D01*
X192060063Y-75978864D01*
X192143964Y-75745810D01*
X192018163Y-75567000D01*
X190627000Y-75567000D01*
X190373000Y-75567000D01*
X190353000Y-75567000D01*
X190353000Y-75313000D01*
X190373000Y-75313000D01*
X190373000Y-74280000D01*
X190627000Y-74280000D01*
X190627000Y-75313000D01*
X192018163Y-75313000D01*
X192143964Y-75134190D01*
X192060063Y-74901136D01*
X191935047Y-74709559D01*
X191775059Y-74546053D01*
X191586246Y-74416901D01*
X191375865Y-74327066D01*
X191152000Y-74280000D01*
X190627000Y-74280000D01*
X190373000Y-74280000D01*
X189848000Y-74280000D01*
X189624135Y-74327066D01*
X189555260Y-74356476D01*
X189555260Y-73482652D01*
X189559057Y-73444099D01*
X189555260Y-73405546D01*
X189555260Y-71224818D01*
X189559057Y-71186262D01*
X189555260Y-71147702D01*
X189555260Y-71147701D01*
X189548371Y-71077754D01*
X189543902Y-71032375D01*
X189499014Y-70884402D01*
X189493718Y-70874494D01*
X189426122Y-70748029D01*
X189328024Y-70628498D01*
X189298071Y-70603916D01*
X187583578Y-68889423D01*
X187615099Y-68857901D01*
X187722896Y-68696572D01*
X187797147Y-68517314D01*
X187835000Y-68327014D01*
X187835000Y-68132986D01*
X187797147Y-67942686D01*
X187722896Y-67763428D01*
X187643435Y-67644507D01*
X187755047Y-67530441D01*
X187880063Y-67338864D01*
X187963964Y-67105810D01*
X188856036Y-67105810D01*
X188939937Y-67338864D01*
X189064953Y-67530441D01*
X189224941Y-67693947D01*
X189413754Y-67823099D01*
X189624135Y-67912934D01*
X189848000Y-67960000D01*
X190373000Y-67960000D01*
X190373000Y-66927000D01*
X190627000Y-66927000D01*
X190627000Y-67960000D01*
X191152000Y-67960000D01*
X191375865Y-67912934D01*
X191586246Y-67823099D01*
X191775059Y-67693947D01*
X191935047Y-67530441D01*
X192060063Y-67338864D01*
X192143964Y-67105810D01*
X192018163Y-66927000D01*
X190627000Y-66927000D01*
X190373000Y-66927000D01*
X188981837Y-66927000D01*
X188856036Y-67105810D01*
X187963964Y-67105810D01*
X187838163Y-66927000D01*
X186447000Y-66927000D01*
X186447000Y-66947000D01*
X186263752Y-66947000D01*
X186254482Y-66944188D01*
X186193000Y-66938133D01*
X186193000Y-66927000D01*
X184801837Y-66927000D01*
X184797790Y-66932752D01*
X184680000Y-66931928D01*
X184555518Y-66944188D01*
X184435820Y-66980498D01*
X184325506Y-67039463D01*
X184254671Y-67097595D01*
X184251620Y-66984110D01*
X184092870Y-66825360D01*
X183268620Y-66825360D01*
X183268620Y-66845360D01*
X183014620Y-66845360D01*
X183014620Y-66825360D01*
X182190370Y-66825360D01*
X182031620Y-66984110D01*
X182028548Y-67098360D01*
X182040808Y-67222842D01*
X182077118Y-67342540D01*
X182136083Y-67452854D01*
X182215435Y-67549545D01*
X182253483Y-67580770D01*
X182169789Y-67682752D01*
X182092342Y-67827644D01*
X182044651Y-67984860D01*
X182028548Y-68148360D01*
X182028548Y-68548360D01*
X182044651Y-68711860D01*
X182092342Y-68869076D01*
X182169789Y-69013968D01*
X182274014Y-69140966D01*
X182401012Y-69245191D01*
X182545904Y-69322638D01*
X182703120Y-69370329D01*
X182866620Y-69386432D01*
X183104891Y-69386432D01*
X183328458Y-69610000D01*
X182419688Y-69610000D01*
X182382365Y-69606324D01*
X182345043Y-69610000D01*
X182345033Y-69610000D01*
X182233380Y-69620997D01*
X182097398Y-69662246D01*
X182090119Y-69664454D01*
X181958089Y-69735026D01*
X181885740Y-69794402D01*
X181842365Y-69829999D01*
X181818567Y-69858997D01*
X179782724Y-71894841D01*
X179753726Y-71918639D01*
X179729928Y-71947637D01*
X179729927Y-71947638D01*
X179658752Y-72034364D01*
X179588180Y-72166394D01*
X179568053Y-72232746D01*
X179544724Y-72309654D01*
X179538338Y-72374494D01*
X179530050Y-72458640D01*
X179533727Y-72495972D01*
X179533726Y-77323968D01*
X179427140Y-77323968D01*
X179263640Y-77340071D01*
X179106424Y-77387762D01*
X178961532Y-77465209D01*
X178834534Y-77569434D01*
X178730309Y-77696432D01*
X178678611Y-77793152D01*
X178658762Y-77727720D01*
X178599797Y-77617406D01*
X178520445Y-77520715D01*
X178423754Y-77441363D01*
X178313440Y-77382398D01*
X178193742Y-77346088D01*
X178069260Y-77333828D01*
X177880010Y-77336900D01*
X177721260Y-77495650D01*
X177721260Y-78294900D01*
X177741260Y-78294900D01*
X177741260Y-78548900D01*
X177721260Y-78548900D01*
X177721260Y-78568900D01*
X177467260Y-78568900D01*
X177467260Y-78548900D01*
X177447260Y-78548900D01*
X177447260Y-78294900D01*
X177467260Y-78294900D01*
X177467260Y-77495650D01*
X177308510Y-77336900D01*
X177188400Y-77334950D01*
X177188400Y-72474019D01*
X177366842Y-72547932D01*
X177653740Y-72605000D01*
X177946260Y-72605000D01*
X178233158Y-72547932D01*
X178503411Y-72435990D01*
X178746632Y-72273475D01*
X178953475Y-72066632D01*
X179115990Y-71823411D01*
X179227932Y-71553158D01*
X179285000Y-71266260D01*
X179285000Y-70973740D01*
X179227932Y-70686842D01*
X179115990Y-70416589D01*
X178953475Y-70173368D01*
X178746632Y-69966525D01*
X178503411Y-69804010D01*
X178233158Y-69692068D01*
X177946260Y-69635000D01*
X177653740Y-69635000D01*
X177366842Y-69692068D01*
X177188400Y-69765981D01*
X177188400Y-69458961D01*
X178302371Y-68344991D01*
X178445522Y-68404286D01*
X178645481Y-68444060D01*
X178849359Y-68444060D01*
X179049318Y-68404286D01*
X179237676Y-68326265D01*
X179407194Y-68212997D01*
X179551357Y-68068834D01*
X179664625Y-67899316D01*
X179742646Y-67710958D01*
X179782420Y-67510999D01*
X179782420Y-67307121D01*
X179742646Y-67107162D01*
X179664625Y-66918804D01*
X179551357Y-66749286D01*
X179407194Y-66605123D01*
X179406376Y-66604576D01*
X179712592Y-66298360D01*
X182028548Y-66298360D01*
X182031620Y-66412610D01*
X182190370Y-66571360D01*
X183014620Y-66571360D01*
X183014620Y-65822110D01*
X183268620Y-65822110D01*
X183268620Y-66571360D01*
X184092870Y-66571360D01*
X184170040Y-66494190D01*
X184676036Y-66494190D01*
X184801837Y-66673000D01*
X186193000Y-66673000D01*
X186193000Y-65640000D01*
X186447000Y-65640000D01*
X186447000Y-66673000D01*
X187838163Y-66673000D01*
X187963964Y-66494190D01*
X188856036Y-66494190D01*
X188981837Y-66673000D01*
X190373000Y-66673000D01*
X190373000Y-65640000D01*
X190627000Y-65640000D01*
X190627000Y-66673000D01*
X192018163Y-66673000D01*
X192143964Y-66494190D01*
X192060063Y-66261136D01*
X191935047Y-66069559D01*
X191775059Y-65906053D01*
X191586246Y-65776901D01*
X191375865Y-65687066D01*
X191152000Y-65640000D01*
X190627000Y-65640000D01*
X190373000Y-65640000D01*
X189848000Y-65640000D01*
X189624135Y-65687066D01*
X189413754Y-65776901D01*
X189224941Y-65906053D01*
X189064953Y-66069559D01*
X188939937Y-66261136D01*
X188856036Y-66494190D01*
X187963964Y-66494190D01*
X187880063Y-66261136D01*
X187755047Y-66069559D01*
X187595059Y-65906053D01*
X187406246Y-65776901D01*
X187195865Y-65687066D01*
X186972000Y-65640000D01*
X186447000Y-65640000D01*
X186193000Y-65640000D01*
X185668000Y-65640000D01*
X185444135Y-65687066D01*
X185233754Y-65776901D01*
X185044941Y-65906053D01*
X184884953Y-66069559D01*
X184759937Y-66261136D01*
X184676036Y-66494190D01*
X184170040Y-66494190D01*
X184251620Y-66412610D01*
X184254692Y-66298360D01*
X184242432Y-66173878D01*
X184206122Y-66054180D01*
X184147157Y-65943866D01*
X184067805Y-65847175D01*
X183971114Y-65767823D01*
X183860800Y-65708858D01*
X183741102Y-65672548D01*
X183616620Y-65660288D01*
X183427370Y-65663360D01*
X183268620Y-65822110D01*
X183014620Y-65822110D01*
X182855870Y-65663360D01*
X182666620Y-65660288D01*
X182542138Y-65672548D01*
X182422440Y-65708858D01*
X182312126Y-65767823D01*
X182215435Y-65847175D01*
X182136083Y-65943866D01*
X182077118Y-66054180D01*
X182040808Y-66173878D01*
X182028548Y-66298360D01*
X179712592Y-66298360D01*
X181001652Y-65009300D01*
X186065938Y-65009300D01*
X186103260Y-65012976D01*
X186140582Y-65009300D01*
X186140593Y-65009300D01*
X186252246Y-64998303D01*
X186395507Y-64954846D01*
X186527536Y-64884274D01*
X186643261Y-64789301D01*
X186667064Y-64760297D01*
X187112097Y-64315264D01*
X187141101Y-64291461D01*
X187231270Y-64181590D01*
X187236074Y-64175737D01*
X187306646Y-64043707D01*
X187332931Y-63957054D01*
X187350103Y-63900446D01*
X187361100Y-63788793D01*
X187361100Y-63788784D01*
X187364776Y-63751461D01*
X187361100Y-63714138D01*
X187361100Y-62678982D01*
X187364776Y-62641659D01*
X187361100Y-62604336D01*
X187361100Y-62604327D01*
X187350103Y-62492674D01*
X187306646Y-62349413D01*
X187236074Y-62217384D01*
X187141101Y-62101659D01*
X187112103Y-62077862D01*
X186632723Y-61598482D01*
X186608921Y-61569479D01*
X186493196Y-61474506D01*
X186469307Y-61461737D01*
X186487145Y-61418671D01*
X186527880Y-61213881D01*
X186527880Y-61005079D01*
X186524823Y-60989708D01*
X186541883Y-60933466D01*
X186552880Y-60821813D01*
X186552880Y-60821804D01*
X186556556Y-60784481D01*
X186552880Y-60747158D01*
X186552880Y-58339005D01*
X186585486Y-58312246D01*
X186689711Y-58185248D01*
X186767158Y-58040356D01*
X186814849Y-57883140D01*
X186830952Y-57719640D01*
X186830952Y-57169640D01*
X186814849Y-57006140D01*
X186767158Y-56848924D01*
X186705651Y-56733854D01*
X186760781Y-56744820D01*
X186964659Y-56744820D01*
X187164618Y-56705046D01*
X187352976Y-56627025D01*
X187522494Y-56513757D01*
X187666657Y-56369594D01*
X187779925Y-56200076D01*
X187857946Y-56011718D01*
X187897720Y-55811759D01*
X187897720Y-55607881D01*
X187857946Y-55407922D01*
X187779925Y-55219564D01*
X187666657Y-55050046D01*
X187522494Y-54905883D01*
X187352976Y-54792615D01*
X187164618Y-54714594D01*
X186964659Y-54674820D01*
X186760781Y-54674820D01*
X186750943Y-54676777D01*
X186782382Y-54617960D01*
X186818692Y-54498262D01*
X186830952Y-54373780D01*
X186827880Y-54184530D01*
X186669130Y-54025780D01*
X185882380Y-54025780D01*
X185882380Y-54045780D01*
X185628380Y-54045780D01*
X185628380Y-54025780D01*
X185608380Y-54025780D01*
X185608380Y-53771780D01*
X185628380Y-53771780D01*
X185628380Y-52947530D01*
X185882380Y-52947530D01*
X185882380Y-53771780D01*
X186669130Y-53771780D01*
X186827880Y-53613030D01*
X186830952Y-53423780D01*
X186818692Y-53299298D01*
X186782382Y-53179600D01*
X186723417Y-53069286D01*
X186644065Y-52972595D01*
X186547374Y-52893243D01*
X186437060Y-52834278D01*
X186317362Y-52797968D01*
X186192880Y-52785708D01*
X186041130Y-52788780D01*
X185882380Y-52947530D01*
X185628380Y-52947530D01*
X185469630Y-52788780D01*
X185317880Y-52785708D01*
X185193398Y-52797968D01*
X185073700Y-52834278D01*
X184963386Y-52893243D01*
X184896810Y-52947880D01*
X184875155Y-52930109D01*
X184727022Y-52850930D01*
X184566288Y-52802172D01*
X184399130Y-52785708D01*
X183961630Y-52785708D01*
X183794472Y-52802172D01*
X183633738Y-52850930D01*
X183485605Y-52930109D01*
X183355765Y-53036665D01*
X183249209Y-53166505D01*
X183170030Y-53314638D01*
X183121272Y-53475372D01*
X183104808Y-53642530D01*
X183104808Y-54155030D01*
X183121272Y-54322188D01*
X183170030Y-54482922D01*
X183249209Y-54631055D01*
X183355765Y-54760895D01*
X183382881Y-54783148D01*
X183382881Y-54797344D01*
X183350274Y-54824104D01*
X183246049Y-54951102D01*
X183168602Y-55095994D01*
X183120911Y-55253210D01*
X183104808Y-55416710D01*
X183104808Y-55966710D01*
X183120911Y-56130210D01*
X183168602Y-56287426D01*
X183246049Y-56432318D01*
X183350274Y-56559316D01*
X183361069Y-56568175D01*
X183350274Y-56577034D01*
X183246049Y-56704032D01*
X183168602Y-56848924D01*
X183120911Y-57006140D01*
X183104808Y-57169640D01*
X183104808Y-57719640D01*
X183120911Y-57883140D01*
X183168602Y-58040356D01*
X183246049Y-58185248D01*
X183350274Y-58312246D01*
X183382881Y-58339006D01*
X183382880Y-58816739D01*
X183338943Y-58860676D01*
X183225675Y-59030194D01*
X183147654Y-59218552D01*
X183107880Y-59418511D01*
X183107880Y-59480648D01*
X176949277Y-65639252D01*
X176928325Y-65533919D01*
X176797537Y-65218169D01*
X176607663Y-64934002D01*
X176365998Y-64692337D01*
X176081831Y-64502463D01*
X175766081Y-64371675D01*
X175430883Y-64305000D01*
X175089117Y-64305000D01*
X174753919Y-64371675D01*
X174438169Y-64502463D01*
X174154002Y-64692337D01*
X173912337Y-64934002D01*
X173722463Y-65218169D01*
X173591675Y-65533919D01*
X173525000Y-65869117D01*
X173525000Y-66210883D01*
X173591675Y-66546081D01*
X173722463Y-66861831D01*
X173912337Y-67145998D01*
X174154002Y-67387663D01*
X174438169Y-67577537D01*
X174753919Y-67708325D01*
X174859252Y-67729277D01*
X174567371Y-68021158D01*
X174538373Y-68044956D01*
X174514575Y-68073954D01*
X174514574Y-68073955D01*
X174443399Y-68160681D01*
X174372827Y-68292711D01*
X174349383Y-68370000D01*
X174334896Y-68417759D01*
X174329371Y-68435972D01*
X174314697Y-68584957D01*
X174318374Y-68622289D01*
X174318374Y-69018912D01*
X173968141Y-68784893D01*
X173488601Y-68586261D01*
X172979525Y-68485000D01*
X172460475Y-68485000D01*
X171951399Y-68586261D01*
X171471859Y-68784893D01*
X171040285Y-69073262D01*
X170673262Y-69440285D01*
X170384893Y-69871859D01*
X170186261Y-70351399D01*
X170085000Y-70860475D01*
X170085000Y-71379525D01*
X170186261Y-71888601D01*
X170384893Y-72368141D01*
X170673262Y-72799715D01*
X171040285Y-73166738D01*
X171471859Y-73455107D01*
X171951399Y-73653739D01*
X172460475Y-73755000D01*
X172979525Y-73755000D01*
X173488601Y-73653739D01*
X173968141Y-73455107D01*
X174318373Y-73221089D01*
X174318372Y-82363022D01*
X174251220Y-82356408D01*
X173801220Y-82356408D01*
X173632843Y-82372992D01*
X173470937Y-82422105D01*
X173324869Y-82500180D01*
X173280714Y-82463943D01*
X173170400Y-82404978D01*
X173050702Y-82368668D01*
X172926220Y-82356408D01*
X172761970Y-82359480D01*
X172603220Y-82518230D01*
X172603220Y-83342480D01*
X172623220Y-83342480D01*
X172623220Y-83596480D01*
X172603220Y-83596480D01*
X172603220Y-83616480D01*
X172349220Y-83616480D01*
X172349220Y-83596480D01*
X171549970Y-83596480D01*
X171470966Y-83675484D01*
X170789962Y-82994480D01*
X171388148Y-82994480D01*
X171391220Y-83183730D01*
X171549970Y-83342480D01*
X172349220Y-83342480D01*
X172349220Y-82518230D01*
X172190470Y-82359480D01*
X172026220Y-82356408D01*
X171901738Y-82368668D01*
X171782040Y-82404978D01*
X171671726Y-82463943D01*
X171575035Y-82543295D01*
X171495683Y-82639986D01*
X171436718Y-82750300D01*
X171400408Y-82869998D01*
X171388148Y-82994480D01*
X170789962Y-82994480D01*
X170523511Y-82728030D01*
X170499708Y-82699026D01*
X170383983Y-82604053D01*
X170251954Y-82533481D01*
X170108693Y-82490024D01*
X169997040Y-82479027D01*
X169997029Y-82479027D01*
X169959707Y-82475351D01*
X169922385Y-82479027D01*
X169348202Y-82479027D01*
X169232753Y-82363578D01*
X169136062Y-82284226D01*
X169025748Y-82225261D01*
X168906050Y-82188951D01*
X168781568Y-82176691D01*
X168657086Y-82188951D01*
X168537388Y-82225261D01*
X168427074Y-82284226D01*
X168376987Y-82325331D01*
X168337039Y-82285382D01*
X168313236Y-82256379D01*
X168197511Y-82161406D01*
X168065482Y-82090834D01*
X167922221Y-82047377D01*
X167840005Y-82039279D01*
X167650946Y-81850220D01*
X167520159Y-81742886D01*
X167370945Y-81663129D01*
X167209039Y-81614016D01*
X167040662Y-81597432D01*
X166872285Y-81614016D01*
X166710379Y-81663129D01*
X166561165Y-81742886D01*
X166430378Y-81850220D01*
X166112180Y-82168418D01*
X166004846Y-82299205D01*
X165925089Y-82448419D01*
X165877011Y-82606912D01*
X165820165Y-82612511D01*
X165700467Y-82648820D01*
X165590152Y-82707784D01*
X165493461Y-82787137D01*
X165379491Y-82905452D01*
X165379491Y-83129958D01*
X165962324Y-83712791D01*
X165976467Y-83698649D01*
X166156072Y-83878254D01*
X166141929Y-83892396D01*
X166156072Y-83906539D01*
X165976467Y-84086144D01*
X165962324Y-84072001D01*
X165397169Y-84637156D01*
X165397169Y-84861663D01*
X165528817Y-84997655D01*
X165625508Y-85077008D01*
X165658101Y-85094429D01*
X165646481Y-85116168D01*
X165610172Y-85235866D01*
X165597911Y-85360348D01*
X165608601Y-85468882D01*
X165504050Y-85500596D01*
X165393736Y-85559560D01*
X165297045Y-85638913D01*
X165165397Y-85774905D01*
X165165397Y-85999412D01*
X165730552Y-86564567D01*
X166313385Y-85981734D01*
X166313385Y-85951869D01*
X166975617Y-85289637D01*
X166961475Y-85275495D01*
X167141080Y-85095890D01*
X167155222Y-85110032D01*
X167169365Y-85095890D01*
X167348970Y-85275495D01*
X167334827Y-85289637D01*
X167348970Y-85303780D01*
X167169365Y-85483385D01*
X167155222Y-85469242D01*
X166413290Y-86211174D01*
X166413290Y-86241039D01*
X165910157Y-86744172D01*
X165924300Y-86758315D01*
X165744695Y-86937920D01*
X165730552Y-86923777D01*
X165147719Y-87506610D01*
X165147719Y-87731116D01*
X165261689Y-87849431D01*
X165358380Y-87928784D01*
X165468695Y-87987748D01*
X165588393Y-88024057D01*
X165645239Y-88029656D01*
X165691549Y-88182320D01*
X164292672Y-88182320D01*
X162872202Y-86761850D01*
X164438406Y-86761850D01*
X164450667Y-86886331D01*
X164486976Y-87006029D01*
X164545940Y-87116344D01*
X164625293Y-87213035D01*
X164743608Y-87327005D01*
X164968114Y-87327005D01*
X165550947Y-86744172D01*
X164985792Y-86179017D01*
X164761285Y-86179017D01*
X164625293Y-86310665D01*
X164545940Y-86407356D01*
X164486976Y-86517670D01*
X164450667Y-86637368D01*
X164438406Y-86761850D01*
X162872202Y-86761850D01*
X162261250Y-86150899D01*
X162261250Y-83874718D01*
X164670178Y-83874718D01*
X164682439Y-83999200D01*
X164718748Y-84118898D01*
X164777712Y-84229212D01*
X164857065Y-84325903D01*
X164993057Y-84457551D01*
X165217564Y-84457551D01*
X165782719Y-83892396D01*
X165199886Y-83309563D01*
X164975380Y-83309563D01*
X164857065Y-83423533D01*
X164777712Y-83520224D01*
X164718748Y-83630539D01*
X164682439Y-83750237D01*
X164670178Y-83874718D01*
X162261250Y-83874718D01*
X162261250Y-70973740D01*
X166155000Y-70973740D01*
X166155000Y-71266260D01*
X166212068Y-71553158D01*
X166324010Y-71823411D01*
X166486525Y-72066632D01*
X166693368Y-72273475D01*
X166936589Y-72435990D01*
X167206842Y-72547932D01*
X167493740Y-72605000D01*
X167786260Y-72605000D01*
X168073158Y-72547932D01*
X168343411Y-72435990D01*
X168586632Y-72273475D01*
X168793475Y-72066632D01*
X168955990Y-71823411D01*
X169067932Y-71553158D01*
X169125000Y-71266260D01*
X169125000Y-70973740D01*
X169067932Y-70686842D01*
X168955990Y-70416589D01*
X168888110Y-70315000D01*
X169080883Y-70315000D01*
X169416081Y-70248325D01*
X169731831Y-70117537D01*
X170015998Y-69927663D01*
X170257663Y-69685998D01*
X170447537Y-69401831D01*
X170578325Y-69086081D01*
X170645000Y-68750883D01*
X170645000Y-68409117D01*
X170578325Y-68073919D01*
X170447537Y-67758169D01*
X170257663Y-67474002D01*
X170015998Y-67232337D01*
X169731831Y-67042463D01*
X169416081Y-66911675D01*
X169080883Y-66845000D01*
X168739117Y-66845000D01*
X168403919Y-66911675D01*
X168088169Y-67042463D01*
X167804002Y-67232337D01*
X167562337Y-67474002D01*
X167372463Y-67758169D01*
X167241675Y-68073919D01*
X167175000Y-68409117D01*
X167175000Y-68750883D01*
X167241675Y-69086081D01*
X167372463Y-69401831D01*
X167528261Y-69635000D01*
X167493740Y-69635000D01*
X167206842Y-69692068D01*
X166936589Y-69804010D01*
X166693368Y-69966525D01*
X166486525Y-70173368D01*
X166324010Y-70416589D01*
X166212068Y-70686842D01*
X166155000Y-70973740D01*
X162261250Y-70973740D01*
X162261250Y-61843583D01*
X162264927Y-61806250D01*
X162250253Y-61657264D01*
X162206796Y-61514003D01*
X162136224Y-61381974D01*
X162065049Y-61295247D01*
X162041251Y-61266249D01*
X162012253Y-61242451D01*
X160829738Y-60059936D01*
X172248410Y-60059936D01*
X172488556Y-60447179D01*
X172982457Y-60707802D01*
X173517713Y-60867062D01*
X174073754Y-60918839D01*
X174629212Y-60861142D01*
X175162741Y-60696189D01*
X175628604Y-60447179D01*
X175868750Y-60059936D01*
X174058580Y-58249766D01*
X172248410Y-60059936D01*
X160829738Y-60059936D01*
X158855137Y-58085335D01*
X171209902Y-58085335D01*
X171267599Y-58640793D01*
X171432552Y-59174322D01*
X171681562Y-59640185D01*
X172068805Y-59880331D01*
X173878975Y-58070161D01*
X174238185Y-58070161D01*
X176048355Y-59880331D01*
X176435598Y-59640185D01*
X176696221Y-59146284D01*
X176855481Y-58611028D01*
X176907258Y-58054987D01*
X176849561Y-57499529D01*
X176684608Y-56966000D01*
X176435598Y-56500137D01*
X176048355Y-56259991D01*
X174238185Y-58070161D01*
X173878975Y-58070161D01*
X172068805Y-56259991D01*
X171681562Y-56500137D01*
X171420939Y-56994038D01*
X171261679Y-57529294D01*
X171209902Y-58085335D01*
X158855137Y-58085335D01*
X157852714Y-57082912D01*
X157878325Y-57021081D01*
X157945000Y-56685883D01*
X157945000Y-56344117D01*
X157892541Y-56080386D01*
X172248410Y-56080386D01*
X174058580Y-57890556D01*
X175868750Y-56080386D01*
X175628604Y-55693143D01*
X175134703Y-55432520D01*
X174599447Y-55273260D01*
X174043406Y-55221483D01*
X173487948Y-55279180D01*
X172954419Y-55444133D01*
X172488556Y-55693143D01*
X172248410Y-56080386D01*
X157892541Y-56080386D01*
X157878325Y-56008919D01*
X157747537Y-55693169D01*
X157557663Y-55409002D01*
X157315998Y-55167337D01*
X157031831Y-54977463D01*
X156716081Y-54846675D01*
X156380883Y-54780000D01*
X156039117Y-54780000D01*
X155703919Y-54846675D01*
X155388169Y-54977463D01*
X155104002Y-55167337D01*
X154862337Y-55409002D01*
X154672463Y-55693169D01*
X154541675Y-56008919D01*
X154475000Y-56344117D01*
X154475000Y-56685883D01*
X154541675Y-57021081D01*
X154672463Y-57336831D01*
X154862337Y-57620998D01*
X155104002Y-57862663D01*
X155388169Y-58052537D01*
X155703919Y-58183325D01*
X156039117Y-58250000D01*
X156380883Y-58250000D01*
X156716081Y-58183325D01*
X156777912Y-58157714D01*
X158730198Y-60110000D01*
X158603740Y-60110000D01*
X158316842Y-60167068D01*
X158046589Y-60279010D01*
X157803368Y-60441525D01*
X157596525Y-60648368D01*
X157434010Y-60891589D01*
X157322068Y-61161842D01*
X157265000Y-61448740D01*
X157265000Y-61741260D01*
X157322068Y-62028158D01*
X157434010Y-62298411D01*
X157596525Y-62541632D01*
X157803368Y-62748475D01*
X158046589Y-62910990D01*
X158316842Y-63022932D01*
X158603740Y-63080000D01*
X158896260Y-63080000D01*
X159183158Y-63022932D01*
X159453411Y-62910990D01*
X159696632Y-62748475D01*
X159903475Y-62541632D01*
X160065990Y-62298411D01*
X160177932Y-62028158D01*
X160235000Y-61741260D01*
X160235000Y-61614802D01*
X160741251Y-62121053D01*
X160741250Y-79021448D01*
X157852714Y-76132912D01*
X157878325Y-76071081D01*
X157945000Y-75735883D01*
X157945000Y-75394117D01*
X157878325Y-75058919D01*
X157747537Y-74743169D01*
X157557663Y-74459002D01*
X157315998Y-74217337D01*
X157031831Y-74027463D01*
X156716081Y-73896675D01*
X156380883Y-73830000D01*
X156039117Y-73830000D01*
X155703919Y-73896675D01*
X155388169Y-74027463D01*
X155104002Y-74217337D01*
X154862337Y-74459002D01*
X154672463Y-74743169D01*
X154541675Y-75058919D01*
X154475000Y-75394117D01*
X154475000Y-75735883D01*
X154541675Y-76071081D01*
X154672463Y-76386831D01*
X154862337Y-76670998D01*
X155104002Y-76912663D01*
X155388169Y-77102537D01*
X155703919Y-77233325D01*
X156039117Y-77300000D01*
X156380883Y-77300000D01*
X156716081Y-77233325D01*
X156777912Y-77207714D01*
X158730198Y-79160000D01*
X158603740Y-79160000D01*
X158316842Y-79217068D01*
X158046589Y-79329010D01*
X157803368Y-79491525D01*
X157596525Y-79698368D01*
X157434010Y-79941589D01*
X157322068Y-80211842D01*
X157265000Y-80498740D01*
X157265000Y-80791260D01*
X157322068Y-81078158D01*
X157434010Y-81348411D01*
X157596525Y-81591632D01*
X157803368Y-81798475D01*
X158046589Y-81960990D01*
X158316842Y-82072932D01*
X158603740Y-82130000D01*
X158896260Y-82130000D01*
X159183158Y-82072932D01*
X159453411Y-81960990D01*
X159696632Y-81798475D01*
X159903475Y-81591632D01*
X160065990Y-81348411D01*
X160177932Y-81078158D01*
X160235000Y-80791260D01*
X160235000Y-80664802D01*
X160291241Y-80721043D01*
X160291240Y-86614777D01*
X160287564Y-86652100D01*
X160291240Y-86689422D01*
X160291240Y-86689432D01*
X160302237Y-86801085D01*
X160342154Y-86932676D01*
X160345694Y-86944346D01*
X160416266Y-87076376D01*
X160449067Y-87116344D01*
X160511239Y-87192101D01*
X160540243Y-87215904D01*
X162406678Y-89082340D01*
X154222433Y-89082340D01*
X145638832Y-80498740D01*
X147105000Y-80498740D01*
X147105000Y-80791260D01*
X147162068Y-81078158D01*
X147274010Y-81348411D01*
X147436525Y-81591632D01*
X147643368Y-81798475D01*
X147886589Y-81960990D01*
X148156842Y-82072932D01*
X148443740Y-82130000D01*
X148736260Y-82130000D01*
X149023158Y-82072932D01*
X149293411Y-81960990D01*
X149536632Y-81798475D01*
X149743475Y-81591632D01*
X149905990Y-81348411D01*
X150017932Y-81078158D01*
X150075000Y-80791260D01*
X150075000Y-80498740D01*
X150052471Y-80385475D01*
X151035000Y-80385475D01*
X151035000Y-80904525D01*
X151136261Y-81413601D01*
X151334893Y-81893141D01*
X151623262Y-82324715D01*
X151990285Y-82691738D01*
X152421859Y-82980107D01*
X152901399Y-83178739D01*
X153410475Y-83280000D01*
X153929525Y-83280000D01*
X154438601Y-83178739D01*
X154918141Y-82980107D01*
X155349715Y-82691738D01*
X155716738Y-82324715D01*
X156005107Y-81893141D01*
X156203739Y-81413601D01*
X156305000Y-80904525D01*
X156305000Y-80385475D01*
X156203739Y-79876399D01*
X156005107Y-79396859D01*
X155716738Y-78965285D01*
X155349715Y-78598262D01*
X154918141Y-78309893D01*
X154438601Y-78111261D01*
X153929525Y-78010000D01*
X153410475Y-78010000D01*
X152901399Y-78111261D01*
X152421859Y-78309893D01*
X151990285Y-78598262D01*
X151623262Y-78965285D01*
X151334893Y-79396859D01*
X151136261Y-79876399D01*
X151035000Y-80385475D01*
X150052471Y-80385475D01*
X150017932Y-80211842D01*
X149905990Y-79941589D01*
X149838110Y-79840000D01*
X150030883Y-79840000D01*
X150366081Y-79773325D01*
X150681831Y-79642537D01*
X150965998Y-79452663D01*
X151207663Y-79210998D01*
X151397537Y-78926831D01*
X151528325Y-78611081D01*
X151595000Y-78275883D01*
X151595000Y-77934117D01*
X151528325Y-77598919D01*
X151397537Y-77283169D01*
X151207663Y-76999002D01*
X150965998Y-76757337D01*
X150681831Y-76567463D01*
X150366081Y-76436675D01*
X150030883Y-76370000D01*
X149689117Y-76370000D01*
X149353919Y-76436675D01*
X149038169Y-76567463D01*
X148754002Y-76757337D01*
X148512337Y-76999002D01*
X148322463Y-77283169D01*
X148191675Y-77598919D01*
X148125000Y-77934117D01*
X148125000Y-78275883D01*
X148191675Y-78611081D01*
X148322463Y-78926831D01*
X148478261Y-79160000D01*
X148443740Y-79160000D01*
X148156842Y-79217068D01*
X147886589Y-79329010D01*
X147643368Y-79491525D01*
X147436525Y-79698368D01*
X147274010Y-79941589D01*
X147162068Y-80211842D01*
X147105000Y-80498740D01*
X145638832Y-80498740D01*
X137920000Y-72779909D01*
X137920000Y-61448740D01*
X138215000Y-61448740D01*
X138215000Y-61741260D01*
X138272068Y-62028158D01*
X138384010Y-62298411D01*
X138546525Y-62541632D01*
X138753368Y-62748475D01*
X138996589Y-62910990D01*
X139266842Y-63022932D01*
X139553740Y-63080000D01*
X139846260Y-63080000D01*
X140133158Y-63022932D01*
X140403411Y-62910990D01*
X140646632Y-62748475D01*
X140853475Y-62541632D01*
X141015990Y-62298411D01*
X141127932Y-62028158D01*
X141185000Y-61741260D01*
X141185000Y-61448740D01*
X147105000Y-61448740D01*
X147105000Y-61741260D01*
X147162068Y-62028158D01*
X147274010Y-62298411D01*
X147436525Y-62541632D01*
X147643368Y-62748475D01*
X147886589Y-62910990D01*
X148156842Y-63022932D01*
X148443740Y-63080000D01*
X148736260Y-63080000D01*
X149023158Y-63022932D01*
X149293411Y-62910990D01*
X149536632Y-62748475D01*
X149743475Y-62541632D01*
X149905990Y-62298411D01*
X150017932Y-62028158D01*
X150075000Y-61741260D01*
X150075000Y-61448740D01*
X150052471Y-61335475D01*
X151035000Y-61335475D01*
X151035000Y-61854525D01*
X151136261Y-62363601D01*
X151334893Y-62843141D01*
X151623262Y-63274715D01*
X151990285Y-63641738D01*
X152421859Y-63930107D01*
X152901399Y-64128739D01*
X153410475Y-64230000D01*
X153929525Y-64230000D01*
X154438601Y-64128739D01*
X154918141Y-63930107D01*
X155349715Y-63641738D01*
X155716738Y-63274715D01*
X156005107Y-62843141D01*
X156203739Y-62363601D01*
X156305000Y-61854525D01*
X156305000Y-61335475D01*
X156203739Y-60826399D01*
X156005107Y-60346859D01*
X155716738Y-59915285D01*
X155349715Y-59548262D01*
X154918141Y-59259893D01*
X154438601Y-59061261D01*
X153929525Y-58960000D01*
X153410475Y-58960000D01*
X152901399Y-59061261D01*
X152421859Y-59259893D01*
X151990285Y-59548262D01*
X151623262Y-59915285D01*
X151334893Y-60346859D01*
X151136261Y-60826399D01*
X151035000Y-61335475D01*
X150052471Y-61335475D01*
X150017932Y-61161842D01*
X149905990Y-60891589D01*
X149838110Y-60790000D01*
X150030883Y-60790000D01*
X150366081Y-60723325D01*
X150681831Y-60592537D01*
X150965998Y-60402663D01*
X151207663Y-60160998D01*
X151397537Y-59876831D01*
X151528325Y-59561081D01*
X151595000Y-59225883D01*
X151595000Y-58884117D01*
X151528325Y-58548919D01*
X151397537Y-58233169D01*
X151207663Y-57949002D01*
X150965998Y-57707337D01*
X150681831Y-57517463D01*
X150366081Y-57386675D01*
X150030883Y-57320000D01*
X149689117Y-57320000D01*
X149353919Y-57386675D01*
X149038169Y-57517463D01*
X148754002Y-57707337D01*
X148512337Y-57949002D01*
X148322463Y-58233169D01*
X148191675Y-58548919D01*
X148125000Y-58884117D01*
X148125000Y-59225883D01*
X148191675Y-59561081D01*
X148322463Y-59876831D01*
X148478261Y-60110000D01*
X148443740Y-60110000D01*
X148156842Y-60167068D01*
X147886589Y-60279010D01*
X147643368Y-60441525D01*
X147436525Y-60648368D01*
X147274010Y-60891589D01*
X147162068Y-61161842D01*
X147105000Y-61448740D01*
X141185000Y-61448740D01*
X141127932Y-61161842D01*
X141015990Y-60891589D01*
X140853475Y-60648368D01*
X140646632Y-60441525D01*
X140403411Y-60279010D01*
X140133158Y-60167068D01*
X139846260Y-60110000D01*
X139553740Y-60110000D01*
X139266842Y-60167068D01*
X138996589Y-60279010D01*
X138753368Y-60441525D01*
X138546525Y-60648368D01*
X138384010Y-60891589D01*
X138272068Y-61161842D01*
X138215000Y-61448740D01*
X137920000Y-61448740D01*
X137920000Y-58078148D01*
X137981831Y-58052537D01*
X138265998Y-57862663D01*
X138507663Y-57620998D01*
X138697537Y-57336831D01*
X138828325Y-57021081D01*
X138895000Y-56685883D01*
X138895000Y-56344117D01*
X138828325Y-56008919D01*
X138697537Y-55693169D01*
X138507663Y-55409002D01*
X138265998Y-55167337D01*
X137981831Y-54977463D01*
X137666081Y-54846675D01*
X137330883Y-54780000D01*
X136989117Y-54780000D01*
X136653919Y-54846675D01*
X136338169Y-54977463D01*
X136054002Y-55167337D01*
X135812337Y-55409002D01*
X135622463Y-55693169D01*
X135491675Y-56008919D01*
X135425000Y-56344117D01*
X135425000Y-56685883D01*
X135491675Y-57021081D01*
X135622463Y-57336831D01*
X135812337Y-57620998D01*
X136054002Y-57862663D01*
X136338169Y-58052537D01*
X136400001Y-58078149D01*
X136400001Y-59648548D01*
X136299715Y-59548262D01*
X135868141Y-59259893D01*
X135388601Y-59061261D01*
X134879525Y-58960000D01*
X134360475Y-58960000D01*
X133851399Y-59061261D01*
X133371859Y-59259893D01*
X132940285Y-59548262D01*
X132573262Y-59915285D01*
X132284893Y-60346859D01*
X132086261Y-60826399D01*
X131985000Y-61335475D01*
X131985000Y-61854525D01*
X132086261Y-62363601D01*
X132284893Y-62843141D01*
X132573262Y-63274715D01*
X132940285Y-63641738D01*
X133371859Y-63930107D01*
X133851399Y-64128739D01*
X134360475Y-64230000D01*
X134879525Y-64230000D01*
X135388601Y-64128739D01*
X135868141Y-63930107D01*
X136299715Y-63641738D01*
X136400001Y-63541452D01*
X136400000Y-73057388D01*
X136396324Y-73094710D01*
X136400000Y-73132032D01*
X136400000Y-73132042D01*
X136410997Y-73243695D01*
X136448138Y-73366133D01*
X136454454Y-73386956D01*
X136525026Y-73518986D01*
X136550920Y-73550537D01*
X136619999Y-73634711D01*
X136649003Y-73658514D01*
X136848466Y-73857977D01*
X136653919Y-73896675D01*
X136338169Y-74027463D01*
X136054002Y-74217337D01*
X135812337Y-74459002D01*
X135622463Y-74743169D01*
X135491675Y-75058919D01*
X135425000Y-75394117D01*
X135425000Y-75735883D01*
X135491675Y-76071081D01*
X135622463Y-76386831D01*
X135812337Y-76670998D01*
X136054002Y-76912663D01*
X136338169Y-77102537D01*
X136653919Y-77233325D01*
X136989117Y-77300000D01*
X137330883Y-77300000D01*
X137666081Y-77233325D01*
X137981831Y-77102537D01*
X138265998Y-76912663D01*
X138507663Y-76670998D01*
X138697537Y-76386831D01*
X138710241Y-76356162D01*
X152336438Y-89982360D01*
X135959283Y-89982360D01*
X126475662Y-80498740D01*
X128055000Y-80498740D01*
X128055000Y-80791260D01*
X128112068Y-81078158D01*
X128224010Y-81348411D01*
X128386525Y-81591632D01*
X128593368Y-81798475D01*
X128836589Y-81960990D01*
X129106842Y-82072932D01*
X129393740Y-82130000D01*
X129686260Y-82130000D01*
X129973158Y-82072932D01*
X130243411Y-81960990D01*
X130486632Y-81798475D01*
X130693475Y-81591632D01*
X130855990Y-81348411D01*
X130967932Y-81078158D01*
X131025000Y-80791260D01*
X131025000Y-80498740D01*
X131002471Y-80385475D01*
X131985000Y-80385475D01*
X131985000Y-80904525D01*
X132086261Y-81413601D01*
X132284893Y-81893141D01*
X132573262Y-82324715D01*
X132940285Y-82691738D01*
X133371859Y-82980107D01*
X133851399Y-83178739D01*
X134360475Y-83280000D01*
X134879525Y-83280000D01*
X135388601Y-83178739D01*
X135868141Y-82980107D01*
X136299715Y-82691738D01*
X136666738Y-82324715D01*
X136955107Y-81893141D01*
X137153739Y-81413601D01*
X137255000Y-80904525D01*
X137255000Y-80498740D01*
X138215000Y-80498740D01*
X138215000Y-80791260D01*
X138272068Y-81078158D01*
X138384010Y-81348411D01*
X138546525Y-81591632D01*
X138753368Y-81798475D01*
X138996589Y-81960990D01*
X139266842Y-82072932D01*
X139553740Y-82130000D01*
X139846260Y-82130000D01*
X140133158Y-82072932D01*
X140403411Y-81960990D01*
X140646632Y-81798475D01*
X140853475Y-81591632D01*
X141015990Y-81348411D01*
X141127932Y-81078158D01*
X141185000Y-80791260D01*
X141185000Y-80498740D01*
X141127932Y-80211842D01*
X141015990Y-79941589D01*
X140853475Y-79698368D01*
X140646632Y-79491525D01*
X140403411Y-79329010D01*
X140133158Y-79217068D01*
X139846260Y-79160000D01*
X139553740Y-79160000D01*
X139266842Y-79217068D01*
X138996589Y-79329010D01*
X138753368Y-79491525D01*
X138546525Y-79698368D01*
X138384010Y-79941589D01*
X138272068Y-80211842D01*
X138215000Y-80498740D01*
X137255000Y-80498740D01*
X137255000Y-80385475D01*
X137153739Y-79876399D01*
X136955107Y-79396859D01*
X136666738Y-78965285D01*
X136299715Y-78598262D01*
X135868141Y-78309893D01*
X135388601Y-78111261D01*
X134879525Y-78010000D01*
X134360475Y-78010000D01*
X133851399Y-78111261D01*
X133371859Y-78309893D01*
X132940285Y-78598262D01*
X132573262Y-78965285D01*
X132284893Y-79396859D01*
X132086261Y-79876399D01*
X131985000Y-80385475D01*
X131002471Y-80385475D01*
X130967932Y-80211842D01*
X130855990Y-79941589D01*
X130788110Y-79840000D01*
X130980883Y-79840000D01*
X131316081Y-79773325D01*
X131631831Y-79642537D01*
X131915998Y-79452663D01*
X132157663Y-79210998D01*
X132347537Y-78926831D01*
X132478325Y-78611081D01*
X132545000Y-78275883D01*
X132545000Y-77934117D01*
X132478325Y-77598919D01*
X132347537Y-77283169D01*
X132157663Y-76999002D01*
X131915998Y-76757337D01*
X131631831Y-76567463D01*
X131316081Y-76436675D01*
X130980883Y-76370000D01*
X130639117Y-76370000D01*
X130303919Y-76436675D01*
X129988169Y-76567463D01*
X129704002Y-76757337D01*
X129462337Y-76999002D01*
X129272463Y-77283169D01*
X129141675Y-77598919D01*
X129075000Y-77934117D01*
X129075000Y-78275883D01*
X129141675Y-78611081D01*
X129272463Y-78926831D01*
X129428261Y-79160000D01*
X129393740Y-79160000D01*
X129106842Y-79217068D01*
X128836589Y-79329010D01*
X128593368Y-79491525D01*
X128386525Y-79698368D01*
X128224010Y-79941589D01*
X128112068Y-80211842D01*
X128055000Y-80498740D01*
X126475662Y-80498740D01*
X118870000Y-72893079D01*
X118870000Y-61448740D01*
X119165000Y-61448740D01*
X119165000Y-61741260D01*
X119222068Y-62028158D01*
X119334010Y-62298411D01*
X119496525Y-62541632D01*
X119703368Y-62748475D01*
X119946589Y-62910990D01*
X120216842Y-63022932D01*
X120503740Y-63080000D01*
X120796260Y-63080000D01*
X121083158Y-63022932D01*
X121353411Y-62910990D01*
X121596632Y-62748475D01*
X121803475Y-62541632D01*
X121965990Y-62298411D01*
X122077932Y-62028158D01*
X122135000Y-61741260D01*
X122135000Y-61448740D01*
X128055000Y-61448740D01*
X128055000Y-61741260D01*
X128112068Y-62028158D01*
X128224010Y-62298411D01*
X128386525Y-62541632D01*
X128593368Y-62748475D01*
X128836589Y-62910990D01*
X129106842Y-63022932D01*
X129393740Y-63080000D01*
X129686260Y-63080000D01*
X129973158Y-63022932D01*
X130243411Y-62910990D01*
X130486632Y-62748475D01*
X130693475Y-62541632D01*
X130855990Y-62298411D01*
X130967932Y-62028158D01*
X131025000Y-61741260D01*
X131025000Y-61448740D01*
X130967932Y-61161842D01*
X130855990Y-60891589D01*
X130788110Y-60790000D01*
X130980883Y-60790000D01*
X131316081Y-60723325D01*
X131631831Y-60592537D01*
X131915998Y-60402663D01*
X132157663Y-60160998D01*
X132347537Y-59876831D01*
X132478325Y-59561081D01*
X132545000Y-59225883D01*
X132545000Y-58884117D01*
X132478325Y-58548919D01*
X132347537Y-58233169D01*
X132157663Y-57949002D01*
X131915998Y-57707337D01*
X131631831Y-57517463D01*
X131316081Y-57386675D01*
X130980883Y-57320000D01*
X130639117Y-57320000D01*
X130303919Y-57386675D01*
X129988169Y-57517463D01*
X129704002Y-57707337D01*
X129462337Y-57949002D01*
X129272463Y-58233169D01*
X129141675Y-58548919D01*
X129075000Y-58884117D01*
X129075000Y-59225883D01*
X129141675Y-59561081D01*
X129272463Y-59876831D01*
X129428261Y-60110000D01*
X129393740Y-60110000D01*
X129106842Y-60167068D01*
X128836589Y-60279010D01*
X128593368Y-60441525D01*
X128386525Y-60648368D01*
X128224010Y-60891589D01*
X128112068Y-61161842D01*
X128055000Y-61448740D01*
X122135000Y-61448740D01*
X122077932Y-61161842D01*
X121965990Y-60891589D01*
X121803475Y-60648368D01*
X121596632Y-60441525D01*
X121353411Y-60279010D01*
X121083158Y-60167068D01*
X120796260Y-60110000D01*
X120503740Y-60110000D01*
X120216842Y-60167068D01*
X119946589Y-60279010D01*
X119703368Y-60441525D01*
X119496525Y-60648368D01*
X119334010Y-60891589D01*
X119222068Y-61161842D01*
X119165000Y-61448740D01*
X118870000Y-61448740D01*
X118870000Y-60059936D01*
X123254350Y-60059936D01*
X123494496Y-60447179D01*
X123988397Y-60707802D01*
X124523653Y-60867062D01*
X125079694Y-60918839D01*
X125635152Y-60861142D01*
X126168681Y-60696189D01*
X126634544Y-60447179D01*
X126874690Y-60059936D01*
X125064520Y-58249766D01*
X123254350Y-60059936D01*
X118870000Y-60059936D01*
X118870000Y-58085335D01*
X122215842Y-58085335D01*
X122273539Y-58640793D01*
X122438492Y-59174322D01*
X122687502Y-59640185D01*
X123074745Y-59880331D01*
X124884915Y-58070161D01*
X125244125Y-58070161D01*
X127054295Y-59880331D01*
X127441538Y-59640185D01*
X127702161Y-59146284D01*
X127861421Y-58611028D01*
X127913198Y-58054987D01*
X127855501Y-57499529D01*
X127690548Y-56966000D01*
X127441538Y-56500137D01*
X127054295Y-56259991D01*
X125244125Y-58070161D01*
X124884915Y-58070161D01*
X123074745Y-56259991D01*
X122687502Y-56500137D01*
X122426879Y-56994038D01*
X122267619Y-57529294D01*
X122215842Y-58085335D01*
X118870000Y-58085335D01*
X118870000Y-58078148D01*
X118931831Y-58052537D01*
X119215998Y-57862663D01*
X119457663Y-57620998D01*
X119647537Y-57336831D01*
X119778325Y-57021081D01*
X119845000Y-56685883D01*
X119845000Y-56344117D01*
X119792541Y-56080386D01*
X123254350Y-56080386D01*
X125064520Y-57890556D01*
X126874690Y-56080386D01*
X126634544Y-55693143D01*
X126140643Y-55432520D01*
X125605387Y-55273260D01*
X125049346Y-55221483D01*
X124493888Y-55279180D01*
X123960359Y-55444133D01*
X123494496Y-55693143D01*
X123254350Y-56080386D01*
X119792541Y-56080386D01*
X119778325Y-56008919D01*
X119647537Y-55693169D01*
X119457663Y-55409002D01*
X119215998Y-55167337D01*
X118931831Y-54977463D01*
X118616081Y-54846675D01*
X118280883Y-54780000D01*
X117939117Y-54780000D01*
X117603919Y-54846675D01*
X117288169Y-54977463D01*
X117004002Y-55167337D01*
X116762337Y-55409002D01*
X116572463Y-55693169D01*
X116441675Y-56008919D01*
X116375000Y-56344117D01*
X116375000Y-56685883D01*
X116441675Y-57021081D01*
X116572463Y-57336831D01*
X116762337Y-57620998D01*
X117004002Y-57862663D01*
X117288169Y-58052537D01*
X117350000Y-58078148D01*
X117350000Y-59648547D01*
X117249715Y-59548262D01*
X116818141Y-59259893D01*
X116338601Y-59061261D01*
X115829525Y-58960000D01*
X115310475Y-58960000D01*
X114801399Y-59061261D01*
X114321859Y-59259893D01*
X113890285Y-59548262D01*
X113523262Y-59915285D01*
X113234893Y-60346859D01*
X113036261Y-60826399D01*
X112935000Y-61335475D01*
X111952471Y-61335475D01*
X111917932Y-61161842D01*
X111805990Y-60891589D01*
X111738110Y-60790000D01*
X111930883Y-60790000D01*
X112266081Y-60723325D01*
X112581831Y-60592537D01*
X112865998Y-60402663D01*
X113107663Y-60160998D01*
X113297537Y-59876831D01*
X113428325Y-59561081D01*
X113495000Y-59225883D01*
X113495000Y-58884117D01*
X113428325Y-58548919D01*
X113297537Y-58233169D01*
X113107663Y-57949002D01*
X112865998Y-57707337D01*
X112581831Y-57517463D01*
X112266081Y-57386675D01*
X111930883Y-57320000D01*
X111589117Y-57320000D01*
X111253919Y-57386675D01*
X110938169Y-57517463D01*
X110654002Y-57707337D01*
X110412337Y-57949002D01*
X110222463Y-58233169D01*
X110091675Y-58548919D01*
X110025000Y-58884117D01*
X110025000Y-59225883D01*
X110091675Y-59561081D01*
X110222463Y-59876831D01*
X110378261Y-60110000D01*
X110343740Y-60110000D01*
X110056842Y-60167068D01*
X109786589Y-60279010D01*
X109543368Y-60441525D01*
X109336525Y-60648368D01*
X109174010Y-60891589D01*
X109062068Y-61161842D01*
X109005000Y-61448740D01*
X104800000Y-61448740D01*
X104800000Y-56392807D01*
X108892920Y-56392807D01*
X108892920Y-56631353D01*
X108939458Y-56865316D01*
X109030745Y-57085704D01*
X109163274Y-57284048D01*
X109331952Y-57452726D01*
X109530296Y-57585255D01*
X109750684Y-57676542D01*
X109984647Y-57723080D01*
X110223193Y-57723080D01*
X110457156Y-57676542D01*
X110677544Y-57585255D01*
X110875888Y-57452726D01*
X111044566Y-57284048D01*
X111177095Y-57085704D01*
X111268382Y-56865316D01*
X111314920Y-56631353D01*
X111314920Y-56392807D01*
X111268382Y-56158844D01*
X111177095Y-55938456D01*
X111044566Y-55740112D01*
X110875888Y-55571434D01*
X110677544Y-55438905D01*
X110457156Y-55347618D01*
X110223193Y-55301080D01*
X109984647Y-55301080D01*
X109750684Y-55347618D01*
X109530296Y-55438905D01*
X109331952Y-55571434D01*
X109163274Y-55740112D01*
X109030745Y-55938456D01*
X108939458Y-56158844D01*
X108892920Y-56392807D01*
X104800000Y-56392807D01*
X104800000Y-52180727D01*
X188689000Y-52180727D01*
X188689000Y-52419273D01*
X188735538Y-52653236D01*
X188826825Y-52873624D01*
X188959354Y-53071968D01*
X189128032Y-53240646D01*
X189326376Y-53373175D01*
X189546764Y-53464462D01*
X189780727Y-53511000D01*
X190019273Y-53511000D01*
X190253236Y-53464462D01*
X190473624Y-53373175D01*
X190671968Y-53240646D01*
X190840646Y-53071968D01*
X190973175Y-52873624D01*
X191064462Y-52653236D01*
X191111000Y-52419273D01*
X191111000Y-52180727D01*
X191064462Y-51946764D01*
X190973175Y-51726376D01*
X190840646Y-51528032D01*
X190671968Y-51359354D01*
X190473624Y-51226825D01*
X190253236Y-51135538D01*
X190019273Y-51089000D01*
X189780727Y-51089000D01*
X189546764Y-51135538D01*
X189326376Y-51226825D01*
X189128032Y-51359354D01*
X188959354Y-51528032D01*
X188826825Y-51726376D01*
X188735538Y-51946764D01*
X188689000Y-52180727D01*
X104800000Y-52180727D01*
X104800000Y-52102279D01*
X104838909Y-51705455D01*
X104944780Y-51354792D01*
X105116744Y-51031375D01*
X105348254Y-50747516D01*
X105630486Y-50514035D01*
X105952695Y-50339817D01*
X106302614Y-50231498D01*
X106697443Y-50190000D01*
X190467721Y-50190000D01*
X190864545Y-50228909D01*
%TA.AperFunction,Conductor*%
D23*
G36*
X190864545Y-50228909D02*
G01*
X191215208Y-50334780D01*
X191538625Y-50506744D01*
X191822484Y-50738254D01*
X192055965Y-51020486D01*
X192230183Y-51342695D01*
X192338502Y-51692614D01*
X192380000Y-52087443D01*
X192380001Y-90137711D01*
X192341091Y-90534545D01*
X192235220Y-90885206D01*
X192063257Y-91208623D01*
X191831748Y-91492482D01*
X191549514Y-91725965D01*
X191227304Y-91900184D01*
X190877385Y-92008502D01*
X190482557Y-92050000D01*
X106712279Y-92050000D01*
X106315455Y-92011091D01*
X105964794Y-91905220D01*
X105641377Y-91733257D01*
X105357518Y-91501748D01*
X105124035Y-91219514D01*
X104949816Y-90897304D01*
X104841498Y-90547385D01*
X104800000Y-90152557D01*
X104800000Y-85562927D01*
X108892920Y-85562927D01*
X108892920Y-85801473D01*
X108939458Y-86035436D01*
X109030745Y-86255824D01*
X109163274Y-86454168D01*
X109331952Y-86622846D01*
X109530296Y-86755375D01*
X109750684Y-86846662D01*
X109984647Y-86893200D01*
X110223193Y-86893200D01*
X110457156Y-86846662D01*
X110532110Y-86815615D01*
X123254350Y-86815615D01*
X123494496Y-87202858D01*
X123988397Y-87463481D01*
X124523653Y-87622741D01*
X125079694Y-87674518D01*
X125635152Y-87616821D01*
X126168681Y-87451868D01*
X126634544Y-87202858D01*
X126874690Y-86815615D01*
X125064520Y-85005445D01*
X123254350Y-86815615D01*
X110532110Y-86815615D01*
X110677544Y-86755375D01*
X110875888Y-86622846D01*
X111044566Y-86454168D01*
X111177095Y-86255824D01*
X111268382Y-86035436D01*
X111314920Y-85801473D01*
X111314920Y-85562927D01*
X111268382Y-85328964D01*
X111177095Y-85108576D01*
X111044566Y-84910232D01*
X110975348Y-84841014D01*
X122215842Y-84841014D01*
X122273539Y-85396472D01*
X122438492Y-85930001D01*
X122687502Y-86395864D01*
X123074745Y-86636010D01*
X124884915Y-84825840D01*
X123074745Y-83015670D01*
X122687502Y-83255816D01*
X122426879Y-83749717D01*
X122267619Y-84284973D01*
X122215842Y-84841014D01*
X110975348Y-84841014D01*
X110875888Y-84741554D01*
X110677544Y-84609025D01*
X110457156Y-84517738D01*
X110223193Y-84471200D01*
X109984647Y-84471200D01*
X109750684Y-84517738D01*
X109530296Y-84609025D01*
X109331952Y-84741554D01*
X109163274Y-84910232D01*
X109030745Y-85108576D01*
X108939458Y-85328964D01*
X108892920Y-85562927D01*
X104800000Y-85562927D01*
X104800000Y-80498740D01*
X109005000Y-80498740D01*
X109005000Y-80791260D01*
X109062068Y-81078158D01*
X109174010Y-81348411D01*
X109336525Y-81591632D01*
X109543368Y-81798475D01*
X109786589Y-81960990D01*
X110056842Y-82072932D01*
X110343740Y-82130000D01*
X110636260Y-82130000D01*
X110923158Y-82072932D01*
X111193411Y-81960990D01*
X111436632Y-81798475D01*
X111643475Y-81591632D01*
X111805990Y-81348411D01*
X111917932Y-81078158D01*
X111975000Y-80791260D01*
X111975000Y-80498740D01*
X111952471Y-80385475D01*
X112935000Y-80385475D01*
X112935000Y-80904525D01*
X113036261Y-81413601D01*
X113234893Y-81893141D01*
X113523262Y-82324715D01*
X113890285Y-82691738D01*
X114321859Y-82980107D01*
X114801399Y-83178739D01*
X115310475Y-83280000D01*
X115829525Y-83280000D01*
X116338601Y-83178739D01*
X116818141Y-82980107D01*
X117249715Y-82691738D01*
X117616738Y-82324715D01*
X117905107Y-81893141D01*
X118103739Y-81413601D01*
X118205000Y-80904525D01*
X118205000Y-80498740D01*
X119165000Y-80498740D01*
X119165000Y-80791260D01*
X119222068Y-81078158D01*
X119334010Y-81348411D01*
X119496525Y-81591632D01*
X119703368Y-81798475D01*
X119946589Y-81960990D01*
X120216842Y-82072932D01*
X120503740Y-82130000D01*
X120796260Y-82130000D01*
X121083158Y-82072932D01*
X121353411Y-81960990D01*
X121596632Y-81798475D01*
X121803475Y-81591632D01*
X121965990Y-81348411D01*
X122077932Y-81078158D01*
X122135000Y-80791260D01*
X122135000Y-80498740D01*
X122077932Y-80211842D01*
X121965990Y-79941589D01*
X121803475Y-79698368D01*
X121596632Y-79491525D01*
X121353411Y-79329010D01*
X121083158Y-79217068D01*
X120796260Y-79160000D01*
X120503740Y-79160000D01*
X120216842Y-79217068D01*
X119946589Y-79329010D01*
X119703368Y-79491525D01*
X119496525Y-79698368D01*
X119334010Y-79941589D01*
X119222068Y-80211842D01*
X119165000Y-80498740D01*
X118205000Y-80498740D01*
X118205000Y-80385475D01*
X118103739Y-79876399D01*
X117905107Y-79396859D01*
X117616738Y-78965285D01*
X117249715Y-78598262D01*
X116818141Y-78309893D01*
X116338601Y-78111261D01*
X115829525Y-78010000D01*
X115310475Y-78010000D01*
X114801399Y-78111261D01*
X114321859Y-78309893D01*
X113890285Y-78598262D01*
X113523262Y-78965285D01*
X113234893Y-79396859D01*
X113036261Y-79876399D01*
X112935000Y-80385475D01*
X111952471Y-80385475D01*
X111917932Y-80211842D01*
X111805990Y-79941589D01*
X111738110Y-79840000D01*
X111930883Y-79840000D01*
X112266081Y-79773325D01*
X112581831Y-79642537D01*
X112865998Y-79452663D01*
X113107663Y-79210998D01*
X113297537Y-78926831D01*
X113428325Y-78611081D01*
X113495000Y-78275883D01*
X113495000Y-77934117D01*
X113428325Y-77598919D01*
X113297537Y-77283169D01*
X113107663Y-76999002D01*
X112865998Y-76757337D01*
X112581831Y-76567463D01*
X112266081Y-76436675D01*
X111930883Y-76370000D01*
X111589117Y-76370000D01*
X111253919Y-76436675D01*
X110938169Y-76567463D01*
X110654002Y-76757337D01*
X110412337Y-76999002D01*
X110222463Y-77283169D01*
X110091675Y-77598919D01*
X110025000Y-77934117D01*
X110025000Y-78275883D01*
X110091675Y-78611081D01*
X110222463Y-78926831D01*
X110378261Y-79160000D01*
X110343740Y-79160000D01*
X110056842Y-79217068D01*
X109786589Y-79329010D01*
X109543368Y-79491525D01*
X109336525Y-79698368D01*
X109174010Y-79941589D01*
X109062068Y-80211842D01*
X109005000Y-80498740D01*
X104800000Y-80498740D01*
X104800000Y-61448740D01*
X109005000Y-61448740D01*
X109005000Y-61741260D01*
X109062068Y-62028158D01*
X109174010Y-62298411D01*
X109336525Y-62541632D01*
X109543368Y-62748475D01*
X109786589Y-62910990D01*
X110056842Y-63022932D01*
X110343740Y-63080000D01*
X110636260Y-63080000D01*
X110923158Y-63022932D01*
X111193411Y-62910990D01*
X111436632Y-62748475D01*
X111643475Y-62541632D01*
X111805990Y-62298411D01*
X111917932Y-62028158D01*
X111975000Y-61741260D01*
X111975000Y-61448740D01*
X111952471Y-61335475D01*
X112935000Y-61335475D01*
X112935000Y-61854525D01*
X113036261Y-62363601D01*
X113234893Y-62843141D01*
X113523262Y-63274715D01*
X113890285Y-63641738D01*
X114321859Y-63930107D01*
X114801399Y-64128739D01*
X115310475Y-64230000D01*
X115829525Y-64230000D01*
X116338601Y-64128739D01*
X116818141Y-63930107D01*
X117249715Y-63641738D01*
X117350000Y-63541453D01*
X117350001Y-73170547D01*
X117346324Y-73207880D01*
X117350001Y-73245213D01*
X117360998Y-73356866D01*
X117365375Y-73371294D01*
X117404454Y-73500126D01*
X117475026Y-73632156D01*
X117546201Y-73718882D01*
X117570000Y-73747881D01*
X117598998Y-73771679D01*
X117704072Y-73876753D01*
X117603919Y-73896675D01*
X117288169Y-74027463D01*
X117004002Y-74217337D01*
X116762337Y-74459002D01*
X116572463Y-74743169D01*
X116441675Y-75058919D01*
X116375000Y-75394117D01*
X116375000Y-75735883D01*
X116441675Y-76071081D01*
X116572463Y-76386831D01*
X116762337Y-76670998D01*
X117004002Y-76912663D01*
X117288169Y-77102537D01*
X117603919Y-77233325D01*
X117939117Y-77300000D01*
X118280883Y-77300000D01*
X118616081Y-77233325D01*
X118931831Y-77102537D01*
X119215998Y-76912663D01*
X119457663Y-76670998D01*
X119619580Y-76428671D01*
X125180261Y-81989352D01*
X125049346Y-81977162D01*
X124493888Y-82034859D01*
X123960359Y-82199812D01*
X123494496Y-82448822D01*
X123254350Y-82836065D01*
X125064520Y-84646235D01*
X125078663Y-84632093D01*
X125258268Y-84811698D01*
X125244125Y-84825840D01*
X127054295Y-86636010D01*
X127441538Y-86395864D01*
X127702161Y-85901963D01*
X127861421Y-85366707D01*
X127913198Y-84810666D01*
X127902954Y-84712046D01*
X134894284Y-91703376D01*
X134918078Y-91732369D01*
X134947071Y-91756163D01*
X134947076Y-91756168D01*
X135033802Y-91827342D01*
X135165832Y-91897915D01*
X135309092Y-91941371D01*
X135458078Y-91956045D01*
X135495411Y-91952368D01*
X177468680Y-91952370D01*
X177506002Y-91956046D01*
X177543324Y-91952370D01*
X177543334Y-91952370D01*
X177654987Y-91941373D01*
X177798248Y-91897916D01*
X177821542Y-91885465D01*
X177930278Y-91827344D01*
X178017004Y-91756169D01*
X178017005Y-91756168D01*
X178046002Y-91732371D01*
X178069800Y-91703373D01*
X179249456Y-90523718D01*
X179278449Y-90499924D01*
X179302243Y-90470931D01*
X179302248Y-90470926D01*
X179373422Y-90384200D01*
X179443995Y-90252170D01*
X179487451Y-90108910D01*
X179490656Y-90076368D01*
X179538440Y-90061873D01*
X179589265Y-90077291D01*
X179725940Y-90090752D01*
X179850940Y-90090752D01*
X179987615Y-90077291D01*
X180038440Y-90061873D01*
X180089265Y-90077291D01*
X180225940Y-90090752D01*
X180350940Y-90090752D01*
X180487615Y-90077291D01*
X180538440Y-90061873D01*
X180589265Y-90077291D01*
X180725940Y-90090752D01*
X180850940Y-90090752D01*
X180987615Y-90077291D01*
X181038440Y-90061873D01*
X181089265Y-90077291D01*
X181225940Y-90090752D01*
X181350940Y-90090752D01*
X181487615Y-90077291D01*
X181538440Y-90061873D01*
X181589265Y-90077291D01*
X181725940Y-90090752D01*
X181850940Y-90090752D01*
X181987615Y-90077291D01*
X182119037Y-90037424D01*
X182240157Y-89972684D01*
X182346319Y-89885559D01*
X182433444Y-89779397D01*
X182452867Y-89743060D01*
X184953604Y-89743060D01*
X185041914Y-89850666D01*
X185168912Y-89954891D01*
X185313804Y-90032338D01*
X185471020Y-90080029D01*
X185634520Y-90096132D01*
X186034520Y-90096132D01*
X186198020Y-90080029D01*
X186355236Y-90032338D01*
X186500128Y-89954891D01*
X186602110Y-89871197D01*
X186633335Y-89909245D01*
X186730026Y-89988597D01*
X186840340Y-90047562D01*
X186960038Y-90083872D01*
X187084520Y-90096132D01*
X187198770Y-90093060D01*
X187357520Y-89934310D01*
X187357520Y-89110060D01*
X187611520Y-89110060D01*
X187611520Y-89934310D01*
X187770270Y-90093060D01*
X187884520Y-90096132D01*
X188009002Y-90083872D01*
X188128700Y-90047562D01*
X188239014Y-89988597D01*
X188335705Y-89909245D01*
X188415057Y-89812554D01*
X188474022Y-89702240D01*
X188510332Y-89582542D01*
X188522592Y-89458060D01*
X188519520Y-89268810D01*
X188360770Y-89110060D01*
X187611520Y-89110060D01*
X187357520Y-89110060D01*
X187337520Y-89110060D01*
X187337520Y-88856060D01*
X187357520Y-88856060D01*
X187357520Y-88031810D01*
X187307520Y-87981810D01*
X187307520Y-87542880D01*
X187561520Y-87542880D01*
X187561520Y-88367130D01*
X187611520Y-88417130D01*
X187611520Y-88856060D01*
X188360770Y-88856060D01*
X188519520Y-88697310D01*
X188522592Y-88508060D01*
X188510332Y-88383578D01*
X188474022Y-88263880D01*
X188439594Y-88199470D01*
X188474022Y-88135060D01*
X188510332Y-88015362D01*
X188522592Y-87890880D01*
X188519520Y-87701630D01*
X188360770Y-87542880D01*
X187561520Y-87542880D01*
X187307520Y-87542880D01*
X187287520Y-87542880D01*
X187287520Y-87288880D01*
X187307520Y-87288880D01*
X187307520Y-86464630D01*
X187561520Y-86464630D01*
X187561520Y-87288880D01*
X188360770Y-87288880D01*
X188519520Y-87130130D01*
X188522592Y-86940880D01*
X188510332Y-86816398D01*
X188474022Y-86696700D01*
X188415057Y-86586386D01*
X188335705Y-86489695D01*
X188239014Y-86410343D01*
X188128700Y-86351378D01*
X188009002Y-86315068D01*
X187884520Y-86302808D01*
X187720270Y-86305880D01*
X187561520Y-86464630D01*
X187307520Y-86464630D01*
X187148770Y-86305880D01*
X186984520Y-86302808D01*
X186860038Y-86315068D01*
X186740340Y-86351378D01*
X186630026Y-86410343D01*
X186585871Y-86446580D01*
X186439803Y-86368505D01*
X186277897Y-86319392D01*
X186109520Y-86302808D01*
X185659520Y-86302808D01*
X185491143Y-86319392D01*
X185329237Y-86368505D01*
X185180023Y-86448262D01*
X185049236Y-86555596D01*
X184958453Y-86666215D01*
X184951734Y-86666877D01*
X184808473Y-86710334D01*
X184676444Y-86780906D01*
X184667751Y-86788040D01*
X184591621Y-86788040D01*
X184391662Y-86827814D01*
X184203304Y-86905835D01*
X184033786Y-87019103D01*
X183889623Y-87163266D01*
X183786816Y-87317128D01*
X183786673Y-87315873D01*
X183781264Y-87299230D01*
X183788051Y-87276855D01*
X183801512Y-87140180D01*
X183801512Y-87015180D01*
X183788051Y-86878505D01*
X183772633Y-86827680D01*
X183788051Y-86776855D01*
X183801512Y-86640180D01*
X183801512Y-86515180D01*
X183788051Y-86378505D01*
X183772633Y-86327680D01*
X183788051Y-86276855D01*
X183801512Y-86140180D01*
X183801512Y-86015180D01*
X183788051Y-85878505D01*
X183772633Y-85827680D01*
X183774993Y-85819900D01*
X183931899Y-85819900D01*
X184131858Y-85780126D01*
X184320216Y-85702105D01*
X184489734Y-85588837D01*
X184633897Y-85444674D01*
X184747165Y-85275156D01*
X184825186Y-85086798D01*
X184858309Y-84920277D01*
X184862145Y-84932923D01*
X184941902Y-85082137D01*
X185049236Y-85212924D01*
X185180023Y-85320258D01*
X185329237Y-85400015D01*
X185491143Y-85449128D01*
X185659520Y-85465712D01*
X186109520Y-85465712D01*
X186277897Y-85449128D01*
X186439803Y-85400015D01*
X186585871Y-85321940D01*
X186630026Y-85358177D01*
X186740340Y-85417142D01*
X186860038Y-85453452D01*
X186984520Y-85465712D01*
X187148770Y-85462640D01*
X187307520Y-85303890D01*
X187307520Y-84479640D01*
X187561520Y-84479640D01*
X187561520Y-85303890D01*
X187720270Y-85462640D01*
X187884520Y-85465712D01*
X188009002Y-85453452D01*
X188128700Y-85417142D01*
X188239014Y-85358177D01*
X188335705Y-85278825D01*
X188415057Y-85182134D01*
X188474022Y-85071820D01*
X188510332Y-84952122D01*
X188522592Y-84827640D01*
X188519520Y-84638390D01*
X188360770Y-84479640D01*
X187561520Y-84479640D01*
X187307520Y-84479640D01*
X187287520Y-84479640D01*
X187287520Y-84225640D01*
X187307520Y-84225640D01*
X187307520Y-82902300D01*
X187561520Y-82902300D01*
X187561520Y-84225640D01*
X188360770Y-84225640D01*
X188519520Y-84066890D01*
X188522592Y-83877640D01*
X188510332Y-83753158D01*
X188474022Y-83633460D01*
X188436878Y-83563970D01*
X188474022Y-83494480D01*
X188510332Y-83374782D01*
X188522592Y-83250300D01*
X188519520Y-83061050D01*
X188360770Y-82902300D01*
X187561520Y-82902300D01*
X187307520Y-82902300D01*
X187287520Y-82902300D01*
X187287520Y-82648300D01*
X187307520Y-82648300D01*
X187307520Y-81824050D01*
X187561520Y-81824050D01*
X187561520Y-82648300D01*
X188360770Y-82648300D01*
X188519520Y-82489550D01*
X188522592Y-82300300D01*
X188510332Y-82175818D01*
X188474022Y-82056120D01*
X188415057Y-81945806D01*
X188335705Y-81849115D01*
X188239014Y-81769763D01*
X188128700Y-81710798D01*
X188009002Y-81674488D01*
X187884520Y-81662228D01*
X187720270Y-81665300D01*
X187561520Y-81824050D01*
X187307520Y-81824050D01*
X187148770Y-81665300D01*
X186984520Y-81662228D01*
X186860038Y-81674488D01*
X186740340Y-81710798D01*
X186630026Y-81769763D01*
X186585871Y-81806000D01*
X186439803Y-81727925D01*
X186277897Y-81678812D01*
X186109520Y-81662228D01*
X186050069Y-81662228D01*
X186051317Y-81649560D01*
X186047520Y-81611004D01*
X186047520Y-80854521D01*
X186124635Y-80791235D01*
X186231191Y-80661395D01*
X186310370Y-80513262D01*
X186359128Y-80352528D01*
X186375592Y-80185370D01*
X186375592Y-79747870D01*
X186359128Y-79580712D01*
X186310370Y-79419978D01*
X186231191Y-79271845D01*
X186155094Y-79179120D01*
X186231191Y-79086395D01*
X186310370Y-78938262D01*
X186359128Y-78777528D01*
X186359729Y-78771428D01*
X189023792Y-76107366D01*
X189064953Y-76170441D01*
X189224941Y-76333947D01*
X189413754Y-76463099D01*
X189624135Y-76552934D01*
X189848000Y-76600000D01*
X190373000Y-76600000D01*
X190373000Y-75567000D01*
X190627000Y-75567000D01*
X190627000Y-76600000D01*
X191152000Y-76600000D01*
X191375865Y-76552934D01*
X191586246Y-76463099D01*
X191775059Y-76333947D01*
X191935047Y-76170441D01*
X192060063Y-75978864D01*
X192143964Y-75745810D01*
X192018163Y-75567000D01*
X190627000Y-75567000D01*
X190373000Y-75567000D01*
X190353000Y-75567000D01*
X190353000Y-75313000D01*
X190373000Y-75313000D01*
X190373000Y-74280000D01*
X190627000Y-74280000D01*
X190627000Y-75313000D01*
X192018163Y-75313000D01*
X192143964Y-75134190D01*
X192060063Y-74901136D01*
X191935047Y-74709559D01*
X191775059Y-74546053D01*
X191586246Y-74416901D01*
X191375865Y-74327066D01*
X191152000Y-74280000D01*
X190627000Y-74280000D01*
X190373000Y-74280000D01*
X189848000Y-74280000D01*
X189624135Y-74327066D01*
X189555260Y-74356476D01*
X189555260Y-73482652D01*
X189559057Y-73444099D01*
X189555260Y-73405546D01*
X189555260Y-71224818D01*
X189559057Y-71186262D01*
X189555260Y-71147702D01*
X189555260Y-71147701D01*
X189548371Y-71077754D01*
X189543902Y-71032375D01*
X189499014Y-70884402D01*
X189493718Y-70874494D01*
X189426122Y-70748029D01*
X189328024Y-70628498D01*
X189298071Y-70603916D01*
X187583578Y-68889423D01*
X187615099Y-68857901D01*
X187722896Y-68696572D01*
X187797147Y-68517314D01*
X187835000Y-68327014D01*
X187835000Y-68132986D01*
X187797147Y-67942686D01*
X187722896Y-67763428D01*
X187643435Y-67644507D01*
X187755047Y-67530441D01*
X187880063Y-67338864D01*
X187963964Y-67105810D01*
X188856036Y-67105810D01*
X188939937Y-67338864D01*
X189064953Y-67530441D01*
X189224941Y-67693947D01*
X189413754Y-67823099D01*
X189624135Y-67912934D01*
X189848000Y-67960000D01*
X190373000Y-67960000D01*
X190373000Y-66927000D01*
X190627000Y-66927000D01*
X190627000Y-67960000D01*
X191152000Y-67960000D01*
X191375865Y-67912934D01*
X191586246Y-67823099D01*
X191775059Y-67693947D01*
X191935047Y-67530441D01*
X192060063Y-67338864D01*
X192143964Y-67105810D01*
X192018163Y-66927000D01*
X190627000Y-66927000D01*
X190373000Y-66927000D01*
X188981837Y-66927000D01*
X188856036Y-67105810D01*
X187963964Y-67105810D01*
X187838163Y-66927000D01*
X186447000Y-66927000D01*
X186447000Y-66947000D01*
X186263752Y-66947000D01*
X186254482Y-66944188D01*
X186193000Y-66938133D01*
X186193000Y-66927000D01*
X184801837Y-66927000D01*
X184797790Y-66932752D01*
X184680000Y-66931928D01*
X184555518Y-66944188D01*
X184435820Y-66980498D01*
X184325506Y-67039463D01*
X184254671Y-67097595D01*
X184251620Y-66984110D01*
X184092870Y-66825360D01*
X183268620Y-66825360D01*
X183268620Y-66845360D01*
X183014620Y-66845360D01*
X183014620Y-66825360D01*
X182190370Y-66825360D01*
X182031620Y-66984110D01*
X182028548Y-67098360D01*
X182040808Y-67222842D01*
X182077118Y-67342540D01*
X182136083Y-67452854D01*
X182215435Y-67549545D01*
X182253483Y-67580770D01*
X182169789Y-67682752D01*
X182092342Y-67827644D01*
X182044651Y-67984860D01*
X182028548Y-68148360D01*
X182028548Y-68548360D01*
X182044651Y-68711860D01*
X182092342Y-68869076D01*
X182169789Y-69013968D01*
X182274014Y-69140966D01*
X182401012Y-69245191D01*
X182545904Y-69322638D01*
X182703120Y-69370329D01*
X182866620Y-69386432D01*
X183104891Y-69386432D01*
X183328458Y-69610000D01*
X182419688Y-69610000D01*
X182382365Y-69606324D01*
X182345043Y-69610000D01*
X182345033Y-69610000D01*
X182233380Y-69620997D01*
X182097398Y-69662246D01*
X182090119Y-69664454D01*
X181958089Y-69735026D01*
X181885740Y-69794402D01*
X181842365Y-69829999D01*
X181818567Y-69858997D01*
X179782724Y-71894841D01*
X179753726Y-71918639D01*
X179729928Y-71947637D01*
X179729927Y-71947638D01*
X179658752Y-72034364D01*
X179588180Y-72166394D01*
X179568053Y-72232746D01*
X179544724Y-72309654D01*
X179538338Y-72374494D01*
X179530050Y-72458640D01*
X179533727Y-72495972D01*
X179533726Y-77323968D01*
X179427140Y-77323968D01*
X179263640Y-77340071D01*
X179106424Y-77387762D01*
X178961532Y-77465209D01*
X178834534Y-77569434D01*
X178730309Y-77696432D01*
X178678611Y-77793152D01*
X178658762Y-77727720D01*
X178599797Y-77617406D01*
X178520445Y-77520715D01*
X178423754Y-77441363D01*
X178313440Y-77382398D01*
X178193742Y-77346088D01*
X178069260Y-77333828D01*
X177880010Y-77336900D01*
X177721260Y-77495650D01*
X177721260Y-78294900D01*
X177741260Y-78294900D01*
X177741260Y-78548900D01*
X177721260Y-78548900D01*
X177721260Y-78568900D01*
X177467260Y-78568900D01*
X177467260Y-78548900D01*
X177447260Y-78548900D01*
X177447260Y-78294900D01*
X177467260Y-78294900D01*
X177467260Y-77495650D01*
X177308510Y-77336900D01*
X177188400Y-77334950D01*
X177188400Y-72474019D01*
X177366842Y-72547932D01*
X177653740Y-72605000D01*
X177946260Y-72605000D01*
X178233158Y-72547932D01*
X178503411Y-72435990D01*
X178746632Y-72273475D01*
X178953475Y-72066632D01*
X179115990Y-71823411D01*
X179227932Y-71553158D01*
X179285000Y-71266260D01*
X179285000Y-70973740D01*
X179227932Y-70686842D01*
X179115990Y-70416589D01*
X178953475Y-70173368D01*
X178746632Y-69966525D01*
X178503411Y-69804010D01*
X178233158Y-69692068D01*
X177946260Y-69635000D01*
X177653740Y-69635000D01*
X177366842Y-69692068D01*
X177188400Y-69765981D01*
X177188400Y-69458961D01*
X178302371Y-68344991D01*
X178445522Y-68404286D01*
X178645481Y-68444060D01*
X178849359Y-68444060D01*
X179049318Y-68404286D01*
X179237676Y-68326265D01*
X179407194Y-68212997D01*
X179551357Y-68068834D01*
X179664625Y-67899316D01*
X179742646Y-67710958D01*
X179782420Y-67510999D01*
X179782420Y-67307121D01*
X179742646Y-67107162D01*
X179664625Y-66918804D01*
X179551357Y-66749286D01*
X179407194Y-66605123D01*
X179406376Y-66604576D01*
X179712592Y-66298360D01*
X182028548Y-66298360D01*
X182031620Y-66412610D01*
X182190370Y-66571360D01*
X183014620Y-66571360D01*
X183014620Y-65822110D01*
X183268620Y-65822110D01*
X183268620Y-66571360D01*
X184092870Y-66571360D01*
X184170040Y-66494190D01*
X184676036Y-66494190D01*
X184801837Y-66673000D01*
X186193000Y-66673000D01*
X186193000Y-65640000D01*
X186447000Y-65640000D01*
X186447000Y-66673000D01*
X187838163Y-66673000D01*
X187963964Y-66494190D01*
X188856036Y-66494190D01*
X188981837Y-66673000D01*
X190373000Y-66673000D01*
X190373000Y-65640000D01*
X190627000Y-65640000D01*
X190627000Y-66673000D01*
X192018163Y-66673000D01*
X192143964Y-66494190D01*
X192060063Y-66261136D01*
X191935047Y-66069559D01*
X191775059Y-65906053D01*
X191586246Y-65776901D01*
X191375865Y-65687066D01*
X191152000Y-65640000D01*
X190627000Y-65640000D01*
X190373000Y-65640000D01*
X189848000Y-65640000D01*
X189624135Y-65687066D01*
X189413754Y-65776901D01*
X189224941Y-65906053D01*
X189064953Y-66069559D01*
X188939937Y-66261136D01*
X188856036Y-66494190D01*
X187963964Y-66494190D01*
X187880063Y-66261136D01*
X187755047Y-66069559D01*
X187595059Y-65906053D01*
X187406246Y-65776901D01*
X187195865Y-65687066D01*
X186972000Y-65640000D01*
X186447000Y-65640000D01*
X186193000Y-65640000D01*
X185668000Y-65640000D01*
X185444135Y-65687066D01*
X185233754Y-65776901D01*
X185044941Y-65906053D01*
X184884953Y-66069559D01*
X184759937Y-66261136D01*
X184676036Y-66494190D01*
X184170040Y-66494190D01*
X184251620Y-66412610D01*
X184254692Y-66298360D01*
X184242432Y-66173878D01*
X184206122Y-66054180D01*
X184147157Y-65943866D01*
X184067805Y-65847175D01*
X183971114Y-65767823D01*
X183860800Y-65708858D01*
X183741102Y-65672548D01*
X183616620Y-65660288D01*
X183427370Y-65663360D01*
X183268620Y-65822110D01*
X183014620Y-65822110D01*
X182855870Y-65663360D01*
X182666620Y-65660288D01*
X182542138Y-65672548D01*
X182422440Y-65708858D01*
X182312126Y-65767823D01*
X182215435Y-65847175D01*
X182136083Y-65943866D01*
X182077118Y-66054180D01*
X182040808Y-66173878D01*
X182028548Y-66298360D01*
X179712592Y-66298360D01*
X181001652Y-65009300D01*
X186065938Y-65009300D01*
X186103260Y-65012976D01*
X186140582Y-65009300D01*
X186140593Y-65009300D01*
X186252246Y-64998303D01*
X186395507Y-64954846D01*
X186527536Y-64884274D01*
X186643261Y-64789301D01*
X186667064Y-64760297D01*
X187112097Y-64315264D01*
X187141101Y-64291461D01*
X187231270Y-64181590D01*
X187236074Y-64175737D01*
X187306646Y-64043707D01*
X187332931Y-63957054D01*
X187350103Y-63900446D01*
X187361100Y-63788793D01*
X187361100Y-63788784D01*
X187364776Y-63751461D01*
X187361100Y-63714138D01*
X187361100Y-62678982D01*
X187364776Y-62641659D01*
X187361100Y-62604336D01*
X187361100Y-62604327D01*
X187350103Y-62492674D01*
X187306646Y-62349413D01*
X187236074Y-62217384D01*
X187141101Y-62101659D01*
X187112103Y-62077862D01*
X186632723Y-61598482D01*
X186608921Y-61569479D01*
X186493196Y-61474506D01*
X186469307Y-61461737D01*
X186487145Y-61418671D01*
X186527880Y-61213881D01*
X186527880Y-61005079D01*
X186524823Y-60989708D01*
X186541883Y-60933466D01*
X186552880Y-60821813D01*
X186552880Y-60821804D01*
X186556556Y-60784481D01*
X186552880Y-60747158D01*
X186552880Y-58339005D01*
X186585486Y-58312246D01*
X186689711Y-58185248D01*
X186767158Y-58040356D01*
X186814849Y-57883140D01*
X186830952Y-57719640D01*
X186830952Y-57169640D01*
X186814849Y-57006140D01*
X186767158Y-56848924D01*
X186705651Y-56733854D01*
X186760781Y-56744820D01*
X186964659Y-56744820D01*
X187164618Y-56705046D01*
X187352976Y-56627025D01*
X187522494Y-56513757D01*
X187666657Y-56369594D01*
X187779925Y-56200076D01*
X187857946Y-56011718D01*
X187897720Y-55811759D01*
X187897720Y-55607881D01*
X187857946Y-55407922D01*
X187779925Y-55219564D01*
X187666657Y-55050046D01*
X187522494Y-54905883D01*
X187352976Y-54792615D01*
X187164618Y-54714594D01*
X186964659Y-54674820D01*
X186760781Y-54674820D01*
X186750943Y-54676777D01*
X186782382Y-54617960D01*
X186818692Y-54498262D01*
X186830952Y-54373780D01*
X186827880Y-54184530D01*
X186669130Y-54025780D01*
X185882380Y-54025780D01*
X185882380Y-54045780D01*
X185628380Y-54045780D01*
X185628380Y-54025780D01*
X185608380Y-54025780D01*
X185608380Y-53771780D01*
X185628380Y-53771780D01*
X185628380Y-52947530D01*
X185882380Y-52947530D01*
X185882380Y-53771780D01*
X186669130Y-53771780D01*
X186827880Y-53613030D01*
X186830952Y-53423780D01*
X186818692Y-53299298D01*
X186782382Y-53179600D01*
X186723417Y-53069286D01*
X186644065Y-52972595D01*
X186547374Y-52893243D01*
X186437060Y-52834278D01*
X186317362Y-52797968D01*
X186192880Y-52785708D01*
X186041130Y-52788780D01*
X185882380Y-52947530D01*
X185628380Y-52947530D01*
X185469630Y-52788780D01*
X185317880Y-52785708D01*
X185193398Y-52797968D01*
X185073700Y-52834278D01*
X184963386Y-52893243D01*
X184896810Y-52947880D01*
X184875155Y-52930109D01*
X184727022Y-52850930D01*
X184566288Y-52802172D01*
X184399130Y-52785708D01*
X183961630Y-52785708D01*
X183794472Y-52802172D01*
X183633738Y-52850930D01*
X183485605Y-52930109D01*
X183355765Y-53036665D01*
X183249209Y-53166505D01*
X183170030Y-53314638D01*
X183121272Y-53475372D01*
X183104808Y-53642530D01*
X183104808Y-54155030D01*
X183121272Y-54322188D01*
X183170030Y-54482922D01*
X183249209Y-54631055D01*
X183355765Y-54760895D01*
X183382881Y-54783148D01*
X183382881Y-54797344D01*
X183350274Y-54824104D01*
X183246049Y-54951102D01*
X183168602Y-55095994D01*
X183120911Y-55253210D01*
X183104808Y-55416710D01*
X183104808Y-55966710D01*
X183120911Y-56130210D01*
X183168602Y-56287426D01*
X183246049Y-56432318D01*
X183350274Y-56559316D01*
X183361069Y-56568175D01*
X183350274Y-56577034D01*
X183246049Y-56704032D01*
X183168602Y-56848924D01*
X183120911Y-57006140D01*
X183104808Y-57169640D01*
X183104808Y-57719640D01*
X183120911Y-57883140D01*
X183168602Y-58040356D01*
X183246049Y-58185248D01*
X183350274Y-58312246D01*
X183382881Y-58339006D01*
X183382880Y-58816739D01*
X183338943Y-58860676D01*
X183225675Y-59030194D01*
X183147654Y-59218552D01*
X183107880Y-59418511D01*
X183107880Y-59480648D01*
X176949277Y-65639252D01*
X176928325Y-65533919D01*
X176797537Y-65218169D01*
X176607663Y-64934002D01*
X176365998Y-64692337D01*
X176081831Y-64502463D01*
X175766081Y-64371675D01*
X175430883Y-64305000D01*
X175089117Y-64305000D01*
X174753919Y-64371675D01*
X174438169Y-64502463D01*
X174154002Y-64692337D01*
X173912337Y-64934002D01*
X173722463Y-65218169D01*
X173591675Y-65533919D01*
X173525000Y-65869117D01*
X173525000Y-66210883D01*
X173591675Y-66546081D01*
X173722463Y-66861831D01*
X173912337Y-67145998D01*
X174154002Y-67387663D01*
X174438169Y-67577537D01*
X174753919Y-67708325D01*
X174859252Y-67729277D01*
X174567371Y-68021158D01*
X174538373Y-68044956D01*
X174514575Y-68073954D01*
X174514574Y-68073955D01*
X174443399Y-68160681D01*
X174372827Y-68292711D01*
X174349383Y-68370000D01*
X174334896Y-68417759D01*
X174329371Y-68435972D01*
X174314697Y-68584957D01*
X174318374Y-68622289D01*
X174318374Y-69018912D01*
X173968141Y-68784893D01*
X173488601Y-68586261D01*
X172979525Y-68485000D01*
X172460475Y-68485000D01*
X171951399Y-68586261D01*
X171471859Y-68784893D01*
X171040285Y-69073262D01*
X170673262Y-69440285D01*
X170384893Y-69871859D01*
X170186261Y-70351399D01*
X170085000Y-70860475D01*
X170085000Y-71379525D01*
X170186261Y-71888601D01*
X170384893Y-72368141D01*
X170673262Y-72799715D01*
X171040285Y-73166738D01*
X171471859Y-73455107D01*
X171951399Y-73653739D01*
X172460475Y-73755000D01*
X172979525Y-73755000D01*
X173488601Y-73653739D01*
X173968141Y-73455107D01*
X174318373Y-73221089D01*
X174318372Y-82363022D01*
X174251220Y-82356408D01*
X173801220Y-82356408D01*
X173632843Y-82372992D01*
X173470937Y-82422105D01*
X173324869Y-82500180D01*
X173280714Y-82463943D01*
X173170400Y-82404978D01*
X173050702Y-82368668D01*
X172926220Y-82356408D01*
X172761970Y-82359480D01*
X172603220Y-82518230D01*
X172603220Y-83342480D01*
X172623220Y-83342480D01*
X172623220Y-83596480D01*
X172603220Y-83596480D01*
X172603220Y-83616480D01*
X172349220Y-83616480D01*
X172349220Y-83596480D01*
X171549970Y-83596480D01*
X171470966Y-83675484D01*
X170789962Y-82994480D01*
X171388148Y-82994480D01*
X171391220Y-83183730D01*
X171549970Y-83342480D01*
X172349220Y-83342480D01*
X172349220Y-82518230D01*
X172190470Y-82359480D01*
X172026220Y-82356408D01*
X171901738Y-82368668D01*
X171782040Y-82404978D01*
X171671726Y-82463943D01*
X171575035Y-82543295D01*
X171495683Y-82639986D01*
X171436718Y-82750300D01*
X171400408Y-82869998D01*
X171388148Y-82994480D01*
X170789962Y-82994480D01*
X170523511Y-82728030D01*
X170499708Y-82699026D01*
X170383983Y-82604053D01*
X170251954Y-82533481D01*
X170108693Y-82490024D01*
X169997040Y-82479027D01*
X169997029Y-82479027D01*
X169959707Y-82475351D01*
X169922385Y-82479027D01*
X169348202Y-82479027D01*
X169232753Y-82363578D01*
X169136062Y-82284226D01*
X169025748Y-82225261D01*
X168906050Y-82188951D01*
X168781568Y-82176691D01*
X168657086Y-82188951D01*
X168537388Y-82225261D01*
X168427074Y-82284226D01*
X168376987Y-82325331D01*
X168337039Y-82285382D01*
X168313236Y-82256379D01*
X168197511Y-82161406D01*
X168065482Y-82090834D01*
X167922221Y-82047377D01*
X167840005Y-82039279D01*
X167650946Y-81850220D01*
X167520159Y-81742886D01*
X167370945Y-81663129D01*
X167209039Y-81614016D01*
X167040662Y-81597432D01*
X166872285Y-81614016D01*
X166710379Y-81663129D01*
X166561165Y-81742886D01*
X166430378Y-81850220D01*
X166112180Y-82168418D01*
X166004846Y-82299205D01*
X165925089Y-82448419D01*
X165877011Y-82606912D01*
X165820165Y-82612511D01*
X165700467Y-82648820D01*
X165590152Y-82707784D01*
X165493461Y-82787137D01*
X165379491Y-82905452D01*
X165379491Y-83129958D01*
X165962324Y-83712791D01*
X165976467Y-83698649D01*
X166156072Y-83878254D01*
X166141929Y-83892396D01*
X166156072Y-83906539D01*
X165976467Y-84086144D01*
X165962324Y-84072001D01*
X165397169Y-84637156D01*
X165397169Y-84861663D01*
X165528817Y-84997655D01*
X165625508Y-85077008D01*
X165658101Y-85094429D01*
X165646481Y-85116168D01*
X165610172Y-85235866D01*
X165597911Y-85360348D01*
X165608601Y-85468882D01*
X165504050Y-85500596D01*
X165393736Y-85559560D01*
X165297045Y-85638913D01*
X165165397Y-85774905D01*
X165165397Y-85999412D01*
X165730552Y-86564567D01*
X166313385Y-85981734D01*
X166313385Y-85951869D01*
X166975617Y-85289637D01*
X166961475Y-85275495D01*
X167141080Y-85095890D01*
X167155222Y-85110032D01*
X167169365Y-85095890D01*
X167348970Y-85275495D01*
X167334827Y-85289637D01*
X167348970Y-85303780D01*
X167169365Y-85483385D01*
X167155222Y-85469242D01*
X166413290Y-86211174D01*
X166413290Y-86241039D01*
X165910157Y-86744172D01*
X165924300Y-86758315D01*
X165744695Y-86937920D01*
X165730552Y-86923777D01*
X165147719Y-87506610D01*
X165147719Y-87731116D01*
X165261689Y-87849431D01*
X165358380Y-87928784D01*
X165468695Y-87987748D01*
X165588393Y-88024057D01*
X165645239Y-88029656D01*
X165691549Y-88182320D01*
X164292672Y-88182320D01*
X162872202Y-86761850D01*
X164438406Y-86761850D01*
X164450667Y-86886331D01*
X164486976Y-87006029D01*
X164545940Y-87116344D01*
X164625293Y-87213035D01*
X164743608Y-87327005D01*
X164968114Y-87327005D01*
X165550947Y-86744172D01*
X164985792Y-86179017D01*
X164761285Y-86179017D01*
X164625293Y-86310665D01*
X164545940Y-86407356D01*
X164486976Y-86517670D01*
X164450667Y-86637368D01*
X164438406Y-86761850D01*
X162872202Y-86761850D01*
X162261250Y-86150899D01*
X162261250Y-83874718D01*
X164670178Y-83874718D01*
X164682439Y-83999200D01*
X164718748Y-84118898D01*
X164777712Y-84229212D01*
X164857065Y-84325903D01*
X164993057Y-84457551D01*
X165217564Y-84457551D01*
X165782719Y-83892396D01*
X165199886Y-83309563D01*
X164975380Y-83309563D01*
X164857065Y-83423533D01*
X164777712Y-83520224D01*
X164718748Y-83630539D01*
X164682439Y-83750237D01*
X164670178Y-83874718D01*
X162261250Y-83874718D01*
X162261250Y-70973740D01*
X166155000Y-70973740D01*
X166155000Y-71266260D01*
X166212068Y-71553158D01*
X166324010Y-71823411D01*
X166486525Y-72066632D01*
X166693368Y-72273475D01*
X166936589Y-72435990D01*
X167206842Y-72547932D01*
X167493740Y-72605000D01*
X167786260Y-72605000D01*
X168073158Y-72547932D01*
X168343411Y-72435990D01*
X168586632Y-72273475D01*
X168793475Y-72066632D01*
X168955990Y-71823411D01*
X169067932Y-71553158D01*
X169125000Y-71266260D01*
X169125000Y-70973740D01*
X169067932Y-70686842D01*
X168955990Y-70416589D01*
X168888110Y-70315000D01*
X169080883Y-70315000D01*
X169416081Y-70248325D01*
X169731831Y-70117537D01*
X170015998Y-69927663D01*
X170257663Y-69685998D01*
X170447537Y-69401831D01*
X170578325Y-69086081D01*
X170645000Y-68750883D01*
X170645000Y-68409117D01*
X170578325Y-68073919D01*
X170447537Y-67758169D01*
X170257663Y-67474002D01*
X170015998Y-67232337D01*
X169731831Y-67042463D01*
X169416081Y-66911675D01*
X169080883Y-66845000D01*
X168739117Y-66845000D01*
X168403919Y-66911675D01*
X168088169Y-67042463D01*
X167804002Y-67232337D01*
X167562337Y-67474002D01*
X167372463Y-67758169D01*
X167241675Y-68073919D01*
X167175000Y-68409117D01*
X167175000Y-68750883D01*
X167241675Y-69086081D01*
X167372463Y-69401831D01*
X167528261Y-69635000D01*
X167493740Y-69635000D01*
X167206842Y-69692068D01*
X166936589Y-69804010D01*
X166693368Y-69966525D01*
X166486525Y-70173368D01*
X166324010Y-70416589D01*
X166212068Y-70686842D01*
X166155000Y-70973740D01*
X162261250Y-70973740D01*
X162261250Y-61843583D01*
X162264927Y-61806250D01*
X162250253Y-61657264D01*
X162206796Y-61514003D01*
X162136224Y-61381974D01*
X162065049Y-61295247D01*
X162041251Y-61266249D01*
X162012253Y-61242451D01*
X160829738Y-60059936D01*
X172248410Y-60059936D01*
X172488556Y-60447179D01*
X172982457Y-60707802D01*
X173517713Y-60867062D01*
X174073754Y-60918839D01*
X174629212Y-60861142D01*
X175162741Y-60696189D01*
X175628604Y-60447179D01*
X175868750Y-60059936D01*
X174058580Y-58249766D01*
X172248410Y-60059936D01*
X160829738Y-60059936D01*
X158855137Y-58085335D01*
X171209902Y-58085335D01*
X171267599Y-58640793D01*
X171432552Y-59174322D01*
X171681562Y-59640185D01*
X172068805Y-59880331D01*
X173878975Y-58070161D01*
X174238185Y-58070161D01*
X176048355Y-59880331D01*
X176435598Y-59640185D01*
X176696221Y-59146284D01*
X176855481Y-58611028D01*
X176907258Y-58054987D01*
X176849561Y-57499529D01*
X176684608Y-56966000D01*
X176435598Y-56500137D01*
X176048355Y-56259991D01*
X174238185Y-58070161D01*
X173878975Y-58070161D01*
X172068805Y-56259991D01*
X171681562Y-56500137D01*
X171420939Y-56994038D01*
X171261679Y-57529294D01*
X171209902Y-58085335D01*
X158855137Y-58085335D01*
X157852714Y-57082912D01*
X157878325Y-57021081D01*
X157945000Y-56685883D01*
X157945000Y-56344117D01*
X157892541Y-56080386D01*
X172248410Y-56080386D01*
X174058580Y-57890556D01*
X175868750Y-56080386D01*
X175628604Y-55693143D01*
X175134703Y-55432520D01*
X174599447Y-55273260D01*
X174043406Y-55221483D01*
X173487948Y-55279180D01*
X172954419Y-55444133D01*
X172488556Y-55693143D01*
X172248410Y-56080386D01*
X157892541Y-56080386D01*
X157878325Y-56008919D01*
X157747537Y-55693169D01*
X157557663Y-55409002D01*
X157315998Y-55167337D01*
X157031831Y-54977463D01*
X156716081Y-54846675D01*
X156380883Y-54780000D01*
X156039117Y-54780000D01*
X155703919Y-54846675D01*
X155388169Y-54977463D01*
X155104002Y-55167337D01*
X154862337Y-55409002D01*
X154672463Y-55693169D01*
X154541675Y-56008919D01*
X154475000Y-56344117D01*
X154475000Y-56685883D01*
X154541675Y-57021081D01*
X154672463Y-57336831D01*
X154862337Y-57620998D01*
X155104002Y-57862663D01*
X155388169Y-58052537D01*
X155703919Y-58183325D01*
X156039117Y-58250000D01*
X156380883Y-58250000D01*
X156716081Y-58183325D01*
X156777912Y-58157714D01*
X158730198Y-60110000D01*
X158603740Y-60110000D01*
X158316842Y-60167068D01*
X158046589Y-60279010D01*
X157803368Y-60441525D01*
X157596525Y-60648368D01*
X157434010Y-60891589D01*
X157322068Y-61161842D01*
X157265000Y-61448740D01*
X157265000Y-61741260D01*
X157322068Y-62028158D01*
X157434010Y-62298411D01*
X157596525Y-62541632D01*
X157803368Y-62748475D01*
X158046589Y-62910990D01*
X158316842Y-63022932D01*
X158603740Y-63080000D01*
X158896260Y-63080000D01*
X159183158Y-63022932D01*
X159453411Y-62910990D01*
X159696632Y-62748475D01*
X159903475Y-62541632D01*
X160065990Y-62298411D01*
X160177932Y-62028158D01*
X160235000Y-61741260D01*
X160235000Y-61614802D01*
X160741251Y-62121053D01*
X160741250Y-79021448D01*
X157852714Y-76132912D01*
X157878325Y-76071081D01*
X157945000Y-75735883D01*
X157945000Y-75394117D01*
X157878325Y-75058919D01*
X157747537Y-74743169D01*
X157557663Y-74459002D01*
X157315998Y-74217337D01*
X157031831Y-74027463D01*
X156716081Y-73896675D01*
X156380883Y-73830000D01*
X156039117Y-73830000D01*
X155703919Y-73896675D01*
X155388169Y-74027463D01*
X155104002Y-74217337D01*
X154862337Y-74459002D01*
X154672463Y-74743169D01*
X154541675Y-75058919D01*
X154475000Y-75394117D01*
X154475000Y-75735883D01*
X154541675Y-76071081D01*
X154672463Y-76386831D01*
X154862337Y-76670998D01*
X155104002Y-76912663D01*
X155388169Y-77102537D01*
X155703919Y-77233325D01*
X156039117Y-77300000D01*
X156380883Y-77300000D01*
X156716081Y-77233325D01*
X156777912Y-77207714D01*
X158730198Y-79160000D01*
X158603740Y-79160000D01*
X158316842Y-79217068D01*
X158046589Y-79329010D01*
X157803368Y-79491525D01*
X157596525Y-79698368D01*
X157434010Y-79941589D01*
X157322068Y-80211842D01*
X157265000Y-80498740D01*
X157265000Y-80791260D01*
X157322068Y-81078158D01*
X157434010Y-81348411D01*
X157596525Y-81591632D01*
X157803368Y-81798475D01*
X158046589Y-81960990D01*
X158316842Y-82072932D01*
X158603740Y-82130000D01*
X158896260Y-82130000D01*
X159183158Y-82072932D01*
X159453411Y-81960990D01*
X159696632Y-81798475D01*
X159903475Y-81591632D01*
X160065990Y-81348411D01*
X160177932Y-81078158D01*
X160235000Y-80791260D01*
X160235000Y-80664802D01*
X160291241Y-80721043D01*
X160291240Y-86614777D01*
X160287564Y-86652100D01*
X160291240Y-86689422D01*
X160291240Y-86689432D01*
X160302237Y-86801085D01*
X160342154Y-86932676D01*
X160345694Y-86944346D01*
X160416266Y-87076376D01*
X160449067Y-87116344D01*
X160511239Y-87192101D01*
X160540243Y-87215904D01*
X162406678Y-89082340D01*
X154222433Y-89082340D01*
X145638832Y-80498740D01*
X147105000Y-80498740D01*
X147105000Y-80791260D01*
X147162068Y-81078158D01*
X147274010Y-81348411D01*
X147436525Y-81591632D01*
X147643368Y-81798475D01*
X147886589Y-81960990D01*
X148156842Y-82072932D01*
X148443740Y-82130000D01*
X148736260Y-82130000D01*
X149023158Y-82072932D01*
X149293411Y-81960990D01*
X149536632Y-81798475D01*
X149743475Y-81591632D01*
X149905990Y-81348411D01*
X150017932Y-81078158D01*
X150075000Y-80791260D01*
X150075000Y-80498740D01*
X150052471Y-80385475D01*
X151035000Y-80385475D01*
X151035000Y-80904525D01*
X151136261Y-81413601D01*
X151334893Y-81893141D01*
X151623262Y-82324715D01*
X151990285Y-82691738D01*
X152421859Y-82980107D01*
X152901399Y-83178739D01*
X153410475Y-83280000D01*
X153929525Y-83280000D01*
X154438601Y-83178739D01*
X154918141Y-82980107D01*
X155349715Y-82691738D01*
X155716738Y-82324715D01*
X156005107Y-81893141D01*
X156203739Y-81413601D01*
X156305000Y-80904525D01*
X156305000Y-80385475D01*
X156203739Y-79876399D01*
X156005107Y-79396859D01*
X155716738Y-78965285D01*
X155349715Y-78598262D01*
X154918141Y-78309893D01*
X154438601Y-78111261D01*
X153929525Y-78010000D01*
X153410475Y-78010000D01*
X152901399Y-78111261D01*
X152421859Y-78309893D01*
X151990285Y-78598262D01*
X151623262Y-78965285D01*
X151334893Y-79396859D01*
X151136261Y-79876399D01*
X151035000Y-80385475D01*
X150052471Y-80385475D01*
X150017932Y-80211842D01*
X149905990Y-79941589D01*
X149838110Y-79840000D01*
X150030883Y-79840000D01*
X150366081Y-79773325D01*
X150681831Y-79642537D01*
X150965998Y-79452663D01*
X151207663Y-79210998D01*
X151397537Y-78926831D01*
X151528325Y-78611081D01*
X151595000Y-78275883D01*
X151595000Y-77934117D01*
X151528325Y-77598919D01*
X151397537Y-77283169D01*
X151207663Y-76999002D01*
X150965998Y-76757337D01*
X150681831Y-76567463D01*
X150366081Y-76436675D01*
X150030883Y-76370000D01*
X149689117Y-76370000D01*
X149353919Y-76436675D01*
X149038169Y-76567463D01*
X148754002Y-76757337D01*
X148512337Y-76999002D01*
X148322463Y-77283169D01*
X148191675Y-77598919D01*
X148125000Y-77934117D01*
X148125000Y-78275883D01*
X148191675Y-78611081D01*
X148322463Y-78926831D01*
X148478261Y-79160000D01*
X148443740Y-79160000D01*
X148156842Y-79217068D01*
X147886589Y-79329010D01*
X147643368Y-79491525D01*
X147436525Y-79698368D01*
X147274010Y-79941589D01*
X147162068Y-80211842D01*
X147105000Y-80498740D01*
X145638832Y-80498740D01*
X137920000Y-72779909D01*
X137920000Y-61448740D01*
X138215000Y-61448740D01*
X138215000Y-61741260D01*
X138272068Y-62028158D01*
X138384010Y-62298411D01*
X138546525Y-62541632D01*
X138753368Y-62748475D01*
X138996589Y-62910990D01*
X139266842Y-63022932D01*
X139553740Y-63080000D01*
X139846260Y-63080000D01*
X140133158Y-63022932D01*
X140403411Y-62910990D01*
X140646632Y-62748475D01*
X140853475Y-62541632D01*
X141015990Y-62298411D01*
X141127932Y-62028158D01*
X141185000Y-61741260D01*
X141185000Y-61448740D01*
X147105000Y-61448740D01*
X147105000Y-61741260D01*
X147162068Y-62028158D01*
X147274010Y-62298411D01*
X147436525Y-62541632D01*
X147643368Y-62748475D01*
X147886589Y-62910990D01*
X148156842Y-63022932D01*
X148443740Y-63080000D01*
X148736260Y-63080000D01*
X149023158Y-63022932D01*
X149293411Y-62910990D01*
X149536632Y-62748475D01*
X149743475Y-62541632D01*
X149905990Y-62298411D01*
X150017932Y-62028158D01*
X150075000Y-61741260D01*
X150075000Y-61448740D01*
X150052471Y-61335475D01*
X151035000Y-61335475D01*
X151035000Y-61854525D01*
X151136261Y-62363601D01*
X151334893Y-62843141D01*
X151623262Y-63274715D01*
X151990285Y-63641738D01*
X152421859Y-63930107D01*
X152901399Y-64128739D01*
X153410475Y-64230000D01*
X153929525Y-64230000D01*
X154438601Y-64128739D01*
X154918141Y-63930107D01*
X155349715Y-63641738D01*
X155716738Y-63274715D01*
X156005107Y-62843141D01*
X156203739Y-62363601D01*
X156305000Y-61854525D01*
X156305000Y-61335475D01*
X156203739Y-60826399D01*
X156005107Y-60346859D01*
X155716738Y-59915285D01*
X155349715Y-59548262D01*
X154918141Y-59259893D01*
X154438601Y-59061261D01*
X153929525Y-58960000D01*
X153410475Y-58960000D01*
X152901399Y-59061261D01*
X152421859Y-59259893D01*
X151990285Y-59548262D01*
X151623262Y-59915285D01*
X151334893Y-60346859D01*
X151136261Y-60826399D01*
X151035000Y-61335475D01*
X150052471Y-61335475D01*
X150017932Y-61161842D01*
X149905990Y-60891589D01*
X149838110Y-60790000D01*
X150030883Y-60790000D01*
X150366081Y-60723325D01*
X150681831Y-60592537D01*
X150965998Y-60402663D01*
X151207663Y-60160998D01*
X151397537Y-59876831D01*
X151528325Y-59561081D01*
X151595000Y-59225883D01*
X151595000Y-58884117D01*
X151528325Y-58548919D01*
X151397537Y-58233169D01*
X151207663Y-57949002D01*
X150965998Y-57707337D01*
X150681831Y-57517463D01*
X150366081Y-57386675D01*
X150030883Y-57320000D01*
X149689117Y-57320000D01*
X149353919Y-57386675D01*
X149038169Y-57517463D01*
X148754002Y-57707337D01*
X148512337Y-57949002D01*
X148322463Y-58233169D01*
X148191675Y-58548919D01*
X148125000Y-58884117D01*
X148125000Y-59225883D01*
X148191675Y-59561081D01*
X148322463Y-59876831D01*
X148478261Y-60110000D01*
X148443740Y-60110000D01*
X148156842Y-60167068D01*
X147886589Y-60279010D01*
X147643368Y-60441525D01*
X147436525Y-60648368D01*
X147274010Y-60891589D01*
X147162068Y-61161842D01*
X147105000Y-61448740D01*
X141185000Y-61448740D01*
X141127932Y-61161842D01*
X141015990Y-60891589D01*
X140853475Y-60648368D01*
X140646632Y-60441525D01*
X140403411Y-60279010D01*
X140133158Y-60167068D01*
X139846260Y-60110000D01*
X139553740Y-60110000D01*
X139266842Y-60167068D01*
X138996589Y-60279010D01*
X138753368Y-60441525D01*
X138546525Y-60648368D01*
X138384010Y-60891589D01*
X138272068Y-61161842D01*
X138215000Y-61448740D01*
X137920000Y-61448740D01*
X137920000Y-58078148D01*
X137981831Y-58052537D01*
X138265998Y-57862663D01*
X138507663Y-57620998D01*
X138697537Y-57336831D01*
X138828325Y-57021081D01*
X138895000Y-56685883D01*
X138895000Y-56344117D01*
X138828325Y-56008919D01*
X138697537Y-55693169D01*
X138507663Y-55409002D01*
X138265998Y-55167337D01*
X137981831Y-54977463D01*
X137666081Y-54846675D01*
X137330883Y-54780000D01*
X136989117Y-54780000D01*
X136653919Y-54846675D01*
X136338169Y-54977463D01*
X136054002Y-55167337D01*
X135812337Y-55409002D01*
X135622463Y-55693169D01*
X135491675Y-56008919D01*
X135425000Y-56344117D01*
X135425000Y-56685883D01*
X135491675Y-57021081D01*
X135622463Y-57336831D01*
X135812337Y-57620998D01*
X136054002Y-57862663D01*
X136338169Y-58052537D01*
X136400001Y-58078149D01*
X136400001Y-59648548D01*
X136299715Y-59548262D01*
X135868141Y-59259893D01*
X135388601Y-59061261D01*
X134879525Y-58960000D01*
X134360475Y-58960000D01*
X133851399Y-59061261D01*
X133371859Y-59259893D01*
X132940285Y-59548262D01*
X132573262Y-59915285D01*
X132284893Y-60346859D01*
X132086261Y-60826399D01*
X131985000Y-61335475D01*
X131985000Y-61854525D01*
X132086261Y-62363601D01*
X132284893Y-62843141D01*
X132573262Y-63274715D01*
X132940285Y-63641738D01*
X133371859Y-63930107D01*
X133851399Y-64128739D01*
X134360475Y-64230000D01*
X134879525Y-64230000D01*
X135388601Y-64128739D01*
X135868141Y-63930107D01*
X136299715Y-63641738D01*
X136400001Y-63541452D01*
X136400000Y-73057388D01*
X136396324Y-73094710D01*
X136400000Y-73132032D01*
X136400000Y-73132042D01*
X136410997Y-73243695D01*
X136448138Y-73366133D01*
X136454454Y-73386956D01*
X136525026Y-73518986D01*
X136550920Y-73550537D01*
X136619999Y-73634711D01*
X136649003Y-73658514D01*
X136848466Y-73857977D01*
X136653919Y-73896675D01*
X136338169Y-74027463D01*
X136054002Y-74217337D01*
X135812337Y-74459002D01*
X135622463Y-74743169D01*
X135491675Y-75058919D01*
X135425000Y-75394117D01*
X135425000Y-75735883D01*
X135491675Y-76071081D01*
X135622463Y-76386831D01*
X135812337Y-76670998D01*
X136054002Y-76912663D01*
X136338169Y-77102537D01*
X136653919Y-77233325D01*
X136989117Y-77300000D01*
X137330883Y-77300000D01*
X137666081Y-77233325D01*
X137981831Y-77102537D01*
X138265998Y-76912663D01*
X138507663Y-76670998D01*
X138697537Y-76386831D01*
X138710241Y-76356162D01*
X152336438Y-89982360D01*
X135959283Y-89982360D01*
X126475662Y-80498740D01*
X128055000Y-80498740D01*
X128055000Y-80791260D01*
X128112068Y-81078158D01*
X128224010Y-81348411D01*
X128386525Y-81591632D01*
X128593368Y-81798475D01*
X128836589Y-81960990D01*
X129106842Y-82072932D01*
X129393740Y-82130000D01*
X129686260Y-82130000D01*
X129973158Y-82072932D01*
X130243411Y-81960990D01*
X130486632Y-81798475D01*
X130693475Y-81591632D01*
X130855990Y-81348411D01*
X130967932Y-81078158D01*
X131025000Y-80791260D01*
X131025000Y-80498740D01*
X131002471Y-80385475D01*
X131985000Y-80385475D01*
X131985000Y-80904525D01*
X132086261Y-81413601D01*
X132284893Y-81893141D01*
X132573262Y-82324715D01*
X132940285Y-82691738D01*
X133371859Y-82980107D01*
X133851399Y-83178739D01*
X134360475Y-83280000D01*
X134879525Y-83280000D01*
X135388601Y-83178739D01*
X135868141Y-82980107D01*
X136299715Y-82691738D01*
X136666738Y-82324715D01*
X136955107Y-81893141D01*
X137153739Y-81413601D01*
X137255000Y-80904525D01*
X137255000Y-80498740D01*
X138215000Y-80498740D01*
X138215000Y-80791260D01*
X138272068Y-81078158D01*
X138384010Y-81348411D01*
X138546525Y-81591632D01*
X138753368Y-81798475D01*
X138996589Y-81960990D01*
X139266842Y-82072932D01*
X139553740Y-82130000D01*
X139846260Y-82130000D01*
X140133158Y-82072932D01*
X140403411Y-81960990D01*
X140646632Y-81798475D01*
X140853475Y-81591632D01*
X141015990Y-81348411D01*
X141127932Y-81078158D01*
X141185000Y-80791260D01*
X141185000Y-80498740D01*
X141127932Y-80211842D01*
X141015990Y-79941589D01*
X140853475Y-79698368D01*
X140646632Y-79491525D01*
X140403411Y-79329010D01*
X140133158Y-79217068D01*
X139846260Y-79160000D01*
X139553740Y-79160000D01*
X139266842Y-79217068D01*
X138996589Y-79329010D01*
X138753368Y-79491525D01*
X138546525Y-79698368D01*
X138384010Y-79941589D01*
X138272068Y-80211842D01*
X138215000Y-80498740D01*
X137255000Y-80498740D01*
X137255000Y-80385475D01*
X137153739Y-79876399D01*
X136955107Y-79396859D01*
X136666738Y-78965285D01*
X136299715Y-78598262D01*
X135868141Y-78309893D01*
X135388601Y-78111261D01*
X134879525Y-78010000D01*
X134360475Y-78010000D01*
X133851399Y-78111261D01*
X133371859Y-78309893D01*
X132940285Y-78598262D01*
X132573262Y-78965285D01*
X132284893Y-79396859D01*
X132086261Y-79876399D01*
X131985000Y-80385475D01*
X131002471Y-80385475D01*
X130967932Y-80211842D01*
X130855990Y-79941589D01*
X130788110Y-79840000D01*
X130980883Y-79840000D01*
X131316081Y-79773325D01*
X131631831Y-79642537D01*
X131915998Y-79452663D01*
X132157663Y-79210998D01*
X132347537Y-78926831D01*
X132478325Y-78611081D01*
X132545000Y-78275883D01*
X132545000Y-77934117D01*
X132478325Y-77598919D01*
X132347537Y-77283169D01*
X132157663Y-76999002D01*
X131915998Y-76757337D01*
X131631831Y-76567463D01*
X131316081Y-76436675D01*
X130980883Y-76370000D01*
X130639117Y-76370000D01*
X130303919Y-76436675D01*
X129988169Y-76567463D01*
X129704002Y-76757337D01*
X129462337Y-76999002D01*
X129272463Y-77283169D01*
X129141675Y-77598919D01*
X129075000Y-77934117D01*
X129075000Y-78275883D01*
X129141675Y-78611081D01*
X129272463Y-78926831D01*
X129428261Y-79160000D01*
X129393740Y-79160000D01*
X129106842Y-79217068D01*
X128836589Y-79329010D01*
X128593368Y-79491525D01*
X128386525Y-79698368D01*
X128224010Y-79941589D01*
X128112068Y-80211842D01*
X128055000Y-80498740D01*
X126475662Y-80498740D01*
X118870000Y-72893079D01*
X118870000Y-61448740D01*
X119165000Y-61448740D01*
X119165000Y-61741260D01*
X119222068Y-62028158D01*
X119334010Y-62298411D01*
X119496525Y-62541632D01*
X119703368Y-62748475D01*
X119946589Y-62910990D01*
X120216842Y-63022932D01*
X120503740Y-63080000D01*
X120796260Y-63080000D01*
X121083158Y-63022932D01*
X121353411Y-62910990D01*
X121596632Y-62748475D01*
X121803475Y-62541632D01*
X121965990Y-62298411D01*
X122077932Y-62028158D01*
X122135000Y-61741260D01*
X122135000Y-61448740D01*
X128055000Y-61448740D01*
X128055000Y-61741260D01*
X128112068Y-62028158D01*
X128224010Y-62298411D01*
X128386525Y-62541632D01*
X128593368Y-62748475D01*
X128836589Y-62910990D01*
X129106842Y-63022932D01*
X129393740Y-63080000D01*
X129686260Y-63080000D01*
X129973158Y-63022932D01*
X130243411Y-62910990D01*
X130486632Y-62748475D01*
X130693475Y-62541632D01*
X130855990Y-62298411D01*
X130967932Y-62028158D01*
X131025000Y-61741260D01*
X131025000Y-61448740D01*
X130967932Y-61161842D01*
X130855990Y-60891589D01*
X130788110Y-60790000D01*
X130980883Y-60790000D01*
X131316081Y-60723325D01*
X131631831Y-60592537D01*
X131915998Y-60402663D01*
X132157663Y-60160998D01*
X132347537Y-59876831D01*
X132478325Y-59561081D01*
X132545000Y-59225883D01*
X132545000Y-58884117D01*
X132478325Y-58548919D01*
X132347537Y-58233169D01*
X132157663Y-57949002D01*
X131915998Y-57707337D01*
X131631831Y-57517463D01*
X131316081Y-57386675D01*
X130980883Y-57320000D01*
X130639117Y-57320000D01*
X130303919Y-57386675D01*
X129988169Y-57517463D01*
X129704002Y-57707337D01*
X129462337Y-57949002D01*
X129272463Y-58233169D01*
X129141675Y-58548919D01*
X129075000Y-58884117D01*
X129075000Y-59225883D01*
X129141675Y-59561081D01*
X129272463Y-59876831D01*
X129428261Y-60110000D01*
X129393740Y-60110000D01*
X129106842Y-60167068D01*
X128836589Y-60279010D01*
X128593368Y-60441525D01*
X128386525Y-60648368D01*
X128224010Y-60891589D01*
X128112068Y-61161842D01*
X128055000Y-61448740D01*
X122135000Y-61448740D01*
X122077932Y-61161842D01*
X121965990Y-60891589D01*
X121803475Y-60648368D01*
X121596632Y-60441525D01*
X121353411Y-60279010D01*
X121083158Y-60167068D01*
X120796260Y-60110000D01*
X120503740Y-60110000D01*
X120216842Y-60167068D01*
X119946589Y-60279010D01*
X119703368Y-60441525D01*
X119496525Y-60648368D01*
X119334010Y-60891589D01*
X119222068Y-61161842D01*
X119165000Y-61448740D01*
X118870000Y-61448740D01*
X118870000Y-60059936D01*
X123254350Y-60059936D01*
X123494496Y-60447179D01*
X123988397Y-60707802D01*
X124523653Y-60867062D01*
X125079694Y-60918839D01*
X125635152Y-60861142D01*
X126168681Y-60696189D01*
X126634544Y-60447179D01*
X126874690Y-60059936D01*
X125064520Y-58249766D01*
X123254350Y-60059936D01*
X118870000Y-60059936D01*
X118870000Y-58085335D01*
X122215842Y-58085335D01*
X122273539Y-58640793D01*
X122438492Y-59174322D01*
X122687502Y-59640185D01*
X123074745Y-59880331D01*
X124884915Y-58070161D01*
X125244125Y-58070161D01*
X127054295Y-59880331D01*
X127441538Y-59640185D01*
X127702161Y-59146284D01*
X127861421Y-58611028D01*
X127913198Y-58054987D01*
X127855501Y-57499529D01*
X127690548Y-56966000D01*
X127441538Y-56500137D01*
X127054295Y-56259991D01*
X125244125Y-58070161D01*
X124884915Y-58070161D01*
X123074745Y-56259991D01*
X122687502Y-56500137D01*
X122426879Y-56994038D01*
X122267619Y-57529294D01*
X122215842Y-58085335D01*
X118870000Y-58085335D01*
X118870000Y-58078148D01*
X118931831Y-58052537D01*
X119215998Y-57862663D01*
X119457663Y-57620998D01*
X119647537Y-57336831D01*
X119778325Y-57021081D01*
X119845000Y-56685883D01*
X119845000Y-56344117D01*
X119792541Y-56080386D01*
X123254350Y-56080386D01*
X125064520Y-57890556D01*
X126874690Y-56080386D01*
X126634544Y-55693143D01*
X126140643Y-55432520D01*
X125605387Y-55273260D01*
X125049346Y-55221483D01*
X124493888Y-55279180D01*
X123960359Y-55444133D01*
X123494496Y-55693143D01*
X123254350Y-56080386D01*
X119792541Y-56080386D01*
X119778325Y-56008919D01*
X119647537Y-55693169D01*
X119457663Y-55409002D01*
X119215998Y-55167337D01*
X118931831Y-54977463D01*
X118616081Y-54846675D01*
X118280883Y-54780000D01*
X117939117Y-54780000D01*
X117603919Y-54846675D01*
X117288169Y-54977463D01*
X117004002Y-55167337D01*
X116762337Y-55409002D01*
X116572463Y-55693169D01*
X116441675Y-56008919D01*
X116375000Y-56344117D01*
X116375000Y-56685883D01*
X116441675Y-57021081D01*
X116572463Y-57336831D01*
X116762337Y-57620998D01*
X117004002Y-57862663D01*
X117288169Y-58052537D01*
X117350000Y-58078148D01*
X117350000Y-59648547D01*
X117249715Y-59548262D01*
X116818141Y-59259893D01*
X116338601Y-59061261D01*
X115829525Y-58960000D01*
X115310475Y-58960000D01*
X114801399Y-59061261D01*
X114321859Y-59259893D01*
X113890285Y-59548262D01*
X113523262Y-59915285D01*
X113234893Y-60346859D01*
X113036261Y-60826399D01*
X112935000Y-61335475D01*
X111952471Y-61335475D01*
X111917932Y-61161842D01*
X111805990Y-60891589D01*
X111738110Y-60790000D01*
X111930883Y-60790000D01*
X112266081Y-60723325D01*
X112581831Y-60592537D01*
X112865998Y-60402663D01*
X113107663Y-60160998D01*
X113297537Y-59876831D01*
X113428325Y-59561081D01*
X113495000Y-59225883D01*
X113495000Y-58884117D01*
X113428325Y-58548919D01*
X113297537Y-58233169D01*
X113107663Y-57949002D01*
X112865998Y-57707337D01*
X112581831Y-57517463D01*
X112266081Y-57386675D01*
X111930883Y-57320000D01*
X111589117Y-57320000D01*
X111253919Y-57386675D01*
X110938169Y-57517463D01*
X110654002Y-57707337D01*
X110412337Y-57949002D01*
X110222463Y-58233169D01*
X110091675Y-58548919D01*
X110025000Y-58884117D01*
X110025000Y-59225883D01*
X110091675Y-59561081D01*
X110222463Y-59876831D01*
X110378261Y-60110000D01*
X110343740Y-60110000D01*
X110056842Y-60167068D01*
X109786589Y-60279010D01*
X109543368Y-60441525D01*
X109336525Y-60648368D01*
X109174010Y-60891589D01*
X109062068Y-61161842D01*
X109005000Y-61448740D01*
X104800000Y-61448740D01*
X104800000Y-56392807D01*
X108892920Y-56392807D01*
X108892920Y-56631353D01*
X108939458Y-56865316D01*
X109030745Y-57085704D01*
X109163274Y-57284048D01*
X109331952Y-57452726D01*
X109530296Y-57585255D01*
X109750684Y-57676542D01*
X109984647Y-57723080D01*
X110223193Y-57723080D01*
X110457156Y-57676542D01*
X110677544Y-57585255D01*
X110875888Y-57452726D01*
X111044566Y-57284048D01*
X111177095Y-57085704D01*
X111268382Y-56865316D01*
X111314920Y-56631353D01*
X111314920Y-56392807D01*
X111268382Y-56158844D01*
X111177095Y-55938456D01*
X111044566Y-55740112D01*
X110875888Y-55571434D01*
X110677544Y-55438905D01*
X110457156Y-55347618D01*
X110223193Y-55301080D01*
X109984647Y-55301080D01*
X109750684Y-55347618D01*
X109530296Y-55438905D01*
X109331952Y-55571434D01*
X109163274Y-55740112D01*
X109030745Y-55938456D01*
X108939458Y-56158844D01*
X108892920Y-56392807D01*
X104800000Y-56392807D01*
X104800000Y-52180727D01*
X188689000Y-52180727D01*
X188689000Y-52419273D01*
X188735538Y-52653236D01*
X188826825Y-52873624D01*
X188959354Y-53071968D01*
X189128032Y-53240646D01*
X189326376Y-53373175D01*
X189546764Y-53464462D01*
X189780727Y-53511000D01*
X190019273Y-53511000D01*
X190253236Y-53464462D01*
X190473624Y-53373175D01*
X190671968Y-53240646D01*
X190840646Y-53071968D01*
X190973175Y-52873624D01*
X191064462Y-52653236D01*
X191111000Y-52419273D01*
X191111000Y-52180727D01*
X191064462Y-51946764D01*
X190973175Y-51726376D01*
X190840646Y-51528032D01*
X190671968Y-51359354D01*
X190473624Y-51226825D01*
X190253236Y-51135538D01*
X190019273Y-51089000D01*
X189780727Y-51089000D01*
X189546764Y-51135538D01*
X189326376Y-51226825D01*
X189128032Y-51359354D01*
X188959354Y-51528032D01*
X188826825Y-51726376D01*
X188735538Y-51946764D01*
X188689000Y-52180727D01*
X104800000Y-52180727D01*
X104800000Y-52102279D01*
X104838909Y-51705455D01*
X104944780Y-51354792D01*
X105116744Y-51031375D01*
X105348254Y-50747516D01*
X105630486Y-50514035D01*
X105952695Y-50339817D01*
X106302614Y-50231498D01*
X106697443Y-50190000D01*
X190467721Y-50190000D01*
X190864545Y-50228909D01*
G37*
%TD.AperFunction*%
D22*
X171403260Y-89294970D02*
X171400188Y-89484220D01*
X171404928Y-89532350D01*
X171084731Y-89532350D01*
X171480860Y-89136222D01*
X171562008Y-89136222D01*
X171403260Y-89294970D01*
%TA.AperFunction,Conductor*%
D23*
G36*
X171403260Y-89294970D02*
G01*
X171400188Y-89484220D01*
X171404928Y-89532350D01*
X171084731Y-89532350D01*
X171480860Y-89136222D01*
X171562008Y-89136222D01*
X171403260Y-89294970D01*
G37*
%TD.AperFunction*%
D22*
X172615260Y-88882220D02*
X172635260Y-88882220D01*
X172635260Y-89136220D01*
X172615260Y-89136220D01*
X172615260Y-89156220D01*
X172361260Y-89156220D01*
X172361260Y-89136220D01*
X172341260Y-89136220D01*
X172341260Y-88882220D01*
X172361260Y-88882220D01*
X172361260Y-88862220D01*
X172615260Y-88862220D01*
X172615260Y-88882220D01*
%TA.AperFunction,Conductor*%
D23*
G36*
X172615260Y-88882220D02*
G01*
X172635260Y-88882220D01*
X172635260Y-89136220D01*
X172615260Y-89136220D01*
X172615260Y-89156220D01*
X172361260Y-89156220D01*
X172361260Y-89136220D01*
X172341260Y-89136220D01*
X172341260Y-88882220D01*
X172361260Y-88882220D01*
X172361260Y-88862220D01*
X172615260Y-88862220D01*
X172615260Y-88882220D01*
G37*
%TD.AperFunction*%
D22*
X179415440Y-85450680D02*
X179435440Y-85450680D01*
X179435440Y-85704680D01*
X179415440Y-85704680D01*
X179415440Y-85724680D01*
X179161440Y-85724680D01*
X179161440Y-85704680D01*
X179141440Y-85704680D01*
X179141440Y-85450680D01*
X179161440Y-85450680D01*
X179161440Y-85430680D01*
X179415440Y-85430680D01*
X179415440Y-85450680D01*
%TA.AperFunction,Conductor*%
D23*
G36*
X179415440Y-85450680D02*
G01*
X179435440Y-85450680D01*
X179435440Y-85704680D01*
X179415440Y-85704680D01*
X179415440Y-85724680D01*
X179161440Y-85724680D01*
X179161440Y-85704680D01*
X179141440Y-85704680D01*
X179141440Y-85450680D01*
X179161440Y-85450680D01*
X179161440Y-85430680D01*
X179415440Y-85430680D01*
X179415440Y-85450680D01*
G37*
%TD.AperFunction*%
D22*
X170106686Y-84921941D02*
X170092543Y-84936083D01*
X170106686Y-84950226D01*
X169927081Y-85129831D01*
X169912938Y-85115688D01*
X169898796Y-85129831D01*
X169719191Y-84950226D01*
X169733333Y-84936083D01*
X169719191Y-84921941D01*
X169898796Y-84742336D01*
X169912938Y-84756478D01*
X169927081Y-84742336D01*
X170106686Y-84921941D01*
%TA.AperFunction,Conductor*%
D23*
G36*
X170106686Y-84921941D02*
G01*
X170092543Y-84936083D01*
X170106686Y-84950226D01*
X169927081Y-85129831D01*
X169912938Y-85115688D01*
X169898796Y-85129831D01*
X169719191Y-84950226D01*
X169733333Y-84936083D01*
X169719191Y-84921941D01*
X169898796Y-84742336D01*
X169912938Y-84756478D01*
X169927081Y-84742336D01*
X170106686Y-84921941D01*
G37*
%TD.AperFunction*%
D22*
X183324797Y-71736345D02*
X183356884Y-71842123D01*
X183368254Y-71879606D01*
X183438826Y-72011636D01*
X183457479Y-72034364D01*
X183533799Y-72127361D01*
X183562803Y-72151164D01*
X183568418Y-72156779D01*
X182827098Y-72898100D01*
X182703120Y-72910311D01*
X182545904Y-72958002D01*
X182401012Y-73035449D01*
X182274014Y-73139674D01*
X182169789Y-73266672D01*
X182092342Y-73411564D01*
X182044651Y-73568780D01*
X182028548Y-73732280D01*
X182028548Y-74132280D01*
X182044651Y-74295780D01*
X182092342Y-74452996D01*
X182169789Y-74597888D01*
X182253483Y-74699870D01*
X182215435Y-74731095D01*
X182136083Y-74827786D01*
X182077118Y-74938100D01*
X182040808Y-75057798D01*
X182028548Y-75182280D01*
X182031620Y-75296530D01*
X182190370Y-75455280D01*
X183014620Y-75455280D01*
X183014620Y-75435280D01*
X183268620Y-75435280D01*
X183268620Y-75455280D01*
X184092870Y-75455280D01*
X184251620Y-75296530D01*
X184254692Y-75182280D01*
X184250421Y-75138917D01*
X184325506Y-75200537D01*
X184435820Y-75259502D01*
X184555518Y-75295812D01*
X184680000Y-75308072D01*
X184797790Y-75307248D01*
X184801837Y-75313000D01*
X186193000Y-75313000D01*
X186193000Y-75301867D01*
X186254482Y-75295812D01*
X186263752Y-75293000D01*
X186447000Y-75293000D01*
X186447000Y-75313000D01*
X186467000Y-75313000D01*
X186467000Y-75567000D01*
X186447000Y-75567000D01*
X186447000Y-75587000D01*
X186193000Y-75587000D01*
X186193000Y-75567000D01*
X184801837Y-75567000D01*
X184676036Y-75745810D01*
X184759937Y-75978864D01*
X184884953Y-76170441D01*
X185044941Y-76333947D01*
X185233754Y-76463099D01*
X185444135Y-76552934D01*
X185668000Y-76600000D01*
X186310843Y-76600000D01*
X185587978Y-77322865D01*
X185518770Y-77316048D01*
X185006270Y-77316048D01*
X184839112Y-77332512D01*
X184678378Y-77381270D01*
X184530245Y-77460449D01*
X184415213Y-77554853D01*
X184372605Y-77502935D01*
X184275914Y-77423583D01*
X184165600Y-77364618D01*
X184045902Y-77328308D01*
X183921420Y-77316048D01*
X183732170Y-77319120D01*
X183573420Y-77477870D01*
X183573420Y-78277120D01*
X183593420Y-78277120D01*
X183593420Y-78531120D01*
X183573420Y-78531120D01*
X183573420Y-78551120D01*
X183319420Y-78551120D01*
X183319420Y-78531120D01*
X183299420Y-78531120D01*
X183299420Y-78277120D01*
X183319420Y-78277120D01*
X183319420Y-77477870D01*
X183160670Y-77319120D01*
X182971420Y-77316048D01*
X182846938Y-77328308D01*
X182727240Y-77364618D01*
X182616926Y-77423583D01*
X182520235Y-77502935D01*
X182440883Y-77599626D01*
X182381918Y-77709940D01*
X182375563Y-77730891D01*
X182357144Y-77696432D01*
X182252919Y-77569434D01*
X182125921Y-77465209D01*
X181981029Y-77387762D01*
X181823813Y-77340071D01*
X181660313Y-77323968D01*
X181553726Y-77323968D01*
X181553726Y-75982280D01*
X182028548Y-75982280D01*
X182040808Y-76106762D01*
X182077118Y-76226460D01*
X182136083Y-76336774D01*
X182215435Y-76433465D01*
X182312126Y-76512817D01*
X182422440Y-76571782D01*
X182542138Y-76608092D01*
X182666620Y-76620352D01*
X182855870Y-76617280D01*
X183014620Y-76458530D01*
X183014620Y-75709280D01*
X183268620Y-75709280D01*
X183268620Y-76458530D01*
X183427370Y-76617280D01*
X183616620Y-76620352D01*
X183741102Y-76608092D01*
X183860800Y-76571782D01*
X183971114Y-76512817D01*
X184067805Y-76433465D01*
X184147157Y-76336774D01*
X184206122Y-76226460D01*
X184242432Y-76106762D01*
X184254692Y-75982280D01*
X184251620Y-75868030D01*
X184092870Y-75709280D01*
X183268620Y-75709280D01*
X183014620Y-75709280D01*
X182190370Y-75709280D01*
X182031620Y-75868030D01*
X182028548Y-75982280D01*
X181553726Y-75982280D01*
X181553726Y-72980549D01*
X182904276Y-71630000D01*
X183314323Y-71630000D01*
X183324797Y-71736345D01*
%TA.AperFunction,Conductor*%
D23*
G36*
X183324797Y-71736345D02*
G01*
X183356884Y-71842123D01*
X183368254Y-71879606D01*
X183438826Y-72011636D01*
X183457479Y-72034364D01*
X183533799Y-72127361D01*
X183562803Y-72151164D01*
X183568418Y-72156779D01*
X182827098Y-72898100D01*
X182703120Y-72910311D01*
X182545904Y-72958002D01*
X182401012Y-73035449D01*
X182274014Y-73139674D01*
X182169789Y-73266672D01*
X182092342Y-73411564D01*
X182044651Y-73568780D01*
X182028548Y-73732280D01*
X182028548Y-74132280D01*
X182044651Y-74295780D01*
X182092342Y-74452996D01*
X182169789Y-74597888D01*
X182253483Y-74699870D01*
X182215435Y-74731095D01*
X182136083Y-74827786D01*
X182077118Y-74938100D01*
X182040808Y-75057798D01*
X182028548Y-75182280D01*
X182031620Y-75296530D01*
X182190370Y-75455280D01*
X183014620Y-75455280D01*
X183014620Y-75435280D01*
X183268620Y-75435280D01*
X183268620Y-75455280D01*
X184092870Y-75455280D01*
X184251620Y-75296530D01*
X184254692Y-75182280D01*
X184250421Y-75138917D01*
X184325506Y-75200537D01*
X184435820Y-75259502D01*
X184555518Y-75295812D01*
X184680000Y-75308072D01*
X184797790Y-75307248D01*
X184801837Y-75313000D01*
X186193000Y-75313000D01*
X186193000Y-75301867D01*
X186254482Y-75295812D01*
X186263752Y-75293000D01*
X186447000Y-75293000D01*
X186447000Y-75313000D01*
X186467000Y-75313000D01*
X186467000Y-75567000D01*
X186447000Y-75567000D01*
X186447000Y-75587000D01*
X186193000Y-75587000D01*
X186193000Y-75567000D01*
X184801837Y-75567000D01*
X184676036Y-75745810D01*
X184759937Y-75978864D01*
X184884953Y-76170441D01*
X185044941Y-76333947D01*
X185233754Y-76463099D01*
X185444135Y-76552934D01*
X185668000Y-76600000D01*
X186310843Y-76600000D01*
X185587978Y-77322865D01*
X185518770Y-77316048D01*
X185006270Y-77316048D01*
X184839112Y-77332512D01*
X184678378Y-77381270D01*
X184530245Y-77460449D01*
X184415213Y-77554853D01*
X184372605Y-77502935D01*
X184275914Y-77423583D01*
X184165600Y-77364618D01*
X184045902Y-77328308D01*
X183921420Y-77316048D01*
X183732170Y-77319120D01*
X183573420Y-77477870D01*
X183573420Y-78277120D01*
X183593420Y-78277120D01*
X183593420Y-78531120D01*
X183573420Y-78531120D01*
X183573420Y-78551120D01*
X183319420Y-78551120D01*
X183319420Y-78531120D01*
X183299420Y-78531120D01*
X183299420Y-78277120D01*
X183319420Y-78277120D01*
X183319420Y-77477870D01*
X183160670Y-77319120D01*
X182971420Y-77316048D01*
X182846938Y-77328308D01*
X182727240Y-77364618D01*
X182616926Y-77423583D01*
X182520235Y-77502935D01*
X182440883Y-77599626D01*
X182381918Y-77709940D01*
X182375563Y-77730891D01*
X182357144Y-77696432D01*
X182252919Y-77569434D01*
X182125921Y-77465209D01*
X181981029Y-77387762D01*
X181823813Y-77340071D01*
X181660313Y-77323968D01*
X181553726Y-77323968D01*
X181553726Y-75982280D01*
X182028548Y-75982280D01*
X182040808Y-76106762D01*
X182077118Y-76226460D01*
X182136083Y-76336774D01*
X182215435Y-76433465D01*
X182312126Y-76512817D01*
X182422440Y-76571782D01*
X182542138Y-76608092D01*
X182666620Y-76620352D01*
X182855870Y-76617280D01*
X183014620Y-76458530D01*
X183014620Y-75709280D01*
X183268620Y-75709280D01*
X183268620Y-76458530D01*
X183427370Y-76617280D01*
X183616620Y-76620352D01*
X183741102Y-76608092D01*
X183860800Y-76571782D01*
X183971114Y-76512817D01*
X184067805Y-76433465D01*
X184147157Y-76336774D01*
X184206122Y-76226460D01*
X184242432Y-76106762D01*
X184254692Y-75982280D01*
X184251620Y-75868030D01*
X184092870Y-75709280D01*
X183268620Y-75709280D01*
X183014620Y-75709280D01*
X182190370Y-75709280D01*
X182031620Y-75868030D01*
X182028548Y-75982280D01*
X181553726Y-75982280D01*
X181553726Y-72980549D01*
X182904276Y-71630000D01*
X183314323Y-71630000D01*
X183324797Y-71736345D01*
G37*
%TD.AperFunction*%
D22*
X185614880Y-63236480D02*
X185594880Y-63236480D01*
X185594880Y-63256480D01*
X185519407Y-63256480D01*
X185527880Y-63213881D01*
X185527880Y-63169480D01*
X185572281Y-63169480D01*
X185614880Y-63161007D01*
X185614880Y-63236480D01*
%TA.AperFunction,Conductor*%
D23*
G36*
X185614880Y-63236480D02*
G01*
X185594880Y-63236480D01*
X185594880Y-63256480D01*
X185519407Y-63256480D01*
X185527880Y-63213881D01*
X185527880Y-63169480D01*
X185572281Y-63169480D01*
X185614880Y-63161007D01*
X185614880Y-63236480D01*
G37*
%TD.AperFunction*%
%TD*%
M02*
